<?xml version="1.0" encoding="utf-8" standalone="no"?>
<!DOCTYPE svg PUBLIC "-//W3C//DTD SVG 1.1//EN"
  "http://www.w3.org/Graphics/SVG/1.1/DTD/svg11.dtd">
<!-- Created with matplotlib (http://matplotlib.org/) -->
<svg height="288pt" version="1.1" viewBox="0 0 432 288" width="432pt" xmlns="http://www.w3.org/2000/svg" xmlns:xlink="http://www.w3.org/1999/xlink">
 <defs>
  <style type="text/css">
*{stroke-linecap:butt;stroke-linejoin:round;stroke-miterlimit:100000;}
  </style>
 </defs>
 <g id="figure_1">
  <g id="patch_1">
   <path d="M 0 288 
L 432 288 
L 432 0 
L 0 0 
z
" style="fill:#ffffff;"/>
  </g>
  <g id="axes_1">
   <g id="patch_2">
    <path d="M 54 252 
L 388.8 252 
L 388.8 28.8 
L 54 28.8 
z
" style="fill:#ffffff;"/>
   </g>
   <g id="patch_3">
    <path clip-path="url(#pa24e0b1c8f)" d="M 318.848326 252 
L 318.848326 251.9442 
L 318.998175 251.9442 
L 318.998175 252 
L 319.148023 252 
L 319.148023 252 
L 319.297871 252 
L 319.297871 251.9442 
L 319.447719 251.9442 
L 319.447719 252 
L 319.597567 252 
L 319.597567 252 
L 319.747415 252 
L 319.747415 251.9442 
L 319.897263 251.9442 
L 319.897263 252 
L 320.047111 252 
L 320.047111 251.9442 
L 320.196959 251.9442 
L 320.196959 251.8884 
L 320.346807 251.8884 
L 320.346807 251.8884 
L 320.496655 251.8884 
L 320.496655 251.7768 
L 320.646503 251.7768 
L 320.646503 251.6094 
L 320.796351 251.6094 
L 320.796351 251.442 
L 320.946199 251.442 
L 320.946199 251.2746 
L 321.096048 251.2746 
L 321.096048 251.2188 
L 321.245896 251.2188 
L 321.245896 250.884 
L 321.395744 250.884 
L 321.395744 250.2702 
L 321.545592 250.2702 
L 321.545592 249.768 
L 321.69544 249.768 
L 321.69544 249.21 
L 321.845288 249.21 
L 321.845288 248.8194 
L 321.995136 248.8194 
L 321.995136 247.5918 
L 322.144984 247.5918 
L 322.144984 246.5316 
L 322.294832 246.5316 
L 322.294832 244.467 
L 322.44468 244.467 
L 322.44468 242.235 
L 322.594528 242.235 
L 322.594528 240.1704 
L 322.744376 240.1704 
L 322.744376 236.097 
L 322.894224 236.097 
L 322.894224 233.6976 
L 323.044073 233.6976 
L 323.044073 229.401 
L 323.193921 229.401 
L 323.193921 226.053 
L 323.343769 226.053 
L 323.343769 220.8078 
L 323.493617 220.8078 
L 323.493617 217.1808 
L 323.643465 217.1808 
L 323.643465 208.5876 
L 323.793313 208.5876 
L 323.793313 201.9474 
L 323.943161 201.9474 
L 323.943161 195.363 
L 324.093009 195.363 
L 324.093009 185.7096 
L 324.242857 185.7096 
L 324.242857 178.9578 
L 324.392705 178.9578 
L 324.392705 167.3514 
L 324.542553 167.3514 
L 324.542553 160.488 
L 324.692401 160.488 
L 324.692401 148.1562 
L 324.842249 148.1562 
L 324.842249 130.077 
L 324.992097 130.077 
L 324.992097 127.4544 
L 325.141946 127.4544 
L 325.141946 115.848 
L 325.291794 115.848 
L 325.291794 104.0742 
L 325.441642 104.0742 
L 325.441642 97.5456 
L 325.59149 97.5456 
L 325.59149 86.6088 
L 325.741338 86.6088 
L 325.741338 75.951 
L 325.891186 75.951 
L 325.891186 69.0876 
L 326.041034 69.0876 
L 326.041034 64.1214 
L 326.190882 64.1214 
L 326.190882 62.6148 
L 326.34073 62.6148 
L 326.34073 54.5796 
L 326.490578 54.5796 
L 326.490578 52.0128 
L 326.640426 52.0128 
L 326.640426 54.8028 
L 326.790274 54.8028 
L 326.790274 56.8116 
L 326.940122 56.8116 
L 326.940122 56.2536 
L 327.089971 56.2536 
L 327.089971 61.3872 
L 327.239819 61.3872 
L 327.239819 67.5252 
L 327.389667 67.5252 
L 327.389667 78.5178 
L 327.539515 78.5178 
L 327.539515 79.857 
L 327.689363 79.857 
L 327.689363 91.575 
L 327.839211 91.575 
L 327.839211 105.8598 
L 327.989059 105.8598 
L 327.989059 111.2166 
L 328.138907 111.2166 
L 328.138907 120.2004 
L 328.288755 120.2004 
L 328.288755 134.4852 
L 328.438603 134.4852 
L 328.438603 140.8464 
L 328.588451 140.8464 
L 328.588451 155.4102 
L 328.738299 155.4102 
L 328.738299 166.347 
L 328.888147 166.347 
L 328.888147 172.7082 
L 329.037996 172.7082 
L 329.037996 182.9196 
L 329.187844 182.9196 
L 329.187844 190.62 
L 329.337692 190.62 
L 329.337692 202.5054 
L 329.48754 202.5054 
L 329.48754 207.7506 
L 329.637388 207.7506 
L 329.637388 212.4378 
L 329.787236 212.4378 
L 329.787236 217.1808 
L 329.937084 217.1808 
L 329.937084 223.3746 
L 330.086932 223.3746 
L 330.086932 229.0104 
L 330.23678 229.0104 
L 330.23678 232.47 
L 330.386628 232.47 
L 330.386628 236.8224 
L 330.536476 236.8224 
L 330.536476 237.7152 
L 330.686324 237.7152 
L 330.686324 241.2864 
L 330.836172 241.2864 
L 330.836172 243.7974 
L 330.98602 243.7974 
L 330.98602 245.6946 
L 331.135869 245.6946 
L 331.135869 246.3642 
L 331.285717 246.3642 
L 331.285717 248.2056 
L 331.435565 248.2056 
L 331.435565 248.8194 
L 331.585413 248.8194 
L 331.585413 249.768 
L 331.735261 249.768 
L 331.735261 250.1586 
L 331.885109 250.1586 
L 331.885109 250.3818 
L 332.034957 250.3818 
L 332.034957 250.8282 
L 332.184805 250.8282 
L 332.184805 251.163 
L 332.334653 251.163 
L 332.334653 251.442 
L 332.484501 251.442 
L 332.484501 251.5536 
L 332.634349 251.5536 
L 332.634349 251.8884 
L 332.784197 251.8884 
L 332.784197 251.8884 
L 332.934045 251.8884 
L 332.934045 251.9442 
L 333.083894 251.9442 
L 333.083894 251.9442 
L 333.233742 251.9442 
L 333.233742 251.8884 
L 333.38359 251.8884 
L 333.38359 251.9442 
L 333.533438 251.9442 
L 333.533438 251.8884 
L 333.683286 251.8884 
L 333.683286 251.9442 
L 333.833134 251.9442 
L 333.833134 252 
L 333.683286 252 
L 333.683286 252 
L 333.533438 252 
L 333.533438 252 
L 333.38359 252 
L 333.38359 252 
L 333.233742 252 
L 333.233742 252 
L 333.083894 252 
L 333.083894 252 
L 332.934045 252 
L 332.934045 252 
L 332.784197 252 
L 332.784197 252 
L 332.634349 252 
L 332.634349 252 
L 332.484501 252 
L 332.484501 252 
L 332.334653 252 
L 332.334653 252 
L 332.184805 252 
L 332.184805 252 
L 332.034957 252 
L 332.034957 252 
L 331.885109 252 
L 331.885109 252 
L 331.735261 252 
L 331.735261 252 
L 331.585413 252 
L 331.585413 252 
L 331.435565 252 
L 331.435565 252 
L 331.285717 252 
L 331.285717 252 
L 331.135869 252 
L 331.135869 252 
L 330.98602 252 
L 330.98602 252 
L 330.836172 252 
L 330.836172 252 
L 330.686324 252 
L 330.686324 252 
L 330.536476 252 
L 330.536476 252 
L 330.386628 252 
L 330.386628 252 
L 330.23678 252 
L 330.23678 252 
L 330.086932 252 
L 330.086932 252 
L 329.937084 252 
L 329.937084 252 
L 329.787236 252 
L 329.787236 252 
L 329.637388 252 
L 329.637388 252 
L 329.48754 252 
L 329.48754 252 
L 329.337692 252 
L 329.337692 252 
L 329.187844 252 
L 329.187844 252 
L 329.037996 252 
L 329.037996 252 
L 328.888147 252 
L 328.888147 252 
L 328.738299 252 
L 328.738299 252 
L 328.588451 252 
L 328.588451 252 
L 328.438603 252 
L 328.438603 252 
L 328.288755 252 
L 328.288755 252 
L 328.138907 252 
L 328.138907 252 
L 327.989059 252 
L 327.989059 252 
L 327.839211 252 
L 327.839211 252 
L 327.689363 252 
L 327.689363 252 
L 327.539515 252 
L 327.539515 252 
L 327.389667 252 
L 327.389667 252 
L 327.239819 252 
L 327.239819 252 
L 327.089971 252 
L 327.089971 252 
L 326.940122 252 
L 326.940122 252 
L 326.790274 252 
L 326.790274 252 
L 326.640426 252 
L 326.640426 252 
L 326.490578 252 
L 326.490578 252 
L 326.34073 252 
L 326.34073 252 
L 326.190882 252 
L 326.190882 252 
L 326.041034 252 
L 326.041034 252 
L 325.891186 252 
L 325.891186 252 
L 325.741338 252 
L 325.741338 252 
L 325.59149 252 
L 325.59149 252 
L 325.441642 252 
L 325.441642 252 
L 325.291794 252 
L 325.291794 252 
L 325.141946 252 
L 325.141946 252 
L 324.992097 252 
L 324.992097 252 
L 324.842249 252 
L 324.842249 252 
L 324.692401 252 
L 324.692401 252 
L 324.542553 252 
L 324.542553 252 
L 324.392705 252 
L 324.392705 252 
L 324.242857 252 
L 324.242857 252 
L 324.093009 252 
L 324.093009 252 
L 323.943161 252 
L 323.943161 252 
L 323.793313 252 
L 323.793313 252 
L 323.643465 252 
L 323.643465 252 
L 323.493617 252 
L 323.493617 252 
L 323.343769 252 
L 323.343769 252 
L 323.193921 252 
L 323.193921 252 
L 323.044073 252 
L 323.044073 252 
L 322.894224 252 
L 322.894224 252 
L 322.744376 252 
L 322.744376 252 
L 322.594528 252 
L 322.594528 252 
L 322.44468 252 
L 322.44468 252 
L 322.294832 252 
L 322.294832 252 
L 322.144984 252 
L 322.144984 252 
L 321.995136 252 
L 321.995136 252 
L 321.845288 252 
L 321.845288 252 
L 321.69544 252 
L 321.69544 252 
L 321.545592 252 
L 321.545592 252 
L 321.395744 252 
L 321.395744 252 
L 321.245896 252 
L 321.245896 252 
L 321.096048 252 
L 321.096048 252 
L 320.946199 252 
L 320.946199 252 
L 320.796351 252 
L 320.796351 252 
L 320.646503 252 
L 320.646503 252 
L 320.496655 252 
L 320.496655 252 
L 320.346807 252 
L 320.346807 252 
L 320.196959 252 
L 320.196959 252 
L 320.047111 252 
L 320.047111 252 
L 319.897263 252 
L 319.897263 252 
L 319.747415 252 
L 319.747415 252 
L 319.597567 252 
L 319.597567 252 
L 319.447719 252 
L 319.447719 252 
L 319.297871 252 
L 319.297871 252 
L 319.148023 252 
L 319.148023 252 
L 318.998175 252 
L 318.998175 252 
z
" style="fill:#8b0000;stroke:#000000;stroke-linejoin:miter;"/>
   </g>
   <g id="patch_4">
    <path clip-path="url(#pa24e0b1c8f)" d="M 94.001469 252 
L 94.001469 251.9442 
L 94.148785 251.9442 
L 94.148785 252 
L 94.296101 252 
L 94.296101 252 
L 94.443416 252 
L 94.443416 252 
L 94.590732 252 
L 94.590732 251.8884 
L 94.738048 251.8884 
L 94.738048 252 
L 94.885363 252 
L 94.885363 251.9442 
L 95.032679 251.9442 
L 95.032679 251.8884 
L 95.179995 251.8884 
L 95.179995 251.8326 
L 95.32731 251.8326 
L 95.32731 251.6652 
L 95.474626 251.6652 
L 95.474626 251.721 
L 95.621942 251.721 
L 95.621942 251.6094 
L 95.769257 251.6094 
L 95.769257 251.3304 
L 95.916573 251.3304 
L 95.916573 251.442 
L 96.063889 251.442 
L 96.063889 250.884 
L 96.211204 250.884 
L 96.211204 250.8282 
L 96.35852 250.8282 
L 96.35852 249.7122 
L 96.505836 249.7122 
L 96.505836 249.3216 
L 96.653151 249.3216 
L 96.653151 248.4288 
L 96.800467 248.4288 
L 96.800467 248.094 
L 96.947783 248.094 
L 96.947783 245.583 
L 97.095098 245.583 
L 97.095098 244.8018 
L 97.242414 244.8018 
L 97.242414 243.1278 
L 97.389729 243.1278 
L 97.389729 239.445 
L 97.537045 239.445 
L 97.537045 237.3804 
L 97.684361 237.3804 
L 97.684361 233.586 
L 97.831676 233.586 
L 97.831676 229.401 
L 97.978992 229.401 
L 97.978992 223.263 
L 98.126308 223.263 
L 98.126308 217.9062 
L 98.273623 217.9062 
L 98.273623 211.0428 
L 98.420939 211.0428 
L 98.420939 200.7198 
L 98.568255 200.7198 
L 98.568255 194.1354 
L 98.71557 194.1354 
L 98.71557 184.7052 
L 98.862886 184.7052 
L 98.862886 176.2236 
L 99.010202 176.2236 
L 99.010202 168.4674 
L 99.157517 168.4674 
L 99.157517 154.4058 
L 99.304833 154.4058 
L 99.304833 139.3398 
L 99.452149 139.3398 
L 99.452149 126.5058 
L 99.599464 126.5058 
L 99.599464 111.4956 
L 99.74678 111.4956 
L 99.74678 107.0874 
L 99.894096 107.0874 
L 99.894096 95.9832 
L 100.041411 95.9832 
L 100.041411 81.3078 
L 100.188727 81.3078 
L 100.188727 70.4268 
L 100.336043 70.4268 
L 100.336043 60.606 
L 100.483358 60.606 
L 100.483358 60.6618 
L 100.630674 60.6618 
L 100.630674 50.6736 
L 100.777989 50.6736 
L 100.777989 39.7368 
L 100.925305 39.7368 
L 100.925305 38.8998 
L 101.072621 38.8998 
L 101.072621 41.2992 
L 101.219936 41.2992 
L 101.219936 38.3976 
L 101.367252 38.3976 
L 101.367252 43.587 
L 101.514568 43.587 
L 101.514568 54.189 
L 101.661883 54.189 
L 101.661883 57.6486 
L 101.809199 57.6486 
L 101.809199 55.2492 
L 101.956515 55.2492 
L 101.956515 71.0964 
L 102.10383 71.0964 
L 102.10383 79.299 
L 102.251146 79.299 
L 102.251146 87.4458 
L 102.398462 87.4458 
L 102.398462 107.7012 
L 102.545777 107.7012 
L 102.545777 117.1314 
L 102.693093 117.1314 
L 102.693093 128.7378 
L 102.840409 128.7378 
L 102.840409 140.5116 
L 102.987724 140.5116 
L 102.987724 151.5042 
L 103.13504 151.5042 
L 103.13504 164.8962 
L 103.282356 164.8962 
L 103.282356 177.786 
L 103.429671 177.786 
L 103.429671 185.04 
L 103.576987 185.04 
L 103.576987 196.8696 
L 103.724303 196.8696 
L 103.724303 206.0208 
L 103.871618 206.0208 
L 103.871618 211.8798 
L 104.018934 211.8798 
L 104.018934 218.1294 
L 104.16625 218.1294 
L 104.16625 226.1646 
L 104.313565 226.1646 
L 104.313565 229.5126 
L 104.460881 229.5126 
L 104.460881 232.9164 
L 104.608196 232.9164 
L 104.608196 236.376 
L 104.755512 236.376 
L 104.755512 239.8914 
L 104.902828 239.8914 
L 104.902828 241.4538 
L 105.050143 241.4538 
L 105.050143 244.1322 
L 105.197459 244.1322 
L 105.197459 245.9736 
L 105.344775 245.9736 
L 105.344775 247.7592 
L 105.49209 247.7592 
L 105.49209 249.0426 
L 105.639406 249.0426 
L 105.639406 249.6006 
L 105.786722 249.6006 
L 105.786722 249.8796 
L 105.934037 249.8796 
L 105.934037 250.326 
L 106.081353 250.326 
L 106.081353 251.1072 
L 106.228669 251.1072 
L 106.228669 251.3304 
L 106.375984 251.3304 
L 106.375984 251.7768 
L 106.5233 251.7768 
L 106.5233 251.6652 
L 106.670616 251.6652 
L 106.670616 251.721 
L 106.817931 251.721 
L 106.817931 251.9442 
L 106.965247 251.9442 
L 106.965247 251.8884 
L 107.112563 251.8884 
L 107.112563 251.8884 
L 107.259878 251.8884 
L 107.259878 252 
L 107.407194 252 
L 107.407194 251.8884 
L 107.55451 251.8884 
L 107.55451 251.9442 
L 107.701825 251.9442 
L 107.701825 252 
L 107.849141 252 
L 107.849141 252 
L 107.996457 252 
L 107.996457 252 
L 108.143772 252 
L 108.143772 252 
L 108.291088 252 
L 108.291088 252 
L 108.438403 252 
L 108.438403 252 
L 108.585719 252 
L 108.585719 251.9442 
L 108.733035 251.9442 
L 108.733035 252 
L 108.585719 252 
L 108.585719 252 
L 108.438403 252 
L 108.438403 252 
L 108.291088 252 
L 108.291088 252 
L 108.143772 252 
L 108.143772 252 
L 107.996457 252 
L 107.996457 252 
L 107.849141 252 
L 107.849141 252 
L 107.701825 252 
L 107.701825 252 
L 107.55451 252 
L 107.55451 252 
L 107.407194 252 
L 107.407194 252 
L 107.259878 252 
L 107.259878 252 
L 107.112563 252 
L 107.112563 252 
L 106.965247 252 
L 106.965247 252 
L 106.817931 252 
L 106.817931 252 
L 106.670616 252 
L 106.670616 252 
L 106.5233 252 
L 106.5233 252 
L 106.375984 252 
L 106.375984 252 
L 106.228669 252 
L 106.228669 252 
L 106.081353 252 
L 106.081353 252 
L 105.934037 252 
L 105.934037 252 
L 105.786722 252 
L 105.786722 252 
L 105.639406 252 
L 105.639406 252 
L 105.49209 252 
L 105.49209 252 
L 105.344775 252 
L 105.344775 252 
L 105.197459 252 
L 105.197459 252 
L 105.050143 252 
L 105.050143 252 
L 104.902828 252 
L 104.902828 252 
L 104.755512 252 
L 104.755512 252 
L 104.608196 252 
L 104.608196 252 
L 104.460881 252 
L 104.460881 252 
L 104.313565 252 
L 104.313565 252 
L 104.16625 252 
L 104.16625 252 
L 104.018934 252 
L 104.018934 252 
L 103.871618 252 
L 103.871618 252 
L 103.724303 252 
L 103.724303 252 
L 103.576987 252 
L 103.576987 252 
L 103.429671 252 
L 103.429671 252 
L 103.282356 252 
L 103.282356 252 
L 103.13504 252 
L 103.13504 252 
L 102.987724 252 
L 102.987724 252 
L 102.840409 252 
L 102.840409 252 
L 102.693093 252 
L 102.693093 252 
L 102.545777 252 
L 102.545777 252 
L 102.398462 252 
L 102.398462 252 
L 102.251146 252 
L 102.251146 252 
L 102.10383 252 
L 102.10383 252 
L 101.956515 252 
L 101.956515 252 
L 101.809199 252 
L 101.809199 252 
L 101.661883 252 
L 101.661883 252 
L 101.514568 252 
L 101.514568 252 
L 101.367252 252 
L 101.367252 252 
L 101.219936 252 
L 101.219936 252 
L 101.072621 252 
L 101.072621 252 
L 100.925305 252 
L 100.925305 252 
L 100.777989 252 
L 100.777989 252 
L 100.630674 252 
L 100.630674 252 
L 100.483358 252 
L 100.483358 252 
L 100.336043 252 
L 100.336043 252 
L 100.188727 252 
L 100.188727 252 
L 100.041411 252 
L 100.041411 252 
L 99.894096 252 
L 99.894096 252 
L 99.74678 252 
L 99.74678 252 
L 99.599464 252 
L 99.599464 252 
L 99.452149 252 
L 99.452149 252 
L 99.304833 252 
L 99.304833 252 
L 99.157517 252 
L 99.157517 252 
L 99.010202 252 
L 99.010202 252 
L 98.862886 252 
L 98.862886 252 
L 98.71557 252 
L 98.71557 252 
L 98.568255 252 
L 98.568255 252 
L 98.420939 252 
L 98.420939 252 
L 98.273623 252 
L 98.273623 252 
L 98.126308 252 
L 98.126308 252 
L 97.978992 252 
L 97.978992 252 
L 97.831676 252 
L 97.831676 252 
L 97.684361 252 
L 97.684361 252 
L 97.537045 252 
L 97.537045 252 
L 97.389729 252 
L 97.389729 252 
L 97.242414 252 
L 97.242414 252 
L 97.095098 252 
L 97.095098 252 
L 96.947783 252 
L 96.947783 252 
L 96.800467 252 
L 96.800467 252 
L 96.653151 252 
L 96.653151 252 
L 96.505836 252 
L 96.505836 252 
L 96.35852 252 
L 96.35852 252 
L 96.211204 252 
L 96.211204 252 
L 96.063889 252 
L 96.063889 252 
L 95.916573 252 
L 95.916573 252 
L 95.769257 252 
L 95.769257 252 
L 95.621942 252 
L 95.621942 252 
L 95.474626 252 
L 95.474626 252 
L 95.32731 252 
L 95.32731 252 
L 95.179995 252 
L 95.179995 252 
L 95.032679 252 
L 95.032679 252 
L 94.885363 252 
L 94.885363 252 
L 94.738048 252 
L 94.738048 252 
L 94.590732 252 
L 94.590732 252 
L 94.443416 252 
L 94.443416 252 
L 94.296101 252 
L 94.296101 252 
L 94.148785 252 
L 94.148785 252 
z
" style="fill:#00008b;stroke:#000000;stroke-linejoin:miter;"/>
   </g>
   <g id="patch_5">
    <path d="M 54 28.8 
L 388.8 28.8 
" style="fill:none;stroke:#000000;stroke-linecap:square;stroke-linejoin:miter;"/>
   </g>
   <g id="patch_6">
    <path d="M 388.8 252 
L 388.8 28.8 
" style="fill:none;stroke:#000000;stroke-linecap:square;stroke-linejoin:miter;"/>
   </g>
   <g id="patch_7">
    <path d="M 54 252 
L 388.8 252 
" style="fill:none;stroke:#000000;stroke-linecap:square;stroke-linejoin:miter;"/>
   </g>
   <g id="patch_8">
    <path d="M 54 252 
L 54 28.8 
" style="fill:none;stroke:#000000;stroke-linecap:square;stroke-linejoin:miter;"/>
   </g>
   <g id="matplotlib.axis_1">
    <g id="xtick_1">
     <g id="line2d_1">
      <defs>
       <path d="M 0 0 
L 0 -4 
" id="m3601a86600" style="stroke:#000000;stroke-width:0.5;"/>
      </defs>
      <g>
       <use style="stroke:#000000;stroke-width:0.5;" x="54.0" xlink:href="#m3601a86600" y="252.0"/>
      </g>
     </g>
     <g id="line2d_2">
      <defs>
       <path d="M 0 0 
L 0 4 
" id="m04d716820e" style="stroke:#000000;stroke-width:0.5;"/>
      </defs>
      <g>
       <use style="stroke:#000000;stroke-width:0.5;" x="54.0" xlink:href="#m04d716820e" y="28.8"/>
      </g>
     </g>
     <g id="text_1">
      <!-- 1080 -->
      <defs>
       <path d="M 31.78125 66.40625 
Q 24.171875 66.40625 20.328125 58.90625 
Q 16.5 51.421875 16.5 36.375 
Q 16.5 21.390625 20.328125 13.890625 
Q 24.171875 6.390625 31.78125 6.390625 
Q 39.453125 6.390625 43.28125 13.890625 
Q 47.125 21.390625 47.125 36.375 
Q 47.125 51.421875 43.28125 58.90625 
Q 39.453125 66.40625 31.78125 66.40625 
M 31.78125 74.21875 
Q 44.046875 74.21875 50.515625 64.515625 
Q 56.984375 54.828125 56.984375 36.375 
Q 56.984375 17.96875 50.515625 8.265625 
Q 44.046875 -1.421875 31.78125 -1.421875 
Q 19.53125 -1.421875 13.0625 8.265625 
Q 6.59375 17.96875 6.59375 36.375 
Q 6.59375 54.828125 13.0625 64.515625 
Q 19.53125 74.21875 31.78125 74.21875 
" id="BitstreamVeraSans-Roman-30"/>
       <path d="M 12.40625 8.296875 
L 28.515625 8.296875 
L 28.515625 63.921875 
L 10.984375 60.40625 
L 10.984375 69.390625 
L 28.421875 72.90625 
L 38.28125 72.90625 
L 38.28125 8.296875 
L 54.390625 8.296875 
L 54.390625 0 
L 12.40625 0 
z
" id="BitstreamVeraSans-Roman-31"/>
       <path d="M 31.78125 34.625 
Q 24.75 34.625 20.71875 30.859375 
Q 16.703125 27.09375 16.703125 20.515625 
Q 16.703125 13.921875 20.71875 10.15625 
Q 24.75 6.390625 31.78125 6.390625 
Q 38.8125 6.390625 42.859375 10.171875 
Q 46.921875 13.96875 46.921875 20.515625 
Q 46.921875 27.09375 42.890625 30.859375 
Q 38.875 34.625 31.78125 34.625 
M 21.921875 38.8125 
Q 15.578125 40.375 12.03125 44.71875 
Q 8.5 49.078125 8.5 55.328125 
Q 8.5 64.0625 14.71875 69.140625 
Q 20.953125 74.21875 31.78125 74.21875 
Q 42.671875 74.21875 48.875 69.140625 
Q 55.078125 64.0625 55.078125 55.328125 
Q 55.078125 49.078125 51.53125 44.71875 
Q 48 40.375 41.703125 38.8125 
Q 48.828125 37.15625 52.796875 32.3125 
Q 56.78125 27.484375 56.78125 20.515625 
Q 56.78125 9.90625 50.3125 4.234375 
Q 43.84375 -1.421875 31.78125 -1.421875 
Q 19.734375 -1.421875 13.25 4.234375 
Q 6.78125 9.90625 6.78125 20.515625 
Q 6.78125 27.484375 10.78125 32.3125 
Q 14.796875 37.15625 21.921875 38.8125 
M 18.3125 54.390625 
Q 18.3125 48.734375 21.84375 45.5625 
Q 25.390625 42.390625 31.78125 42.390625 
Q 38.140625 42.390625 41.71875 45.5625 
Q 45.3125 48.734375 45.3125 54.390625 
Q 45.3125 60.0625 41.71875 63.234375 
Q 38.140625 66.40625 31.78125 66.40625 
Q 25.390625 66.40625 21.84375 63.234375 
Q 18.3125 60.0625 18.3125 54.390625 
" id="BitstreamVeraSans-Roman-38"/>
      </defs>
      <g transform="translate(41.275 263.5984375)scale(0.1 -0.1)">
       <use xlink:href="#BitstreamVeraSans-Roman-31"/>
       <use x="63.623046875" xlink:href="#BitstreamVeraSans-Roman-30"/>
       <use x="127.24609375" xlink:href="#BitstreamVeraSans-Roman-38"/>
       <use x="190.869140625" xlink:href="#BitstreamVeraSans-Roman-30"/>
      </g>
     </g>
    </g>
    <g id="xtick_2">
     <g id="line2d_3">
      <g>
       <use style="stroke:#000000;stroke-width:0.5;" x="120.96" xlink:href="#m3601a86600" y="252.0"/>
      </g>
     </g>
     <g id="line2d_4">
      <g>
       <use style="stroke:#000000;stroke-width:0.5;" x="120.96" xlink:href="#m04d716820e" y="28.8"/>
      </g>
     </g>
     <g id="text_2">
      <!-- 1085 -->
      <defs>
       <path d="M 10.796875 72.90625 
L 49.515625 72.90625 
L 49.515625 64.59375 
L 19.828125 64.59375 
L 19.828125 46.734375 
Q 21.96875 47.46875 24.109375 47.828125 
Q 26.265625 48.1875 28.421875 48.1875 
Q 40.625 48.1875 47.75 41.5 
Q 54.890625 34.8125 54.890625 23.390625 
Q 54.890625 11.625 47.5625 5.09375 
Q 40.234375 -1.421875 26.90625 -1.421875 
Q 22.3125 -1.421875 17.546875 -0.640625 
Q 12.796875 0.140625 7.71875 1.703125 
L 7.71875 11.625 
Q 12.109375 9.234375 16.796875 8.0625 
Q 21.484375 6.890625 26.703125 6.890625 
Q 35.15625 6.890625 40.078125 11.328125 
Q 45.015625 15.765625 45.015625 23.390625 
Q 45.015625 31 40.078125 35.4375 
Q 35.15625 39.890625 26.703125 39.890625 
Q 22.75 39.890625 18.8125 39.015625 
Q 14.890625 38.140625 10.796875 36.28125 
z
" id="BitstreamVeraSans-Roman-35"/>
      </defs>
      <g transform="translate(108.235 263.5984375)scale(0.1 -0.1)">
       <use xlink:href="#BitstreamVeraSans-Roman-31"/>
       <use x="63.623046875" xlink:href="#BitstreamVeraSans-Roman-30"/>
       <use x="127.24609375" xlink:href="#BitstreamVeraSans-Roman-38"/>
       <use x="190.869140625" xlink:href="#BitstreamVeraSans-Roman-35"/>
      </g>
     </g>
    </g>
    <g id="xtick_3">
     <g id="line2d_5">
      <g>
       <use style="stroke:#000000;stroke-width:0.5;" x="187.92" xlink:href="#m3601a86600" y="252.0"/>
      </g>
     </g>
     <g id="line2d_6">
      <g>
       <use style="stroke:#000000;stroke-width:0.5;" x="187.92" xlink:href="#m04d716820e" y="28.8"/>
      </g>
     </g>
     <g id="text_3">
      <!-- 1090 -->
      <defs>
       <path d="M 10.984375 1.515625 
L 10.984375 10.5 
Q 14.703125 8.734375 18.5 7.8125 
Q 22.3125 6.890625 25.984375 6.890625 
Q 35.75 6.890625 40.890625 13.453125 
Q 46.046875 20.015625 46.78125 33.40625 
Q 43.953125 29.203125 39.59375 26.953125 
Q 35.25 24.703125 29.984375 24.703125 
Q 19.046875 24.703125 12.671875 31.3125 
Q 6.296875 37.9375 6.296875 49.421875 
Q 6.296875 60.640625 12.9375 67.421875 
Q 19.578125 74.21875 30.609375 74.21875 
Q 43.265625 74.21875 49.921875 64.515625 
Q 56.59375 54.828125 56.59375 36.375 
Q 56.59375 19.140625 48.40625 8.859375 
Q 40.234375 -1.421875 26.421875 -1.421875 
Q 22.703125 -1.421875 18.890625 -0.6875 
Q 15.09375 0.046875 10.984375 1.515625 
M 30.609375 32.421875 
Q 37.25 32.421875 41.125 36.953125 
Q 45.015625 41.5 45.015625 49.421875 
Q 45.015625 57.28125 41.125 61.84375 
Q 37.25 66.40625 30.609375 66.40625 
Q 23.96875 66.40625 20.09375 61.84375 
Q 16.21875 57.28125 16.21875 49.421875 
Q 16.21875 41.5 20.09375 36.953125 
Q 23.96875 32.421875 30.609375 32.421875 
" id="BitstreamVeraSans-Roman-39"/>
      </defs>
      <g transform="translate(175.195 263.5984375)scale(0.1 -0.1)">
       <use xlink:href="#BitstreamVeraSans-Roman-31"/>
       <use x="63.623046875" xlink:href="#BitstreamVeraSans-Roman-30"/>
       <use x="127.24609375" xlink:href="#BitstreamVeraSans-Roman-39"/>
       <use x="190.869140625" xlink:href="#BitstreamVeraSans-Roman-30"/>
      </g>
     </g>
    </g>
    <g id="xtick_4">
     <g id="line2d_7">
      <g>
       <use style="stroke:#000000;stroke-width:0.5;" x="254.88" xlink:href="#m3601a86600" y="252.0"/>
      </g>
     </g>
     <g id="line2d_8">
      <g>
       <use style="stroke:#000000;stroke-width:0.5;" x="254.88" xlink:href="#m04d716820e" y="28.8"/>
      </g>
     </g>
     <g id="text_4">
      <!-- 1095 -->
      <g transform="translate(242.155 263.5984375)scale(0.1 -0.1)">
       <use xlink:href="#BitstreamVeraSans-Roman-31"/>
       <use x="63.623046875" xlink:href="#BitstreamVeraSans-Roman-30"/>
       <use x="127.24609375" xlink:href="#BitstreamVeraSans-Roman-39"/>
       <use x="190.869140625" xlink:href="#BitstreamVeraSans-Roman-35"/>
      </g>
     </g>
    </g>
    <g id="xtick_5">
     <g id="line2d_9">
      <g>
       <use style="stroke:#000000;stroke-width:0.5;" x="321.84" xlink:href="#m3601a86600" y="252.0"/>
      </g>
     </g>
     <g id="line2d_10">
      <g>
       <use style="stroke:#000000;stroke-width:0.5;" x="321.84" xlink:href="#m04d716820e" y="28.8"/>
      </g>
     </g>
     <g id="text_5">
      <!-- 1100 -->
      <g transform="translate(309.115 263.5984375)scale(0.1 -0.1)">
       <use xlink:href="#BitstreamVeraSans-Roman-31"/>
       <use x="63.623046875" xlink:href="#BitstreamVeraSans-Roman-31"/>
       <use x="127.24609375" xlink:href="#BitstreamVeraSans-Roman-30"/>
       <use x="190.869140625" xlink:href="#BitstreamVeraSans-Roman-30"/>
      </g>
     </g>
    </g>
    <g id="xtick_6">
     <g id="line2d_11">
      <g>
       <use style="stroke:#000000;stroke-width:0.5;" x="388.8" xlink:href="#m3601a86600" y="252.0"/>
      </g>
     </g>
     <g id="line2d_12">
      <g>
       <use style="stroke:#000000;stroke-width:0.5;" x="388.8" xlink:href="#m04d716820e" y="28.8"/>
      </g>
     </g>
     <g id="text_6">
      <!-- 1105 -->
      <g transform="translate(376.075 263.5984375)scale(0.1 -0.1)">
       <use xlink:href="#BitstreamVeraSans-Roman-31"/>
       <use x="63.623046875" xlink:href="#BitstreamVeraSans-Roman-31"/>
       <use x="127.24609375" xlink:href="#BitstreamVeraSans-Roman-30"/>
       <use x="190.869140625" xlink:href="#BitstreamVeraSans-Roman-35"/>
      </g>
     </g>
    </g>
    <g id="text_7">
     <!-- Age (Ma) -->
     <defs>
      <path id="BitstreamVeraSans-Roman-20"/>
      <path d="M 9.8125 72.90625 
L 24.515625 72.90625 
L 43.109375 23.296875 
L 61.8125 72.90625 
L 76.515625 72.90625 
L 76.515625 0 
L 66.890625 0 
L 66.890625 64.015625 
L 48.09375 14.015625 
L 38.1875 14.015625 
L 19.390625 64.015625 
L 19.390625 0 
L 9.8125 0 
z
" id="BitstreamVeraSans-Roman-4d"/>
      <path d="M 8.015625 75.875 
L 15.828125 75.875 
Q 23.140625 64.359375 26.78125 53.3125 
Q 30.421875 42.28125 30.421875 31.390625 
Q 30.421875 20.453125 26.78125 9.375 
Q 23.140625 -1.703125 15.828125 -13.1875 
L 8.015625 -13.1875 
Q 14.5 -2 17.703125 9.0625 
Q 20.90625 20.125 20.90625 31.390625 
Q 20.90625 42.671875 17.703125 53.65625 
Q 14.5 64.65625 8.015625 75.875 
" id="BitstreamVeraSans-Roman-29"/>
      <path d="M 31 75.875 
Q 24.46875 64.65625 21.28125 53.65625 
Q 18.109375 42.671875 18.109375 31.390625 
Q 18.109375 20.125 21.3125 9.0625 
Q 24.515625 -2 31 -13.1875 
L 23.1875 -13.1875 
Q 15.875 -1.703125 12.234375 9.375 
Q 8.59375 20.453125 8.59375 31.390625 
Q 8.59375 42.28125 12.203125 53.3125 
Q 15.828125 64.359375 23.1875 75.875 
z
" id="BitstreamVeraSans-Roman-28"/>
      <path d="M 34.1875 63.1875 
L 20.796875 26.90625 
L 47.609375 26.90625 
z
M 28.609375 72.90625 
L 39.796875 72.90625 
L 67.578125 0 
L 57.328125 0 
L 50.6875 18.703125 
L 17.828125 18.703125 
L 11.1875 0 
L 0.78125 0 
z
" id="BitstreamVeraSans-Roman-41"/>
      <path d="M 56.203125 29.59375 
L 56.203125 25.203125 
L 14.890625 25.203125 
Q 15.484375 15.921875 20.484375 11.0625 
Q 25.484375 6.203125 34.421875 6.203125 
Q 39.59375 6.203125 44.453125 7.46875 
Q 49.3125 8.734375 54.109375 11.28125 
L 54.109375 2.78125 
Q 49.265625 0.734375 44.1875 -0.34375 
Q 39.109375 -1.421875 33.890625 -1.421875 
Q 20.796875 -1.421875 13.15625 6.1875 
Q 5.515625 13.8125 5.515625 26.8125 
Q 5.515625 40.234375 12.765625 48.109375 
Q 20.015625 56 32.328125 56 
Q 43.359375 56 49.78125 48.890625 
Q 56.203125 41.796875 56.203125 29.59375 
M 47.21875 32.234375 
Q 47.125 39.59375 43.09375 43.984375 
Q 39.0625 48.390625 32.421875 48.390625 
Q 24.90625 48.390625 20.390625 44.140625 
Q 15.875 39.890625 15.1875 32.171875 
z
" id="BitstreamVeraSans-Roman-65"/>
      <path d="M 45.40625 27.984375 
Q 45.40625 37.75 41.375 43.109375 
Q 37.359375 48.484375 30.078125 48.484375 
Q 22.859375 48.484375 18.828125 43.109375 
Q 14.796875 37.75 14.796875 27.984375 
Q 14.796875 18.265625 18.828125 12.890625 
Q 22.859375 7.515625 30.078125 7.515625 
Q 37.359375 7.515625 41.375 12.890625 
Q 45.40625 18.265625 45.40625 27.984375 
M 54.390625 6.78125 
Q 54.390625 -7.171875 48.1875 -13.984375 
Q 42 -20.796875 29.203125 -20.796875 
Q 24.46875 -20.796875 20.265625 -20.09375 
Q 16.0625 -19.390625 12.109375 -17.921875 
L 12.109375 -9.1875 
Q 16.0625 -11.328125 19.921875 -12.34375 
Q 23.78125 -13.375 27.78125 -13.375 
Q 36.625 -13.375 41.015625 -8.765625 
Q 45.40625 -4.15625 45.40625 5.171875 
L 45.40625 9.625 
Q 42.625 4.78125 38.28125 2.390625 
Q 33.9375 0 27.875 0 
Q 17.828125 0 11.671875 7.65625 
Q 5.515625 15.328125 5.515625 27.984375 
Q 5.515625 40.671875 11.671875 48.328125 
Q 17.828125 56 27.875 56 
Q 33.9375 56 38.28125 53.609375 
Q 42.625 51.21875 45.40625 46.390625 
L 45.40625 54.6875 
L 54.390625 54.6875 
z
" id="BitstreamVeraSans-Roman-67"/>
      <path d="M 34.28125 27.484375 
Q 23.390625 27.484375 19.1875 25 
Q 14.984375 22.515625 14.984375 16.5 
Q 14.984375 11.71875 18.140625 8.90625 
Q 21.296875 6.109375 26.703125 6.109375 
Q 34.1875 6.109375 38.703125 11.40625 
Q 43.21875 16.703125 43.21875 25.484375 
L 43.21875 27.484375 
z
M 52.203125 31.203125 
L 52.203125 0 
L 43.21875 0 
L 43.21875 8.296875 
Q 40.140625 3.328125 35.546875 0.953125 
Q 30.953125 -1.421875 24.3125 -1.421875 
Q 15.921875 -1.421875 10.953125 3.296875 
Q 6 8.015625 6 15.921875 
Q 6 25.140625 12.171875 29.828125 
Q 18.359375 34.515625 30.609375 34.515625 
L 43.21875 34.515625 
L 43.21875 35.40625 
Q 43.21875 41.609375 39.140625 45 
Q 35.0625 48.390625 27.6875 48.390625 
Q 23 48.390625 18.546875 47.265625 
Q 14.109375 46.140625 10.015625 43.890625 
L 10.015625 52.203125 
Q 14.9375 54.109375 19.578125 55.046875 
Q 24.21875 56 28.609375 56 
Q 40.484375 56 46.34375 49.84375 
Q 52.203125 43.703125 52.203125 31.203125 
" id="BitstreamVeraSans-Roman-61"/>
     </defs>
     <g transform="translate(198.86015625 278.2765625)scale(0.1 -0.1)">
      <use xlink:href="#BitstreamVeraSans-Roman-41"/>
      <use x="68.408203125" xlink:href="#BitstreamVeraSans-Roman-67"/>
      <use x="131.884765625" xlink:href="#BitstreamVeraSans-Roman-65"/>
      <use x="193.408203125" xlink:href="#BitstreamVeraSans-Roman-20"/>
      <use x="225.1953125" xlink:href="#BitstreamVeraSans-Roman-28"/>
      <use x="264.208984375" xlink:href="#BitstreamVeraSans-Roman-4d"/>
      <use x="350.48828125" xlink:href="#BitstreamVeraSans-Roman-61"/>
      <use x="411.767578125" xlink:href="#BitstreamVeraSans-Roman-29"/>
     </g>
    </g>
   </g>
   <g id="matplotlib.axis_2">
    <g id="ytick_1">
     <g id="line2d_13">
      <defs>
       <path d="M 0 0 
L 4 0 
" id="m7a80f59d19" style="stroke:#000000;stroke-width:0.5;"/>
      </defs>
      <g>
       <use style="stroke:#000000;stroke-width:0.5;" x="54.0" xlink:href="#m7a80f59d19" y="252.0"/>
      </g>
     </g>
     <g id="line2d_14">
      <defs>
       <path d="M 0 0 
L -4 0 
" id="m63775c6238" style="stroke:#000000;stroke-width:0.5;"/>
      </defs>
      <g>
       <use style="stroke:#000000;stroke-width:0.5;" x="388.8" xlink:href="#m63775c6238" y="252.0"/>
      </g>
     </g>
     <g id="text_8">
      <!-- 0 -->
      <g transform="translate(43.6375 254.759375)scale(0.1 -0.1)">
       <use xlink:href="#BitstreamVeraSans-Roman-30"/>
      </g>
     </g>
    </g>
    <g id="ytick_2">
     <g id="line2d_15">
      <g>
       <use style="stroke:#000000;stroke-width:0.5;" x="54.0" xlink:href="#m7a80f59d19" y="224.1"/>
      </g>
     </g>
     <g id="line2d_16">
      <g>
       <use style="stroke:#000000;stroke-width:0.5;" x="388.8" xlink:href="#m63775c6238" y="224.1"/>
      </g>
     </g>
     <g id="text_9">
      <!-- 500 -->
      <g transform="translate(30.9125 226.859375)scale(0.1 -0.1)">
       <use xlink:href="#BitstreamVeraSans-Roman-35"/>
       <use x="63.623046875" xlink:href="#BitstreamVeraSans-Roman-30"/>
       <use x="127.24609375" xlink:href="#BitstreamVeraSans-Roman-30"/>
      </g>
     </g>
    </g>
    <g id="ytick_3">
     <g id="line2d_17">
      <g>
       <use style="stroke:#000000;stroke-width:0.5;" x="54.0" xlink:href="#m7a80f59d19" y="196.2"/>
      </g>
     </g>
     <g id="line2d_18">
      <g>
       <use style="stroke:#000000;stroke-width:0.5;" x="388.8" xlink:href="#m63775c6238" y="196.2"/>
      </g>
     </g>
     <g id="text_10">
      <!-- 1000 -->
      <g transform="translate(24.55 198.959375)scale(0.1 -0.1)">
       <use xlink:href="#BitstreamVeraSans-Roman-31"/>
       <use x="63.623046875" xlink:href="#BitstreamVeraSans-Roman-30"/>
       <use x="127.24609375" xlink:href="#BitstreamVeraSans-Roman-30"/>
       <use x="190.869140625" xlink:href="#BitstreamVeraSans-Roman-30"/>
      </g>
     </g>
    </g>
    <g id="ytick_4">
     <g id="line2d_19">
      <g>
       <use style="stroke:#000000;stroke-width:0.5;" x="54.0" xlink:href="#m7a80f59d19" y="168.3"/>
      </g>
     </g>
     <g id="line2d_20">
      <g>
       <use style="stroke:#000000;stroke-width:0.5;" x="388.8" xlink:href="#m63775c6238" y="168.3"/>
      </g>
     </g>
     <g id="text_11">
      <!-- 1500 -->
      <g transform="translate(24.55 171.059375)scale(0.1 -0.1)">
       <use xlink:href="#BitstreamVeraSans-Roman-31"/>
       <use x="63.623046875" xlink:href="#BitstreamVeraSans-Roman-35"/>
       <use x="127.24609375" xlink:href="#BitstreamVeraSans-Roman-30"/>
       <use x="190.869140625" xlink:href="#BitstreamVeraSans-Roman-30"/>
      </g>
     </g>
    </g>
    <g id="ytick_5">
     <g id="line2d_21">
      <g>
       <use style="stroke:#000000;stroke-width:0.5;" x="54.0" xlink:href="#m7a80f59d19" y="140.4"/>
      </g>
     </g>
     <g id="line2d_22">
      <g>
       <use style="stroke:#000000;stroke-width:0.5;" x="388.8" xlink:href="#m63775c6238" y="140.4"/>
      </g>
     </g>
     <g id="text_12">
      <!-- 2000 -->
      <defs>
       <path d="M 19.1875 8.296875 
L 53.609375 8.296875 
L 53.609375 0 
L 7.328125 0 
L 7.328125 8.296875 
Q 12.9375 14.109375 22.625 23.890625 
Q 32.328125 33.6875 34.8125 36.53125 
Q 39.546875 41.84375 41.421875 45.53125 
Q 43.3125 49.21875 43.3125 52.78125 
Q 43.3125 58.59375 39.234375 62.25 
Q 35.15625 65.921875 28.609375 65.921875 
Q 23.96875 65.921875 18.8125 64.3125 
Q 13.671875 62.703125 7.8125 59.421875 
L 7.8125 69.390625 
Q 13.765625 71.78125 18.9375 73 
Q 24.125 74.21875 28.421875 74.21875 
Q 39.75 74.21875 46.484375 68.546875 
Q 53.21875 62.890625 53.21875 53.421875 
Q 53.21875 48.921875 51.53125 44.890625 
Q 49.859375 40.875 45.40625 35.40625 
Q 44.1875 33.984375 37.640625 27.21875 
Q 31.109375 20.453125 19.1875 8.296875 
" id="BitstreamVeraSans-Roman-32"/>
      </defs>
      <g transform="translate(24.55 143.159375)scale(0.1 -0.1)">
       <use xlink:href="#BitstreamVeraSans-Roman-32"/>
       <use x="63.623046875" xlink:href="#BitstreamVeraSans-Roman-30"/>
       <use x="127.24609375" xlink:href="#BitstreamVeraSans-Roman-30"/>
       <use x="190.869140625" xlink:href="#BitstreamVeraSans-Roman-30"/>
      </g>
     </g>
    </g>
    <g id="ytick_6">
     <g id="line2d_23">
      <g>
       <use style="stroke:#000000;stroke-width:0.5;" x="54.0" xlink:href="#m7a80f59d19" y="112.5"/>
      </g>
     </g>
     <g id="line2d_24">
      <g>
       <use style="stroke:#000000;stroke-width:0.5;" x="388.8" xlink:href="#m63775c6238" y="112.5"/>
      </g>
     </g>
     <g id="text_13">
      <!-- 2500 -->
      <g transform="translate(24.55 115.259375)scale(0.1 -0.1)">
       <use xlink:href="#BitstreamVeraSans-Roman-32"/>
       <use x="63.623046875" xlink:href="#BitstreamVeraSans-Roman-35"/>
       <use x="127.24609375" xlink:href="#BitstreamVeraSans-Roman-30"/>
       <use x="190.869140625" xlink:href="#BitstreamVeraSans-Roman-30"/>
      </g>
     </g>
    </g>
    <g id="ytick_7">
     <g id="line2d_25">
      <g>
       <use style="stroke:#000000;stroke-width:0.5;" x="54.0" xlink:href="#m7a80f59d19" y="84.6"/>
      </g>
     </g>
     <g id="line2d_26">
      <g>
       <use style="stroke:#000000;stroke-width:0.5;" x="388.8" xlink:href="#m63775c6238" y="84.6"/>
      </g>
     </g>
     <g id="text_14">
      <!-- 3000 -->
      <defs>
       <path d="M 40.578125 39.3125 
Q 47.65625 37.796875 51.625 33 
Q 55.609375 28.21875 55.609375 21.1875 
Q 55.609375 10.40625 48.1875 4.484375 
Q 40.765625 -1.421875 27.09375 -1.421875 
Q 22.515625 -1.421875 17.65625 -0.515625 
Q 12.796875 0.390625 7.625 2.203125 
L 7.625 11.71875 
Q 11.71875 9.328125 16.59375 8.109375 
Q 21.484375 6.890625 26.8125 6.890625 
Q 36.078125 6.890625 40.9375 10.546875 
Q 45.796875 14.203125 45.796875 21.1875 
Q 45.796875 27.640625 41.28125 31.265625 
Q 36.765625 34.90625 28.71875 34.90625 
L 20.21875 34.90625 
L 20.21875 43.015625 
L 29.109375 43.015625 
Q 36.375 43.015625 40.234375 45.921875 
Q 44.09375 48.828125 44.09375 54.296875 
Q 44.09375 59.90625 40.109375 62.90625 
Q 36.140625 65.921875 28.71875 65.921875 
Q 24.65625 65.921875 20.015625 65.03125 
Q 15.375 64.15625 9.8125 62.3125 
L 9.8125 71.09375 
Q 15.4375 72.65625 20.34375 73.4375 
Q 25.25 74.21875 29.59375 74.21875 
Q 40.828125 74.21875 47.359375 69.109375 
Q 53.90625 64.015625 53.90625 55.328125 
Q 53.90625 49.265625 50.4375 45.09375 
Q 46.96875 40.921875 40.578125 39.3125 
" id="BitstreamVeraSans-Roman-33"/>
      </defs>
      <g transform="translate(24.55 87.359375)scale(0.1 -0.1)">
       <use xlink:href="#BitstreamVeraSans-Roman-33"/>
       <use x="63.623046875" xlink:href="#BitstreamVeraSans-Roman-30"/>
       <use x="127.24609375" xlink:href="#BitstreamVeraSans-Roman-30"/>
       <use x="190.869140625" xlink:href="#BitstreamVeraSans-Roman-30"/>
      </g>
     </g>
    </g>
    <g id="ytick_8">
     <g id="line2d_27">
      <g>
       <use style="stroke:#000000;stroke-width:0.5;" x="54.0" xlink:href="#m7a80f59d19" y="56.7"/>
      </g>
     </g>
     <g id="line2d_28">
      <g>
       <use style="stroke:#000000;stroke-width:0.5;" x="388.8" xlink:href="#m63775c6238" y="56.7"/>
      </g>
     </g>
     <g id="text_15">
      <!-- 3500 -->
      <g transform="translate(24.55 59.459375)scale(0.1 -0.1)">
       <use xlink:href="#BitstreamVeraSans-Roman-33"/>
       <use x="63.623046875" xlink:href="#BitstreamVeraSans-Roman-35"/>
       <use x="127.24609375" xlink:href="#BitstreamVeraSans-Roman-30"/>
       <use x="190.869140625" xlink:href="#BitstreamVeraSans-Roman-30"/>
      </g>
     </g>
    </g>
    <g id="ytick_9">
     <g id="line2d_29">
      <g>
       <use style="stroke:#000000;stroke-width:0.5;" x="54.0" xlink:href="#m7a80f59d19" y="28.8"/>
      </g>
     </g>
     <g id="line2d_30">
      <g>
       <use style="stroke:#000000;stroke-width:0.5;" x="388.8" xlink:href="#m63775c6238" y="28.8"/>
      </g>
     </g>
     <g id="text_16">
      <!-- 4000 -->
      <defs>
       <path d="M 37.796875 64.3125 
L 12.890625 25.390625 
L 37.796875 25.390625 
z
M 35.203125 72.90625 
L 47.609375 72.90625 
L 47.609375 25.390625 
L 58.015625 25.390625 
L 58.015625 17.1875 
L 47.609375 17.1875 
L 47.609375 0 
L 37.796875 0 
L 37.796875 17.1875 
L 4.890625 17.1875 
L 4.890625 26.703125 
z
" id="BitstreamVeraSans-Roman-34"/>
      </defs>
      <g transform="translate(24.55 31.559375)scale(0.1 -0.1)">
       <use xlink:href="#BitstreamVeraSans-Roman-34"/>
       <use x="63.623046875" xlink:href="#BitstreamVeraSans-Roman-30"/>
       <use x="127.24609375" xlink:href="#BitstreamVeraSans-Roman-30"/>
       <use x="190.869140625" xlink:href="#BitstreamVeraSans-Roman-30"/>
      </g>
     </g>
    </g>
    <g id="text_17">
     <!-- n -->
     <defs>
      <path d="M 54.890625 33.015625 
L 54.890625 0 
L 45.90625 0 
L 45.90625 32.71875 
Q 45.90625 40.484375 42.875 44.328125 
Q 39.84375 48.1875 33.796875 48.1875 
Q 26.515625 48.1875 22.3125 43.546875 
Q 18.109375 38.921875 18.109375 30.90625 
L 18.109375 0 
L 9.078125 0 
L 9.078125 54.6875 
L 18.109375 54.6875 
L 18.109375 46.1875 
Q 21.34375 51.125 25.703125 53.5625 
Q 30.078125 56 35.796875 56 
Q 45.21875 56 50.046875 50.171875 
Q 54.890625 44.34375 54.890625 33.015625 
" id="BitstreamVeraSans-Roman-6e"/>
     </defs>
     <g transform="translate(17.4703125 143.56875)rotate(-90.0)scale(0.1 -0.1)">
      <use xlink:href="#BitstreamVeraSans-Roman-6e"/>
     </g>
    </g>
   </g>
   <g id="legend_1">
    <g id="patch_9">
     <path d="M 60 246 
L 172.359375 246 
L 172.359375 207.1725 
L 60 207.1725 
z
" style="fill:#ffffff;stroke:#000000;stroke-linejoin:miter;"/>
    </g>
    <g id="patch_10">
     <path d="M 64.8 221.090625 
L 88.8 221.090625 
L 88.8 212.690625 
L 64.8 212.690625 
z
" style="fill:#8b0000;stroke:#000000;stroke-linejoin:miter;"/>
    </g>
    <g id="text_18">
     <!-- Pole 1 ages -->
     <defs>
      <path d="M 19.671875 64.796875 
L 19.671875 37.40625 
L 32.078125 37.40625 
Q 38.96875 37.40625 42.71875 40.96875 
Q 46.484375 44.53125 46.484375 51.125 
Q 46.484375 57.671875 42.71875 61.234375 
Q 38.96875 64.796875 32.078125 64.796875 
z
M 9.8125 72.90625 
L 32.078125 72.90625 
Q 44.34375 72.90625 50.609375 67.359375 
Q 56.890625 61.8125 56.890625 51.125 
Q 56.890625 40.328125 50.609375 34.8125 
Q 44.34375 29.296875 32.078125 29.296875 
L 19.671875 29.296875 
L 19.671875 0 
L 9.8125 0 
z
" id="BitstreamVeraSans-Roman-50"/>
      <path d="M 30.609375 48.390625 
Q 23.390625 48.390625 19.1875 42.75 
Q 14.984375 37.109375 14.984375 27.296875 
Q 14.984375 17.484375 19.15625 11.84375 
Q 23.34375 6.203125 30.609375 6.203125 
Q 37.796875 6.203125 41.984375 11.859375 
Q 46.1875 17.53125 46.1875 27.296875 
Q 46.1875 37.015625 41.984375 42.703125 
Q 37.796875 48.390625 30.609375 48.390625 
M 30.609375 56 
Q 42.328125 56 49.015625 48.375 
Q 55.71875 40.765625 55.71875 27.296875 
Q 55.71875 13.875 49.015625 6.21875 
Q 42.328125 -1.421875 30.609375 -1.421875 
Q 18.84375 -1.421875 12.171875 6.21875 
Q 5.515625 13.875 5.515625 27.296875 
Q 5.515625 40.765625 12.171875 48.375 
Q 18.84375 56 30.609375 56 
" id="BitstreamVeraSans-Roman-6f"/>
      <path d="M 44.28125 53.078125 
L 44.28125 44.578125 
Q 40.484375 46.53125 36.375 47.5 
Q 32.28125 48.484375 27.875 48.484375 
Q 21.1875 48.484375 17.84375 46.4375 
Q 14.5 44.390625 14.5 40.28125 
Q 14.5 37.15625 16.890625 35.375 
Q 19.28125 33.59375 26.515625 31.984375 
L 29.59375 31.296875 
Q 39.15625 29.25 43.1875 25.515625 
Q 47.21875 21.78125 47.21875 15.09375 
Q 47.21875 7.46875 41.1875 3.015625 
Q 35.15625 -1.421875 24.609375 -1.421875 
Q 20.21875 -1.421875 15.453125 -0.5625 
Q 10.6875 0.296875 5.421875 2 
L 5.421875 11.28125 
Q 10.40625 8.6875 15.234375 7.390625 
Q 20.0625 6.109375 24.8125 6.109375 
Q 31.15625 6.109375 34.5625 8.28125 
Q 37.984375 10.453125 37.984375 14.40625 
Q 37.984375 18.0625 35.515625 20.015625 
Q 33.0625 21.96875 24.703125 23.78125 
L 21.578125 24.515625 
Q 13.234375 26.265625 9.515625 29.90625 
Q 5.8125 33.546875 5.8125 39.890625 
Q 5.8125 47.609375 11.28125 51.796875 
Q 16.75 56 26.8125 56 
Q 31.78125 56 36.171875 55.265625 
Q 40.578125 54.546875 44.28125 53.078125 
" id="BitstreamVeraSans-Roman-73"/>
      <path d="M 9.421875 75.984375 
L 18.40625 75.984375 
L 18.40625 0 
L 9.421875 0 
z
" id="BitstreamVeraSans-Roman-6c"/>
     </defs>
     <g transform="translate(98.4 221.090625)scale(0.12 -0.12)">
      <use xlink:href="#BitstreamVeraSans-Roman-50"/>
      <use x="60.255859375" xlink:href="#BitstreamVeraSans-Roman-6f"/>
      <use x="121.4375" xlink:href="#BitstreamVeraSans-Roman-6c"/>
      <use x="149.220703125" xlink:href="#BitstreamVeraSans-Roman-65"/>
      <use x="210.744140625" xlink:href="#BitstreamVeraSans-Roman-20"/>
      <use x="242.53125" xlink:href="#BitstreamVeraSans-Roman-31"/>
      <use x="306.154296875" xlink:href="#BitstreamVeraSans-Roman-20"/>
      <use x="337.94140625" xlink:href="#BitstreamVeraSans-Roman-61"/>
      <use x="399.220703125" xlink:href="#BitstreamVeraSans-Roman-67"/>
      <use x="462.697265625" xlink:href="#BitstreamVeraSans-Roman-65"/>
      <use x="524.220703125" xlink:href="#BitstreamVeraSans-Roman-73"/>
     </g>
    </g>
    <g id="patch_11">
     <path d="M 64.8 238.704375 
L 88.8 238.704375 
L 88.8 230.304375 
L 64.8 230.304375 
z
" style="fill:#00008b;stroke:#000000;stroke-linejoin:miter;"/>
    </g>
    <g id="text_19">
     <!-- Pole 2 ages -->
     <g transform="translate(98.4 238.704375)scale(0.12 -0.12)">
      <use xlink:href="#BitstreamVeraSans-Roman-50"/>
      <use x="60.255859375" xlink:href="#BitstreamVeraSans-Roman-6f"/>
      <use x="121.4375" xlink:href="#BitstreamVeraSans-Roman-6c"/>
      <use x="149.220703125" xlink:href="#BitstreamVeraSans-Roman-65"/>
      <use x="210.744140625" xlink:href="#BitstreamVeraSans-Roman-20"/>
      <use x="242.53125" xlink:href="#BitstreamVeraSans-Roman-32"/>
      <use x="306.154296875" xlink:href="#BitstreamVeraSans-Roman-20"/>
      <use x="337.94140625" xlink:href="#BitstreamVeraSans-Roman-61"/>
      <use x="399.220703125" xlink:href="#BitstreamVeraSans-Roman-67"/>
      <use x="462.697265625" xlink:href="#BitstreamVeraSans-Roman-65"/>
      <use x="524.220703125" xlink:href="#BitstreamVeraSans-Roman-73"/>
     </g>
    </g>
   </g>
  </g>
 </g>
 <defs>
  <clipPath id="pa24e0b1c8f">
   <rect height="223.2" width="334.8" x="54.0" y="28.8"/>
  </clipPath>
 </defs>
</svg>
