<?xml version="1.0" encoding="utf-8" standalone="no"?>
<!DOCTYPE svg PUBLIC "-//W3C//DTD SVG 1.1//EN"
  "http://www.w3.org/Graphics/SVG/1.1/DTD/svg11.dtd">
<!-- Created with matplotlib (http://matplotlib.org/) -->
<svg height="288pt" version="1.1" viewBox="0 0 432 288" width="432pt" xmlns="http://www.w3.org/2000/svg" xmlns:xlink="http://www.w3.org/1999/xlink">
 <defs>
  <style type="text/css">
*{stroke-linecap:butt;stroke-linejoin:round;stroke-miterlimit:100000;}
  </style>
 </defs>
 <g id="figure_1">
  <g id="patch_1">
   <path d="M 0 288 
L 432 288 
L 432 0 
L 0 0 
z
" style="fill:#ffffff;"/>
  </g>
  <g id="axes_1">
   <g id="patch_2">
    <path d="M 54 252 
L 388.8 252 
L 388.8 28.8 
L 54 28.8 
z
" style="fill:#ffffff;"/>
   </g>
   <g id="patch_3">
    <path clip-path="url(#pa1597a3255)" d="M 319.175567 252 
L 319.175567 251.9442 
L 319.329813 251.9442 
L 319.329813 252 
L 319.48406 252 
L 319.48406 251.9442 
L 319.638306 251.9442 
L 319.638306 251.9442 
L 319.792552 251.9442 
L 319.792552 252 
L 319.946799 252 
L 319.946799 252 
L 320.101045 252 
L 320.101045 252 
L 320.255291 252 
L 320.255291 251.8326 
L 320.409537 251.8326 
L 320.409537 251.6652 
L 320.563784 251.6652 
L 320.563784 251.5536 
L 320.71803 251.5536 
L 320.71803 251.442 
L 320.872276 251.442 
L 320.872276 251.2188 
L 321.026523 251.2188 
L 321.026523 251.1072 
L 321.180769 251.1072 
L 321.180769 250.1586 
L 321.335015 250.1586 
L 321.335015 249.6564 
L 321.489261 249.6564 
L 321.489261 249.9912 
L 321.643508 249.9912 
L 321.643508 249.1542 
L 321.797754 249.1542 
L 321.797754 248.8752 
L 321.952 248.8752 
L 321.952 247.7034 
L 322.106247 247.7034 
L 322.106247 246.5874 
L 322.260493 246.5874 
L 322.260493 243.909 
L 322.414739 243.909 
L 322.414739 242.8488 
L 322.568985 242.8488 
L 322.568985 240.8958 
L 322.723232 240.8958 
L 322.723232 239.3334 
L 322.877478 239.3334 
L 322.877478 235.1484 
L 323.031724 235.1484 
L 323.031724 230.4612 
L 323.185971 230.4612 
L 323.185971 226.7226 
L 323.340217 226.7226 
L 323.340217 219.5802 
L 323.494463 219.5802 
L 323.494463 213.3306 
L 323.648709 213.3306 
L 323.648709 209.4246 
L 323.802956 209.4246 
L 323.802956 201.7242 
L 323.957202 201.7242 
L 323.957202 192.1824 
L 324.111448 192.1824 
L 324.111448 182.0826 
L 324.265694 182.0826 
L 324.265694 173.043 
L 324.419941 173.043 
L 324.419941 162.2736 
L 324.574187 162.2736 
L 324.574187 153.792 
L 324.728433 153.792 
L 324.728433 142.4088 
L 324.88268 142.4088 
L 324.88268 129.9654 
L 325.036926 129.9654 
L 325.036926 120.3678 
L 325.191172 120.3678 
L 325.191172 107.9244 
L 325.345418 107.9244 
L 325.345418 93.4164 
L 325.499665 93.4164 
L 325.499665 88.785 
L 325.653911 88.785 
L 325.653911 73.7748 
L 325.808157 73.7748 
L 325.808157 67.8042 
L 325.962404 67.8042 
L 325.962404 61.6104 
L 326.11665 61.6104 
L 326.11665 53.073 
L 326.270896 53.073 
L 326.270896 49.9482 
L 326.425142 49.9482 
L 326.425142 53.7984 
L 326.579389 53.7984 
L 326.579389 43.308 
L 326.733635 43.308 
L 326.733635 48.051 
L 326.887881 48.051 
L 326.887881 47.7162 
L 327.042128 47.7162 
L 327.042128 57.4254 
L 327.196374 57.4254 
L 327.196374 59.769 
L 327.35062 59.769 
L 327.35062 66.6882 
L 327.504866 66.6882 
L 327.504866 75.7836 
L 327.659113 75.7836 
L 327.659113 78.9642 
L 327.813359 78.9642 
L 327.813359 91.7424 
L 327.967605 91.7424 
L 327.967605 109.3752 
L 328.121852 109.3752 
L 328.121852 120.9258 
L 328.276098 120.9258 
L 328.276098 129.1284 
L 328.430344 129.1284 
L 328.430344 137.7774 
L 328.58459 137.7774 
L 328.58459 149.9976 
L 328.738837 149.9976 
L 328.738837 159.8184 
L 328.893083 159.8184 
L 328.893083 173.4336 
L 329.047329 173.4336 
L 329.047329 184.2588 
L 329.201575 184.2588 
L 329.201575 192.9636 
L 329.355822 192.9636 
L 329.355822 200.5524 
L 329.510068 200.5524 
L 329.510068 206.1324 
L 329.664314 206.1324 
L 329.664314 215.3952 
L 329.818561 215.3952 
L 329.818561 221.1426 
L 329.972807 221.1426 
L 329.972807 225.1044 
L 330.127053 225.1044 
L 330.127053 230.7402 
L 330.281299 230.7402 
L 330.281299 233.6418 
L 330.435546 233.6418 
L 330.435546 238.2732 
L 330.589792 238.2732 
L 330.589792 239.2776 
L 330.744038 239.2776 
L 330.744038 241.7886 
L 330.898285 241.7886 
L 330.898285 244.746 
L 331.052531 244.746 
L 331.052531 245.9736 
L 331.206777 245.9736 
L 331.206777 247.3128 
L 331.361023 247.3128 
L 331.361023 248.2056 
L 331.51527 248.2056 
L 331.51527 249.7122 
L 331.669516 249.7122 
L 331.669516 249.9354 
L 331.823762 249.9354 
L 331.823762 250.047 
L 331.978009 250.047 
L 331.978009 250.9398 
L 332.132255 250.9398 
L 332.132255 251.4978 
L 332.286501 251.4978 
L 332.286501 251.5536 
L 332.440747 251.5536 
L 332.440747 251.3304 
L 332.594994 251.3304 
L 332.594994 251.7768 
L 332.74924 251.7768 
L 332.74924 251.8884 
L 332.903486 251.8884 
L 332.903486 251.8884 
L 333.057733 251.8884 
L 333.057733 251.9442 
L 333.211979 251.9442 
L 333.211979 251.8884 
L 333.366225 251.8884 
L 333.366225 252 
L 333.520471 252 
L 333.520471 252 
L 333.674718 252 
L 333.674718 252 
L 333.828964 252 
L 333.828964 251.8884 
L 333.98321 251.8884 
L 333.98321 251.9442 
L 334.137456 251.9442 
L 334.137456 252 
L 334.291703 252 
L 334.291703 252 
L 334.445949 252 
L 334.445949 251.9442 
L 334.600195 251.9442 
L 334.600195 252 
L 334.445949 252 
L 334.445949 252 
L 334.291703 252 
L 334.291703 252 
L 334.137456 252 
L 334.137456 252 
L 333.98321 252 
L 333.98321 252 
L 333.828964 252 
L 333.828964 252 
L 333.674718 252 
L 333.674718 252 
L 333.520471 252 
L 333.520471 252 
L 333.366225 252 
L 333.366225 252 
L 333.211979 252 
L 333.211979 252 
L 333.057733 252 
L 333.057733 252 
L 332.903486 252 
L 332.903486 252 
L 332.74924 252 
L 332.74924 252 
L 332.594994 252 
L 332.594994 252 
L 332.440747 252 
L 332.440747 252 
L 332.286501 252 
L 332.286501 252 
L 332.132255 252 
L 332.132255 252 
L 331.978009 252 
L 331.978009 252 
L 331.823762 252 
L 331.823762 252 
L 331.669516 252 
L 331.669516 252 
L 331.51527 252 
L 331.51527 252 
L 331.361023 252 
L 331.361023 252 
L 331.206777 252 
L 331.206777 252 
L 331.052531 252 
L 331.052531 252 
L 330.898285 252 
L 330.898285 252 
L 330.744038 252 
L 330.744038 252 
L 330.589792 252 
L 330.589792 252 
L 330.435546 252 
L 330.435546 252 
L 330.281299 252 
L 330.281299 252 
L 330.127053 252 
L 330.127053 252 
L 329.972807 252 
L 329.972807 252 
L 329.818561 252 
L 329.818561 252 
L 329.664314 252 
L 329.664314 252 
L 329.510068 252 
L 329.510068 252 
L 329.355822 252 
L 329.355822 252 
L 329.201575 252 
L 329.201575 252 
L 329.047329 252 
L 329.047329 252 
L 328.893083 252 
L 328.893083 252 
L 328.738837 252 
L 328.738837 252 
L 328.58459 252 
L 328.58459 252 
L 328.430344 252 
L 328.430344 252 
L 328.276098 252 
L 328.276098 252 
L 328.121852 252 
L 328.121852 252 
L 327.967605 252 
L 327.967605 252 
L 327.813359 252 
L 327.813359 252 
L 327.659113 252 
L 327.659113 252 
L 327.504866 252 
L 327.504866 252 
L 327.35062 252 
L 327.35062 252 
L 327.196374 252 
L 327.196374 252 
L 327.042128 252 
L 327.042128 252 
L 326.887881 252 
L 326.887881 252 
L 326.733635 252 
L 326.733635 252 
L 326.579389 252 
L 326.579389 252 
L 326.425142 252 
L 326.425142 252 
L 326.270896 252 
L 326.270896 252 
L 326.11665 252 
L 326.11665 252 
L 325.962404 252 
L 325.962404 252 
L 325.808157 252 
L 325.808157 252 
L 325.653911 252 
L 325.653911 252 
L 325.499665 252 
L 325.499665 252 
L 325.345418 252 
L 325.345418 252 
L 325.191172 252 
L 325.191172 252 
L 325.036926 252 
L 325.036926 252 
L 324.88268 252 
L 324.88268 252 
L 324.728433 252 
L 324.728433 252 
L 324.574187 252 
L 324.574187 252 
L 324.419941 252 
L 324.419941 252 
L 324.265694 252 
L 324.265694 252 
L 324.111448 252 
L 324.111448 252 
L 323.957202 252 
L 323.957202 252 
L 323.802956 252 
L 323.802956 252 
L 323.648709 252 
L 323.648709 252 
L 323.494463 252 
L 323.494463 252 
L 323.340217 252 
L 323.340217 252 
L 323.185971 252 
L 323.185971 252 
L 323.031724 252 
L 323.031724 252 
L 322.877478 252 
L 322.877478 252 
L 322.723232 252 
L 322.723232 252 
L 322.568985 252 
L 322.568985 252 
L 322.414739 252 
L 322.414739 252 
L 322.260493 252 
L 322.260493 252 
L 322.106247 252 
L 322.106247 252 
L 321.952 252 
L 321.952 252 
L 321.797754 252 
L 321.797754 252 
L 321.643508 252 
L 321.643508 252 
L 321.489261 252 
L 321.489261 252 
L 321.335015 252 
L 321.335015 252 
L 321.180769 252 
L 321.180769 252 
L 321.026523 252 
L 321.026523 252 
L 320.872276 252 
L 320.872276 252 
L 320.71803 252 
L 320.71803 252 
L 320.563784 252 
L 320.563784 252 
L 320.409537 252 
L 320.409537 252 
L 320.255291 252 
L 320.255291 252 
L 320.101045 252 
L 320.101045 252 
L 319.946799 252 
L 319.946799 252 
L 319.792552 252 
L 319.792552 252 
L 319.638306 252 
L 319.638306 252 
L 319.48406 252 
L 319.48406 252 
L 319.329813 252 
L 319.329813 252 
z
" style="fill:#8b0000;stroke:#000000;stroke-linejoin:miter;"/>
   </g>
   <g id="patch_4">
    <path clip-path="url(#pa1597a3255)" d="M 95.07009 252 
L 95.07009 251.6652 
L 95.196822 251.6652 
L 95.196822 251.7768 
L 95.323555 251.7768 
L 95.323555 251.8326 
L 95.450288 251.8326 
L 95.450288 251.7768 
L 95.57702 251.7768 
L 95.57702 251.5536 
L 95.703753 251.5536 
L 95.703753 251.6094 
L 95.830486 251.6094 
L 95.830486 251.3304 
L 95.957218 251.3304 
L 95.957218 251.2188 
L 96.083951 251.2188 
L 96.083951 251.0514 
L 96.210684 251.0514 
L 96.210684 250.605 
L 96.337417 250.605 
L 96.337417 250.7166 
L 96.464149 250.7166 
L 96.464149 249.7122 
L 96.590882 249.7122 
L 96.590882 249.2658 
L 96.717615 249.2658 
L 96.717615 249.0984 
L 96.844347 249.0984 
L 96.844347 248.0382 
L 96.97108 248.0382 
L 96.97108 246.9222 
L 97.097813 246.9222 
L 97.097813 246.0294 
L 97.224546 246.0294 
L 97.224546 243.7416 
L 97.351278 243.7416 
L 97.351278 243.7416 
L 97.478011 243.7416 
L 97.478011 240.003 
L 97.604744 240.003 
L 97.604744 238.5522 
L 97.731476 238.5522 
L 97.731476 231.8004 
L 97.858209 231.8004 
L 97.858209 231.2982 
L 97.984942 231.2982 
L 97.984942 227.169 
L 98.111674 227.169 
L 98.111674 223.9326 
L 98.238407 223.9326 
L 98.238407 215.6742 
L 98.36514 215.6742 
L 98.36514 214.2792 
L 98.491873 214.2792 
L 98.491873 207.9738 
L 98.618605 207.9738 
L 98.618605 203.5098 
L 98.745338 203.5098 
L 98.745338 195.8094 
L 98.872071 195.8094 
L 98.872071 185.3748 
L 98.998803 185.3748 
L 98.998803 177.1164 
L 99.125536 177.1164 
L 99.125536 167.2398 
L 99.252269 167.2398 
L 99.252269 158.8698 
L 99.379002 158.8698 
L 99.379002 153.4014 
L 99.505734 153.4014 
L 99.505734 144.5292 
L 99.632467 144.5292 
L 99.632467 132.7554 
L 99.7592 132.7554 
L 99.7592 125.7246 
L 99.885932 125.7246 
L 99.885932 115.7364 
L 100.012665 115.7364 
L 100.012665 108.315 
L 100.139398 108.315 
L 100.139398 101.4516 
L 100.26613 101.4516 
L 100.26613 88.7292 
L 100.392863 88.7292 
L 100.392863 87.2226 
L 100.519596 87.2226 
L 100.519596 82.089 
L 100.646329 82.089 
L 100.646329 80.7498 
L 100.773061 80.7498 
L 100.773061 68.4738 
L 100.899794 68.4738 
L 100.899794 72.045 
L 101.026527 72.045 
L 101.026527 71.9892 
L 101.153259 71.9892 
L 101.153259 66.465 
L 101.279992 66.465 
L 101.279992 71.766 
L 101.406725 71.766 
L 101.406725 74.556 
L 101.533458 74.556 
L 101.533458 76.509 
L 101.66019 76.509 
L 101.66019 83.3166 
L 101.786923 83.3166 
L 101.786923 91.2402 
L 101.913656 91.2402 
L 101.913656 90.8496 
L 102.040388 90.8496 
L 102.040388 98.4942 
L 102.167121 98.4942 
L 102.167121 104.967 
L 102.293854 104.967 
L 102.293854 120.312 
L 102.420586 120.312 
L 102.420586 124.8876 
L 102.547319 124.8876 
L 102.547319 134.6526 
L 102.674052 134.6526 
L 102.674052 145.0314 
L 102.800785 145.0314 
L 102.800785 158.4234 
L 102.927517 158.4234 
L 102.927517 164.5056 
L 103.05425 164.5056 
L 103.05425 168.6348 
L 103.180983 168.6348 
L 103.180983 177.6744 
L 103.307715 177.6744 
L 103.307715 188.3322 
L 103.434448 188.3322 
L 103.434448 195.6978 
L 103.561181 195.6978 
L 103.561181 203.454 
L 103.687913 203.454 
L 103.687913 208.9224 
L 103.814646 208.9224 
L 103.814646 213.3306 
L 103.941379 213.3306 
L 103.941379 220.3614 
L 104.068112 220.3614 
L 104.068112 223.2072 
L 104.194844 223.2072 
L 104.194844 227.2248 
L 104.321577 227.2248 
L 104.321577 230.1264 
L 104.44831 230.1264 
L 104.44831 234.6462 
L 104.575042 234.6462 
L 104.575042 239.2218 
L 104.701775 239.2218 
L 104.701775 239.7798 
L 104.828508 239.7798 
L 104.828508 243.63 
L 104.955241 243.63 
L 104.955241 244.2996 
L 105.081973 244.2996 
L 105.081973 246.141 
L 105.208706 246.141 
L 105.208706 247.0338 
L 105.335439 247.0338 
L 105.335439 247.3686 
L 105.462171 247.3686 
L 105.462171 248.373 
L 105.588904 248.373 
L 105.588904 249.4332 
L 105.715637 249.4332 
L 105.715637 249.8238 
L 105.842369 249.8238 
L 105.842369 250.3818 
L 105.969102 250.3818 
L 105.969102 250.6608 
L 106.095835 250.6608 
L 106.095835 250.884 
L 106.222568 250.884 
L 106.222568 251.2746 
L 106.3493 251.2746 
L 106.3493 251.6094 
L 106.476033 251.6094 
L 106.476033 251.721 
L 106.602766 251.721 
L 106.602766 251.7768 
L 106.729498 251.7768 
L 106.729498 251.7768 
L 106.856231 251.7768 
L 106.856231 251.8884 
L 106.982964 251.8884 
L 106.982964 252 
L 107.109697 252 
L 107.109697 251.8884 
L 107.236429 251.8884 
L 107.236429 252 
L 107.363162 252 
L 107.363162 252 
L 107.489895 252 
L 107.489895 252 
L 107.616627 252 
L 107.616627 251.9442 
L 107.74336 251.9442 
L 107.74336 252 
L 107.616627 252 
L 107.616627 252 
L 107.489895 252 
L 107.489895 252 
L 107.363162 252 
L 107.363162 252 
L 107.236429 252 
L 107.236429 252 
L 107.109697 252 
L 107.109697 252 
L 106.982964 252 
L 106.982964 252 
L 106.856231 252 
L 106.856231 252 
L 106.729498 252 
L 106.729498 252 
L 106.602766 252 
L 106.602766 252 
L 106.476033 252 
L 106.476033 252 
L 106.3493 252 
L 106.3493 252 
L 106.222568 252 
L 106.222568 252 
L 106.095835 252 
L 106.095835 252 
L 105.969102 252 
L 105.969102 252 
L 105.842369 252 
L 105.842369 252 
L 105.715637 252 
L 105.715637 252 
L 105.588904 252 
L 105.588904 252 
L 105.462171 252 
L 105.462171 252 
L 105.335439 252 
L 105.335439 252 
L 105.208706 252 
L 105.208706 252 
L 105.081973 252 
L 105.081973 252 
L 104.955241 252 
L 104.955241 252 
L 104.828508 252 
L 104.828508 252 
L 104.701775 252 
L 104.701775 252 
L 104.575042 252 
L 104.575042 252 
L 104.44831 252 
L 104.44831 252 
L 104.321577 252 
L 104.321577 252 
L 104.194844 252 
L 104.194844 252 
L 104.068112 252 
L 104.068112 252 
L 103.941379 252 
L 103.941379 252 
L 103.814646 252 
L 103.814646 252 
L 103.687913 252 
L 103.687913 252 
L 103.561181 252 
L 103.561181 252 
L 103.434448 252 
L 103.434448 252 
L 103.307715 252 
L 103.307715 252 
L 103.180983 252 
L 103.180983 252 
L 103.05425 252 
L 103.05425 252 
L 102.927517 252 
L 102.927517 252 
L 102.800785 252 
L 102.800785 252 
L 102.674052 252 
L 102.674052 252 
L 102.547319 252 
L 102.547319 252 
L 102.420586 252 
L 102.420586 252 
L 102.293854 252 
L 102.293854 252 
L 102.167121 252 
L 102.167121 252 
L 102.040388 252 
L 102.040388 252 
L 101.913656 252 
L 101.913656 252 
L 101.786923 252 
L 101.786923 252 
L 101.66019 252 
L 101.66019 252 
L 101.533458 252 
L 101.533458 252 
L 101.406725 252 
L 101.406725 252 
L 101.279992 252 
L 101.279992 252 
L 101.153259 252 
L 101.153259 252 
L 101.026527 252 
L 101.026527 252 
L 100.899794 252 
L 100.899794 252 
L 100.773061 252 
L 100.773061 252 
L 100.646329 252 
L 100.646329 252 
L 100.519596 252 
L 100.519596 252 
L 100.392863 252 
L 100.392863 252 
L 100.26613 252 
L 100.26613 252 
L 100.139398 252 
L 100.139398 252 
L 100.012665 252 
L 100.012665 252 
L 99.885932 252 
L 99.885932 252 
L 99.7592 252 
L 99.7592 252 
L 99.632467 252 
L 99.632467 252 
L 99.505734 252 
L 99.505734 252 
L 99.379002 252 
L 99.379002 252 
L 99.252269 252 
L 99.252269 252 
L 99.125536 252 
L 99.125536 252 
L 98.998803 252 
L 98.998803 252 
L 98.872071 252 
L 98.872071 252 
L 98.745338 252 
L 98.745338 252 
L 98.618605 252 
L 98.618605 252 
L 98.491873 252 
L 98.491873 252 
L 98.36514 252 
L 98.36514 252 
L 98.238407 252 
L 98.238407 252 
L 98.111674 252 
L 98.111674 252 
L 97.984942 252 
L 97.984942 252 
L 97.858209 252 
L 97.858209 252 
L 97.731476 252 
L 97.731476 252 
L 97.604744 252 
L 97.604744 252 
L 97.478011 252 
L 97.478011 252 
L 97.351278 252 
L 97.351278 252 
L 97.224546 252 
L 97.224546 252 
L 97.097813 252 
L 97.097813 252 
L 96.97108 252 
L 96.97108 252 
L 96.844347 252 
L 96.844347 252 
L 96.717615 252 
L 96.717615 252 
L 96.590882 252 
L 96.590882 252 
L 96.464149 252 
L 96.464149 252 
L 96.337417 252 
L 96.337417 252 
L 96.210684 252 
L 96.210684 252 
L 96.083951 252 
L 96.083951 252 
L 95.957218 252 
L 95.957218 252 
L 95.830486 252 
L 95.830486 252 
L 95.703753 252 
L 95.703753 252 
L 95.57702 252 
L 95.57702 252 
L 95.450288 252 
L 95.450288 252 
L 95.323555 252 
L 95.323555 252 
L 95.196822 252 
L 95.196822 252 
z
" style="fill:#00008b;stroke:#000000;stroke-linejoin:miter;"/>
   </g>
   <g id="patch_5">
    <path d="M 54 28.8 
L 388.8 28.8 
" style="fill:none;stroke:#000000;stroke-linecap:square;stroke-linejoin:miter;"/>
   </g>
   <g id="patch_6">
    <path d="M 388.8 252 
L 388.8 28.8 
" style="fill:none;stroke:#000000;stroke-linecap:square;stroke-linejoin:miter;"/>
   </g>
   <g id="patch_7">
    <path d="M 54 252 
L 388.8 252 
" style="fill:none;stroke:#000000;stroke-linecap:square;stroke-linejoin:miter;"/>
   </g>
   <g id="patch_8">
    <path d="M 54 252 
L 54 28.8 
" style="fill:none;stroke:#000000;stroke-linecap:square;stroke-linejoin:miter;"/>
   </g>
   <g id="matplotlib.axis_1">
    <g id="xtick_1">
     <g id="line2d_1">
      <defs>
       <path d="M 0 0 
L 0 -4 
" id="m8d68fca3a5" style="stroke:#000000;stroke-width:0.5;"/>
      </defs>
      <g>
       <use style="stroke:#000000;stroke-width:0.5;" x="54.0" xlink:href="#m8d68fca3a5" y="252.0"/>
      </g>
     </g>
     <g id="line2d_2">
      <defs>
       <path d="M 0 0 
L 0 4 
" id="mfada5ca12b" style="stroke:#000000;stroke-width:0.5;"/>
      </defs>
      <g>
       <use style="stroke:#000000;stroke-width:0.5;" x="54.0" xlink:href="#mfada5ca12b" y="28.8"/>
      </g>
     </g>
     <g id="text_1">
      <!-- 1080 -->
      <defs>
       <path d="M 31.78125 66.40625 
Q 24.171875 66.40625 20.328125 58.90625 
Q 16.5 51.421875 16.5 36.375 
Q 16.5 21.390625 20.328125 13.890625 
Q 24.171875 6.390625 31.78125 6.390625 
Q 39.453125 6.390625 43.28125 13.890625 
Q 47.125 21.390625 47.125 36.375 
Q 47.125 51.421875 43.28125 58.90625 
Q 39.453125 66.40625 31.78125 66.40625 
M 31.78125 74.21875 
Q 44.046875 74.21875 50.515625 64.515625 
Q 56.984375 54.828125 56.984375 36.375 
Q 56.984375 17.96875 50.515625 8.265625 
Q 44.046875 -1.421875 31.78125 -1.421875 
Q 19.53125 -1.421875 13.0625 8.265625 
Q 6.59375 17.96875 6.59375 36.375 
Q 6.59375 54.828125 13.0625 64.515625 
Q 19.53125 74.21875 31.78125 74.21875 
" id="BitstreamVeraSans-Roman-30"/>
       <path d="M 12.40625 8.296875 
L 28.515625 8.296875 
L 28.515625 63.921875 
L 10.984375 60.40625 
L 10.984375 69.390625 
L 28.421875 72.90625 
L 38.28125 72.90625 
L 38.28125 8.296875 
L 54.390625 8.296875 
L 54.390625 0 
L 12.40625 0 
z
" id="BitstreamVeraSans-Roman-31"/>
       <path d="M 31.78125 34.625 
Q 24.75 34.625 20.71875 30.859375 
Q 16.703125 27.09375 16.703125 20.515625 
Q 16.703125 13.921875 20.71875 10.15625 
Q 24.75 6.390625 31.78125 6.390625 
Q 38.8125 6.390625 42.859375 10.171875 
Q 46.921875 13.96875 46.921875 20.515625 
Q 46.921875 27.09375 42.890625 30.859375 
Q 38.875 34.625 31.78125 34.625 
M 21.921875 38.8125 
Q 15.578125 40.375 12.03125 44.71875 
Q 8.5 49.078125 8.5 55.328125 
Q 8.5 64.0625 14.71875 69.140625 
Q 20.953125 74.21875 31.78125 74.21875 
Q 42.671875 74.21875 48.875 69.140625 
Q 55.078125 64.0625 55.078125 55.328125 
Q 55.078125 49.078125 51.53125 44.71875 
Q 48 40.375 41.703125 38.8125 
Q 48.828125 37.15625 52.796875 32.3125 
Q 56.78125 27.484375 56.78125 20.515625 
Q 56.78125 9.90625 50.3125 4.234375 
Q 43.84375 -1.421875 31.78125 -1.421875 
Q 19.734375 -1.421875 13.25 4.234375 
Q 6.78125 9.90625 6.78125 20.515625 
Q 6.78125 27.484375 10.78125 32.3125 
Q 14.796875 37.15625 21.921875 38.8125 
M 18.3125 54.390625 
Q 18.3125 48.734375 21.84375 45.5625 
Q 25.390625 42.390625 31.78125 42.390625 
Q 38.140625 42.390625 41.71875 45.5625 
Q 45.3125 48.734375 45.3125 54.390625 
Q 45.3125 60.0625 41.71875 63.234375 
Q 38.140625 66.40625 31.78125 66.40625 
Q 25.390625 66.40625 21.84375 63.234375 
Q 18.3125 60.0625 18.3125 54.390625 
" id="BitstreamVeraSans-Roman-38"/>
      </defs>
      <g transform="translate(41.275 263.5984375)scale(0.1 -0.1)">
       <use xlink:href="#BitstreamVeraSans-Roman-31"/>
       <use x="63.623046875" xlink:href="#BitstreamVeraSans-Roman-30"/>
       <use x="127.24609375" xlink:href="#BitstreamVeraSans-Roman-38"/>
       <use x="190.869140625" xlink:href="#BitstreamVeraSans-Roman-30"/>
      </g>
     </g>
    </g>
    <g id="xtick_2">
     <g id="line2d_3">
      <g>
       <use style="stroke:#000000;stroke-width:0.5;" x="120.96" xlink:href="#m8d68fca3a5" y="252.0"/>
      </g>
     </g>
     <g id="line2d_4">
      <g>
       <use style="stroke:#000000;stroke-width:0.5;" x="120.96" xlink:href="#mfada5ca12b" y="28.8"/>
      </g>
     </g>
     <g id="text_2">
      <!-- 1085 -->
      <defs>
       <path d="M 10.796875 72.90625 
L 49.515625 72.90625 
L 49.515625 64.59375 
L 19.828125 64.59375 
L 19.828125 46.734375 
Q 21.96875 47.46875 24.109375 47.828125 
Q 26.265625 48.1875 28.421875 48.1875 
Q 40.625 48.1875 47.75 41.5 
Q 54.890625 34.8125 54.890625 23.390625 
Q 54.890625 11.625 47.5625 5.09375 
Q 40.234375 -1.421875 26.90625 -1.421875 
Q 22.3125 -1.421875 17.546875 -0.640625 
Q 12.796875 0.140625 7.71875 1.703125 
L 7.71875 11.625 
Q 12.109375 9.234375 16.796875 8.0625 
Q 21.484375 6.890625 26.703125 6.890625 
Q 35.15625 6.890625 40.078125 11.328125 
Q 45.015625 15.765625 45.015625 23.390625 
Q 45.015625 31 40.078125 35.4375 
Q 35.15625 39.890625 26.703125 39.890625 
Q 22.75 39.890625 18.8125 39.015625 
Q 14.890625 38.140625 10.796875 36.28125 
z
" id="BitstreamVeraSans-Roman-35"/>
      </defs>
      <g transform="translate(108.235 263.5984375)scale(0.1 -0.1)">
       <use xlink:href="#BitstreamVeraSans-Roman-31"/>
       <use x="63.623046875" xlink:href="#BitstreamVeraSans-Roman-30"/>
       <use x="127.24609375" xlink:href="#BitstreamVeraSans-Roman-38"/>
       <use x="190.869140625" xlink:href="#BitstreamVeraSans-Roman-35"/>
      </g>
     </g>
    </g>
    <g id="xtick_3">
     <g id="line2d_5">
      <g>
       <use style="stroke:#000000;stroke-width:0.5;" x="187.92" xlink:href="#m8d68fca3a5" y="252.0"/>
      </g>
     </g>
     <g id="line2d_6">
      <g>
       <use style="stroke:#000000;stroke-width:0.5;" x="187.92" xlink:href="#mfada5ca12b" y="28.8"/>
      </g>
     </g>
     <g id="text_3">
      <!-- 1090 -->
      <defs>
       <path d="M 10.984375 1.515625 
L 10.984375 10.5 
Q 14.703125 8.734375 18.5 7.8125 
Q 22.3125 6.890625 25.984375 6.890625 
Q 35.75 6.890625 40.890625 13.453125 
Q 46.046875 20.015625 46.78125 33.40625 
Q 43.953125 29.203125 39.59375 26.953125 
Q 35.25 24.703125 29.984375 24.703125 
Q 19.046875 24.703125 12.671875 31.3125 
Q 6.296875 37.9375 6.296875 49.421875 
Q 6.296875 60.640625 12.9375 67.421875 
Q 19.578125 74.21875 30.609375 74.21875 
Q 43.265625 74.21875 49.921875 64.515625 
Q 56.59375 54.828125 56.59375 36.375 
Q 56.59375 19.140625 48.40625 8.859375 
Q 40.234375 -1.421875 26.421875 -1.421875 
Q 22.703125 -1.421875 18.890625 -0.6875 
Q 15.09375 0.046875 10.984375 1.515625 
M 30.609375 32.421875 
Q 37.25 32.421875 41.125 36.953125 
Q 45.015625 41.5 45.015625 49.421875 
Q 45.015625 57.28125 41.125 61.84375 
Q 37.25 66.40625 30.609375 66.40625 
Q 23.96875 66.40625 20.09375 61.84375 
Q 16.21875 57.28125 16.21875 49.421875 
Q 16.21875 41.5 20.09375 36.953125 
Q 23.96875 32.421875 30.609375 32.421875 
" id="BitstreamVeraSans-Roman-39"/>
      </defs>
      <g transform="translate(175.195 263.5984375)scale(0.1 -0.1)">
       <use xlink:href="#BitstreamVeraSans-Roman-31"/>
       <use x="63.623046875" xlink:href="#BitstreamVeraSans-Roman-30"/>
       <use x="127.24609375" xlink:href="#BitstreamVeraSans-Roman-39"/>
       <use x="190.869140625" xlink:href="#BitstreamVeraSans-Roman-30"/>
      </g>
     </g>
    </g>
    <g id="xtick_4">
     <g id="line2d_7">
      <g>
       <use style="stroke:#000000;stroke-width:0.5;" x="254.88" xlink:href="#m8d68fca3a5" y="252.0"/>
      </g>
     </g>
     <g id="line2d_8">
      <g>
       <use style="stroke:#000000;stroke-width:0.5;" x="254.88" xlink:href="#mfada5ca12b" y="28.8"/>
      </g>
     </g>
     <g id="text_4">
      <!-- 1095 -->
      <g transform="translate(242.155 263.5984375)scale(0.1 -0.1)">
       <use xlink:href="#BitstreamVeraSans-Roman-31"/>
       <use x="63.623046875" xlink:href="#BitstreamVeraSans-Roman-30"/>
       <use x="127.24609375" xlink:href="#BitstreamVeraSans-Roman-39"/>
       <use x="190.869140625" xlink:href="#BitstreamVeraSans-Roman-35"/>
      </g>
     </g>
    </g>
    <g id="xtick_5">
     <g id="line2d_9">
      <g>
       <use style="stroke:#000000;stroke-width:0.5;" x="321.84" xlink:href="#m8d68fca3a5" y="252.0"/>
      </g>
     </g>
     <g id="line2d_10">
      <g>
       <use style="stroke:#000000;stroke-width:0.5;" x="321.84" xlink:href="#mfada5ca12b" y="28.8"/>
      </g>
     </g>
     <g id="text_5">
      <!-- 1100 -->
      <g transform="translate(309.115 263.5984375)scale(0.1 -0.1)">
       <use xlink:href="#BitstreamVeraSans-Roman-31"/>
       <use x="63.623046875" xlink:href="#BitstreamVeraSans-Roman-31"/>
       <use x="127.24609375" xlink:href="#BitstreamVeraSans-Roman-30"/>
       <use x="190.869140625" xlink:href="#BitstreamVeraSans-Roman-30"/>
      </g>
     </g>
    </g>
    <g id="xtick_6">
     <g id="line2d_11">
      <g>
       <use style="stroke:#000000;stroke-width:0.5;" x="388.8" xlink:href="#m8d68fca3a5" y="252.0"/>
      </g>
     </g>
     <g id="line2d_12">
      <g>
       <use style="stroke:#000000;stroke-width:0.5;" x="388.8" xlink:href="#mfada5ca12b" y="28.8"/>
      </g>
     </g>
     <g id="text_6">
      <!-- 1105 -->
      <g transform="translate(376.075 263.5984375)scale(0.1 -0.1)">
       <use xlink:href="#BitstreamVeraSans-Roman-31"/>
       <use x="63.623046875" xlink:href="#BitstreamVeraSans-Roman-31"/>
       <use x="127.24609375" xlink:href="#BitstreamVeraSans-Roman-30"/>
       <use x="190.869140625" xlink:href="#BitstreamVeraSans-Roman-35"/>
      </g>
     </g>
    </g>
    <g id="text_7">
     <!-- Age (Ma) -->
     <defs>
      <path id="BitstreamVeraSans-Roman-20"/>
      <path d="M 9.8125 72.90625 
L 24.515625 72.90625 
L 43.109375 23.296875 
L 61.8125 72.90625 
L 76.515625 72.90625 
L 76.515625 0 
L 66.890625 0 
L 66.890625 64.015625 
L 48.09375 14.015625 
L 38.1875 14.015625 
L 19.390625 64.015625 
L 19.390625 0 
L 9.8125 0 
z
" id="BitstreamVeraSans-Roman-4d"/>
      <path d="M 8.015625 75.875 
L 15.828125 75.875 
Q 23.140625 64.359375 26.78125 53.3125 
Q 30.421875 42.28125 30.421875 31.390625 
Q 30.421875 20.453125 26.78125 9.375 
Q 23.140625 -1.703125 15.828125 -13.1875 
L 8.015625 -13.1875 
Q 14.5 -2 17.703125 9.0625 
Q 20.90625 20.125 20.90625 31.390625 
Q 20.90625 42.671875 17.703125 53.65625 
Q 14.5 64.65625 8.015625 75.875 
" id="BitstreamVeraSans-Roman-29"/>
      <path d="M 31 75.875 
Q 24.46875 64.65625 21.28125 53.65625 
Q 18.109375 42.671875 18.109375 31.390625 
Q 18.109375 20.125 21.3125 9.0625 
Q 24.515625 -2 31 -13.1875 
L 23.1875 -13.1875 
Q 15.875 -1.703125 12.234375 9.375 
Q 8.59375 20.453125 8.59375 31.390625 
Q 8.59375 42.28125 12.203125 53.3125 
Q 15.828125 64.359375 23.1875 75.875 
z
" id="BitstreamVeraSans-Roman-28"/>
      <path d="M 34.1875 63.1875 
L 20.796875 26.90625 
L 47.609375 26.90625 
z
M 28.609375 72.90625 
L 39.796875 72.90625 
L 67.578125 0 
L 57.328125 0 
L 50.6875 18.703125 
L 17.828125 18.703125 
L 11.1875 0 
L 0.78125 0 
z
" id="BitstreamVeraSans-Roman-41"/>
      <path d="M 56.203125 29.59375 
L 56.203125 25.203125 
L 14.890625 25.203125 
Q 15.484375 15.921875 20.484375 11.0625 
Q 25.484375 6.203125 34.421875 6.203125 
Q 39.59375 6.203125 44.453125 7.46875 
Q 49.3125 8.734375 54.109375 11.28125 
L 54.109375 2.78125 
Q 49.265625 0.734375 44.1875 -0.34375 
Q 39.109375 -1.421875 33.890625 -1.421875 
Q 20.796875 -1.421875 13.15625 6.1875 
Q 5.515625 13.8125 5.515625 26.8125 
Q 5.515625 40.234375 12.765625 48.109375 
Q 20.015625 56 32.328125 56 
Q 43.359375 56 49.78125 48.890625 
Q 56.203125 41.796875 56.203125 29.59375 
M 47.21875 32.234375 
Q 47.125 39.59375 43.09375 43.984375 
Q 39.0625 48.390625 32.421875 48.390625 
Q 24.90625 48.390625 20.390625 44.140625 
Q 15.875 39.890625 15.1875 32.171875 
z
" id="BitstreamVeraSans-Roman-65"/>
      <path d="M 45.40625 27.984375 
Q 45.40625 37.75 41.375 43.109375 
Q 37.359375 48.484375 30.078125 48.484375 
Q 22.859375 48.484375 18.828125 43.109375 
Q 14.796875 37.75 14.796875 27.984375 
Q 14.796875 18.265625 18.828125 12.890625 
Q 22.859375 7.515625 30.078125 7.515625 
Q 37.359375 7.515625 41.375 12.890625 
Q 45.40625 18.265625 45.40625 27.984375 
M 54.390625 6.78125 
Q 54.390625 -7.171875 48.1875 -13.984375 
Q 42 -20.796875 29.203125 -20.796875 
Q 24.46875 -20.796875 20.265625 -20.09375 
Q 16.0625 -19.390625 12.109375 -17.921875 
L 12.109375 -9.1875 
Q 16.0625 -11.328125 19.921875 -12.34375 
Q 23.78125 -13.375 27.78125 -13.375 
Q 36.625 -13.375 41.015625 -8.765625 
Q 45.40625 -4.15625 45.40625 5.171875 
L 45.40625 9.625 
Q 42.625 4.78125 38.28125 2.390625 
Q 33.9375 0 27.875 0 
Q 17.828125 0 11.671875 7.65625 
Q 5.515625 15.328125 5.515625 27.984375 
Q 5.515625 40.671875 11.671875 48.328125 
Q 17.828125 56 27.875 56 
Q 33.9375 56 38.28125 53.609375 
Q 42.625 51.21875 45.40625 46.390625 
L 45.40625 54.6875 
L 54.390625 54.6875 
z
" id="BitstreamVeraSans-Roman-67"/>
      <path d="M 34.28125 27.484375 
Q 23.390625 27.484375 19.1875 25 
Q 14.984375 22.515625 14.984375 16.5 
Q 14.984375 11.71875 18.140625 8.90625 
Q 21.296875 6.109375 26.703125 6.109375 
Q 34.1875 6.109375 38.703125 11.40625 
Q 43.21875 16.703125 43.21875 25.484375 
L 43.21875 27.484375 
z
M 52.203125 31.203125 
L 52.203125 0 
L 43.21875 0 
L 43.21875 8.296875 
Q 40.140625 3.328125 35.546875 0.953125 
Q 30.953125 -1.421875 24.3125 -1.421875 
Q 15.921875 -1.421875 10.953125 3.296875 
Q 6 8.015625 6 15.921875 
Q 6 25.140625 12.171875 29.828125 
Q 18.359375 34.515625 30.609375 34.515625 
L 43.21875 34.515625 
L 43.21875 35.40625 
Q 43.21875 41.609375 39.140625 45 
Q 35.0625 48.390625 27.6875 48.390625 
Q 23 48.390625 18.546875 47.265625 
Q 14.109375 46.140625 10.015625 43.890625 
L 10.015625 52.203125 
Q 14.9375 54.109375 19.578125 55.046875 
Q 24.21875 56 28.609375 56 
Q 40.484375 56 46.34375 49.84375 
Q 52.203125 43.703125 52.203125 31.203125 
" id="BitstreamVeraSans-Roman-61"/>
     </defs>
     <g transform="translate(198.86015625 278.2765625)scale(0.1 -0.1)">
      <use xlink:href="#BitstreamVeraSans-Roman-41"/>
      <use x="68.408203125" xlink:href="#BitstreamVeraSans-Roman-67"/>
      <use x="131.884765625" xlink:href="#BitstreamVeraSans-Roman-65"/>
      <use x="193.408203125" xlink:href="#BitstreamVeraSans-Roman-20"/>
      <use x="225.1953125" xlink:href="#BitstreamVeraSans-Roman-28"/>
      <use x="264.208984375" xlink:href="#BitstreamVeraSans-Roman-4d"/>
      <use x="350.48828125" xlink:href="#BitstreamVeraSans-Roman-61"/>
      <use x="411.767578125" xlink:href="#BitstreamVeraSans-Roman-29"/>
     </g>
    </g>
   </g>
   <g id="matplotlib.axis_2">
    <g id="ytick_1">
     <g id="line2d_13">
      <defs>
       <path d="M 0 0 
L 4 0 
" id="mb3193c1723" style="stroke:#000000;stroke-width:0.5;"/>
      </defs>
      <g>
       <use style="stroke:#000000;stroke-width:0.5;" x="54.0" xlink:href="#mb3193c1723" y="252.0"/>
      </g>
     </g>
     <g id="line2d_14">
      <defs>
       <path d="M 0 0 
L -4 0 
" id="m199ce7e56f" style="stroke:#000000;stroke-width:0.5;"/>
      </defs>
      <g>
       <use style="stroke:#000000;stroke-width:0.5;" x="388.8" xlink:href="#m199ce7e56f" y="252.0"/>
      </g>
     </g>
     <g id="text_8">
      <!-- 0 -->
      <g transform="translate(43.6375 254.759375)scale(0.1 -0.1)">
       <use xlink:href="#BitstreamVeraSans-Roman-30"/>
      </g>
     </g>
    </g>
    <g id="ytick_2">
     <g id="line2d_15">
      <g>
       <use style="stroke:#000000;stroke-width:0.5;" x="54.0" xlink:href="#mb3193c1723" y="224.1"/>
      </g>
     </g>
     <g id="line2d_16">
      <g>
       <use style="stroke:#000000;stroke-width:0.5;" x="388.8" xlink:href="#m199ce7e56f" y="224.1"/>
      </g>
     </g>
     <g id="text_9">
      <!-- 500 -->
      <g transform="translate(30.9125 226.859375)scale(0.1 -0.1)">
       <use xlink:href="#BitstreamVeraSans-Roman-35"/>
       <use x="63.623046875" xlink:href="#BitstreamVeraSans-Roman-30"/>
       <use x="127.24609375" xlink:href="#BitstreamVeraSans-Roman-30"/>
      </g>
     </g>
    </g>
    <g id="ytick_3">
     <g id="line2d_17">
      <g>
       <use style="stroke:#000000;stroke-width:0.5;" x="54.0" xlink:href="#mb3193c1723" y="196.2"/>
      </g>
     </g>
     <g id="line2d_18">
      <g>
       <use style="stroke:#000000;stroke-width:0.5;" x="388.8" xlink:href="#m199ce7e56f" y="196.2"/>
      </g>
     </g>
     <g id="text_10">
      <!-- 1000 -->
      <g transform="translate(24.55 198.959375)scale(0.1 -0.1)">
       <use xlink:href="#BitstreamVeraSans-Roman-31"/>
       <use x="63.623046875" xlink:href="#BitstreamVeraSans-Roman-30"/>
       <use x="127.24609375" xlink:href="#BitstreamVeraSans-Roman-30"/>
       <use x="190.869140625" xlink:href="#BitstreamVeraSans-Roman-30"/>
      </g>
     </g>
    </g>
    <g id="ytick_4">
     <g id="line2d_19">
      <g>
       <use style="stroke:#000000;stroke-width:0.5;" x="54.0" xlink:href="#mb3193c1723" y="168.3"/>
      </g>
     </g>
     <g id="line2d_20">
      <g>
       <use style="stroke:#000000;stroke-width:0.5;" x="388.8" xlink:href="#m199ce7e56f" y="168.3"/>
      </g>
     </g>
     <g id="text_11">
      <!-- 1500 -->
      <g transform="translate(24.55 171.059375)scale(0.1 -0.1)">
       <use xlink:href="#BitstreamVeraSans-Roman-31"/>
       <use x="63.623046875" xlink:href="#BitstreamVeraSans-Roman-35"/>
       <use x="127.24609375" xlink:href="#BitstreamVeraSans-Roman-30"/>
       <use x="190.869140625" xlink:href="#BitstreamVeraSans-Roman-30"/>
      </g>
     </g>
    </g>
    <g id="ytick_5">
     <g id="line2d_21">
      <g>
       <use style="stroke:#000000;stroke-width:0.5;" x="54.0" xlink:href="#mb3193c1723" y="140.4"/>
      </g>
     </g>
     <g id="line2d_22">
      <g>
       <use style="stroke:#000000;stroke-width:0.5;" x="388.8" xlink:href="#m199ce7e56f" y="140.4"/>
      </g>
     </g>
     <g id="text_12">
      <!-- 2000 -->
      <defs>
       <path d="M 19.1875 8.296875 
L 53.609375 8.296875 
L 53.609375 0 
L 7.328125 0 
L 7.328125 8.296875 
Q 12.9375 14.109375 22.625 23.890625 
Q 32.328125 33.6875 34.8125 36.53125 
Q 39.546875 41.84375 41.421875 45.53125 
Q 43.3125 49.21875 43.3125 52.78125 
Q 43.3125 58.59375 39.234375 62.25 
Q 35.15625 65.921875 28.609375 65.921875 
Q 23.96875 65.921875 18.8125 64.3125 
Q 13.671875 62.703125 7.8125 59.421875 
L 7.8125 69.390625 
Q 13.765625 71.78125 18.9375 73 
Q 24.125 74.21875 28.421875 74.21875 
Q 39.75 74.21875 46.484375 68.546875 
Q 53.21875 62.890625 53.21875 53.421875 
Q 53.21875 48.921875 51.53125 44.890625 
Q 49.859375 40.875 45.40625 35.40625 
Q 44.1875 33.984375 37.640625 27.21875 
Q 31.109375 20.453125 19.1875 8.296875 
" id="BitstreamVeraSans-Roman-32"/>
      </defs>
      <g transform="translate(24.55 143.159375)scale(0.1 -0.1)">
       <use xlink:href="#BitstreamVeraSans-Roman-32"/>
       <use x="63.623046875" xlink:href="#BitstreamVeraSans-Roman-30"/>
       <use x="127.24609375" xlink:href="#BitstreamVeraSans-Roman-30"/>
       <use x="190.869140625" xlink:href="#BitstreamVeraSans-Roman-30"/>
      </g>
     </g>
    </g>
    <g id="ytick_6">
     <g id="line2d_23">
      <g>
       <use style="stroke:#000000;stroke-width:0.5;" x="54.0" xlink:href="#mb3193c1723" y="112.5"/>
      </g>
     </g>
     <g id="line2d_24">
      <g>
       <use style="stroke:#000000;stroke-width:0.5;" x="388.8" xlink:href="#m199ce7e56f" y="112.5"/>
      </g>
     </g>
     <g id="text_13">
      <!-- 2500 -->
      <g transform="translate(24.55 115.259375)scale(0.1 -0.1)">
       <use xlink:href="#BitstreamVeraSans-Roman-32"/>
       <use x="63.623046875" xlink:href="#BitstreamVeraSans-Roman-35"/>
       <use x="127.24609375" xlink:href="#BitstreamVeraSans-Roman-30"/>
       <use x="190.869140625" xlink:href="#BitstreamVeraSans-Roman-30"/>
      </g>
     </g>
    </g>
    <g id="ytick_7">
     <g id="line2d_25">
      <g>
       <use style="stroke:#000000;stroke-width:0.5;" x="54.0" xlink:href="#mb3193c1723" y="84.6"/>
      </g>
     </g>
     <g id="line2d_26">
      <g>
       <use style="stroke:#000000;stroke-width:0.5;" x="388.8" xlink:href="#m199ce7e56f" y="84.6"/>
      </g>
     </g>
     <g id="text_14">
      <!-- 3000 -->
      <defs>
       <path d="M 40.578125 39.3125 
Q 47.65625 37.796875 51.625 33 
Q 55.609375 28.21875 55.609375 21.1875 
Q 55.609375 10.40625 48.1875 4.484375 
Q 40.765625 -1.421875 27.09375 -1.421875 
Q 22.515625 -1.421875 17.65625 -0.515625 
Q 12.796875 0.390625 7.625 2.203125 
L 7.625 11.71875 
Q 11.71875 9.328125 16.59375 8.109375 
Q 21.484375 6.890625 26.8125 6.890625 
Q 36.078125 6.890625 40.9375 10.546875 
Q 45.796875 14.203125 45.796875 21.1875 
Q 45.796875 27.640625 41.28125 31.265625 
Q 36.765625 34.90625 28.71875 34.90625 
L 20.21875 34.90625 
L 20.21875 43.015625 
L 29.109375 43.015625 
Q 36.375 43.015625 40.234375 45.921875 
Q 44.09375 48.828125 44.09375 54.296875 
Q 44.09375 59.90625 40.109375 62.90625 
Q 36.140625 65.921875 28.71875 65.921875 
Q 24.65625 65.921875 20.015625 65.03125 
Q 15.375 64.15625 9.8125 62.3125 
L 9.8125 71.09375 
Q 15.4375 72.65625 20.34375 73.4375 
Q 25.25 74.21875 29.59375 74.21875 
Q 40.828125 74.21875 47.359375 69.109375 
Q 53.90625 64.015625 53.90625 55.328125 
Q 53.90625 49.265625 50.4375 45.09375 
Q 46.96875 40.921875 40.578125 39.3125 
" id="BitstreamVeraSans-Roman-33"/>
      </defs>
      <g transform="translate(24.55 87.359375)scale(0.1 -0.1)">
       <use xlink:href="#BitstreamVeraSans-Roman-33"/>
       <use x="63.623046875" xlink:href="#BitstreamVeraSans-Roman-30"/>
       <use x="127.24609375" xlink:href="#BitstreamVeraSans-Roman-30"/>
       <use x="190.869140625" xlink:href="#BitstreamVeraSans-Roman-30"/>
      </g>
     </g>
    </g>
    <g id="ytick_8">
     <g id="line2d_27">
      <g>
       <use style="stroke:#000000;stroke-width:0.5;" x="54.0" xlink:href="#mb3193c1723" y="56.7"/>
      </g>
     </g>
     <g id="line2d_28">
      <g>
       <use style="stroke:#000000;stroke-width:0.5;" x="388.8" xlink:href="#m199ce7e56f" y="56.7"/>
      </g>
     </g>
     <g id="text_15">
      <!-- 3500 -->
      <g transform="translate(24.55 59.459375)scale(0.1 -0.1)">
       <use xlink:href="#BitstreamVeraSans-Roman-33"/>
       <use x="63.623046875" xlink:href="#BitstreamVeraSans-Roman-35"/>
       <use x="127.24609375" xlink:href="#BitstreamVeraSans-Roman-30"/>
       <use x="190.869140625" xlink:href="#BitstreamVeraSans-Roman-30"/>
      </g>
     </g>
    </g>
    <g id="ytick_9">
     <g id="line2d_29">
      <g>
       <use style="stroke:#000000;stroke-width:0.5;" x="54.0" xlink:href="#mb3193c1723" y="28.8"/>
      </g>
     </g>
     <g id="line2d_30">
      <g>
       <use style="stroke:#000000;stroke-width:0.5;" x="388.8" xlink:href="#m199ce7e56f" y="28.8"/>
      </g>
     </g>
     <g id="text_16">
      <!-- 4000 -->
      <defs>
       <path d="M 37.796875 64.3125 
L 12.890625 25.390625 
L 37.796875 25.390625 
z
M 35.203125 72.90625 
L 47.609375 72.90625 
L 47.609375 25.390625 
L 58.015625 25.390625 
L 58.015625 17.1875 
L 47.609375 17.1875 
L 47.609375 0 
L 37.796875 0 
L 37.796875 17.1875 
L 4.890625 17.1875 
L 4.890625 26.703125 
z
" id="BitstreamVeraSans-Roman-34"/>
      </defs>
      <g transform="translate(24.55 31.559375)scale(0.1 -0.1)">
       <use xlink:href="#BitstreamVeraSans-Roman-34"/>
       <use x="63.623046875" xlink:href="#BitstreamVeraSans-Roman-30"/>
       <use x="127.24609375" xlink:href="#BitstreamVeraSans-Roman-30"/>
       <use x="190.869140625" xlink:href="#BitstreamVeraSans-Roman-30"/>
      </g>
     </g>
    </g>
    <g id="text_17">
     <!-- n -->
     <defs>
      <path d="M 54.890625 33.015625 
L 54.890625 0 
L 45.90625 0 
L 45.90625 32.71875 
Q 45.90625 40.484375 42.875 44.328125 
Q 39.84375 48.1875 33.796875 48.1875 
Q 26.515625 48.1875 22.3125 43.546875 
Q 18.109375 38.921875 18.109375 30.90625 
L 18.109375 0 
L 9.078125 0 
L 9.078125 54.6875 
L 18.109375 54.6875 
L 18.109375 46.1875 
Q 21.34375 51.125 25.703125 53.5625 
Q 30.078125 56 35.796875 56 
Q 45.21875 56 50.046875 50.171875 
Q 54.890625 44.34375 54.890625 33.015625 
" id="BitstreamVeraSans-Roman-6e"/>
     </defs>
     <g transform="translate(17.4703125 143.56875)rotate(-90.0)scale(0.1 -0.1)">
      <use xlink:href="#BitstreamVeraSans-Roman-6e"/>
     </g>
    </g>
   </g>
   <g id="legend_1">
    <g id="patch_9">
     <path d="M 60 246 
L 172.359375 246 
L 172.359375 207.1725 
L 60 207.1725 
z
" style="fill:#ffffff;stroke:#000000;stroke-linejoin:miter;"/>
    </g>
    <g id="patch_10">
     <path d="M 64.8 221.090625 
L 88.8 221.090625 
L 88.8 212.690625 
L 64.8 212.690625 
z
" style="fill:#8b0000;stroke:#000000;stroke-linejoin:miter;"/>
    </g>
    <g id="text_18">
     <!-- Pole 1 ages -->
     <defs>
      <path d="M 19.671875 64.796875 
L 19.671875 37.40625 
L 32.078125 37.40625 
Q 38.96875 37.40625 42.71875 40.96875 
Q 46.484375 44.53125 46.484375 51.125 
Q 46.484375 57.671875 42.71875 61.234375 
Q 38.96875 64.796875 32.078125 64.796875 
z
M 9.8125 72.90625 
L 32.078125 72.90625 
Q 44.34375 72.90625 50.609375 67.359375 
Q 56.890625 61.8125 56.890625 51.125 
Q 56.890625 40.328125 50.609375 34.8125 
Q 44.34375 29.296875 32.078125 29.296875 
L 19.671875 29.296875 
L 19.671875 0 
L 9.8125 0 
z
" id="BitstreamVeraSans-Roman-50"/>
      <path d="M 30.609375 48.390625 
Q 23.390625 48.390625 19.1875 42.75 
Q 14.984375 37.109375 14.984375 27.296875 
Q 14.984375 17.484375 19.15625 11.84375 
Q 23.34375 6.203125 30.609375 6.203125 
Q 37.796875 6.203125 41.984375 11.859375 
Q 46.1875 17.53125 46.1875 27.296875 
Q 46.1875 37.015625 41.984375 42.703125 
Q 37.796875 48.390625 30.609375 48.390625 
M 30.609375 56 
Q 42.328125 56 49.015625 48.375 
Q 55.71875 40.765625 55.71875 27.296875 
Q 55.71875 13.875 49.015625 6.21875 
Q 42.328125 -1.421875 30.609375 -1.421875 
Q 18.84375 -1.421875 12.171875 6.21875 
Q 5.515625 13.875 5.515625 27.296875 
Q 5.515625 40.765625 12.171875 48.375 
Q 18.84375 56 30.609375 56 
" id="BitstreamVeraSans-Roman-6f"/>
      <path d="M 44.28125 53.078125 
L 44.28125 44.578125 
Q 40.484375 46.53125 36.375 47.5 
Q 32.28125 48.484375 27.875 48.484375 
Q 21.1875 48.484375 17.84375 46.4375 
Q 14.5 44.390625 14.5 40.28125 
Q 14.5 37.15625 16.890625 35.375 
Q 19.28125 33.59375 26.515625 31.984375 
L 29.59375 31.296875 
Q 39.15625 29.25 43.1875 25.515625 
Q 47.21875 21.78125 47.21875 15.09375 
Q 47.21875 7.46875 41.1875 3.015625 
Q 35.15625 -1.421875 24.609375 -1.421875 
Q 20.21875 -1.421875 15.453125 -0.5625 
Q 10.6875 0.296875 5.421875 2 
L 5.421875 11.28125 
Q 10.40625 8.6875 15.234375 7.390625 
Q 20.0625 6.109375 24.8125 6.109375 
Q 31.15625 6.109375 34.5625 8.28125 
Q 37.984375 10.453125 37.984375 14.40625 
Q 37.984375 18.0625 35.515625 20.015625 
Q 33.0625 21.96875 24.703125 23.78125 
L 21.578125 24.515625 
Q 13.234375 26.265625 9.515625 29.90625 
Q 5.8125 33.546875 5.8125 39.890625 
Q 5.8125 47.609375 11.28125 51.796875 
Q 16.75 56 26.8125 56 
Q 31.78125 56 36.171875 55.265625 
Q 40.578125 54.546875 44.28125 53.078125 
" id="BitstreamVeraSans-Roman-73"/>
      <path d="M 9.421875 75.984375 
L 18.40625 75.984375 
L 18.40625 0 
L 9.421875 0 
z
" id="BitstreamVeraSans-Roman-6c"/>
     </defs>
     <g transform="translate(98.4 221.090625)scale(0.12 -0.12)">
      <use xlink:href="#BitstreamVeraSans-Roman-50"/>
      <use x="60.255859375" xlink:href="#BitstreamVeraSans-Roman-6f"/>
      <use x="121.4375" xlink:href="#BitstreamVeraSans-Roman-6c"/>
      <use x="149.220703125" xlink:href="#BitstreamVeraSans-Roman-65"/>
      <use x="210.744140625" xlink:href="#BitstreamVeraSans-Roman-20"/>
      <use x="242.53125" xlink:href="#BitstreamVeraSans-Roman-31"/>
      <use x="306.154296875" xlink:href="#BitstreamVeraSans-Roman-20"/>
      <use x="337.94140625" xlink:href="#BitstreamVeraSans-Roman-61"/>
      <use x="399.220703125" xlink:href="#BitstreamVeraSans-Roman-67"/>
      <use x="462.697265625" xlink:href="#BitstreamVeraSans-Roman-65"/>
      <use x="524.220703125" xlink:href="#BitstreamVeraSans-Roman-73"/>
     </g>
    </g>
    <g id="patch_11">
     <path d="M 64.8 238.704375 
L 88.8 238.704375 
L 88.8 230.304375 
L 64.8 230.304375 
z
" style="fill:#00008b;stroke:#000000;stroke-linejoin:miter;"/>
    </g>
    <g id="text_19">
     <!-- Pole 2 ages -->
     <g transform="translate(98.4 238.704375)scale(0.12 -0.12)">
      <use xlink:href="#BitstreamVeraSans-Roman-50"/>
      <use x="60.255859375" xlink:href="#BitstreamVeraSans-Roman-6f"/>
      <use x="121.4375" xlink:href="#BitstreamVeraSans-Roman-6c"/>
      <use x="149.220703125" xlink:href="#BitstreamVeraSans-Roman-65"/>
      <use x="210.744140625" xlink:href="#BitstreamVeraSans-Roman-20"/>
      <use x="242.53125" xlink:href="#BitstreamVeraSans-Roman-32"/>
      <use x="306.154296875" xlink:href="#BitstreamVeraSans-Roman-20"/>
      <use x="337.94140625" xlink:href="#BitstreamVeraSans-Roman-61"/>
      <use x="399.220703125" xlink:href="#BitstreamVeraSans-Roman-67"/>
      <use x="462.697265625" xlink:href="#BitstreamVeraSans-Roman-65"/>
      <use x="524.220703125" xlink:href="#BitstreamVeraSans-Roman-73"/>
     </g>
    </g>
   </g>
  </g>
 </g>
 <defs>
  <clipPath id="pa1597a3255">
   <rect height="223.2" width="334.8" x="54.0" y="28.8"/>
  </clipPath>
 </defs>
</svg>
