<?xml version="1.0" encoding="utf-8" standalone="no"?>
<!DOCTYPE svg PUBLIC "-//W3C//DTD SVG 1.1//EN"
  "http://www.w3.org/Graphics/SVG/1.1/DTD/svg11.dtd">
<!-- Created with matplotlib (http://matplotlib.org/) -->
<svg height="288pt" version="1.1" viewBox="0 0 432 288" width="432pt" xmlns="http://www.w3.org/2000/svg" xmlns:xlink="http://www.w3.org/1999/xlink">
 <defs>
  <style type="text/css">
*{stroke-linecap:butt;stroke-linejoin:round;stroke-miterlimit:100000;}
  </style>
 </defs>
 <g id="figure_1">
  <g id="patch_1">
   <path d="M 0 288 
L 432 288 
L 432 0 
L 0 0 
z
" style="fill:#ffffff;"/>
  </g>
  <g id="axes_1">
   <g id="patch_2">
    <path d="M 54 252 
L 388.8 252 
L 388.8 28.8 
L 54 28.8 
z
" style="fill:#ffffff;"/>
   </g>
   <g id="patch_3">
    <path clip-path="url(#p5041559a52)" d="M 324.70176 252 
L 324.70176 251.9442 
L 325.118643 251.9442 
L 325.118643 251.9442 
L 325.535526 251.9442 
L 325.535526 251.9442 
L 325.95241 251.9442 
L 325.95241 252 
L 326.369293 252 
L 326.369293 251.8884 
L 326.786176 251.8884 
L 326.786176 252 
L 327.203059 252 
L 327.203059 251.8326 
L 327.619943 251.8326 
L 327.619943 251.9442 
L 328.036826 251.9442 
L 328.036826 251.8326 
L 328.453709 251.8326 
L 328.453709 251.721 
L 328.870592 251.721 
L 328.870592 251.3862 
L 329.287476 251.3862 
L 329.287476 251.2188 
L 329.704359 251.2188 
L 329.704359 250.9956 
L 330.121242 250.9956 
L 330.121242 250.9398 
L 330.538125 250.9398 
L 330.538125 250.5492 
L 330.955009 250.5492 
L 330.955009 250.1586 
L 331.371892 250.1586 
L 331.371892 250.047 
L 331.788775 250.047 
L 331.788775 248.8194 
L 332.205659 248.8194 
L 332.205659 248.3172 
L 332.622542 248.3172 
L 332.622542 247.0896 
L 333.039425 247.0896 
L 333.039425 246.5316 
L 333.456308 246.5316 
L 333.456308 244.4112 
L 333.873192 244.4112 
L 333.873192 241.3422 
L 334.290075 241.3422 
L 334.290075 241.1748 
L 334.706958 241.1748 
L 334.706958 236.4318 
L 335.123841 236.4318 
L 335.123841 234.8694 
L 335.540725 234.8694 
L 335.540725 229.5684 
L 335.957608 229.5684 
L 335.957608 226.1646 
L 336.374491 226.1646 
L 336.374491 221.7006 
L 336.791374 221.7006 
L 336.791374 213.4422 
L 337.208258 213.4422 
L 337.208258 210.3732 
L 337.625141 210.3732 
L 337.625141 199.6038 
L 338.042024 199.6038 
L 338.042024 194.9166 
L 338.458908 194.9166 
L 338.458908 191.1222 
L 338.875791 191.1222 
L 338.875791 178.4556 
L 339.292674 178.4556 
L 339.292674 169.137 
L 339.709557 169.137 
L 339.709557 158.5908 
L 340.126441 158.5908 
L 340.126441 149.2164 
L 340.543324 149.2164 
L 340.543324 139.6188 
L 340.960207 139.6188 
L 340.960207 129.1842 
L 341.37709 129.1842 
L 341.37709 116.4618 
L 341.793974 116.4618 
L 341.793974 111.3282 
L 342.210857 111.3282 
L 342.210857 104.967 
L 342.62774 104.967 
L 342.62774 93.4164 
L 343.044623 93.4164 
L 343.044623 83.5398 
L 343.461507 83.5398 
L 343.461507 75.6162 
L 343.87839 75.6162 
L 343.87839 70.7058 
L 344.295273 70.7058 
L 344.295273 60.8292 
L 344.712156 60.8292 
L 344.712156 63.0612 
L 345.12904 63.0612 
L 345.12904 58.932 
L 345.545923 58.932 
L 345.545923 58.9878 
L 345.962806 58.9878 
L 345.962806 53.7984 
L 346.37969 53.7984 
L 346.37969 62.7264 
L 346.796573 62.7264 
L 346.796573 59.211 
L 347.213456 59.211 
L 347.213456 72.2682 
L 347.630339 72.2682 
L 347.630339 76.788 
L 348.047223 76.788 
L 348.047223 80.415 
L 348.464106 80.415 
L 348.464106 91.6866 
L 348.880989 91.6866 
L 348.880989 94.365 
L 349.297872 94.365 
L 349.297872 109.7658 
L 349.714756 109.7658 
L 349.714756 119.3634 
L 350.131639 119.3634 
L 350.131639 126.8964 
L 350.548522 126.8964 
L 350.548522 139.005 
L 350.965405 139.005 
L 350.965405 149.2722 
L 351.382289 149.2722 
L 351.382289 161.9946 
L 351.799172 161.9946 
L 351.799172 171.0342 
L 352.216055 171.0342 
L 352.216055 178.7346 
L 352.632938 178.7346 
L 352.632938 185.6538 
L 353.049822 185.6538 
L 353.049822 198.6552 
L 353.466705 198.6552 
L 353.466705 203.1192 
L 353.883588 203.1192 
L 353.883588 209.6478 
L 354.300472 209.6478 
L 354.300472 214.4466 
L 354.717355 214.4466 
L 354.717355 219.6918 
L 355.134238 219.6918 
L 355.134238 225.9972 
L 355.551121 225.9972 
L 355.551121 232.6374 
L 355.968005 232.6374 
L 355.968005 233.7534 
L 356.384888 233.7534 
L 356.384888 238.05 
L 356.801771 238.05 
L 356.801771 239.0544 
L 357.218654 239.0544 
L 357.218654 242.9604 
L 357.635538 242.9604 
L 357.635538 244.467 
L 358.052421 244.467 
L 358.052421 244.8576 
L 358.469304 244.8576 
L 358.469304 247.536 
L 358.886187 247.536 
L 358.886187 248.5404 
L 359.303071 248.5404 
L 359.303071 248.931 
L 359.719954 248.931 
L 359.719954 248.8752 
L 360.136837 248.8752 
L 360.136837 249.9354 
L 360.553721 249.9354 
L 360.553721 251.1072 
L 360.970604 251.1072 
L 360.970604 251.6652 
L 361.387487 251.6652 
L 361.387487 251.2188 
L 361.80437 251.2188 
L 361.80437 251.3304 
L 362.221254 251.3304 
L 362.221254 251.3862 
L 362.638137 251.3862 
L 362.638137 251.6652 
L 363.05502 251.6652 
L 363.05502 251.8326 
L 363.471903 251.8326 
L 363.471903 251.8326 
L 363.888787 251.8326 
L 363.888787 251.7768 
L 364.30567 251.7768 
L 364.30567 251.8884 
L 364.722553 251.8884 
L 364.722553 252 
L 365.139436 252 
L 365.139436 251.9442 
L 365.55632 251.9442 
L 365.55632 252 
L 365.973203 252 
L 365.973203 251.9442 
L 366.390086 251.9442 
L 366.390086 252 
L 365.973203 252 
L 365.973203 252 
L 365.55632 252 
L 365.55632 252 
L 365.139436 252 
L 365.139436 252 
L 364.722553 252 
L 364.722553 252 
L 364.30567 252 
L 364.30567 252 
L 363.888787 252 
L 363.888787 252 
L 363.471903 252 
L 363.471903 252 
L 363.05502 252 
L 363.05502 252 
L 362.638137 252 
L 362.638137 252 
L 362.221254 252 
L 362.221254 252 
L 361.80437 252 
L 361.80437 252 
L 361.387487 252 
L 361.387487 252 
L 360.970604 252 
L 360.970604 252 
L 360.553721 252 
L 360.553721 252 
L 360.136837 252 
L 360.136837 252 
L 359.719954 252 
L 359.719954 252 
L 359.303071 252 
L 359.303071 252 
L 358.886187 252 
L 358.886187 252 
L 358.469304 252 
L 358.469304 252 
L 358.052421 252 
L 358.052421 252 
L 357.635538 252 
L 357.635538 252 
L 357.218654 252 
L 357.218654 252 
L 356.801771 252 
L 356.801771 252 
L 356.384888 252 
L 356.384888 252 
L 355.968005 252 
L 355.968005 252 
L 355.551121 252 
L 355.551121 252 
L 355.134238 252 
L 355.134238 252 
L 354.717355 252 
L 354.717355 252 
L 354.300472 252 
L 354.300472 252 
L 353.883588 252 
L 353.883588 252 
L 353.466705 252 
L 353.466705 252 
L 353.049822 252 
L 353.049822 252 
L 352.632938 252 
L 352.632938 252 
L 352.216055 252 
L 352.216055 252 
L 351.799172 252 
L 351.799172 252 
L 351.382289 252 
L 351.382289 252 
L 350.965405 252 
L 350.965405 252 
L 350.548522 252 
L 350.548522 252 
L 350.131639 252 
L 350.131639 252 
L 349.714756 252 
L 349.714756 252 
L 349.297872 252 
L 349.297872 252 
L 348.880989 252 
L 348.880989 252 
L 348.464106 252 
L 348.464106 252 
L 348.047223 252 
L 348.047223 252 
L 347.630339 252 
L 347.630339 252 
L 347.213456 252 
L 347.213456 252 
L 346.796573 252 
L 346.796573 252 
L 346.37969 252 
L 346.37969 252 
L 345.962806 252 
L 345.962806 252 
L 345.545923 252 
L 345.545923 252 
L 345.12904 252 
L 345.12904 252 
L 344.712156 252 
L 344.712156 252 
L 344.295273 252 
L 344.295273 252 
L 343.87839 252 
L 343.87839 252 
L 343.461507 252 
L 343.461507 252 
L 343.044623 252 
L 343.044623 252 
L 342.62774 252 
L 342.62774 252 
L 342.210857 252 
L 342.210857 252 
L 341.793974 252 
L 341.793974 252 
L 341.37709 252 
L 341.37709 252 
L 340.960207 252 
L 340.960207 252 
L 340.543324 252 
L 340.543324 252 
L 340.126441 252 
L 340.126441 252 
L 339.709557 252 
L 339.709557 252 
L 339.292674 252 
L 339.292674 252 
L 338.875791 252 
L 338.875791 252 
L 338.458908 252 
L 338.458908 252 
L 338.042024 252 
L 338.042024 252 
L 337.625141 252 
L 337.625141 252 
L 337.208258 252 
L 337.208258 252 
L 336.791374 252 
L 336.791374 252 
L 336.374491 252 
L 336.374491 252 
L 335.957608 252 
L 335.957608 252 
L 335.540725 252 
L 335.540725 252 
L 335.123841 252 
L 335.123841 252 
L 334.706958 252 
L 334.706958 252 
L 334.290075 252 
L 334.290075 252 
L 333.873192 252 
L 333.873192 252 
L 333.456308 252 
L 333.456308 252 
L 333.039425 252 
L 333.039425 252 
L 332.622542 252 
L 332.622542 252 
L 332.205659 252 
L 332.205659 252 
L 331.788775 252 
L 331.788775 252 
L 331.371892 252 
L 331.371892 252 
L 330.955009 252 
L 330.955009 252 
L 330.538125 252 
L 330.538125 252 
L 330.121242 252 
L 330.121242 252 
L 329.704359 252 
L 329.704359 252 
L 329.287476 252 
L 329.287476 252 
L 328.870592 252 
L 328.870592 252 
L 328.453709 252 
L 328.453709 252 
L 328.036826 252 
L 328.036826 252 
L 327.619943 252 
L 327.619943 252 
L 327.203059 252 
L 327.203059 252 
L 326.786176 252 
L 326.786176 252 
L 326.369293 252 
L 326.369293 252 
L 325.95241 252 
L 325.95241 252 
L 325.535526 252 
L 325.535526 252 
L 325.118643 252 
L 325.118643 252 
z
" style="fill:#8b0000;stroke:#000000;stroke-linejoin:miter;"/>
   </g>
   <g id="patch_4">
    <path clip-path="url(#p5041559a52)" d="M 79.189086 252 
L 79.189086 251.9442 
L 79.423129 251.9442 
L 79.423129 251.9442 
L 79.657172 251.9442 
L 79.657172 251.7768 
L 79.891215 251.7768 
L 79.891215 251.8884 
L 80.125257 251.8884 
L 80.125257 251.7768 
L 80.3593 251.7768 
L 80.3593 251.3862 
L 80.593343 251.3862 
L 80.593343 251.8326 
L 80.827386 251.8326 
L 80.827386 251.2188 
L 81.061428 251.2188 
L 81.061428 251.2746 
L 81.295471 251.2746 
L 81.295471 251.3304 
L 81.529514 251.3304 
L 81.529514 251.1072 
L 81.763556 251.1072 
L 81.763556 250.4934 
L 81.997599 250.4934 
L 81.997599 249.9354 
L 82.231642 249.9354 
L 82.231642 249.489 
L 82.465685 249.489 
L 82.465685 248.8194 
L 82.699727 248.8194 
L 82.699727 247.7034 
L 82.93377 247.7034 
L 82.93377 246.978 
L 83.167813 246.978 
L 83.167813 245.4156 
L 83.401856 245.4156 
L 83.401856 243.1278 
L 83.635898 243.1278 
L 83.635898 240.0588 
L 83.869941 240.0588 
L 83.869941 237.8268 
L 84.103984 237.8268 
L 84.103984 235.7064 
L 84.338026 235.7064 
L 84.338026 233.2512 
L 84.572069 233.2512 
L 84.572069 227.0574 
L 84.806112 227.0574 
L 84.806112 225.8298 
L 85.040155 225.8298 
L 85.040155 220.752 
L 85.274197 220.752 
L 85.274197 215.3394 
L 85.50824 215.3394 
L 85.50824 210.708 
L 85.742283 210.708 
L 85.742283 204.0678 
L 85.976326 204.0678 
L 85.976326 192.9078 
L 86.210368 192.9078 
L 86.210368 185.7654 
L 86.444411 185.7654 
L 86.444411 176.7258 
L 86.678454 176.7258 
L 86.678454 169.416 
L 86.912496 169.416 
L 86.912496 157.9212 
L 87.146539 157.9212 
L 87.146539 152.676 
L 87.380582 152.676 
L 87.380582 142.9668 
L 87.614625 142.9668 
L 87.614625 132.7554 
L 87.848667 132.7554 
L 87.848667 126.5058 
L 88.08271 126.5058 
L 88.08271 112.779 
L 88.316753 112.779 
L 88.316753 104.7438 
L 88.550796 104.7438 
L 88.550796 99.387 
L 88.784838 99.387 
L 88.784838 80.9172 
L 89.018881 80.9172 
L 89.018881 77.1228 
L 89.252924 77.1228 
L 89.252924 71.0964 
L 89.486966 71.0964 
L 89.486966 69.255 
L 89.721009 69.255 
L 89.721009 70.2036 
L 89.955052 70.2036 
L 89.955052 65.4606 
L 90.189095 65.4606 
L 90.189095 61.3872 
L 90.423137 61.3872 
L 90.423137 64.0098 
L 90.65718 64.0098 
L 90.65718 65.1258 
L 90.891223 65.1258 
L 90.891223 62.8938 
L 91.125266 62.8938 
L 91.125266 67.302 
L 91.359308 67.302 
L 91.359308 76.8996 
L 91.593351 76.8996 
L 91.593351 84.2094 
L 91.827394 84.2094 
L 91.827394 92.3004 
L 92.061436 92.3004 
L 92.061436 103.0698 
L 92.295479 103.0698 
L 92.295479 110.1006 
L 92.529522 110.1006 
L 92.529522 118.0242 
L 92.763565 118.0242 
L 92.763565 125.2224 
L 92.997607 125.2224 
L 92.997607 140.4 
L 93.23165 140.4 
L 93.23165 150.6114 
L 93.465693 150.6114 
L 93.465693 159.8742 
L 93.699736 159.8742 
L 93.699736 167.0166 
L 93.933778 167.0166 
L 93.933778 176.7258 
L 94.167821 176.7258 
L 94.167821 181.3014 
L 94.401864 181.3014 
L 94.401864 191.3454 
L 94.635906 191.3454 
L 94.635906 199.2132 
L 94.869949 199.2132 
L 94.869949 206.4672 
L 95.103992 206.4672 
L 95.103992 213.4422 
L 95.338035 213.4422 
L 95.338035 218.2968 
L 95.572077 218.2968 
L 95.572077 221.1984 
L 95.80612 221.1984 
L 95.80612 228.0618 
L 96.040163 228.0618 
L 96.040163 232.47 
L 96.274206 232.47 
L 96.274206 233.6976 
L 96.508248 233.6976 
L 96.508248 238.4406 
L 96.742291 238.4406 
L 96.742291 240.5052 
L 96.976334 240.5052 
L 96.976334 241.3422 
L 97.210376 241.3422 
L 97.210376 243.7416 
L 97.444419 243.7416 
L 97.444419 245.9736 
L 97.678462 245.9736 
L 97.678462 247.1454 
L 97.912505 247.1454 
L 97.912505 248.2614 
L 98.146547 248.2614 
L 98.146547 249.21 
L 98.38059 249.21 
L 98.38059 249.5448 
L 98.614633 249.5448 
L 98.614633 250.1586 
L 98.848676 250.1586 
L 98.848676 250.7166 
L 99.082718 250.7166 
L 99.082718 251.0514 
L 99.316761 251.0514 
L 99.316761 251.163 
L 99.550804 251.163 
L 99.550804 251.4978 
L 99.784846 251.4978 
L 99.784846 251.5536 
L 100.018889 251.5536 
L 100.018889 251.5536 
L 100.252932 251.5536 
L 100.252932 251.721 
L 100.486975 251.721 
L 100.486975 251.721 
L 100.721017 251.721 
L 100.721017 251.8884 
L 100.95506 251.8884 
L 100.95506 251.9442 
L 101.189103 251.9442 
L 101.189103 252 
L 101.423146 252 
L 101.423146 251.8326 
L 101.657188 251.8326 
L 101.657188 251.9442 
L 101.891231 251.9442 
L 101.891231 251.8884 
L 102.125274 251.8884 
L 102.125274 252 
L 102.359317 252 
L 102.359317 251.8884 
L 102.593359 251.8884 
L 102.593359 252 
L 102.359317 252 
L 102.359317 252 
L 102.125274 252 
L 102.125274 252 
L 101.891231 252 
L 101.891231 252 
L 101.657188 252 
L 101.657188 252 
L 101.423146 252 
L 101.423146 252 
L 101.189103 252 
L 101.189103 252 
L 100.95506 252 
L 100.95506 252 
L 100.721017 252 
L 100.721017 252 
L 100.486975 252 
L 100.486975 252 
L 100.252932 252 
L 100.252932 252 
L 100.018889 252 
L 100.018889 252 
L 99.784846 252 
L 99.784846 252 
L 99.550804 252 
L 99.550804 252 
L 99.316761 252 
L 99.316761 252 
L 99.082718 252 
L 99.082718 252 
L 98.848676 252 
L 98.848676 252 
L 98.614633 252 
L 98.614633 252 
L 98.38059 252 
L 98.38059 252 
L 98.146547 252 
L 98.146547 252 
L 97.912505 252 
L 97.912505 252 
L 97.678462 252 
L 97.678462 252 
L 97.444419 252 
L 97.444419 252 
L 97.210376 252 
L 97.210376 252 
L 96.976334 252 
L 96.976334 252 
L 96.742291 252 
L 96.742291 252 
L 96.508248 252 
L 96.508248 252 
L 96.274206 252 
L 96.274206 252 
L 96.040163 252 
L 96.040163 252 
L 95.80612 252 
L 95.80612 252 
L 95.572077 252 
L 95.572077 252 
L 95.338035 252 
L 95.338035 252 
L 95.103992 252 
L 95.103992 252 
L 94.869949 252 
L 94.869949 252 
L 94.635906 252 
L 94.635906 252 
L 94.401864 252 
L 94.401864 252 
L 94.167821 252 
L 94.167821 252 
L 93.933778 252 
L 93.933778 252 
L 93.699736 252 
L 93.699736 252 
L 93.465693 252 
L 93.465693 252 
L 93.23165 252 
L 93.23165 252 
L 92.997607 252 
L 92.997607 252 
L 92.763565 252 
L 92.763565 252 
L 92.529522 252 
L 92.529522 252 
L 92.295479 252 
L 92.295479 252 
L 92.061436 252 
L 92.061436 252 
L 91.827394 252 
L 91.827394 252 
L 91.593351 252 
L 91.593351 252 
L 91.359308 252 
L 91.359308 252 
L 91.125266 252 
L 91.125266 252 
L 90.891223 252 
L 90.891223 252 
L 90.65718 252 
L 90.65718 252 
L 90.423137 252 
L 90.423137 252 
L 90.189095 252 
L 90.189095 252 
L 89.955052 252 
L 89.955052 252 
L 89.721009 252 
L 89.721009 252 
L 89.486966 252 
L 89.486966 252 
L 89.252924 252 
L 89.252924 252 
L 89.018881 252 
L 89.018881 252 
L 88.784838 252 
L 88.784838 252 
L 88.550796 252 
L 88.550796 252 
L 88.316753 252 
L 88.316753 252 
L 88.08271 252 
L 88.08271 252 
L 87.848667 252 
L 87.848667 252 
L 87.614625 252 
L 87.614625 252 
L 87.380582 252 
L 87.380582 252 
L 87.146539 252 
L 87.146539 252 
L 86.912496 252 
L 86.912496 252 
L 86.678454 252 
L 86.678454 252 
L 86.444411 252 
L 86.444411 252 
L 86.210368 252 
L 86.210368 252 
L 85.976326 252 
L 85.976326 252 
L 85.742283 252 
L 85.742283 252 
L 85.50824 252 
L 85.50824 252 
L 85.274197 252 
L 85.274197 252 
L 85.040155 252 
L 85.040155 252 
L 84.806112 252 
L 84.806112 252 
L 84.572069 252 
L 84.572069 252 
L 84.338026 252 
L 84.338026 252 
L 84.103984 252 
L 84.103984 252 
L 83.869941 252 
L 83.869941 252 
L 83.635898 252 
L 83.635898 252 
L 83.401856 252 
L 83.401856 252 
L 83.167813 252 
L 83.167813 252 
L 82.93377 252 
L 82.93377 252 
L 82.699727 252 
L 82.699727 252 
L 82.465685 252 
L 82.465685 252 
L 82.231642 252 
L 82.231642 252 
L 81.997599 252 
L 81.997599 252 
L 81.763556 252 
L 81.763556 252 
L 81.529514 252 
L 81.529514 252 
L 81.295471 252 
L 81.295471 252 
L 81.061428 252 
L 81.061428 252 
L 80.827386 252 
L 80.827386 252 
L 80.593343 252 
L 80.593343 252 
L 80.3593 252 
L 80.3593 252 
L 80.125257 252 
L 80.125257 252 
L 79.891215 252 
L 79.891215 252 
L 79.657172 252 
L 79.657172 252 
L 79.423129 252 
L 79.423129 252 
z
" style="fill:#00008b;stroke:#000000;stroke-linejoin:miter;"/>
   </g>
   <g id="patch_5">
    <path d="M 54 28.8 
L 388.8 28.8 
" style="fill:none;stroke:#000000;stroke-linecap:square;stroke-linejoin:miter;"/>
   </g>
   <g id="patch_6">
    <path d="M 388.8 252 
L 388.8 28.8 
" style="fill:none;stroke:#000000;stroke-linecap:square;stroke-linejoin:miter;"/>
   </g>
   <g id="patch_7">
    <path d="M 54 252 
L 388.8 252 
" style="fill:none;stroke:#000000;stroke-linecap:square;stroke-linejoin:miter;"/>
   </g>
   <g id="patch_8">
    <path d="M 54 252 
L 54 28.8 
" style="fill:none;stroke:#000000;stroke-linecap:square;stroke-linejoin:miter;"/>
   </g>
   <g id="matplotlib.axis_1">
    <g id="xtick_1">
     <g id="line2d_1">
      <defs>
       <path d="M 0 0 
L 0 -4 
" id="m4605f6eb36" style="stroke:#000000;stroke-width:0.5;"/>
      </defs>
      <g>
       <use style="stroke:#000000;stroke-width:0.5;" x="54.0" xlink:href="#m4605f6eb36" y="252.0"/>
      </g>
     </g>
     <g id="line2d_2">
      <defs>
       <path d="M 0 0 
L 0 4 
" id="m78e7cc16b7" style="stroke:#000000;stroke-width:0.5;"/>
      </defs>
      <g>
       <use style="stroke:#000000;stroke-width:0.5;" x="54.0" xlink:href="#m78e7cc16b7" y="28.8"/>
      </g>
     </g>
     <g id="text_1">
      <!-- 1082 -->
      <defs>
       <path d="M 19.1875 8.296875 
L 53.609375 8.296875 
L 53.609375 0 
L 7.328125 0 
L 7.328125 8.296875 
Q 12.9375 14.109375 22.625 23.890625 
Q 32.328125 33.6875 34.8125 36.53125 
Q 39.546875 41.84375 41.421875 45.53125 
Q 43.3125 49.21875 43.3125 52.78125 
Q 43.3125 58.59375 39.234375 62.25 
Q 35.15625 65.921875 28.609375 65.921875 
Q 23.96875 65.921875 18.8125 64.3125 
Q 13.671875 62.703125 7.8125 59.421875 
L 7.8125 69.390625 
Q 13.765625 71.78125 18.9375 73 
Q 24.125 74.21875 28.421875 74.21875 
Q 39.75 74.21875 46.484375 68.546875 
Q 53.21875 62.890625 53.21875 53.421875 
Q 53.21875 48.921875 51.53125 44.890625 
Q 49.859375 40.875 45.40625 35.40625 
Q 44.1875 33.984375 37.640625 27.21875 
Q 31.109375 20.453125 19.1875 8.296875 
" id="BitstreamVeraSans-Roman-32"/>
       <path d="M 31.78125 66.40625 
Q 24.171875 66.40625 20.328125 58.90625 
Q 16.5 51.421875 16.5 36.375 
Q 16.5 21.390625 20.328125 13.890625 
Q 24.171875 6.390625 31.78125 6.390625 
Q 39.453125 6.390625 43.28125 13.890625 
Q 47.125 21.390625 47.125 36.375 
Q 47.125 51.421875 43.28125 58.90625 
Q 39.453125 66.40625 31.78125 66.40625 
M 31.78125 74.21875 
Q 44.046875 74.21875 50.515625 64.515625 
Q 56.984375 54.828125 56.984375 36.375 
Q 56.984375 17.96875 50.515625 8.265625 
Q 44.046875 -1.421875 31.78125 -1.421875 
Q 19.53125 -1.421875 13.0625 8.265625 
Q 6.59375 17.96875 6.59375 36.375 
Q 6.59375 54.828125 13.0625 64.515625 
Q 19.53125 74.21875 31.78125 74.21875 
" id="BitstreamVeraSans-Roman-30"/>
       <path d="M 12.40625 8.296875 
L 28.515625 8.296875 
L 28.515625 63.921875 
L 10.984375 60.40625 
L 10.984375 69.390625 
L 28.421875 72.90625 
L 38.28125 72.90625 
L 38.28125 8.296875 
L 54.390625 8.296875 
L 54.390625 0 
L 12.40625 0 
z
" id="BitstreamVeraSans-Roman-31"/>
       <path d="M 31.78125 34.625 
Q 24.75 34.625 20.71875 30.859375 
Q 16.703125 27.09375 16.703125 20.515625 
Q 16.703125 13.921875 20.71875 10.15625 
Q 24.75 6.390625 31.78125 6.390625 
Q 38.8125 6.390625 42.859375 10.171875 
Q 46.921875 13.96875 46.921875 20.515625 
Q 46.921875 27.09375 42.890625 30.859375 
Q 38.875 34.625 31.78125 34.625 
M 21.921875 38.8125 
Q 15.578125 40.375 12.03125 44.71875 
Q 8.5 49.078125 8.5 55.328125 
Q 8.5 64.0625 14.71875 69.140625 
Q 20.953125 74.21875 31.78125 74.21875 
Q 42.671875 74.21875 48.875 69.140625 
Q 55.078125 64.0625 55.078125 55.328125 
Q 55.078125 49.078125 51.53125 44.71875 
Q 48 40.375 41.703125 38.8125 
Q 48.828125 37.15625 52.796875 32.3125 
Q 56.78125 27.484375 56.78125 20.515625 
Q 56.78125 9.90625 50.3125 4.234375 
Q 43.84375 -1.421875 31.78125 -1.421875 
Q 19.734375 -1.421875 13.25 4.234375 
Q 6.78125 9.90625 6.78125 20.515625 
Q 6.78125 27.484375 10.78125 32.3125 
Q 14.796875 37.15625 21.921875 38.8125 
M 18.3125 54.390625 
Q 18.3125 48.734375 21.84375 45.5625 
Q 25.390625 42.390625 31.78125 42.390625 
Q 38.140625 42.390625 41.71875 45.5625 
Q 45.3125 48.734375 45.3125 54.390625 
Q 45.3125 60.0625 41.71875 63.234375 
Q 38.140625 66.40625 31.78125 66.40625 
Q 25.390625 66.40625 21.84375 63.234375 
Q 18.3125 60.0625 18.3125 54.390625 
" id="BitstreamVeraSans-Roman-38"/>
      </defs>
      <g transform="translate(41.275 263.5984375)scale(0.1 -0.1)">
       <use xlink:href="#BitstreamVeraSans-Roman-31"/>
       <use x="63.623046875" xlink:href="#BitstreamVeraSans-Roman-30"/>
       <use x="127.24609375" xlink:href="#BitstreamVeraSans-Roman-38"/>
       <use x="190.869140625" xlink:href="#BitstreamVeraSans-Roman-32"/>
      </g>
     </g>
    </g>
    <g id="xtick_2">
     <g id="line2d_3">
      <g>
       <use style="stroke:#000000;stroke-width:0.5;" x="101.828571429" xlink:href="#m4605f6eb36" y="252.0"/>
      </g>
     </g>
     <g id="line2d_4">
      <g>
       <use style="stroke:#000000;stroke-width:0.5;" x="101.828571429" xlink:href="#m78e7cc16b7" y="28.8"/>
      </g>
     </g>
     <g id="text_2">
      <!-- 1084 -->
      <defs>
       <path d="M 37.796875 64.3125 
L 12.890625 25.390625 
L 37.796875 25.390625 
z
M 35.203125 72.90625 
L 47.609375 72.90625 
L 47.609375 25.390625 
L 58.015625 25.390625 
L 58.015625 17.1875 
L 47.609375 17.1875 
L 47.609375 0 
L 37.796875 0 
L 37.796875 17.1875 
L 4.890625 17.1875 
L 4.890625 26.703125 
z
" id="BitstreamVeraSans-Roman-34"/>
      </defs>
      <g transform="translate(89.1035714286 263.5984375)scale(0.1 -0.1)">
       <use xlink:href="#BitstreamVeraSans-Roman-31"/>
       <use x="63.623046875" xlink:href="#BitstreamVeraSans-Roman-30"/>
       <use x="127.24609375" xlink:href="#BitstreamVeraSans-Roman-38"/>
       <use x="190.869140625" xlink:href="#BitstreamVeraSans-Roman-34"/>
      </g>
     </g>
    </g>
    <g id="xtick_3">
     <g id="line2d_5">
      <g>
       <use style="stroke:#000000;stroke-width:0.5;" x="149.657142857" xlink:href="#m4605f6eb36" y="252.0"/>
      </g>
     </g>
     <g id="line2d_6">
      <g>
       <use style="stroke:#000000;stroke-width:0.5;" x="149.657142857" xlink:href="#m78e7cc16b7" y="28.8"/>
      </g>
     </g>
     <g id="text_3">
      <!-- 1086 -->
      <defs>
       <path d="M 33.015625 40.375 
Q 26.375 40.375 22.484375 35.828125 
Q 18.609375 31.296875 18.609375 23.390625 
Q 18.609375 15.53125 22.484375 10.953125 
Q 26.375 6.390625 33.015625 6.390625 
Q 39.65625 6.390625 43.53125 10.953125 
Q 47.40625 15.53125 47.40625 23.390625 
Q 47.40625 31.296875 43.53125 35.828125 
Q 39.65625 40.375 33.015625 40.375 
M 52.59375 71.296875 
L 52.59375 62.3125 
Q 48.875 64.0625 45.09375 64.984375 
Q 41.3125 65.921875 37.59375 65.921875 
Q 27.828125 65.921875 22.671875 59.328125 
Q 17.53125 52.734375 16.796875 39.40625 
Q 19.671875 43.65625 24.015625 45.921875 
Q 28.375 48.1875 33.59375 48.1875 
Q 44.578125 48.1875 50.953125 41.515625 
Q 57.328125 34.859375 57.328125 23.390625 
Q 57.328125 12.15625 50.6875 5.359375 
Q 44.046875 -1.421875 33.015625 -1.421875 
Q 20.359375 -1.421875 13.671875 8.265625 
Q 6.984375 17.96875 6.984375 36.375 
Q 6.984375 53.65625 15.1875 63.9375 
Q 23.390625 74.21875 37.203125 74.21875 
Q 40.921875 74.21875 44.703125 73.484375 
Q 48.484375 72.75 52.59375 71.296875 
" id="BitstreamVeraSans-Roman-36"/>
      </defs>
      <g transform="translate(136.932142857 263.5984375)scale(0.1 -0.1)">
       <use xlink:href="#BitstreamVeraSans-Roman-31"/>
       <use x="63.623046875" xlink:href="#BitstreamVeraSans-Roman-30"/>
       <use x="127.24609375" xlink:href="#BitstreamVeraSans-Roman-38"/>
       <use x="190.869140625" xlink:href="#BitstreamVeraSans-Roman-36"/>
      </g>
     </g>
    </g>
    <g id="xtick_4">
     <g id="line2d_7">
      <g>
       <use style="stroke:#000000;stroke-width:0.5;" x="197.485714286" xlink:href="#m4605f6eb36" y="252.0"/>
      </g>
     </g>
     <g id="line2d_8">
      <g>
       <use style="stroke:#000000;stroke-width:0.5;" x="197.485714286" xlink:href="#m78e7cc16b7" y="28.8"/>
      </g>
     </g>
     <g id="text_4">
      <!-- 1088 -->
      <g transform="translate(184.760714286 263.5984375)scale(0.1 -0.1)">
       <use xlink:href="#BitstreamVeraSans-Roman-31"/>
       <use x="63.623046875" xlink:href="#BitstreamVeraSans-Roman-30"/>
       <use x="127.24609375" xlink:href="#BitstreamVeraSans-Roman-38"/>
       <use x="190.869140625" xlink:href="#BitstreamVeraSans-Roman-38"/>
      </g>
     </g>
    </g>
    <g id="xtick_5">
     <g id="line2d_9">
      <g>
       <use style="stroke:#000000;stroke-width:0.5;" x="245.314285714" xlink:href="#m4605f6eb36" y="252.0"/>
      </g>
     </g>
     <g id="line2d_10">
      <g>
       <use style="stroke:#000000;stroke-width:0.5;" x="245.314285714" xlink:href="#m78e7cc16b7" y="28.8"/>
      </g>
     </g>
     <g id="text_5">
      <!-- 1090 -->
      <defs>
       <path d="M 10.984375 1.515625 
L 10.984375 10.5 
Q 14.703125 8.734375 18.5 7.8125 
Q 22.3125 6.890625 25.984375 6.890625 
Q 35.75 6.890625 40.890625 13.453125 
Q 46.046875 20.015625 46.78125 33.40625 
Q 43.953125 29.203125 39.59375 26.953125 
Q 35.25 24.703125 29.984375 24.703125 
Q 19.046875 24.703125 12.671875 31.3125 
Q 6.296875 37.9375 6.296875 49.421875 
Q 6.296875 60.640625 12.9375 67.421875 
Q 19.578125 74.21875 30.609375 74.21875 
Q 43.265625 74.21875 49.921875 64.515625 
Q 56.59375 54.828125 56.59375 36.375 
Q 56.59375 19.140625 48.40625 8.859375 
Q 40.234375 -1.421875 26.421875 -1.421875 
Q 22.703125 -1.421875 18.890625 -0.6875 
Q 15.09375 0.046875 10.984375 1.515625 
M 30.609375 32.421875 
Q 37.25 32.421875 41.125 36.953125 
Q 45.015625 41.5 45.015625 49.421875 
Q 45.015625 57.28125 41.125 61.84375 
Q 37.25 66.40625 30.609375 66.40625 
Q 23.96875 66.40625 20.09375 61.84375 
Q 16.21875 57.28125 16.21875 49.421875 
Q 16.21875 41.5 20.09375 36.953125 
Q 23.96875 32.421875 30.609375 32.421875 
" id="BitstreamVeraSans-Roman-39"/>
      </defs>
      <g transform="translate(232.589285714 263.5984375)scale(0.1 -0.1)">
       <use xlink:href="#BitstreamVeraSans-Roman-31"/>
       <use x="63.623046875" xlink:href="#BitstreamVeraSans-Roman-30"/>
       <use x="127.24609375" xlink:href="#BitstreamVeraSans-Roman-39"/>
       <use x="190.869140625" xlink:href="#BitstreamVeraSans-Roman-30"/>
      </g>
     </g>
    </g>
    <g id="xtick_6">
     <g id="line2d_11">
      <g>
       <use style="stroke:#000000;stroke-width:0.5;" x="293.142857143" xlink:href="#m4605f6eb36" y="252.0"/>
      </g>
     </g>
     <g id="line2d_12">
      <g>
       <use style="stroke:#000000;stroke-width:0.5;" x="293.142857143" xlink:href="#m78e7cc16b7" y="28.8"/>
      </g>
     </g>
     <g id="text_6">
      <!-- 1092 -->
      <g transform="translate(280.417857143 263.5984375)scale(0.1 -0.1)">
       <use xlink:href="#BitstreamVeraSans-Roman-31"/>
       <use x="63.623046875" xlink:href="#BitstreamVeraSans-Roman-30"/>
       <use x="127.24609375" xlink:href="#BitstreamVeraSans-Roman-39"/>
       <use x="190.869140625" xlink:href="#BitstreamVeraSans-Roman-32"/>
      </g>
     </g>
    </g>
    <g id="xtick_7">
     <g id="line2d_13">
      <g>
       <use style="stroke:#000000;stroke-width:0.5;" x="340.971428571" xlink:href="#m4605f6eb36" y="252.0"/>
      </g>
     </g>
     <g id="line2d_14">
      <g>
       <use style="stroke:#000000;stroke-width:0.5;" x="340.971428571" xlink:href="#m78e7cc16b7" y="28.8"/>
      </g>
     </g>
     <g id="text_7">
      <!-- 1094 -->
      <g transform="translate(328.246428571 263.5984375)scale(0.1 -0.1)">
       <use xlink:href="#BitstreamVeraSans-Roman-31"/>
       <use x="63.623046875" xlink:href="#BitstreamVeraSans-Roman-30"/>
       <use x="127.24609375" xlink:href="#BitstreamVeraSans-Roman-39"/>
       <use x="190.869140625" xlink:href="#BitstreamVeraSans-Roman-34"/>
      </g>
     </g>
    </g>
    <g id="xtick_8">
     <g id="line2d_15">
      <g>
       <use style="stroke:#000000;stroke-width:0.5;" x="388.8" xlink:href="#m4605f6eb36" y="252.0"/>
      </g>
     </g>
     <g id="line2d_16">
      <g>
       <use style="stroke:#000000;stroke-width:0.5;" x="388.8" xlink:href="#m78e7cc16b7" y="28.8"/>
      </g>
     </g>
     <g id="text_8">
      <!-- 1096 -->
      <g transform="translate(376.075 263.5984375)scale(0.1 -0.1)">
       <use xlink:href="#BitstreamVeraSans-Roman-31"/>
       <use x="63.623046875" xlink:href="#BitstreamVeraSans-Roman-30"/>
       <use x="127.24609375" xlink:href="#BitstreamVeraSans-Roman-39"/>
       <use x="190.869140625" xlink:href="#BitstreamVeraSans-Roman-36"/>
      </g>
     </g>
    </g>
    <g id="text_9">
     <!-- Age (Ma) -->
     <defs>
      <path id="BitstreamVeraSans-Roman-20"/>
      <path d="M 9.8125 72.90625 
L 24.515625 72.90625 
L 43.109375 23.296875 
L 61.8125 72.90625 
L 76.515625 72.90625 
L 76.515625 0 
L 66.890625 0 
L 66.890625 64.015625 
L 48.09375 14.015625 
L 38.1875 14.015625 
L 19.390625 64.015625 
L 19.390625 0 
L 9.8125 0 
z
" id="BitstreamVeraSans-Roman-4d"/>
      <path d="M 8.015625 75.875 
L 15.828125 75.875 
Q 23.140625 64.359375 26.78125 53.3125 
Q 30.421875 42.28125 30.421875 31.390625 
Q 30.421875 20.453125 26.78125 9.375 
Q 23.140625 -1.703125 15.828125 -13.1875 
L 8.015625 -13.1875 
Q 14.5 -2 17.703125 9.0625 
Q 20.90625 20.125 20.90625 31.390625 
Q 20.90625 42.671875 17.703125 53.65625 
Q 14.5 64.65625 8.015625 75.875 
" id="BitstreamVeraSans-Roman-29"/>
      <path d="M 31 75.875 
Q 24.46875 64.65625 21.28125 53.65625 
Q 18.109375 42.671875 18.109375 31.390625 
Q 18.109375 20.125 21.3125 9.0625 
Q 24.515625 -2 31 -13.1875 
L 23.1875 -13.1875 
Q 15.875 -1.703125 12.234375 9.375 
Q 8.59375 20.453125 8.59375 31.390625 
Q 8.59375 42.28125 12.203125 53.3125 
Q 15.828125 64.359375 23.1875 75.875 
z
" id="BitstreamVeraSans-Roman-28"/>
      <path d="M 34.1875 63.1875 
L 20.796875 26.90625 
L 47.609375 26.90625 
z
M 28.609375 72.90625 
L 39.796875 72.90625 
L 67.578125 0 
L 57.328125 0 
L 50.6875 18.703125 
L 17.828125 18.703125 
L 11.1875 0 
L 0.78125 0 
z
" id="BitstreamVeraSans-Roman-41"/>
      <path d="M 56.203125 29.59375 
L 56.203125 25.203125 
L 14.890625 25.203125 
Q 15.484375 15.921875 20.484375 11.0625 
Q 25.484375 6.203125 34.421875 6.203125 
Q 39.59375 6.203125 44.453125 7.46875 
Q 49.3125 8.734375 54.109375 11.28125 
L 54.109375 2.78125 
Q 49.265625 0.734375 44.1875 -0.34375 
Q 39.109375 -1.421875 33.890625 -1.421875 
Q 20.796875 -1.421875 13.15625 6.1875 
Q 5.515625 13.8125 5.515625 26.8125 
Q 5.515625 40.234375 12.765625 48.109375 
Q 20.015625 56 32.328125 56 
Q 43.359375 56 49.78125 48.890625 
Q 56.203125 41.796875 56.203125 29.59375 
M 47.21875 32.234375 
Q 47.125 39.59375 43.09375 43.984375 
Q 39.0625 48.390625 32.421875 48.390625 
Q 24.90625 48.390625 20.390625 44.140625 
Q 15.875 39.890625 15.1875 32.171875 
z
" id="BitstreamVeraSans-Roman-65"/>
      <path d="M 45.40625 27.984375 
Q 45.40625 37.75 41.375 43.109375 
Q 37.359375 48.484375 30.078125 48.484375 
Q 22.859375 48.484375 18.828125 43.109375 
Q 14.796875 37.75 14.796875 27.984375 
Q 14.796875 18.265625 18.828125 12.890625 
Q 22.859375 7.515625 30.078125 7.515625 
Q 37.359375 7.515625 41.375 12.890625 
Q 45.40625 18.265625 45.40625 27.984375 
M 54.390625 6.78125 
Q 54.390625 -7.171875 48.1875 -13.984375 
Q 42 -20.796875 29.203125 -20.796875 
Q 24.46875 -20.796875 20.265625 -20.09375 
Q 16.0625 -19.390625 12.109375 -17.921875 
L 12.109375 -9.1875 
Q 16.0625 -11.328125 19.921875 -12.34375 
Q 23.78125 -13.375 27.78125 -13.375 
Q 36.625 -13.375 41.015625 -8.765625 
Q 45.40625 -4.15625 45.40625 5.171875 
L 45.40625 9.625 
Q 42.625 4.78125 38.28125 2.390625 
Q 33.9375 0 27.875 0 
Q 17.828125 0 11.671875 7.65625 
Q 5.515625 15.328125 5.515625 27.984375 
Q 5.515625 40.671875 11.671875 48.328125 
Q 17.828125 56 27.875 56 
Q 33.9375 56 38.28125 53.609375 
Q 42.625 51.21875 45.40625 46.390625 
L 45.40625 54.6875 
L 54.390625 54.6875 
z
" id="BitstreamVeraSans-Roman-67"/>
      <path d="M 34.28125 27.484375 
Q 23.390625 27.484375 19.1875 25 
Q 14.984375 22.515625 14.984375 16.5 
Q 14.984375 11.71875 18.140625 8.90625 
Q 21.296875 6.109375 26.703125 6.109375 
Q 34.1875 6.109375 38.703125 11.40625 
Q 43.21875 16.703125 43.21875 25.484375 
L 43.21875 27.484375 
z
M 52.203125 31.203125 
L 52.203125 0 
L 43.21875 0 
L 43.21875 8.296875 
Q 40.140625 3.328125 35.546875 0.953125 
Q 30.953125 -1.421875 24.3125 -1.421875 
Q 15.921875 -1.421875 10.953125 3.296875 
Q 6 8.015625 6 15.921875 
Q 6 25.140625 12.171875 29.828125 
Q 18.359375 34.515625 30.609375 34.515625 
L 43.21875 34.515625 
L 43.21875 35.40625 
Q 43.21875 41.609375 39.140625 45 
Q 35.0625 48.390625 27.6875 48.390625 
Q 23 48.390625 18.546875 47.265625 
Q 14.109375 46.140625 10.015625 43.890625 
L 10.015625 52.203125 
Q 14.9375 54.109375 19.578125 55.046875 
Q 24.21875 56 28.609375 56 
Q 40.484375 56 46.34375 49.84375 
Q 52.203125 43.703125 52.203125 31.203125 
" id="BitstreamVeraSans-Roman-61"/>
     </defs>
     <g transform="translate(198.86015625 278.2765625)scale(0.1 -0.1)">
      <use xlink:href="#BitstreamVeraSans-Roman-41"/>
      <use x="68.408203125" xlink:href="#BitstreamVeraSans-Roman-67"/>
      <use x="131.884765625" xlink:href="#BitstreamVeraSans-Roman-65"/>
      <use x="193.408203125" xlink:href="#BitstreamVeraSans-Roman-20"/>
      <use x="225.1953125" xlink:href="#BitstreamVeraSans-Roman-28"/>
      <use x="264.208984375" xlink:href="#BitstreamVeraSans-Roman-4d"/>
      <use x="350.48828125" xlink:href="#BitstreamVeraSans-Roman-61"/>
      <use x="411.767578125" xlink:href="#BitstreamVeraSans-Roman-29"/>
     </g>
    </g>
   </g>
   <g id="matplotlib.axis_2">
    <g id="ytick_1">
     <g id="line2d_17">
      <defs>
       <path d="M 0 0 
L 4 0 
" id="m49aeec266f" style="stroke:#000000;stroke-width:0.5;"/>
      </defs>
      <g>
       <use style="stroke:#000000;stroke-width:0.5;" x="54.0" xlink:href="#m49aeec266f" y="252.0"/>
      </g>
     </g>
     <g id="line2d_18">
      <defs>
       <path d="M 0 0 
L -4 0 
" id="m6f1b3e272b" style="stroke:#000000;stroke-width:0.5;"/>
      </defs>
      <g>
       <use style="stroke:#000000;stroke-width:0.5;" x="388.8" xlink:href="#m6f1b3e272b" y="252.0"/>
      </g>
     </g>
     <g id="text_10">
      <!-- 0 -->
      <g transform="translate(43.6375 254.759375)scale(0.1 -0.1)">
       <use xlink:href="#BitstreamVeraSans-Roman-30"/>
      </g>
     </g>
    </g>
    <g id="ytick_2">
     <g id="line2d_19">
      <g>
       <use style="stroke:#000000;stroke-width:0.5;" x="54.0" xlink:href="#m49aeec266f" y="224.1"/>
      </g>
     </g>
     <g id="line2d_20">
      <g>
       <use style="stroke:#000000;stroke-width:0.5;" x="388.8" xlink:href="#m6f1b3e272b" y="224.1"/>
      </g>
     </g>
     <g id="text_11">
      <!-- 500 -->
      <defs>
       <path d="M 10.796875 72.90625 
L 49.515625 72.90625 
L 49.515625 64.59375 
L 19.828125 64.59375 
L 19.828125 46.734375 
Q 21.96875 47.46875 24.109375 47.828125 
Q 26.265625 48.1875 28.421875 48.1875 
Q 40.625 48.1875 47.75 41.5 
Q 54.890625 34.8125 54.890625 23.390625 
Q 54.890625 11.625 47.5625 5.09375 
Q 40.234375 -1.421875 26.90625 -1.421875 
Q 22.3125 -1.421875 17.546875 -0.640625 
Q 12.796875 0.140625 7.71875 1.703125 
L 7.71875 11.625 
Q 12.109375 9.234375 16.796875 8.0625 
Q 21.484375 6.890625 26.703125 6.890625 
Q 35.15625 6.890625 40.078125 11.328125 
Q 45.015625 15.765625 45.015625 23.390625 
Q 45.015625 31 40.078125 35.4375 
Q 35.15625 39.890625 26.703125 39.890625 
Q 22.75 39.890625 18.8125 39.015625 
Q 14.890625 38.140625 10.796875 36.28125 
z
" id="BitstreamVeraSans-Roman-35"/>
      </defs>
      <g transform="translate(30.9125 226.859375)scale(0.1 -0.1)">
       <use xlink:href="#BitstreamVeraSans-Roman-35"/>
       <use x="63.623046875" xlink:href="#BitstreamVeraSans-Roman-30"/>
       <use x="127.24609375" xlink:href="#BitstreamVeraSans-Roman-30"/>
      </g>
     </g>
    </g>
    <g id="ytick_3">
     <g id="line2d_21">
      <g>
       <use style="stroke:#000000;stroke-width:0.5;" x="54.0" xlink:href="#m49aeec266f" y="196.2"/>
      </g>
     </g>
     <g id="line2d_22">
      <g>
       <use style="stroke:#000000;stroke-width:0.5;" x="388.8" xlink:href="#m6f1b3e272b" y="196.2"/>
      </g>
     </g>
     <g id="text_12">
      <!-- 1000 -->
      <g transform="translate(24.55 198.959375)scale(0.1 -0.1)">
       <use xlink:href="#BitstreamVeraSans-Roman-31"/>
       <use x="63.623046875" xlink:href="#BitstreamVeraSans-Roman-30"/>
       <use x="127.24609375" xlink:href="#BitstreamVeraSans-Roman-30"/>
       <use x="190.869140625" xlink:href="#BitstreamVeraSans-Roman-30"/>
      </g>
     </g>
    </g>
    <g id="ytick_4">
     <g id="line2d_23">
      <g>
       <use style="stroke:#000000;stroke-width:0.5;" x="54.0" xlink:href="#m49aeec266f" y="168.3"/>
      </g>
     </g>
     <g id="line2d_24">
      <g>
       <use style="stroke:#000000;stroke-width:0.5;" x="388.8" xlink:href="#m6f1b3e272b" y="168.3"/>
      </g>
     </g>
     <g id="text_13">
      <!-- 1500 -->
      <g transform="translate(24.55 171.059375)scale(0.1 -0.1)">
       <use xlink:href="#BitstreamVeraSans-Roman-31"/>
       <use x="63.623046875" xlink:href="#BitstreamVeraSans-Roman-35"/>
       <use x="127.24609375" xlink:href="#BitstreamVeraSans-Roman-30"/>
       <use x="190.869140625" xlink:href="#BitstreamVeraSans-Roman-30"/>
      </g>
     </g>
    </g>
    <g id="ytick_5">
     <g id="line2d_25">
      <g>
       <use style="stroke:#000000;stroke-width:0.5;" x="54.0" xlink:href="#m49aeec266f" y="140.4"/>
      </g>
     </g>
     <g id="line2d_26">
      <g>
       <use style="stroke:#000000;stroke-width:0.5;" x="388.8" xlink:href="#m6f1b3e272b" y="140.4"/>
      </g>
     </g>
     <g id="text_14">
      <!-- 2000 -->
      <g transform="translate(24.55 143.159375)scale(0.1 -0.1)">
       <use xlink:href="#BitstreamVeraSans-Roman-32"/>
       <use x="63.623046875" xlink:href="#BitstreamVeraSans-Roman-30"/>
       <use x="127.24609375" xlink:href="#BitstreamVeraSans-Roman-30"/>
       <use x="190.869140625" xlink:href="#BitstreamVeraSans-Roman-30"/>
      </g>
     </g>
    </g>
    <g id="ytick_6">
     <g id="line2d_27">
      <g>
       <use style="stroke:#000000;stroke-width:0.5;" x="54.0" xlink:href="#m49aeec266f" y="112.5"/>
      </g>
     </g>
     <g id="line2d_28">
      <g>
       <use style="stroke:#000000;stroke-width:0.5;" x="388.8" xlink:href="#m6f1b3e272b" y="112.5"/>
      </g>
     </g>
     <g id="text_15">
      <!-- 2500 -->
      <g transform="translate(24.55 115.259375)scale(0.1 -0.1)">
       <use xlink:href="#BitstreamVeraSans-Roman-32"/>
       <use x="63.623046875" xlink:href="#BitstreamVeraSans-Roman-35"/>
       <use x="127.24609375" xlink:href="#BitstreamVeraSans-Roman-30"/>
       <use x="190.869140625" xlink:href="#BitstreamVeraSans-Roman-30"/>
      </g>
     </g>
    </g>
    <g id="ytick_7">
     <g id="line2d_29">
      <g>
       <use style="stroke:#000000;stroke-width:0.5;" x="54.0" xlink:href="#m49aeec266f" y="84.6"/>
      </g>
     </g>
     <g id="line2d_30">
      <g>
       <use style="stroke:#000000;stroke-width:0.5;" x="388.8" xlink:href="#m6f1b3e272b" y="84.6"/>
      </g>
     </g>
     <g id="text_16">
      <!-- 3000 -->
      <defs>
       <path d="M 40.578125 39.3125 
Q 47.65625 37.796875 51.625 33 
Q 55.609375 28.21875 55.609375 21.1875 
Q 55.609375 10.40625 48.1875 4.484375 
Q 40.765625 -1.421875 27.09375 -1.421875 
Q 22.515625 -1.421875 17.65625 -0.515625 
Q 12.796875 0.390625 7.625 2.203125 
L 7.625 11.71875 
Q 11.71875 9.328125 16.59375 8.109375 
Q 21.484375 6.890625 26.8125 6.890625 
Q 36.078125 6.890625 40.9375 10.546875 
Q 45.796875 14.203125 45.796875 21.1875 
Q 45.796875 27.640625 41.28125 31.265625 
Q 36.765625 34.90625 28.71875 34.90625 
L 20.21875 34.90625 
L 20.21875 43.015625 
L 29.109375 43.015625 
Q 36.375 43.015625 40.234375 45.921875 
Q 44.09375 48.828125 44.09375 54.296875 
Q 44.09375 59.90625 40.109375 62.90625 
Q 36.140625 65.921875 28.71875 65.921875 
Q 24.65625 65.921875 20.015625 65.03125 
Q 15.375 64.15625 9.8125 62.3125 
L 9.8125 71.09375 
Q 15.4375 72.65625 20.34375 73.4375 
Q 25.25 74.21875 29.59375 74.21875 
Q 40.828125 74.21875 47.359375 69.109375 
Q 53.90625 64.015625 53.90625 55.328125 
Q 53.90625 49.265625 50.4375 45.09375 
Q 46.96875 40.921875 40.578125 39.3125 
" id="BitstreamVeraSans-Roman-33"/>
      </defs>
      <g transform="translate(24.55 87.359375)scale(0.1 -0.1)">
       <use xlink:href="#BitstreamVeraSans-Roman-33"/>
       <use x="63.623046875" xlink:href="#BitstreamVeraSans-Roman-30"/>
       <use x="127.24609375" xlink:href="#BitstreamVeraSans-Roman-30"/>
       <use x="190.869140625" xlink:href="#BitstreamVeraSans-Roman-30"/>
      </g>
     </g>
    </g>
    <g id="ytick_8">
     <g id="line2d_31">
      <g>
       <use style="stroke:#000000;stroke-width:0.5;" x="54.0" xlink:href="#m49aeec266f" y="56.7"/>
      </g>
     </g>
     <g id="line2d_32">
      <g>
       <use style="stroke:#000000;stroke-width:0.5;" x="388.8" xlink:href="#m6f1b3e272b" y="56.7"/>
      </g>
     </g>
     <g id="text_17">
      <!-- 3500 -->
      <g transform="translate(24.55 59.459375)scale(0.1 -0.1)">
       <use xlink:href="#BitstreamVeraSans-Roman-33"/>
       <use x="63.623046875" xlink:href="#BitstreamVeraSans-Roman-35"/>
       <use x="127.24609375" xlink:href="#BitstreamVeraSans-Roman-30"/>
       <use x="190.869140625" xlink:href="#BitstreamVeraSans-Roman-30"/>
      </g>
     </g>
    </g>
    <g id="ytick_9">
     <g id="line2d_33">
      <g>
       <use style="stroke:#000000;stroke-width:0.5;" x="54.0" xlink:href="#m49aeec266f" y="28.8"/>
      </g>
     </g>
     <g id="line2d_34">
      <g>
       <use style="stroke:#000000;stroke-width:0.5;" x="388.8" xlink:href="#m6f1b3e272b" y="28.8"/>
      </g>
     </g>
     <g id="text_18">
      <!-- 4000 -->
      <g transform="translate(24.55 31.559375)scale(0.1 -0.1)">
       <use xlink:href="#BitstreamVeraSans-Roman-34"/>
       <use x="63.623046875" xlink:href="#BitstreamVeraSans-Roman-30"/>
       <use x="127.24609375" xlink:href="#BitstreamVeraSans-Roman-30"/>
       <use x="190.869140625" xlink:href="#BitstreamVeraSans-Roman-30"/>
      </g>
     </g>
    </g>
    <g id="text_19">
     <!-- n -->
     <defs>
      <path d="M 54.890625 33.015625 
L 54.890625 0 
L 45.90625 0 
L 45.90625 32.71875 
Q 45.90625 40.484375 42.875 44.328125 
Q 39.84375 48.1875 33.796875 48.1875 
Q 26.515625 48.1875 22.3125 43.546875 
Q 18.109375 38.921875 18.109375 30.90625 
L 18.109375 0 
L 9.078125 0 
L 9.078125 54.6875 
L 18.109375 54.6875 
L 18.109375 46.1875 
Q 21.34375 51.125 25.703125 53.5625 
Q 30.078125 56 35.796875 56 
Q 45.21875 56 50.046875 50.171875 
Q 54.890625 44.34375 54.890625 33.015625 
" id="BitstreamVeraSans-Roman-6e"/>
     </defs>
     <g transform="translate(17.4703125 143.56875)rotate(-90.0)scale(0.1 -0.1)">
      <use xlink:href="#BitstreamVeraSans-Roman-6e"/>
     </g>
    </g>
   </g>
   <g id="legend_1">
    <g id="patch_9">
     <path d="M 60 246 
L 172.359375 246 
L 172.359375 207.1725 
L 60 207.1725 
z
" style="fill:#ffffff;stroke:#000000;stroke-linejoin:miter;"/>
    </g>
    <g id="patch_10">
     <path d="M 64.8 221.090625 
L 88.8 221.090625 
L 88.8 212.690625 
L 64.8 212.690625 
z
" style="fill:#8b0000;stroke:#000000;stroke-linejoin:miter;"/>
    </g>
    <g id="text_20">
     <!-- Pole 1 ages -->
     <defs>
      <path d="M 19.671875 64.796875 
L 19.671875 37.40625 
L 32.078125 37.40625 
Q 38.96875 37.40625 42.71875 40.96875 
Q 46.484375 44.53125 46.484375 51.125 
Q 46.484375 57.671875 42.71875 61.234375 
Q 38.96875 64.796875 32.078125 64.796875 
z
M 9.8125 72.90625 
L 32.078125 72.90625 
Q 44.34375 72.90625 50.609375 67.359375 
Q 56.890625 61.8125 56.890625 51.125 
Q 56.890625 40.328125 50.609375 34.8125 
Q 44.34375 29.296875 32.078125 29.296875 
L 19.671875 29.296875 
L 19.671875 0 
L 9.8125 0 
z
" id="BitstreamVeraSans-Roman-50"/>
      <path d="M 30.609375 48.390625 
Q 23.390625 48.390625 19.1875 42.75 
Q 14.984375 37.109375 14.984375 27.296875 
Q 14.984375 17.484375 19.15625 11.84375 
Q 23.34375 6.203125 30.609375 6.203125 
Q 37.796875 6.203125 41.984375 11.859375 
Q 46.1875 17.53125 46.1875 27.296875 
Q 46.1875 37.015625 41.984375 42.703125 
Q 37.796875 48.390625 30.609375 48.390625 
M 30.609375 56 
Q 42.328125 56 49.015625 48.375 
Q 55.71875 40.765625 55.71875 27.296875 
Q 55.71875 13.875 49.015625 6.21875 
Q 42.328125 -1.421875 30.609375 -1.421875 
Q 18.84375 -1.421875 12.171875 6.21875 
Q 5.515625 13.875 5.515625 27.296875 
Q 5.515625 40.765625 12.171875 48.375 
Q 18.84375 56 30.609375 56 
" id="BitstreamVeraSans-Roman-6f"/>
      <path d="M 44.28125 53.078125 
L 44.28125 44.578125 
Q 40.484375 46.53125 36.375 47.5 
Q 32.28125 48.484375 27.875 48.484375 
Q 21.1875 48.484375 17.84375 46.4375 
Q 14.5 44.390625 14.5 40.28125 
Q 14.5 37.15625 16.890625 35.375 
Q 19.28125 33.59375 26.515625 31.984375 
L 29.59375 31.296875 
Q 39.15625 29.25 43.1875 25.515625 
Q 47.21875 21.78125 47.21875 15.09375 
Q 47.21875 7.46875 41.1875 3.015625 
Q 35.15625 -1.421875 24.609375 -1.421875 
Q 20.21875 -1.421875 15.453125 -0.5625 
Q 10.6875 0.296875 5.421875 2 
L 5.421875 11.28125 
Q 10.40625 8.6875 15.234375 7.390625 
Q 20.0625 6.109375 24.8125 6.109375 
Q 31.15625 6.109375 34.5625 8.28125 
Q 37.984375 10.453125 37.984375 14.40625 
Q 37.984375 18.0625 35.515625 20.015625 
Q 33.0625 21.96875 24.703125 23.78125 
L 21.578125 24.515625 
Q 13.234375 26.265625 9.515625 29.90625 
Q 5.8125 33.546875 5.8125 39.890625 
Q 5.8125 47.609375 11.28125 51.796875 
Q 16.75 56 26.8125 56 
Q 31.78125 56 36.171875 55.265625 
Q 40.578125 54.546875 44.28125 53.078125 
" id="BitstreamVeraSans-Roman-73"/>
      <path d="M 9.421875 75.984375 
L 18.40625 75.984375 
L 18.40625 0 
L 9.421875 0 
z
" id="BitstreamVeraSans-Roman-6c"/>
     </defs>
     <g transform="translate(98.4 221.090625)scale(0.12 -0.12)">
      <use xlink:href="#BitstreamVeraSans-Roman-50"/>
      <use x="60.255859375" xlink:href="#BitstreamVeraSans-Roman-6f"/>
      <use x="121.4375" xlink:href="#BitstreamVeraSans-Roman-6c"/>
      <use x="149.220703125" xlink:href="#BitstreamVeraSans-Roman-65"/>
      <use x="210.744140625" xlink:href="#BitstreamVeraSans-Roman-20"/>
      <use x="242.53125" xlink:href="#BitstreamVeraSans-Roman-31"/>
      <use x="306.154296875" xlink:href="#BitstreamVeraSans-Roman-20"/>
      <use x="337.94140625" xlink:href="#BitstreamVeraSans-Roman-61"/>
      <use x="399.220703125" xlink:href="#BitstreamVeraSans-Roman-67"/>
      <use x="462.697265625" xlink:href="#BitstreamVeraSans-Roman-65"/>
      <use x="524.220703125" xlink:href="#BitstreamVeraSans-Roman-73"/>
     </g>
    </g>
    <g id="patch_11">
     <path d="M 64.8 238.704375 
L 88.8 238.704375 
L 88.8 230.304375 
L 64.8 230.304375 
z
" style="fill:#00008b;stroke:#000000;stroke-linejoin:miter;"/>
    </g>
    <g id="text_21">
     <!-- Pole 2 ages -->
     <g transform="translate(98.4 238.704375)scale(0.12 -0.12)">
      <use xlink:href="#BitstreamVeraSans-Roman-50"/>
      <use x="60.255859375" xlink:href="#BitstreamVeraSans-Roman-6f"/>
      <use x="121.4375" xlink:href="#BitstreamVeraSans-Roman-6c"/>
      <use x="149.220703125" xlink:href="#BitstreamVeraSans-Roman-65"/>
      <use x="210.744140625" xlink:href="#BitstreamVeraSans-Roman-20"/>
      <use x="242.53125" xlink:href="#BitstreamVeraSans-Roman-32"/>
      <use x="306.154296875" xlink:href="#BitstreamVeraSans-Roman-20"/>
      <use x="337.94140625" xlink:href="#BitstreamVeraSans-Roman-61"/>
      <use x="399.220703125" xlink:href="#BitstreamVeraSans-Roman-67"/>
      <use x="462.697265625" xlink:href="#BitstreamVeraSans-Roman-65"/>
      <use x="524.220703125" xlink:href="#BitstreamVeraSans-Roman-73"/>
     </g>
    </g>
   </g>
  </g>
 </g>
 <defs>
  <clipPath id="p5041559a52">
   <rect height="223.2" width="334.8" x="54.0" y="28.8"/>
  </clipPath>
 </defs>
</svg>
