<?xml version="1.0" encoding="utf-8" standalone="no"?>
<!DOCTYPE svg PUBLIC "-//W3C//DTD SVG 1.1//EN"
  "http://www.w3.org/Graphics/SVG/1.1/DTD/svg11.dtd">
<!-- Created with matplotlib (http://matplotlib.org/) -->
<svg height="288pt" version="1.1" viewBox="0 0 432 288" width="432pt" xmlns="http://www.w3.org/2000/svg" xmlns:xlink="http://www.w3.org/1999/xlink">
 <defs>
  <style type="text/css">
*{stroke-linecap:butt;stroke-linejoin:round;stroke-miterlimit:100000;}
  </style>
 </defs>
 <g id="figure_1">
  <g id="patch_1">
   <path d="M 0 288 
L 432 288 
L 432 0 
L 0 0 
z
" style="fill:#ffffff;"/>
  </g>
  <g id="axes_1">
   <g id="patch_2">
    <path d="M 54 252 
L 388.8 252 
L 388.8 28.8 
L 54 28.8 
z
" style="fill:#ffffff;"/>
   </g>
   <g id="patch_3">
    <path clip-path="url(#p4813272e91)" d="M 247.912952 252 
L 247.912952 251.9442 
L 248.911558 251.9442 
L 248.911558 252 
L 249.910164 252 
L 249.910164 252 
L 250.90877 252 
L 250.90877 251.8884 
L 251.907376 251.8884 
L 251.907376 251.8326 
L 252.905982 251.8326 
L 252.905982 251.8884 
L 253.904587 251.8884 
L 253.904587 251.9442 
L 254.903193 251.9442 
L 254.903193 251.7768 
L 255.901799 251.7768 
L 255.901799 251.721 
L 256.900405 251.721 
L 256.900405 251.6652 
L 257.899011 251.6652 
L 257.899011 251.442 
L 258.897617 251.442 
L 258.897617 251.3304 
L 259.896223 251.3304 
L 259.896223 250.7166 
L 260.894829 250.7166 
L 260.894829 250.4934 
L 261.893434 250.4934 
L 261.893434 249.9912 
L 262.89204 249.9912 
L 262.89204 249.489 
L 263.890646 249.489 
L 263.890646 249.21 
L 264.889252 249.21 
L 264.889252 248.2614 
L 265.887858 248.2614 
L 265.887858 246.6432 
L 266.886464 246.6432 
L 266.886464 245.4156 
L 267.88507 245.4156 
L 267.88507 243.8532 
L 268.883676 243.8532 
L 268.883676 240.7284 
L 269.882281 240.7284 
L 269.882281 239.3892 
L 270.880887 239.3892 
L 270.880887 236.934 
L 271.879493 236.934 
L 271.879493 230.1264 
L 272.878099 230.1264 
L 272.878099 226.8342 
L 273.876705 226.8342 
L 273.876705 222.0354 
L 274.875311 222.0354 
L 274.875311 215.5626 
L 275.873917 215.5626 
L 275.873917 209.034 
L 276.872522 209.034 
L 276.872522 202.1706 
L 277.871128 202.1706 
L 277.871128 196.2 
L 278.869734 196.2 
L 278.869734 192.2382 
L 279.86834 192.2382 
L 279.86834 177.3954 
L 280.866946 177.3954 
L 280.866946 167.9094 
L 281.865552 167.9094 
L 281.865552 159.4836 
L 282.864158 159.4836 
L 282.864158 150.1092 
L 283.862764 150.1092 
L 283.862764 136.4382 
L 284.861369 136.4382 
L 284.861369 125.2782 
L 285.859975 125.2782 
L 285.859975 124.1622 
L 286.858581 124.1622 
L 286.858581 103.9626 
L 287.857187 103.9626 
L 287.857187 90.3474 
L 288.855793 90.3474 
L 288.855793 82.926 
L 289.854399 82.926 
L 289.854399 79.02 
L 290.853005 79.02 
L 290.853005 58.7646 
L 291.851611 58.7646 
L 291.851611 58.7646 
L 292.850216 58.7646 
L 292.850216 57.8718 
L 293.848822 57.8718 
L 293.848822 53.7984 
L 294.847428 53.7984 
L 294.847428 51.0642 
L 295.846034 51.0642 
L 295.846034 45.5958 
L 296.84464 45.5958 
L 296.84464 45.4842 
L 297.843246 45.4842 
L 297.843246 60.048 
L 298.841852 60.048 
L 298.841852 59.211 
L 299.840458 59.211 
L 299.840458 66.9672 
L 300.839063 66.9672 
L 300.839063 70.7616 
L 301.837669 70.7616 
L 301.837669 83.0934 
L 302.836275 83.0934 
L 302.836275 90.0684 
L 303.834881 90.0684 
L 303.834881 99.8334 
L 304.833487 99.8334 
L 304.833487 112.3884 
L 305.832093 112.3884 
L 305.832093 119.475 
L 306.830699 119.475 
L 306.830699 135.0432 
L 307.829305 135.0432 
L 307.829305 145.0872 
L 308.82791 145.0872 
L 308.82791 153.6804 
L 309.826516 153.6804 
L 309.826516 160.2648 
L 310.825122 160.2648 
L 310.825122 173.3778 
L 311.823728 173.3778 
L 311.823728 186.714 
L 312.822334 186.714 
L 312.822334 193.3542 
L 313.82094 193.3542 
L 313.82094 200.3292 
L 314.819546 200.3292 
L 314.819546 206.7462 
L 315.818152 206.7462 
L 315.818152 216.288 
L 316.816757 216.288 
L 316.816757 222.9282 
L 317.815363 222.9282 
L 317.815363 226.4436 
L 318.813969 226.4436 
L 318.813969 228.8988 
L 319.812575 228.8988 
L 319.812575 235.1484 
L 320.811181 235.1484 
L 320.811181 237.492 
L 321.809787 237.492 
L 321.809787 241.1748 
L 322.808393 241.1748 
L 322.808393 243.5184 
L 323.806999 243.5184 
L 323.806999 244.2996 
L 324.805604 244.2996 
L 324.805604 247.2012 
L 325.80421 247.2012 
L 325.80421 247.4802 
L 326.802816 247.4802 
L 326.802816 248.652 
L 327.801422 248.652 
L 327.801422 248.7636 
L 328.800028 248.7636 
L 328.800028 250.4934 
L 329.798634 250.4934 
L 329.798634 250.8282 
L 330.79724 250.8282 
L 330.79724 250.7166 
L 331.795846 250.7166 
L 331.795846 250.3818 
L 332.794451 250.3818 
L 332.794451 251.442 
L 333.793057 251.442 
L 333.793057 251.721 
L 334.791663 251.721 
L 334.791663 251.6094 
L 335.790269 251.6094 
L 335.790269 251.6652 
L 336.788875 251.6652 
L 336.788875 251.9442 
L 337.787481 251.9442 
L 337.787481 251.721 
L 338.786087 251.721 
L 338.786087 252 
L 339.784693 252 
L 339.784693 251.8884 
L 340.783298 251.8884 
L 340.783298 251.8884 
L 341.781904 251.8884 
L 341.781904 251.9442 
L 342.78051 251.9442 
L 342.78051 252 
L 343.779116 252 
L 343.779116 252 
L 344.777722 252 
L 344.777722 251.9442 
L 345.776328 251.9442 
L 345.776328 252 
L 346.774934 252 
L 346.774934 251.9442 
L 347.773539 251.9442 
L 347.773539 252 
L 346.774934 252 
L 346.774934 252 
L 345.776328 252 
L 345.776328 252 
L 344.777722 252 
L 344.777722 252 
L 343.779116 252 
L 343.779116 252 
L 342.78051 252 
L 342.78051 252 
L 341.781904 252 
L 341.781904 252 
L 340.783298 252 
L 340.783298 252 
L 339.784693 252 
L 339.784693 252 
L 338.786087 252 
L 338.786087 252 
L 337.787481 252 
L 337.787481 252 
L 336.788875 252 
L 336.788875 252 
L 335.790269 252 
L 335.790269 252 
L 334.791663 252 
L 334.791663 252 
L 333.793057 252 
L 333.793057 252 
L 332.794451 252 
L 332.794451 252 
L 331.795846 252 
L 331.795846 252 
L 330.79724 252 
L 330.79724 252 
L 329.798634 252 
L 329.798634 252 
L 328.800028 252 
L 328.800028 252 
L 327.801422 252 
L 327.801422 252 
L 326.802816 252 
L 326.802816 252 
L 325.80421 252 
L 325.80421 252 
L 324.805604 252 
L 324.805604 252 
L 323.806999 252 
L 323.806999 252 
L 322.808393 252 
L 322.808393 252 
L 321.809787 252 
L 321.809787 252 
L 320.811181 252 
L 320.811181 252 
L 319.812575 252 
L 319.812575 252 
L 318.813969 252 
L 318.813969 252 
L 317.815363 252 
L 317.815363 252 
L 316.816757 252 
L 316.816757 252 
L 315.818152 252 
L 315.818152 252 
L 314.819546 252 
L 314.819546 252 
L 313.82094 252 
L 313.82094 252 
L 312.822334 252 
L 312.822334 252 
L 311.823728 252 
L 311.823728 252 
L 310.825122 252 
L 310.825122 252 
L 309.826516 252 
L 309.826516 252 
L 308.82791 252 
L 308.82791 252 
L 307.829305 252 
L 307.829305 252 
L 306.830699 252 
L 306.830699 252 
L 305.832093 252 
L 305.832093 252 
L 304.833487 252 
L 304.833487 252 
L 303.834881 252 
L 303.834881 252 
L 302.836275 252 
L 302.836275 252 
L 301.837669 252 
L 301.837669 252 
L 300.839063 252 
L 300.839063 252 
L 299.840458 252 
L 299.840458 252 
L 298.841852 252 
L 298.841852 252 
L 297.843246 252 
L 297.843246 252 
L 296.84464 252 
L 296.84464 252 
L 295.846034 252 
L 295.846034 252 
L 294.847428 252 
L 294.847428 252 
L 293.848822 252 
L 293.848822 252 
L 292.850216 252 
L 292.850216 252 
L 291.851611 252 
L 291.851611 252 
L 290.853005 252 
L 290.853005 252 
L 289.854399 252 
L 289.854399 252 
L 288.855793 252 
L 288.855793 252 
L 287.857187 252 
L 287.857187 252 
L 286.858581 252 
L 286.858581 252 
L 285.859975 252 
L 285.859975 252 
L 284.861369 252 
L 284.861369 252 
L 283.862764 252 
L 283.862764 252 
L 282.864158 252 
L 282.864158 252 
L 281.865552 252 
L 281.865552 252 
L 280.866946 252 
L 280.866946 252 
L 279.86834 252 
L 279.86834 252 
L 278.869734 252 
L 278.869734 252 
L 277.871128 252 
L 277.871128 252 
L 276.872522 252 
L 276.872522 252 
L 275.873917 252 
L 275.873917 252 
L 274.875311 252 
L 274.875311 252 
L 273.876705 252 
L 273.876705 252 
L 272.878099 252 
L 272.878099 252 
L 271.879493 252 
L 271.879493 252 
L 270.880887 252 
L 270.880887 252 
L 269.882281 252 
L 269.882281 252 
L 268.883676 252 
L 268.883676 252 
L 267.88507 252 
L 267.88507 252 
L 266.886464 252 
L 266.886464 252 
L 265.887858 252 
L 265.887858 252 
L 264.889252 252 
L 264.889252 252 
L 263.890646 252 
L 263.890646 252 
L 262.89204 252 
L 262.89204 252 
L 261.893434 252 
L 261.893434 252 
L 260.894829 252 
L 260.894829 252 
L 259.896223 252 
L 259.896223 252 
L 258.897617 252 
L 258.897617 252 
L 257.899011 252 
L 257.899011 252 
L 256.900405 252 
L 256.900405 252 
L 255.901799 252 
L 255.901799 252 
L 254.903193 252 
L 254.903193 252 
L 253.904587 252 
L 253.904587 252 
L 252.905982 252 
L 252.905982 252 
L 251.907376 252 
L 251.907376 252 
L 250.90877 252 
L 250.90877 252 
L 249.910164 252 
L 249.910164 252 
L 248.911558 252 
L 248.911558 252 
z
" style="fill:#8b0000;stroke:#000000;stroke-linejoin:miter;"/>
   </g>
   <g id="patch_4">
    <path clip-path="url(#p4813272e91)" d="M 82.815367 252 
L 82.815367 251.9442 
L 82.91042 251.9442 
L 82.91042 252 
L 83.005473 252 
L 83.005473 251.8326 
L 83.100526 251.8326 
L 83.100526 252 
L 83.19558 252 
L 83.19558 251.8884 
L 83.290633 251.8884 
L 83.290633 251.8326 
L 83.385686 251.8326 
L 83.385686 251.7768 
L 83.480739 251.7768 
L 83.480739 251.8884 
L 83.575793 251.8884 
L 83.575793 251.7768 
L 83.670846 251.7768 
L 83.670846 251.721 
L 83.765899 251.721 
L 83.765899 251.5536 
L 83.860952 251.5536 
L 83.860952 251.442 
L 83.956006 251.442 
L 83.956006 250.9398 
L 84.051059 250.9398 
L 84.051059 250.9398 
L 84.146112 250.9398 
L 84.146112 250.9398 
L 84.241165 250.9398 
L 84.241165 250.1586 
L 84.336218 250.1586 
L 84.336218 250.2144 
L 84.431272 250.2144 
L 84.431272 248.8752 
L 84.526325 248.8752 
L 84.526325 248.094 
L 84.621378 248.094 
L 84.621378 246.3084 
L 84.716431 246.3084 
L 84.716431 245.8062 
L 84.811485 245.8062 
L 84.811485 244.467 
L 84.906538 244.467 
L 84.906538 243.63 
L 85.001591 243.63 
L 85.001591 241.398 
L 85.096644 241.398 
L 85.096644 239.5566 
L 85.191698 239.5566 
L 85.191698 236.0412 
L 85.286751 236.0412 
L 85.286751 230.6844 
L 85.381804 230.6844 
L 85.381804 226.9458 
L 85.476857 226.9458 
L 85.476857 224.2116 
L 85.57191 224.2116 
L 85.57191 217.3482 
L 85.666964 217.3482 
L 85.666964 213.777 
L 85.762017 213.777 
L 85.762017 206.4672 
L 85.85707 206.4672 
L 85.85707 201.6126 
L 85.952123 201.6126 
L 85.952123 192.1266 
L 86.047177 192.1266 
L 86.047177 182.1942 
L 86.14223 182.1942 
L 86.14223 175.2192 
L 86.237283 175.2192 
L 86.237283 167.0166 
L 86.332336 167.0166 
L 86.332336 159.3162 
L 86.42739 159.3162 
L 86.42739 148.491 
L 86.522443 148.491 
L 86.522443 135.8244 
L 86.617496 135.8244 
L 86.617496 129.4632 
L 86.712549 129.4632 
L 86.712549 111.105 
L 86.807602 111.105 
L 86.807602 101.7306 
L 86.902656 101.7306 
L 86.902656 97.6572 
L 86.997709 97.6572 
L 86.997709 86.274 
L 87.092762 86.274 
L 87.092762 83.9862 
L 87.187815 83.9862 
L 87.187815 72.3798 
L 87.282869 72.3798 
L 87.282869 68.1948 
L 87.377922 68.1948 
L 87.377922 68.976 
L 87.472975 68.976 
L 87.472975 51.5106 
L 87.568028 51.5106 
L 87.568028 62.6148 
L 87.663082 62.6148 
L 87.663082 61.2756 
L 87.758135 61.2756 
L 87.758135 62.0568 
L 87.853188 62.0568 
L 87.853188 60.3828 
L 87.948241 60.3828 
L 87.948241 69.813 
L 88.043294 69.813 
L 88.043294 69.7572 
L 88.138348 69.7572 
L 88.138348 83.3166 
L 88.233401 83.3166 
L 88.233401 86.7762 
L 88.328454 86.7762 
L 88.328454 96.6528 
L 88.423507 96.6528 
L 88.423507 103.4604 
L 88.518561 103.4604 
L 88.518561 117.0756 
L 88.613614 117.0756 
L 88.613614 123.0462 
L 88.708667 123.0462 
L 88.708667 134.0946 
L 88.80372 134.0946 
L 88.80372 142.8552 
L 88.898774 142.8552 
L 88.898774 150.7788 
L 88.993827 150.7788 
L 88.993827 164.0592 
L 89.08888 164.0592 
L 89.08888 172.3176 
L 89.183933 172.3176 
L 89.183933 181.2456 
L 89.278986 181.2456 
L 89.278986 191.0106 
L 89.37404 191.0106 
L 89.37404 195.3072 
L 89.469093 195.3072 
L 89.469093 204.2352 
L 89.564146 204.2352 
L 89.564146 213.219 
L 89.659199 213.219 
L 89.659199 218.7432 
L 89.754253 218.7432 
L 89.754253 223.3746 
L 89.849306 223.3746 
L 89.849306 223.7652 
L 89.944359 223.7652 
L 89.944359 231.6888 
L 90.039412 231.6888 
L 90.039412 231.8562 
L 90.134466 231.8562 
L 90.134466 236.2644 
L 90.229519 236.2644 
L 90.229519 241.0632 
L 90.324572 241.0632 
L 90.324572 241.6212 
L 90.419625 241.6212 
L 90.419625 244.0764 
L 90.514678 244.0764 
L 90.514678 245.025 
L 90.609732 245.025 
L 90.609732 247.0338 
L 90.704785 247.0338 
L 90.704785 248.931 
L 90.799838 248.931 
L 90.799838 248.931 
L 90.894891 248.931 
L 90.894891 250.326 
L 90.989945 250.326 
L 90.989945 250.326 
L 91.084998 250.326 
L 91.084998 250.8282 
L 91.180051 250.8282 
L 91.180051 250.7724 
L 91.275104 250.7724 
L 91.275104 250.9398 
L 91.370158 250.9398 
L 91.370158 251.4978 
L 91.465211 251.4978 
L 91.465211 251.6094 
L 91.560264 251.6094 
L 91.560264 251.6652 
L 91.655317 251.6652 
L 91.655317 251.721 
L 91.75037 251.721 
L 91.75037 251.5536 
L 91.845424 251.5536 
L 91.845424 251.8326 
L 91.940477 251.8326 
L 91.940477 251.8326 
L 92.03553 251.8326 
L 92.03553 251.8884 
L 92.130583 251.8884 
L 92.130583 252 
L 92.225637 252 
L 92.225637 251.9442 
L 92.32069 251.9442 
L 92.32069 252 
L 92.225637 252 
L 92.225637 252 
L 92.130583 252 
L 92.130583 252 
L 92.03553 252 
L 92.03553 252 
L 91.940477 252 
L 91.940477 252 
L 91.845424 252 
L 91.845424 252 
L 91.75037 252 
L 91.75037 252 
L 91.655317 252 
L 91.655317 252 
L 91.560264 252 
L 91.560264 252 
L 91.465211 252 
L 91.465211 252 
L 91.370158 252 
L 91.370158 252 
L 91.275104 252 
L 91.275104 252 
L 91.180051 252 
L 91.180051 252 
L 91.084998 252 
L 91.084998 252 
L 90.989945 252 
L 90.989945 252 
L 90.894891 252 
L 90.894891 252 
L 90.799838 252 
L 90.799838 252 
L 90.704785 252 
L 90.704785 252 
L 90.609732 252 
L 90.609732 252 
L 90.514678 252 
L 90.514678 252 
L 90.419625 252 
L 90.419625 252 
L 90.324572 252 
L 90.324572 252 
L 90.229519 252 
L 90.229519 252 
L 90.134466 252 
L 90.134466 252 
L 90.039412 252 
L 90.039412 252 
L 89.944359 252 
L 89.944359 252 
L 89.849306 252 
L 89.849306 252 
L 89.754253 252 
L 89.754253 252 
L 89.659199 252 
L 89.659199 252 
L 89.564146 252 
L 89.564146 252 
L 89.469093 252 
L 89.469093 252 
L 89.37404 252 
L 89.37404 252 
L 89.278986 252 
L 89.278986 252 
L 89.183933 252 
L 89.183933 252 
L 89.08888 252 
L 89.08888 252 
L 88.993827 252 
L 88.993827 252 
L 88.898774 252 
L 88.898774 252 
L 88.80372 252 
L 88.80372 252 
L 88.708667 252 
L 88.708667 252 
L 88.613614 252 
L 88.613614 252 
L 88.518561 252 
L 88.518561 252 
L 88.423507 252 
L 88.423507 252 
L 88.328454 252 
L 88.328454 252 
L 88.233401 252 
L 88.233401 252 
L 88.138348 252 
L 88.138348 252 
L 88.043294 252 
L 88.043294 252 
L 87.948241 252 
L 87.948241 252 
L 87.853188 252 
L 87.853188 252 
L 87.758135 252 
L 87.758135 252 
L 87.663082 252 
L 87.663082 252 
L 87.568028 252 
L 87.568028 252 
L 87.472975 252 
L 87.472975 252 
L 87.377922 252 
L 87.377922 252 
L 87.282869 252 
L 87.282869 252 
L 87.187815 252 
L 87.187815 252 
L 87.092762 252 
L 87.092762 252 
L 86.997709 252 
L 86.997709 252 
L 86.902656 252 
L 86.902656 252 
L 86.807602 252 
L 86.807602 252 
L 86.712549 252 
L 86.712549 252 
L 86.617496 252 
L 86.617496 252 
L 86.522443 252 
L 86.522443 252 
L 86.42739 252 
L 86.42739 252 
L 86.332336 252 
L 86.332336 252 
L 86.237283 252 
L 86.237283 252 
L 86.14223 252 
L 86.14223 252 
L 86.047177 252 
L 86.047177 252 
L 85.952123 252 
L 85.952123 252 
L 85.85707 252 
L 85.85707 252 
L 85.762017 252 
L 85.762017 252 
L 85.666964 252 
L 85.666964 252 
L 85.57191 252 
L 85.57191 252 
L 85.476857 252 
L 85.476857 252 
L 85.381804 252 
L 85.381804 252 
L 85.286751 252 
L 85.286751 252 
L 85.191698 252 
L 85.191698 252 
L 85.096644 252 
L 85.096644 252 
L 85.001591 252 
L 85.001591 252 
L 84.906538 252 
L 84.906538 252 
L 84.811485 252 
L 84.811485 252 
L 84.716431 252 
L 84.716431 252 
L 84.621378 252 
L 84.621378 252 
L 84.526325 252 
L 84.526325 252 
L 84.431272 252 
L 84.431272 252 
L 84.336218 252 
L 84.336218 252 
L 84.241165 252 
L 84.241165 252 
L 84.146112 252 
L 84.146112 252 
L 84.051059 252 
L 84.051059 252 
L 83.956006 252 
L 83.956006 252 
L 83.860952 252 
L 83.860952 252 
L 83.765899 252 
L 83.765899 252 
L 83.670846 252 
L 83.670846 252 
L 83.575793 252 
L 83.575793 252 
L 83.480739 252 
L 83.480739 252 
L 83.385686 252 
L 83.385686 252 
L 83.290633 252 
L 83.290633 252 
L 83.19558 252 
L 83.19558 252 
L 83.100526 252 
L 83.100526 252 
L 83.005473 252 
L 83.005473 252 
L 82.91042 252 
L 82.91042 252 
z
" style="fill:#00008b;stroke:#000000;stroke-linejoin:miter;"/>
   </g>
   <g id="patch_5">
    <path d="M 54 28.8 
L 388.8 28.8 
" style="fill:none;stroke:#000000;stroke-linecap:square;stroke-linejoin:miter;"/>
   </g>
   <g id="patch_6">
    <path d="M 388.8 252 
L 388.8 28.8 
" style="fill:none;stroke:#000000;stroke-linecap:square;stroke-linejoin:miter;"/>
   </g>
   <g id="patch_7">
    <path d="M 54 252 
L 388.8 252 
" style="fill:none;stroke:#000000;stroke-linecap:square;stroke-linejoin:miter;"/>
   </g>
   <g id="patch_8">
    <path d="M 54 252 
L 54 28.8 
" style="fill:none;stroke:#000000;stroke-linecap:square;stroke-linejoin:miter;"/>
   </g>
   <g id="matplotlib.axis_1">
    <g id="xtick_1">
     <g id="line2d_1">
      <defs>
       <path d="M 0 0 
L 0 -4 
" id="mb9f4c58e56" style="stroke:#000000;stroke-width:0.5;"/>
      </defs>
      <g>
       <use style="stroke:#000000;stroke-width:0.5;" x="54.0" xlink:href="#mb9f4c58e56" y="252.0"/>
      </g>
     </g>
     <g id="line2d_2">
      <defs>
       <path d="M 0 0 
L 0 4 
" id="mb8417e23ba" style="stroke:#000000;stroke-width:0.5;"/>
      </defs>
      <g>
       <use style="stroke:#000000;stroke-width:0.5;" x="54.0" xlink:href="#mb8417e23ba" y="28.8"/>
      </g>
     </g>
     <g id="text_1">
      <!-- 1080 -->
      <defs>
       <path d="M 31.78125 66.40625 
Q 24.171875 66.40625 20.328125 58.90625 
Q 16.5 51.421875 16.5 36.375 
Q 16.5 21.390625 20.328125 13.890625 
Q 24.171875 6.390625 31.78125 6.390625 
Q 39.453125 6.390625 43.28125 13.890625 
Q 47.125 21.390625 47.125 36.375 
Q 47.125 51.421875 43.28125 58.90625 
Q 39.453125 66.40625 31.78125 66.40625 
M 31.78125 74.21875 
Q 44.046875 74.21875 50.515625 64.515625 
Q 56.984375 54.828125 56.984375 36.375 
Q 56.984375 17.96875 50.515625 8.265625 
Q 44.046875 -1.421875 31.78125 -1.421875 
Q 19.53125 -1.421875 13.0625 8.265625 
Q 6.59375 17.96875 6.59375 36.375 
Q 6.59375 54.828125 13.0625 64.515625 
Q 19.53125 74.21875 31.78125 74.21875 
" id="BitstreamVeraSans-Roman-30"/>
       <path d="M 12.40625 8.296875 
L 28.515625 8.296875 
L 28.515625 63.921875 
L 10.984375 60.40625 
L 10.984375 69.390625 
L 28.421875 72.90625 
L 38.28125 72.90625 
L 38.28125 8.296875 
L 54.390625 8.296875 
L 54.390625 0 
L 12.40625 0 
z
" id="BitstreamVeraSans-Roman-31"/>
       <path d="M 31.78125 34.625 
Q 24.75 34.625 20.71875 30.859375 
Q 16.703125 27.09375 16.703125 20.515625 
Q 16.703125 13.921875 20.71875 10.15625 
Q 24.75 6.390625 31.78125 6.390625 
Q 38.8125 6.390625 42.859375 10.171875 
Q 46.921875 13.96875 46.921875 20.515625 
Q 46.921875 27.09375 42.890625 30.859375 
Q 38.875 34.625 31.78125 34.625 
M 21.921875 38.8125 
Q 15.578125 40.375 12.03125 44.71875 
Q 8.5 49.078125 8.5 55.328125 
Q 8.5 64.0625 14.71875 69.140625 
Q 20.953125 74.21875 31.78125 74.21875 
Q 42.671875 74.21875 48.875 69.140625 
Q 55.078125 64.0625 55.078125 55.328125 
Q 55.078125 49.078125 51.53125 44.71875 
Q 48 40.375 41.703125 38.8125 
Q 48.828125 37.15625 52.796875 32.3125 
Q 56.78125 27.484375 56.78125 20.515625 
Q 56.78125 9.90625 50.3125 4.234375 
Q 43.84375 -1.421875 31.78125 -1.421875 
Q 19.734375 -1.421875 13.25 4.234375 
Q 6.78125 9.90625 6.78125 20.515625 
Q 6.78125 27.484375 10.78125 32.3125 
Q 14.796875 37.15625 21.921875 38.8125 
M 18.3125 54.390625 
Q 18.3125 48.734375 21.84375 45.5625 
Q 25.390625 42.390625 31.78125 42.390625 
Q 38.140625 42.390625 41.71875 45.5625 
Q 45.3125 48.734375 45.3125 54.390625 
Q 45.3125 60.0625 41.71875 63.234375 
Q 38.140625 66.40625 31.78125 66.40625 
Q 25.390625 66.40625 21.84375 63.234375 
Q 18.3125 60.0625 18.3125 54.390625 
" id="BitstreamVeraSans-Roman-38"/>
      </defs>
      <g transform="translate(41.275 263.5984375)scale(0.1 -0.1)">
       <use xlink:href="#BitstreamVeraSans-Roman-31"/>
       <use x="63.623046875" xlink:href="#BitstreamVeraSans-Roman-30"/>
       <use x="127.24609375" xlink:href="#BitstreamVeraSans-Roman-38"/>
       <use x="190.869140625" xlink:href="#BitstreamVeraSans-Roman-30"/>
      </g>
     </g>
    </g>
    <g id="xtick_2">
     <g id="line2d_3">
      <g>
       <use style="stroke:#000000;stroke-width:0.5;" x="101.828571429" xlink:href="#mb9f4c58e56" y="252.0"/>
      </g>
     </g>
     <g id="line2d_4">
      <g>
       <use style="stroke:#000000;stroke-width:0.5;" x="101.828571429" xlink:href="#mb8417e23ba" y="28.8"/>
      </g>
     </g>
     <g id="text_2">
      <!-- 1085 -->
      <defs>
       <path d="M 10.796875 72.90625 
L 49.515625 72.90625 
L 49.515625 64.59375 
L 19.828125 64.59375 
L 19.828125 46.734375 
Q 21.96875 47.46875 24.109375 47.828125 
Q 26.265625 48.1875 28.421875 48.1875 
Q 40.625 48.1875 47.75 41.5 
Q 54.890625 34.8125 54.890625 23.390625 
Q 54.890625 11.625 47.5625 5.09375 
Q 40.234375 -1.421875 26.90625 -1.421875 
Q 22.3125 -1.421875 17.546875 -0.640625 
Q 12.796875 0.140625 7.71875 1.703125 
L 7.71875 11.625 
Q 12.109375 9.234375 16.796875 8.0625 
Q 21.484375 6.890625 26.703125 6.890625 
Q 35.15625 6.890625 40.078125 11.328125 
Q 45.015625 15.765625 45.015625 23.390625 
Q 45.015625 31 40.078125 35.4375 
Q 35.15625 39.890625 26.703125 39.890625 
Q 22.75 39.890625 18.8125 39.015625 
Q 14.890625 38.140625 10.796875 36.28125 
z
" id="BitstreamVeraSans-Roman-35"/>
      </defs>
      <g transform="translate(89.1035714286 263.5984375)scale(0.1 -0.1)">
       <use xlink:href="#BitstreamVeraSans-Roman-31"/>
       <use x="63.623046875" xlink:href="#BitstreamVeraSans-Roman-30"/>
       <use x="127.24609375" xlink:href="#BitstreamVeraSans-Roman-38"/>
       <use x="190.869140625" xlink:href="#BitstreamVeraSans-Roman-35"/>
      </g>
     </g>
    </g>
    <g id="xtick_3">
     <g id="line2d_5">
      <g>
       <use style="stroke:#000000;stroke-width:0.5;" x="149.657142857" xlink:href="#mb9f4c58e56" y="252.0"/>
      </g>
     </g>
     <g id="line2d_6">
      <g>
       <use style="stroke:#000000;stroke-width:0.5;" x="149.657142857" xlink:href="#mb8417e23ba" y="28.8"/>
      </g>
     </g>
     <g id="text_3">
      <!-- 1090 -->
      <defs>
       <path d="M 10.984375 1.515625 
L 10.984375 10.5 
Q 14.703125 8.734375 18.5 7.8125 
Q 22.3125 6.890625 25.984375 6.890625 
Q 35.75 6.890625 40.890625 13.453125 
Q 46.046875 20.015625 46.78125 33.40625 
Q 43.953125 29.203125 39.59375 26.953125 
Q 35.25 24.703125 29.984375 24.703125 
Q 19.046875 24.703125 12.671875 31.3125 
Q 6.296875 37.9375 6.296875 49.421875 
Q 6.296875 60.640625 12.9375 67.421875 
Q 19.578125 74.21875 30.609375 74.21875 
Q 43.265625 74.21875 49.921875 64.515625 
Q 56.59375 54.828125 56.59375 36.375 
Q 56.59375 19.140625 48.40625 8.859375 
Q 40.234375 -1.421875 26.421875 -1.421875 
Q 22.703125 -1.421875 18.890625 -0.6875 
Q 15.09375 0.046875 10.984375 1.515625 
M 30.609375 32.421875 
Q 37.25 32.421875 41.125 36.953125 
Q 45.015625 41.5 45.015625 49.421875 
Q 45.015625 57.28125 41.125 61.84375 
Q 37.25 66.40625 30.609375 66.40625 
Q 23.96875 66.40625 20.09375 61.84375 
Q 16.21875 57.28125 16.21875 49.421875 
Q 16.21875 41.5 20.09375 36.953125 
Q 23.96875 32.421875 30.609375 32.421875 
" id="BitstreamVeraSans-Roman-39"/>
      </defs>
      <g transform="translate(136.932142857 263.5984375)scale(0.1 -0.1)">
       <use xlink:href="#BitstreamVeraSans-Roman-31"/>
       <use x="63.623046875" xlink:href="#BitstreamVeraSans-Roman-30"/>
       <use x="127.24609375" xlink:href="#BitstreamVeraSans-Roman-39"/>
       <use x="190.869140625" xlink:href="#BitstreamVeraSans-Roman-30"/>
      </g>
     </g>
    </g>
    <g id="xtick_4">
     <g id="line2d_7">
      <g>
       <use style="stroke:#000000;stroke-width:0.5;" x="197.485714286" xlink:href="#mb9f4c58e56" y="252.0"/>
      </g>
     </g>
     <g id="line2d_8">
      <g>
       <use style="stroke:#000000;stroke-width:0.5;" x="197.485714286" xlink:href="#mb8417e23ba" y="28.8"/>
      </g>
     </g>
     <g id="text_4">
      <!-- 1095 -->
      <g transform="translate(184.760714286 263.5984375)scale(0.1 -0.1)">
       <use xlink:href="#BitstreamVeraSans-Roman-31"/>
       <use x="63.623046875" xlink:href="#BitstreamVeraSans-Roman-30"/>
       <use x="127.24609375" xlink:href="#BitstreamVeraSans-Roman-39"/>
       <use x="190.869140625" xlink:href="#BitstreamVeraSans-Roman-35"/>
      </g>
     </g>
    </g>
    <g id="xtick_5">
     <g id="line2d_9">
      <g>
       <use style="stroke:#000000;stroke-width:0.5;" x="245.314285714" xlink:href="#mb9f4c58e56" y="252.0"/>
      </g>
     </g>
     <g id="line2d_10">
      <g>
       <use style="stroke:#000000;stroke-width:0.5;" x="245.314285714" xlink:href="#mb8417e23ba" y="28.8"/>
      </g>
     </g>
     <g id="text_5">
      <!-- 1100 -->
      <g transform="translate(232.589285714 263.5984375)scale(0.1 -0.1)">
       <use xlink:href="#BitstreamVeraSans-Roman-31"/>
       <use x="63.623046875" xlink:href="#BitstreamVeraSans-Roman-31"/>
       <use x="127.24609375" xlink:href="#BitstreamVeraSans-Roman-30"/>
       <use x="190.869140625" xlink:href="#BitstreamVeraSans-Roman-30"/>
      </g>
     </g>
    </g>
    <g id="xtick_6">
     <g id="line2d_11">
      <g>
       <use style="stroke:#000000;stroke-width:0.5;" x="293.142857143" xlink:href="#mb9f4c58e56" y="252.0"/>
      </g>
     </g>
     <g id="line2d_12">
      <g>
       <use style="stroke:#000000;stroke-width:0.5;" x="293.142857143" xlink:href="#mb8417e23ba" y="28.8"/>
      </g>
     </g>
     <g id="text_6">
      <!-- 1105 -->
      <g transform="translate(280.417857143 263.5984375)scale(0.1 -0.1)">
       <use xlink:href="#BitstreamVeraSans-Roman-31"/>
       <use x="63.623046875" xlink:href="#BitstreamVeraSans-Roman-31"/>
       <use x="127.24609375" xlink:href="#BitstreamVeraSans-Roman-30"/>
       <use x="190.869140625" xlink:href="#BitstreamVeraSans-Roman-35"/>
      </g>
     </g>
    </g>
    <g id="xtick_7">
     <g id="line2d_13">
      <g>
       <use style="stroke:#000000;stroke-width:0.5;" x="340.971428571" xlink:href="#mb9f4c58e56" y="252.0"/>
      </g>
     </g>
     <g id="line2d_14">
      <g>
       <use style="stroke:#000000;stroke-width:0.5;" x="340.971428571" xlink:href="#mb8417e23ba" y="28.8"/>
      </g>
     </g>
     <g id="text_7">
      <!-- 1110 -->
      <g transform="translate(328.246428571 263.5984375)scale(0.1 -0.1)">
       <use xlink:href="#BitstreamVeraSans-Roman-31"/>
       <use x="63.623046875" xlink:href="#BitstreamVeraSans-Roman-31"/>
       <use x="127.24609375" xlink:href="#BitstreamVeraSans-Roman-31"/>
       <use x="190.869140625" xlink:href="#BitstreamVeraSans-Roman-30"/>
      </g>
     </g>
    </g>
    <g id="xtick_8">
     <g id="line2d_15">
      <g>
       <use style="stroke:#000000;stroke-width:0.5;" x="388.8" xlink:href="#mb9f4c58e56" y="252.0"/>
      </g>
     </g>
     <g id="line2d_16">
      <g>
       <use style="stroke:#000000;stroke-width:0.5;" x="388.8" xlink:href="#mb8417e23ba" y="28.8"/>
      </g>
     </g>
     <g id="text_8">
      <!-- 1115 -->
      <g transform="translate(376.075 263.5984375)scale(0.1 -0.1)">
       <use xlink:href="#BitstreamVeraSans-Roman-31"/>
       <use x="63.623046875" xlink:href="#BitstreamVeraSans-Roman-31"/>
       <use x="127.24609375" xlink:href="#BitstreamVeraSans-Roman-31"/>
       <use x="190.869140625" xlink:href="#BitstreamVeraSans-Roman-35"/>
      </g>
     </g>
    </g>
    <g id="text_9">
     <!-- Age (Ma) -->
     <defs>
      <path id="BitstreamVeraSans-Roman-20"/>
      <path d="M 9.8125 72.90625 
L 24.515625 72.90625 
L 43.109375 23.296875 
L 61.8125 72.90625 
L 76.515625 72.90625 
L 76.515625 0 
L 66.890625 0 
L 66.890625 64.015625 
L 48.09375 14.015625 
L 38.1875 14.015625 
L 19.390625 64.015625 
L 19.390625 0 
L 9.8125 0 
z
" id="BitstreamVeraSans-Roman-4d"/>
      <path d="M 8.015625 75.875 
L 15.828125 75.875 
Q 23.140625 64.359375 26.78125 53.3125 
Q 30.421875 42.28125 30.421875 31.390625 
Q 30.421875 20.453125 26.78125 9.375 
Q 23.140625 -1.703125 15.828125 -13.1875 
L 8.015625 -13.1875 
Q 14.5 -2 17.703125 9.0625 
Q 20.90625 20.125 20.90625 31.390625 
Q 20.90625 42.671875 17.703125 53.65625 
Q 14.5 64.65625 8.015625 75.875 
" id="BitstreamVeraSans-Roman-29"/>
      <path d="M 31 75.875 
Q 24.46875 64.65625 21.28125 53.65625 
Q 18.109375 42.671875 18.109375 31.390625 
Q 18.109375 20.125 21.3125 9.0625 
Q 24.515625 -2 31 -13.1875 
L 23.1875 -13.1875 
Q 15.875 -1.703125 12.234375 9.375 
Q 8.59375 20.453125 8.59375 31.390625 
Q 8.59375 42.28125 12.203125 53.3125 
Q 15.828125 64.359375 23.1875 75.875 
z
" id="BitstreamVeraSans-Roman-28"/>
      <path d="M 34.1875 63.1875 
L 20.796875 26.90625 
L 47.609375 26.90625 
z
M 28.609375 72.90625 
L 39.796875 72.90625 
L 67.578125 0 
L 57.328125 0 
L 50.6875 18.703125 
L 17.828125 18.703125 
L 11.1875 0 
L 0.78125 0 
z
" id="BitstreamVeraSans-Roman-41"/>
      <path d="M 56.203125 29.59375 
L 56.203125 25.203125 
L 14.890625 25.203125 
Q 15.484375 15.921875 20.484375 11.0625 
Q 25.484375 6.203125 34.421875 6.203125 
Q 39.59375 6.203125 44.453125 7.46875 
Q 49.3125 8.734375 54.109375 11.28125 
L 54.109375 2.78125 
Q 49.265625 0.734375 44.1875 -0.34375 
Q 39.109375 -1.421875 33.890625 -1.421875 
Q 20.796875 -1.421875 13.15625 6.1875 
Q 5.515625 13.8125 5.515625 26.8125 
Q 5.515625 40.234375 12.765625 48.109375 
Q 20.015625 56 32.328125 56 
Q 43.359375 56 49.78125 48.890625 
Q 56.203125 41.796875 56.203125 29.59375 
M 47.21875 32.234375 
Q 47.125 39.59375 43.09375 43.984375 
Q 39.0625 48.390625 32.421875 48.390625 
Q 24.90625 48.390625 20.390625 44.140625 
Q 15.875 39.890625 15.1875 32.171875 
z
" id="BitstreamVeraSans-Roman-65"/>
      <path d="M 45.40625 27.984375 
Q 45.40625 37.75 41.375 43.109375 
Q 37.359375 48.484375 30.078125 48.484375 
Q 22.859375 48.484375 18.828125 43.109375 
Q 14.796875 37.75 14.796875 27.984375 
Q 14.796875 18.265625 18.828125 12.890625 
Q 22.859375 7.515625 30.078125 7.515625 
Q 37.359375 7.515625 41.375 12.890625 
Q 45.40625 18.265625 45.40625 27.984375 
M 54.390625 6.78125 
Q 54.390625 -7.171875 48.1875 -13.984375 
Q 42 -20.796875 29.203125 -20.796875 
Q 24.46875 -20.796875 20.265625 -20.09375 
Q 16.0625 -19.390625 12.109375 -17.921875 
L 12.109375 -9.1875 
Q 16.0625 -11.328125 19.921875 -12.34375 
Q 23.78125 -13.375 27.78125 -13.375 
Q 36.625 -13.375 41.015625 -8.765625 
Q 45.40625 -4.15625 45.40625 5.171875 
L 45.40625 9.625 
Q 42.625 4.78125 38.28125 2.390625 
Q 33.9375 0 27.875 0 
Q 17.828125 0 11.671875 7.65625 
Q 5.515625 15.328125 5.515625 27.984375 
Q 5.515625 40.671875 11.671875 48.328125 
Q 17.828125 56 27.875 56 
Q 33.9375 56 38.28125 53.609375 
Q 42.625 51.21875 45.40625 46.390625 
L 45.40625 54.6875 
L 54.390625 54.6875 
z
" id="BitstreamVeraSans-Roman-67"/>
      <path d="M 34.28125 27.484375 
Q 23.390625 27.484375 19.1875 25 
Q 14.984375 22.515625 14.984375 16.5 
Q 14.984375 11.71875 18.140625 8.90625 
Q 21.296875 6.109375 26.703125 6.109375 
Q 34.1875 6.109375 38.703125 11.40625 
Q 43.21875 16.703125 43.21875 25.484375 
L 43.21875 27.484375 
z
M 52.203125 31.203125 
L 52.203125 0 
L 43.21875 0 
L 43.21875 8.296875 
Q 40.140625 3.328125 35.546875 0.953125 
Q 30.953125 -1.421875 24.3125 -1.421875 
Q 15.921875 -1.421875 10.953125 3.296875 
Q 6 8.015625 6 15.921875 
Q 6 25.140625 12.171875 29.828125 
Q 18.359375 34.515625 30.609375 34.515625 
L 43.21875 34.515625 
L 43.21875 35.40625 
Q 43.21875 41.609375 39.140625 45 
Q 35.0625 48.390625 27.6875 48.390625 
Q 23 48.390625 18.546875 47.265625 
Q 14.109375 46.140625 10.015625 43.890625 
L 10.015625 52.203125 
Q 14.9375 54.109375 19.578125 55.046875 
Q 24.21875 56 28.609375 56 
Q 40.484375 56 46.34375 49.84375 
Q 52.203125 43.703125 52.203125 31.203125 
" id="BitstreamVeraSans-Roman-61"/>
     </defs>
     <g transform="translate(198.86015625 278.2765625)scale(0.1 -0.1)">
      <use xlink:href="#BitstreamVeraSans-Roman-41"/>
      <use x="68.408203125" xlink:href="#BitstreamVeraSans-Roman-67"/>
      <use x="131.884765625" xlink:href="#BitstreamVeraSans-Roman-65"/>
      <use x="193.408203125" xlink:href="#BitstreamVeraSans-Roman-20"/>
      <use x="225.1953125" xlink:href="#BitstreamVeraSans-Roman-28"/>
      <use x="264.208984375" xlink:href="#BitstreamVeraSans-Roman-4d"/>
      <use x="350.48828125" xlink:href="#BitstreamVeraSans-Roman-61"/>
      <use x="411.767578125" xlink:href="#BitstreamVeraSans-Roman-29"/>
     </g>
    </g>
   </g>
   <g id="matplotlib.axis_2">
    <g id="ytick_1">
     <g id="line2d_17">
      <defs>
       <path d="M 0 0 
L 4 0 
" id="m80950ed0d1" style="stroke:#000000;stroke-width:0.5;"/>
      </defs>
      <g>
       <use style="stroke:#000000;stroke-width:0.5;" x="54.0" xlink:href="#m80950ed0d1" y="252.0"/>
      </g>
     </g>
     <g id="line2d_18">
      <defs>
       <path d="M 0 0 
L -4 0 
" id="m0536a68db4" style="stroke:#000000;stroke-width:0.5;"/>
      </defs>
      <g>
       <use style="stroke:#000000;stroke-width:0.5;" x="388.8" xlink:href="#m0536a68db4" y="252.0"/>
      </g>
     </g>
     <g id="text_10">
      <!-- 0 -->
      <g transform="translate(43.6375 254.759375)scale(0.1 -0.1)">
       <use xlink:href="#BitstreamVeraSans-Roman-30"/>
      </g>
     </g>
    </g>
    <g id="ytick_2">
     <g id="line2d_19">
      <g>
       <use style="stroke:#000000;stroke-width:0.5;" x="54.0" xlink:href="#m80950ed0d1" y="224.1"/>
      </g>
     </g>
     <g id="line2d_20">
      <g>
       <use style="stroke:#000000;stroke-width:0.5;" x="388.8" xlink:href="#m0536a68db4" y="224.1"/>
      </g>
     </g>
     <g id="text_11">
      <!-- 500 -->
      <g transform="translate(30.9125 226.859375)scale(0.1 -0.1)">
       <use xlink:href="#BitstreamVeraSans-Roman-35"/>
       <use x="63.623046875" xlink:href="#BitstreamVeraSans-Roman-30"/>
       <use x="127.24609375" xlink:href="#BitstreamVeraSans-Roman-30"/>
      </g>
     </g>
    </g>
    <g id="ytick_3">
     <g id="line2d_21">
      <g>
       <use style="stroke:#000000;stroke-width:0.5;" x="54.0" xlink:href="#m80950ed0d1" y="196.2"/>
      </g>
     </g>
     <g id="line2d_22">
      <g>
       <use style="stroke:#000000;stroke-width:0.5;" x="388.8" xlink:href="#m0536a68db4" y="196.2"/>
      </g>
     </g>
     <g id="text_12">
      <!-- 1000 -->
      <g transform="translate(24.55 198.959375)scale(0.1 -0.1)">
       <use xlink:href="#BitstreamVeraSans-Roman-31"/>
       <use x="63.623046875" xlink:href="#BitstreamVeraSans-Roman-30"/>
       <use x="127.24609375" xlink:href="#BitstreamVeraSans-Roman-30"/>
       <use x="190.869140625" xlink:href="#BitstreamVeraSans-Roman-30"/>
      </g>
     </g>
    </g>
    <g id="ytick_4">
     <g id="line2d_23">
      <g>
       <use style="stroke:#000000;stroke-width:0.5;" x="54.0" xlink:href="#m80950ed0d1" y="168.3"/>
      </g>
     </g>
     <g id="line2d_24">
      <g>
       <use style="stroke:#000000;stroke-width:0.5;" x="388.8" xlink:href="#m0536a68db4" y="168.3"/>
      </g>
     </g>
     <g id="text_13">
      <!-- 1500 -->
      <g transform="translate(24.55 171.059375)scale(0.1 -0.1)">
       <use xlink:href="#BitstreamVeraSans-Roman-31"/>
       <use x="63.623046875" xlink:href="#BitstreamVeraSans-Roman-35"/>
       <use x="127.24609375" xlink:href="#BitstreamVeraSans-Roman-30"/>
       <use x="190.869140625" xlink:href="#BitstreamVeraSans-Roman-30"/>
      </g>
     </g>
    </g>
    <g id="ytick_5">
     <g id="line2d_25">
      <g>
       <use style="stroke:#000000;stroke-width:0.5;" x="54.0" xlink:href="#m80950ed0d1" y="140.4"/>
      </g>
     </g>
     <g id="line2d_26">
      <g>
       <use style="stroke:#000000;stroke-width:0.5;" x="388.8" xlink:href="#m0536a68db4" y="140.4"/>
      </g>
     </g>
     <g id="text_14">
      <!-- 2000 -->
      <defs>
       <path d="M 19.1875 8.296875 
L 53.609375 8.296875 
L 53.609375 0 
L 7.328125 0 
L 7.328125 8.296875 
Q 12.9375 14.109375 22.625 23.890625 
Q 32.328125 33.6875 34.8125 36.53125 
Q 39.546875 41.84375 41.421875 45.53125 
Q 43.3125 49.21875 43.3125 52.78125 
Q 43.3125 58.59375 39.234375 62.25 
Q 35.15625 65.921875 28.609375 65.921875 
Q 23.96875 65.921875 18.8125 64.3125 
Q 13.671875 62.703125 7.8125 59.421875 
L 7.8125 69.390625 
Q 13.765625 71.78125 18.9375 73 
Q 24.125 74.21875 28.421875 74.21875 
Q 39.75 74.21875 46.484375 68.546875 
Q 53.21875 62.890625 53.21875 53.421875 
Q 53.21875 48.921875 51.53125 44.890625 
Q 49.859375 40.875 45.40625 35.40625 
Q 44.1875 33.984375 37.640625 27.21875 
Q 31.109375 20.453125 19.1875 8.296875 
" id="BitstreamVeraSans-Roman-32"/>
      </defs>
      <g transform="translate(24.55 143.159375)scale(0.1 -0.1)">
       <use xlink:href="#BitstreamVeraSans-Roman-32"/>
       <use x="63.623046875" xlink:href="#BitstreamVeraSans-Roman-30"/>
       <use x="127.24609375" xlink:href="#BitstreamVeraSans-Roman-30"/>
       <use x="190.869140625" xlink:href="#BitstreamVeraSans-Roman-30"/>
      </g>
     </g>
    </g>
    <g id="ytick_6">
     <g id="line2d_27">
      <g>
       <use style="stroke:#000000;stroke-width:0.5;" x="54.0" xlink:href="#m80950ed0d1" y="112.5"/>
      </g>
     </g>
     <g id="line2d_28">
      <g>
       <use style="stroke:#000000;stroke-width:0.5;" x="388.8" xlink:href="#m0536a68db4" y="112.5"/>
      </g>
     </g>
     <g id="text_15">
      <!-- 2500 -->
      <g transform="translate(24.55 115.259375)scale(0.1 -0.1)">
       <use xlink:href="#BitstreamVeraSans-Roman-32"/>
       <use x="63.623046875" xlink:href="#BitstreamVeraSans-Roman-35"/>
       <use x="127.24609375" xlink:href="#BitstreamVeraSans-Roman-30"/>
       <use x="190.869140625" xlink:href="#BitstreamVeraSans-Roman-30"/>
      </g>
     </g>
    </g>
    <g id="ytick_7">
     <g id="line2d_29">
      <g>
       <use style="stroke:#000000;stroke-width:0.5;" x="54.0" xlink:href="#m80950ed0d1" y="84.6"/>
      </g>
     </g>
     <g id="line2d_30">
      <g>
       <use style="stroke:#000000;stroke-width:0.5;" x="388.8" xlink:href="#m0536a68db4" y="84.6"/>
      </g>
     </g>
     <g id="text_16">
      <!-- 3000 -->
      <defs>
       <path d="M 40.578125 39.3125 
Q 47.65625 37.796875 51.625 33 
Q 55.609375 28.21875 55.609375 21.1875 
Q 55.609375 10.40625 48.1875 4.484375 
Q 40.765625 -1.421875 27.09375 -1.421875 
Q 22.515625 -1.421875 17.65625 -0.515625 
Q 12.796875 0.390625 7.625 2.203125 
L 7.625 11.71875 
Q 11.71875 9.328125 16.59375 8.109375 
Q 21.484375 6.890625 26.8125 6.890625 
Q 36.078125 6.890625 40.9375 10.546875 
Q 45.796875 14.203125 45.796875 21.1875 
Q 45.796875 27.640625 41.28125 31.265625 
Q 36.765625 34.90625 28.71875 34.90625 
L 20.21875 34.90625 
L 20.21875 43.015625 
L 29.109375 43.015625 
Q 36.375 43.015625 40.234375 45.921875 
Q 44.09375 48.828125 44.09375 54.296875 
Q 44.09375 59.90625 40.109375 62.90625 
Q 36.140625 65.921875 28.71875 65.921875 
Q 24.65625 65.921875 20.015625 65.03125 
Q 15.375 64.15625 9.8125 62.3125 
L 9.8125 71.09375 
Q 15.4375 72.65625 20.34375 73.4375 
Q 25.25 74.21875 29.59375 74.21875 
Q 40.828125 74.21875 47.359375 69.109375 
Q 53.90625 64.015625 53.90625 55.328125 
Q 53.90625 49.265625 50.4375 45.09375 
Q 46.96875 40.921875 40.578125 39.3125 
" id="BitstreamVeraSans-Roman-33"/>
      </defs>
      <g transform="translate(24.55 87.359375)scale(0.1 -0.1)">
       <use xlink:href="#BitstreamVeraSans-Roman-33"/>
       <use x="63.623046875" xlink:href="#BitstreamVeraSans-Roman-30"/>
       <use x="127.24609375" xlink:href="#BitstreamVeraSans-Roman-30"/>
       <use x="190.869140625" xlink:href="#BitstreamVeraSans-Roman-30"/>
      </g>
     </g>
    </g>
    <g id="ytick_8">
     <g id="line2d_31">
      <g>
       <use style="stroke:#000000;stroke-width:0.5;" x="54.0" xlink:href="#m80950ed0d1" y="56.7"/>
      </g>
     </g>
     <g id="line2d_32">
      <g>
       <use style="stroke:#000000;stroke-width:0.5;" x="388.8" xlink:href="#m0536a68db4" y="56.7"/>
      </g>
     </g>
     <g id="text_17">
      <!-- 3500 -->
      <g transform="translate(24.55 59.459375)scale(0.1 -0.1)">
       <use xlink:href="#BitstreamVeraSans-Roman-33"/>
       <use x="63.623046875" xlink:href="#BitstreamVeraSans-Roman-35"/>
       <use x="127.24609375" xlink:href="#BitstreamVeraSans-Roman-30"/>
       <use x="190.869140625" xlink:href="#BitstreamVeraSans-Roman-30"/>
      </g>
     </g>
    </g>
    <g id="ytick_9">
     <g id="line2d_33">
      <g>
       <use style="stroke:#000000;stroke-width:0.5;" x="54.0" xlink:href="#m80950ed0d1" y="28.8"/>
      </g>
     </g>
     <g id="line2d_34">
      <g>
       <use style="stroke:#000000;stroke-width:0.5;" x="388.8" xlink:href="#m0536a68db4" y="28.8"/>
      </g>
     </g>
     <g id="text_18">
      <!-- 4000 -->
      <defs>
       <path d="M 37.796875 64.3125 
L 12.890625 25.390625 
L 37.796875 25.390625 
z
M 35.203125 72.90625 
L 47.609375 72.90625 
L 47.609375 25.390625 
L 58.015625 25.390625 
L 58.015625 17.1875 
L 47.609375 17.1875 
L 47.609375 0 
L 37.796875 0 
L 37.796875 17.1875 
L 4.890625 17.1875 
L 4.890625 26.703125 
z
" id="BitstreamVeraSans-Roman-34"/>
      </defs>
      <g transform="translate(24.55 31.559375)scale(0.1 -0.1)">
       <use xlink:href="#BitstreamVeraSans-Roman-34"/>
       <use x="63.623046875" xlink:href="#BitstreamVeraSans-Roman-30"/>
       <use x="127.24609375" xlink:href="#BitstreamVeraSans-Roman-30"/>
       <use x="190.869140625" xlink:href="#BitstreamVeraSans-Roman-30"/>
      </g>
     </g>
    </g>
    <g id="text_19">
     <!-- n -->
     <defs>
      <path d="M 54.890625 33.015625 
L 54.890625 0 
L 45.90625 0 
L 45.90625 32.71875 
Q 45.90625 40.484375 42.875 44.328125 
Q 39.84375 48.1875 33.796875 48.1875 
Q 26.515625 48.1875 22.3125 43.546875 
Q 18.109375 38.921875 18.109375 30.90625 
L 18.109375 0 
L 9.078125 0 
L 9.078125 54.6875 
L 18.109375 54.6875 
L 18.109375 46.1875 
Q 21.34375 51.125 25.703125 53.5625 
Q 30.078125 56 35.796875 56 
Q 45.21875 56 50.046875 50.171875 
Q 54.890625 44.34375 54.890625 33.015625 
" id="BitstreamVeraSans-Roman-6e"/>
     </defs>
     <g transform="translate(17.4703125 143.56875)rotate(-90.0)scale(0.1 -0.1)">
      <use xlink:href="#BitstreamVeraSans-Roman-6e"/>
     </g>
    </g>
   </g>
   <g id="legend_1">
    <g id="patch_9">
     <path d="M 60 246 
L 172.359375 246 
L 172.359375 207.1725 
L 60 207.1725 
z
" style="fill:#ffffff;stroke:#000000;stroke-linejoin:miter;"/>
    </g>
    <g id="patch_10">
     <path d="M 64.8 221.090625 
L 88.8 221.090625 
L 88.8 212.690625 
L 64.8 212.690625 
z
" style="fill:#8b0000;stroke:#000000;stroke-linejoin:miter;"/>
    </g>
    <g id="text_20">
     <!-- Pole 1 ages -->
     <defs>
      <path d="M 19.671875 64.796875 
L 19.671875 37.40625 
L 32.078125 37.40625 
Q 38.96875 37.40625 42.71875 40.96875 
Q 46.484375 44.53125 46.484375 51.125 
Q 46.484375 57.671875 42.71875 61.234375 
Q 38.96875 64.796875 32.078125 64.796875 
z
M 9.8125 72.90625 
L 32.078125 72.90625 
Q 44.34375 72.90625 50.609375 67.359375 
Q 56.890625 61.8125 56.890625 51.125 
Q 56.890625 40.328125 50.609375 34.8125 
Q 44.34375 29.296875 32.078125 29.296875 
L 19.671875 29.296875 
L 19.671875 0 
L 9.8125 0 
z
" id="BitstreamVeraSans-Roman-50"/>
      <path d="M 30.609375 48.390625 
Q 23.390625 48.390625 19.1875 42.75 
Q 14.984375 37.109375 14.984375 27.296875 
Q 14.984375 17.484375 19.15625 11.84375 
Q 23.34375 6.203125 30.609375 6.203125 
Q 37.796875 6.203125 41.984375 11.859375 
Q 46.1875 17.53125 46.1875 27.296875 
Q 46.1875 37.015625 41.984375 42.703125 
Q 37.796875 48.390625 30.609375 48.390625 
M 30.609375 56 
Q 42.328125 56 49.015625 48.375 
Q 55.71875 40.765625 55.71875 27.296875 
Q 55.71875 13.875 49.015625 6.21875 
Q 42.328125 -1.421875 30.609375 -1.421875 
Q 18.84375 -1.421875 12.171875 6.21875 
Q 5.515625 13.875 5.515625 27.296875 
Q 5.515625 40.765625 12.171875 48.375 
Q 18.84375 56 30.609375 56 
" id="BitstreamVeraSans-Roman-6f"/>
      <path d="M 44.28125 53.078125 
L 44.28125 44.578125 
Q 40.484375 46.53125 36.375 47.5 
Q 32.28125 48.484375 27.875 48.484375 
Q 21.1875 48.484375 17.84375 46.4375 
Q 14.5 44.390625 14.5 40.28125 
Q 14.5 37.15625 16.890625 35.375 
Q 19.28125 33.59375 26.515625 31.984375 
L 29.59375 31.296875 
Q 39.15625 29.25 43.1875 25.515625 
Q 47.21875 21.78125 47.21875 15.09375 
Q 47.21875 7.46875 41.1875 3.015625 
Q 35.15625 -1.421875 24.609375 -1.421875 
Q 20.21875 -1.421875 15.453125 -0.5625 
Q 10.6875 0.296875 5.421875 2 
L 5.421875 11.28125 
Q 10.40625 8.6875 15.234375 7.390625 
Q 20.0625 6.109375 24.8125 6.109375 
Q 31.15625 6.109375 34.5625 8.28125 
Q 37.984375 10.453125 37.984375 14.40625 
Q 37.984375 18.0625 35.515625 20.015625 
Q 33.0625 21.96875 24.703125 23.78125 
L 21.578125 24.515625 
Q 13.234375 26.265625 9.515625 29.90625 
Q 5.8125 33.546875 5.8125 39.890625 
Q 5.8125 47.609375 11.28125 51.796875 
Q 16.75 56 26.8125 56 
Q 31.78125 56 36.171875 55.265625 
Q 40.578125 54.546875 44.28125 53.078125 
" id="BitstreamVeraSans-Roman-73"/>
      <path d="M 9.421875 75.984375 
L 18.40625 75.984375 
L 18.40625 0 
L 9.421875 0 
z
" id="BitstreamVeraSans-Roman-6c"/>
     </defs>
     <g transform="translate(98.4 221.090625)scale(0.12 -0.12)">
      <use xlink:href="#BitstreamVeraSans-Roman-50"/>
      <use x="60.255859375" xlink:href="#BitstreamVeraSans-Roman-6f"/>
      <use x="121.4375" xlink:href="#BitstreamVeraSans-Roman-6c"/>
      <use x="149.220703125" xlink:href="#BitstreamVeraSans-Roman-65"/>
      <use x="210.744140625" xlink:href="#BitstreamVeraSans-Roman-20"/>
      <use x="242.53125" xlink:href="#BitstreamVeraSans-Roman-31"/>
      <use x="306.154296875" xlink:href="#BitstreamVeraSans-Roman-20"/>
      <use x="337.94140625" xlink:href="#BitstreamVeraSans-Roman-61"/>
      <use x="399.220703125" xlink:href="#BitstreamVeraSans-Roman-67"/>
      <use x="462.697265625" xlink:href="#BitstreamVeraSans-Roman-65"/>
      <use x="524.220703125" xlink:href="#BitstreamVeraSans-Roman-73"/>
     </g>
    </g>
    <g id="patch_11">
     <path d="M 64.8 238.704375 
L 88.8 238.704375 
L 88.8 230.304375 
L 64.8 230.304375 
z
" style="fill:#00008b;stroke:#000000;stroke-linejoin:miter;"/>
    </g>
    <g id="text_21">
     <!-- Pole 2 ages -->
     <g transform="translate(98.4 238.704375)scale(0.12 -0.12)">
      <use xlink:href="#BitstreamVeraSans-Roman-50"/>
      <use x="60.255859375" xlink:href="#BitstreamVeraSans-Roman-6f"/>
      <use x="121.4375" xlink:href="#BitstreamVeraSans-Roman-6c"/>
      <use x="149.220703125" xlink:href="#BitstreamVeraSans-Roman-65"/>
      <use x="210.744140625" xlink:href="#BitstreamVeraSans-Roman-20"/>
      <use x="242.53125" xlink:href="#BitstreamVeraSans-Roman-32"/>
      <use x="306.154296875" xlink:href="#BitstreamVeraSans-Roman-20"/>
      <use x="337.94140625" xlink:href="#BitstreamVeraSans-Roman-61"/>
      <use x="399.220703125" xlink:href="#BitstreamVeraSans-Roman-67"/>
      <use x="462.697265625" xlink:href="#BitstreamVeraSans-Roman-65"/>
      <use x="524.220703125" xlink:href="#BitstreamVeraSans-Roman-73"/>
     </g>
    </g>
   </g>
  </g>
 </g>
 <defs>
  <clipPath id="p4813272e91">
   <rect height="223.2" width="334.8" x="54.0" y="28.8"/>
  </clipPath>
 </defs>
</svg>
