<?xml version="1.0" encoding="utf-8" standalone="no"?>
<!DOCTYPE svg PUBLIC "-//W3C//DTD SVG 1.1//EN"
  "http://www.w3.org/Graphics/SVG/1.1/DTD/svg11.dtd">
<!-- Created with matplotlib (http://matplotlib.org/) -->
<svg height="288pt" version="1.1" viewBox="0 0 432 288" width="432pt" xmlns="http://www.w3.org/2000/svg" xmlns:xlink="http://www.w3.org/1999/xlink">
 <defs>
  <style type="text/css">
*{stroke-linecap:butt;stroke-linejoin:round;stroke-miterlimit:100000;}
  </style>
 </defs>
 <g id="figure_1">
  <g id="patch_1">
   <path d="M 0 288 
L 432 288 
L 432 0 
L 0 0 
z
" style="fill:#ffffff;"/>
  </g>
  <g id="axes_1">
   <g id="patch_2">
    <path d="M 54 252 
L 388.8 252 
L 388.8 28.8 
L 54 28.8 
z
" style="fill:#ffffff;"/>
   </g>
   <g id="patch_3">
    <path clip-path="url(#pdc8f871b8d)" d="M 247.058106 252 
L 247.058106 251.9442 
L 248.02788 251.9442 
L 248.02788 252 
L 248.997654 252 
L 248.997654 252 
L 249.967429 252 
L 249.967429 251.8884 
L 250.937203 251.8884 
L 250.937203 252 
L 251.906977 252 
L 251.906977 252 
L 252.876751 252 
L 252.876751 252 
L 253.846525 252 
L 253.846525 251.8326 
L 254.816299 251.8326 
L 254.816299 251.6652 
L 255.786073 251.6652 
L 255.786073 251.7768 
L 256.755847 251.7768 
L 256.755847 251.6094 
L 257.725621 251.6094 
L 257.725621 251.4978 
L 258.695395 251.4978 
L 258.695395 251.2746 
L 259.665169 251.2746 
L 259.665169 251.2188 
L 260.634943 251.2188 
L 260.634943 250.605 
L 261.604717 250.605 
L 261.604717 250.326 
L 262.574491 250.326 
L 262.574491 249.4332 
L 263.544265 249.4332 
L 263.544265 249.0984 
L 264.514039 249.0984 
L 264.514039 248.8752 
L 265.483813 248.8752 
L 265.483813 245.6388 
L 266.453587 245.6388 
L 266.453587 245.583 
L 267.423362 245.583 
L 267.423362 243.6858 
L 268.393136 243.6858 
L 268.393136 242.0676 
L 269.36291 242.0676 
L 269.36291 242.235 
L 270.332684 242.235 
L 270.332684 236.0412 
L 271.302458 236.0412 
L 271.302458 234.0324 
L 272.272232 234.0324 
L 272.272232 229.9032 
L 273.242006 229.9032 
L 273.242006 228.006 
L 274.21178 228.006 
L 274.21178 221.9796 
L 275.181554 221.9796 
L 275.181554 218.0178 
L 276.151328 218.0178 
L 276.151328 207.9738 
L 277.121102 207.9738 
L 277.121102 205.5186 
L 278.090876 205.5186 
L 278.090876 190.7874 
L 279.06065 190.7874 
L 279.06065 185.2632 
L 280.030424 185.2632 
L 280.030424 176.949 
L 281.000198 176.949 
L 281.000198 169.137 
L 281.969972 169.137 
L 281.969972 161.7714 
L 282.939746 161.7714 
L 282.939746 150.2208 
L 283.90952 150.2208 
L 283.90952 140.8464 
L 284.879294 140.8464 
L 284.879294 125.2224 
L 285.849069 125.2224 
L 285.849069 117.1872 
L 286.818843 117.1872 
L 286.818843 109.0962 
L 287.788617 109.0962 
L 287.788617 100.1124 
L 288.758391 100.1124 
L 288.758391 90.18 
L 289.728165 90.18 
L 289.728165 82.5912 
L 290.697939 82.5912 
L 290.697939 70.65 
L 291.667713 70.65 
L 291.667713 67.6368 
L 292.637487 67.6368 
L 292.637487 66.186 
L 293.607261 66.186 
L 293.607261 61.9452 
L 294.577035 61.9452 
L 294.577035 54.5238 
L 295.546809 54.5238 
L 295.546809 57.7602 
L 296.516583 57.7602 
L 296.516583 56.8674 
L 297.486357 56.8674 
L 297.486357 62.3916 
L 298.456131 62.3916 
L 298.456131 64.5678 
L 299.425905 64.5678 
L 299.425905 66.186 
L 300.395679 66.186 
L 300.395679 77.067 
L 301.365453 77.067 
L 301.365453 82.647 
L 302.335227 82.647 
L 302.335227 92.4678 
L 303.305001 92.4678 
L 303.305001 100.8936 
L 304.274776 100.8936 
L 304.274776 107.757 
L 305.24455 107.757 
L 305.24455 118.9728 
L 306.214324 118.9728 
L 306.214324 126.3942 
L 307.184098 126.3942 
L 307.184098 137.7216 
L 308.153872 137.7216 
L 308.153872 148.9932 
L 309.123646 148.9932 
L 309.123646 161.2134 
L 310.09342 161.2134 
L 310.09342 169.0812 
L 311.063194 169.0812 
L 311.063194 182.4174 
L 312.032968 182.4174 
L 312.032968 186.4908 
L 313.002742 186.4908 
L 313.002742 196.9254 
L 313.972516 196.9254 
L 313.972516 203.2308 
L 314.94229 203.2308 
L 314.94229 212.6052 
L 315.912064 212.6052 
L 315.912064 217.1808 
L 316.881838 217.1808 
L 316.881838 223.821 
L 317.851612 223.821 
L 317.851612 226.611 
L 318.821386 226.611 
L 318.821386 230.7402 
L 319.79116 230.7402 
L 319.79116 236.8782 
L 320.760934 236.8782 
L 320.760934 236.2086 
L 321.730708 236.2086 
L 321.730708 239.5566 
L 322.700483 239.5566 
L 322.700483 243.1278 
L 323.670257 243.1278 
L 323.670257 245.1924 
L 324.640031 245.1924 
L 324.640031 247.2012 
L 325.609805 247.2012 
L 325.609805 246.9222 
L 326.579579 246.9222 
L 326.579579 247.7034 
L 327.549353 247.7034 
L 327.549353 248.9868 
L 328.519127 248.9868 
L 328.519127 249.3216 
L 329.488901 249.3216 
L 329.488901 250.6608 
L 330.458675 250.6608 
L 330.458675 250.9398 
L 331.428449 250.9398 
L 331.428449 251.163 
L 332.398223 251.163 
L 332.398223 251.2188 
L 333.367997 251.2188 
L 333.367997 251.3304 
L 334.337771 251.3304 
L 334.337771 251.4978 
L 335.307545 251.4978 
L 335.307545 251.6652 
L 336.277319 251.6652 
L 336.277319 251.8884 
L 337.247093 251.8884 
L 337.247093 251.8884 
L 338.216867 251.8884 
L 338.216867 251.8884 
L 339.186641 251.8884 
L 339.186641 251.8326 
L 340.156415 251.8326 
L 340.156415 252 
L 341.12619 252 
L 341.12619 252 
L 342.095964 252 
L 342.095964 251.9442 
L 343.065738 251.9442 
L 343.065738 251.9442 
L 344.035512 251.9442 
L 344.035512 252 
L 343.065738 252 
L 343.065738 252 
L 342.095964 252 
L 342.095964 252 
L 341.12619 252 
L 341.12619 252 
L 340.156415 252 
L 340.156415 252 
L 339.186641 252 
L 339.186641 252 
L 338.216867 252 
L 338.216867 252 
L 337.247093 252 
L 337.247093 252 
L 336.277319 252 
L 336.277319 252 
L 335.307545 252 
L 335.307545 252 
L 334.337771 252 
L 334.337771 252 
L 333.367997 252 
L 333.367997 252 
L 332.398223 252 
L 332.398223 252 
L 331.428449 252 
L 331.428449 252 
L 330.458675 252 
L 330.458675 252 
L 329.488901 252 
L 329.488901 252 
L 328.519127 252 
L 328.519127 252 
L 327.549353 252 
L 327.549353 252 
L 326.579579 252 
L 326.579579 252 
L 325.609805 252 
L 325.609805 252 
L 324.640031 252 
L 324.640031 252 
L 323.670257 252 
L 323.670257 252 
L 322.700483 252 
L 322.700483 252 
L 321.730708 252 
L 321.730708 252 
L 320.760934 252 
L 320.760934 252 
L 319.79116 252 
L 319.79116 252 
L 318.821386 252 
L 318.821386 252 
L 317.851612 252 
L 317.851612 252 
L 316.881838 252 
L 316.881838 252 
L 315.912064 252 
L 315.912064 252 
L 314.94229 252 
L 314.94229 252 
L 313.972516 252 
L 313.972516 252 
L 313.002742 252 
L 313.002742 252 
L 312.032968 252 
L 312.032968 252 
L 311.063194 252 
L 311.063194 252 
L 310.09342 252 
L 310.09342 252 
L 309.123646 252 
L 309.123646 252 
L 308.153872 252 
L 308.153872 252 
L 307.184098 252 
L 307.184098 252 
L 306.214324 252 
L 306.214324 252 
L 305.24455 252 
L 305.24455 252 
L 304.274776 252 
L 304.274776 252 
L 303.305001 252 
L 303.305001 252 
L 302.335227 252 
L 302.335227 252 
L 301.365453 252 
L 301.365453 252 
L 300.395679 252 
L 300.395679 252 
L 299.425905 252 
L 299.425905 252 
L 298.456131 252 
L 298.456131 252 
L 297.486357 252 
L 297.486357 252 
L 296.516583 252 
L 296.516583 252 
L 295.546809 252 
L 295.546809 252 
L 294.577035 252 
L 294.577035 252 
L 293.607261 252 
L 293.607261 252 
L 292.637487 252 
L 292.637487 252 
L 291.667713 252 
L 291.667713 252 
L 290.697939 252 
L 290.697939 252 
L 289.728165 252 
L 289.728165 252 
L 288.758391 252 
L 288.758391 252 
L 287.788617 252 
L 287.788617 252 
L 286.818843 252 
L 286.818843 252 
L 285.849069 252 
L 285.849069 252 
L 284.879294 252 
L 284.879294 252 
L 283.90952 252 
L 283.90952 252 
L 282.939746 252 
L 282.939746 252 
L 281.969972 252 
L 281.969972 252 
L 281.000198 252 
L 281.000198 252 
L 280.030424 252 
L 280.030424 252 
L 279.06065 252 
L 279.06065 252 
L 278.090876 252 
L 278.090876 252 
L 277.121102 252 
L 277.121102 252 
L 276.151328 252 
L 276.151328 252 
L 275.181554 252 
L 275.181554 252 
L 274.21178 252 
L 274.21178 252 
L 273.242006 252 
L 273.242006 252 
L 272.272232 252 
L 272.272232 252 
L 271.302458 252 
L 271.302458 252 
L 270.332684 252 
L 270.332684 252 
L 269.36291 252 
L 269.36291 252 
L 268.393136 252 
L 268.393136 252 
L 267.423362 252 
L 267.423362 252 
L 266.453587 252 
L 266.453587 252 
L 265.483813 252 
L 265.483813 252 
L 264.514039 252 
L 264.514039 252 
L 263.544265 252 
L 263.544265 252 
L 262.574491 252 
L 262.574491 252 
L 261.604717 252 
L 261.604717 252 
L 260.634943 252 
L 260.634943 252 
L 259.665169 252 
L 259.665169 252 
L 258.695395 252 
L 258.695395 252 
L 257.725621 252 
L 257.725621 252 
L 256.755847 252 
L 256.755847 252 
L 255.786073 252 
L 255.786073 252 
L 254.816299 252 
L 254.816299 252 
L 253.846525 252 
L 253.846525 252 
L 252.876751 252 
L 252.876751 252 
L 251.906977 252 
L 251.906977 252 
L 250.937203 252 
L 250.937203 252 
L 249.967429 252 
L 249.967429 252 
L 248.997654 252 
L 248.997654 252 
L 248.02788 252 
L 248.02788 252 
z
" style="fill:#8b0000;stroke:#000000;stroke-linejoin:miter;"/>
   </g>
   <g id="patch_4">
    <path clip-path="url(#pdc8f871b8d)" d="M 83.262219 252 
L 83.262219 251.8884 
L 83.354304 251.8884 
L 83.354304 252 
L 83.446389 252 
L 83.446389 251.8884 
L 83.538474 251.8884 
L 83.538474 251.8326 
L 83.630558 251.8326 
L 83.630558 251.6652 
L 83.722643 251.6652 
L 83.722643 251.4978 
L 83.814728 251.4978 
L 83.814728 251.7768 
L 83.906813 251.7768 
L 83.906813 251.3304 
L 83.998898 251.3304 
L 83.998898 251.0514 
L 84.090983 251.0514 
L 84.090983 251.163 
L 84.183068 251.163 
L 84.183068 250.4376 
L 84.275152 250.4376 
L 84.275152 250.2144 
L 84.367237 250.2144 
L 84.367237 248.9868 
L 84.459322 248.9868 
L 84.459322 248.5962 
L 84.551407 248.5962 
L 84.551407 248.4846 
L 84.643492 248.4846 
L 84.643492 247.257 
L 84.735577 247.257 
L 84.735577 246.3084 
L 84.827662 246.3084 
L 84.827662 245.304 
L 84.919746 245.304 
L 84.919746 243.0162 
L 85.011831 243.0162 
L 85.011831 240.0588 
L 85.103916 240.0588 
L 85.103916 238.9986 
L 85.196001 238.9986 
L 85.196001 235.2042 
L 85.288086 235.2042 
L 85.288086 233.3628 
L 85.380171 233.3628 
L 85.380171 228.4524 
L 85.472256 228.4524 
L 85.472256 225.2718 
L 85.56434 225.2718 
L 85.56434 217.962 
L 85.656425 217.962 
L 85.656425 214.1676 
L 85.74851 214.1676 
L 85.74851 209.0898 
L 85.840595 209.0898 
L 85.840595 203.9004 
L 85.93268 203.9004 
L 85.93268 194.805 
L 86.024765 194.805 
L 86.024765 184.3146 
L 86.11685 184.3146 
L 86.11685 177.1722 
L 86.208934 177.1722 
L 86.208934 166.7934 
L 86.301019 166.7934 
L 86.301019 160.3206 
L 86.393104 160.3206 
L 86.393104 149.7186 
L 86.485189 149.7186 
L 86.485189 144.3618 
L 86.577274 144.3618 
L 86.577274 131.5278 
L 86.669359 131.5278 
L 86.669359 126.6732 
L 86.761444 126.6732 
L 86.761444 116.6292 
L 86.853529 116.6292 
L 86.853529 104.5764 
L 86.945613 104.5764 
L 86.945613 101.5074 
L 87.037698 101.5074 
L 87.037698 92.6352 
L 87.129783 92.6352 
L 87.129783 86.3856 
L 87.221868 86.3856 
L 87.221868 75.5604 
L 87.313953 75.5604 
L 87.313953 74.4444 
L 87.406038 74.4444 
L 87.406038 73.161 
L 87.498123 73.161 
L 87.498123 77.1786 
L 87.590207 77.1786 
L 87.590207 64.1772 
L 87.682292 64.1772 
L 87.682292 69.813 
L 87.774377 69.813 
L 87.774377 70.2036 
L 87.866462 70.2036 
L 87.866462 70.5384 
L 87.958547 70.5384 
L 87.958547 68.8086 
L 88.050632 68.8086 
L 88.050632 77.1228 
L 88.142717 77.1228 
L 88.142717 84.4326 
L 88.234801 84.4326 
L 88.234801 90.18 
L 88.326886 90.18 
L 88.326886 95.8716 
L 88.418971 95.8716 
L 88.418971 105.804 
L 88.511056 105.804 
L 88.511056 116.685 
L 88.603141 116.685 
L 88.603141 124.0506 
L 88.695226 124.0506 
L 88.695226 136.773 
L 88.787311 136.773 
L 88.787311 144.585 
L 88.879395 144.585 
L 88.879395 157.8096 
L 88.97148 157.8096 
L 88.97148 166.1796 
L 89.063565 166.1796 
L 89.063565 172.8198 
L 89.15565 172.8198 
L 89.15565 184.2588 
L 89.247735 184.2588 
L 89.247735 190.8432 
L 89.33982 190.8432 
L 89.33982 196.9812 
L 89.431905 196.9812 
L 89.431905 200.4966 
L 89.523989 200.4966 
L 89.523989 209.9826 
L 89.616074 209.9826 
L 89.616074 214.8372 
L 89.708159 214.8372 
L 89.708159 219.5244 
L 89.800244 219.5244 
L 89.800244 225.6066 
L 89.892329 225.6066 
L 89.892329 229.401 
L 89.984414 229.401 
L 89.984414 232.8048 
L 90.076499 232.8048 
L 90.076499 236.7108 
L 90.168583 236.7108 
L 90.168583 238.4406 
L 90.260668 238.4406 
L 90.260668 241.7328 
L 90.352753 241.7328 
L 90.352753 243.4626 
L 90.444838 243.4626 
L 90.444838 244.5786 
L 90.536923 244.5786 
L 90.536923 245.6946 
L 90.629008 245.6946 
L 90.629008 246.8106 
L 90.721093 246.8106 
L 90.721093 247.9824 
L 90.813177 247.9824 
L 90.813177 249.9354 
L 90.905262 249.9354 
L 90.905262 250.1586 
L 90.997347 250.1586 
L 90.997347 250.1586 
L 91.089432 250.1586 
L 91.089432 250.605 
L 91.181517 250.605 
L 91.181517 251.3304 
L 91.273602 251.3304 
L 91.273602 251.2746 
L 91.365687 251.2746 
L 91.365687 251.2746 
L 91.457771 251.2746 
L 91.457771 251.5536 
L 91.549856 251.5536 
L 91.549856 251.721 
L 91.641941 251.721 
L 91.641941 251.8326 
L 91.734026 251.8326 
L 91.734026 252 
L 91.826111 252 
L 91.826111 251.8326 
L 91.918196 251.8326 
L 91.918196 251.8884 
L 92.010281 251.8884 
L 92.010281 251.721 
L 92.102365 251.721 
L 92.102365 251.9442 
L 92.19445 251.9442 
L 92.19445 251.9442 
L 92.286535 251.9442 
L 92.286535 251.9442 
L 92.37862 251.9442 
L 92.37862 251.9442 
L 92.470705 251.9442 
L 92.470705 252 
L 92.37862 252 
L 92.37862 252 
L 92.286535 252 
L 92.286535 252 
L 92.19445 252 
L 92.19445 252 
L 92.102365 252 
L 92.102365 252 
L 92.010281 252 
L 92.010281 252 
L 91.918196 252 
L 91.918196 252 
L 91.826111 252 
L 91.826111 252 
L 91.734026 252 
L 91.734026 252 
L 91.641941 252 
L 91.641941 252 
L 91.549856 252 
L 91.549856 252 
L 91.457771 252 
L 91.457771 252 
L 91.365687 252 
L 91.365687 252 
L 91.273602 252 
L 91.273602 252 
L 91.181517 252 
L 91.181517 252 
L 91.089432 252 
L 91.089432 252 
L 90.997347 252 
L 90.997347 252 
L 90.905262 252 
L 90.905262 252 
L 90.813177 252 
L 90.813177 252 
L 90.721093 252 
L 90.721093 252 
L 90.629008 252 
L 90.629008 252 
L 90.536923 252 
L 90.536923 252 
L 90.444838 252 
L 90.444838 252 
L 90.352753 252 
L 90.352753 252 
L 90.260668 252 
L 90.260668 252 
L 90.168583 252 
L 90.168583 252 
L 90.076499 252 
L 90.076499 252 
L 89.984414 252 
L 89.984414 252 
L 89.892329 252 
L 89.892329 252 
L 89.800244 252 
L 89.800244 252 
L 89.708159 252 
L 89.708159 252 
L 89.616074 252 
L 89.616074 252 
L 89.523989 252 
L 89.523989 252 
L 89.431905 252 
L 89.431905 252 
L 89.33982 252 
L 89.33982 252 
L 89.247735 252 
L 89.247735 252 
L 89.15565 252 
L 89.15565 252 
L 89.063565 252 
L 89.063565 252 
L 88.97148 252 
L 88.97148 252 
L 88.879395 252 
L 88.879395 252 
L 88.787311 252 
L 88.787311 252 
L 88.695226 252 
L 88.695226 252 
L 88.603141 252 
L 88.603141 252 
L 88.511056 252 
L 88.511056 252 
L 88.418971 252 
L 88.418971 252 
L 88.326886 252 
L 88.326886 252 
L 88.234801 252 
L 88.234801 252 
L 88.142717 252 
L 88.142717 252 
L 88.050632 252 
L 88.050632 252 
L 87.958547 252 
L 87.958547 252 
L 87.866462 252 
L 87.866462 252 
L 87.774377 252 
L 87.774377 252 
L 87.682292 252 
L 87.682292 252 
L 87.590207 252 
L 87.590207 252 
L 87.498123 252 
L 87.498123 252 
L 87.406038 252 
L 87.406038 252 
L 87.313953 252 
L 87.313953 252 
L 87.221868 252 
L 87.221868 252 
L 87.129783 252 
L 87.129783 252 
L 87.037698 252 
L 87.037698 252 
L 86.945613 252 
L 86.945613 252 
L 86.853529 252 
L 86.853529 252 
L 86.761444 252 
L 86.761444 252 
L 86.669359 252 
L 86.669359 252 
L 86.577274 252 
L 86.577274 252 
L 86.485189 252 
L 86.485189 252 
L 86.393104 252 
L 86.393104 252 
L 86.301019 252 
L 86.301019 252 
L 86.208934 252 
L 86.208934 252 
L 86.11685 252 
L 86.11685 252 
L 86.024765 252 
L 86.024765 252 
L 85.93268 252 
L 85.93268 252 
L 85.840595 252 
L 85.840595 252 
L 85.74851 252 
L 85.74851 252 
L 85.656425 252 
L 85.656425 252 
L 85.56434 252 
L 85.56434 252 
L 85.472256 252 
L 85.472256 252 
L 85.380171 252 
L 85.380171 252 
L 85.288086 252 
L 85.288086 252 
L 85.196001 252 
L 85.196001 252 
L 85.103916 252 
L 85.103916 252 
L 85.011831 252 
L 85.011831 252 
L 84.919746 252 
L 84.919746 252 
L 84.827662 252 
L 84.827662 252 
L 84.735577 252 
L 84.735577 252 
L 84.643492 252 
L 84.643492 252 
L 84.551407 252 
L 84.551407 252 
L 84.459322 252 
L 84.459322 252 
L 84.367237 252 
L 84.367237 252 
L 84.275152 252 
L 84.275152 252 
L 84.183068 252 
L 84.183068 252 
L 84.090983 252 
L 84.090983 252 
L 83.998898 252 
L 83.998898 252 
L 83.906813 252 
L 83.906813 252 
L 83.814728 252 
L 83.814728 252 
L 83.722643 252 
L 83.722643 252 
L 83.630558 252 
L 83.630558 252 
L 83.538474 252 
L 83.538474 252 
L 83.446389 252 
L 83.446389 252 
L 83.354304 252 
L 83.354304 252 
z
" style="fill:#00008b;stroke:#000000;stroke-linejoin:miter;"/>
   </g>
   <g id="patch_5">
    <path d="M 54 28.8 
L 388.8 28.8 
" style="fill:none;stroke:#000000;stroke-linecap:square;stroke-linejoin:miter;"/>
   </g>
   <g id="patch_6">
    <path d="M 388.8 252 
L 388.8 28.8 
" style="fill:none;stroke:#000000;stroke-linecap:square;stroke-linejoin:miter;"/>
   </g>
   <g id="patch_7">
    <path d="M 54 252 
L 388.8 252 
" style="fill:none;stroke:#000000;stroke-linecap:square;stroke-linejoin:miter;"/>
   </g>
   <g id="patch_8">
    <path d="M 54 252 
L 54 28.8 
" style="fill:none;stroke:#000000;stroke-linecap:square;stroke-linejoin:miter;"/>
   </g>
   <g id="matplotlib.axis_1">
    <g id="xtick_1">
     <g id="line2d_1">
      <defs>
       <path d="M 0 0 
L 0 -4 
" id="m9264e1e8b0" style="stroke:#000000;stroke-width:0.5;"/>
      </defs>
      <g>
       <use style="stroke:#000000;stroke-width:0.5;" x="54.0" xlink:href="#m9264e1e8b0" y="252.0"/>
      </g>
     </g>
     <g id="line2d_2">
      <defs>
       <path d="M 0 0 
L 0 4 
" id="m015277e601" style="stroke:#000000;stroke-width:0.5;"/>
      </defs>
      <g>
       <use style="stroke:#000000;stroke-width:0.5;" x="54.0" xlink:href="#m015277e601" y="28.8"/>
      </g>
     </g>
     <g id="text_1">
      <!-- 1080 -->
      <defs>
       <path d="M 31.78125 66.40625 
Q 24.171875 66.40625 20.328125 58.90625 
Q 16.5 51.421875 16.5 36.375 
Q 16.5 21.390625 20.328125 13.890625 
Q 24.171875 6.390625 31.78125 6.390625 
Q 39.453125 6.390625 43.28125 13.890625 
Q 47.125 21.390625 47.125 36.375 
Q 47.125 51.421875 43.28125 58.90625 
Q 39.453125 66.40625 31.78125 66.40625 
M 31.78125 74.21875 
Q 44.046875 74.21875 50.515625 64.515625 
Q 56.984375 54.828125 56.984375 36.375 
Q 56.984375 17.96875 50.515625 8.265625 
Q 44.046875 -1.421875 31.78125 -1.421875 
Q 19.53125 -1.421875 13.0625 8.265625 
Q 6.59375 17.96875 6.59375 36.375 
Q 6.59375 54.828125 13.0625 64.515625 
Q 19.53125 74.21875 31.78125 74.21875 
" id="BitstreamVeraSans-Roman-30"/>
       <path d="M 12.40625 8.296875 
L 28.515625 8.296875 
L 28.515625 63.921875 
L 10.984375 60.40625 
L 10.984375 69.390625 
L 28.421875 72.90625 
L 38.28125 72.90625 
L 38.28125 8.296875 
L 54.390625 8.296875 
L 54.390625 0 
L 12.40625 0 
z
" id="BitstreamVeraSans-Roman-31"/>
       <path d="M 31.78125 34.625 
Q 24.75 34.625 20.71875 30.859375 
Q 16.703125 27.09375 16.703125 20.515625 
Q 16.703125 13.921875 20.71875 10.15625 
Q 24.75 6.390625 31.78125 6.390625 
Q 38.8125 6.390625 42.859375 10.171875 
Q 46.921875 13.96875 46.921875 20.515625 
Q 46.921875 27.09375 42.890625 30.859375 
Q 38.875 34.625 31.78125 34.625 
M 21.921875 38.8125 
Q 15.578125 40.375 12.03125 44.71875 
Q 8.5 49.078125 8.5 55.328125 
Q 8.5 64.0625 14.71875 69.140625 
Q 20.953125 74.21875 31.78125 74.21875 
Q 42.671875 74.21875 48.875 69.140625 
Q 55.078125 64.0625 55.078125 55.328125 
Q 55.078125 49.078125 51.53125 44.71875 
Q 48 40.375 41.703125 38.8125 
Q 48.828125 37.15625 52.796875 32.3125 
Q 56.78125 27.484375 56.78125 20.515625 
Q 56.78125 9.90625 50.3125 4.234375 
Q 43.84375 -1.421875 31.78125 -1.421875 
Q 19.734375 -1.421875 13.25 4.234375 
Q 6.78125 9.90625 6.78125 20.515625 
Q 6.78125 27.484375 10.78125 32.3125 
Q 14.796875 37.15625 21.921875 38.8125 
M 18.3125 54.390625 
Q 18.3125 48.734375 21.84375 45.5625 
Q 25.390625 42.390625 31.78125 42.390625 
Q 38.140625 42.390625 41.71875 45.5625 
Q 45.3125 48.734375 45.3125 54.390625 
Q 45.3125 60.0625 41.71875 63.234375 
Q 38.140625 66.40625 31.78125 66.40625 
Q 25.390625 66.40625 21.84375 63.234375 
Q 18.3125 60.0625 18.3125 54.390625 
" id="BitstreamVeraSans-Roman-38"/>
      </defs>
      <g transform="translate(41.275 263.5984375)scale(0.1 -0.1)">
       <use xlink:href="#BitstreamVeraSans-Roman-31"/>
       <use x="63.623046875" xlink:href="#BitstreamVeraSans-Roman-30"/>
       <use x="127.24609375" xlink:href="#BitstreamVeraSans-Roman-38"/>
       <use x="190.869140625" xlink:href="#BitstreamVeraSans-Roman-30"/>
      </g>
     </g>
    </g>
    <g id="xtick_2">
     <g id="line2d_3">
      <g>
       <use style="stroke:#000000;stroke-width:0.5;" x="101.828571429" xlink:href="#m9264e1e8b0" y="252.0"/>
      </g>
     </g>
     <g id="line2d_4">
      <g>
       <use style="stroke:#000000;stroke-width:0.5;" x="101.828571429" xlink:href="#m015277e601" y="28.8"/>
      </g>
     </g>
     <g id="text_2">
      <!-- 1085 -->
      <defs>
       <path d="M 10.796875 72.90625 
L 49.515625 72.90625 
L 49.515625 64.59375 
L 19.828125 64.59375 
L 19.828125 46.734375 
Q 21.96875 47.46875 24.109375 47.828125 
Q 26.265625 48.1875 28.421875 48.1875 
Q 40.625 48.1875 47.75 41.5 
Q 54.890625 34.8125 54.890625 23.390625 
Q 54.890625 11.625 47.5625 5.09375 
Q 40.234375 -1.421875 26.90625 -1.421875 
Q 22.3125 -1.421875 17.546875 -0.640625 
Q 12.796875 0.140625 7.71875 1.703125 
L 7.71875 11.625 
Q 12.109375 9.234375 16.796875 8.0625 
Q 21.484375 6.890625 26.703125 6.890625 
Q 35.15625 6.890625 40.078125 11.328125 
Q 45.015625 15.765625 45.015625 23.390625 
Q 45.015625 31 40.078125 35.4375 
Q 35.15625 39.890625 26.703125 39.890625 
Q 22.75 39.890625 18.8125 39.015625 
Q 14.890625 38.140625 10.796875 36.28125 
z
" id="BitstreamVeraSans-Roman-35"/>
      </defs>
      <g transform="translate(89.1035714286 263.5984375)scale(0.1 -0.1)">
       <use xlink:href="#BitstreamVeraSans-Roman-31"/>
       <use x="63.623046875" xlink:href="#BitstreamVeraSans-Roman-30"/>
       <use x="127.24609375" xlink:href="#BitstreamVeraSans-Roman-38"/>
       <use x="190.869140625" xlink:href="#BitstreamVeraSans-Roman-35"/>
      </g>
     </g>
    </g>
    <g id="xtick_3">
     <g id="line2d_5">
      <g>
       <use style="stroke:#000000;stroke-width:0.5;" x="149.657142857" xlink:href="#m9264e1e8b0" y="252.0"/>
      </g>
     </g>
     <g id="line2d_6">
      <g>
       <use style="stroke:#000000;stroke-width:0.5;" x="149.657142857" xlink:href="#m015277e601" y="28.8"/>
      </g>
     </g>
     <g id="text_3">
      <!-- 1090 -->
      <defs>
       <path d="M 10.984375 1.515625 
L 10.984375 10.5 
Q 14.703125 8.734375 18.5 7.8125 
Q 22.3125 6.890625 25.984375 6.890625 
Q 35.75 6.890625 40.890625 13.453125 
Q 46.046875 20.015625 46.78125 33.40625 
Q 43.953125 29.203125 39.59375 26.953125 
Q 35.25 24.703125 29.984375 24.703125 
Q 19.046875 24.703125 12.671875 31.3125 
Q 6.296875 37.9375 6.296875 49.421875 
Q 6.296875 60.640625 12.9375 67.421875 
Q 19.578125 74.21875 30.609375 74.21875 
Q 43.265625 74.21875 49.921875 64.515625 
Q 56.59375 54.828125 56.59375 36.375 
Q 56.59375 19.140625 48.40625 8.859375 
Q 40.234375 -1.421875 26.421875 -1.421875 
Q 22.703125 -1.421875 18.890625 -0.6875 
Q 15.09375 0.046875 10.984375 1.515625 
M 30.609375 32.421875 
Q 37.25 32.421875 41.125 36.953125 
Q 45.015625 41.5 45.015625 49.421875 
Q 45.015625 57.28125 41.125 61.84375 
Q 37.25 66.40625 30.609375 66.40625 
Q 23.96875 66.40625 20.09375 61.84375 
Q 16.21875 57.28125 16.21875 49.421875 
Q 16.21875 41.5 20.09375 36.953125 
Q 23.96875 32.421875 30.609375 32.421875 
" id="BitstreamVeraSans-Roman-39"/>
      </defs>
      <g transform="translate(136.932142857 263.5984375)scale(0.1 -0.1)">
       <use xlink:href="#BitstreamVeraSans-Roman-31"/>
       <use x="63.623046875" xlink:href="#BitstreamVeraSans-Roman-30"/>
       <use x="127.24609375" xlink:href="#BitstreamVeraSans-Roman-39"/>
       <use x="190.869140625" xlink:href="#BitstreamVeraSans-Roman-30"/>
      </g>
     </g>
    </g>
    <g id="xtick_4">
     <g id="line2d_7">
      <g>
       <use style="stroke:#000000;stroke-width:0.5;" x="197.485714286" xlink:href="#m9264e1e8b0" y="252.0"/>
      </g>
     </g>
     <g id="line2d_8">
      <g>
       <use style="stroke:#000000;stroke-width:0.5;" x="197.485714286" xlink:href="#m015277e601" y="28.8"/>
      </g>
     </g>
     <g id="text_4">
      <!-- 1095 -->
      <g transform="translate(184.760714286 263.5984375)scale(0.1 -0.1)">
       <use xlink:href="#BitstreamVeraSans-Roman-31"/>
       <use x="63.623046875" xlink:href="#BitstreamVeraSans-Roman-30"/>
       <use x="127.24609375" xlink:href="#BitstreamVeraSans-Roman-39"/>
       <use x="190.869140625" xlink:href="#BitstreamVeraSans-Roman-35"/>
      </g>
     </g>
    </g>
    <g id="xtick_5">
     <g id="line2d_9">
      <g>
       <use style="stroke:#000000;stroke-width:0.5;" x="245.314285714" xlink:href="#m9264e1e8b0" y="252.0"/>
      </g>
     </g>
     <g id="line2d_10">
      <g>
       <use style="stroke:#000000;stroke-width:0.5;" x="245.314285714" xlink:href="#m015277e601" y="28.8"/>
      </g>
     </g>
     <g id="text_5">
      <!-- 1100 -->
      <g transform="translate(232.589285714 263.5984375)scale(0.1 -0.1)">
       <use xlink:href="#BitstreamVeraSans-Roman-31"/>
       <use x="63.623046875" xlink:href="#BitstreamVeraSans-Roman-31"/>
       <use x="127.24609375" xlink:href="#BitstreamVeraSans-Roman-30"/>
       <use x="190.869140625" xlink:href="#BitstreamVeraSans-Roman-30"/>
      </g>
     </g>
    </g>
    <g id="xtick_6">
     <g id="line2d_11">
      <g>
       <use style="stroke:#000000;stroke-width:0.5;" x="293.142857143" xlink:href="#m9264e1e8b0" y="252.0"/>
      </g>
     </g>
     <g id="line2d_12">
      <g>
       <use style="stroke:#000000;stroke-width:0.5;" x="293.142857143" xlink:href="#m015277e601" y="28.8"/>
      </g>
     </g>
     <g id="text_6">
      <!-- 1105 -->
      <g transform="translate(280.417857143 263.5984375)scale(0.1 -0.1)">
       <use xlink:href="#BitstreamVeraSans-Roman-31"/>
       <use x="63.623046875" xlink:href="#BitstreamVeraSans-Roman-31"/>
       <use x="127.24609375" xlink:href="#BitstreamVeraSans-Roman-30"/>
       <use x="190.869140625" xlink:href="#BitstreamVeraSans-Roman-35"/>
      </g>
     </g>
    </g>
    <g id="xtick_7">
     <g id="line2d_13">
      <g>
       <use style="stroke:#000000;stroke-width:0.5;" x="340.971428571" xlink:href="#m9264e1e8b0" y="252.0"/>
      </g>
     </g>
     <g id="line2d_14">
      <g>
       <use style="stroke:#000000;stroke-width:0.5;" x="340.971428571" xlink:href="#m015277e601" y="28.8"/>
      </g>
     </g>
     <g id="text_7">
      <!-- 1110 -->
      <g transform="translate(328.246428571 263.5984375)scale(0.1 -0.1)">
       <use xlink:href="#BitstreamVeraSans-Roman-31"/>
       <use x="63.623046875" xlink:href="#BitstreamVeraSans-Roman-31"/>
       <use x="127.24609375" xlink:href="#BitstreamVeraSans-Roman-31"/>
       <use x="190.869140625" xlink:href="#BitstreamVeraSans-Roman-30"/>
      </g>
     </g>
    </g>
    <g id="xtick_8">
     <g id="line2d_15">
      <g>
       <use style="stroke:#000000;stroke-width:0.5;" x="388.8" xlink:href="#m9264e1e8b0" y="252.0"/>
      </g>
     </g>
     <g id="line2d_16">
      <g>
       <use style="stroke:#000000;stroke-width:0.5;" x="388.8" xlink:href="#m015277e601" y="28.8"/>
      </g>
     </g>
     <g id="text_8">
      <!-- 1115 -->
      <g transform="translate(376.075 263.5984375)scale(0.1 -0.1)">
       <use xlink:href="#BitstreamVeraSans-Roman-31"/>
       <use x="63.623046875" xlink:href="#BitstreamVeraSans-Roman-31"/>
       <use x="127.24609375" xlink:href="#BitstreamVeraSans-Roman-31"/>
       <use x="190.869140625" xlink:href="#BitstreamVeraSans-Roman-35"/>
      </g>
     </g>
    </g>
    <g id="text_9">
     <!-- Age (Ma) -->
     <defs>
      <path id="BitstreamVeraSans-Roman-20"/>
      <path d="M 9.8125 72.90625 
L 24.515625 72.90625 
L 43.109375 23.296875 
L 61.8125 72.90625 
L 76.515625 72.90625 
L 76.515625 0 
L 66.890625 0 
L 66.890625 64.015625 
L 48.09375 14.015625 
L 38.1875 14.015625 
L 19.390625 64.015625 
L 19.390625 0 
L 9.8125 0 
z
" id="BitstreamVeraSans-Roman-4d"/>
      <path d="M 8.015625 75.875 
L 15.828125 75.875 
Q 23.140625 64.359375 26.78125 53.3125 
Q 30.421875 42.28125 30.421875 31.390625 
Q 30.421875 20.453125 26.78125 9.375 
Q 23.140625 -1.703125 15.828125 -13.1875 
L 8.015625 -13.1875 
Q 14.5 -2 17.703125 9.0625 
Q 20.90625 20.125 20.90625 31.390625 
Q 20.90625 42.671875 17.703125 53.65625 
Q 14.5 64.65625 8.015625 75.875 
" id="BitstreamVeraSans-Roman-29"/>
      <path d="M 31 75.875 
Q 24.46875 64.65625 21.28125 53.65625 
Q 18.109375 42.671875 18.109375 31.390625 
Q 18.109375 20.125 21.3125 9.0625 
Q 24.515625 -2 31 -13.1875 
L 23.1875 -13.1875 
Q 15.875 -1.703125 12.234375 9.375 
Q 8.59375 20.453125 8.59375 31.390625 
Q 8.59375 42.28125 12.203125 53.3125 
Q 15.828125 64.359375 23.1875 75.875 
z
" id="BitstreamVeraSans-Roman-28"/>
      <path d="M 34.1875 63.1875 
L 20.796875 26.90625 
L 47.609375 26.90625 
z
M 28.609375 72.90625 
L 39.796875 72.90625 
L 67.578125 0 
L 57.328125 0 
L 50.6875 18.703125 
L 17.828125 18.703125 
L 11.1875 0 
L 0.78125 0 
z
" id="BitstreamVeraSans-Roman-41"/>
      <path d="M 56.203125 29.59375 
L 56.203125 25.203125 
L 14.890625 25.203125 
Q 15.484375 15.921875 20.484375 11.0625 
Q 25.484375 6.203125 34.421875 6.203125 
Q 39.59375 6.203125 44.453125 7.46875 
Q 49.3125 8.734375 54.109375 11.28125 
L 54.109375 2.78125 
Q 49.265625 0.734375 44.1875 -0.34375 
Q 39.109375 -1.421875 33.890625 -1.421875 
Q 20.796875 -1.421875 13.15625 6.1875 
Q 5.515625 13.8125 5.515625 26.8125 
Q 5.515625 40.234375 12.765625 48.109375 
Q 20.015625 56 32.328125 56 
Q 43.359375 56 49.78125 48.890625 
Q 56.203125 41.796875 56.203125 29.59375 
M 47.21875 32.234375 
Q 47.125 39.59375 43.09375 43.984375 
Q 39.0625 48.390625 32.421875 48.390625 
Q 24.90625 48.390625 20.390625 44.140625 
Q 15.875 39.890625 15.1875 32.171875 
z
" id="BitstreamVeraSans-Roman-65"/>
      <path d="M 45.40625 27.984375 
Q 45.40625 37.75 41.375 43.109375 
Q 37.359375 48.484375 30.078125 48.484375 
Q 22.859375 48.484375 18.828125 43.109375 
Q 14.796875 37.75 14.796875 27.984375 
Q 14.796875 18.265625 18.828125 12.890625 
Q 22.859375 7.515625 30.078125 7.515625 
Q 37.359375 7.515625 41.375 12.890625 
Q 45.40625 18.265625 45.40625 27.984375 
M 54.390625 6.78125 
Q 54.390625 -7.171875 48.1875 -13.984375 
Q 42 -20.796875 29.203125 -20.796875 
Q 24.46875 -20.796875 20.265625 -20.09375 
Q 16.0625 -19.390625 12.109375 -17.921875 
L 12.109375 -9.1875 
Q 16.0625 -11.328125 19.921875 -12.34375 
Q 23.78125 -13.375 27.78125 -13.375 
Q 36.625 -13.375 41.015625 -8.765625 
Q 45.40625 -4.15625 45.40625 5.171875 
L 45.40625 9.625 
Q 42.625 4.78125 38.28125 2.390625 
Q 33.9375 0 27.875 0 
Q 17.828125 0 11.671875 7.65625 
Q 5.515625 15.328125 5.515625 27.984375 
Q 5.515625 40.671875 11.671875 48.328125 
Q 17.828125 56 27.875 56 
Q 33.9375 56 38.28125 53.609375 
Q 42.625 51.21875 45.40625 46.390625 
L 45.40625 54.6875 
L 54.390625 54.6875 
z
" id="BitstreamVeraSans-Roman-67"/>
      <path d="M 34.28125 27.484375 
Q 23.390625 27.484375 19.1875 25 
Q 14.984375 22.515625 14.984375 16.5 
Q 14.984375 11.71875 18.140625 8.90625 
Q 21.296875 6.109375 26.703125 6.109375 
Q 34.1875 6.109375 38.703125 11.40625 
Q 43.21875 16.703125 43.21875 25.484375 
L 43.21875 27.484375 
z
M 52.203125 31.203125 
L 52.203125 0 
L 43.21875 0 
L 43.21875 8.296875 
Q 40.140625 3.328125 35.546875 0.953125 
Q 30.953125 -1.421875 24.3125 -1.421875 
Q 15.921875 -1.421875 10.953125 3.296875 
Q 6 8.015625 6 15.921875 
Q 6 25.140625 12.171875 29.828125 
Q 18.359375 34.515625 30.609375 34.515625 
L 43.21875 34.515625 
L 43.21875 35.40625 
Q 43.21875 41.609375 39.140625 45 
Q 35.0625 48.390625 27.6875 48.390625 
Q 23 48.390625 18.546875 47.265625 
Q 14.109375 46.140625 10.015625 43.890625 
L 10.015625 52.203125 
Q 14.9375 54.109375 19.578125 55.046875 
Q 24.21875 56 28.609375 56 
Q 40.484375 56 46.34375 49.84375 
Q 52.203125 43.703125 52.203125 31.203125 
" id="BitstreamVeraSans-Roman-61"/>
     </defs>
     <g transform="translate(198.86015625 278.2765625)scale(0.1 -0.1)">
      <use xlink:href="#BitstreamVeraSans-Roman-41"/>
      <use x="68.408203125" xlink:href="#BitstreamVeraSans-Roman-67"/>
      <use x="131.884765625" xlink:href="#BitstreamVeraSans-Roman-65"/>
      <use x="193.408203125" xlink:href="#BitstreamVeraSans-Roman-20"/>
      <use x="225.1953125" xlink:href="#BitstreamVeraSans-Roman-28"/>
      <use x="264.208984375" xlink:href="#BitstreamVeraSans-Roman-4d"/>
      <use x="350.48828125" xlink:href="#BitstreamVeraSans-Roman-61"/>
      <use x="411.767578125" xlink:href="#BitstreamVeraSans-Roman-29"/>
     </g>
    </g>
   </g>
   <g id="matplotlib.axis_2">
    <g id="ytick_1">
     <g id="line2d_17">
      <defs>
       <path d="M 0 0 
L 4 0 
" id="m38b2a4b1cf" style="stroke:#000000;stroke-width:0.5;"/>
      </defs>
      <g>
       <use style="stroke:#000000;stroke-width:0.5;" x="54.0" xlink:href="#m38b2a4b1cf" y="252.0"/>
      </g>
     </g>
     <g id="line2d_18">
      <defs>
       <path d="M 0 0 
L -4 0 
" id="m982dfc94b1" style="stroke:#000000;stroke-width:0.5;"/>
      </defs>
      <g>
       <use style="stroke:#000000;stroke-width:0.5;" x="388.8" xlink:href="#m982dfc94b1" y="252.0"/>
      </g>
     </g>
     <g id="text_10">
      <!-- 0 -->
      <g transform="translate(43.6375 254.759375)scale(0.1 -0.1)">
       <use xlink:href="#BitstreamVeraSans-Roman-30"/>
      </g>
     </g>
    </g>
    <g id="ytick_2">
     <g id="line2d_19">
      <g>
       <use style="stroke:#000000;stroke-width:0.5;" x="54.0" xlink:href="#m38b2a4b1cf" y="224.1"/>
      </g>
     </g>
     <g id="line2d_20">
      <g>
       <use style="stroke:#000000;stroke-width:0.5;" x="388.8" xlink:href="#m982dfc94b1" y="224.1"/>
      </g>
     </g>
     <g id="text_11">
      <!-- 500 -->
      <g transform="translate(30.9125 226.859375)scale(0.1 -0.1)">
       <use xlink:href="#BitstreamVeraSans-Roman-35"/>
       <use x="63.623046875" xlink:href="#BitstreamVeraSans-Roman-30"/>
       <use x="127.24609375" xlink:href="#BitstreamVeraSans-Roman-30"/>
      </g>
     </g>
    </g>
    <g id="ytick_3">
     <g id="line2d_21">
      <g>
       <use style="stroke:#000000;stroke-width:0.5;" x="54.0" xlink:href="#m38b2a4b1cf" y="196.2"/>
      </g>
     </g>
     <g id="line2d_22">
      <g>
       <use style="stroke:#000000;stroke-width:0.5;" x="388.8" xlink:href="#m982dfc94b1" y="196.2"/>
      </g>
     </g>
     <g id="text_12">
      <!-- 1000 -->
      <g transform="translate(24.55 198.959375)scale(0.1 -0.1)">
       <use xlink:href="#BitstreamVeraSans-Roman-31"/>
       <use x="63.623046875" xlink:href="#BitstreamVeraSans-Roman-30"/>
       <use x="127.24609375" xlink:href="#BitstreamVeraSans-Roman-30"/>
       <use x="190.869140625" xlink:href="#BitstreamVeraSans-Roman-30"/>
      </g>
     </g>
    </g>
    <g id="ytick_4">
     <g id="line2d_23">
      <g>
       <use style="stroke:#000000;stroke-width:0.5;" x="54.0" xlink:href="#m38b2a4b1cf" y="168.3"/>
      </g>
     </g>
     <g id="line2d_24">
      <g>
       <use style="stroke:#000000;stroke-width:0.5;" x="388.8" xlink:href="#m982dfc94b1" y="168.3"/>
      </g>
     </g>
     <g id="text_13">
      <!-- 1500 -->
      <g transform="translate(24.55 171.059375)scale(0.1 -0.1)">
       <use xlink:href="#BitstreamVeraSans-Roman-31"/>
       <use x="63.623046875" xlink:href="#BitstreamVeraSans-Roman-35"/>
       <use x="127.24609375" xlink:href="#BitstreamVeraSans-Roman-30"/>
       <use x="190.869140625" xlink:href="#BitstreamVeraSans-Roman-30"/>
      </g>
     </g>
    </g>
    <g id="ytick_5">
     <g id="line2d_25">
      <g>
       <use style="stroke:#000000;stroke-width:0.5;" x="54.0" xlink:href="#m38b2a4b1cf" y="140.4"/>
      </g>
     </g>
     <g id="line2d_26">
      <g>
       <use style="stroke:#000000;stroke-width:0.5;" x="388.8" xlink:href="#m982dfc94b1" y="140.4"/>
      </g>
     </g>
     <g id="text_14">
      <!-- 2000 -->
      <defs>
       <path d="M 19.1875 8.296875 
L 53.609375 8.296875 
L 53.609375 0 
L 7.328125 0 
L 7.328125 8.296875 
Q 12.9375 14.109375 22.625 23.890625 
Q 32.328125 33.6875 34.8125 36.53125 
Q 39.546875 41.84375 41.421875 45.53125 
Q 43.3125 49.21875 43.3125 52.78125 
Q 43.3125 58.59375 39.234375 62.25 
Q 35.15625 65.921875 28.609375 65.921875 
Q 23.96875 65.921875 18.8125 64.3125 
Q 13.671875 62.703125 7.8125 59.421875 
L 7.8125 69.390625 
Q 13.765625 71.78125 18.9375 73 
Q 24.125 74.21875 28.421875 74.21875 
Q 39.75 74.21875 46.484375 68.546875 
Q 53.21875 62.890625 53.21875 53.421875 
Q 53.21875 48.921875 51.53125 44.890625 
Q 49.859375 40.875 45.40625 35.40625 
Q 44.1875 33.984375 37.640625 27.21875 
Q 31.109375 20.453125 19.1875 8.296875 
" id="BitstreamVeraSans-Roman-32"/>
      </defs>
      <g transform="translate(24.55 143.159375)scale(0.1 -0.1)">
       <use xlink:href="#BitstreamVeraSans-Roman-32"/>
       <use x="63.623046875" xlink:href="#BitstreamVeraSans-Roman-30"/>
       <use x="127.24609375" xlink:href="#BitstreamVeraSans-Roman-30"/>
       <use x="190.869140625" xlink:href="#BitstreamVeraSans-Roman-30"/>
      </g>
     </g>
    </g>
    <g id="ytick_6">
     <g id="line2d_27">
      <g>
       <use style="stroke:#000000;stroke-width:0.5;" x="54.0" xlink:href="#m38b2a4b1cf" y="112.5"/>
      </g>
     </g>
     <g id="line2d_28">
      <g>
       <use style="stroke:#000000;stroke-width:0.5;" x="388.8" xlink:href="#m982dfc94b1" y="112.5"/>
      </g>
     </g>
     <g id="text_15">
      <!-- 2500 -->
      <g transform="translate(24.55 115.259375)scale(0.1 -0.1)">
       <use xlink:href="#BitstreamVeraSans-Roman-32"/>
       <use x="63.623046875" xlink:href="#BitstreamVeraSans-Roman-35"/>
       <use x="127.24609375" xlink:href="#BitstreamVeraSans-Roman-30"/>
       <use x="190.869140625" xlink:href="#BitstreamVeraSans-Roman-30"/>
      </g>
     </g>
    </g>
    <g id="ytick_7">
     <g id="line2d_29">
      <g>
       <use style="stroke:#000000;stroke-width:0.5;" x="54.0" xlink:href="#m38b2a4b1cf" y="84.6"/>
      </g>
     </g>
     <g id="line2d_30">
      <g>
       <use style="stroke:#000000;stroke-width:0.5;" x="388.8" xlink:href="#m982dfc94b1" y="84.6"/>
      </g>
     </g>
     <g id="text_16">
      <!-- 3000 -->
      <defs>
       <path d="M 40.578125 39.3125 
Q 47.65625 37.796875 51.625 33 
Q 55.609375 28.21875 55.609375 21.1875 
Q 55.609375 10.40625 48.1875 4.484375 
Q 40.765625 -1.421875 27.09375 -1.421875 
Q 22.515625 -1.421875 17.65625 -0.515625 
Q 12.796875 0.390625 7.625 2.203125 
L 7.625 11.71875 
Q 11.71875 9.328125 16.59375 8.109375 
Q 21.484375 6.890625 26.8125 6.890625 
Q 36.078125 6.890625 40.9375 10.546875 
Q 45.796875 14.203125 45.796875 21.1875 
Q 45.796875 27.640625 41.28125 31.265625 
Q 36.765625 34.90625 28.71875 34.90625 
L 20.21875 34.90625 
L 20.21875 43.015625 
L 29.109375 43.015625 
Q 36.375 43.015625 40.234375 45.921875 
Q 44.09375 48.828125 44.09375 54.296875 
Q 44.09375 59.90625 40.109375 62.90625 
Q 36.140625 65.921875 28.71875 65.921875 
Q 24.65625 65.921875 20.015625 65.03125 
Q 15.375 64.15625 9.8125 62.3125 
L 9.8125 71.09375 
Q 15.4375 72.65625 20.34375 73.4375 
Q 25.25 74.21875 29.59375 74.21875 
Q 40.828125 74.21875 47.359375 69.109375 
Q 53.90625 64.015625 53.90625 55.328125 
Q 53.90625 49.265625 50.4375 45.09375 
Q 46.96875 40.921875 40.578125 39.3125 
" id="BitstreamVeraSans-Roman-33"/>
      </defs>
      <g transform="translate(24.55 87.359375)scale(0.1 -0.1)">
       <use xlink:href="#BitstreamVeraSans-Roman-33"/>
       <use x="63.623046875" xlink:href="#BitstreamVeraSans-Roman-30"/>
       <use x="127.24609375" xlink:href="#BitstreamVeraSans-Roman-30"/>
       <use x="190.869140625" xlink:href="#BitstreamVeraSans-Roman-30"/>
      </g>
     </g>
    </g>
    <g id="ytick_8">
     <g id="line2d_31">
      <g>
       <use style="stroke:#000000;stroke-width:0.5;" x="54.0" xlink:href="#m38b2a4b1cf" y="56.7"/>
      </g>
     </g>
     <g id="line2d_32">
      <g>
       <use style="stroke:#000000;stroke-width:0.5;" x="388.8" xlink:href="#m982dfc94b1" y="56.7"/>
      </g>
     </g>
     <g id="text_17">
      <!-- 3500 -->
      <g transform="translate(24.55 59.459375)scale(0.1 -0.1)">
       <use xlink:href="#BitstreamVeraSans-Roman-33"/>
       <use x="63.623046875" xlink:href="#BitstreamVeraSans-Roman-35"/>
       <use x="127.24609375" xlink:href="#BitstreamVeraSans-Roman-30"/>
       <use x="190.869140625" xlink:href="#BitstreamVeraSans-Roman-30"/>
      </g>
     </g>
    </g>
    <g id="ytick_9">
     <g id="line2d_33">
      <g>
       <use style="stroke:#000000;stroke-width:0.5;" x="54.0" xlink:href="#m38b2a4b1cf" y="28.8"/>
      </g>
     </g>
     <g id="line2d_34">
      <g>
       <use style="stroke:#000000;stroke-width:0.5;" x="388.8" xlink:href="#m982dfc94b1" y="28.8"/>
      </g>
     </g>
     <g id="text_18">
      <!-- 4000 -->
      <defs>
       <path d="M 37.796875 64.3125 
L 12.890625 25.390625 
L 37.796875 25.390625 
z
M 35.203125 72.90625 
L 47.609375 72.90625 
L 47.609375 25.390625 
L 58.015625 25.390625 
L 58.015625 17.1875 
L 47.609375 17.1875 
L 47.609375 0 
L 37.796875 0 
L 37.796875 17.1875 
L 4.890625 17.1875 
L 4.890625 26.703125 
z
" id="BitstreamVeraSans-Roman-34"/>
      </defs>
      <g transform="translate(24.55 31.559375)scale(0.1 -0.1)">
       <use xlink:href="#BitstreamVeraSans-Roman-34"/>
       <use x="63.623046875" xlink:href="#BitstreamVeraSans-Roman-30"/>
       <use x="127.24609375" xlink:href="#BitstreamVeraSans-Roman-30"/>
       <use x="190.869140625" xlink:href="#BitstreamVeraSans-Roman-30"/>
      </g>
     </g>
    </g>
    <g id="text_19">
     <!-- n -->
     <defs>
      <path d="M 54.890625 33.015625 
L 54.890625 0 
L 45.90625 0 
L 45.90625 32.71875 
Q 45.90625 40.484375 42.875 44.328125 
Q 39.84375 48.1875 33.796875 48.1875 
Q 26.515625 48.1875 22.3125 43.546875 
Q 18.109375 38.921875 18.109375 30.90625 
L 18.109375 0 
L 9.078125 0 
L 9.078125 54.6875 
L 18.109375 54.6875 
L 18.109375 46.1875 
Q 21.34375 51.125 25.703125 53.5625 
Q 30.078125 56 35.796875 56 
Q 45.21875 56 50.046875 50.171875 
Q 54.890625 44.34375 54.890625 33.015625 
" id="BitstreamVeraSans-Roman-6e"/>
     </defs>
     <g transform="translate(17.4703125 143.56875)rotate(-90.0)scale(0.1 -0.1)">
      <use xlink:href="#BitstreamVeraSans-Roman-6e"/>
     </g>
    </g>
   </g>
   <g id="legend_1">
    <g id="patch_9">
     <path d="M 60 246 
L 172.359375 246 
L 172.359375 207.1725 
L 60 207.1725 
z
" style="fill:#ffffff;stroke:#000000;stroke-linejoin:miter;"/>
    </g>
    <g id="patch_10">
     <path d="M 64.8 221.090625 
L 88.8 221.090625 
L 88.8 212.690625 
L 64.8 212.690625 
z
" style="fill:#8b0000;stroke:#000000;stroke-linejoin:miter;"/>
    </g>
    <g id="text_20">
     <!-- Pole 1 ages -->
     <defs>
      <path d="M 19.671875 64.796875 
L 19.671875 37.40625 
L 32.078125 37.40625 
Q 38.96875 37.40625 42.71875 40.96875 
Q 46.484375 44.53125 46.484375 51.125 
Q 46.484375 57.671875 42.71875 61.234375 
Q 38.96875 64.796875 32.078125 64.796875 
z
M 9.8125 72.90625 
L 32.078125 72.90625 
Q 44.34375 72.90625 50.609375 67.359375 
Q 56.890625 61.8125 56.890625 51.125 
Q 56.890625 40.328125 50.609375 34.8125 
Q 44.34375 29.296875 32.078125 29.296875 
L 19.671875 29.296875 
L 19.671875 0 
L 9.8125 0 
z
" id="BitstreamVeraSans-Roman-50"/>
      <path d="M 30.609375 48.390625 
Q 23.390625 48.390625 19.1875 42.75 
Q 14.984375 37.109375 14.984375 27.296875 
Q 14.984375 17.484375 19.15625 11.84375 
Q 23.34375 6.203125 30.609375 6.203125 
Q 37.796875 6.203125 41.984375 11.859375 
Q 46.1875 17.53125 46.1875 27.296875 
Q 46.1875 37.015625 41.984375 42.703125 
Q 37.796875 48.390625 30.609375 48.390625 
M 30.609375 56 
Q 42.328125 56 49.015625 48.375 
Q 55.71875 40.765625 55.71875 27.296875 
Q 55.71875 13.875 49.015625 6.21875 
Q 42.328125 -1.421875 30.609375 -1.421875 
Q 18.84375 -1.421875 12.171875 6.21875 
Q 5.515625 13.875 5.515625 27.296875 
Q 5.515625 40.765625 12.171875 48.375 
Q 18.84375 56 30.609375 56 
" id="BitstreamVeraSans-Roman-6f"/>
      <path d="M 44.28125 53.078125 
L 44.28125 44.578125 
Q 40.484375 46.53125 36.375 47.5 
Q 32.28125 48.484375 27.875 48.484375 
Q 21.1875 48.484375 17.84375 46.4375 
Q 14.5 44.390625 14.5 40.28125 
Q 14.5 37.15625 16.890625 35.375 
Q 19.28125 33.59375 26.515625 31.984375 
L 29.59375 31.296875 
Q 39.15625 29.25 43.1875 25.515625 
Q 47.21875 21.78125 47.21875 15.09375 
Q 47.21875 7.46875 41.1875 3.015625 
Q 35.15625 -1.421875 24.609375 -1.421875 
Q 20.21875 -1.421875 15.453125 -0.5625 
Q 10.6875 0.296875 5.421875 2 
L 5.421875 11.28125 
Q 10.40625 8.6875 15.234375 7.390625 
Q 20.0625 6.109375 24.8125 6.109375 
Q 31.15625 6.109375 34.5625 8.28125 
Q 37.984375 10.453125 37.984375 14.40625 
Q 37.984375 18.0625 35.515625 20.015625 
Q 33.0625 21.96875 24.703125 23.78125 
L 21.578125 24.515625 
Q 13.234375 26.265625 9.515625 29.90625 
Q 5.8125 33.546875 5.8125 39.890625 
Q 5.8125 47.609375 11.28125 51.796875 
Q 16.75 56 26.8125 56 
Q 31.78125 56 36.171875 55.265625 
Q 40.578125 54.546875 44.28125 53.078125 
" id="BitstreamVeraSans-Roman-73"/>
      <path d="M 9.421875 75.984375 
L 18.40625 75.984375 
L 18.40625 0 
L 9.421875 0 
z
" id="BitstreamVeraSans-Roman-6c"/>
     </defs>
     <g transform="translate(98.4 221.090625)scale(0.12 -0.12)">
      <use xlink:href="#BitstreamVeraSans-Roman-50"/>
      <use x="60.255859375" xlink:href="#BitstreamVeraSans-Roman-6f"/>
      <use x="121.4375" xlink:href="#BitstreamVeraSans-Roman-6c"/>
      <use x="149.220703125" xlink:href="#BitstreamVeraSans-Roman-65"/>
      <use x="210.744140625" xlink:href="#BitstreamVeraSans-Roman-20"/>
      <use x="242.53125" xlink:href="#BitstreamVeraSans-Roman-31"/>
      <use x="306.154296875" xlink:href="#BitstreamVeraSans-Roman-20"/>
      <use x="337.94140625" xlink:href="#BitstreamVeraSans-Roman-61"/>
      <use x="399.220703125" xlink:href="#BitstreamVeraSans-Roman-67"/>
      <use x="462.697265625" xlink:href="#BitstreamVeraSans-Roman-65"/>
      <use x="524.220703125" xlink:href="#BitstreamVeraSans-Roman-73"/>
     </g>
    </g>
    <g id="patch_11">
     <path d="M 64.8 238.704375 
L 88.8 238.704375 
L 88.8 230.304375 
L 64.8 230.304375 
z
" style="fill:#00008b;stroke:#000000;stroke-linejoin:miter;"/>
    </g>
    <g id="text_21">
     <!-- Pole 2 ages -->
     <g transform="translate(98.4 238.704375)scale(0.12 -0.12)">
      <use xlink:href="#BitstreamVeraSans-Roman-50"/>
      <use x="60.255859375" xlink:href="#BitstreamVeraSans-Roman-6f"/>
      <use x="121.4375" xlink:href="#BitstreamVeraSans-Roman-6c"/>
      <use x="149.220703125" xlink:href="#BitstreamVeraSans-Roman-65"/>
      <use x="210.744140625" xlink:href="#BitstreamVeraSans-Roman-20"/>
      <use x="242.53125" xlink:href="#BitstreamVeraSans-Roman-32"/>
      <use x="306.154296875" xlink:href="#BitstreamVeraSans-Roman-20"/>
      <use x="337.94140625" xlink:href="#BitstreamVeraSans-Roman-61"/>
      <use x="399.220703125" xlink:href="#BitstreamVeraSans-Roman-67"/>
      <use x="462.697265625" xlink:href="#BitstreamVeraSans-Roman-65"/>
      <use x="524.220703125" xlink:href="#BitstreamVeraSans-Roman-73"/>
     </g>
    </g>
   </g>
  </g>
 </g>
 <defs>
  <clipPath id="pdc8f871b8d">
   <rect height="223.2" width="334.8" x="54.0" y="28.8"/>
  </clipPath>
 </defs>
</svg>
