<?xml version="1.0" encoding="utf-8" standalone="no"?>
<!DOCTYPE svg PUBLIC "-//W3C//DTD SVG 1.1//EN"
  "http://www.w3.org/Graphics/SVG/1.1/DTD/svg11.dtd">
<!-- Created with matplotlib (http://matplotlib.org/) -->
<svg height="160pt" version="1.1" viewBox="0 0 497 160" width="497pt" xmlns="http://www.w3.org/2000/svg" xmlns:xlink="http://www.w3.org/1999/xlink">
 <defs>
  <style type="text/css">
*{stroke-linecap:butt;stroke-linejoin:round;stroke-miterlimit:100000;}
  </style>
 </defs>
 <g id="figure_1">
  <g id="patch_1">
   <path d="M 0 160.095313 
L 497.201563 160.095313 
L 497.201563 0 
L 0 0 
L 0 160.095313 
z
" style="fill:none;"/>
  </g>
  <g id="axes_1">
   <g id="patch_2">
    <path d="M 41.78125 124.539063 
L 148.3 124.539063 
L 148.3 12.039063 
L 41.78125 12.039063 
z
" style="fill:#ffffff;"/>
   </g>
   <g id="line2d_1">
    <path clip-path="url(#p2a160a3fb2)" d="M 44.547039 124.539063 
L 48.735962 124.381563 
L 49.751364 124.224063 
L 49.926063 124.134063 
L 50.706588 124.021563 
L 51.754832 123.774063 
L 52.374033 123.481563 
L 52.546765 123.279063 
L 52.824436 123.121563 
L 53.288333 122.581563 
L 53.473229 122.446563 
L 53.759426 122.266563 
L 54.057469 121.906563 
L 54.37196 121.659063 
L 55.15916 120.759063 
L 55.328586 120.376563 
L 55.558847 120.016563 
L 55.835912 119.566563 
L 57.746291 115.629063 
L 57.998791 114.954063 
L 58.384121 113.941563 
L 58.501167 113.626563 
L 58.621004 113.334063 
L 58.757549 112.951563 
L 58.879074 112.794063 
L 59.182369 111.826563 
L 59.353704 111.399063 
L 59.441213 111.219063 
L 59.588427 110.724063 
L 59.71727 110.229063 
L 59.898194 109.689063 
L 59.946343 109.486563 
L 63.509293 90.676563 
L 63.708572 89.506563 
L 64.326877 85.794063 
L 64.421271 85.209063 
L 64.626256 83.701563 
L 64.668813 83.499063 
L 64.870297 82.081563 
L 64.999981 81.091563 
L 65.602131 76.929063 
L 65.716446 75.849063 
L 65.986861 73.756563 
L 67.290664 64.981563 
L 67.679095 62.461563 
L 67.831098 61.089063 
L 67.916168 60.661563 
L 68.033182 59.671563 
L 68.1719 58.794063 
L 68.307363 57.669063 
L 68.429491 56.859063 
L 68.530781 56.139063 
L 68.583601 55.891563 
L 68.75716 54.811563 
L 68.804818 54.564063 
L 68.970912 53.596563 
L 69.086417 52.741563 
L 69.277344 51.594063 
L 70.220566 45.676563 
L 70.286221 45.429063 
L 71.091181 40.929063 
L 71.176759 40.569063 
L 71.597942 38.296563 
L 72.33544 34.606563 
L 72.595525 33.481563 
L 72.708869 32.941563 
L 73.696223 28.441563 
L 73.760328 28.149063 
L 74.240616 26.079063 
L 74.366101 25.719063 
L 74.488294 25.201563 
L 74.829827 24.121563 
L 75.04683 23.671563 
L 75.766913 21.669063 
L 75.877045 21.444063 
L 76.047545 20.836563 
L 76.127886 20.611563 
L 76.255122 20.319063 
L 76.372292 20.049063 
L 76.53866 19.756563 
L 76.732595 19.396563 
L 76.951447 18.924063 
L 77.041993 18.766563 
L 77.207108 18.316563 
L 77.418714 17.956563 
L 77.520396 17.686563 
L 77.630328 17.259063 
L 77.82144 17.056563 
L 78.02415 16.764063 
L 78.130776 16.561563 
L 78.595458 15.909063 
L 78.789928 15.706563 
L 78.93159 15.436563 
L 79.433346 15.031563 
L 79.704973 14.761563 
L 80.016136 14.604063 
L 80.062826 14.514063 
L 80.291286 14.334063 
L 80.592966 14.131563 
L 81.94857 13.299063 
L 82.173799 13.141563 
L 82.201269 13.119063 
L 82.516908 12.984063 
L 82.609734 12.826563 
L 87.500859 12.151563 
L 90.414716 12.084063 
L 92.00433 12.061563 
L 92.00433 12.061563 
" style="fill:none;stroke:#ff0000;stroke-linecap:square;"/>
   </g>
   <g id="line2d_2">
    <path clip-path="url(#p2a160a3fb2)" d="M 54.327957 124.539063 
L 54.327957 12.039063 
" style="fill:none;stroke:#ff0000;stroke-linecap:square;"/>
   </g>
   <g id="line2d_3">
    <path clip-path="url(#p2a160a3fb2)" d="M 79.598945 124.539063 
L 79.598945 12.039063 
" style="fill:none;stroke:#ff0000;stroke-linecap:square;"/>
   </g>
   <g id="line2d_4">
    <path clip-path="url(#p2a160a3fb2)" d="M 59.849996 124.539063 
L 64.285382 124.516563 
L 67.673088 124.404063 
L 71.407636 123.751563 
L 71.681665 123.661563 
L 72.596352 123.414063 
L 72.880464 123.099063 
L 73.38815 122.761563 
L 73.75103 122.536563 
L 73.944524 122.379063 
L 74.386555 121.996563 
L 74.634772 121.839063 
L 75.349825 121.164063 
L 75.484648 121.074063 
L 75.718866 120.849063 
L 75.914399 120.444063 
L 76.431372 119.814063 
L 76.828821 119.184063 
L 76.994309 119.004063 
L 78.335455 117.294063 
L 78.492405 116.956563 
L 78.718687 116.641563 
L 78.832464 116.191563 
L 78.905542 116.034063 
L 79.078643 115.539063 
L 79.17817 115.269063 
L 79.627759 114.369063 
L 80.655928 111.556563 
L 80.859657 110.859063 
L 80.981369 110.431563 
L 81.126287 109.846563 
L 81.235818 109.576563 
L 81.435218 108.834063 
L 82.318311 106.291563 
L 82.931624 104.199063 
L 83.05003 103.681563 
L 83.104406 103.501563 
L 83.395306 102.376563 
L 83.489605 102.129063 
L 83.595347 101.589063 
L 83.695258 101.116563 
L 84.027951 99.631563 
L 84.104693 99.316563 
L 84.273621 98.551563 
L 84.326047 98.214063 
L 84.472133 97.606563 
L 84.577521 97.156563 
L 84.691244 96.706563 
L 84.932241 95.716563 
L 84.988242 95.536563 
L 85.23622 94.254063 
L 85.527235 92.814063 
L 85.655215 92.251563 
L 85.738599 91.824063 
L 85.927653 90.879063 
L 86.040142 90.316563 
L 86.418419 88.606563 
L 86.471222 88.314063 
L 86.59693 87.729063 
L 86.665463 87.504063 
L 86.798359 86.694063 
L 86.873507 86.334063 
L 87.008785 85.749063 
L 87.288024 84.399063 
L 88.410989 78.324063 
L 88.482787 77.964063 
L 91.286783 61.966563 
L 91.415834 61.314063 
L 91.527564 60.616563 
L 92.197371 57.354063 
L 92.328505 56.611563 
L 92.511229 55.779063 
L 92.667266 55.059063 
L 92.91188 53.956563 
L 93.005969 53.731563 
L 94.205374 47.386563 
L 94.303056 46.869063 
L 94.951163 43.674063 
L 95.044653 43.066563 
L 95.176541 42.414063 
L 95.273968 42.054063 
L 96.622486 36.204063 
L 96.757931 35.596563 
L 97.165676 33.909063 
L 97.251265 33.616563 
L 97.478295 32.761563 
L 97.604897 32.356563 
L 97.721932 31.794063 
L 97.819927 31.546563 
L 98.095879 30.196563 
L 98.193824 29.881563 
L 98.355795 29.251563 
L 98.430614 29.094063 
L 98.538143 28.711563 
L 98.967318 27.564063 
L 99.077005 27.249063 
L 99.256612 26.866563 
L 99.316436 26.619063 
L 99.52725 25.899063 
L 99.655889 25.584063 
L 99.968459 24.774063 
L 100.057025 24.526563 
L 100.549115 23.244063 
L 100.671169 22.951563 
L 100.77545 22.546563 
L 101.147915 22.029063 
L 101.293594 21.691563 
L 101.597989 21.039063 
L 101.739703 20.769063 
L 102.761714 18.451563 
L 103.179009 17.934063 
L 103.312654 17.776563 
L 104.313538 16.381563 
L 104.412775 16.179063 
L 104.493307 16.066563 
L 105.008924 15.684063 
L 105.206233 15.414063 
L 105.391164 15.256563 
L 105.475711 15.099063 
L 105.933464 14.716563 
L 106.007403 14.649063 
L 106.416696 14.469063 
L 107.796183 13.411563 
L 108.307979 13.254063 
L 108.638489 13.119063 
L 109.32693 12.871563 
L 109.650443 12.736563 
L 110.413819 12.601563 
L 110.808544 12.421563 
L 113.42473 12.241563 
L 118.41371 12.061563 
L 118.41371 12.061563 
" style="fill:none;stroke:#0000ff;stroke-linecap:square;"/>
   </g>
   <g id="line2d_5">
    <path clip-path="url(#p2a160a3fb2)" d="M 74.752173 124.539063 
L 74.752173 12.039063 
" style="fill:none;stroke:#0000ff;stroke-dasharray:6.000000,6.000000;stroke-dashoffset:0.0;"/>
   </g>
   <g id="line2d_6">
    <path clip-path="url(#p2a160a3fb2)" d="M 105.752043 124.539063 
L 105.752043 12.039063 
" style="fill:none;stroke:#0000ff;stroke-dasharray:6.000000,6.000000;stroke-dashoffset:0.0;"/>
   </g>
   <g id="patch_3">
    <path d="M 41.78125 12.039063 
L 148.3 12.039063 
" style="fill:none;stroke:#000000;stroke-linecap:square;stroke-linejoin:miter;"/>
   </g>
   <g id="patch_4">
    <path d="M 148.3 124.539063 
L 148.3 12.039063 
" style="fill:none;stroke:#000000;stroke-linecap:square;stroke-linejoin:miter;"/>
   </g>
   <g id="patch_5">
    <path d="M 41.78125 124.539063 
L 148.3 124.539063 
" style="fill:none;stroke:#000000;stroke-linecap:square;stroke-linejoin:miter;"/>
   </g>
   <g id="patch_6">
    <path d="M 41.78125 124.539063 
L 41.78125 12.039063 
" style="fill:none;stroke:#000000;stroke-linecap:square;stroke-linejoin:miter;"/>
   </g>
   <g id="matplotlib.axis_1">
    <g id="xtick_1">
     <g id="line2d_7">
      <defs>
       <path d="M 0 0 
L 0 -4 
" id="m986f81cba0" style="stroke:#000000;stroke-width:0.5;"/>
      </defs>
      <g>
       <use style="stroke:#000000;stroke-width:0.5;" x="41.78125" xlink:href="#m986f81cba0" y="124.5390625"/>
      </g>
     </g>
     <g id="line2d_8">
      <defs>
       <path d="M 0 0 
L 0 4 
" id="m53dc956b06" style="stroke:#000000;stroke-width:0.5;"/>
      </defs>
      <g>
       <use style="stroke:#000000;stroke-width:0.5;" x="41.78125" xlink:href="#m53dc956b06" y="12.0390625"/>
      </g>
     </g>
     <g id="text_1">
      <!-- −0.95 -->
      <defs>
       <path d="M 10.59375 35.5 
L 73.1875 35.5 
L 73.1875 27.203125 
L 10.59375 27.203125 
z
" id="BitstreamVeraSans-Roman-2212"/>
       <path d="M 31.78125 66.40625 
Q 24.171875 66.40625 20.328125 58.90625 
Q 16.5 51.421875 16.5 36.375 
Q 16.5 21.390625 20.328125 13.890625 
Q 24.171875 6.390625 31.78125 6.390625 
Q 39.453125 6.390625 43.28125 13.890625 
Q 47.125 21.390625 47.125 36.375 
Q 47.125 51.421875 43.28125 58.90625 
Q 39.453125 66.40625 31.78125 66.40625 
M 31.78125 74.21875 
Q 44.046875 74.21875 50.515625 64.515625 
Q 56.984375 54.828125 56.984375 36.375 
Q 56.984375 17.96875 50.515625 8.265625 
Q 44.046875 -1.421875 31.78125 -1.421875 
Q 19.53125 -1.421875 13.0625 8.265625 
Q 6.59375 17.96875 6.59375 36.375 
Q 6.59375 54.828125 13.0625 64.515625 
Q 19.53125 74.21875 31.78125 74.21875 
" id="BitstreamVeraSans-Roman-30"/>
       <path d="M 10.984375 1.515625 
L 10.984375 10.5 
Q 14.703125 8.734375 18.5 7.8125 
Q 22.3125 6.890625 25.984375 6.890625 
Q 35.75 6.890625 40.890625 13.453125 
Q 46.046875 20.015625 46.78125 33.40625 
Q 43.953125 29.203125 39.59375 26.953125 
Q 35.25 24.703125 29.984375 24.703125 
Q 19.046875 24.703125 12.671875 31.3125 
Q 6.296875 37.9375 6.296875 49.421875 
Q 6.296875 60.640625 12.9375 67.421875 
Q 19.578125 74.21875 30.609375 74.21875 
Q 43.265625 74.21875 49.921875 64.515625 
Q 56.59375 54.828125 56.59375 36.375 
Q 56.59375 19.140625 48.40625 8.859375 
Q 40.234375 -1.421875 26.421875 -1.421875 
Q 22.703125 -1.421875 18.890625 -0.6875 
Q 15.09375 0.046875 10.984375 1.515625 
M 30.609375 32.421875 
Q 37.25 32.421875 41.125 36.953125 
Q 45.015625 41.5 45.015625 49.421875 
Q 45.015625 57.28125 41.125 61.84375 
Q 37.25 66.40625 30.609375 66.40625 
Q 23.96875 66.40625 20.09375 61.84375 
Q 16.21875 57.28125 16.21875 49.421875 
Q 16.21875 41.5 20.09375 36.953125 
Q 23.96875 32.421875 30.609375 32.421875 
" id="BitstreamVeraSans-Roman-39"/>
       <path d="M 10.6875 12.40625 
L 21 12.40625 
L 21 0 
L 10.6875 0 
z
" id="BitstreamVeraSans-Roman-2e"/>
       <path d="M 10.796875 72.90625 
L 49.515625 72.90625 
L 49.515625 64.59375 
L 19.828125 64.59375 
L 19.828125 46.734375 
Q 21.96875 47.46875 24.109375 47.828125 
Q 26.265625 48.1875 28.421875 48.1875 
Q 40.625 48.1875 47.75 41.5 
Q 54.890625 34.8125 54.890625 23.390625 
Q 54.890625 11.625 47.5625 5.09375 
Q 40.234375 -1.421875 26.90625 -1.421875 
Q 22.3125 -1.421875 17.546875 -0.640625 
Q 12.796875 0.140625 7.71875 1.703125 
L 7.71875 11.625 
Q 12.109375 9.234375 16.796875 8.0625 
Q 21.484375 6.890625 26.703125 6.890625 
Q 35.15625 6.890625 40.078125 11.328125 
Q 45.015625 15.765625 45.015625 23.390625 
Q 45.015625 31 40.078125 35.4375 
Q 35.15625 39.890625 26.703125 39.890625 
Q 22.75 39.890625 18.8125 39.015625 
Q 14.890625 38.140625 10.796875 36.28125 
z
" id="BitstreamVeraSans-Roman-35"/>
      </defs>
      <g transform="translate(26.45859375 136.1375)scale(0.1 -0.1)">
       <use xlink:href="#BitstreamVeraSans-Roman-2212"/>
       <use x="83.7890625" xlink:href="#BitstreamVeraSans-Roman-30"/>
       <use x="147.412109375" xlink:href="#BitstreamVeraSans-Roman-2e"/>
       <use x="179.19921875" xlink:href="#BitstreamVeraSans-Roman-39"/>
       <use x="242.822265625" xlink:href="#BitstreamVeraSans-Roman-35"/>
      </g>
     </g>
    </g>
    <g id="xtick_2">
     <g id="line2d_9">
      <g>
       <use style="stroke:#000000;stroke-width:0.5;" x="77.2875" xlink:href="#m986f81cba0" y="124.5390625"/>
      </g>
     </g>
     <g id="line2d_10">
      <g>
       <use style="stroke:#000000;stroke-width:0.5;" x="77.2875" xlink:href="#m53dc956b06" y="12.0390625"/>
      </g>
     </g>
     <g id="text_2">
      <!-- −0.90 -->
      <g transform="translate(61.96484375 136.1375)scale(0.1 -0.1)">
       <use xlink:href="#BitstreamVeraSans-Roman-2212"/>
       <use x="83.7890625" xlink:href="#BitstreamVeraSans-Roman-30"/>
       <use x="147.412109375" xlink:href="#BitstreamVeraSans-Roman-2e"/>
       <use x="179.19921875" xlink:href="#BitstreamVeraSans-Roman-39"/>
       <use x="242.822265625" xlink:href="#BitstreamVeraSans-Roman-30"/>
      </g>
     </g>
    </g>
    <g id="xtick_3">
     <g id="line2d_11">
      <g>
       <use style="stroke:#000000;stroke-width:0.5;" x="112.79375" xlink:href="#m986f81cba0" y="124.5390625"/>
      </g>
     </g>
     <g id="line2d_12">
      <g>
       <use style="stroke:#000000;stroke-width:0.5;" x="112.79375" xlink:href="#m53dc956b06" y="12.0390625"/>
      </g>
     </g>
     <g id="text_3">
      <!-- −0.85 -->
      <defs>
       <path d="M 31.78125 34.625 
Q 24.75 34.625 20.71875 30.859375 
Q 16.703125 27.09375 16.703125 20.515625 
Q 16.703125 13.921875 20.71875 10.15625 
Q 24.75 6.390625 31.78125 6.390625 
Q 38.8125 6.390625 42.859375 10.171875 
Q 46.921875 13.96875 46.921875 20.515625 
Q 46.921875 27.09375 42.890625 30.859375 
Q 38.875 34.625 31.78125 34.625 
M 21.921875 38.8125 
Q 15.578125 40.375 12.03125 44.71875 
Q 8.5 49.078125 8.5 55.328125 
Q 8.5 64.0625 14.71875 69.140625 
Q 20.953125 74.21875 31.78125 74.21875 
Q 42.671875 74.21875 48.875 69.140625 
Q 55.078125 64.0625 55.078125 55.328125 
Q 55.078125 49.078125 51.53125 44.71875 
Q 48 40.375 41.703125 38.8125 
Q 48.828125 37.15625 52.796875 32.3125 
Q 56.78125 27.484375 56.78125 20.515625 
Q 56.78125 9.90625 50.3125 4.234375 
Q 43.84375 -1.421875 31.78125 -1.421875 
Q 19.734375 -1.421875 13.25 4.234375 
Q 6.78125 9.90625 6.78125 20.515625 
Q 6.78125 27.484375 10.78125 32.3125 
Q 14.796875 37.15625 21.921875 38.8125 
M 18.3125 54.390625 
Q 18.3125 48.734375 21.84375 45.5625 
Q 25.390625 42.390625 31.78125 42.390625 
Q 38.140625 42.390625 41.71875 45.5625 
Q 45.3125 48.734375 45.3125 54.390625 
Q 45.3125 60.0625 41.71875 63.234375 
Q 38.140625 66.40625 31.78125 66.40625 
Q 25.390625 66.40625 21.84375 63.234375 
Q 18.3125 60.0625 18.3125 54.390625 
" id="BitstreamVeraSans-Roman-38"/>
      </defs>
      <g transform="translate(97.47109375 136.1375)scale(0.1 -0.1)">
       <use xlink:href="#BitstreamVeraSans-Roman-2212"/>
       <use x="83.7890625" xlink:href="#BitstreamVeraSans-Roman-30"/>
       <use x="147.412109375" xlink:href="#BitstreamVeraSans-Roman-2e"/>
       <use x="179.19921875" xlink:href="#BitstreamVeraSans-Roman-38"/>
       <use x="242.822265625" xlink:href="#BitstreamVeraSans-Roman-35"/>
      </g>
     </g>
    </g>
    <g id="xtick_4">
     <g id="line2d_13">
      <g>
       <use style="stroke:#000000;stroke-width:0.5;" x="148.3" xlink:href="#m986f81cba0" y="124.5390625"/>
      </g>
     </g>
     <g id="line2d_14">
      <g>
       <use style="stroke:#000000;stroke-width:0.5;" x="148.3" xlink:href="#m53dc956b06" y="12.0390625"/>
      </g>
     </g>
     <g id="text_4">
      <!-- −0.80 -->
      <g transform="translate(132.97734375 136.1375)scale(0.1 -0.1)">
       <use xlink:href="#BitstreamVeraSans-Roman-2212"/>
       <use x="83.7890625" xlink:href="#BitstreamVeraSans-Roman-30"/>
       <use x="147.412109375" xlink:href="#BitstreamVeraSans-Roman-2e"/>
       <use x="179.19921875" xlink:href="#BitstreamVeraSans-Roman-38"/>
       <use x="242.822265625" xlink:href="#BitstreamVeraSans-Roman-30"/>
      </g>
     </g>
    </g>
    <g id="text_5">
     <!-- X component -->
     <defs>
      <path id="BitstreamVeraSans-Roman-20"/>
      <path d="M 54.890625 33.015625 
L 54.890625 0 
L 45.90625 0 
L 45.90625 32.71875 
Q 45.90625 40.484375 42.875 44.328125 
Q 39.84375 48.1875 33.796875 48.1875 
Q 26.515625 48.1875 22.3125 43.546875 
Q 18.109375 38.921875 18.109375 30.90625 
L 18.109375 0 
L 9.078125 0 
L 9.078125 54.6875 
L 18.109375 54.6875 
L 18.109375 46.1875 
Q 21.34375 51.125 25.703125 53.5625 
Q 30.078125 56 35.796875 56 
Q 45.21875 56 50.046875 50.171875 
Q 54.890625 44.34375 54.890625 33.015625 
" id="BitstreamVeraSans-Roman-6e"/>
      <path d="M 52 44.1875 
Q 55.375 50.25 60.0625 53.125 
Q 64.75 56 71.09375 56 
Q 79.640625 56 84.28125 50.015625 
Q 88.921875 44.046875 88.921875 33.015625 
L 88.921875 0 
L 79.890625 0 
L 79.890625 32.71875 
Q 79.890625 40.578125 77.09375 44.375 
Q 74.3125 48.1875 68.609375 48.1875 
Q 61.625 48.1875 57.5625 43.546875 
Q 53.515625 38.921875 53.515625 30.90625 
L 53.515625 0 
L 44.484375 0 
L 44.484375 32.71875 
Q 44.484375 40.625 41.703125 44.40625 
Q 38.921875 48.1875 33.109375 48.1875 
Q 26.21875 48.1875 22.15625 43.53125 
Q 18.109375 38.875 18.109375 30.90625 
L 18.109375 0 
L 9.078125 0 
L 9.078125 54.6875 
L 18.109375 54.6875 
L 18.109375 46.1875 
Q 21.1875 51.21875 25.484375 53.609375 
Q 29.78125 56 35.6875 56 
Q 41.65625 56 45.828125 52.96875 
Q 50 49.953125 52 44.1875 
" id="BitstreamVeraSans-Roman-6d"/>
      <path d="M 30.609375 48.390625 
Q 23.390625 48.390625 19.1875 42.75 
Q 14.984375 37.109375 14.984375 27.296875 
Q 14.984375 17.484375 19.15625 11.84375 
Q 23.34375 6.203125 30.609375 6.203125 
Q 37.796875 6.203125 41.984375 11.859375 
Q 46.1875 17.53125 46.1875 27.296875 
Q 46.1875 37.015625 41.984375 42.703125 
Q 37.796875 48.390625 30.609375 48.390625 
M 30.609375 56 
Q 42.328125 56 49.015625 48.375 
Q 55.71875 40.765625 55.71875 27.296875 
Q 55.71875 13.875 49.015625 6.21875 
Q 42.328125 -1.421875 30.609375 -1.421875 
Q 18.84375 -1.421875 12.171875 6.21875 
Q 5.515625 13.875 5.515625 27.296875 
Q 5.515625 40.765625 12.171875 48.375 
Q 18.84375 56 30.609375 56 
" id="BitstreamVeraSans-Roman-6f"/>
      <path d="M 56.203125 29.59375 
L 56.203125 25.203125 
L 14.890625 25.203125 
Q 15.484375 15.921875 20.484375 11.0625 
Q 25.484375 6.203125 34.421875 6.203125 
Q 39.59375 6.203125 44.453125 7.46875 
Q 49.3125 8.734375 54.109375 11.28125 
L 54.109375 2.78125 
Q 49.265625 0.734375 44.1875 -0.34375 
Q 39.109375 -1.421875 33.890625 -1.421875 
Q 20.796875 -1.421875 13.15625 6.1875 
Q 5.515625 13.8125 5.515625 26.8125 
Q 5.515625 40.234375 12.765625 48.109375 
Q 20.015625 56 32.328125 56 
Q 43.359375 56 49.78125 48.890625 
Q 56.203125 41.796875 56.203125 29.59375 
M 47.21875 32.234375 
Q 47.125 39.59375 43.09375 43.984375 
Q 39.0625 48.390625 32.421875 48.390625 
Q 24.90625 48.390625 20.390625 44.140625 
Q 15.875 39.890625 15.1875 32.171875 
z
" id="BitstreamVeraSans-Roman-65"/>
      <path d="M 48.78125 52.59375 
L 48.78125 44.1875 
Q 44.96875 46.296875 41.140625 47.34375 
Q 37.3125 48.390625 33.40625 48.390625 
Q 24.65625 48.390625 19.8125 42.84375 
Q 14.984375 37.3125 14.984375 27.296875 
Q 14.984375 17.28125 19.8125 11.734375 
Q 24.65625 6.203125 33.40625 6.203125 
Q 37.3125 6.203125 41.140625 7.25 
Q 44.96875 8.296875 48.78125 10.40625 
L 48.78125 2.09375 
Q 45.015625 0.34375 40.984375 -0.53125 
Q 36.96875 -1.421875 32.421875 -1.421875 
Q 20.0625 -1.421875 12.78125 6.34375 
Q 5.515625 14.109375 5.515625 27.296875 
Q 5.515625 40.671875 12.859375 48.328125 
Q 20.21875 56 33.015625 56 
Q 37.15625 56 41.109375 55.140625 
Q 45.0625 54.296875 48.78125 52.59375 
" id="BitstreamVeraSans-Roman-63"/>
      <path d="M 6.296875 72.90625 
L 16.890625 72.90625 
L 35.015625 45.796875 
L 53.21875 72.90625 
L 63.8125 72.90625 
L 40.375 37.890625 
L 65.375 0 
L 54.78125 0 
L 34.28125 31 
L 13.625 0 
L 2.984375 0 
L 29 38.921875 
z
" id="BitstreamVeraSans-Roman-58"/>
      <path d="M 18.3125 70.21875 
L 18.3125 54.6875 
L 36.8125 54.6875 
L 36.8125 47.703125 
L 18.3125 47.703125 
L 18.3125 18.015625 
Q 18.3125 11.328125 20.140625 9.421875 
Q 21.96875 7.515625 27.59375 7.515625 
L 36.8125 7.515625 
L 36.8125 0 
L 27.59375 0 
Q 17.1875 0 13.234375 3.875 
Q 9.28125 7.765625 9.28125 18.015625 
L 9.28125 47.703125 
L 2.6875 47.703125 
L 2.6875 54.6875 
L 9.28125 54.6875 
L 9.28125 70.21875 
z
" id="BitstreamVeraSans-Roman-74"/>
      <path d="M 18.109375 8.203125 
L 18.109375 -20.796875 
L 9.078125 -20.796875 
L 9.078125 54.6875 
L 18.109375 54.6875 
L 18.109375 46.390625 
Q 20.953125 51.265625 25.265625 53.625 
Q 29.59375 56 35.59375 56 
Q 45.5625 56 51.78125 48.09375 
Q 58.015625 40.1875 58.015625 27.296875 
Q 58.015625 14.40625 51.78125 6.484375 
Q 45.5625 -1.421875 35.59375 -1.421875 
Q 29.59375 -1.421875 25.265625 0.953125 
Q 20.953125 3.328125 18.109375 8.203125 
M 48.6875 27.296875 
Q 48.6875 37.203125 44.609375 42.84375 
Q 40.53125 48.484375 33.40625 48.484375 
Q 26.265625 48.484375 22.1875 42.84375 
Q 18.109375 37.203125 18.109375 27.296875 
Q 18.109375 17.390625 22.1875 11.75 
Q 26.265625 6.109375 33.40625 6.109375 
Q 40.53125 6.109375 44.609375 11.75 
Q 48.6875 17.390625 48.6875 27.296875 
" id="BitstreamVeraSans-Roman-70"/>
     </defs>
     <g transform="translate(61.73984375 150.815625)scale(0.1 -0.1)">
      <use xlink:href="#BitstreamVeraSans-Roman-58"/>
      <use x="68.505859375" xlink:href="#BitstreamVeraSans-Roman-20"/>
      <use x="100.29296875" xlink:href="#BitstreamVeraSans-Roman-63"/>
      <use x="155.2734375" xlink:href="#BitstreamVeraSans-Roman-6f"/>
      <use x="216.455078125" xlink:href="#BitstreamVeraSans-Roman-6d"/>
      <use x="313.8671875" xlink:href="#BitstreamVeraSans-Roman-70"/>
      <use x="377.34375" xlink:href="#BitstreamVeraSans-Roman-6f"/>
      <use x="438.525390625" xlink:href="#BitstreamVeraSans-Roman-6e"/>
      <use x="501.904296875" xlink:href="#BitstreamVeraSans-Roman-65"/>
      <use x="563.427734375" xlink:href="#BitstreamVeraSans-Roman-6e"/>
      <use x="626.806640625" xlink:href="#BitstreamVeraSans-Roman-74"/>
     </g>
    </g>
   </g>
   <g id="matplotlib.axis_2">
    <g id="ytick_1">
     <g id="line2d_15">
      <defs>
       <path d="M 0 0 
L 4 0 
" id="m5d38f33b46" style="stroke:#000000;stroke-width:0.5;"/>
      </defs>
      <g>
       <use style="stroke:#000000;stroke-width:0.5;" x="41.78125" xlink:href="#m5d38f33b46" y="124.5390625"/>
      </g>
     </g>
     <g id="line2d_16">
      <defs>
       <path d="M 0 0 
L -4 0 
" id="m6f8b6d953a" style="stroke:#000000;stroke-width:0.5;"/>
      </defs>
      <g>
       <use style="stroke:#000000;stroke-width:0.5;" x="148.3" xlink:href="#m6f8b6d953a" y="124.5390625"/>
      </g>
     </g>
     <g id="text_6">
      <!-- 0.0 -->
      <g transform="translate(21.878125 127.2984375)scale(0.1 -0.1)">
       <use xlink:href="#BitstreamVeraSans-Roman-30"/>
       <use x="63.623046875" xlink:href="#BitstreamVeraSans-Roman-2e"/>
       <use x="95.41015625" xlink:href="#BitstreamVeraSans-Roman-30"/>
      </g>
     </g>
    </g>
    <g id="ytick_2">
     <g id="line2d_17">
      <g>
       <use style="stroke:#000000;stroke-width:0.5;" x="41.78125" xlink:href="#m5d38f33b46" y="68.2890625"/>
      </g>
     </g>
     <g id="line2d_18">
      <g>
       <use style="stroke:#000000;stroke-width:0.5;" x="148.3" xlink:href="#m6f8b6d953a" y="68.2890625"/>
      </g>
     </g>
     <g id="text_7">
      <!-- 0.5 -->
      <g transform="translate(21.878125 71.0484375)scale(0.1 -0.1)">
       <use xlink:href="#BitstreamVeraSans-Roman-30"/>
       <use x="63.623046875" xlink:href="#BitstreamVeraSans-Roman-2e"/>
       <use x="95.41015625" xlink:href="#BitstreamVeraSans-Roman-35"/>
      </g>
     </g>
    </g>
    <g id="ytick_3">
     <g id="line2d_19">
      <g>
       <use style="stroke:#000000;stroke-width:0.5;" x="41.78125" xlink:href="#m5d38f33b46" y="12.0390625"/>
      </g>
     </g>
     <g id="line2d_20">
      <g>
       <use style="stroke:#000000;stroke-width:0.5;" x="148.3" xlink:href="#m6f8b6d953a" y="12.0390625"/>
      </g>
     </g>
     <g id="text_8">
      <!-- 1.0 -->
      <defs>
       <path d="M 12.40625 8.296875 
L 28.515625 8.296875 
L 28.515625 63.921875 
L 10.984375 60.40625 
L 10.984375 69.390625 
L 28.421875 72.90625 
L 38.28125 72.90625 
L 38.28125 8.296875 
L 54.390625 8.296875 
L 54.390625 0 
L 12.40625 0 
z
" id="BitstreamVeraSans-Roman-31"/>
      </defs>
      <g transform="translate(21.878125 14.7984375)scale(0.1 -0.1)">
       <use xlink:href="#BitstreamVeraSans-Roman-31"/>
       <use x="63.623046875" xlink:href="#BitstreamVeraSans-Roman-2e"/>
       <use x="95.41015625" xlink:href="#BitstreamVeraSans-Roman-30"/>
      </g>
     </g>
    </g>
    <g id="text_9">
     <!-- Cumulative Distribution -->
     <defs>
      <path d="M 41.109375 46.296875 
Q 39.59375 47.171875 37.8125 47.578125 
Q 36.03125 48 33.890625 48 
Q 26.265625 48 22.1875 43.046875 
Q 18.109375 38.09375 18.109375 28.8125 
L 18.109375 0 
L 9.078125 0 
L 9.078125 54.6875 
L 18.109375 54.6875 
L 18.109375 46.1875 
Q 20.953125 51.171875 25.484375 53.578125 
Q 30.03125 56 36.53125 56 
Q 37.453125 56 38.578125 55.875 
Q 39.703125 55.765625 41.0625 55.515625 
z
" id="BitstreamVeraSans-Roman-72"/>
      <path d="M 9.421875 75.984375 
L 18.40625 75.984375 
L 18.40625 0 
L 9.421875 0 
z
" id="BitstreamVeraSans-Roman-6c"/>
      <path d="M 19.671875 64.796875 
L 19.671875 8.109375 
L 31.59375 8.109375 
Q 46.6875 8.109375 53.6875 14.9375 
Q 60.6875 21.78125 60.6875 36.53125 
Q 60.6875 51.171875 53.6875 57.984375 
Q 46.6875 64.796875 31.59375 64.796875 
z
M 9.8125 72.90625 
L 30.078125 72.90625 
Q 51.265625 72.90625 61.171875 64.09375 
Q 71.09375 55.28125 71.09375 36.53125 
Q 71.09375 17.671875 61.125 8.828125 
Q 51.171875 0 30.078125 0 
L 9.8125 0 
z
" id="BitstreamVeraSans-Roman-44"/>
      <path d="M 9.421875 54.6875 
L 18.40625 54.6875 
L 18.40625 0 
L 9.421875 0 
z
M 9.421875 75.984375 
L 18.40625 75.984375 
L 18.40625 64.59375 
L 9.421875 64.59375 
z
" id="BitstreamVeraSans-Roman-69"/>
      <path d="M 2.984375 54.6875 
L 12.5 54.6875 
L 29.59375 8.796875 
L 46.6875 54.6875 
L 56.203125 54.6875 
L 35.6875 0 
L 23.484375 0 
z
" id="BitstreamVeraSans-Roman-76"/>
      <path d="M 64.40625 67.28125 
L 64.40625 56.890625 
Q 59.421875 61.53125 53.78125 63.8125 
Q 48.140625 66.109375 41.796875 66.109375 
Q 29.296875 66.109375 22.65625 58.46875 
Q 16.015625 50.828125 16.015625 36.375 
Q 16.015625 21.96875 22.65625 14.328125 
Q 29.296875 6.6875 41.796875 6.6875 
Q 48.140625 6.6875 53.78125 8.984375 
Q 59.421875 11.28125 64.40625 15.921875 
L 64.40625 5.609375 
Q 59.234375 2.09375 53.4375 0.328125 
Q 47.65625 -1.421875 41.21875 -1.421875 
Q 24.65625 -1.421875 15.125 8.703125 
Q 5.609375 18.84375 5.609375 36.375 
Q 5.609375 53.953125 15.125 64.078125 
Q 24.65625 74.21875 41.21875 74.21875 
Q 47.75 74.21875 53.53125 72.484375 
Q 59.328125 70.75 64.40625 67.28125 
" id="BitstreamVeraSans-Roman-43"/>
      <path d="M 8.5 21.578125 
L 8.5 54.6875 
L 17.484375 54.6875 
L 17.484375 21.921875 
Q 17.484375 14.15625 20.5 10.265625 
Q 23.53125 6.390625 29.59375 6.390625 
Q 36.859375 6.390625 41.078125 11.03125 
Q 45.3125 15.671875 45.3125 23.6875 
L 45.3125 54.6875 
L 54.296875 54.6875 
L 54.296875 0 
L 45.3125 0 
L 45.3125 8.40625 
Q 42.046875 3.421875 37.71875 1 
Q 33.40625 -1.421875 27.6875 -1.421875 
Q 18.265625 -1.421875 13.375 4.4375 
Q 8.5 10.296875 8.5 21.578125 
" id="BitstreamVeraSans-Roman-75"/>
      <path d="M 34.28125 27.484375 
Q 23.390625 27.484375 19.1875 25 
Q 14.984375 22.515625 14.984375 16.5 
Q 14.984375 11.71875 18.140625 8.90625 
Q 21.296875 6.109375 26.703125 6.109375 
Q 34.1875 6.109375 38.703125 11.40625 
Q 43.21875 16.703125 43.21875 25.484375 
L 43.21875 27.484375 
z
M 52.203125 31.203125 
L 52.203125 0 
L 43.21875 0 
L 43.21875 8.296875 
Q 40.140625 3.328125 35.546875 0.953125 
Q 30.953125 -1.421875 24.3125 -1.421875 
Q 15.921875 -1.421875 10.953125 3.296875 
Q 6 8.015625 6 15.921875 
Q 6 25.140625 12.171875 29.828125 
Q 18.359375 34.515625 30.609375 34.515625 
L 43.21875 34.515625 
L 43.21875 35.40625 
Q 43.21875 41.609375 39.140625 45 
Q 35.0625 48.390625 27.6875 48.390625 
Q 23 48.390625 18.546875 47.265625 
Q 14.109375 46.140625 10.015625 43.890625 
L 10.015625 52.203125 
Q 14.9375 54.109375 19.578125 55.046875 
Q 24.21875 56 28.609375 56 
Q 40.484375 56 46.34375 49.84375 
Q 52.203125 43.703125 52.203125 31.203125 
" id="BitstreamVeraSans-Roman-61"/>
      <path d="M 44.28125 53.078125 
L 44.28125 44.578125 
Q 40.484375 46.53125 36.375 47.5 
Q 32.28125 48.484375 27.875 48.484375 
Q 21.1875 48.484375 17.84375 46.4375 
Q 14.5 44.390625 14.5 40.28125 
Q 14.5 37.15625 16.890625 35.375 
Q 19.28125 33.59375 26.515625 31.984375 
L 29.59375 31.296875 
Q 39.15625 29.25 43.1875 25.515625 
Q 47.21875 21.78125 47.21875 15.09375 
Q 47.21875 7.46875 41.1875 3.015625 
Q 35.15625 -1.421875 24.609375 -1.421875 
Q 20.21875 -1.421875 15.453125 -0.5625 
Q 10.6875 0.296875 5.421875 2 
L 5.421875 11.28125 
Q 10.40625 8.6875 15.234375 7.390625 
Q 20.0625 6.109375 24.8125 6.109375 
Q 31.15625 6.109375 34.5625 8.28125 
Q 37.984375 10.453125 37.984375 14.40625 
Q 37.984375 18.0625 35.515625 20.015625 
Q 33.0625 21.96875 24.703125 23.78125 
L 21.578125 24.515625 
Q 13.234375 26.265625 9.515625 29.90625 
Q 5.8125 33.546875 5.8125 39.890625 
Q 5.8125 47.609375 11.28125 51.796875 
Q 16.75 56 26.8125 56 
Q 31.78125 56 36.171875 55.265625 
Q 40.578125 54.546875 44.28125 53.078125 
" id="BitstreamVeraSans-Roman-73"/>
      <path d="M 48.6875 27.296875 
Q 48.6875 37.203125 44.609375 42.84375 
Q 40.53125 48.484375 33.40625 48.484375 
Q 26.265625 48.484375 22.1875 42.84375 
Q 18.109375 37.203125 18.109375 27.296875 
Q 18.109375 17.390625 22.1875 11.75 
Q 26.265625 6.109375 33.40625 6.109375 
Q 40.53125 6.109375 44.609375 11.75 
Q 48.6875 17.390625 48.6875 27.296875 
M 18.109375 46.390625 
Q 20.953125 51.265625 25.265625 53.625 
Q 29.59375 56 35.59375 56 
Q 45.5625 56 51.78125 48.09375 
Q 58.015625 40.1875 58.015625 27.296875 
Q 58.015625 14.40625 51.78125 6.484375 
Q 45.5625 -1.421875 35.59375 -1.421875 
Q 29.59375 -1.421875 25.265625 0.953125 
Q 20.953125 3.328125 18.109375 8.203125 
L 18.109375 0 
L 9.078125 0 
L 9.078125 75.984375 
L 18.109375 75.984375 
z
" id="BitstreamVeraSans-Roman-62"/>
     </defs>
     <g transform="translate(14.7984375 127.584375)rotate(-90.0)scale(0.1 -0.1)">
      <use xlink:href="#BitstreamVeraSans-Roman-43"/>
      <use x="69.82421875" xlink:href="#BitstreamVeraSans-Roman-75"/>
      <use x="133.203125" xlink:href="#BitstreamVeraSans-Roman-6d"/>
      <use x="230.615234375" xlink:href="#BitstreamVeraSans-Roman-75"/>
      <use x="293.994140625" xlink:href="#BitstreamVeraSans-Roman-6c"/>
      <use x="321.77734375" xlink:href="#BitstreamVeraSans-Roman-61"/>
      <use x="383.056640625" xlink:href="#BitstreamVeraSans-Roman-74"/>
      <use x="422.265625" xlink:href="#BitstreamVeraSans-Roman-69"/>
      <use x="450.048828125" xlink:href="#BitstreamVeraSans-Roman-76"/>
      <use x="509.228515625" xlink:href="#BitstreamVeraSans-Roman-65"/>
      <use x="570.751953125" xlink:href="#BitstreamVeraSans-Roman-20"/>
      <use x="602.5390625" xlink:href="#BitstreamVeraSans-Roman-44"/>
      <use x="679.541015625" xlink:href="#BitstreamVeraSans-Roman-69"/>
      <use x="707.32421875" xlink:href="#BitstreamVeraSans-Roman-73"/>
      <use x="759.423828125" xlink:href="#BitstreamVeraSans-Roman-74"/>
      <use x="798.6328125" xlink:href="#BitstreamVeraSans-Roman-72"/>
      <use x="839.74609375" xlink:href="#BitstreamVeraSans-Roman-69"/>
      <use x="867.529296875" xlink:href="#BitstreamVeraSans-Roman-62"/>
      <use x="931.005859375" xlink:href="#BitstreamVeraSans-Roman-75"/>
      <use x="994.384765625" xlink:href="#BitstreamVeraSans-Roman-74"/>
      <use x="1033.59375" xlink:href="#BitstreamVeraSans-Roman-69"/>
      <use x="1061.37695312" xlink:href="#BitstreamVeraSans-Roman-6f"/>
      <use x="1122.55859375" xlink:href="#BitstreamVeraSans-Roman-6e"/>
     </g>
    </g>
   </g>
  </g>
  <g id="axes_2">
   <g id="patch_7">
    <path d="M 208.65625 124.539063 
L 315.175 124.539063 
L 315.175 12.039063 
L 208.65625 12.039063 
z
" style="fill:#ffffff;"/>
   </g>
   <g id="line2d_21">
    <path clip-path="url(#pd30d906907)" d="M 222.622032 124.539063 
L 223.095664 124.494063 
L 226.040566 124.314063 
L 227.133991 124.044063 
L 228.754849 123.796563 
L 229.023326 123.549063 
L 229.41707 123.414063 
L 229.933504 123.076563 
L 230.100875 122.941563 
L 230.469269 122.739063 
L 230.724423 122.536563 
L 231.595791 121.884063 
L 232.041423 121.726563 
L 232.203779 121.569063 
L 232.515633 121.276563 
L 232.624665 121.141563 
L 232.865569 120.984063 
L 233.109757 120.669063 
L 235.154482 118.059063 
L 235.299023 117.856563 
L 236.252747 116.056563 
L 236.421069 115.696563 
L 236.572018 115.516563 
L 236.731836 115.134063 
L 237.071422 114.481563 
L 237.190679 114.256563 
L 237.457614 113.761563 
L 237.551803 113.604063 
L 237.623653 113.379063 
L 238.34078 111.534063 
L 238.413828 111.354063 
L 238.567588 110.904063 
L 238.803279 110.319063 
L 238.921823 109.824063 
L 239.104297 109.464063 
L 239.334482 108.654063 
L 239.639199 107.844063 
L 239.767781 107.371563 
L 239.854804 107.191563 
L 239.972756 106.921563 
L 240.116793 106.291563 
L 240.181582 105.999063 
L 240.668047 104.626563 
L 240.832018 103.996563 
L 241.019261 103.366563 
L 241.157319 102.984063 
L 241.635935 101.161563 
L 241.745555 100.599063 
L 241.860845 100.171563 
L 242.000954 99.609063 
L 243.216013 94.276563 
L 243.323995 93.916563 
L 243.449811 93.331563 
L 243.559342 92.746563 
L 243.701179 92.184063 
L 243.907028 90.721563 
L 244.195945 89.439063 
L 244.306965 88.921563 
L 244.533824 87.931563 
L 244.670181 87.121563 
L 244.743065 86.829063 
L 244.872683 86.154063 
L 245.026125 85.546563 
L 245.139476 84.916563 
L 245.200026 84.691563 
L 246.278669 79.269063 
L 246.340373 78.999063 
L 246.531052 77.694063 
L 246.67889 77.086563 
L 246.792168 76.591563 
L 248.426817 67.524063 
L 248.606999 66.331563 
L 248.779653 65.724063 
L 249.002467 64.306563 
L 249.056487 64.014063 
L 249.170529 63.384063 
L 249.400662 62.011563 
L 249.70811 60.436563 
L 249.838482 59.941563 
L 249.946539 59.491563 
L 250.136235 58.366563 
L 251.678918 50.019063 
L 251.757371 49.749063 
L 252.546592 45.924063 
L 252.592314 45.699063 
L 252.70291 45.159063 
L 252.754869 44.821563 
L 252.990973 43.561563 
L 253.083289 43.179063 
L 253.196388 42.729063 
L 253.453226 41.401563 
L 253.508274 41.109063 
L 253.633889 40.636563 
L 253.761014 39.984063 
L 253.878509 39.331563 
L 254.332273 37.711563 
L 254.967033 35.259063 
L 255.031208 35.056563 
L 255.144911 34.606563 
L 255.472992 33.459063 
L 255.714458 32.559063 
L 255.835185 32.019063 
L 256.004076 31.231563 
L 256.081165 31.051563 
L 257.788025 26.034063 
L 257.893172 25.741563 
L 258.016991 25.471563 
L 258.101255 25.269063 
L 258.28459 24.909063 
L 258.357132 24.661563 
L 258.504152 24.346563 
L 259.061487 23.176563 
L 259.153666 22.996563 
L 259.461692 22.164063 
L 259.564773 22.006563 
L 259.667462 21.736563 
L 259.757697 21.556563 
L 260.021312 21.129063 
L 260.304634 20.611563 
L 260.476223 20.139063 
L 260.659823 19.801563 
L 260.798288 19.599063 
L 261.376565 18.429063 
L 261.495289 18.159063 
L 261.673015 17.866563 
L 261.841156 17.619063 
L 262.609976 16.831563 
L 262.811075 16.606563 
L 262.898905 16.449063 
L 263.049017 16.201563 
L 263.522996 15.639063 
L 263.858472 15.324063 
L 264.292651 14.851563 
L 264.563487 14.671563 
L 264.710385 14.604063 
L 265.236316 14.424063 
L 265.492594 14.221563 
L 265.898879 13.974063 
L 268.090685 12.894063 
L 269.015028 12.714063 
L 269.025955 12.691563 
L 270.590039 12.421563 
L 270.651696 12.376563 
L 273.735891 12.084063 
L 279.976202 12.061563 
L 279.976202 12.061563 
" style="fill:none;stroke:#ff0000;stroke-linecap:square;"/>
   </g>
   <g id="line2d_22">
    <path clip-path="url(#pd30d906907)" d="M 232.041423 124.539063 
L 232.041423 12.039063 
" style="fill:none;stroke:#ff0000;stroke-linecap:square;"/>
   </g>
   <g id="line2d_23">
    <path clip-path="url(#pd30d906907)" d="M 264.292651 124.539063 
L 264.292651 12.039063 
" style="fill:none;stroke:#ff0000;stroke-linecap:square;"/>
   </g>
   <g id="line2d_24">
    <path clip-path="url(#pd30d906907)" d="M 216.84709 124.539063 
L 220.372695 124.516563 
L 221.760421 124.404063 
L 223.090611 124.224063 
L 224.863027 123.661563 
L 225.117547 123.526563 
L 225.509595 123.369063 
L 225.868894 123.009063 
L 226.036635 122.784063 
L 226.849044 121.929063 
L 227.34371 121.299063 
L 227.564103 120.871563 
L 227.725264 120.579063 
L 227.993467 120.151563 
L 228.270413 119.701563 
L 228.359077 119.476563 
L 228.92264 117.969063 
L 229.116146 117.519063 
L 229.403302 116.506563 
L 229.515574 116.236563 
L 229.651622 115.741563 
L 230.177666 113.559063 
L 230.294635 113.019063 
L 230.414125 112.614063 
L 230.822598 111.084063 
L 230.936542 110.454063 
L 231.025839 109.914063 
L 232.476592 101.521563 
L 232.540593 101.161563 
L 232.675383 100.396563 
L 232.732772 100.059063 
L 233.045422 98.169063 
L 233.115861 97.786563 
L 233.28406 96.931563 
L 233.367124 96.256563 
L 236.741157 69.706563 
L 236.855583 68.671563 
L 237.013011 67.366563 
L 237.289689 64.824063 
L 237.455778 63.564063 
L 237.536303 62.866563 
L 237.684522 61.269063 
L 238.095513 58.299063 
L 238.467628 55.081563 
L 238.516368 54.519063 
L 238.62445 53.439063 
L 238.654871 53.101563 
L 238.914692 50.964063 
L 239.146014 49.389063 
L 239.264222 48.511563 
L 241.124174 35.979063 
L 241.158561 35.776563 
L 241.378468 34.674063 
L 241.528026 33.976563 
L 243.443678 24.436563 
L 243.529624 24.166563 
L 243.739087 23.491563 
L 243.824999 23.289063 
L 243.930302 22.704063 
L 244.034414 22.389063 
L 244.536059 20.971563 
L 244.695472 20.566563 
L 245.336173 18.631563 
L 245.482023 18.496563 
L 245.694995 18.046563 
L 245.816353 17.754063 
L 245.957572 17.506563 
L 246.523788 16.359063 
L 246.679574 16.156563 
L 247.53565 14.964063 
L 247.622697 14.851563 
L 247.799864 14.694063 
L 247.952258 14.514063 
L 248.552959 13.951563 
L 248.842441 13.704063 
L 248.928638 13.614063 
L 249.275635 13.389063 
L 250.105966 12.826563 
L 250.782939 12.646563 
L 251.011467 12.511563 
L 255.23454 12.106563 
L 261.751862 12.061563 
L 261.751862 12.061563 
" style="fill:none;stroke:#0000ff;stroke-linecap:square;"/>
   </g>
   <g id="line2d_25">
    <path clip-path="url(#pd30d906907)" d="M 226.984525 124.539063 
L 226.984525 12.039063 
" style="fill:none;stroke:#0000ff;stroke-dasharray:6.000000,6.000000;stroke-dashoffset:0.0;"/>
   </g>
   <g id="line2d_26">
    <path clip-path="url(#pd30d906907)" d="M 247.622697 124.539063 
L 247.622697 12.039063 
" style="fill:none;stroke:#0000ff;stroke-dasharray:6.000000,6.000000;stroke-dashoffset:0.0;"/>
   </g>
   <g id="patch_8">
    <path d="M 208.65625 12.039063 
L 315.175 12.039063 
" style="fill:none;stroke:#000000;stroke-linecap:square;stroke-linejoin:miter;"/>
   </g>
   <g id="patch_9">
    <path d="M 315.175 124.539063 
L 315.175 12.039063 
" style="fill:none;stroke:#000000;stroke-linecap:square;stroke-linejoin:miter;"/>
   </g>
   <g id="patch_10">
    <path d="M 208.65625 124.539063 
L 315.175 124.539063 
" style="fill:none;stroke:#000000;stroke-linecap:square;stroke-linejoin:miter;"/>
   </g>
   <g id="patch_11">
    <path d="M 208.65625 124.539063 
L 208.65625 12.039063 
" style="fill:none;stroke:#000000;stroke-linecap:square;stroke-linejoin:miter;"/>
   </g>
   <g id="matplotlib.axis_3">
    <g id="xtick_5">
     <g id="line2d_27">
      <g>
       <use style="stroke:#000000;stroke-width:0.5;" x="208.65625" xlink:href="#m986f81cba0" y="124.5390625"/>
      </g>
     </g>
     <g id="line2d_28">
      <g>
       <use style="stroke:#000000;stroke-width:0.5;" x="208.65625" xlink:href="#m53dc956b06" y="12.0390625"/>
      </g>
     </g>
     <g id="text_10">
      <!-- −0.2 -->
      <defs>
       <path d="M 19.1875 8.296875 
L 53.609375 8.296875 
L 53.609375 0 
L 7.328125 0 
L 7.328125 8.296875 
Q 12.9375 14.109375 22.625 23.890625 
Q 32.328125 33.6875 34.8125 36.53125 
Q 39.546875 41.84375 41.421875 45.53125 
Q 43.3125 49.21875 43.3125 52.78125 
Q 43.3125 58.59375 39.234375 62.25 
Q 35.15625 65.921875 28.609375 65.921875 
Q 23.96875 65.921875 18.8125 64.3125 
Q 13.671875 62.703125 7.8125 59.421875 
L 7.8125 69.390625 
Q 13.765625 71.78125 18.9375 73 
Q 24.125 74.21875 28.421875 74.21875 
Q 39.75 74.21875 46.484375 68.546875 
Q 53.21875 62.890625 53.21875 53.421875 
Q 53.21875 48.921875 51.53125 44.890625 
Q 49.859375 40.875 45.40625 35.40625 
Q 44.1875 33.984375 37.640625 27.21875 
Q 31.109375 20.453125 19.1875 8.296875 
" id="BitstreamVeraSans-Roman-32"/>
      </defs>
      <g transform="translate(196.51484375 136.1375)scale(0.1 -0.1)">
       <use xlink:href="#BitstreamVeraSans-Roman-2212"/>
       <use x="83.7890625" xlink:href="#BitstreamVeraSans-Roman-30"/>
       <use x="147.412109375" xlink:href="#BitstreamVeraSans-Roman-2e"/>
       <use x="179.19921875" xlink:href="#BitstreamVeraSans-Roman-32"/>
      </g>
     </g>
    </g>
    <g id="xtick_6">
     <g id="line2d_29">
      <g>
       <use style="stroke:#000000;stroke-width:0.5;" x="244.1625" xlink:href="#m986f81cba0" y="124.5390625"/>
      </g>
     </g>
     <g id="line2d_30">
      <g>
       <use style="stroke:#000000;stroke-width:0.5;" x="244.1625" xlink:href="#m53dc956b06" y="12.0390625"/>
      </g>
     </g>
     <g id="text_11">
      <!-- −0.1 -->
      <g transform="translate(232.02109375 136.1375)scale(0.1 -0.1)">
       <use xlink:href="#BitstreamVeraSans-Roman-2212"/>
       <use x="83.7890625" xlink:href="#BitstreamVeraSans-Roman-30"/>
       <use x="147.412109375" xlink:href="#BitstreamVeraSans-Roman-2e"/>
       <use x="179.19921875" xlink:href="#BitstreamVeraSans-Roman-31"/>
      </g>
     </g>
    </g>
    <g id="xtick_7">
     <g id="line2d_31">
      <g>
       <use style="stroke:#000000;stroke-width:0.5;" x="279.66875" xlink:href="#m986f81cba0" y="124.5390625"/>
      </g>
     </g>
     <g id="line2d_32">
      <g>
       <use style="stroke:#000000;stroke-width:0.5;" x="279.66875" xlink:href="#m53dc956b06" y="12.0390625"/>
      </g>
     </g>
     <g id="text_12">
      <!-- 0.0 -->
      <g transform="translate(271.7171875 136.1375)scale(0.1 -0.1)">
       <use xlink:href="#BitstreamVeraSans-Roman-30"/>
       <use x="63.623046875" xlink:href="#BitstreamVeraSans-Roman-2e"/>
       <use x="95.41015625" xlink:href="#BitstreamVeraSans-Roman-30"/>
      </g>
     </g>
    </g>
    <g id="xtick_8">
     <g id="line2d_33">
      <g>
       <use style="stroke:#000000;stroke-width:0.5;" x="315.175" xlink:href="#m986f81cba0" y="124.5390625"/>
      </g>
     </g>
     <g id="line2d_34">
      <g>
       <use style="stroke:#000000;stroke-width:0.5;" x="315.175" xlink:href="#m53dc956b06" y="12.0390625"/>
      </g>
     </g>
     <g id="text_13">
      <!-- 0.1 -->
      <g transform="translate(307.2234375 136.1375)scale(0.1 -0.1)">
       <use xlink:href="#BitstreamVeraSans-Roman-30"/>
       <use x="63.623046875" xlink:href="#BitstreamVeraSans-Roman-2e"/>
       <use x="95.41015625" xlink:href="#BitstreamVeraSans-Roman-31"/>
      </g>
     </g>
    </g>
    <g id="text_14">
     <!-- Y component -->
     <defs>
      <path d="M -0.203125 72.90625 
L 10.40625 72.90625 
L 30.609375 42.921875 
L 50.6875 72.90625 
L 61.28125 72.90625 
L 35.5 34.71875 
L 35.5 0 
L 25.59375 0 
L 25.59375 34.71875 
z
" id="BitstreamVeraSans-Roman-59"/>
     </defs>
     <g transform="translate(228.9859375 150.815625)scale(0.1 -0.1)">
      <use xlink:href="#BitstreamVeraSans-Roman-59"/>
      <use x="61.083984375" xlink:href="#BitstreamVeraSans-Roman-20"/>
      <use x="92.87109375" xlink:href="#BitstreamVeraSans-Roman-63"/>
      <use x="147.8515625" xlink:href="#BitstreamVeraSans-Roman-6f"/>
      <use x="209.033203125" xlink:href="#BitstreamVeraSans-Roman-6d"/>
      <use x="306.4453125" xlink:href="#BitstreamVeraSans-Roman-70"/>
      <use x="369.921875" xlink:href="#BitstreamVeraSans-Roman-6f"/>
      <use x="431.103515625" xlink:href="#BitstreamVeraSans-Roman-6e"/>
      <use x="494.482421875" xlink:href="#BitstreamVeraSans-Roman-65"/>
      <use x="556.005859375" xlink:href="#BitstreamVeraSans-Roman-6e"/>
      <use x="619.384765625" xlink:href="#BitstreamVeraSans-Roman-74"/>
     </g>
    </g>
   </g>
   <g id="matplotlib.axis_4">
    <g id="ytick_4">
     <g id="line2d_35">
      <g>
       <use style="stroke:#000000;stroke-width:0.5;" x="208.65625" xlink:href="#m5d38f33b46" y="124.5390625"/>
      </g>
     </g>
     <g id="line2d_36">
      <g>
       <use style="stroke:#000000;stroke-width:0.5;" x="315.175" xlink:href="#m6f8b6d953a" y="124.5390625"/>
      </g>
     </g>
     <g id="text_15">
      <!-- 0.0 -->
      <g transform="translate(188.753125 127.2984375)scale(0.1 -0.1)">
       <use xlink:href="#BitstreamVeraSans-Roman-30"/>
       <use x="63.623046875" xlink:href="#BitstreamVeraSans-Roman-2e"/>
       <use x="95.41015625" xlink:href="#BitstreamVeraSans-Roman-30"/>
      </g>
     </g>
    </g>
    <g id="ytick_5">
     <g id="line2d_37">
      <g>
       <use style="stroke:#000000;stroke-width:0.5;" x="208.65625" xlink:href="#m5d38f33b46" y="68.2890625"/>
      </g>
     </g>
     <g id="line2d_38">
      <g>
       <use style="stroke:#000000;stroke-width:0.5;" x="315.175" xlink:href="#m6f8b6d953a" y="68.2890625"/>
      </g>
     </g>
     <g id="text_16">
      <!-- 0.5 -->
      <g transform="translate(188.753125 71.0484375)scale(0.1 -0.1)">
       <use xlink:href="#BitstreamVeraSans-Roman-30"/>
       <use x="63.623046875" xlink:href="#BitstreamVeraSans-Roman-2e"/>
       <use x="95.41015625" xlink:href="#BitstreamVeraSans-Roman-35"/>
      </g>
     </g>
    </g>
    <g id="ytick_6">
     <g id="line2d_39">
      <g>
       <use style="stroke:#000000;stroke-width:0.5;" x="208.65625" xlink:href="#m5d38f33b46" y="12.0390625"/>
      </g>
     </g>
     <g id="line2d_40">
      <g>
       <use style="stroke:#000000;stroke-width:0.5;" x="315.175" xlink:href="#m6f8b6d953a" y="12.0390625"/>
      </g>
     </g>
     <g id="text_17">
      <!-- 1.0 -->
      <g transform="translate(188.753125 14.7984375)scale(0.1 -0.1)">
       <use xlink:href="#BitstreamVeraSans-Roman-31"/>
       <use x="63.623046875" xlink:href="#BitstreamVeraSans-Roman-2e"/>
       <use x="95.41015625" xlink:href="#BitstreamVeraSans-Roman-30"/>
      </g>
     </g>
    </g>
    <g id="text_18">
     <!-- Cumulative Distribution -->
     <g transform="translate(181.6734375 127.584375)rotate(-90.0)scale(0.1 -0.1)">
      <use xlink:href="#BitstreamVeraSans-Roman-43"/>
      <use x="69.82421875" xlink:href="#BitstreamVeraSans-Roman-75"/>
      <use x="133.203125" xlink:href="#BitstreamVeraSans-Roman-6d"/>
      <use x="230.615234375" xlink:href="#BitstreamVeraSans-Roman-75"/>
      <use x="293.994140625" xlink:href="#BitstreamVeraSans-Roman-6c"/>
      <use x="321.77734375" xlink:href="#BitstreamVeraSans-Roman-61"/>
      <use x="383.056640625" xlink:href="#BitstreamVeraSans-Roman-74"/>
      <use x="422.265625" xlink:href="#BitstreamVeraSans-Roman-69"/>
      <use x="450.048828125" xlink:href="#BitstreamVeraSans-Roman-76"/>
      <use x="509.228515625" xlink:href="#BitstreamVeraSans-Roman-65"/>
      <use x="570.751953125" xlink:href="#BitstreamVeraSans-Roman-20"/>
      <use x="602.5390625" xlink:href="#BitstreamVeraSans-Roman-44"/>
      <use x="679.541015625" xlink:href="#BitstreamVeraSans-Roman-69"/>
      <use x="707.32421875" xlink:href="#BitstreamVeraSans-Roman-73"/>
      <use x="759.423828125" xlink:href="#BitstreamVeraSans-Roman-74"/>
      <use x="798.6328125" xlink:href="#BitstreamVeraSans-Roman-72"/>
      <use x="839.74609375" xlink:href="#BitstreamVeraSans-Roman-69"/>
      <use x="867.529296875" xlink:href="#BitstreamVeraSans-Roman-62"/>
      <use x="931.005859375" xlink:href="#BitstreamVeraSans-Roman-75"/>
      <use x="994.384765625" xlink:href="#BitstreamVeraSans-Roman-74"/>
      <use x="1033.59375" xlink:href="#BitstreamVeraSans-Roman-69"/>
      <use x="1061.37695312" xlink:href="#BitstreamVeraSans-Roman-6f"/>
      <use x="1122.55859375" xlink:href="#BitstreamVeraSans-Roman-6e"/>
     </g>
    </g>
   </g>
  </g>
  <g id="axes_3">
   <g id="patch_12">
    <path d="M 375.53125 124.539063 
L 482.05 124.539063 
L 482.05 12.039063 
L 375.53125 12.039063 
z
" style="fill:#ffffff;"/>
   </g>
   <g id="line2d_41">
    <path clip-path="url(#pd3d0da33e6)" d="M 382.129009 124.539063 
L 383.435707 124.494063 
L 385.91096 124.404063 
L 387.402353 124.269063 
L 390.667484 123.391563 
L 390.759883 123.324063 
L 391.563585 123.031563 
L 391.667937 122.896563 
L 392.392048 122.379063 
L 392.515762 122.199063 
L 393.733041 121.299063 
L 394.024694 121.074063 
L 395.080114 119.814063 
L 395.262825 119.544063 
L 397.702775 116.011563 
L 397.855653 115.741563 
L 398.351519 114.751563 
L 398.483902 114.234063 
L 398.59819 113.986563 
L 398.731996 113.761563 
L 399.005867 113.041563 
L 399.205791 112.591563 
L 399.342743 112.389063 
L 399.592665 111.759063 
L 399.703169 111.421563 
L 399.877409 110.949063 
L 400.019214 110.634063 
L 400.130557 110.251563 
L 400.375112 109.666563 
L 400.589744 108.856563 
L 400.783243 108.294063 
L 400.87561 108.069063 
L 401.113586 106.831563 
L 401.423208 105.616563 
L 401.492637 105.369063 
L 401.638676 104.851563 
L 401.68747 104.671563 
L 401.865419 103.996563 
L 402.314906 102.309063 
L 402.435936 101.769063 
L 405.342884 87.774063 
L 405.472087 87.031563 
L 405.631936 86.086563 
L 405.819554 84.894063 
L 406.11859 83.229063 
L 406.249657 82.599063 
L 406.750425 79.291563 
L 406.994497 77.829063 
L 407.062473 77.491563 
L 407.278939 76.186563 
L 407.335826 75.939063 
L 407.574654 74.679063 
L 407.711497 74.004063 
L 407.774208 73.486563 
L 408.108551 71.416563 
L 408.428133 69.504063 
L 408.490116 69.324063 
L 408.594936 68.356563 
L 408.623547 68.109063 
L 408.723075 67.479063 
L 409.4212 63.271563 
L 409.485409 63.069063 
L 410.344817 57.849063 
L 410.510646 56.859063 
L 412.181718 47.949063 
L 412.392992 46.756563 
L 412.513299 46.284063 
L 412.70606 45.159063 
L 415.586199 32.109063 
L 415.797508 31.366563 
L 415.935645 30.804063 
L 416.014933 30.579063 
L 416.156183 29.949063 
L 418.83067 21.466563 
L 419.019927 21.129063 
L 419.138962 20.701563 
L 419.23308 20.544063 
L 419.320463 20.319063 
L 419.54242 19.801563 
L 419.64111 19.576563 
L 419.768963 19.374063 
L 419.934659 19.081563 
L 420.99677 17.506563 
L 421.252963 17.214063 
L 422.397598 15.549063 
L 422.560079 15.369063 
L 422.675508 15.256563 
L 423.099728 14.784063 
L 423.441829 14.469063 
L 424.333993 13.906563 
L 425.628449 13.231563 
L 426.268062 12.916563 
L 431.033707 12.196563 
L 435.250174 12.061563 
L 435.250174 12.061563 
" style="fill:none;stroke:#ff0000;stroke-linecap:square;"/>
   </g>
   <g id="line2d_42">
    <path clip-path="url(#pd3d0da33e6)" d="M 393.164212 124.539063 
L 393.164212 12.039063 
" style="fill:none;stroke:#ff0000;stroke-linecap:square;"/>
   </g>
   <g id="line2d_43">
    <path clip-path="url(#pd3d0da33e6)" d="M 423.024621 124.539063 
L 423.024621 12.039063 
" style="fill:none;stroke:#ff0000;stroke-linecap:square;"/>
   </g>
   <g id="line2d_44">
    <path clip-path="url(#pd3d0da33e6)" d="M 395.321318 124.539063 
L 400.480869 124.516563 
L 403.987933 124.404063 
L 404.12173 124.381563 
L 406.651991 124.246563 
L 409.068202 123.909063 
L 409.300519 123.819063 
L 410.185725 123.684063 
L 410.234805 123.639063 
L 411.400029 123.256563 
L 411.578613 123.211563 
L 412.438925 122.874063 
L 412.521785 122.806563 
L 412.912917 122.649063 
L 413.063987 122.559063 
L 413.680406 122.154063 
L 413.931499 121.839063 
L 414.807692 121.186563 
L 415.152217 121.029063 
L 415.900823 120.331563 
L 416.095339 120.196563 
L 416.214583 120.061563 
L 416.404021 119.859063 
L 416.492927 119.724063 
L 416.626899 119.566563 
L 416.711924 119.386563 
L 417.068767 119.094063 
L 417.179803 118.891563 
L 417.318346 118.666563 
L 417.469346 118.419063 
L 417.89618 117.699063 
L 418.178494 117.181563 
L 418.385423 116.731563 
L 418.491462 116.349063 
L 418.637603 116.034063 
L 418.750796 115.831563 
L 418.98687 115.606563 
L 419.151196 115.314063 
L 419.697284 114.481563 
L 419.868163 113.874063 
L 419.953275 113.694063 
L 420.153807 113.199063 
L 420.309831 112.884063 
L 420.485974 112.434063 
L 420.685236 112.074063 
L 420.989445 111.129063 
L 421.085963 110.904063 
L 421.22249 110.454063 
L 421.292549 110.184063 
L 421.421245 109.734063 
L 421.549328 109.531563 
L 421.66746 109.171563 
L 421.792222 108.879063 
L 422.092972 108.316563 
L 422.22922 107.911563 
L 422.300258 107.641563 
L 422.679225 106.246563 
L 422.772899 106.021563 
L 422.904719 105.594063 
L 423.054228 105.166563 
L 423.113662 104.986563 
L 423.35945 103.996563 
L 423.450857 103.771563 
L 424.136675 100.981563 
L 424.255019 100.576563 
L 424.514775 99.451563 
L 424.903474 97.584063 
L 424.983933 97.291563 
L 425.134402 96.661563 
L 425.314865 96.054063 
L 425.454404 95.446563 
L 425.505179 95.266563 
L 425.61357 94.771563 
L 425.656084 94.614063 
L 425.848648 93.489063 
L 426.061206 92.724063 
L 427.00161 88.381563 
L 427.123392 87.976563 
L 428.924778 78.099063 
L 429.039072 77.424063 
L 429.100361 77.086563 
L 429.231825 76.366563 
L 429.531074 74.926563 
L 429.722703 73.734063 
L 430.247854 71.214063 
L 430.307269 70.899063 
L 430.506987 70.224063 
L 430.597908 69.504063 
L 430.728446 68.581563 
L 431.001518 67.231563 
L 431.064906 66.961563 
L 431.204467 66.061563 
L 431.242746 65.746563 
L 431.425287 64.756563 
L 431.471071 64.509063 
L 431.620132 63.789063 
L 431.769586 63.136563 
L 432.427337 59.401563 
L 432.604003 58.434063 
L 433.218284 55.351563 
L 433.332842 54.654063 
L 433.420171 54.339063 
L 433.757874 52.696563 
L 433.827527 52.516563 
L 434.516834 49.051563 
L 434.667401 48.241563 
L 435.859342 41.806563 
L 435.96623 41.446563 
L 436.33476 39.759063 
L 436.556927 38.499063 
L 436.613596 38.206563 
L 436.7376 37.644063 
L 436.851632 36.969063 
L 436.987393 36.406563 
L 437.117102 35.979063 
L 437.238161 35.506563 
L 437.487134 34.359063 
L 437.693496 33.526563 
L 438.116365 31.839063 
L 438.268191 31.186563 
L 438.350734 31.029063 
L 438.490571 30.556563 
L 438.542332 30.331563 
L 438.651797 30.016563 
L 438.720263 29.701563 
L 439.045929 28.711563 
L 439.100089 28.509063 
L 439.28626 27.879063 
L 439.350117 27.721563 
L 439.485996 27.136563 
L 439.799313 26.304063 
L 439.915378 25.854063 
L 440.11289 25.381563 
L 440.237049 25.044063 
L 440.355392 24.841563 
L 440.500672 24.526563 
L 440.875477 23.559063 
L 440.998625 23.266563 
L 441.077801 23.041563 
L 441.675428 21.489063 
L 441.831335 21.129063 
L 441.94406 20.836563 
L 442.24501 20.274063 
L 442.384456 19.914063 
L 442.603265 19.486563 
L 442.693224 19.306563 
L 442.814312 19.104063 
L 443.041625 18.564063 
L 443.206218 18.294063 
L 444.278457 16.674063 
L 445.247169 15.504063 
L 445.409203 15.234063 
L 445.578377 15.099063 
L 445.671288 14.964063 
L 445.826704 14.806563 
L 446.089259 14.356563 
L 446.604231 14.041563 
L 446.800333 13.839063 
L 447.065312 13.681563 
L 447.114143 13.636563 
L 447.542735 13.479063 
L 447.723441 13.389063 
L 448.092697 13.254063 
L 448.257212 13.141563 
L 448.544238 13.006563 
L 448.820648 12.781563 
L 449.835172 12.489063 
L 455.3854 12.129063 
L 457.028764 12.061563 
L 457.028764 12.061563 
" style="fill:none;stroke:#0000ff;stroke-linecap:square;"/>
   </g>
   <g id="line2d_45">
    <path clip-path="url(#pd3d0da33e6)" d="M 413.996986 124.539063 
L 413.996986 12.039063 
" style="fill:none;stroke:#0000ff;stroke-dasharray:6.000000,6.000000;stroke-dashoffset:0.0;"/>
   </g>
   <g id="line2d_46">
    <path clip-path="url(#pd3d0da33e6)" d="M 445.805965 124.539063 
L 445.805965 12.039063 
" style="fill:none;stroke:#0000ff;stroke-dasharray:6.000000,6.000000;stroke-dashoffset:0.0;"/>
   </g>
   <g id="patch_13">
    <path d="M 375.53125 12.039063 
L 482.05 12.039063 
" style="fill:none;stroke:#000000;stroke-linecap:square;stroke-linejoin:miter;"/>
   </g>
   <g id="patch_14">
    <path d="M 482.05 124.539063 
L 482.05 12.039063 
" style="fill:none;stroke:#000000;stroke-linecap:square;stroke-linejoin:miter;"/>
   </g>
   <g id="patch_15">
    <path d="M 375.53125 124.539063 
L 482.05 124.539063 
" style="fill:none;stroke:#000000;stroke-linecap:square;stroke-linejoin:miter;"/>
   </g>
   <g id="patch_16">
    <path d="M 375.53125 124.539063 
L 375.53125 12.039063 
" style="fill:none;stroke:#000000;stroke-linecap:square;stroke-linejoin:miter;"/>
   </g>
   <g id="matplotlib.axis_5">
    <g id="xtick_9">
     <g id="line2d_47">
      <g>
       <use style="stroke:#000000;stroke-width:0.5;" x="375.53125" xlink:href="#m986f81cba0" y="124.5390625"/>
      </g>
     </g>
     <g id="line2d_48">
      <g>
       <use style="stroke:#000000;stroke-width:0.5;" x="375.53125" xlink:href="#m53dc956b06" y="12.0390625"/>
      </g>
     </g>
     <g id="text_19">
      <!-- 0.3 -->
      <defs>
       <path d="M 40.578125 39.3125 
Q 47.65625 37.796875 51.625 33 
Q 55.609375 28.21875 55.609375 21.1875 
Q 55.609375 10.40625 48.1875 4.484375 
Q 40.765625 -1.421875 27.09375 -1.421875 
Q 22.515625 -1.421875 17.65625 -0.515625 
Q 12.796875 0.390625 7.625 2.203125 
L 7.625 11.71875 
Q 11.71875 9.328125 16.59375 8.109375 
Q 21.484375 6.890625 26.8125 6.890625 
Q 36.078125 6.890625 40.9375 10.546875 
Q 45.796875 14.203125 45.796875 21.1875 
Q 45.796875 27.640625 41.28125 31.265625 
Q 36.765625 34.90625 28.71875 34.90625 
L 20.21875 34.90625 
L 20.21875 43.015625 
L 29.109375 43.015625 
Q 36.375 43.015625 40.234375 45.921875 
Q 44.09375 48.828125 44.09375 54.296875 
Q 44.09375 59.90625 40.109375 62.90625 
Q 36.140625 65.921875 28.71875 65.921875 
Q 24.65625 65.921875 20.015625 65.03125 
Q 15.375 64.15625 9.8125 62.3125 
L 9.8125 71.09375 
Q 15.4375 72.65625 20.34375 73.4375 
Q 25.25 74.21875 29.59375 74.21875 
Q 40.828125 74.21875 47.359375 69.109375 
Q 53.90625 64.015625 53.90625 55.328125 
Q 53.90625 49.265625 50.4375 45.09375 
Q 46.96875 40.921875 40.578125 39.3125 
" id="BitstreamVeraSans-Roman-33"/>
      </defs>
      <g transform="translate(367.5796875 136.1375)scale(0.1 -0.1)">
       <use xlink:href="#BitstreamVeraSans-Roman-30"/>
       <use x="63.623046875" xlink:href="#BitstreamVeraSans-Roman-2e"/>
       <use x="95.41015625" xlink:href="#BitstreamVeraSans-Roman-33"/>
      </g>
     </g>
    </g>
    <g id="xtick_10">
     <g id="line2d_49">
      <g>
       <use style="stroke:#000000;stroke-width:0.5;" x="411.0375" xlink:href="#m986f81cba0" y="124.5390625"/>
      </g>
     </g>
     <g id="line2d_50">
      <g>
       <use style="stroke:#000000;stroke-width:0.5;" x="411.0375" xlink:href="#m53dc956b06" y="12.0390625"/>
      </g>
     </g>
     <g id="text_20">
      <!-- 0.4 -->
      <defs>
       <path d="M 37.796875 64.3125 
L 12.890625 25.390625 
L 37.796875 25.390625 
z
M 35.203125 72.90625 
L 47.609375 72.90625 
L 47.609375 25.390625 
L 58.015625 25.390625 
L 58.015625 17.1875 
L 47.609375 17.1875 
L 47.609375 0 
L 37.796875 0 
L 37.796875 17.1875 
L 4.890625 17.1875 
L 4.890625 26.703125 
z
" id="BitstreamVeraSans-Roman-34"/>
      </defs>
      <g transform="translate(403.0859375 136.1375)scale(0.1 -0.1)">
       <use xlink:href="#BitstreamVeraSans-Roman-30"/>
       <use x="63.623046875" xlink:href="#BitstreamVeraSans-Roman-2e"/>
       <use x="95.41015625" xlink:href="#BitstreamVeraSans-Roman-34"/>
      </g>
     </g>
    </g>
    <g id="xtick_11">
     <g id="line2d_51">
      <g>
       <use style="stroke:#000000;stroke-width:0.5;" x="446.54375" xlink:href="#m986f81cba0" y="124.5390625"/>
      </g>
     </g>
     <g id="line2d_52">
      <g>
       <use style="stroke:#000000;stroke-width:0.5;" x="446.54375" xlink:href="#m53dc956b06" y="12.0390625"/>
      </g>
     </g>
     <g id="text_21">
      <!-- 0.5 -->
      <g transform="translate(438.5921875 136.1375)scale(0.1 -0.1)">
       <use xlink:href="#BitstreamVeraSans-Roman-30"/>
       <use x="63.623046875" xlink:href="#BitstreamVeraSans-Roman-2e"/>
       <use x="95.41015625" xlink:href="#BitstreamVeraSans-Roman-35"/>
      </g>
     </g>
    </g>
    <g id="xtick_12">
     <g id="line2d_53">
      <g>
       <use style="stroke:#000000;stroke-width:0.5;" x="482.05" xlink:href="#m986f81cba0" y="124.5390625"/>
      </g>
     </g>
     <g id="line2d_54">
      <g>
       <use style="stroke:#000000;stroke-width:0.5;" x="482.05" xlink:href="#m53dc956b06" y="12.0390625"/>
      </g>
     </g>
     <g id="text_22">
      <!-- 0.6 -->
      <defs>
       <path d="M 33.015625 40.375 
Q 26.375 40.375 22.484375 35.828125 
Q 18.609375 31.296875 18.609375 23.390625 
Q 18.609375 15.53125 22.484375 10.953125 
Q 26.375 6.390625 33.015625 6.390625 
Q 39.65625 6.390625 43.53125 10.953125 
Q 47.40625 15.53125 47.40625 23.390625 
Q 47.40625 31.296875 43.53125 35.828125 
Q 39.65625 40.375 33.015625 40.375 
M 52.59375 71.296875 
L 52.59375 62.3125 
Q 48.875 64.0625 45.09375 64.984375 
Q 41.3125 65.921875 37.59375 65.921875 
Q 27.828125 65.921875 22.671875 59.328125 
Q 17.53125 52.734375 16.796875 39.40625 
Q 19.671875 43.65625 24.015625 45.921875 
Q 28.375 48.1875 33.59375 48.1875 
Q 44.578125 48.1875 50.953125 41.515625 
Q 57.328125 34.859375 57.328125 23.390625 
Q 57.328125 12.15625 50.6875 5.359375 
Q 44.046875 -1.421875 33.015625 -1.421875 
Q 20.359375 -1.421875 13.671875 8.265625 
Q 6.984375 17.96875 6.984375 36.375 
Q 6.984375 53.65625 15.1875 63.9375 
Q 23.390625 74.21875 37.203125 74.21875 
Q 40.921875 74.21875 44.703125 73.484375 
Q 48.484375 72.75 52.59375 71.296875 
" id="BitstreamVeraSans-Roman-36"/>
      </defs>
      <g transform="translate(474.0984375 136.1375)scale(0.1 -0.1)">
       <use xlink:href="#BitstreamVeraSans-Roman-30"/>
       <use x="63.623046875" xlink:href="#BitstreamVeraSans-Roman-2e"/>
       <use x="95.41015625" xlink:href="#BitstreamVeraSans-Roman-36"/>
      </g>
     </g>
    </g>
    <g id="text_23">
     <!-- Z component -->
     <defs>
      <path d="M 5.609375 72.90625 
L 62.890625 72.90625 
L 62.890625 65.375 
L 16.796875 8.296875 
L 64.015625 8.296875 
L 64.015625 0 
L 4.5 0 
L 4.5 7.515625 
L 50.59375 64.59375 
L 5.609375 64.59375 
z
" id="BitstreamVeraSans-Roman-5a"/>
     </defs>
     <g transform="translate(395.48984375 150.815625)scale(0.1 -0.1)">
      <use xlink:href="#BitstreamVeraSans-Roman-5a"/>
      <use x="68.505859375" xlink:href="#BitstreamVeraSans-Roman-20"/>
      <use x="100.29296875" xlink:href="#BitstreamVeraSans-Roman-63"/>
      <use x="155.2734375" xlink:href="#BitstreamVeraSans-Roman-6f"/>
      <use x="216.455078125" xlink:href="#BitstreamVeraSans-Roman-6d"/>
      <use x="313.8671875" xlink:href="#BitstreamVeraSans-Roman-70"/>
      <use x="377.34375" xlink:href="#BitstreamVeraSans-Roman-6f"/>
      <use x="438.525390625" xlink:href="#BitstreamVeraSans-Roman-6e"/>
      <use x="501.904296875" xlink:href="#BitstreamVeraSans-Roman-65"/>
      <use x="563.427734375" xlink:href="#BitstreamVeraSans-Roman-6e"/>
      <use x="626.806640625" xlink:href="#BitstreamVeraSans-Roman-74"/>
     </g>
    </g>
   </g>
   <g id="matplotlib.axis_6">
    <g id="ytick_7">
     <g id="line2d_55">
      <g>
       <use style="stroke:#000000;stroke-width:0.5;" x="375.53125" xlink:href="#m5d38f33b46" y="124.5390625"/>
      </g>
     </g>
     <g id="line2d_56">
      <g>
       <use style="stroke:#000000;stroke-width:0.5;" x="482.05" xlink:href="#m6f8b6d953a" y="124.5390625"/>
      </g>
     </g>
     <g id="text_24">
      <!-- 0.0 -->
      <g transform="translate(355.628125 127.2984375)scale(0.1 -0.1)">
       <use xlink:href="#BitstreamVeraSans-Roman-30"/>
       <use x="63.623046875" xlink:href="#BitstreamVeraSans-Roman-2e"/>
       <use x="95.41015625" xlink:href="#BitstreamVeraSans-Roman-30"/>
      </g>
     </g>
    </g>
    <g id="ytick_8">
     <g id="line2d_57">
      <g>
       <use style="stroke:#000000;stroke-width:0.5;" x="375.53125" xlink:href="#m5d38f33b46" y="68.2890625"/>
      </g>
     </g>
     <g id="line2d_58">
      <g>
       <use style="stroke:#000000;stroke-width:0.5;" x="482.05" xlink:href="#m6f8b6d953a" y="68.2890625"/>
      </g>
     </g>
     <g id="text_25">
      <!-- 0.5 -->
      <g transform="translate(355.628125 71.0484375)scale(0.1 -0.1)">
       <use xlink:href="#BitstreamVeraSans-Roman-30"/>
       <use x="63.623046875" xlink:href="#BitstreamVeraSans-Roman-2e"/>
       <use x="95.41015625" xlink:href="#BitstreamVeraSans-Roman-35"/>
      </g>
     </g>
    </g>
    <g id="ytick_9">
     <g id="line2d_59">
      <g>
       <use style="stroke:#000000;stroke-width:0.5;" x="375.53125" xlink:href="#m5d38f33b46" y="12.0390625"/>
      </g>
     </g>
     <g id="line2d_60">
      <g>
       <use style="stroke:#000000;stroke-width:0.5;" x="482.05" xlink:href="#m6f8b6d953a" y="12.0390625"/>
      </g>
     </g>
     <g id="text_26">
      <!-- 1.0 -->
      <g transform="translate(355.628125 14.7984375)scale(0.1 -0.1)">
       <use xlink:href="#BitstreamVeraSans-Roman-31"/>
       <use x="63.623046875" xlink:href="#BitstreamVeraSans-Roman-2e"/>
       <use x="95.41015625" xlink:href="#BitstreamVeraSans-Roman-30"/>
      </g>
     </g>
    </g>
    <g id="text_27">
     <!-- Cumulative Distribution -->
     <g transform="translate(348.5484375 127.584375)rotate(-90.0)scale(0.1 -0.1)">
      <use xlink:href="#BitstreamVeraSans-Roman-43"/>
      <use x="69.82421875" xlink:href="#BitstreamVeraSans-Roman-75"/>
      <use x="133.203125" xlink:href="#BitstreamVeraSans-Roman-6d"/>
      <use x="230.615234375" xlink:href="#BitstreamVeraSans-Roman-75"/>
      <use x="293.994140625" xlink:href="#BitstreamVeraSans-Roman-6c"/>
      <use x="321.77734375" xlink:href="#BitstreamVeraSans-Roman-61"/>
      <use x="383.056640625" xlink:href="#BitstreamVeraSans-Roman-74"/>
      <use x="422.265625" xlink:href="#BitstreamVeraSans-Roman-69"/>
      <use x="450.048828125" xlink:href="#BitstreamVeraSans-Roman-76"/>
      <use x="509.228515625" xlink:href="#BitstreamVeraSans-Roman-65"/>
      <use x="570.751953125" xlink:href="#BitstreamVeraSans-Roman-20"/>
      <use x="602.5390625" xlink:href="#BitstreamVeraSans-Roman-44"/>
      <use x="679.541015625" xlink:href="#BitstreamVeraSans-Roman-69"/>
      <use x="707.32421875" xlink:href="#BitstreamVeraSans-Roman-73"/>
      <use x="759.423828125" xlink:href="#BitstreamVeraSans-Roman-74"/>
      <use x="798.6328125" xlink:href="#BitstreamVeraSans-Roman-72"/>
      <use x="839.74609375" xlink:href="#BitstreamVeraSans-Roman-69"/>
      <use x="867.529296875" xlink:href="#BitstreamVeraSans-Roman-62"/>
      <use x="931.005859375" xlink:href="#BitstreamVeraSans-Roman-75"/>
      <use x="994.384765625" xlink:href="#BitstreamVeraSans-Roman-74"/>
      <use x="1033.59375" xlink:href="#BitstreamVeraSans-Roman-69"/>
      <use x="1061.37695312" xlink:href="#BitstreamVeraSans-Roman-6f"/>
      <use x="1122.55859375" xlink:href="#BitstreamVeraSans-Roman-6e"/>
     </g>
    </g>
   </g>
  </g>
 </g>
 <defs>
  <clipPath id="pd30d906907">
   <rect height="112.5" width="106.51875" x="208.65625" y="12.0390625"/>
  </clipPath>
  <clipPath id="pd3d0da33e6">
   <rect height="112.5" width="106.51875" x="375.53125" y="12.0390625"/>
  </clipPath>
  <clipPath id="p2a160a3fb2">
   <rect height="112.5" width="106.51875" x="41.78125" y="12.0390625"/>
  </clipPath>
 </defs>
</svg>
