<?xml version="1.0" encoding="utf-8" standalone="no"?>
<!DOCTYPE svg PUBLIC "-//W3C//DTD SVG 1.1//EN"
  "http://www.w3.org/Graphics/SVG/1.1/DTD/svg11.dtd">
<!-- Created with matplotlib (http://matplotlib.org/) -->
<svg height="353pt" version="1.1" viewBox="0 0 352 353" width="352pt" xmlns="http://www.w3.org/2000/svg" xmlns:xlink="http://www.w3.org/1999/xlink">
 <defs>
  <style type="text/css">
*{stroke-linecap:butt;stroke-linejoin:round;stroke-miterlimit:100000;}
  </style>
 </defs>
 <g id="figure_1">
  <g id="patch_1">
   <path d="M 0 353.478125 
L 352.448916 353.478125 
L 352.448916 0 
L 0 0 
L 0 353.478125 
z
" style="fill:none;"/>
  </g>
  <g id="axes_1">
   <g id="PathCollection_1">
    <defs>
     <path d="M 0 2.236068 
C 0.593012 2.236068 1.161816 2.000462 1.581139 1.581139 
C 2.000462 1.161816 2.236068 0.593012 2.236068 0 
C 2.236068 -0.593012 2.000462 -1.161816 1.581139 -1.581139 
C 1.161816 -2.000462 0.593012 -2.236068 0 -2.236068 
C -0.593012 -2.236068 -1.161816 -2.000462 -1.581139 -1.581139 
C -2.000462 -1.161816 -2.236068 -0.593012 -2.236068 0 
C -2.236068 0.593012 -2.000462 1.161816 -1.581139 1.581139 
C -1.161816 2.000462 -0.593012 2.236068 0 2.236068 
z
" id="m0a51c511f1" style="stroke:#000000;"/>
    </defs>
    <g clip-path="url(#p06c7766c7c)">
     <use style="stroke:#000000;" x="120.419815988" xlink:href="#m0a51c511f1" y="74.9500759519"/>
    </g>
   </g>
   <g id="PathCollection_2">
    <g clip-path="url(#p06c7766c7c)">
     <use style="stroke:#000000;" x="74.4105813846" xlink:href="#m0a51c511f1" y="92.6480115783"/>
    </g>
   </g>
   <g id="line2d_1">
    <path clip-path="url(#p06c7766c7c)" d="M 190.070748 23.007568 
L 192.640207 23.02994 
L 195.208883 23.097051 
L 200.340757 23.365391 
L 205.460119 23.81226 
L 210.560732 24.437115 
L 215.63638 25.239194 
L 220.680881 26.21752 
L 225.688088 27.370901 
L 230.651901 28.697932 
L 235.566271 30.196995 
L 240.425213 31.866266 
L 245.222805 33.703709 
L 249.953204 35.707086 
L 254.610644 37.873957 
L 259.189453 40.201681 
L 263.684051 42.687422 
L 268.088963 45.328153 
L 272.398821 48.120655 
L 276.608376 51.061526 
L 280.712497 54.147184 
L 284.706186 57.373869 
L 288.584576 60.737649 
L 292.342942 64.234427 
L 295.976705 67.859943 
L 299.481438 71.609778 
L 302.852871 75.479365 
L 306.086897 79.463989 
L 309.179574 83.558795 
L 312.127136 87.758794 
L 314.925991 92.058871 
L 317.572729 96.453784 
L 320.064125 100.93818 
L 322.397145 105.506596 
L 324.568945 110.153465 
L 326.57688 114.873126 
L 328.418503 119.659829 
L 330.091571 124.507742 
L 331.594045 129.410958 
L 332.924094 134.363504 
L 334.080099 139.359346 
L 335.060651 144.392397 
L 335.864555 149.456525 
L 336.490831 154.54556 
L 336.938717 159.653302 
L 337.207667 164.773528 
L 337.297354 169.9 
L 337.207667 175.026472 
L 336.938717 180.146698 
L 336.490831 185.25444 
L 335.864555 190.343475 
L 335.060651 195.407603 
L 334.080099 200.440654 
L 332.924094 205.436496 
L 331.594045 210.389042 
L 330.091571 215.292258 
L 328.418503 220.140171 
L 326.57688 224.926874 
L 324.568945 229.646535 
L 322.397145 234.293404 
L 320.064125 238.86182 
L 317.572729 243.346216 
L 314.925991 247.741129 
L 312.127136 252.041206 
L 309.179574 256.241205 
L 306.086897 260.336011 
L 302.852871 264.320635 
L 299.481438 268.190222 
L 295.976705 271.940057 
L 292.342942 275.565573 
L 288.584576 279.062351 
L 284.706186 282.426131 
L 280.712497 285.652816 
L 276.608376 288.738474 
L 272.398821 291.679345 
L 268.088963 294.471847 
L 263.684051 297.112578 
L 259.189453 299.598319 
L 254.610644 301.926043 
L 249.953204 304.092914 
L 245.222805 306.096291 
L 240.425213 307.933734 
L 235.566271 309.603005 
L 230.651901 311.102068 
L 225.688088 312.429099 
L 220.680881 313.58248 
L 215.63638 314.560806 
L 210.560732 315.362885 
L 205.460119 315.98774 
L 200.340757 316.434609 
L 195.208883 316.702949 
L 190.070748 316.792432 
L 184.932614 316.702949 
L 179.800739 316.434609 
L 174.681377 315.98774 
L 169.580765 315.362885 
L 164.505117 314.560806 
L 159.460616 313.58248 
L 154.453409 312.429099 
L 149.489596 311.102068 
L 144.575225 309.603005 
L 139.716284 307.933734 
L 134.918691 306.096291 
L 130.188293 304.092914 
L 125.530852 301.926043 
L 120.952044 299.598319 
L 116.457446 297.112578 
L 112.052534 294.471847 
L 107.742675 291.679345 
L 103.533121 288.738474 
L 99.428999 285.652816 
L 95.43531 282.426131 
L 91.55692 279.062351 
L 87.798554 275.565573 
L 84.164791 271.940057 
L 80.660058 268.190222 
L 77.288625 264.320635 
L 74.0546 260.336011 
L 70.961922 256.241205 
L 68.014361 252.041206 
L 65.215506 247.741129 
L 62.568768 243.346216 
L 60.077371 238.86182 
L 57.744352 234.293404 
L 55.572552 229.646535 
L 53.564617 224.926874 
L 51.722994 220.140171 
L 50.049926 215.292258 
L 48.547452 210.389042 
L 47.217402 205.436496 
L 46.061397 200.440654 
L 45.080846 195.407603 
L 44.276942 190.343475 
L 43.650666 185.25444 
L 43.202779 180.146698 
L 42.933829 175.026472 
L 42.844143 169.9 
L 42.933829 164.773528 
L 43.202779 159.653302 
L 43.650666 154.54556 
L 44.276942 149.456525 
L 45.080846 144.392397 
L 46.061397 139.359346 
L 47.217402 134.363504 
L 48.547452 129.410958 
L 50.049926 124.507742 
L 51.722994 119.659829 
L 53.564617 114.873126 
L 55.572552 110.153465 
L 57.744352 105.506596 
L 60.077371 100.93818 
L 62.568768 96.453784 
L 65.215506 92.058871 
L 68.014361 87.758794 
L 70.961922 83.558795 
L 74.0546 79.463989 
L 77.288625 75.479365 
L 80.660058 71.609778 
L 84.164791 67.859943 
L 87.798554 64.234427 
L 91.55692 60.737649 
L 95.43531 57.373869 
L 99.428999 54.147184 
L 103.533121 51.061526 
L 107.742675 48.120655 
L 112.052534 45.328153 
L 116.457446 42.687422 
L 120.952044 40.201681 
L 125.530852 37.873957 
L 130.188293 35.707086 
L 134.918691 33.703709 
L 139.716284 31.866266 
L 144.575225 30.196995 
L 149.489596 28.697932 
L 154.453409 27.370901 
L 159.460616 26.21752 
L 164.505117 25.239194 
L 169.580765 24.437115 
L 174.681377 23.81226 
L 179.800739 23.365391 
L 184.932614 23.097051 
L 190.070748 23.007568 
L 190.070748 23.007568 
" style="fill:none;stroke:#000000;stroke-linecap:square;"/>
   </g>
   <g id="line2d_2">
    <defs>
     <path d="M -3 0 
L 3 0 
M 0 3 
L 0 -3 
" id="m25aaa06c30" style="stroke:#000000;stroke-width:0.5;"/>
    </defs>
    <g clip-path="url(#p06c7766c7c)">
     <use style="stroke:#000000;stroke-width:0.5;" x="190.070748299" xlink:href="#m25aaa06c30" y="36.3690570915"/>
     <use style="stroke:#000000;stroke-width:0.5;" x="190.070748299" xlink:href="#m25aaa06c30" y="50.7467972595"/>
     <use style="stroke:#000000;stroke-width:0.5;" x="190.070748299" xlink:href="#m25aaa06c30" y="66.0313652471"/>
     <use style="stroke:#000000;stroke-width:0.5;" x="190.070748299" xlink:href="#m25aaa06c30" y="82.1064362627"/>
     <use style="stroke:#000000;stroke-width:0.5;" x="190.070748299" xlink:href="#m25aaa06c30" y="98.8496693095"/>
     <use style="stroke:#000000;stroke-width:0.5;" x="190.070748299" xlink:href="#m25aaa06c30" y="116.133638274"/>
     <use style="stroke:#000000;stroke-width:0.5;" x="190.070748299" xlink:href="#m25aaa06c30" y="133.826801717"/>
     <use style="stroke:#000000;stroke-width:0.5;" x="190.070748299" xlink:href="#m25aaa06c30" y="151.79450398"/>
     <use style="stroke:#000000;stroke-width:0.5;" x="190.070748299" xlink:href="#m25aaa06c30" y="169.9"/>
    </g>
   </g>
   <g id="line2d_3">
    <g clip-path="url(#p06c7766c7c)">
     <use style="stroke:#000000;stroke-width:0.5;" x="323.905467983" xlink:href="#m25aaa06c30" y="169.9"/>
     <use style="stroke:#000000;stroke-width:0.5;" x="309.495019115" xlink:href="#m25aaa06c30" y="169.9"/>
     <use style="stroke:#000000;stroke-width:0.5;" x="294.175679436" xlink:href="#m25aaa06c30" y="169.9"/>
     <use style="stroke:#000000;stroke-width:0.5;" x="278.06403837" xlink:href="#m25aaa06c30" y="169.9"/>
     <use style="stroke:#000000;stroke-width:0.5;" x="261.282715236" xlink:href="#m25aaa06c30" y="169.9"/>
     <use style="stroke:#000000;stroke-width:0.5;" x="243.959426034" xlink:href="#m25aaa06c30" y="169.9"/>
     <use style="stroke:#000000;stroke-width:0.5;" x="226.226011455" xlink:href="#m25aaa06c30" y="169.9"/>
     <use style="stroke:#000000;stroke-width:0.5;" x="208.217433493" xlink:href="#m25aaa06c30" y="169.9"/>
    </g>
   </g>
   <g id="line2d_4">
    <g clip-path="url(#p06c7766c7c)">
     <use style="stroke:#000000;stroke-width:0.5;" x="190.070748299" xlink:href="#m25aaa06c30" y="303.430942908"/>
     <use style="stroke:#000000;stroke-width:0.5;" x="190.070748299" xlink:href="#m25aaa06c30" y="289.05320274"/>
     <use style="stroke:#000000;stroke-width:0.5;" x="190.070748299" xlink:href="#m25aaa06c30" y="273.768634753"/>
     <use style="stroke:#000000;stroke-width:0.5;" x="190.070748299" xlink:href="#m25aaa06c30" y="257.693563737"/>
     <use style="stroke:#000000;stroke-width:0.5;" x="190.070748299" xlink:href="#m25aaa06c30" y="240.95033069"/>
     <use style="stroke:#000000;stroke-width:0.5;" x="190.070748299" xlink:href="#m25aaa06c30" y="223.666361726"/>
     <use style="stroke:#000000;stroke-width:0.5;" x="190.070748299" xlink:href="#m25aaa06c30" y="205.973198283"/>
     <use style="stroke:#000000;stroke-width:0.5;" x="190.070748299" xlink:href="#m25aaa06c30" y="188.00549602"/>
    </g>
   </g>
   <g id="line2d_5">
    <g clip-path="url(#p06c7766c7c)">
     <use style="stroke:#000000;stroke-width:0.5;" x="56.2360286157" xlink:href="#m25aaa06c30" y="169.9"/>
     <use style="stroke:#000000;stroke-width:0.5;" x="70.6464774836" xlink:href="#m25aaa06c30" y="169.9"/>
     <use style="stroke:#000000;stroke-width:0.5;" x="85.9658171628" xlink:href="#m25aaa06c30" y="169.9"/>
     <use style="stroke:#000000;stroke-width:0.5;" x="102.077458228" xlink:href="#m25aaa06c30" y="169.9"/>
     <use style="stroke:#000000;stroke-width:0.5;" x="118.858781363" xlink:href="#m25aaa06c30" y="169.9"/>
     <use style="stroke:#000000;stroke-width:0.5;" x="136.182070565" xlink:href="#m25aaa06c30" y="169.9"/>
     <use style="stroke:#000000;stroke-width:0.5;" x="153.915485143" xlink:href="#m25aaa06c30" y="169.9"/>
     <use style="stroke:#000000;stroke-width:0.5;" x="171.924063106" xlink:href="#m25aaa06c30" y="169.9"/>
    </g>
   </g>
   <g id="line2d_6">
    <path clip-path="url(#p06c7766c7c)" d="M 190.070748 23.007568 
L 190.070748 24.295023 
L 190.070748 25.593567 
L 190.070748 26.9031 
" style="fill:none;stroke:#000000;stroke-linecap:square;"/>
   </g>
   <g id="line2d_7">
    <path clip-path="url(#p06c7766c7c)" d="M 215.63638 25.239194 
L 215.412307 26.50709 
L 215.186304 27.785906 
L 214.958389 29.075544 
" style="fill:none;stroke:#000000;stroke-linecap:square;"/>
   </g>
   <g id="line2d_8">
    <path clip-path="url(#p06c7766c7c)" d="M 240.425213 31.866266 
L 239.983876 33.076078 
L 239.538737 34.29631 
L 239.089832 35.526868 
" style="fill:none;stroke:#000000;stroke-linecap:square;"/>
   </g>
   <g id="line2d_9">
    <path clip-path="url(#p06c7766c7c)" d="M 263.684051 42.687422 
L 263.038859 43.802391 
L 262.38811 44.926963 
L 261.731854 46.061052 
" style="fill:none;stroke:#000000;stroke-linecap:square;"/>
   </g>
   <g id="line2d_10">
    <path clip-path="url(#p06c7766c7c)" d="M 284.706186 57.373869 
L 283.876743 58.360117 
L 283.040157 59.354859 
L 282.19649 60.358019 
" style="fill:none;stroke:#000000;stroke-linecap:square;"/>
   </g>
   <g id="line2d_11">
    <path clip-path="url(#p06c7766c7c)" d="M 302.852871 75.479365 
L 301.86438 76.306925 
L 300.867375 77.141613 
L 299.861932 77.983364 
" style="fill:none;stroke:#000000;stroke-linecap:square;"/>
   </g>
   <g id="line2d_12">
    <path clip-path="url(#p06c7766c7c)" d="M 317.572729 96.453784 
L 316.455223 97.097512 
L 315.328093 97.746783 
L 314.191424 98.40155 
" style="fill:none;stroke:#000000;stroke-linecap:square;"/>
   </g>
   <g id="line2d_13">
    <path clip-path="url(#p06c7766c7c)" d="M 328.418503 119.659829 
L 327.205939 120.100165 
L 325.982931 120.544293 
L 324.749573 120.99218 
" style="fill:none;stroke:#000000;stroke-linecap:square;"/>
   </g>
   <g id="line2d_14">
    <path clip-path="url(#p06c7766c7c)" d="M 335.060651 144.392397 
L 333.789871 144.615961 
L 332.508145 144.841451 
L 331.215573 145.068849 
" style="fill:none;stroke:#000000;stroke-linecap:square;"/>
   </g>
   <g id="line2d_15">
    <path clip-path="url(#p06c7766c7c)" d="M 337.297354 169.9 
L 336.00697 169.9 
L 334.705472 169.9 
L 333.39296 169.9 
" style="fill:none;stroke:#000000;stroke-linecap:square;"/>
   </g>
   <g id="line2d_16">
    <path clip-path="url(#p06c7766c7c)" d="M 335.060651 195.407603 
L 333.789871 195.184039 
L 332.508145 194.958549 
L 331.215573 194.731151 
" style="fill:none;stroke:#000000;stroke-linecap:square;"/>
   </g>
   <g id="line2d_17">
    <path clip-path="url(#p06c7766c7c)" d="M 328.418503 220.140171 
L 327.205939 219.699835 
L 325.982931 219.255707 
L 324.749573 218.80782 
" style="fill:none;stroke:#000000;stroke-linecap:square;"/>
   </g>
   <g id="line2d_18">
    <path clip-path="url(#p06c7766c7c)" d="M 317.572729 243.346216 
L 316.455223 242.702488 
L 315.328093 242.053217 
L 314.191424 241.39845 
" style="fill:none;stroke:#000000;stroke-linecap:square;"/>
   </g>
   <g id="line2d_19">
    <path clip-path="url(#p06c7766c7c)" d="M 302.852871 264.320635 
L 301.86438 263.493075 
L 300.867375 262.658387 
L 299.861932 261.816636 
" style="fill:none;stroke:#000000;stroke-linecap:square;"/>
   </g>
   <g id="line2d_20">
    <path clip-path="url(#p06c7766c7c)" d="M 284.706186 282.426131 
L 283.876743 281.439883 
L 283.040157 280.445141 
L 282.19649 279.441981 
" style="fill:none;stroke:#000000;stroke-linecap:square;"/>
   </g>
   <g id="line2d_21">
    <path clip-path="url(#p06c7766c7c)" d="M 263.684051 297.112578 
L 263.038859 295.997609 
L 262.38811 294.873037 
L 261.731854 293.738948 
" style="fill:none;stroke:#000000;stroke-linecap:square;"/>
   </g>
   <g id="line2d_22">
    <path clip-path="url(#p06c7766c7c)" d="M 240.425213 307.933734 
L 239.983876 306.723922 
L 239.538737 305.50369 
L 239.089832 304.273132 
" style="fill:none;stroke:#000000;stroke-linecap:square;"/>
   </g>
   <g id="line2d_23">
    <path clip-path="url(#p06c7766c7c)" d="M 215.63638 314.560806 
L 215.412307 313.29291 
L 215.186304 312.014094 
L 214.958389 310.724456 
" style="fill:none;stroke:#000000;stroke-linecap:square;"/>
   </g>
   <g id="line2d_24">
    <path clip-path="url(#p06c7766c7c)" d="M 190.070748 316.792432 
L 190.070748 315.504977 
L 190.070748 314.206433 
L 190.070748 312.8969 
" style="fill:none;stroke:#000000;stroke-linecap:square;"/>
   </g>
   <g id="line2d_25">
    <path clip-path="url(#p06c7766c7c)" d="M 164.505117 314.560806 
L 164.729189 313.29291 
L 164.955192 312.014094 
L 165.183107 310.724456 
" style="fill:none;stroke:#000000;stroke-linecap:square;"/>
   </g>
   <g id="line2d_26">
    <path clip-path="url(#p06c7766c7c)" d="M 139.716284 307.933734 
L 140.157621 306.723922 
L 140.602759 305.50369 
L 141.051665 304.273132 
" style="fill:none;stroke:#000000;stroke-linecap:square;"/>
   </g>
   <g id="line2d_27">
    <path clip-path="url(#p06c7766c7c)" d="M 116.457446 297.112578 
L 117.102638 295.997609 
L 117.753386 294.873037 
L 118.409643 293.738948 
" style="fill:none;stroke:#000000;stroke-linecap:square;"/>
   </g>
   <g id="line2d_28">
    <path clip-path="url(#p06c7766c7c)" d="M 95.43531 282.426131 
L 96.264753 281.439883 
L 97.10134 280.445141 
L 97.945007 279.441981 
" style="fill:none;stroke:#000000;stroke-linecap:square;"/>
   </g>
   <g id="line2d_29">
    <path clip-path="url(#p06c7766c7c)" d="M 77.288625 264.320635 
L 78.277117 263.493075 
L 79.274122 262.658387 
L 80.279565 261.816636 
" style="fill:none;stroke:#000000;stroke-linecap:square;"/>
   </g>
   <g id="line2d_30">
    <path clip-path="url(#p06c7766c7c)" d="M 62.568768 243.346216 
L 63.686273 242.702488 
L 64.813403 242.053217 
L 65.950072 241.39845 
" style="fill:none;stroke:#000000;stroke-linecap:square;"/>
   </g>
   <g id="line2d_31">
    <path clip-path="url(#p06c7766c7c)" d="M 51.722994 220.140171 
L 52.935558 219.699835 
L 54.158566 219.255707 
L 55.391924 218.80782 
" style="fill:none;stroke:#000000;stroke-linecap:square;"/>
   </g>
   <g id="line2d_32">
    <path clip-path="url(#p06c7766c7c)" d="M 45.080846 195.407603 
L 46.351626 195.184039 
L 47.633351 194.958549 
L 48.925923 194.731151 
" style="fill:none;stroke:#000000;stroke-linecap:square;"/>
   </g>
   <g id="line2d_33">
    <path clip-path="url(#p06c7766c7c)" d="M 42.844143 169.9 
L 44.134527 169.9 
L 45.436025 169.9 
L 46.748537 169.9 
" style="fill:none;stroke:#000000;stroke-linecap:square;"/>
   </g>
   <g id="line2d_34">
    <path clip-path="url(#p06c7766c7c)" d="M 45.080846 144.392397 
L 46.351626 144.615961 
L 47.633351 144.841451 
L 48.925923 145.068849 
" style="fill:none;stroke:#000000;stroke-linecap:square;"/>
   </g>
   <g id="line2d_35">
    <path clip-path="url(#p06c7766c7c)" d="M 51.722994 119.659829 
L 52.935558 120.100165 
L 54.158566 120.544293 
L 55.391924 120.99218 
" style="fill:none;stroke:#000000;stroke-linecap:square;"/>
   </g>
   <g id="line2d_36">
    <path clip-path="url(#p06c7766c7c)" d="M 62.568768 96.453784 
L 63.686273 97.097512 
L 64.813403 97.746783 
L 65.950072 98.40155 
" style="fill:none;stroke:#000000;stroke-linecap:square;"/>
   </g>
   <g id="line2d_37">
    <path clip-path="url(#p06c7766c7c)" d="M 77.288625 75.479365 
L 78.277117 76.306925 
L 79.274122 77.141613 
L 80.279565 77.983364 
" style="fill:none;stroke:#000000;stroke-linecap:square;"/>
   </g>
   <g id="line2d_38">
    <path clip-path="url(#p06c7766c7c)" d="M 95.43531 57.373869 
L 96.264753 58.360117 
L 97.10134 59.354859 
L 97.945007 60.358019 
" style="fill:none;stroke:#000000;stroke-linecap:square;"/>
   </g>
   <g id="line2d_39">
    <path clip-path="url(#p06c7766c7c)" d="M 116.457446 42.687422 
L 117.102638 43.802391 
L 117.753386 44.926963 
L 118.409643 46.061052 
" style="fill:none;stroke:#000000;stroke-linecap:square;"/>
   </g>
   <g id="line2d_40">
    <path clip-path="url(#p06c7766c7c)" d="M 139.716284 31.866266 
L 140.157621 33.076078 
L 140.602759 34.29631 
L 141.051665 35.526868 
" style="fill:none;stroke:#000000;stroke-linecap:square;"/>
   </g>
   <g id="line2d_41">
    <path clip-path="url(#p06c7766c7c)" d="M 164.505117 25.239194 
L 164.729189 26.50709 
L 164.955192 27.785906 
L 165.183107 29.075544 
" style="fill:none;stroke:#000000;stroke-linecap:square;"/>
   </g>
   <g id="line2d_42">
    <path clip-path="url(#p06c7766c7c)" d="M 132.547392 66.933712 
L 132.187143 66.429957 
L 131.779653 65.959003 
L 131.326195 65.522981 
L 130.828258 65.123919 
L 130.287537 64.763727 
L 129.70594 64.44419 
L 129.085581 64.16695 
L 128.428778 63.933497 
L 127.738043 63.745155 
L 127.016078 63.603073 
L 126.265763 63.508209 
L 125.490149 63.461322 
L 124.692441 63.462963 
L 123.875984 63.513462 
L 123.044252 63.612927 
L 122.200823 63.76123 
L 121.349367 63.95801 
L 120.493621 64.202662 
L 119.637371 64.494341 
L 118.784428 64.831964 
L 117.938605 65.214206 
L 117.103698 65.63951 
L 116.283456 66.106092 
L 115.481563 66.611952 
L 114.701614 67.154878 
L 113.947092 67.732466 
L 113.221346 68.342131 
L 112.527576 68.981123 
L 111.868807 69.646543 
L 111.247878 70.335365 
L 110.667422 71.04445 
L 110.129859 71.770572 
L 109.637377 72.510434 
L 109.191927 73.260692 
L 108.795217 74.017973 
L 108.448701 74.778898 
L 108.153584 75.540101 
L 107.910814 76.298247 
L 107.721085 77.050054 
L 107.584842 77.792308 
L 107.502281 78.521878 
L 107.473357 79.235734 
L 107.497791 79.930961 
L 107.575078 80.604768 
L 107.704493 81.254501 
L 107.885108 81.877652 
L 108.115794 82.471869 
L 108.39524 83.034959 
L 108.721957 83.564895 
L 109.094296 84.059822 
L 109.510455 84.518057 
L 109.968496 84.938091 
L 110.466348 85.318591 
L 111.00183 85.658401 
L 111.572651 85.956536 
L 112.176428 86.212185 
L 112.810696 86.424708 
L 113.472913 86.593631 
L 114.160477 86.718643 
L 114.87073 86.799593 
L 115.60097 86.836487 
L 116.348456 86.829479 
L 117.110421 86.778874 
L 117.884078 86.685114 
L 118.666624 86.548781 
L 119.455252 86.370589 
L 120.247158 86.151379 
L 121.039541 85.892113 
L 121.829618 85.593872 
L 122.614625 85.257852 
L 123.391822 84.885353 
L 124.158505 84.477782 
L 124.912005 84.036645 
L 125.649697 83.563541 
L 126.369006 83.060163 
L 127.06741 82.528288 
L 127.74245 81.969775 
L 128.39173 81.386562 
L 129.012928 80.780663 
L 129.6038 80.15416 
L 130.162182 79.5092 
L 130.686004 78.847994 
L 131.173289 78.17281 
L 131.622163 77.485969 
L 132.030858 76.789842 
L 132.397723 76.086842 
L 132.721227 75.379424 
L 132.999969 74.670076 
L 133.232681 73.961315 
L 133.418237 73.255682 
L 133.555659 72.555735 
L 133.644127 71.864043 
L 133.68298 71.183179 
L 133.671727 70.515713 
L 133.610054 69.864204 
L 133.497827 69.23119 
L 133.335101 68.619185 
L 133.122122 68.030662 
L 132.859336 67.468048 
L 132.547392 66.933712 
" style="fill:none;stroke:#000000;stroke-linecap:square;"/>
   </g>
   <g id="line2d_43">
    <path clip-path="url(#p06c7766c7c)" d="M 76.627771 89.436185 
L 76.512296 89.364623 
L 76.388431 89.305989 
L 76.256648 89.260548 
L 76.117454 89.228513 
L 75.971388 89.210044 
L 75.819022 89.205248 
L 75.660954 89.214178 
L 75.497811 89.236832 
L 75.330243 89.273152 
L 75.158922 89.323024 
L 74.984536 89.386279 
L 74.807792 89.46269 
L 74.629408 89.551976 
L 74.450112 89.653803 
L 74.270637 89.767781 
L 74.09172 89.89347 
L 73.914097 90.030378 
L 73.738501 90.177963 
L 73.565657 90.335641 
L 73.396278 90.502778 
L 73.231066 90.678702 
L 73.070703 90.862702 
L 72.915851 91.05403 
L 72.76715 91.251907 
L 72.625212 91.455524 
L 72.490619 91.664047 
L 72.363922 91.876621 
L 72.245638 92.092372 
L 72.136244 92.310416 
L 72.036181 92.529855 
L 71.945848 92.749789 
L 71.865603 92.969315 
L 71.795757 93.187534 
L 71.736579 93.403553 
L 71.688289 93.61649 
L 71.651064 93.82548 
L 71.625031 94.029675 
L 71.61027 94.228249 
L 71.606816 94.420404 
L 71.614655 94.60537 
L 71.633726 94.78241 
L 71.663926 94.950824 
L 71.705102 95.109947 
L 71.757062 95.259159 
L 71.819568 95.397882 
L 71.892344 95.525582 
L 71.975072 95.641773 
L 72.067398 95.74602 
L 72.168933 95.837936 
L 72.27925 95.917184 
L 72.397895 95.983484 
L 72.524381 96.036604 
L 72.658195 96.076368 
L 72.798798 96.102652 
L 72.945627 96.115387 
L 73.098101 96.114556 
L 73.255618 96.100194 
L 73.41756 96.07239 
L 73.583297 96.031282 
L 73.752185 95.977061 
L 73.923574 95.909964 
L 74.096804 95.830278 
L 74.271214 95.738335 
L 74.446137 95.634513 
L 74.62091 95.519232 
L 74.794869 95.392954 
L 74.967356 95.256179 
L 75.137721 95.109446 
L 75.305321 94.95333 
L 75.469524 94.788435 
L 75.629711 94.6154 
L 75.78528 94.434892 
L 75.935642 94.247601 
L 76.080231 94.054245 
L 76.218499 93.85556 
L 76.34992 93.652302 
L 76.473995 93.445244 
L 76.590249 93.235172 
L 76.698235 93.022882 
L 76.797535 92.809179 
L 76.887762 92.594873 
L 76.96856 92.38078 
L 77.039608 92.167712 
L 77.100621 91.95648 
L 77.151346 91.747891 
L 77.19157 91.542743 
L 77.221119 91.341822 
L 77.239855 91.145901 
L 77.247683 90.955739 
L 77.244547 90.772074 
L 77.230433 90.595621 
L 77.205368 90.427073 
L 77.169422 90.267094 
L 77.122705 90.11632 
L 77.065372 89.975354 
L 76.997619 89.844765 
L 76.919683 89.725082 
L 76.831843 89.616799 
L 76.734419 89.520364 
L 76.627771 89.436185 
" style="fill:none;stroke:#000000;stroke-linecap:square;"/>
   </g>
  </g>
 </g>
 <defs>
  <clipPath id="p06c7766c7c">
   <rect height="325.4" width="309.175871599" x="35.4828125" y="7.2"/>
  </clipPath>
 </defs>
</svg>
