<?xml version="1.0" encoding="utf-8" standalone="no"?>
<!DOCTYPE svg PUBLIC "-//W3C//DTD SVG 1.1//EN"
  "http://www.w3.org/Graphics/SVG/1.1/DTD/svg11.dtd">
<!-- Created with matplotlib (http://matplotlib.org/) -->
<svg height="377pt" version="1.1" viewBox="0 0 382 377" width="382pt" xmlns="http://www.w3.org/2000/svg" xmlns:xlink="http://www.w3.org/1999/xlink">
 <defs>
  <style type="text/css">
*{stroke-linecap:butt;stroke-linejoin:round;stroke-miterlimit:100000;}
  </style>
 </defs>
 <g id="figure_1">
  <g id="patch_1">
   <path d="M 0 377.55625 
L 382.418107 377.55625 
L 382.418107 0 
L 0 0 
L 0 377.55625 
z
" style="fill:none;"/>
  </g>
  <g id="axes_1">
   <g id="patch_2">
    <path d="M 46.982813 342 
L 375.218107 342 
L 375.218107 7.2 
L 46.982813 7.2 
z
" style="fill:#ffffff;"/>
   </g>
   <g id="patch_3">
    <path clip-path="url(#p913c2c77f4)" d="M -20.974805 197.292 
L 658.601373 197.292 
L 658.601373 181.668 
L -20.974805 181.668 
z
" style="fill:#ff0000;opacity:0.2;stroke:#000000;stroke-linejoin:miter;"/>
   </g>
   <g id="LineCollection_1">
    <path clip-path="url(#p913c2c77f4)" d="M -973.061031 256.560218 
" style="fill:none;stroke:#0000ff;"/>
    <path clip-path="url(#p913c2c77f4)" d="M -797.730377 183.085264 
" style="fill:none;stroke:#0000ff;"/>
    <path clip-path="url(#p913c2c77f4)" d="M -797.730377 196.952885 
" style="fill:none;stroke:#0000ff;"/>
    <path clip-path="url(#p913c2c77f4)" d="M -652.301075 200.822924 
" style="fill:none;stroke:#0000ff;"/>
    <path clip-path="url(#p913c2c77f4)" d="M -640.74828 125.884857 
" style="fill:none;stroke:#0000ff;"/>
    <path clip-path="url(#p913c2c77f4)" d="M -641.427856 126.029804 
" style="fill:none;stroke:#0000ff;"/>
    <path clip-path="url(#p913c2c77f4)" d="M -626.47718 172.015156 
" style="fill:none;stroke:#0000ff;"/>
    <path clip-path="url(#p913c2c77f4)" d="M -610.50714 82.234396 
" style="fill:none;stroke:#0000ff;"/>
    <path clip-path="url(#p913c2c77f4)" d="M -579.246636 94.080289 
" style="fill:none;stroke:#0000ff;"/>
    <path clip-path="url(#p913c2c77f4)" d="M -565.655112 102.371503 
" style="fill:none;stroke:#0000ff;"/>
    <path clip-path="url(#p913c2c77f4)" d="M -557.16041 104.787978 
" style="fill:none;stroke:#0000ff;"/>
    <path clip-path="url(#p913c2c77f4)" d="M -545.947403 112.057963 
" style="fill:none;stroke:#0000ff;"/>
    <path clip-path="url(#p913c2c77f4)" d="M -542.88931 105.752251 
" style="fill:none;stroke:#0000ff;"/>
    <path clip-path="url(#p913c2c77f4)" d="M -510.94923 72.2628 
" style="fill:none;stroke:#0000ff;"/>
    <path clip-path="url(#p913c2c77f4)" d="M -493.959825 131.202364 
" style="fill:none;stroke:#0000ff;"/>
    <path clip-path="url(#p913c2c77f4)" d="M -410.711744 86.081148 
" style="fill:none;stroke:#0000ff;"/>
    <path clip-path="url(#p913c2c77f4)" d="M -405.614922 135.144177 
" style="fill:none;stroke:#0000ff;"/>
    <path clip-path="url(#p913c2c77f4)" d="M -370.276961 116.175077 
" style="fill:none;stroke:#0000ff;"/>
    <path clip-path="url(#p913c2c77f4)" d="M -326.784086 82.604443 
" style="fill:none;stroke:#0000ff;"/>
    <path clip-path="url(#p913c2c77f4)" d="M -317.609807 59.861578 
" style="fill:none;stroke:#0000ff;"/>
    <path clip-path="url(#p913c2c77f4)" d="M -243.875792 85.487072 
" style="fill:none;stroke:#0000ff;"/>
    <path clip-path="url(#p913c2c77f4)" d="M -216.013169 86.284113 
" style="fill:none;stroke:#0000ff;"/>
    <path clip-path="url(#p913c2c77f4)" d="M -129.706994 145.257268 
" style="fill:none;stroke:#0000ff;"/>
    <path clip-path="url(#p913c2c77f4)" d="M -126.309113 128.726454 
" style="fill:none;stroke:#0000ff;"/>
    <path clip-path="url(#p913c2c77f4)" d="M -119.853139 166.746347 
" style="fill:none;stroke:#0000ff;"/>
    <path clip-path="url(#p913c2c77f4)" d="M -113.736954 171.925972 
" style="fill:none;stroke:#0000ff;"/>
    <path clip-path="url(#p913c2c77f4)" d="M -88.252847 115.21525 
" style="fill:none;stroke:#0000ff;"/>
    <path clip-path="url(#p913c2c77f4)" d="M -113.397166 164.781312 
" style="fill:none;stroke:#0000ff;"/>
    <path clip-path="url(#p913c2c77f4)" d="M -99.126066 144.804337 
" style="fill:none;stroke:#0000ff;"/>
    <path clip-path="url(#p913c2c77f4)" d="M -88.932423 146.415166 
" style="fill:none;stroke:#0000ff;"/>
    <path clip-path="url(#p913c2c77f4)" d="M -85.534542 156.736362 
" style="fill:none;stroke:#0000ff;"/>
    <path clip-path="url(#p913c2c77f4)" d="M -63.448316 158.215225 
" style="fill:none;stroke:#0000ff;"/>
    <path clip-path="url(#p913c2c77f4)" d="M -75.3409 92.099369 
" style="fill:none;stroke:#0000ff;"/>
    <path clip-path="url(#p913c2c77f4)" d="M -75.3409 95.779505 
" style="fill:none;stroke:#0000ff;"/>
    <path clip-path="url(#p913c2c77f4)" d="M -75.3409 82.90845 
" style="fill:none;stroke:#0000ff;"/>
    <path clip-path="url(#p913c2c77f4)" d="M -14.179044 122.356184 
" style="fill:none;stroke:#0000ff;"/>
    <path clip-path="url(#p913c2c77f4)" d="M -3.305825 125.452412 
" style="fill:none;stroke:#0000ff;"/>
    <path clip-path="url(#p913c2c77f4)" d="M -2.626249 143.692895 
" style="fill:none;stroke:#0000ff;"/>
    <path clip-path="url(#p913c2c77f4)" d="M 2.810361 153.790086 
L 0.092056 153.790086 
" style="fill:none;stroke:#0000ff;"/>
    <path clip-path="url(#p913c2c77f4)" d="M 22.51807 132.667679 
L 12.324427 132.667679 
" style="fill:none;stroke:#0000ff;"/>
    <path clip-path="url(#p913c2c77f4)" d="M 28.634256 134.561074 
L 13.68358 134.561074 
" style="fill:none;stroke:#0000ff;"/>
    <path clip-path="url(#p913c2c77f4)" d="M 25.236375 159.186297 
L 18.440613 159.186297 
" style="fill:none;stroke:#0000ff;"/>
    <path clip-path="url(#p913c2c77f4)" d="M 61.253912 73.640746 
L 54.45815 73.640746 
" style="fill:none;stroke:#0000ff;"/>
    <path clip-path="url(#p913c2c77f4)" d="M 61.253912 84.693997 
L 54.45815 84.693997 
" style="fill:none;stroke:#0000ff;"/>
    <path clip-path="url(#p913c2c77f4)" d="M 73.486283 62.571647 
L 70.767979 62.571647 
" style="fill:none;stroke:#0000ff;"/>
    <path clip-path="url(#p913c2c77f4)" d="M 73.486283 75.774626 
L 70.767979 75.774626 
" style="fill:none;stroke:#0000ff;"/>
    <path clip-path="url(#p913c2c77f4)" d="M 77.563741 64.866804 
L 70.767979 64.866804 
" style="fill:none;stroke:#0000ff;"/>
    <path clip-path="url(#p913c2c77f4)" d="M 88.436959 71.482809 
L 85.718655 71.482809 
" style="fill:none;stroke:#0000ff;"/>
    <path clip-path="url(#p913c2c77f4)" d="M 110.183397 69.652714 
L 104.746788 69.652714 
" style="fill:none;stroke:#0000ff;"/>
    <path clip-path="url(#p913c2c77f4)" d="M 111.542549 57.587726 
L 107.465092 57.587726 
" style="fill:none;stroke:#0000ff;"/>
    <path clip-path="url(#p913c2c77f4)" d="M 111.542549 73.129749 
L 107.465092 73.129749 
" style="fill:none;stroke:#0000ff;"/>
    <path clip-path="url(#p913c2c77f4)" d="M 112.561914 80.735107 
L 107.80488 80.735107 
" style="fill:none;stroke:#0000ff;"/>
    <path clip-path="url(#p913c2c77f4)" d="M 112.901702 93.034678 
L 110.183397 93.034678 
" style="fill:none;stroke:#0000ff;"/>
    <path clip-path="url(#p913c2c77f4)" d="M 112.901702 92.670615 
L 110.183397 92.670615 
" style="fill:none;stroke:#0000ff;"/>
    <path clip-path="url(#p913c2c77f4)" d="M 114.600642 113.489667 
L 113.921066 113.489667 
" style="fill:none;stroke:#0000ff;"/>
    <path clip-path="url(#p913c2c77f4)" d="M 118.338311 127.040432 
L 114.260854 127.040432 
" style="fill:none;stroke:#0000ff;"/>
    <path clip-path="url(#p913c2c77f4)" d="M 119.017887 125.306486 
L 114.94043 125.306486 
" style="fill:none;stroke:#0000ff;"/>
    <path clip-path="url(#p913c2c77f4)" d="M 120.37704 138.929392 
L 116.299583 138.929392 
" style="fill:none;stroke:#0000ff;"/>
    <path clip-path="url(#p913c2c77f4)" d="M 119.697464 123.89484 
L 116.979159 123.89484 
" style="fill:none;stroke:#0000ff;"/>
    <path clip-path="url(#p913c2c77f4)" d="M 124.454497 123.906027 
L 117.658735 123.906027 
" style="fill:none;stroke:#0000ff;"/>
    <path clip-path="url(#p913c2c77f4)" d="M 130.570682 156.687779 
L 115.620007 156.687779 
" style="fill:none;stroke:#0000ff;"/>
    <path clip-path="url(#p913c2c77f4)" d="M 125.134073 133.173142 
L 122.415768 133.173142 
" style="fill:none;stroke:#0000ff;"/>
    <path clip-path="url(#p913c2c77f4)" d="M 126.493225 157.298491 
L 126.493225 157.298491 
" style="fill:none;stroke:#0000ff;"/>
    <path clip-path="url(#p913c2c77f4)" d="M 133.968563 164.059173 
L 123.095344 164.059173 
" style="fill:none;stroke:#0000ff;"/>
    <path clip-path="url(#p913c2c77f4)" d="M 142.123477 170.217551 
L 128.531954 170.217551 
" style="fill:none;stroke:#0000ff;"/>
    <path clip-path="url(#p913c2c77f4)" d="M 182.898048 262.077099 
L 162.510763 262.077099 
" style="fill:none;stroke:#0000ff;"/>
    <path clip-path="url(#p913c2c77f4)" d="M 203.285334 268.934949 
L 176.102286 268.934949 
" style="fill:none;stroke:#0000ff;"/>
    <path clip-path="url(#p913c2c77f4)" d="M 216.876857 244.358803 
L 189.69381 244.358803 
" style="fill:none;stroke:#0000ff;"/>
    <path clip-path="url(#p913c2c77f4)" d="M 223.672619 233.252598 
L 196.489572 233.252598 
" style="fill:none;stroke:#0000ff;"/>
    <path clip-path="url(#p913c2c77f4)" d="M 339.200569 207.065821 
L 318.813284 207.065821 
" style="fill:none;stroke:#0000ff;"/>
    <path clip-path="url(#p913c2c77f4)" d="M 333.084384 209.681347 
L 331.725231 209.681347 
" style="fill:none;stroke:#0000ff;"/>
    <path clip-path="url(#p913c2c77f4)" d="M 334.443536 220.037997 
L 331.725231 220.037997 
" style="fill:none;stroke:#0000ff;"/>
    <path clip-path="url(#p913c2c77f4)" d="M 335.123112 209.628788 
L 332.404807 209.628788 
" style="fill:none;stroke:#0000ff;"/>
    <path clip-path="url(#p913c2c77f4)" d="M 335.123112 220.860163 
L 332.404807 220.860163 
" style="fill:none;stroke:#0000ff;"/>
    <path clip-path="url(#p913c2c77f4)" d="M 352.792093 194.478085 
L 318.813284 194.478085 
" style="fill:none;stroke:#0000ff;"/>
    <path clip-path="url(#p913c2c77f4)" d="M 362.306159 164.900222 
L 354.151245 164.900222 
" style="fill:none;stroke:#0000ff;"/>
    <path clip-path="url(#p913c2c77f4)" d="M 372.499802 185.292328 
L 368.422345 185.292328 
" style="fill:none;stroke:#0000ff;"/>
    <path clip-path="url(#p913c2c77f4)" d="M 373.179378 181.156919 
L 373.179378 181.156919 
" style="fill:none;stroke:#0000ff;"/>
    <path clip-path="url(#p913c2c77f4)" d="M 445.894029 199.137402 
" style="fill:none;stroke:#0000ff;"/>
    <path clip-path="url(#p913c2c77f4)" d="M 445.894029 203.736611 
" style="fill:none;stroke:#0000ff;"/>
    <path clip-path="url(#p913c2c77f4)" d="M 445.894029 203.36199 
" style="fill:none;stroke:#0000ff;"/>
    <path clip-path="url(#p913c2c77f4)" d="M 462.883434 307.940722 
" style="fill:none;stroke:#0000ff;"/>
    <path clip-path="url(#p913c2c77f4)" d="M 467.640467 258.413682 
" style="fill:none;stroke:#0000ff;"/>
    <path clip-path="url(#p913c2c77f4)" d="M 467.640467 166.759742 
" style="fill:none;stroke:#0000ff;"/>
    <path clip-path="url(#p913c2c77f4)" d="M 467.640467 258.41759 
" style="fill:none;stroke:#0000ff;"/>
    <path clip-path="url(#p913c2c77f4)" d="M 471.038348 321.981334 
" style="fill:none;stroke:#0000ff;"/>
    <path clip-path="url(#p913c2c77f4)" d="M 475.115805 299.457519 
" style="fill:none;stroke:#0000ff;"/>
    <path clip-path="url(#p913c2c77f4)" d="M 477.154533 302.937984 
" style="fill:none;stroke:#0000ff;"/>
    <path clip-path="url(#p913c2c77f4)" d="M 477.154533 301.972353 
" style="fill:none;stroke:#0000ff;"/>
    <path clip-path="url(#p913c2c77f4)" d="M 481.23199 189.26037 
" style="fill:none;stroke:#0000ff;"/>
    <path clip-path="url(#p913c2c77f4)" d="M 490.066481 179.649209 
" style="fill:none;stroke:#0000ff;"/>
   </g>
   <g id="LineCollection_2">
    <path clip-path="url(#p913c2c77f4)" d="M -975.779336 264.000218 
" style="fill:none;stroke:#0000ff;"/>
    <path clip-path="url(#p913c2c77f4)" d="M -813.360629 186.061264 
" style="fill:none;stroke:#0000ff;"/>
    <path clip-path="url(#p913c2c77f4)" d="M -799.769106 201.416885 
" style="fill:none;stroke:#0000ff;"/>
    <path clip-path="url(#p913c2c77f4)" d="M -653.660227 213.284924 
" style="fill:none;stroke:#0000ff;"/>
    <path clip-path="url(#p913c2c77f4)" d="M -644.825737 137.044857 
" style="fill:none;stroke:#0000ff;"/>
    <path clip-path="url(#p913c2c77f4)" d="M -644.146161 144.629804 
" style="fill:none;stroke:#0000ff;"/>
    <path clip-path="url(#p913c2c77f4)" d="M -627.836333 185.035156 
" style="fill:none;stroke:#0000ff;"/>
    <path clip-path="url(#p913c2c77f4)" d="M -612.20608 95.254396 
" style="fill:none;stroke:#0000ff;"/>
    <path clip-path="url(#p913c2c77f4)" d="M -580.945576 108.402289 
" style="fill:none;stroke:#0000ff;"/>
    <path clip-path="url(#p913c2c77f4)" d="M -567.354053 116.321503 
" style="fill:none;stroke:#0000ff;"/>
    <path clip-path="url(#p913c2c77f4)" d="M -558.519562 119.109978 
" style="fill:none;stroke:#0000ff;"/>
    <path clip-path="url(#p913c2c77f4)" d="M -549.005496 123.403963 
" style="fill:none;stroke:#0000ff;"/>
    <path clip-path="url(#p913c2c77f4)" d="M -543.568886 117.656251 
" style="fill:none;stroke:#0000ff;"/>
    <path clip-path="url(#p913c2c77f4)" d="M -514.347111 85.4688 
" style="fill:none;stroke:#0000ff;"/>
    <path clip-path="url(#p913c2c77f4)" d="M -495.318978 155.568364 
" style="fill:none;stroke:#0000ff;"/>
    <path clip-path="url(#p913c2c77f4)" d="M -414.449413 93.149148 
" style="fill:none;stroke:#0000ff;"/>
    <path clip-path="url(#p913c2c77f4)" d="M -408.333227 146.304177 
" style="fill:none;stroke:#0000ff;"/>
    <path clip-path="url(#p913c2c77f4)" d="M -372.995266 131.985077 
" style="fill:none;stroke:#0000ff;"/>
    <path clip-path="url(#p913c2c77f4)" d="M -350.569252 97.484443 
" style="fill:none;stroke:#0000ff;"/>
    <path clip-path="url(#p913c2c77f4)" d="M -320.6679 71.207578 
" style="fill:none;stroke:#0000ff;"/>
    <path clip-path="url(#p913c2c77f4)" d="M -247.273673 101.669072 
" style="fill:none;stroke:#0000ff;"/>
    <path clip-path="url(#p913c2c77f4)" d="M -218.051897 98.560113 
" style="fill:none;stroke:#0000ff;"/>
    <path clip-path="url(#p913c2c77f4)" d="M -140.580213 156.603268 
" style="fill:none;stroke:#0000ff;"/>
    <path clip-path="url(#p913c2c77f4)" d="M -129.706994 137.468454 
" style="fill:none;stroke:#0000ff;"/>
    <path clip-path="url(#p913c2c77f4)" d="M -128.347842 175.488347 
" style="fill:none;stroke:#0000ff;"/>
    <path clip-path="url(#p913c2c77f4)" d="M -122.911232 178.435972 
" style="fill:none;stroke:#0000ff;"/>
    <path clip-path="url(#p913c2c77f4)" d="M -121.55208 134.74525 
" style="fill:none;stroke:#0000ff;"/>
    <path clip-path="url(#p913c2c77f4)" d="M -118.154199 173.709312 
" style="fill:none;stroke:#0000ff;"/>
    <path clip-path="url(#p913c2c77f4)" d="M -109.319709 162.846337 
" style="fill:none;stroke:#0000ff;"/>
    <path clip-path="url(#p913c2c77f4)" d="M -105.921828 160.551166 
" style="fill:none;stroke:#0000ff;"/>
    <path clip-path="url(#p913c2c77f4)" d="M -89.611999 169.198362 
" style="fill:none;stroke:#0000ff;"/>
    <path clip-path="url(#p913c2c77f4)" d="M -78.73878 172.537225 
" style="fill:none;stroke:#0000ff;"/>
    <path clip-path="url(#p913c2c77f4)" d="M -76.700052 101.585369 
" style="fill:none;stroke:#0000ff;"/>
    <path clip-path="url(#p913c2c77f4)" d="M -76.700052 103.777505 
" style="fill:none;stroke:#0000ff;"/>
    <path clip-path="url(#p913c2c77f4)" d="M -76.700052 89.97645 
" style="fill:none;stroke:#0000ff;"/>
    <path clip-path="url(#p913c2c77f4)" d="M -24.372686 126.448184 
" style="fill:none;stroke:#0000ff;"/>
    <path clip-path="url(#p913c2c77f4)" d="M -3.985401 140.890412 
" style="fill:none;stroke:#0000ff;"/>
    <path clip-path="url(#p913c2c77f4)" d="M -3.985401 149.644895 
" style="fill:none;stroke:#0000ff;"/>
    <path clip-path="url(#p913c2c77f4)" d="M 1.451209 163.090086 
L 1.451209 144.490086 
" style="fill:none;stroke:#0000ff;"/>
    <path clip-path="url(#p913c2c77f4)" d="M 17.421249 144.943679 
L 17.421249 120.391679 
" style="fill:none;stroke:#0000ff;"/>
    <path clip-path="url(#p913c2c77f4)" d="M 21.158918 147.953074 
L 21.158918 121.169074 
" style="fill:none;stroke:#0000ff;"/>
    <path clip-path="url(#p913c2c77f4)" d="M 21.838494 163.836297 
L 21.838494 154.536297 
" style="fill:none;stroke:#0000ff;"/>
    <path clip-path="url(#p913c2c77f4)" d="M 57.856031 91.682746 
L 57.856031 55.598746 
" style="fill:none;stroke:#0000ff;"/>
    <path clip-path="url(#p913c2c77f4)" d="M 57.856031 102.549997 
L 57.856031 66.837997 
" style="fill:none;stroke:#0000ff;"/>
    <path clip-path="url(#p913c2c77f4)" d="M 72.127131 80.055647 
L 72.127131 45.087647 
" style="fill:none;stroke:#0000ff;"/>
    <path clip-path="url(#p913c2c77f4)" d="M 72.127131 100.140626 
L 72.127131 51.408626 
" style="fill:none;stroke:#0000ff;"/>
    <path clip-path="url(#p913c2c77f4)" d="M 74.16586 75.468804 
L 74.16586 54.264804 
" style="fill:none;stroke:#0000ff;"/>
    <path clip-path="url(#p913c2c77f4)" d="M 87.077807 97.708809 
L 87.077807 45.256809 
" style="fill:none;stroke:#0000ff;"/>
    <path clip-path="url(#p913c2c77f4)" d="M 107.465092 77.092714 
L 107.465092 62.212714 
" style="fill:none;stroke:#0000ff;"/>
    <path clip-path="url(#p913c2c77f4)" d="M 109.503821 67.445726 
L 109.503821 47.729726 
" style="fill:none;stroke:#0000ff;"/>
    <path clip-path="url(#p913c2c77f4)" d="M 109.503821 82.057749 
L 109.503821 64.201749 
" style="fill:none;stroke:#0000ff;"/>
    <path clip-path="url(#p913c2c77f4)" d="M 110.183397 95.987107 
L 110.183397 65.483107 
" style="fill:none;stroke:#0000ff;"/>
    <path clip-path="url(#p913c2c77f4)" d="M 111.542549 101.404678 
L 111.542549 84.664678 
" style="fill:none;stroke:#0000ff;"/>
    <path clip-path="url(#p913c2c77f4)" d="M 111.542549 99.552615 
L 111.542549 85.788615 
" style="fill:none;stroke:#0000ff;"/>
    <path clip-path="url(#p913c2c77f4)" d="M 114.260854 122.603667 
L 114.260854 104.375667 
" style="fill:none;stroke:#0000ff;"/>
    <path clip-path="url(#p913c2c77f4)" d="M 116.299583 131.690432 
L 116.299583 122.390432 
" style="fill:none;stroke:#0000ff;"/>
    <path clip-path="url(#p913c2c77f4)" d="M 116.979159 130.514486 
L 116.979159 120.098486 
" style="fill:none;stroke:#0000ff;"/>
    <path clip-path="url(#p913c2c77f4)" d="M 118.338311 147.671392 
L 118.338311 130.187392 
" style="fill:none;stroke:#0000ff;"/>
    <path clip-path="url(#p913c2c77f4)" d="M 118.338311 139.14684 
L 118.338311 108.64284 
" style="fill:none;stroke:#0000ff;"/>
    <path clip-path="url(#p913c2c77f4)" d="M 121.056616 138.786027 
L 121.056616 109.026027 
" style="fill:none;stroke:#0000ff;"/>
    <path clip-path="url(#p913c2c77f4)" d="M 123.095344 169.707779 
L 123.095344 143.667779 
" style="fill:none;stroke:#0000ff;"/>
    <path clip-path="url(#p913c2c77f4)" d="M 123.774921 140.613142 
L 123.774921 125.733142 
" style="fill:none;stroke:#0000ff;"/>
    <path clip-path="url(#p913c2c77f4)" d="M 126.493225 165.296491 
L 126.493225 149.300491 
" style="fill:none;stroke:#0000ff;"/>
    <path clip-path="url(#p913c2c77f4)" d="M 128.531954 174.289173 
L 128.531954 153.829173 
" style="fill:none;stroke:#0000ff;"/>
    <path clip-path="url(#p913c2c77f4)" d="M 135.327716 178.029551 
L 135.327716 162.405551 
" style="fill:none;stroke:#0000ff;"/>
    <path clip-path="url(#p913c2c77f4)" d="M 172.704405 273.795099 
L 172.704405 250.359099 
" style="fill:none;stroke:#0000ff;"/>
    <path clip-path="url(#p913c2c77f4)" d="M 189.69381 276.188949 
L 189.69381 261.680949 
" style="fill:none;stroke:#0000ff;"/>
    <path clip-path="url(#p913c2c77f4)" d="M 203.285334 258.680803 
L 203.285334 230.036803 
" style="fill:none;stroke:#0000ff;"/>
    <path clip-path="url(#p913c2c77f4)" d="M 210.081095 247.388598 
L 210.081095 219.116598 
" style="fill:none;stroke:#0000ff;"/>
    <path clip-path="url(#p913c2c77f4)" d="M 329.006926 220.085821 
L 329.006926 194.045821 
" style="fill:none;stroke:#0000ff;"/>
    <path clip-path="url(#p913c2c77f4)" d="M 332.404807 217.121347 
L 332.404807 202.241347 
" style="fill:none;stroke:#0000ff;"/>
    <path clip-path="url(#p913c2c77f4)" d="M 333.084384 233.057997 
L 333.084384 207.017997 
" style="fill:none;stroke:#0000ff;"/>
    <path clip-path="url(#p913c2c77f4)" d="M 333.76396 224.880788 
L 333.76396 194.376788 
" style="fill:none;stroke:#0000ff;"/>
    <path clip-path="url(#p913c2c77f4)" d="M 333.76396 230.160163 
L 333.76396 211.560163 
" style="fill:none;stroke:#0000ff;"/>
    <path clip-path="url(#p913c2c77f4)" d="M 335.802688 203.220085 
L 335.802688 185.736085 
" style="fill:none;stroke:#0000ff;"/>
    <path clip-path="url(#p913c2c77f4)" d="M 358.228702 177.920222 
L 358.228702 151.880222 
" style="fill:none;stroke:#0000ff;"/>
    <path clip-path="url(#p913c2c77f4)" d="M 370.461073 190.872328 
L 370.461073 179.712328 
" style="fill:none;stroke:#0000ff;"/>
    <path clip-path="url(#p913c2c77f4)" d="M 373.179378 186.736919 
L 373.179378 175.576919 
" style="fill:none;stroke:#0000ff;"/>
    <path clip-path="url(#p913c2c77f4)" d="M 444.534877 217.737402 
" style="fill:none;stroke:#0000ff;"/>
    <path clip-path="url(#p913c2c77f4)" d="M 444.534877 235.356611 
" style="fill:none;stroke:#0000ff;"/>
    <path clip-path="url(#p913c2c77f4)" d="M 444.534877 235.72599 
" style="fill:none;stroke:#0000ff;"/>
    <path clip-path="url(#p913c2c77f4)" d="M 461.524281 333.980722 
" style="fill:none;stroke:#0000ff;"/>
    <path clip-path="url(#p913c2c77f4)" d="M 466.281315 280.733682 
" style="fill:none;stroke:#0000ff;"/>
    <path clip-path="url(#p913c2c77f4)" d="M 466.281315 195.403742 
" style="fill:none;stroke:#0000ff;"/>
    <path clip-path="url(#p913c2c77f4)" d="M 466.281315 280.73759 
" style="fill:none;stroke:#0000ff;"/>
    <path clip-path="url(#p913c2c77f4)" d="M 470.358772 336.861334 
" style="fill:none;stroke:#0000ff;"/>
    <path clip-path="url(#p913c2c77f4)" d="M 471.717924 310.617519 
" style="fill:none;stroke:#0000ff;"/>
    <path clip-path="url(#p913c2c77f4)" d="M 473.756652 335.487984 
" style="fill:none;stroke:#0000ff;"/>
    <path clip-path="url(#p913c2c77f4)" d="M 473.756652 335.452353 
" style="fill:none;stroke:#0000ff;"/>
    <path clip-path="url(#p913c2c77f4)" d="M 478.513686 201.72237 
" style="fill:none;stroke:#0000ff;"/>
    <path clip-path="url(#p913c2c77f4)" d="M 488.027752 196.389209 
" style="fill:none;stroke:#0000ff;"/>
   </g>
   <g id="line2d_1">
    <path clip-path="url(#p913c2c77f4)" d="M 375.897683 189.666 
L 46.303236 189.666 
L 46.303236 189.666 
" style="fill:none;stroke:#ff0000;stroke-linecap:square;"/>
   </g>
   <g id="line2d_2">
    <defs>
     <path d="M 0 3 
L 0 -3 
" id="mcd54297856" style="stroke:#0000ff;stroke-width:0.5;"/>
    </defs>
    <g clip-path="url(#p913c2c77f4)">
     <use style="fill:#0000ff;stroke:#0000ff;stroke-width:0.5;" x="-973.061031124" xlink:href="#mcd54297856" y="256.560218091"/>
     <use style="fill:#0000ff;stroke:#0000ff;stroke-width:0.5;" x="-1.0" xlink:href="#mcd54297856" y="146.713259471"/>
     <use style="fill:#0000ff;stroke:#0000ff;stroke-width:0.5;" x="2.81036091067" xlink:href="#mcd54297856" y="153.79008637"/>
     <use style="fill:#0000ff;stroke:#0000ff;stroke-width:0.5;" x="22.5180700813" xlink:href="#mcd54297856" y="132.667678763"/>
     <use style="fill:#0000ff;stroke:#0000ff;stroke-width:0.5;" x="28.634255686" xlink:href="#mcd54297856" y="134.561074454"/>
     <use style="fill:#0000ff;stroke:#0000ff;stroke-width:0.5;" x="25.2363747945" xlink:href="#mcd54297856" y="159.186297034"/>
     <use style="fill:#0000ff;stroke:#0000ff;stroke-width:0.5;" x="61.2539122442" xlink:href="#mcd54297856" y="73.6407463681"/>
     <use style="fill:#0000ff;stroke:#0000ff;stroke-width:0.5;" x="61.2539122442" xlink:href="#mcd54297856" y="84.6939971857"/>
     <use style="fill:#0000ff;stroke:#0000ff;stroke-width:0.5;" x="73.4862834536" xlink:href="#mcd54297856" y="62.5716467425"/>
     <use style="fill:#0000ff;stroke:#0000ff;stroke-width:0.5;" x="73.4862834536" xlink:href="#mcd54297856" y="75.7746255162"/>
     <use style="fill:#0000ff;stroke:#0000ff;stroke-width:0.5;" x="77.5637405234" xlink:href="#mcd54297856" y="64.8668039372"/>
     <use style="fill:#0000ff;stroke:#0000ff;stroke-width:0.5;" x="88.4369593761" xlink:href="#mcd54297856" y="71.4828092715"/>
     <use style="fill:#0000ff;stroke:#0000ff;stroke-width:0.5;" x="110.183397082" xlink:href="#mcd54297856" y="69.6527144544"/>
     <use style="fill:#0000ff;stroke:#0000ff;stroke-width:0.5;" x="111.542549438" xlink:href="#mcd54297856" y="57.5877255927"/>
     <use style="fill:#0000ff;stroke:#0000ff;stroke-width:0.5;" x="111.542549438" xlink:href="#mcd54297856" y="73.1297486659"/>
     <use style="fill:#0000ff;stroke:#0000ff;stroke-width:0.5;" x="112.561913706" xlink:href="#mcd54297856" y="80.7351074666"/>
     <use style="fill:#0000ff;stroke:#0000ff;stroke-width:0.5;" x="112.901701795" xlink:href="#mcd54297856" y="93.0346777009"/>
     <use style="fill:#0000ff;stroke:#0000ff;stroke-width:0.5;" x="112.901701795" xlink:href="#mcd54297856" y="92.6706146207"/>
     <use style="fill:#0000ff;stroke:#0000ff;stroke-width:0.5;" x="114.600642241" xlink:href="#mcd54297856" y="113.489666942"/>
     <use style="fill:#0000ff;stroke:#0000ff;stroke-width:0.5;" x="118.338311221" xlink:href="#mcd54297856" y="127.040432016"/>
     <use style="fill:#0000ff;stroke:#0000ff;stroke-width:0.5;" x="119.0178874" xlink:href="#mcd54297856" y="125.306485872"/>
     <use style="fill:#0000ff;stroke:#0000ff;stroke-width:0.5;" x="120.377039756" xlink:href="#mcd54297856" y="138.929391561"/>
     <use style="fill:#0000ff;stroke:#0000ff;stroke-width:0.5;" x="119.697463578" xlink:href="#mcd54297856" y="123.894840281"/>
     <use style="fill:#0000ff;stroke:#0000ff;stroke-width:0.5;" x="124.454496826" xlink:href="#mcd54297856" y="123.906027431"/>
     <use style="fill:#0000ff;stroke:#0000ff;stroke-width:0.5;" x="130.570682431" xlink:href="#mcd54297856" y="156.687778732"/>
     <use style="fill:#0000ff;stroke:#0000ff;stroke-width:0.5;" x="125.134073004" xlink:href="#mcd54297856" y="133.173142162"/>
     <use style="fill:#0000ff;stroke:#0000ff;stroke-width:0.5;" x="126.493225361" xlink:href="#mcd54297856" y="157.298491316"/>
     <use style="fill:#0000ff;stroke:#0000ff;stroke-width:0.5;" x="133.968563322" xlink:href="#mcd54297856" y="164.059172985"/>
     <use style="fill:#0000ff;stroke:#0000ff;stroke-width:0.5;" x="142.123477462" xlink:href="#mcd54297856" y="170.21755079"/>
     <use style="fill:#0000ff;stroke:#0000ff;stroke-width:0.5;" x="182.898048159" xlink:href="#mcd54297856" y="262.077098953"/>
     <use style="fill:#0000ff;stroke:#0000ff;stroke-width:0.5;" x="203.285333508" xlink:href="#mcd54297856" y="268.93494856"/>
     <use style="fill:#0000ff;stroke:#0000ff;stroke-width:0.5;" x="216.876857074" xlink:href="#mcd54297856" y="244.358802624"/>
     <use style="fill:#0000ff;stroke:#0000ff;stroke-width:0.5;" x="223.672618857" xlink:href="#mcd54297856" y="233.252598216"/>
     <use style="fill:#0000ff;stroke:#0000ff;stroke-width:0.5;" x="339.200569168" xlink:href="#mcd54297856" y="207.065821372"/>
     <use style="fill:#0000ff;stroke:#0000ff;stroke-width:0.5;" x="333.084383563" xlink:href="#mcd54297856" y="209.681346547"/>
     <use style="fill:#0000ff;stroke:#0000ff;stroke-width:0.5;" x="334.44353592" xlink:href="#mcd54297856" y="220.037996501"/>
     <use style="fill:#0000ff;stroke:#0000ff;stroke-width:0.5;" x="335.123112098" xlink:href="#mcd54297856" y="209.628788323"/>
     <use style="fill:#0000ff;stroke:#0000ff;stroke-width:0.5;" x="335.123112098" xlink:href="#mcd54297856" y="220.860162952"/>
     <use style="fill:#0000ff;stroke:#0000ff;stroke-width:0.5;" x="352.792092734" xlink:href="#mcd54297856" y="194.478084767"/>
     <use style="fill:#0000ff;stroke:#0000ff;stroke-width:0.5;" x="362.30615923" xlink:href="#mcd54297856" y="164.900222138"/>
     <use style="fill:#0000ff;stroke:#0000ff;stroke-width:0.5;" x="372.499801904" xlink:href="#mcd54297856" y="185.292328309"/>
     <use style="fill:#0000ff;stroke:#0000ff;stroke-width:0.5;" x="373.179378083" xlink:href="#mcd54297856" y="181.156919487"/>
     <use style="fill:#0000ff;stroke:#0000ff;stroke-width:0.5;" x="445.894029161" xlink:href="#mcd54297856" y="199.137401685"/>
     <use style="fill:#0000ff;stroke:#0000ff;stroke-width:0.5;" x="445.894029161" xlink:href="#mcd54297856" y="203.736611426"/>
     <use style="fill:#0000ff;stroke:#0000ff;stroke-width:0.5;" x="445.894029161" xlink:href="#mcd54297856" y="203.361989764"/>
     <use style="fill:#0000ff;stroke:#0000ff;stroke-width:0.5;" x="462.883433618" xlink:href="#mcd54297856" y="307.940721521"/>
     <use style="fill:#0000ff;stroke:#0000ff;stroke-width:0.5;" x="467.640466866" xlink:href="#mcd54297856" y="258.413682326"/>
     <use style="fill:#0000ff;stroke:#0000ff;stroke-width:0.5;" x="467.640466866" xlink:href="#mcd54297856" y="166.759741963"/>
     <use style="fill:#0000ff;stroke:#0000ff;stroke-width:0.5;" x="467.640466866" xlink:href="#mcd54297856" y="258.417589728"/>
     <use style="fill:#0000ff;stroke:#0000ff;stroke-width:0.5;" x="471.038347758" xlink:href="#mcd54297856" y="321.981333703"/>
     <use style="fill:#0000ff;stroke:#0000ff;stroke-width:0.5;" x="475.115804827" xlink:href="#mcd54297856" y="299.457519307"/>
     <use style="fill:#0000ff;stroke:#0000ff;stroke-width:0.5;" x="477.154533362" xlink:href="#mcd54297856" y="302.937984102"/>
     <use style="fill:#0000ff;stroke:#0000ff;stroke-width:0.5;" x="477.154533362" xlink:href="#mcd54297856" y="301.972353241"/>
     <use style="fill:#0000ff;stroke:#0000ff;stroke-width:0.5;" x="481.231990432" xlink:href="#mcd54297856" y="189.260369827"/>
     <use style="fill:#0000ff;stroke:#0000ff;stroke-width:0.5;" x="490.06648075" xlink:href="#mcd54297856" y="179.649208544"/>
    </g>
   </g>
   <g id="line2d_3">
    <g clip-path="url(#p913c2c77f4)">
     <use style="fill:#0000ff;stroke:#0000ff;stroke-width:0.5;" x="-978.497640551" xlink:href="#mcd54297856" y="256.560218091"/>
     <use style="fill:#0000ff;stroke:#0000ff;stroke-width:0.5;" x="-1.0" xlink:href="#mcd54297856" y="151.761855225"/>
     <use style="fill:#0000ff;stroke:#0000ff;stroke-width:0.5;" x="0.092056197479" xlink:href="#mcd54297856" y="153.79008637"/>
     <use style="fill:#0000ff;stroke:#0000ff;stroke-width:0.5;" x="12.3244274068" xlink:href="#mcd54297856" y="132.667678763"/>
     <use style="fill:#0000ff;stroke:#0000ff;stroke-width:0.5;" x="13.6835797634" xlink:href="#mcd54297856" y="134.561074454"/>
     <use style="fill:#0000ff;stroke:#0000ff;stroke-width:0.5;" x="18.4406130115" xlink:href="#mcd54297856" y="159.186297034"/>
     <use style="fill:#0000ff;stroke:#0000ff;stroke-width:0.5;" x="54.4581504613" xlink:href="#mcd54297856" y="73.6407463681"/>
     <use style="fill:#0000ff;stroke:#0000ff;stroke-width:0.5;" x="54.4581504613" xlink:href="#mcd54297856" y="84.6939971857"/>
     <use style="fill:#0000ff;stroke:#0000ff;stroke-width:0.5;" x="70.7679787404" xlink:href="#mcd54297856" y="62.5716467425"/>
     <use style="fill:#0000ff;stroke:#0000ff;stroke-width:0.5;" x="70.7679787404" xlink:href="#mcd54297856" y="75.7746255162"/>
     <use style="fill:#0000ff;stroke:#0000ff;stroke-width:0.5;" x="70.7679787404" xlink:href="#mcd54297856" y="64.8668039372"/>
     <use style="fill:#0000ff;stroke:#0000ff;stroke-width:0.5;" x="85.718654663" xlink:href="#mcd54297856" y="71.4828092715"/>
     <use style="fill:#0000ff;stroke:#0000ff;stroke-width:0.5;" x="104.746787655" xlink:href="#mcd54297856" y="69.6527144544"/>
     <use style="fill:#0000ff;stroke:#0000ff;stroke-width:0.5;" x="107.465092368" xlink:href="#mcd54297856" y="57.5877255927"/>
     <use style="fill:#0000ff;stroke:#0000ff;stroke-width:0.5;" x="107.465092368" xlink:href="#mcd54297856" y="73.1297486659"/>
     <use style="fill:#0000ff;stroke:#0000ff;stroke-width:0.5;" x="107.804880458" xlink:href="#mcd54297856" y="80.7351074666"/>
     <use style="fill:#0000ff;stroke:#0000ff;stroke-width:0.5;" x="110.183397082" xlink:href="#mcd54297856" y="93.0346777009"/>
     <use style="fill:#0000ff;stroke:#0000ff;stroke-width:0.5;" x="110.183397082" xlink:href="#mcd54297856" y="92.6706146207"/>
     <use style="fill:#0000ff;stroke:#0000ff;stroke-width:0.5;" x="113.921066062" xlink:href="#mcd54297856" y="113.489666942"/>
     <use style="fill:#0000ff;stroke:#0000ff;stroke-width:0.5;" x="114.260854151" xlink:href="#mcd54297856" y="127.040432016"/>
     <use style="fill:#0000ff;stroke:#0000ff;stroke-width:0.5;" x="114.94043033" xlink:href="#mcd54297856" y="125.306485872"/>
     <use style="fill:#0000ff;stroke:#0000ff;stroke-width:0.5;" x="116.299582686" xlink:href="#mcd54297856" y="138.929391561"/>
     <use style="fill:#0000ff;stroke:#0000ff;stroke-width:0.5;" x="116.979158865" xlink:href="#mcd54297856" y="123.894840281"/>
     <use style="fill:#0000ff;stroke:#0000ff;stroke-width:0.5;" x="117.658735043" xlink:href="#mcd54297856" y="123.906027431"/>
     <use style="fill:#0000ff;stroke:#0000ff;stroke-width:0.5;" x="115.620006508" xlink:href="#mcd54297856" y="156.687778732"/>
     <use style="fill:#0000ff;stroke:#0000ff;stroke-width:0.5;" x="122.415768291" xlink:href="#mcd54297856" y="133.173142162"/>
     <use style="fill:#0000ff;stroke:#0000ff;stroke-width:0.5;" x="126.493225361" xlink:href="#mcd54297856" y="157.298491316"/>
     <use style="fill:#0000ff;stroke:#0000ff;stroke-width:0.5;" x="123.095344469" xlink:href="#mcd54297856" y="164.059172985"/>
     <use style="fill:#0000ff;stroke:#0000ff;stroke-width:0.5;" x="128.531953896" xlink:href="#mcd54297856" y="170.21755079"/>
     <use style="fill:#0000ff;stroke:#0000ff;stroke-width:0.5;" x="162.510762811" xlink:href="#mcd54297856" y="262.077098953"/>
     <use style="fill:#0000ff;stroke:#0000ff;stroke-width:0.5;" x="176.102286377" xlink:href="#mcd54297856" y="268.93494856"/>
     <use style="fill:#0000ff;stroke:#0000ff;stroke-width:0.5;" x="189.693809942" xlink:href="#mcd54297856" y="244.358802624"/>
     <use style="fill:#0000ff;stroke:#0000ff;stroke-width:0.5;" x="196.489571725" xlink:href="#mcd54297856" y="233.252598216"/>
     <use style="fill:#0000ff;stroke:#0000ff;stroke-width:0.5;" x="318.813283819" xlink:href="#mcd54297856" y="207.065821372"/>
     <use style="fill:#0000ff;stroke:#0000ff;stroke-width:0.5;" x="331.725231207" xlink:href="#mcd54297856" y="209.681346547"/>
     <use style="fill:#0000ff;stroke:#0000ff;stroke-width:0.5;" x="331.725231207" xlink:href="#mcd54297856" y="220.037996501"/>
     <use style="fill:#0000ff;stroke:#0000ff;stroke-width:0.5;" x="332.404807385" xlink:href="#mcd54297856" y="209.628788323"/>
     <use style="fill:#0000ff;stroke:#0000ff;stroke-width:0.5;" x="332.404807385" xlink:href="#mcd54297856" y="220.860162952"/>
     <use style="fill:#0000ff;stroke:#0000ff;stroke-width:0.5;" x="318.813283819" xlink:href="#mcd54297856" y="194.478084767"/>
     <use style="fill:#0000ff;stroke:#0000ff;stroke-width:0.5;" x="354.15124509" xlink:href="#mcd54297856" y="164.900222138"/>
     <use style="fill:#0000ff;stroke:#0000ff;stroke-width:0.5;" x="368.422344835" xlink:href="#mcd54297856" y="185.292328309"/>
     <use style="fill:#0000ff;stroke:#0000ff;stroke-width:0.5;" x="373.179378083" xlink:href="#mcd54297856" y="181.156919487"/>
     <use style="fill:#0000ff;stroke:#0000ff;stroke-width:0.5;" x="443.175724447" xlink:href="#mcd54297856" y="199.137401685"/>
     <use style="fill:#0000ff;stroke:#0000ff;stroke-width:0.5;" x="443.175724447" xlink:href="#mcd54297856" y="203.736611426"/>
     <use style="fill:#0000ff;stroke:#0000ff;stroke-width:0.5;" x="443.175724447" xlink:href="#mcd54297856" y="203.361989764"/>
     <use style="fill:#0000ff;stroke:#0000ff;stroke-width:0.5;" x="460.165128905" xlink:href="#mcd54297856" y="307.940721521"/>
     <use style="fill:#0000ff;stroke:#0000ff;stroke-width:0.5;" x="464.922162153" xlink:href="#mcd54297856" y="258.413682326"/>
     <use style="fill:#0000ff;stroke:#0000ff;stroke-width:0.5;" x="464.922162153" xlink:href="#mcd54297856" y="166.759741963"/>
     <use style="fill:#0000ff;stroke:#0000ff;stroke-width:0.5;" x="464.922162153" xlink:href="#mcd54297856" y="258.417589728"/>
     <use style="fill:#0000ff;stroke:#0000ff;stroke-width:0.5;" x="469.679195401" xlink:href="#mcd54297856" y="321.981333703"/>
     <use style="fill:#0000ff;stroke:#0000ff;stroke-width:0.5;" x="468.320043044" xlink:href="#mcd54297856" y="299.457519307"/>
     <use style="fill:#0000ff;stroke:#0000ff;stroke-width:0.5;" x="470.358771579" xlink:href="#mcd54297856" y="302.937984102"/>
     <use style="fill:#0000ff;stroke:#0000ff;stroke-width:0.5;" x="470.358771579" xlink:href="#mcd54297856" y="301.972353241"/>
     <use style="fill:#0000ff;stroke:#0000ff;stroke-width:0.5;" x="475.795381006" xlink:href="#mcd54297856" y="189.260369827"/>
     <use style="fill:#0000ff;stroke:#0000ff;stroke-width:0.5;" x="485.98902368" xlink:href="#mcd54297856" y="179.649208544"/>
    </g>
   </g>
   <g id="line2d_4">
    <defs>
     <path d="M 3 0 
L -3 -0 
" id="m2a04c6c930" style="stroke:#0000ff;stroke-width:0.5;"/>
    </defs>
    <g clip-path="url(#p913c2c77f4)">
     <use style="fill:#0000ff;stroke:#0000ff;stroke-width:0.5;" x="-975.779335838" xlink:href="#m2a04c6c930" y="264.000218091"/>
     <use style="fill:#0000ff;stroke:#0000ff;stroke-width:0.5;" x="-1.0" xlink:href="#m2a04c6c930" y="157.02804184"/>
     <use style="fill:#0000ff;stroke:#0000ff;stroke-width:0.5;" x="1.45120855407" xlink:href="#m2a04c6c930" y="163.09008637"/>
     <use style="fill:#0000ff;stroke:#0000ff;stroke-width:0.5;" x="17.4212487441" xlink:href="#m2a04c6c930" y="144.943678763"/>
     <use style="fill:#0000ff;stroke:#0000ff;stroke-width:0.5;" x="21.1589177247" xlink:href="#m2a04c6c930" y="147.953074454"/>
     <use style="fill:#0000ff;stroke:#0000ff;stroke-width:0.5;" x="21.838493903" xlink:href="#m2a04c6c930" y="163.836297034"/>
     <use style="fill:#0000ff;stroke:#0000ff;stroke-width:0.5;" x="57.8560313528" xlink:href="#m2a04c6c930" y="91.6827463681"/>
     <use style="fill:#0000ff;stroke:#0000ff;stroke-width:0.5;" x="57.8560313528" xlink:href="#m2a04c6c930" y="102.549997186"/>
     <use style="fill:#0000ff;stroke:#0000ff;stroke-width:0.5;" x="72.127131097" xlink:href="#m2a04c6c930" y="80.0556467425"/>
     <use style="fill:#0000ff;stroke:#0000ff;stroke-width:0.5;" x="72.127131097" xlink:href="#m2a04c6c930" y="100.140625516"/>
     <use style="fill:#0000ff;stroke:#0000ff;stroke-width:0.5;" x="74.1658596319" xlink:href="#m2a04c6c930" y="75.4688039372"/>
     <use style="fill:#0000ff;stroke:#0000ff;stroke-width:0.5;" x="87.0778070195" xlink:href="#m2a04c6c930" y="97.7088092715"/>
     <use style="fill:#0000ff;stroke:#0000ff;stroke-width:0.5;" x="107.465092368" xlink:href="#m2a04c6c930" y="77.0927144544"/>
     <use style="fill:#0000ff;stroke:#0000ff;stroke-width:0.5;" x="109.503820903" xlink:href="#m2a04c6c930" y="67.4457255927"/>
     <use style="fill:#0000ff;stroke:#0000ff;stroke-width:0.5;" x="109.503820903" xlink:href="#m2a04c6c930" y="82.0577486659"/>
     <use style="fill:#0000ff;stroke:#0000ff;stroke-width:0.5;" x="110.183397082" xlink:href="#m2a04c6c930" y="95.9871074666"/>
     <use style="fill:#0000ff;stroke:#0000ff;stroke-width:0.5;" x="111.542549438" xlink:href="#m2a04c6c930" y="101.404677701"/>
     <use style="fill:#0000ff;stroke:#0000ff;stroke-width:0.5;" x="111.542549438" xlink:href="#m2a04c6c930" y="99.5526146207"/>
     <use style="fill:#0000ff;stroke:#0000ff;stroke-width:0.5;" x="114.260854151" xlink:href="#m2a04c6c930" y="122.603666942"/>
     <use style="fill:#0000ff;stroke:#0000ff;stroke-width:0.5;" x="116.299582686" xlink:href="#m2a04c6c930" y="131.690432016"/>
     <use style="fill:#0000ff;stroke:#0000ff;stroke-width:0.5;" x="116.979158865" xlink:href="#m2a04c6c930" y="130.514485872"/>
     <use style="fill:#0000ff;stroke:#0000ff;stroke-width:0.5;" x="118.338311221" xlink:href="#m2a04c6c930" y="147.671391561"/>
     <use style="fill:#0000ff;stroke:#0000ff;stroke-width:0.5;" x="118.338311221" xlink:href="#m2a04c6c930" y="139.146840281"/>
     <use style="fill:#0000ff;stroke:#0000ff;stroke-width:0.5;" x="121.056615934" xlink:href="#m2a04c6c930" y="138.786027431"/>
     <use style="fill:#0000ff;stroke:#0000ff;stroke-width:0.5;" x="123.095344469" xlink:href="#m2a04c6c930" y="169.707778732"/>
     <use style="fill:#0000ff;stroke:#0000ff;stroke-width:0.5;" x="123.774920648" xlink:href="#m2a04c6c930" y="140.613142162"/>
     <use style="fill:#0000ff;stroke:#0000ff;stroke-width:0.5;" x="126.493225361" xlink:href="#m2a04c6c930" y="165.296491316"/>
     <use style="fill:#0000ff;stroke:#0000ff;stroke-width:0.5;" x="128.531953896" xlink:href="#m2a04c6c930" y="174.289172985"/>
     <use style="fill:#0000ff;stroke:#0000ff;stroke-width:0.5;" x="135.327715679" xlink:href="#m2a04c6c930" y="178.02955079"/>
     <use style="fill:#0000ff;stroke:#0000ff;stroke-width:0.5;" x="172.704405485" xlink:href="#m2a04c6c930" y="273.795098953"/>
     <use style="fill:#0000ff;stroke:#0000ff;stroke-width:0.5;" x="189.693809942" xlink:href="#m2a04c6c930" y="276.18894856"/>
     <use style="fill:#0000ff;stroke:#0000ff;stroke-width:0.5;" x="203.285333508" xlink:href="#m2a04c6c930" y="258.680802624"/>
     <use style="fill:#0000ff;stroke:#0000ff;stroke-width:0.5;" x="210.081095291" xlink:href="#m2a04c6c930" y="247.388598216"/>
     <use style="fill:#0000ff;stroke:#0000ff;stroke-width:0.5;" x="329.006926493" xlink:href="#m2a04c6c930" y="220.085821372"/>
     <use style="fill:#0000ff;stroke:#0000ff;stroke-width:0.5;" x="332.404807385" xlink:href="#m2a04c6c930" y="217.121346547"/>
     <use style="fill:#0000ff;stroke:#0000ff;stroke-width:0.5;" x="333.084383563" xlink:href="#m2a04c6c930" y="233.057996501"/>
     <use style="fill:#0000ff;stroke:#0000ff;stroke-width:0.5;" x="333.763959742" xlink:href="#m2a04c6c930" y="224.880788323"/>
     <use style="fill:#0000ff;stroke:#0000ff;stroke-width:0.5;" x="333.763959742" xlink:href="#m2a04c6c930" y="230.160162952"/>
     <use style="fill:#0000ff;stroke:#0000ff;stroke-width:0.5;" x="335.802688276" xlink:href="#m2a04c6c930" y="203.220084767"/>
     <use style="fill:#0000ff;stroke:#0000ff;stroke-width:0.5;" x="358.22870216" xlink:href="#m2a04c6c930" y="177.920222138"/>
     <use style="fill:#0000ff;stroke:#0000ff;stroke-width:0.5;" x="370.46107337" xlink:href="#m2a04c6c930" y="190.872328309"/>
     <use style="fill:#0000ff;stroke:#0000ff;stroke-width:0.5;" x="373.179378083" xlink:href="#m2a04c6c930" y="186.736919487"/>
     <use style="fill:#0000ff;stroke:#0000ff;stroke-width:0.5;" x="444.534876804" xlink:href="#m2a04c6c930" y="217.737401685"/>
     <use style="fill:#0000ff;stroke:#0000ff;stroke-width:0.5;" x="444.534876804" xlink:href="#m2a04c6c930" y="235.356611426"/>
     <use style="fill:#0000ff;stroke:#0000ff;stroke-width:0.5;" x="444.534876804" xlink:href="#m2a04c6c930" y="235.725989764"/>
     <use style="fill:#0000ff;stroke:#0000ff;stroke-width:0.5;" x="461.524281261" xlink:href="#m2a04c6c930" y="333.980721521"/>
     <use style="fill:#0000ff;stroke:#0000ff;stroke-width:0.5;" x="466.281314509" xlink:href="#m2a04c6c930" y="280.733682326"/>
     <use style="fill:#0000ff;stroke:#0000ff;stroke-width:0.5;" x="466.281314509" xlink:href="#m2a04c6c930" y="195.403741963"/>
     <use style="fill:#0000ff;stroke:#0000ff;stroke-width:0.5;" x="466.281314509" xlink:href="#m2a04c6c930" y="280.737589728"/>
     <use style="fill:#0000ff;stroke:#0000ff;stroke-width:0.5;" x="470.358771579" xlink:href="#m2a04c6c930" y="336.861333703"/>
     <use style="fill:#0000ff;stroke:#0000ff;stroke-width:0.5;" x="471.717923936" xlink:href="#m2a04c6c930" y="310.617519307"/>
     <use style="fill:#0000ff;stroke:#0000ff;stroke-width:0.5;" x="473.756652471" xlink:href="#m2a04c6c930" y="335.487984102"/>
     <use style="fill:#0000ff;stroke:#0000ff;stroke-width:0.5;" x="473.756652471" xlink:href="#m2a04c6c930" y="335.452353241"/>
     <use style="fill:#0000ff;stroke:#0000ff;stroke-width:0.5;" x="478.513685719" xlink:href="#m2a04c6c930" y="201.722369827"/>
     <use style="fill:#0000ff;stroke:#0000ff;stroke-width:0.5;" x="488.027752215" xlink:href="#m2a04c6c930" y="196.389208544"/>
    </g>
   </g>
   <g id="line2d_5">
    <g clip-path="url(#p913c2c77f4)">
     <use style="fill:#0000ff;stroke:#0000ff;stroke-width:0.5;" x="-975.779335838" xlink:href="#m2a04c6c930" y="249.120218091"/>
     <use style="fill:#0000ff;stroke:#0000ff;stroke-width:0.5;" x="-1.0" xlink:href="#m2a04c6c930" y="141.447072856"/>
     <use style="fill:#0000ff;stroke:#0000ff;stroke-width:0.5;" x="1.45120855407" xlink:href="#m2a04c6c930" y="144.49008637"/>
     <use style="fill:#0000ff;stroke:#0000ff;stroke-width:0.5;" x="17.4212487441" xlink:href="#m2a04c6c930" y="120.391678763"/>
     <use style="fill:#0000ff;stroke:#0000ff;stroke-width:0.5;" x="21.1589177247" xlink:href="#m2a04c6c930" y="121.169074454"/>
     <use style="fill:#0000ff;stroke:#0000ff;stroke-width:0.5;" x="21.838493903" xlink:href="#m2a04c6c930" y="154.536297034"/>
     <use style="fill:#0000ff;stroke:#0000ff;stroke-width:0.5;" x="57.8560313528" xlink:href="#m2a04c6c930" y="55.5987463681"/>
     <use style="fill:#0000ff;stroke:#0000ff;stroke-width:0.5;" x="57.8560313528" xlink:href="#m2a04c6c930" y="66.8379971857"/>
     <use style="fill:#0000ff;stroke:#0000ff;stroke-width:0.5;" x="72.127131097" xlink:href="#m2a04c6c930" y="45.0876467425"/>
     <use style="fill:#0000ff;stroke:#0000ff;stroke-width:0.5;" x="72.127131097" xlink:href="#m2a04c6c930" y="51.4086255162"/>
     <use style="fill:#0000ff;stroke:#0000ff;stroke-width:0.5;" x="74.1658596319" xlink:href="#m2a04c6c930" y="54.2648039372"/>
     <use style="fill:#0000ff;stroke:#0000ff;stroke-width:0.5;" x="87.0778070195" xlink:href="#m2a04c6c930" y="45.2568092715"/>
     <use style="fill:#0000ff;stroke:#0000ff;stroke-width:0.5;" x="107.465092368" xlink:href="#m2a04c6c930" y="62.2127144544"/>
     <use style="fill:#0000ff;stroke:#0000ff;stroke-width:0.5;" x="109.503820903" xlink:href="#m2a04c6c930" y="47.7297255927"/>
     <use style="fill:#0000ff;stroke:#0000ff;stroke-width:0.5;" x="109.503820903" xlink:href="#m2a04c6c930" y="64.2017486659"/>
     <use style="fill:#0000ff;stroke:#0000ff;stroke-width:0.5;" x="110.183397082" xlink:href="#m2a04c6c930" y="65.4831074666"/>
     <use style="fill:#0000ff;stroke:#0000ff;stroke-width:0.5;" x="111.542549438" xlink:href="#m2a04c6c930" y="84.6646777009"/>
     <use style="fill:#0000ff;stroke:#0000ff;stroke-width:0.5;" x="111.542549438" xlink:href="#m2a04c6c930" y="85.7886146207"/>
     <use style="fill:#0000ff;stroke:#0000ff;stroke-width:0.5;" x="114.260854151" xlink:href="#m2a04c6c930" y="104.375666942"/>
     <use style="fill:#0000ff;stroke:#0000ff;stroke-width:0.5;" x="116.299582686" xlink:href="#m2a04c6c930" y="122.390432016"/>
     <use style="fill:#0000ff;stroke:#0000ff;stroke-width:0.5;" x="116.979158865" xlink:href="#m2a04c6c930" y="120.098485872"/>
     <use style="fill:#0000ff;stroke:#0000ff;stroke-width:0.5;" x="118.338311221" xlink:href="#m2a04c6c930" y="130.187391561"/>
     <use style="fill:#0000ff;stroke:#0000ff;stroke-width:0.5;" x="118.338311221" xlink:href="#m2a04c6c930" y="108.642840281"/>
     <use style="fill:#0000ff;stroke:#0000ff;stroke-width:0.5;" x="121.056615934" xlink:href="#m2a04c6c930" y="109.026027431"/>
     <use style="fill:#0000ff;stroke:#0000ff;stroke-width:0.5;" x="123.095344469" xlink:href="#m2a04c6c930" y="143.667778732"/>
     <use style="fill:#0000ff;stroke:#0000ff;stroke-width:0.5;" x="123.774920648" xlink:href="#m2a04c6c930" y="125.733142162"/>
     <use style="fill:#0000ff;stroke:#0000ff;stroke-width:0.5;" x="126.493225361" xlink:href="#m2a04c6c930" y="149.300491316"/>
     <use style="fill:#0000ff;stroke:#0000ff;stroke-width:0.5;" x="128.531953896" xlink:href="#m2a04c6c930" y="153.829172985"/>
     <use style="fill:#0000ff;stroke:#0000ff;stroke-width:0.5;" x="135.327715679" xlink:href="#m2a04c6c930" y="162.40555079"/>
     <use style="fill:#0000ff;stroke:#0000ff;stroke-width:0.5;" x="172.704405485" xlink:href="#m2a04c6c930" y="250.359098953"/>
     <use style="fill:#0000ff;stroke:#0000ff;stroke-width:0.5;" x="189.693809942" xlink:href="#m2a04c6c930" y="261.68094856"/>
     <use style="fill:#0000ff;stroke:#0000ff;stroke-width:0.5;" x="203.285333508" xlink:href="#m2a04c6c930" y="230.036802624"/>
     <use style="fill:#0000ff;stroke:#0000ff;stroke-width:0.5;" x="210.081095291" xlink:href="#m2a04c6c930" y="219.116598216"/>
     <use style="fill:#0000ff;stroke:#0000ff;stroke-width:0.5;" x="329.006926493" xlink:href="#m2a04c6c930" y="194.045821372"/>
     <use style="fill:#0000ff;stroke:#0000ff;stroke-width:0.5;" x="332.404807385" xlink:href="#m2a04c6c930" y="202.241346547"/>
     <use style="fill:#0000ff;stroke:#0000ff;stroke-width:0.5;" x="333.084383563" xlink:href="#m2a04c6c930" y="207.017996501"/>
     <use style="fill:#0000ff;stroke:#0000ff;stroke-width:0.5;" x="333.763959742" xlink:href="#m2a04c6c930" y="194.376788323"/>
     <use style="fill:#0000ff;stroke:#0000ff;stroke-width:0.5;" x="333.763959742" xlink:href="#m2a04c6c930" y="211.560162952"/>
     <use style="fill:#0000ff;stroke:#0000ff;stroke-width:0.5;" x="335.802688276" xlink:href="#m2a04c6c930" y="185.736084767"/>
     <use style="fill:#0000ff;stroke:#0000ff;stroke-width:0.5;" x="358.22870216" xlink:href="#m2a04c6c930" y="151.880222138"/>
     <use style="fill:#0000ff;stroke:#0000ff;stroke-width:0.5;" x="370.46107337" xlink:href="#m2a04c6c930" y="179.712328309"/>
     <use style="fill:#0000ff;stroke:#0000ff;stroke-width:0.5;" x="373.179378083" xlink:href="#m2a04c6c930" y="175.576919487"/>
     <use style="fill:#0000ff;stroke:#0000ff;stroke-width:0.5;" x="444.534876804" xlink:href="#m2a04c6c930" y="180.537401685"/>
     <use style="fill:#0000ff;stroke:#0000ff;stroke-width:0.5;" x="444.534876804" xlink:href="#m2a04c6c930" y="172.116611426"/>
     <use style="fill:#0000ff;stroke:#0000ff;stroke-width:0.5;" x="444.534876804" xlink:href="#m2a04c6c930" y="170.997989764"/>
     <use style="fill:#0000ff;stroke:#0000ff;stroke-width:0.5;" x="461.524281261" xlink:href="#m2a04c6c930" y="281.900721521"/>
     <use style="fill:#0000ff;stroke:#0000ff;stroke-width:0.5;" x="466.281314509" xlink:href="#m2a04c6c930" y="236.093682326"/>
     <use style="fill:#0000ff;stroke:#0000ff;stroke-width:0.5;" x="466.281314509" xlink:href="#m2a04c6c930" y="138.115741963"/>
     <use style="fill:#0000ff;stroke:#0000ff;stroke-width:0.5;" x="466.281314509" xlink:href="#m2a04c6c930" y="236.097589728"/>
     <use style="fill:#0000ff;stroke:#0000ff;stroke-width:0.5;" x="470.358771579" xlink:href="#m2a04c6c930" y="307.101333703"/>
     <use style="fill:#0000ff;stroke:#0000ff;stroke-width:0.5;" x="471.717923936" xlink:href="#m2a04c6c930" y="288.297519307"/>
     <use style="fill:#0000ff;stroke:#0000ff;stroke-width:0.5;" x="473.756652471" xlink:href="#m2a04c6c930" y="270.387984102"/>
     <use style="fill:#0000ff;stroke:#0000ff;stroke-width:0.5;" x="473.756652471" xlink:href="#m2a04c6c930" y="268.492353241"/>
     <use style="fill:#0000ff;stroke:#0000ff;stroke-width:0.5;" x="478.513685719" xlink:href="#m2a04c6c930" y="176.798369827"/>
     <use style="fill:#0000ff;stroke:#0000ff;stroke-width:0.5;" x="488.027752215" xlink:href="#m2a04c6c930" y="162.909208544"/>
    </g>
   </g>
   <g id="line2d_6">
    <path clip-path="url(#p913c2c77f4)" d="M -975.779336 256.560218 
M -1 149.237557 
L 1.451209 153.790086 
L 17.421249 132.667679 
L 21.158918 134.561074 
L 21.838494 159.186297 
L 57.856031 73.640746 
L 57.856031 84.693997 
L 72.127131 62.571647 
L 72.127131 75.774626 
L 74.16586 64.866804 
L 87.077807 71.482809 
L 107.465092 69.652714 
L 109.503821 57.587726 
L 109.503821 73.129749 
L 110.183397 80.735107 
L 111.542549 93.034678 
L 111.542549 92.670615 
L 114.260854 113.489667 
L 116.299583 127.040432 
L 116.979159 125.306486 
L 118.338311 138.929392 
L 118.338311 123.89484 
L 121.056616 123.906027 
L 123.095344 156.687779 
L 123.774921 133.173142 
L 126.493225 157.298491 
L 128.531954 164.059173 
L 135.327716 170.217551 
L 172.704405 262.077099 
L 189.69381 268.934949 
L 203.285334 244.358803 
L 210.081095 233.252598 
L 329.006926 207.065821 
L 332.404807 209.681347 
L 333.084384 220.037997 
L 333.76396 209.628788 
L 333.76396 220.860163 
L 335.802688 194.478085 
L 358.228702 164.900222 
L 370.461073 185.292328 
L 373.179378 181.156919 
L 383.418107 183.736921 
" style="fill:none;stroke:#0000ff;stroke-linecap:square;"/>
   </g>
   <g id="patch_4">
    <path d="M 46.982813 7.2 
L 375.218107 7.2 
" style="fill:none;stroke:#000000;stroke-linecap:square;stroke-linejoin:miter;"/>
   </g>
   <g id="patch_5">
    <path d="M 375.218107 342 
L 375.218107 7.2 
" style="fill:none;stroke:#000000;stroke-linecap:square;stroke-linejoin:miter;"/>
   </g>
   <g id="patch_6">
    <path d="M 46.982813 342 
L 375.218107 342 
" style="fill:none;stroke:#000000;stroke-linecap:square;stroke-linejoin:miter;"/>
   </g>
   <g id="patch_7">
    <path d="M 46.982813 342 
L 46.982813 7.2 
" style="fill:none;stroke:#000000;stroke-linecap:square;stroke-linejoin:miter;"/>
   </g>
   <g id="matplotlib.axis_1">
    <g id="xtick_1">
     <g id="line2d_7">
      <defs>
       <path d="M 0 0 
L 0 -4 
" id="m5c3c00eced" style="stroke:#000000;stroke-width:0.5;"/>
      </defs>
      <g>
       <use style="stroke:#000000;stroke-width:0.5;" x="318.813283819" xlink:href="#m5c3c00eced" y="342.0"/>
      </g>
     </g>
     <g id="line2d_8">
      <defs>
       <path d="M 0 0 
L 0 4 
" id="m108bd005a7" style="stroke:#000000;stroke-width:0.5;"/>
      </defs>
      <g>
       <use style="stroke:#000000;stroke-width:0.5;" x="318.813283819" xlink:href="#m108bd005a7" y="7.2"/>
      </g>
     </g>
     <g id="text_1">
      <!-- 800 -->
      <defs>
       <path d="M 31.78125 34.625 
Q 24.75 34.625 20.71875 30.859375 
Q 16.703125 27.09375 16.703125 20.515625 
Q 16.703125 13.921875 20.71875 10.15625 
Q 24.75 6.390625 31.78125 6.390625 
Q 38.8125 6.390625 42.859375 10.171875 
Q 46.921875 13.96875 46.921875 20.515625 
Q 46.921875 27.09375 42.890625 30.859375 
Q 38.875 34.625 31.78125 34.625 
M 21.921875 38.8125 
Q 15.578125 40.375 12.03125 44.71875 
Q 8.5 49.078125 8.5 55.328125 
Q 8.5 64.0625 14.71875 69.140625 
Q 20.953125 74.21875 31.78125 74.21875 
Q 42.671875 74.21875 48.875 69.140625 
Q 55.078125 64.0625 55.078125 55.328125 
Q 55.078125 49.078125 51.53125 44.71875 
Q 48 40.375 41.703125 38.8125 
Q 48.828125 37.15625 52.796875 32.3125 
Q 56.78125 27.484375 56.78125 20.515625 
Q 56.78125 9.90625 50.3125 4.234375 
Q 43.84375 -1.421875 31.78125 -1.421875 
Q 19.734375 -1.421875 13.25 4.234375 
Q 6.78125 9.90625 6.78125 20.515625 
Q 6.78125 27.484375 10.78125 32.3125 
Q 14.796875 37.15625 21.921875 38.8125 
M 18.3125 54.390625 
Q 18.3125 48.734375 21.84375 45.5625 
Q 25.390625 42.390625 31.78125 42.390625 
Q 38.140625 42.390625 41.71875 45.5625 
Q 45.3125 48.734375 45.3125 54.390625 
Q 45.3125 60.0625 41.71875 63.234375 
Q 38.140625 66.40625 31.78125 66.40625 
Q 25.390625 66.40625 21.84375 63.234375 
Q 18.3125 60.0625 18.3125 54.390625 
" id="BitstreamVeraSans-Roman-38"/>
       <path d="M 31.78125 66.40625 
Q 24.171875 66.40625 20.328125 58.90625 
Q 16.5 51.421875 16.5 36.375 
Q 16.5 21.390625 20.328125 13.890625 
Q 24.171875 6.390625 31.78125 6.390625 
Q 39.453125 6.390625 43.28125 13.890625 
Q 47.125 21.390625 47.125 36.375 
Q 47.125 51.421875 43.28125 58.90625 
Q 39.453125 66.40625 31.78125 66.40625 
M 31.78125 74.21875 
Q 44.046875 74.21875 50.515625 64.515625 
Q 56.984375 54.828125 56.984375 36.375 
Q 56.984375 17.96875 50.515625 8.265625 
Q 44.046875 -1.421875 31.78125 -1.421875 
Q 19.53125 -1.421875 13.0625 8.265625 
Q 6.59375 17.96875 6.59375 36.375 
Q 6.59375 54.828125 13.0625 64.515625 
Q 19.53125 74.21875 31.78125 74.21875 
" id="BitstreamVeraSans-Roman-30"/>
      </defs>
      <g transform="translate(309.269533819 353.5984375)scale(0.1 -0.1)">
       <use xlink:href="#BitstreamVeraSans-Roman-38"/>
       <use x="63.623046875" xlink:href="#BitstreamVeraSans-Roman-30"/>
       <use x="127.24609375" xlink:href="#BitstreamVeraSans-Roman-30"/>
      </g>
     </g>
    </g>
    <g id="xtick_2">
     <g id="line2d_9">
      <g>
       <use style="stroke:#000000;stroke-width:0.5;" x="250.855665989" xlink:href="#m5c3c00eced" y="342.0"/>
      </g>
     </g>
     <g id="line2d_10">
      <g>
       <use style="stroke:#000000;stroke-width:0.5;" x="250.855665989" xlink:href="#m108bd005a7" y="7.2"/>
      </g>
     </g>
     <g id="text_2">
      <!-- 900 -->
      <defs>
       <path d="M 10.984375 1.515625 
L 10.984375 10.5 
Q 14.703125 8.734375 18.5 7.8125 
Q 22.3125 6.890625 25.984375 6.890625 
Q 35.75 6.890625 40.890625 13.453125 
Q 46.046875 20.015625 46.78125 33.40625 
Q 43.953125 29.203125 39.59375 26.953125 
Q 35.25 24.703125 29.984375 24.703125 
Q 19.046875 24.703125 12.671875 31.3125 
Q 6.296875 37.9375 6.296875 49.421875 
Q 6.296875 60.640625 12.9375 67.421875 
Q 19.578125 74.21875 30.609375 74.21875 
Q 43.265625 74.21875 49.921875 64.515625 
Q 56.59375 54.828125 56.59375 36.375 
Q 56.59375 19.140625 48.40625 8.859375 
Q 40.234375 -1.421875 26.421875 -1.421875 
Q 22.703125 -1.421875 18.890625 -0.6875 
Q 15.09375 0.046875 10.984375 1.515625 
M 30.609375 32.421875 
Q 37.25 32.421875 41.125 36.953125 
Q 45.015625 41.5 45.015625 49.421875 
Q 45.015625 57.28125 41.125 61.84375 
Q 37.25 66.40625 30.609375 66.40625 
Q 23.96875 66.40625 20.09375 61.84375 
Q 16.21875 57.28125 16.21875 49.421875 
Q 16.21875 41.5 20.09375 36.953125 
Q 23.96875 32.421875 30.609375 32.421875 
" id="BitstreamVeraSans-Roman-39"/>
      </defs>
      <g transform="translate(241.311915989 353.5984375)scale(0.1 -0.1)">
       <use xlink:href="#BitstreamVeraSans-Roman-39"/>
       <use x="63.623046875" xlink:href="#BitstreamVeraSans-Roman-30"/>
       <use x="127.24609375" xlink:href="#BitstreamVeraSans-Roman-30"/>
      </g>
     </g>
    </g>
    <g id="xtick_3">
     <g id="line2d_11">
      <g>
       <use style="stroke:#000000;stroke-width:0.5;" x="182.898048159" xlink:href="#m5c3c00eced" y="342.0"/>
      </g>
     </g>
     <g id="line2d_12">
      <g>
       <use style="stroke:#000000;stroke-width:0.5;" x="182.898048159" xlink:href="#m108bd005a7" y="7.2"/>
      </g>
     </g>
     <g id="text_3">
      <!-- 1000 -->
      <defs>
       <path d="M 12.40625 8.296875 
L 28.515625 8.296875 
L 28.515625 63.921875 
L 10.984375 60.40625 
L 10.984375 69.390625 
L 28.421875 72.90625 
L 38.28125 72.90625 
L 38.28125 8.296875 
L 54.390625 8.296875 
L 54.390625 0 
L 12.40625 0 
z
" id="BitstreamVeraSans-Roman-31"/>
      </defs>
      <g transform="translate(170.173048159 353.5984375)scale(0.1 -0.1)">
       <use xlink:href="#BitstreamVeraSans-Roman-31"/>
       <use x="63.623046875" xlink:href="#BitstreamVeraSans-Roman-30"/>
       <use x="127.24609375" xlink:href="#BitstreamVeraSans-Roman-30"/>
       <use x="190.869140625" xlink:href="#BitstreamVeraSans-Roman-30"/>
      </g>
     </g>
    </g>
    <g id="xtick_4">
     <g id="line2d_13">
      <g>
       <use style="stroke:#000000;stroke-width:0.5;" x="114.94043033" xlink:href="#m5c3c00eced" y="342.0"/>
      </g>
     </g>
     <g id="line2d_14">
      <g>
       <use style="stroke:#000000;stroke-width:0.5;" x="114.94043033" xlink:href="#m108bd005a7" y="7.2"/>
      </g>
     </g>
     <g id="text_4">
      <!-- 1100 -->
      <g transform="translate(102.21543033 353.5984375)scale(0.1 -0.1)">
       <use xlink:href="#BitstreamVeraSans-Roman-31"/>
       <use x="63.623046875" xlink:href="#BitstreamVeraSans-Roman-31"/>
       <use x="127.24609375" xlink:href="#BitstreamVeraSans-Roman-30"/>
       <use x="190.869140625" xlink:href="#BitstreamVeraSans-Roman-30"/>
      </g>
     </g>
    </g>
    <g id="xtick_5">
     <g id="line2d_15">
      <g>
       <use style="stroke:#000000;stroke-width:0.5;" x="46.9828125" xlink:href="#m5c3c00eced" y="342.0"/>
      </g>
     </g>
     <g id="line2d_16">
      <g>
       <use style="stroke:#000000;stroke-width:0.5;" x="46.9828125" xlink:href="#m108bd005a7" y="7.2"/>
      </g>
     </g>
     <g id="text_5">
      <!-- 1200 -->
      <defs>
       <path d="M 19.1875 8.296875 
L 53.609375 8.296875 
L 53.609375 0 
L 7.328125 0 
L 7.328125 8.296875 
Q 12.9375 14.109375 22.625 23.890625 
Q 32.328125 33.6875 34.8125 36.53125 
Q 39.546875 41.84375 41.421875 45.53125 
Q 43.3125 49.21875 43.3125 52.78125 
Q 43.3125 58.59375 39.234375 62.25 
Q 35.15625 65.921875 28.609375 65.921875 
Q 23.96875 65.921875 18.8125 64.3125 
Q 13.671875 62.703125 7.8125 59.421875 
L 7.8125 69.390625 
Q 13.765625 71.78125 18.9375 73 
Q 24.125 74.21875 28.421875 74.21875 
Q 39.75 74.21875 46.484375 68.546875 
Q 53.21875 62.890625 53.21875 53.421875 
Q 53.21875 48.921875 51.53125 44.890625 
Q 49.859375 40.875 45.40625 35.40625 
Q 44.1875 33.984375 37.640625 27.21875 
Q 31.109375 20.453125 19.1875 8.296875 
" id="BitstreamVeraSans-Roman-32"/>
      </defs>
      <g transform="translate(34.2578125 353.5984375)scale(0.1 -0.1)">
       <use xlink:href="#BitstreamVeraSans-Roman-31"/>
       <use x="63.623046875" xlink:href="#BitstreamVeraSans-Roman-32"/>
       <use x="127.24609375" xlink:href="#BitstreamVeraSans-Roman-30"/>
       <use x="190.869140625" xlink:href="#BitstreamVeraSans-Roman-30"/>
      </g>
     </g>
    </g>
    <g id="text_6">
     <!-- Age (Ma) -->
     <defs>
      <path id="BitstreamVeraSans-Roman-20"/>
      <path d="M 9.8125 72.90625 
L 24.515625 72.90625 
L 43.109375 23.296875 
L 61.8125 72.90625 
L 76.515625 72.90625 
L 76.515625 0 
L 66.890625 0 
L 66.890625 64.015625 
L 48.09375 14.015625 
L 38.1875 14.015625 
L 19.390625 64.015625 
L 19.390625 0 
L 9.8125 0 
z
" id="BitstreamVeraSans-Roman-4d"/>
      <path d="M 8.015625 75.875 
L 15.828125 75.875 
Q 23.140625 64.359375 26.78125 53.3125 
Q 30.421875 42.28125 30.421875 31.390625 
Q 30.421875 20.453125 26.78125 9.375 
Q 23.140625 -1.703125 15.828125 -13.1875 
L 8.015625 -13.1875 
Q 14.5 -2 17.703125 9.0625 
Q 20.90625 20.125 20.90625 31.390625 
Q 20.90625 42.671875 17.703125 53.65625 
Q 14.5 64.65625 8.015625 75.875 
" id="BitstreamVeraSans-Roman-29"/>
      <path d="M 31 75.875 
Q 24.46875 64.65625 21.28125 53.65625 
Q 18.109375 42.671875 18.109375 31.390625 
Q 18.109375 20.125 21.3125 9.0625 
Q 24.515625 -2 31 -13.1875 
L 23.1875 -13.1875 
Q 15.875 -1.703125 12.234375 9.375 
Q 8.59375 20.453125 8.59375 31.390625 
Q 8.59375 42.28125 12.203125 53.3125 
Q 15.828125 64.359375 23.1875 75.875 
z
" id="BitstreamVeraSans-Roman-28"/>
      <path d="M 34.1875 63.1875 
L 20.796875 26.90625 
L 47.609375 26.90625 
z
M 28.609375 72.90625 
L 39.796875 72.90625 
L 67.578125 0 
L 57.328125 0 
L 50.6875 18.703125 
L 17.828125 18.703125 
L 11.1875 0 
L 0.78125 0 
z
" id="BitstreamVeraSans-Roman-41"/>
      <path d="M 56.203125 29.59375 
L 56.203125 25.203125 
L 14.890625 25.203125 
Q 15.484375 15.921875 20.484375 11.0625 
Q 25.484375 6.203125 34.421875 6.203125 
Q 39.59375 6.203125 44.453125 7.46875 
Q 49.3125 8.734375 54.109375 11.28125 
L 54.109375 2.78125 
Q 49.265625 0.734375 44.1875 -0.34375 
Q 39.109375 -1.421875 33.890625 -1.421875 
Q 20.796875 -1.421875 13.15625 6.1875 
Q 5.515625 13.8125 5.515625 26.8125 
Q 5.515625 40.234375 12.765625 48.109375 
Q 20.015625 56 32.328125 56 
Q 43.359375 56 49.78125 48.890625 
Q 56.203125 41.796875 56.203125 29.59375 
M 47.21875 32.234375 
Q 47.125 39.59375 43.09375 43.984375 
Q 39.0625 48.390625 32.421875 48.390625 
Q 24.90625 48.390625 20.390625 44.140625 
Q 15.875 39.890625 15.1875 32.171875 
z
" id="BitstreamVeraSans-Roman-65"/>
      <path d="M 45.40625 27.984375 
Q 45.40625 37.75 41.375 43.109375 
Q 37.359375 48.484375 30.078125 48.484375 
Q 22.859375 48.484375 18.828125 43.109375 
Q 14.796875 37.75 14.796875 27.984375 
Q 14.796875 18.265625 18.828125 12.890625 
Q 22.859375 7.515625 30.078125 7.515625 
Q 37.359375 7.515625 41.375 12.890625 
Q 45.40625 18.265625 45.40625 27.984375 
M 54.390625 6.78125 
Q 54.390625 -7.171875 48.1875 -13.984375 
Q 42 -20.796875 29.203125 -20.796875 
Q 24.46875 -20.796875 20.265625 -20.09375 
Q 16.0625 -19.390625 12.109375 -17.921875 
L 12.109375 -9.1875 
Q 16.0625 -11.328125 19.921875 -12.34375 
Q 23.78125 -13.375 27.78125 -13.375 
Q 36.625 -13.375 41.015625 -8.765625 
Q 45.40625 -4.15625 45.40625 5.171875 
L 45.40625 9.625 
Q 42.625 4.78125 38.28125 2.390625 
Q 33.9375 0 27.875 0 
Q 17.828125 0 11.671875 7.65625 
Q 5.515625 15.328125 5.515625 27.984375 
Q 5.515625 40.671875 11.671875 48.328125 
Q 17.828125 56 27.875 56 
Q 33.9375 56 38.28125 53.609375 
Q 42.625 51.21875 45.40625 46.390625 
L 45.40625 54.6875 
L 54.390625 54.6875 
z
" id="BitstreamVeraSans-Roman-67"/>
      <path d="M 34.28125 27.484375 
Q 23.390625 27.484375 19.1875 25 
Q 14.984375 22.515625 14.984375 16.5 
Q 14.984375 11.71875 18.140625 8.90625 
Q 21.296875 6.109375 26.703125 6.109375 
Q 34.1875 6.109375 38.703125 11.40625 
Q 43.21875 16.703125 43.21875 25.484375 
L 43.21875 27.484375 
z
M 52.203125 31.203125 
L 52.203125 0 
L 43.21875 0 
L 43.21875 8.296875 
Q 40.140625 3.328125 35.546875 0.953125 
Q 30.953125 -1.421875 24.3125 -1.421875 
Q 15.921875 -1.421875 10.953125 3.296875 
Q 6 8.015625 6 15.921875 
Q 6 25.140625 12.171875 29.828125 
Q 18.359375 34.515625 30.609375 34.515625 
L 43.21875 34.515625 
L 43.21875 35.40625 
Q 43.21875 41.609375 39.140625 45 
Q 35.0625 48.390625 27.6875 48.390625 
Q 23 48.390625 18.546875 47.265625 
Q 14.109375 46.140625 10.015625 43.890625 
L 10.015625 52.203125 
Q 14.9375 54.109375 19.578125 55.046875 
Q 24.21875 56 28.609375 56 
Q 40.484375 56 46.34375 49.84375 
Q 52.203125 43.703125 52.203125 31.203125 
" id="BitstreamVeraSans-Roman-61"/>
     </defs>
     <g transform="translate(188.560615809 368.2765625)scale(0.1 -0.1)">
      <use xlink:href="#BitstreamVeraSans-Roman-41"/>
      <use x="68.408203125" xlink:href="#BitstreamVeraSans-Roman-67"/>
      <use x="131.884765625" xlink:href="#BitstreamVeraSans-Roman-65"/>
      <use x="193.408203125" xlink:href="#BitstreamVeraSans-Roman-20"/>
      <use x="225.1953125" xlink:href="#BitstreamVeraSans-Roman-28"/>
      <use x="264.208984375" xlink:href="#BitstreamVeraSans-Roman-4d"/>
      <use x="350.48828125" xlink:href="#BitstreamVeraSans-Roman-61"/>
      <use x="411.767578125" xlink:href="#BitstreamVeraSans-Roman-29"/>
     </g>
    </g>
   </g>
   <g id="matplotlib.axis_2">
    <g id="ytick_1">
     <g id="line2d_17">
      <defs>
       <path d="M 0 0 
L 4 0 
" id="mf2e4eea6b5" style="stroke:#000000;stroke-width:0.5;"/>
      </defs>
      <g>
       <use style="stroke:#000000;stroke-width:0.5;" x="46.9828125" xlink:href="#mf2e4eea6b5" y="267.6"/>
      </g>
     </g>
     <g id="line2d_18">
      <defs>
       <path d="M 0 0 
L -4 0 
" id="m59840e359b" style="stroke:#000000;stroke-width:0.5;"/>
      </defs>
      <g>
       <use style="stroke:#000000;stroke-width:0.5;" x="375.218106618" xlink:href="#m59840e359b" y="267.6"/>
      </g>
     </g>
     <g id="text_7">
      <!-- 50 -->
      <defs>
       <path d="M 10.59375 35.5 
L 73.1875 35.5 
L 73.1875 27.203125 
L 10.59375 27.203125 
z
" id="BitstreamVeraSans-Roman-2212"/>
       <path d="M 10.796875 72.90625 
L 49.515625 72.90625 
L 49.515625 64.59375 
L 19.828125 64.59375 
L 19.828125 46.734375 
Q 21.96875 47.46875 24.109375 47.828125 
Q 26.265625 48.1875 28.421875 48.1875 
Q 40.625 48.1875 47.75 41.5 
Q 54.890625 34.8125 54.890625 23.390625 
Q 54.890625 11.625 47.5625 5.09375 
Q 40.234375 -1.421875 26.90625 -1.421875 
Q 22.3125 -1.421875 17.546875 -0.640625 
Q 12.796875 0.140625 7.71875 1.703125 
L 7.71875 11.625 
Q 12.109375 9.234375 16.796875 8.0625 
Q 21.484375 6.890625 26.703125 6.890625 
Q 35.15625 6.890625 40.078125 11.328125 
Q 45.015625 15.765625 45.015625 23.390625 
Q 45.015625 31 40.078125 35.4375 
Q 35.15625 39.890625 26.703125 39.890625 
Q 22.75 39.890625 18.8125 39.015625 
Q 14.890625 38.140625 10.796875 36.28125 
z
" id="BitstreamVeraSans-Roman-35"/>
      </defs>
      <g transform="translate(21.878125 270.359375)scale(0.1 -0.1)">
       <use xlink:href="#BitstreamVeraSans-Roman-2212"/>
       <use x="83.7890625" xlink:href="#BitstreamVeraSans-Roman-35"/>
       <use x="147.412109375" xlink:href="#BitstreamVeraSans-Roman-30"/>
      </g>
     </g>
    </g>
    <g id="ytick_2">
     <g id="line2d_19">
      <g>
       <use style="stroke:#000000;stroke-width:0.5;" x="46.9828125" xlink:href="#mf2e4eea6b5" y="174.6"/>
      </g>
     </g>
     <g id="line2d_20">
      <g>
       <use style="stroke:#000000;stroke-width:0.5;" x="375.218106618" xlink:href="#m59840e359b" y="174.6"/>
      </g>
     </g>
     <g id="text_8">
      <!-- 0 -->
      <g transform="translate(36.6203125 177.359375)scale(0.1 -0.1)">
       <use xlink:href="#BitstreamVeraSans-Roman-30"/>
      </g>
     </g>
    </g>
    <g id="ytick_3">
     <g id="line2d_21">
      <g>
       <use style="stroke:#000000;stroke-width:0.5;" x="46.9828125" xlink:href="#mf2e4eea6b5" y="81.6"/>
      </g>
     </g>
     <g id="line2d_22">
      <g>
       <use style="stroke:#000000;stroke-width:0.5;" x="375.218106618" xlink:href="#m59840e359b" y="81.6"/>
      </g>
     </g>
     <g id="text_9">
      <!-- 50 -->
      <g transform="translate(30.2578125 84.359375)scale(0.1 -0.1)">
       <use xlink:href="#BitstreamVeraSans-Roman-35"/>
       <use x="63.623046875" xlink:href="#BitstreamVeraSans-Roman-30"/>
      </g>
     </g>
    </g>
    <g id="text_10">
     <!-- Paleolatitude of Laurentia (Laurentia poles) -->
     <defs>
      <path d="M 37.109375 75.984375 
L 37.109375 68.5 
L 28.515625 68.5 
Q 23.6875 68.5 21.796875 66.546875 
Q 19.921875 64.59375 19.921875 59.515625 
L 19.921875 54.6875 
L 34.71875 54.6875 
L 34.71875 47.703125 
L 19.921875 47.703125 
L 19.921875 0 
L 10.890625 0 
L 10.890625 47.703125 
L 2.296875 47.703125 
L 2.296875 54.6875 
L 10.890625 54.6875 
L 10.890625 58.5 
Q 10.890625 67.625 15.140625 71.796875 
Q 19.390625 75.984375 28.609375 75.984375 
z
" id="BitstreamVeraSans-Roman-66"/>
      <path d="M 9.8125 72.90625 
L 19.671875 72.90625 
L 19.671875 8.296875 
L 55.171875 8.296875 
L 55.171875 0 
L 9.8125 0 
z
" id="BitstreamVeraSans-Roman-4c"/>
      <path d="M 54.890625 33.015625 
L 54.890625 0 
L 45.90625 0 
L 45.90625 32.71875 
Q 45.90625 40.484375 42.875 44.328125 
Q 39.84375 48.1875 33.796875 48.1875 
Q 26.515625 48.1875 22.3125 43.546875 
Q 18.109375 38.921875 18.109375 30.90625 
L 18.109375 0 
L 9.078125 0 
L 9.078125 54.6875 
L 18.109375 54.6875 
L 18.109375 46.1875 
Q 21.34375 51.125 25.703125 53.5625 
Q 30.078125 56 35.796875 56 
Q 45.21875 56 50.046875 50.171875 
Q 54.890625 44.34375 54.890625 33.015625 
" id="BitstreamVeraSans-Roman-6e"/>
      <path d="M 30.609375 48.390625 
Q 23.390625 48.390625 19.1875 42.75 
Q 14.984375 37.109375 14.984375 27.296875 
Q 14.984375 17.484375 19.15625 11.84375 
Q 23.34375 6.203125 30.609375 6.203125 
Q 37.796875 6.203125 41.984375 11.859375 
Q 46.1875 17.53125 46.1875 27.296875 
Q 46.1875 37.015625 41.984375 42.703125 
Q 37.796875 48.390625 30.609375 48.390625 
M 30.609375 56 
Q 42.328125 56 49.015625 48.375 
Q 55.71875 40.765625 55.71875 27.296875 
Q 55.71875 13.875 49.015625 6.21875 
Q 42.328125 -1.421875 30.609375 -1.421875 
Q 18.84375 -1.421875 12.171875 6.21875 
Q 5.515625 13.875 5.515625 27.296875 
Q 5.515625 40.765625 12.171875 48.375 
Q 18.84375 56 30.609375 56 
" id="BitstreamVeraSans-Roman-6f"/>
      <path d="M 9.421875 75.984375 
L 18.40625 75.984375 
L 18.40625 0 
L 9.421875 0 
z
" id="BitstreamVeraSans-Roman-6c"/>
      <path d="M 19.671875 64.796875 
L 19.671875 37.40625 
L 32.078125 37.40625 
Q 38.96875 37.40625 42.71875 40.96875 
Q 46.484375 44.53125 46.484375 51.125 
Q 46.484375 57.671875 42.71875 61.234375 
Q 38.96875 64.796875 32.078125 64.796875 
z
M 9.8125 72.90625 
L 32.078125 72.90625 
Q 44.34375 72.90625 50.609375 67.359375 
Q 56.890625 61.8125 56.890625 51.125 
Q 56.890625 40.328125 50.609375 34.8125 
Q 44.34375 29.296875 32.078125 29.296875 
L 19.671875 29.296875 
L 19.671875 0 
L 9.8125 0 
z
" id="BitstreamVeraSans-Roman-50"/>
      <path d="M 9.421875 54.6875 
L 18.40625 54.6875 
L 18.40625 0 
L 9.421875 0 
z
M 9.421875 75.984375 
L 18.40625 75.984375 
L 18.40625 64.59375 
L 9.421875 64.59375 
z
" id="BitstreamVeraSans-Roman-69"/>
      <path d="M 45.40625 46.390625 
L 45.40625 75.984375 
L 54.390625 75.984375 
L 54.390625 0 
L 45.40625 0 
L 45.40625 8.203125 
Q 42.578125 3.328125 38.25 0.953125 
Q 33.9375 -1.421875 27.875 -1.421875 
Q 17.96875 -1.421875 11.734375 6.484375 
Q 5.515625 14.40625 5.515625 27.296875 
Q 5.515625 40.1875 11.734375 48.09375 
Q 17.96875 56 27.875 56 
Q 33.9375 56 38.25 53.625 
Q 42.578125 51.265625 45.40625 46.390625 
M 14.796875 27.296875 
Q 14.796875 17.390625 18.875 11.75 
Q 22.953125 6.109375 30.078125 6.109375 
Q 37.203125 6.109375 41.296875 11.75 
Q 45.40625 17.390625 45.40625 27.296875 
Q 45.40625 37.203125 41.296875 42.84375 
Q 37.203125 48.484375 30.078125 48.484375 
Q 22.953125 48.484375 18.875 42.84375 
Q 14.796875 37.203125 14.796875 27.296875 
" id="BitstreamVeraSans-Roman-64"/>
      <path d="M 18.3125 70.21875 
L 18.3125 54.6875 
L 36.8125 54.6875 
L 36.8125 47.703125 
L 18.3125 47.703125 
L 18.3125 18.015625 
Q 18.3125 11.328125 20.140625 9.421875 
Q 21.96875 7.515625 27.59375 7.515625 
L 36.8125 7.515625 
L 36.8125 0 
L 27.59375 0 
Q 17.1875 0 13.234375 3.875 
Q 9.28125 7.765625 9.28125 18.015625 
L 9.28125 47.703125 
L 2.6875 47.703125 
L 2.6875 54.6875 
L 9.28125 54.6875 
L 9.28125 70.21875 
z
" id="BitstreamVeraSans-Roman-74"/>
      <path d="M 8.5 21.578125 
L 8.5 54.6875 
L 17.484375 54.6875 
L 17.484375 21.921875 
Q 17.484375 14.15625 20.5 10.265625 
Q 23.53125 6.390625 29.59375 6.390625 
Q 36.859375 6.390625 41.078125 11.03125 
Q 45.3125 15.671875 45.3125 23.6875 
L 45.3125 54.6875 
L 54.296875 54.6875 
L 54.296875 0 
L 45.3125 0 
L 45.3125 8.40625 
Q 42.046875 3.421875 37.71875 1 
Q 33.40625 -1.421875 27.6875 -1.421875 
Q 18.265625 -1.421875 13.375 4.4375 
Q 8.5 10.296875 8.5 21.578125 
" id="BitstreamVeraSans-Roman-75"/>
      <path d="M 41.109375 46.296875 
Q 39.59375 47.171875 37.8125 47.578125 
Q 36.03125 48 33.890625 48 
Q 26.265625 48 22.1875 43.046875 
Q 18.109375 38.09375 18.109375 28.8125 
L 18.109375 0 
L 9.078125 0 
L 9.078125 54.6875 
L 18.109375 54.6875 
L 18.109375 46.1875 
Q 20.953125 51.171875 25.484375 53.578125 
Q 30.03125 56 36.53125 56 
Q 37.453125 56 38.578125 55.875 
Q 39.703125 55.765625 41.0625 55.515625 
z
" id="BitstreamVeraSans-Roman-72"/>
      <path d="M 44.28125 53.078125 
L 44.28125 44.578125 
Q 40.484375 46.53125 36.375 47.5 
Q 32.28125 48.484375 27.875 48.484375 
Q 21.1875 48.484375 17.84375 46.4375 
Q 14.5 44.390625 14.5 40.28125 
Q 14.5 37.15625 16.890625 35.375 
Q 19.28125 33.59375 26.515625 31.984375 
L 29.59375 31.296875 
Q 39.15625 29.25 43.1875 25.515625 
Q 47.21875 21.78125 47.21875 15.09375 
Q 47.21875 7.46875 41.1875 3.015625 
Q 35.15625 -1.421875 24.609375 -1.421875 
Q 20.21875 -1.421875 15.453125 -0.5625 
Q 10.6875 0.296875 5.421875 2 
L 5.421875 11.28125 
Q 10.40625 8.6875 15.234375 7.390625 
Q 20.0625 6.109375 24.8125 6.109375 
Q 31.15625 6.109375 34.5625 8.28125 
Q 37.984375 10.453125 37.984375 14.40625 
Q 37.984375 18.0625 35.515625 20.015625 
Q 33.0625 21.96875 24.703125 23.78125 
L 21.578125 24.515625 
Q 13.234375 26.265625 9.515625 29.90625 
Q 5.8125 33.546875 5.8125 39.890625 
Q 5.8125 47.609375 11.28125 51.796875 
Q 16.75 56 26.8125 56 
Q 31.78125 56 36.171875 55.265625 
Q 40.578125 54.546875 44.28125 53.078125 
" id="BitstreamVeraSans-Roman-73"/>
      <path d="M 18.109375 8.203125 
L 18.109375 -20.796875 
L 9.078125 -20.796875 
L 9.078125 54.6875 
L 18.109375 54.6875 
L 18.109375 46.390625 
Q 20.953125 51.265625 25.265625 53.625 
Q 29.59375 56 35.59375 56 
Q 45.5625 56 51.78125 48.09375 
Q 58.015625 40.1875 58.015625 27.296875 
Q 58.015625 14.40625 51.78125 6.484375 
Q 45.5625 -1.421875 35.59375 -1.421875 
Q 29.59375 -1.421875 25.265625 0.953125 
Q 20.953125 3.328125 18.109375 8.203125 
M 48.6875 27.296875 
Q 48.6875 37.203125 44.609375 42.84375 
Q 40.53125 48.484375 33.40625 48.484375 
Q 26.265625 48.484375 22.1875 42.84375 
Q 18.109375 37.203125 18.109375 27.296875 
Q 18.109375 17.390625 22.1875 11.75 
Q 26.265625 6.109375 33.40625 6.109375 
Q 40.53125 6.109375 44.609375 11.75 
Q 48.6875 17.390625 48.6875 27.296875 
" id="BitstreamVeraSans-Roman-70"/>
     </defs>
     <g transform="translate(14.7984375 283.2265625)rotate(-90.0)scale(0.1 -0.1)">
      <use xlink:href="#BitstreamVeraSans-Roman-50"/>
      <use x="60.240234375" xlink:href="#BitstreamVeraSans-Roman-61"/>
      <use x="121.51953125" xlink:href="#BitstreamVeraSans-Roman-6c"/>
      <use x="149.302734375" xlink:href="#BitstreamVeraSans-Roman-65"/>
      <use x="210.826171875" xlink:href="#BitstreamVeraSans-Roman-6f"/>
      <use x="272.0078125" xlink:href="#BitstreamVeraSans-Roman-6c"/>
      <use x="299.791015625" xlink:href="#BitstreamVeraSans-Roman-61"/>
      <use x="361.0703125" xlink:href="#BitstreamVeraSans-Roman-74"/>
      <use x="400.279296875" xlink:href="#BitstreamVeraSans-Roman-69"/>
      <use x="428.0625" xlink:href="#BitstreamVeraSans-Roman-74"/>
      <use x="467.271484375" xlink:href="#BitstreamVeraSans-Roman-75"/>
      <use x="530.650390625" xlink:href="#BitstreamVeraSans-Roman-64"/>
      <use x="594.126953125" xlink:href="#BitstreamVeraSans-Roman-65"/>
      <use x="655.650390625" xlink:href="#BitstreamVeraSans-Roman-20"/>
      <use x="687.4375" xlink:href="#BitstreamVeraSans-Roman-6f"/>
      <use x="748.619140625" xlink:href="#BitstreamVeraSans-Roman-66"/>
      <use x="783.82421875" xlink:href="#BitstreamVeraSans-Roman-20"/>
      <use x="815.611328125" xlink:href="#BitstreamVeraSans-Roman-4c"/>
      <use x="871.32421875" xlink:href="#BitstreamVeraSans-Roman-61"/>
      <use x="932.603515625" xlink:href="#BitstreamVeraSans-Roman-75"/>
      <use x="995.982421875" xlink:href="#BitstreamVeraSans-Roman-72"/>
      <use x="1037.06445312" xlink:href="#BitstreamVeraSans-Roman-65"/>
      <use x="1098.58789062" xlink:href="#BitstreamVeraSans-Roman-6e"/>
      <use x="1161.96679688" xlink:href="#BitstreamVeraSans-Roman-74"/>
      <use x="1201.17578125" xlink:href="#BitstreamVeraSans-Roman-69"/>
      <use x="1228.95898438" xlink:href="#BitstreamVeraSans-Roman-61"/>
      <use x="1290.23828125" xlink:href="#BitstreamVeraSans-Roman-20"/>
      <use x="1322.02539062" xlink:href="#BitstreamVeraSans-Roman-28"/>
      <use x="1361.0390625" xlink:href="#BitstreamVeraSans-Roman-4c"/>
      <use x="1416.75195312" xlink:href="#BitstreamVeraSans-Roman-61"/>
      <use x="1478.03125" xlink:href="#BitstreamVeraSans-Roman-75"/>
      <use x="1541.41015625" xlink:href="#BitstreamVeraSans-Roman-72"/>
      <use x="1582.4921875" xlink:href="#BitstreamVeraSans-Roman-65"/>
      <use x="1644.015625" xlink:href="#BitstreamVeraSans-Roman-6e"/>
      <use x="1707.39453125" xlink:href="#BitstreamVeraSans-Roman-74"/>
      <use x="1746.60351562" xlink:href="#BitstreamVeraSans-Roman-69"/>
      <use x="1774.38671875" xlink:href="#BitstreamVeraSans-Roman-61"/>
      <use x="1835.66601562" xlink:href="#BitstreamVeraSans-Roman-20"/>
      <use x="1867.453125" xlink:href="#BitstreamVeraSans-Roman-70"/>
      <use x="1930.9296875" xlink:href="#BitstreamVeraSans-Roman-6f"/>
      <use x="1992.11132812" xlink:href="#BitstreamVeraSans-Roman-6c"/>
      <use x="2019.89453125" xlink:href="#BitstreamVeraSans-Roman-65"/>
      <use x="2081.41796875" xlink:href="#BitstreamVeraSans-Roman-73"/>
      <use x="2133.51757812" xlink:href="#BitstreamVeraSans-Roman-29"/>
     </g>
    </g>
   </g>
   <g id="text_11">
    <!-- Paleolat. from Jacobsville Sandstone -->
    <defs>
     <path d="M 9.8125 72.90625 
L 19.671875 72.90625 
L 19.671875 5.078125 
Q 19.671875 -8.109375 14.671875 -14.0625 
Q 9.671875 -20.015625 -1.421875 -20.015625 
L -5.171875 -20.015625 
L -5.171875 -11.71875 
L -2.09375 -11.71875 
Q 4.4375 -11.71875 7.125 -8.046875 
Q 9.8125 -4.390625 9.8125 5.078125 
z
" id="BitstreamVeraSans-Roman-4a"/>
     <path d="M 52 44.1875 
Q 55.375 50.25 60.0625 53.125 
Q 64.75 56 71.09375 56 
Q 79.640625 56 84.28125 50.015625 
Q 88.921875 44.046875 88.921875 33.015625 
L 88.921875 0 
L 79.890625 0 
L 79.890625 32.71875 
Q 79.890625 40.578125 77.09375 44.375 
Q 74.3125 48.1875 68.609375 48.1875 
Q 61.625 48.1875 57.5625 43.546875 
Q 53.515625 38.921875 53.515625 30.90625 
L 53.515625 0 
L 44.484375 0 
L 44.484375 32.71875 
Q 44.484375 40.625 41.703125 44.40625 
Q 38.921875 48.1875 33.109375 48.1875 
Q 26.21875 48.1875 22.15625 43.53125 
Q 18.109375 38.875 18.109375 30.90625 
L 18.109375 0 
L 9.078125 0 
L 9.078125 54.6875 
L 18.109375 54.6875 
L 18.109375 46.1875 
Q 21.1875 51.21875 25.484375 53.609375 
Q 29.78125 56 35.6875 56 
Q 41.65625 56 45.828125 52.96875 
Q 50 49.953125 52 44.1875 
" id="BitstreamVeraSans-Roman-6d"/>
     <path d="M 53.515625 70.515625 
L 53.515625 60.890625 
Q 47.90625 63.578125 42.921875 64.890625 
Q 37.9375 66.21875 33.296875 66.21875 
Q 25.25 66.21875 20.875 63.09375 
Q 16.5 59.96875 16.5 54.203125 
Q 16.5 49.359375 19.40625 46.890625 
Q 22.3125 44.4375 30.421875 42.921875 
L 36.375 41.703125 
Q 47.40625 39.59375 52.65625 34.296875 
Q 57.90625 29 57.90625 20.125 
Q 57.90625 9.515625 50.796875 4.046875 
Q 43.703125 -1.421875 29.984375 -1.421875 
Q 24.8125 -1.421875 18.96875 -0.25 
Q 13.140625 0.921875 6.890625 3.21875 
L 6.890625 13.375 
Q 12.890625 10.015625 18.65625 8.296875 
Q 24.421875 6.59375 29.984375 6.59375 
Q 38.421875 6.59375 43.015625 9.90625 
Q 47.609375 13.234375 47.609375 19.390625 
Q 47.609375 24.75 44.3125 27.78125 
Q 41.015625 30.8125 33.5 32.328125 
L 27.484375 33.5 
Q 16.453125 35.6875 11.515625 40.375 
Q 6.59375 45.0625 6.59375 53.421875 
Q 6.59375 63.09375 13.40625 68.65625 
Q 20.21875 74.21875 32.171875 74.21875 
Q 37.3125 74.21875 42.625 73.28125 
Q 47.953125 72.359375 53.515625 70.515625 
" id="BitstreamVeraSans-Roman-53"/>
     <path d="M 10.6875 12.40625 
L 21 12.40625 
L 21 0 
L 10.6875 0 
z
" id="BitstreamVeraSans-Roman-2e"/>
     <path d="M 2.984375 54.6875 
L 12.5 54.6875 
L 29.59375 8.796875 
L 46.6875 54.6875 
L 56.203125 54.6875 
L 35.6875 0 
L 23.484375 0 
z
" id="BitstreamVeraSans-Roman-76"/>
     <path d="M 48.78125 52.59375 
L 48.78125 44.1875 
Q 44.96875 46.296875 41.140625 47.34375 
Q 37.3125 48.390625 33.40625 48.390625 
Q 24.65625 48.390625 19.8125 42.84375 
Q 14.984375 37.3125 14.984375 27.296875 
Q 14.984375 17.28125 19.8125 11.734375 
Q 24.65625 6.203125 33.40625 6.203125 
Q 37.3125 6.203125 41.140625 7.25 
Q 44.96875 8.296875 48.78125 10.40625 
L 48.78125 2.09375 
Q 45.015625 0.34375 40.984375 -0.53125 
Q 36.96875 -1.421875 32.421875 -1.421875 
Q 20.0625 -1.421875 12.78125 6.34375 
Q 5.515625 14.109375 5.515625 27.296875 
Q 5.515625 40.671875 12.859375 48.328125 
Q 20.21875 56 33.015625 56 
Q 37.15625 56 41.109375 55.140625 
Q 45.0625 54.296875 48.78125 52.59375 
" id="BitstreamVeraSans-Roman-63"/>
     <path d="M 48.6875 27.296875 
Q 48.6875 37.203125 44.609375 42.84375 
Q 40.53125 48.484375 33.40625 48.484375 
Q 26.265625 48.484375 22.1875 42.84375 
Q 18.109375 37.203125 18.109375 27.296875 
Q 18.109375 17.390625 22.1875 11.75 
Q 26.265625 6.109375 33.40625 6.109375 
Q 40.53125 6.109375 44.609375 11.75 
Q 48.6875 17.390625 48.6875 27.296875 
M 18.109375 46.390625 
Q 20.953125 51.265625 25.265625 53.625 
Q 29.59375 56 35.59375 56 
Q 45.5625 56 51.78125 48.09375 
Q 58.015625 40.1875 58.015625 27.296875 
Q 58.015625 14.40625 51.78125 6.484375 
Q 45.5625 -1.421875 35.59375 -1.421875 
Q 29.59375 -1.421875 25.265625 0.953125 
Q 20.953125 3.328125 18.109375 8.203125 
L 18.109375 0 
L 9.078125 0 
L 9.078125 75.984375 
L 18.109375 75.984375 
z
" id="BitstreamVeraSans-Roman-62"/>
    </defs>
    <g style="fill:#ff0000;" transform="translate(80.9616214149 185.76)scale(0.1 -0.1)">
     <use xlink:href="#BitstreamVeraSans-Roman-50"/>
     <use x="60.240234375" xlink:href="#BitstreamVeraSans-Roman-61"/>
     <use x="121.51953125" xlink:href="#BitstreamVeraSans-Roman-6c"/>
     <use x="149.302734375" xlink:href="#BitstreamVeraSans-Roman-65"/>
     <use x="210.826171875" xlink:href="#BitstreamVeraSans-Roman-6f"/>
     <use x="272.0078125" xlink:href="#BitstreamVeraSans-Roman-6c"/>
     <use x="299.791015625" xlink:href="#BitstreamVeraSans-Roman-61"/>
     <use x="361.0703125" xlink:href="#BitstreamVeraSans-Roman-74"/>
     <use x="400.279296875" xlink:href="#BitstreamVeraSans-Roman-2e"/>
     <use x="432.06640625" xlink:href="#BitstreamVeraSans-Roman-20"/>
     <use x="463.853515625" xlink:href="#BitstreamVeraSans-Roman-66"/>
     <use x="499.05859375" xlink:href="#BitstreamVeraSans-Roman-72"/>
     <use x="540.140625" xlink:href="#BitstreamVeraSans-Roman-6f"/>
     <use x="601.322265625" xlink:href="#BitstreamVeraSans-Roman-6d"/>
     <use x="698.734375" xlink:href="#BitstreamVeraSans-Roman-20"/>
     <use x="730.521484375" xlink:href="#BitstreamVeraSans-Roman-4a"/>
     <use x="760.013671875" xlink:href="#BitstreamVeraSans-Roman-61"/>
     <use x="821.29296875" xlink:href="#BitstreamVeraSans-Roman-63"/>
     <use x="876.2734375" xlink:href="#BitstreamVeraSans-Roman-6f"/>
     <use x="937.455078125" xlink:href="#BitstreamVeraSans-Roman-62"/>
     <use x="1000.93164062" xlink:href="#BitstreamVeraSans-Roman-73"/>
     <use x="1053.03125" xlink:href="#BitstreamVeraSans-Roman-76"/>
     <use x="1112.2109375" xlink:href="#BitstreamVeraSans-Roman-69"/>
     <use x="1139.99414062" xlink:href="#BitstreamVeraSans-Roman-6c"/>
     <use x="1167.77734375" xlink:href="#BitstreamVeraSans-Roman-6c"/>
     <use x="1195.56054688" xlink:href="#BitstreamVeraSans-Roman-65"/>
     <use x="1257.08398438" xlink:href="#BitstreamVeraSans-Roman-20"/>
     <use x="1288.87109375" xlink:href="#BitstreamVeraSans-Roman-53"/>
     <use x="1352.34765625" xlink:href="#BitstreamVeraSans-Roman-61"/>
     <use x="1413.62695312" xlink:href="#BitstreamVeraSans-Roman-6e"/>
     <use x="1477.00585938" xlink:href="#BitstreamVeraSans-Roman-64"/>
     <use x="1540.48242188" xlink:href="#BitstreamVeraSans-Roman-73"/>
     <use x="1592.58203125" xlink:href="#BitstreamVeraSans-Roman-74"/>
     <use x="1631.79101562" xlink:href="#BitstreamVeraSans-Roman-6f"/>
     <use x="1692.97265625" xlink:href="#BitstreamVeraSans-Roman-6e"/>
     <use x="1756.3515625" xlink:href="#BitstreamVeraSans-Roman-65"/>
    </g>
   </g>
  </g>
 </g>
 <defs>
  <clipPath id="p913c2c77f4">
   <rect height="334.8" width="328.235294118" x="46.9828125" y="7.2"/>
  </clipPath>
 </defs>
</svg>
