<?xml version="1.0" encoding="utf-8" standalone="no"?>
<!DOCTYPE svg PUBLIC "-//W3C//DTD SVG 1.1//EN"
  "http://www.w3.org/Graphics/SVG/1.1/DTD/svg11.dtd">
<!-- Created with matplotlib (http://matplotlib.org/) -->
<svg height="280pt" version="1.1" viewBox="0 0 393 280" width="393pt" xmlns="http://www.w3.org/2000/svg" xmlns:xlink="http://www.w3.org/1999/xlink">
 <defs>
  <style type="text/css">
*{stroke-linecap:butt;stroke-linejoin:round;stroke-miterlimit:100000;}
  </style>
 </defs>
 <g id="figure_1">
  <g id="patch_1">
   <path d="M 0 280.074375 
L 393.603125 280.074375 
L 393.603125 0 
L 0 0 
L 0 280.074375 
z
" style="fill:none;"/>
  </g>
  <g id="axes_1">
   <g id="patch_2">
    <path d="M 42.059375 244.518125 
L 376.859375 244.518125 
L 376.859375 21.318125 
L 42.059375 21.318125 
z
" style="fill:#ffffff;"/>
   </g>
   <g id="line2d_1">
    <path clip-path="url(#p2e6f062682)" d="M 65.973661 31.774344 
L 101.845089 31.144019 
L 137.716518 30.733064 
L 173.587946 30.542761 
L 209.459375 30.573356 
L 245.330804 30.82406 
L 281.202232 31.293056 
L 317.073661 31.977518 
L 352.945089 32.873633 
L 374.467946 33.510948 
L 374.467946 33.510948 
" style="fill:none;stroke:#ff0000;stroke-dasharray:6.000000,6.000000;stroke-dashoffset:0.0;"/>
   </g>
   <g id="line2d_2">
    <path clip-path="url(#p2e6f062682)" d="M 65.973661 32.393042 
L 101.845089 31.63446 
L 137.716518 31.089032 
L 173.587946 30.757937 
L 209.459375 30.641238 
L 245.330804 30.737899 
L 281.202232 31.045804 
L 319.465089 31.603488 
L 357.727946 32.392795 
L 374.467946 32.809368 
L 374.467946 32.809368 
" style="fill:none;stroke:#ff0000;stroke-dasharray:6.000000,6.000000;stroke-dashoffset:0.0;"/>
   </g>
   <g id="line2d_3">
    <path clip-path="url(#p2e6f062682)" d="M 65.973661 33.616026 
L 104.236518 33.013687 
L 140.107946 32.664139 
L 175.979375 32.523282 
L 214.242232 32.602414 
L 252.505089 32.916418 
L 290.767946 33.462099 
L 329.030804 34.235039 
L 367.293661 35.22964 
L 374.467946 35.440277 
L 374.467946 35.440277 
" style="fill:none;stroke:#ff0000;stroke-dasharray:6.000000,6.000000;stroke-dashoffset:0.0;"/>
   </g>
   <g id="line2d_4">
    <path clip-path="url(#p2e6f062682)" d="M 65.973661 31.74151 
L 106.627946 31.164834 
L 147.282232 30.805032 
L 187.936518 30.66257 
L 228.590804 30.736521 
L 269.245089 31.024593 
L 312.290804 31.55896 
L 355.336518 32.323471 
L 374.467946 32.735253 
L 374.467946 32.735253 
" style="fill:none;stroke:#ff0000;stroke-dasharray:6.000000,6.000000;stroke-dashoffset:0.0;"/>
   </g>
   <g id="line2d_5">
    <path clip-path="url(#p2e6f062682)" d="M 65.973661 33.869897 
L 106.627946 32.881068 
L 147.282232 32.121214 
L 187.936518 31.592964 
L 228.590804 31.297564 
L 269.245089 31.234887 
L 309.899375 31.403459 
L 350.553661 31.800486 
L 374.467946 32.13916 
L 374.467946 32.13916 
" style="fill:none;stroke:#ff0000;stroke-dasharray:6.000000,6.000000;stroke-dashoffset:0.0;"/>
   </g>
   <g id="line2d_6">
    <path clip-path="url(#p2e6f062682)" d="M 65.973661 29.679607 
L 104.236518 28.912812 
L 142.499375 28.367184 
L 180.762232 28.045658 
L 219.025089 27.949649 
L 257.287946 28.079046 
L 295.550804 28.432228 
L 333.813661 29.006076 
L 372.076518 29.796002 
L 374.467946 29.852416 
L 374.467946 29.852416 
" style="fill:none;stroke:#ff0000;stroke-dasharray:6.000000,6.000000;stroke-dashoffset:0.0;"/>
   </g>
   <g id="line2d_7">
    <path clip-path="url(#p2e6f062682)" d="M 65.973661 27.956751 
L 101.845089 27.510104 
L 137.716518 27.286719 
L 173.587946 27.285981 
L 209.459375 27.50624 
L 245.330804 27.944828 
L 281.202232 28.598097 
L 319.465089 29.526344 
L 357.727946 30.686895 
L 374.467946 31.265726 
L 374.467946 31.265726 
" style="fill:none;stroke:#ff0000;stroke-dasharray:6.000000,6.000000;stroke-dashoffset:0.0;"/>
   </g>
   <g id="line2d_8">
    <path clip-path="url(#p2e6f062682)" d="M 65.973661 35.763406 
L 104.236518 35.215819 
L 142.499375 34.896496 
L 180.762232 34.806077 
L 219.025089 34.943955 
L 257.287946 35.308292 
L 295.550804 35.89604 
L 333.813661 36.702973 
L 372.076518 37.723723 
L 374.467946 37.794478 
L 374.467946 37.794478 
" style="fill:none;stroke:#ff0000;stroke-dasharray:6.000000,6.000000;stroke-dashoffset:0.0;"/>
   </g>
   <g id="line2d_9">
    <path clip-path="url(#p2e6f062682)" d="M 65.973661 34.736698 
L 104.236518 33.877676 
L 142.499375 33.235549 
L 180.762232 32.811831 
L 219.025089 32.606904 
L 257.287946 32.620037 
L 295.550804 32.849395 
L 333.813661 33.292073 
L 374.467946 33.991724 
L 374.467946 33.991724 
" style="fill:none;stroke:#ff0000;stroke-dasharray:6.000000,6.000000;stroke-dashoffset:0.0;"/>
   </g>
   <g id="line2d_10">
    <path clip-path="url(#p2e6f062682)" d="M 65.973661 30.232999 
L 101.845089 29.415057 
L 137.716518 28.817774 
L 173.587946 28.443021 
L 209.459375 28.291519 
L 245.330804 28.362849 
L 281.202232 28.655453 
L 317.073661 29.166661 
L 352.945089 29.892709 
L 374.467946 30.429499 
L 374.467946 30.429499 
" style="fill:none;stroke:#ff0000;stroke-dasharray:6.000000,6.000000;stroke-dashoffset:0.0;"/>
   </g>
   <g id="line2d_11">
    <path clip-path="url(#p2e6f062682)" d="M 65.973661 36.507467 
L 101.845089 35.369476 
L 137.716518 34.452201 
L 173.587946 33.758695 
L 209.459375 33.290743 
L 245.330804 33.048857 
L 281.202232 33.032289 
L 317.073661 33.23905 
L 352.945089 33.665935 
L 374.467946 34.025948 
L 374.467946 34.025948 
" style="fill:none;stroke:#ff0000;stroke-dasharray:6.000000,6.000000;stroke-dashoffset:0.0;"/>
   </g>
   <g id="line2d_12">
    <path clip-path="url(#p2e6f062682)" d="M 65.973661 31.778375 
L 104.236518 31.198601 
L 140.107946 30.870637 
L 175.979375 30.75128 
L 214.242232 30.852812 
L 252.505089 31.188325 
L 290.767946 31.75441 
L 329.030804 32.546568 
L 367.293661 33.559262 
L 374.467946 33.77318 
L 374.467946 33.77318 
" style="fill:none;stroke:#ff0000;stroke-dasharray:6.000000,6.000000;stroke-dashoffset:0.0;"/>
   </g>
   <g id="line2d_13">
    <path clip-path="url(#p2e6f062682)" d="M 65.973661 32.215765 
L 101.845089 31.60514 
L 137.716518 31.231007 
L 173.587946 31.093525 
L 209.459375 31.19171 
L 245.330804 31.523453 
L 281.202232 32.085543 
L 317.073661 32.873701 
L 352.945089 33.882619 
L 374.467946 34.59136 
L 374.467946 34.59136 
" style="fill:none;stroke:#ff0000;stroke-dasharray:6.000000,6.000000;stroke-dashoffset:0.0;"/>
   </g>
   <g id="line2d_14">
    <path clip-path="url(#p2e6f062682)" d="M 65.973661 32.469912 
L 101.845089 32.377833 
L 137.716518 32.510287 
L 173.587946 32.865631 
L 209.459375 33.441142 
L 245.330804 34.233047 
L 281.202232 35.236557 
L 319.465089 36.533684 
L 357.727946 38.056824 
L 374.467946 38.791929 
L 374.467946 38.791929 
" style="fill:none;stroke:#ff0000;stroke-dasharray:6.000000,6.000000;stroke-dashoffset:0.0;"/>
   </g>
   <g id="line2d_15">
    <path clip-path="url(#p2e6f062682)" d="M 65.973661 31.730705 
L 101.845089 30.729143 
L 137.716518 29.94334 
L 173.587946 29.375425 
L 209.459375 29.026475 
L 245.330804 28.896515 
L 281.202232 28.984523 
L 317.073661 29.288454 
L 352.945089 29.805257 
L 374.467946 30.215883 
L 374.467946 30.215883 
" style="fill:none;stroke:#ff0000;stroke-dasharray:6.000000,6.000000;stroke-dashoffset:0.0;"/>
   </g>
   <g id="line2d_16">
    <path clip-path="url(#p2e6f062682)" d="M 65.973661 33.797826 
L 104.236518 33.006802 
L 142.499375 32.43962 
L 180.762232 32.098419 
L 219.025089 31.983972 
L 257.287946 32.095696 
L 295.550804 32.431668 
L 333.813661 32.988646 
L 372.076518 33.762107 
L 374.467946 33.817511 
L 374.467946 33.817511 
" style="fill:none;stroke:#ff0000;stroke-dasharray:6.000000,6.000000;stroke-dashoffset:0.0;"/>
   </g>
   <g id="line2d_17">
    <path clip-path="url(#p2e6f062682)" d="M 65.973661 30.009255 
L 104.236518 29.775747 
L 142.499375 29.774774 
L 180.762232 30.005314 
L 219.025089 30.464998 
L 257.287946 31.150132 
L 295.550804 32.055741 
L 333.813661 33.175609 
L 374.467946 34.591934 
L 374.467946 34.591934 
" style="fill:none;stroke:#ff0000;stroke-dasharray:6.000000,6.000000;stroke-dashoffset:0.0;"/>
   </g>
   <g id="line2d_18">
    <path clip-path="url(#p2e6f062682)" d="M 65.973661 38.780231 
L 104.236518 37.382748 
L 142.499375 36.200388 
L 180.762232 35.238107 
L 219.025089 34.499749 
L 257.287946 33.988022 
L 295.550804 33.70448 
L 333.813661 33.649516 
L 372.076518 33.822362 
L 374.467946 33.840691 
L 374.467946 33.840691 
" style="fill:none;stroke:#ff0000;stroke-dasharray:6.000000,6.000000;stroke-dashoffset:0.0;"/>
   </g>
   <g id="line2d_19">
    <path clip-path="url(#p2e6f062682)" d="M 65.973661 34.272216 
L 111.410804 33.580941 
L 156.847946 33.105535 
L 202.285089 32.850037 
L 247.722232 32.81601 
L 293.159375 33.00255 
L 338.596518 33.406329 
L 374.467946 33.874887 
L 374.467946 33.874887 
" style="fill:none;stroke:#ff0000;stroke-dasharray:6.000000,6.000000;stroke-dashoffset:0.0;"/>
   </g>
   <g id="line2d_20">
    <path clip-path="url(#p2e6f062682)" d="M 65.973661 32.797246 
L 101.845089 32.086503 
L 137.716518 31.588116 
L 173.587946 31.302857 
L 209.459375 31.23048 
L 245.330804 31.369728 
L 283.593661 31.748968 
L 321.856518 32.362483 
L 360.119375 33.205131 
L 374.467946 33.578949 
L 374.467946 33.578949 
" style="fill:none;stroke:#ff0000;stroke-dasharray:6.000000,6.000000;stroke-dashoffset:0.0;"/>
   </g>
   <g id="line2d_21">
    <path clip-path="url(#p2e6f062682)" d="M 65.973661 33.05183 
L 106.627946 32.220668 
L 144.890804 31.654435 
L 183.153661 31.299468 
L 221.416518 31.156351 
L 259.679375 31.22454 
L 300.333661 31.526661 
L 340.987946 32.062147 
L 374.467946 32.675126 
L 374.467946 32.675126 
" style="fill:none;stroke:#ff0000;stroke-dasharray:6.000000,6.000000;stroke-dashoffset:0.0;"/>
   </g>
   <g id="line2d_22">
    <path clip-path="url(#p2e6f062682)" d="M 65.973661 33.581028 
L 101.845089 32.432924 
L 137.716518 31.504382 
L 173.587946 30.799159 
L 209.459375 30.319996 
L 245.330804 30.068604 
L 281.202232 30.045657 
L 317.073661 30.250795 
L 352.945089 30.682625 
L 374.467946 31.049576 
L 374.467946 31.049576 
" style="fill:none;stroke:#ff0000;stroke-dasharray:6.000000,6.000000;stroke-dashoffset:0.0;"/>
   </g>
   <g id="line2d_23">
    <path clip-path="url(#p2e6f062682)" d="M 65.973661 31.138677 
L 101.845089 30.563303 
L 137.716518 30.214275 
L 173.587946 30.092034 
L 209.459375 30.195827 
L 245.330804 30.523723 
L 281.202232 31.072632 
L 317.073661 31.838333 
L 352.945089 32.815511 
L 374.467946 33.500721 
L 374.467946 33.500721 
" style="fill:none;stroke:#ff0000;stroke-dasharray:6.000000,6.000000;stroke-dashoffset:0.0;"/>
   </g>
   <g id="line2d_24">
    <path clip-path="url(#p2e6f062682)" d="M 65.973661 33.906547 
L 101.845089 33.104927 
L 137.716518 32.519998 
L 173.587946 32.15307 
L 209.459375 32.00441 
L 245.330804 32.07325 
L 281.202232 32.3578 
L 317.073661 32.855276 
L 355.336518 33.616363 
L 374.467946 34.084409 
L 374.467946 34.084409 
" style="fill:none;stroke:#ff0000;stroke-dasharray:6.000000,6.000000;stroke-dashoffset:0.0;"/>
   </g>
   <g id="line2d_25">
    <path clip-path="url(#p2e6f062682)" d="M 65.973661 29.527166 
L 104.236518 29.177246 
L 142.499375 29.061898 
L 180.762232 29.179784 
L 219.025089 29.528062 
L 257.287946 30.102425 
L 295.550804 30.897156 
L 333.813661 31.905189 
L 374.467946 33.200585 
L 374.467946 33.200585 
" style="fill:none;stroke:#ff0000;stroke-dasharray:6.000000,6.000000;stroke-dashoffset:0.0;"/>
   </g>
   <g id="line2d_26">
    <path clip-path="url(#p2e6f062682)" d="M 65.973661 30.977727 
L 101.845089 30.68261 
L 137.716518 30.605877 
L 173.587946 30.746555 
L 209.459375 31.10263 
L 245.330804 31.671066 
L 283.593661 32.506918 
L 321.856518 33.573737 
L 360.119375 34.864291 
L 374.467946 35.404266 
L 374.467946 35.404266 
" style="fill:none;stroke:#000000;stroke-linecap:square;"/>
   </g>
   <g id="line2d_27">
    <path clip-path="url(#p2e6f062682)" d="M 65.973661 244.518125 
L 73.147946 244.294925 
L 77.930804 244.071725 
L 77.930804 243.848525 
L 80.322232 243.625325 
L 80.322232 243.402125 
L 82.713661 243.178925 
L 87.496518 242.955725 
L 87.496518 242.732525 
L 92.279375 242.509325 
L 92.279375 242.286125 
L 97.062232 241.839725 
L 97.062232 241.616525 
L 99.453661 241.393325 
L 99.453661 240.946925 
L 101.845089 240.723725 
L 101.845089 240.500525 
L 104.236518 240.277325 
L 104.236518 239.607725 
L 106.627946 239.384525 
L 106.627946 238.714925 
L 109.019375 238.491725 
L 109.019375 238.045325 
L 111.410804 237.822125 
L 111.410804 236.706125 
L 113.802232 236.482925 
L 113.802232 235.590125 
L 116.193661 235.366925 
L 116.193661 235.143725 
L 118.585089 234.920525 
L 118.585089 234.250925 
L 120.976518 234.027725 
L 120.976518 232.465325 
L 123.367946 232.242125 
L 123.367946 230.902925 
L 125.759375 230.679725 
L 125.759375 229.340525 
L 128.150804 229.117325 
L 128.150804 228.001325 
L 130.542232 227.778125 
L 130.542232 227.554925 
L 132.933661 227.331725 
L 132.933661 226.215725 
L 135.325089 225.992525 
L 135.325089 224.876525 
L 137.716518 224.653325 
L 137.716518 223.537325 
L 140.107946 223.314125 
L 140.107946 222.198125 
L 142.499375 221.974925 
L 142.499375 219.966125 
L 144.890804 219.742925 
L 144.890804 218.180525 
L 147.282232 217.957325 
L 147.282232 216.618125 
L 149.673661 216.394925 
L 149.673661 214.609325 
L 152.065089 214.386125 
L 152.065089 211.261325 
L 154.456518 211.038125 
L 154.456518 209.252525 
L 156.847946 209.029325 
L 156.847946 207.020525 
L 159.239375 206.797325 
L 159.239375 204.342125 
L 161.630804 204.118925 
L 161.630804 201.663725 
L 164.022232 201.440525 
L 164.022232 199.654925 
L 166.413661 199.431725 
L 166.413661 196.083725 
L 168.805089 195.860525 
L 168.805089 193.851725 
L 171.196518 193.628525 
L 171.196518 189.834125 
L 173.587946 189.610925 
L 173.587946 187.155725 
L 175.979375 186.932525 
L 175.979375 182.914925 
L 178.370804 182.691725 
L 178.370804 180.013325 
L 180.762232 179.790125 
L 180.762232 177.334925 
L 183.153661 177.111725 
L 183.153661 173.317325 
L 185.545089 173.094125 
L 185.545089 169.522925 
L 187.936518 169.299725 
L 187.936518 166.398125 
L 190.327946 166.174925 
L 190.327946 162.826925 
L 192.719375 162.603725 
L 192.719375 160.371725 
L 195.110804 160.148525 
L 195.110804 156.800525 
L 197.502232 156.577325 
L 197.502232 153.675725 
L 199.893661 153.452525 
L 199.893661 149.434925 
L 202.285089 149.211725 
L 202.285089 144.747725 
L 204.676518 144.524525 
L 204.676518 138.498125 
L 207.067946 138.274925 
L 207.067946 136.266125 
L 209.459375 136.042925 
L 209.459375 131.578925 
L 211.850804 131.355725 
L 211.850804 126.668525 
L 214.242232 126.445325 
L 214.242232 120.642125 
L 216.633661 120.418925 
L 216.633661 115.285325 
L 219.025089 115.062125 
L 219.025089 111.044525 
L 221.416518 110.821325 
L 221.416518 107.919725 
L 223.807946 107.696525 
L 223.807946 105.464525 
L 226.199375 105.241325 
L 226.199375 103.232525 
L 228.590804 103.009325 
L 228.590804 100.777325 
L 230.982232 100.554125 
L 230.982232 98.098925 
L 233.373661 97.875725 
L 233.373661 93.858125 
L 235.765089 93.634925 
L 235.765089 88.501325 
L 238.156518 88.278125 
L 238.156518 86.046125 
L 240.547946 85.822925 
L 240.547946 81.805325 
L 242.939375 81.582125 
L 242.939375 78.234125 
L 245.330804 78.010925 
L 245.330804 75.332525 
L 247.722232 75.109325 
L 247.722232 72.654125 
L 250.113661 72.430925 
L 250.113661 69.082925 
L 252.505089 68.859725 
L 252.505089 65.958125 
L 254.896518 65.734925 
L 254.896518 64.395725 
L 257.287946 64.172525 
L 257.287946 60.378125 
L 259.679375 60.154925 
L 259.679375 57.253325 
L 262.070804 57.030125 
L 262.070804 54.574925 
L 264.462232 54.351725 
L 264.462232 53.682125 
L 266.853661 53.458925 
L 266.853661 50.780525 
L 269.245089 50.557325 
L 269.245089 48.548525 
L 271.636518 48.325325 
L 271.636518 46.316525 
L 274.027946 46.093325 
L 274.027946 44.307725 
L 276.419375 44.084525 
L 276.419375 42.745325 
L 278.810804 42.522125 
L 278.810804 40.290125 
L 281.202232 40.066925 
L 281.202232 39.397325 
L 283.593661 39.174125 
L 283.593661 37.834925 
L 285.985089 37.611725 
L 285.985089 36.272525 
L 288.376518 36.049325 
L 288.376518 35.602925 
L 290.767946 35.379725 
L 290.767946 34.263725 
L 293.159375 34.040525 
L 293.159375 33.147725 
L 295.550804 32.924525 
L 295.550804 32.701325 
L 297.942232 32.478125 
L 297.942232 31.808525 
L 300.333661 31.585325 
L 300.333661 30.915725 
L 302.725089 30.692525 
L 302.725089 30.022925 
L 305.116518 29.799725 
L 305.116518 29.576525 
L 307.507946 29.353325 
L 307.507946 28.683725 
L 312.290804 28.460525 
L 312.290804 28.014125 
L 314.682232 27.790925 
L 314.682232 27.121325 
L 319.465089 26.674925 
L 319.465089 26.228525 
L 321.856518 26.005325 
L 321.856518 25.782125 
L 324.247946 25.558925 
L 324.247946 25.335725 
L 329.030804 25.112525 
L 329.030804 24.889325 
L 331.422232 24.666125 
L 336.205089 24.442925 
L 343.379375 23.773325 
L 343.379375 23.326925 
L 348.162232 22.880525 
L 355.336518 22.657325 
L 355.336518 22.434125 
L 357.727946 22.210925 
L 369.685089 21.987725 
L 374.467946 21.764525 
L 374.467946 21.541325 
L 374.467946 21.541325 
" style="fill:none;stroke:#008000;stroke-linecap:square;"/>
   </g>
   <g id="line2d_28">
    <path clip-path="url(#p2e6f062682)" d="M 106.627946 244.518125 
L 106.627946 21.318125 
" style="fill:none;stroke:#0000ff;stroke-dasharray:6.000000,6.000000;stroke-dashoffset:0.0;"/>
   </g>
   <g id="line2d_29">
    <path clip-path="url(#p2e6f062682)" d="M 317.073661 244.518125 
L 317.073661 21.318125 
" style="fill:none;stroke:#0000ff;stroke-dasharray:6.000000,6.000000;stroke-dashoffset:0.0;"/>
   </g>
   <g id="patch_3">
    <path d="M 42.059375 21.318125 
L 376.859375 21.318125 
" style="fill:none;stroke:#000000;stroke-linecap:square;stroke-linejoin:miter;"/>
   </g>
   <g id="patch_4">
    <path d="M 376.859375 244.518125 
L 376.859375 21.318125 
" style="fill:none;stroke:#000000;stroke-linecap:square;stroke-linejoin:miter;"/>
   </g>
   <g id="patch_5">
    <path d="M 42.059375 244.518125 
L 376.859375 244.518125 
" style="fill:none;stroke:#000000;stroke-linecap:square;stroke-linejoin:miter;"/>
   </g>
   <g id="patch_6">
    <path d="M 42.059375 244.518125 
L 42.059375 21.318125 
" style="fill:none;stroke:#000000;stroke-linecap:square;stroke-linejoin:miter;"/>
   </g>
   <g id="matplotlib.axis_1">
    <g id="xtick_1">
     <g id="line2d_30">
      <defs>
       <path d="M 0 0 
L 0 -4 
" id="m753bb60836" style="stroke:#000000;stroke-width:0.5;"/>
      </defs>
      <g>
       <use style="stroke:#000000;stroke-width:0.5;" x="42.059375" xlink:href="#m753bb60836" y="244.518125"/>
      </g>
     </g>
     <g id="line2d_31">
      <defs>
       <path d="M 0 0 
L 0 4 
" id="m6fc3be889d" style="stroke:#000000;stroke-width:0.5;"/>
      </defs>
      <g>
       <use style="stroke:#000000;stroke-width:0.5;" x="42.059375" xlink:href="#m6fc3be889d" y="21.318125"/>
      </g>
     </g>
     <g id="text_1">
      <!-- −20 -->
      <defs>
       <path d="M 10.59375 35.5 
L 73.1875 35.5 
L 73.1875 27.203125 
L 10.59375 27.203125 
z
" id="BitstreamVeraSans-Roman-2212"/>
       <path d="M 19.1875 8.296875 
L 53.609375 8.296875 
L 53.609375 0 
L 7.328125 0 
L 7.328125 8.296875 
Q 12.9375 14.109375 22.625 23.890625 
Q 32.328125 33.6875 34.8125 36.53125 
Q 39.546875 41.84375 41.421875 45.53125 
Q 43.3125 49.21875 43.3125 52.78125 
Q 43.3125 58.59375 39.234375 62.25 
Q 35.15625 65.921875 28.609375 65.921875 
Q 23.96875 65.921875 18.8125 64.3125 
Q 13.671875 62.703125 7.8125 59.421875 
L 7.8125 69.390625 
Q 13.765625 71.78125 18.9375 73 
Q 24.125 74.21875 28.421875 74.21875 
Q 39.75 74.21875 46.484375 68.546875 
Q 53.21875 62.890625 53.21875 53.421875 
Q 53.21875 48.921875 51.53125 44.890625 
Q 49.859375 40.875 45.40625 35.40625 
Q 44.1875 33.984375 37.640625 27.21875 
Q 31.109375 20.453125 19.1875 8.296875 
" id="BitstreamVeraSans-Roman-32"/>
       <path d="M 31.78125 66.40625 
Q 24.171875 66.40625 20.328125 58.90625 
Q 16.5 51.421875 16.5 36.375 
Q 16.5 21.390625 20.328125 13.890625 
Q 24.171875 6.390625 31.78125 6.390625 
Q 39.453125 6.390625 43.28125 13.890625 
Q 47.125 21.390625 47.125 36.375 
Q 47.125 51.421875 43.28125 58.90625 
Q 39.453125 66.40625 31.78125 66.40625 
M 31.78125 74.21875 
Q 44.046875 74.21875 50.515625 64.515625 
Q 56.984375 54.828125 56.984375 36.375 
Q 56.984375 17.96875 50.515625 8.265625 
Q 44.046875 -1.421875 31.78125 -1.421875 
Q 19.53125 -1.421875 13.0625 8.265625 
Q 6.59375 17.96875 6.59375 36.375 
Q 6.59375 54.828125 13.0625 64.515625 
Q 19.53125 74.21875 31.78125 74.21875 
" id="BitstreamVeraSans-Roman-30"/>
      </defs>
      <g transform="translate(31.50703125 256.1165625)scale(0.1 -0.1)">
       <use xlink:href="#BitstreamVeraSans-Roman-2212"/>
       <use x="83.7890625" xlink:href="#BitstreamVeraSans-Roman-32"/>
       <use x="147.412109375" xlink:href="#BitstreamVeraSans-Roman-30"/>
      </g>
     </g>
    </g>
    <g id="xtick_2">
     <g id="line2d_32">
      <g>
       <use style="stroke:#000000;stroke-width:0.5;" x="89.8879464286" xlink:href="#m753bb60836" y="244.518125"/>
      </g>
     </g>
     <g id="line2d_33">
      <g>
       <use style="stroke:#000000;stroke-width:0.5;" x="89.8879464286" xlink:href="#m6fc3be889d" y="21.318125"/>
      </g>
     </g>
     <g id="text_2">
      <!-- 0 -->
      <g transform="translate(86.7066964286 256.1165625)scale(0.1 -0.1)">
       <use xlink:href="#BitstreamVeraSans-Roman-30"/>
      </g>
     </g>
    </g>
    <g id="xtick_3">
     <g id="line2d_34">
      <g>
       <use style="stroke:#000000;stroke-width:0.5;" x="137.716517857" xlink:href="#m753bb60836" y="244.518125"/>
      </g>
     </g>
     <g id="line2d_35">
      <g>
       <use style="stroke:#000000;stroke-width:0.5;" x="137.716517857" xlink:href="#m6fc3be889d" y="21.318125"/>
      </g>
     </g>
     <g id="text_3">
      <!-- 20 -->
      <g transform="translate(131.354017857 256.1165625)scale(0.1 -0.1)">
       <use xlink:href="#BitstreamVeraSans-Roman-32"/>
       <use x="63.623046875" xlink:href="#BitstreamVeraSans-Roman-30"/>
      </g>
     </g>
    </g>
    <g id="xtick_4">
     <g id="line2d_36">
      <g>
       <use style="stroke:#000000;stroke-width:0.5;" x="185.545089286" xlink:href="#m753bb60836" y="244.518125"/>
      </g>
     </g>
     <g id="line2d_37">
      <g>
       <use style="stroke:#000000;stroke-width:0.5;" x="185.545089286" xlink:href="#m6fc3be889d" y="21.318125"/>
      </g>
     </g>
     <g id="text_4">
      <!-- 40 -->
      <defs>
       <path d="M 37.796875 64.3125 
L 12.890625 25.390625 
L 37.796875 25.390625 
z
M 35.203125 72.90625 
L 47.609375 72.90625 
L 47.609375 25.390625 
L 58.015625 25.390625 
L 58.015625 17.1875 
L 47.609375 17.1875 
L 47.609375 0 
L 37.796875 0 
L 37.796875 17.1875 
L 4.890625 17.1875 
L 4.890625 26.703125 
z
" id="BitstreamVeraSans-Roman-34"/>
      </defs>
      <g transform="translate(179.182589286 256.1165625)scale(0.1 -0.1)">
       <use xlink:href="#BitstreamVeraSans-Roman-34"/>
       <use x="63.623046875" xlink:href="#BitstreamVeraSans-Roman-30"/>
      </g>
     </g>
    </g>
    <g id="xtick_5">
     <g id="line2d_38">
      <g>
       <use style="stroke:#000000;stroke-width:0.5;" x="233.373660714" xlink:href="#m753bb60836" y="244.518125"/>
      </g>
     </g>
     <g id="line2d_39">
      <g>
       <use style="stroke:#000000;stroke-width:0.5;" x="233.373660714" xlink:href="#m6fc3be889d" y="21.318125"/>
      </g>
     </g>
     <g id="text_5">
      <!-- 60 -->
      <defs>
       <path d="M 33.015625 40.375 
Q 26.375 40.375 22.484375 35.828125 
Q 18.609375 31.296875 18.609375 23.390625 
Q 18.609375 15.53125 22.484375 10.953125 
Q 26.375 6.390625 33.015625 6.390625 
Q 39.65625 6.390625 43.53125 10.953125 
Q 47.40625 15.53125 47.40625 23.390625 
Q 47.40625 31.296875 43.53125 35.828125 
Q 39.65625 40.375 33.015625 40.375 
M 52.59375 71.296875 
L 52.59375 62.3125 
Q 48.875 64.0625 45.09375 64.984375 
Q 41.3125 65.921875 37.59375 65.921875 
Q 27.828125 65.921875 22.671875 59.328125 
Q 17.53125 52.734375 16.796875 39.40625 
Q 19.671875 43.65625 24.015625 45.921875 
Q 28.375 48.1875 33.59375 48.1875 
Q 44.578125 48.1875 50.953125 41.515625 
Q 57.328125 34.859375 57.328125 23.390625 
Q 57.328125 12.15625 50.6875 5.359375 
Q 44.046875 -1.421875 33.015625 -1.421875 
Q 20.359375 -1.421875 13.671875 8.265625 
Q 6.984375 17.96875 6.984375 36.375 
Q 6.984375 53.65625 15.1875 63.9375 
Q 23.390625 74.21875 37.203125 74.21875 
Q 40.921875 74.21875 44.703125 73.484375 
Q 48.484375 72.75 52.59375 71.296875 
" id="BitstreamVeraSans-Roman-36"/>
      </defs>
      <g transform="translate(227.011160714 256.1165625)scale(0.1 -0.1)">
       <use xlink:href="#BitstreamVeraSans-Roman-36"/>
       <use x="63.623046875" xlink:href="#BitstreamVeraSans-Roman-30"/>
      </g>
     </g>
    </g>
    <g id="xtick_6">
     <g id="line2d_40">
      <g>
       <use style="stroke:#000000;stroke-width:0.5;" x="281.202232143" xlink:href="#m753bb60836" y="244.518125"/>
      </g>
     </g>
     <g id="line2d_41">
      <g>
       <use style="stroke:#000000;stroke-width:0.5;" x="281.202232143" xlink:href="#m6fc3be889d" y="21.318125"/>
      </g>
     </g>
     <g id="text_6">
      <!-- 80 -->
      <defs>
       <path d="M 31.78125 34.625 
Q 24.75 34.625 20.71875 30.859375 
Q 16.703125 27.09375 16.703125 20.515625 
Q 16.703125 13.921875 20.71875 10.15625 
Q 24.75 6.390625 31.78125 6.390625 
Q 38.8125 6.390625 42.859375 10.171875 
Q 46.921875 13.96875 46.921875 20.515625 
Q 46.921875 27.09375 42.890625 30.859375 
Q 38.875 34.625 31.78125 34.625 
M 21.921875 38.8125 
Q 15.578125 40.375 12.03125 44.71875 
Q 8.5 49.078125 8.5 55.328125 
Q 8.5 64.0625 14.71875 69.140625 
Q 20.953125 74.21875 31.78125 74.21875 
Q 42.671875 74.21875 48.875 69.140625 
Q 55.078125 64.0625 55.078125 55.328125 
Q 55.078125 49.078125 51.53125 44.71875 
Q 48 40.375 41.703125 38.8125 
Q 48.828125 37.15625 52.796875 32.3125 
Q 56.78125 27.484375 56.78125 20.515625 
Q 56.78125 9.90625 50.3125 4.234375 
Q 43.84375 -1.421875 31.78125 -1.421875 
Q 19.734375 -1.421875 13.25 4.234375 
Q 6.78125 9.90625 6.78125 20.515625 
Q 6.78125 27.484375 10.78125 32.3125 
Q 14.796875 37.15625 21.921875 38.8125 
M 18.3125 54.390625 
Q 18.3125 48.734375 21.84375 45.5625 
Q 25.390625 42.390625 31.78125 42.390625 
Q 38.140625 42.390625 41.71875 45.5625 
Q 45.3125 48.734375 45.3125 54.390625 
Q 45.3125 60.0625 41.71875 63.234375 
Q 38.140625 66.40625 31.78125 66.40625 
Q 25.390625 66.40625 21.84375 63.234375 
Q 18.3125 60.0625 18.3125 54.390625 
" id="BitstreamVeraSans-Roman-38"/>
      </defs>
      <g transform="translate(274.839732143 256.1165625)scale(0.1 -0.1)">
       <use xlink:href="#BitstreamVeraSans-Roman-38"/>
       <use x="63.623046875" xlink:href="#BitstreamVeraSans-Roman-30"/>
      </g>
     </g>
    </g>
    <g id="xtick_7">
     <g id="line2d_42">
      <g>
       <use style="stroke:#000000;stroke-width:0.5;" x="329.030803571" xlink:href="#m753bb60836" y="244.518125"/>
      </g>
     </g>
     <g id="line2d_43">
      <g>
       <use style="stroke:#000000;stroke-width:0.5;" x="329.030803571" xlink:href="#m6fc3be889d" y="21.318125"/>
      </g>
     </g>
     <g id="text_7">
      <!-- 100 -->
      <defs>
       <path d="M 12.40625 8.296875 
L 28.515625 8.296875 
L 28.515625 63.921875 
L 10.984375 60.40625 
L 10.984375 69.390625 
L 28.421875 72.90625 
L 38.28125 72.90625 
L 38.28125 8.296875 
L 54.390625 8.296875 
L 54.390625 0 
L 12.40625 0 
z
" id="BitstreamVeraSans-Roman-31"/>
      </defs>
      <g transform="translate(319.487053571 256.1165625)scale(0.1 -0.1)">
       <use xlink:href="#BitstreamVeraSans-Roman-31"/>
       <use x="63.623046875" xlink:href="#BitstreamVeraSans-Roman-30"/>
       <use x="127.24609375" xlink:href="#BitstreamVeraSans-Roman-30"/>
      </g>
     </g>
    </g>
    <g id="xtick_8">
     <g id="line2d_44">
      <g>
       <use style="stroke:#000000;stroke-width:0.5;" x="376.859375" xlink:href="#m753bb60836" y="244.518125"/>
      </g>
     </g>
     <g id="line2d_45">
      <g>
       <use style="stroke:#000000;stroke-width:0.5;" x="376.859375" xlink:href="#m6fc3be889d" y="21.318125"/>
      </g>
     </g>
     <g id="text_8">
      <!-- 120 -->
      <g transform="translate(367.315625 256.1165625)scale(0.1 -0.1)">
       <use xlink:href="#BitstreamVeraSans-Roman-31"/>
       <use x="63.623046875" xlink:href="#BitstreamVeraSans-Roman-32"/>
       <use x="127.24609375" xlink:href="#BitstreamVeraSans-Roman-30"/>
      </g>
     </g>
    </g>
    <g id="text_9">
     <!-- % Untilting -->
     <defs>
      <path id="BitstreamVeraSans-Roman-20"/>
      <path d="M 72.703125 32.078125 
Q 68.453125 32.078125 66.03125 28.46875 
Q 63.625 24.859375 63.625 18.40625 
Q 63.625 12.0625 66.03125 8.421875 
Q 68.453125 4.78125 72.703125 4.78125 
Q 76.859375 4.78125 79.265625 8.421875 
Q 81.6875 12.0625 81.6875 18.40625 
Q 81.6875 24.8125 79.265625 28.4375 
Q 76.859375 32.078125 72.703125 32.078125 
M 72.703125 38.28125 
Q 80.421875 38.28125 84.953125 32.90625 
Q 89.5 27.546875 89.5 18.40625 
Q 89.5 9.28125 84.9375 3.921875 
Q 80.375 -1.421875 72.703125 -1.421875 
Q 64.890625 -1.421875 60.34375 3.921875 
Q 55.8125 9.28125 55.8125 18.40625 
Q 55.8125 27.59375 60.375 32.9375 
Q 64.9375 38.28125 72.703125 38.28125 
M 22.3125 68.015625 
Q 18.109375 68.015625 15.6875 64.375 
Q 13.28125 60.75 13.28125 54.390625 
Q 13.28125 47.953125 15.671875 44.328125 
Q 18.0625 40.71875 22.3125 40.71875 
Q 26.5625 40.71875 28.96875 44.328125 
Q 31.390625 47.953125 31.390625 54.390625 
Q 31.390625 60.6875 28.953125 64.34375 
Q 26.515625 68.015625 22.3125 68.015625 
M 66.40625 74.21875 
L 74.21875 74.21875 
L 28.609375 -1.421875 
L 20.796875 -1.421875 
z
M 22.3125 74.21875 
Q 30.03125 74.21875 34.609375 68.875 
Q 39.203125 63.53125 39.203125 54.390625 
Q 39.203125 45.171875 34.640625 39.84375 
Q 30.078125 34.515625 22.3125 34.515625 
Q 14.546875 34.515625 10.03125 39.859375 
Q 5.515625 45.21875 5.515625 54.390625 
Q 5.515625 63.484375 10.046875 68.84375 
Q 14.59375 74.21875 22.3125 74.21875 
" id="BitstreamVeraSans-Roman-25"/>
      <path d="M 54.890625 33.015625 
L 54.890625 0 
L 45.90625 0 
L 45.90625 32.71875 
Q 45.90625 40.484375 42.875 44.328125 
Q 39.84375 48.1875 33.796875 48.1875 
Q 26.515625 48.1875 22.3125 43.546875 
Q 18.109375 38.921875 18.109375 30.90625 
L 18.109375 0 
L 9.078125 0 
L 9.078125 54.6875 
L 18.109375 54.6875 
L 18.109375 46.1875 
Q 21.34375 51.125 25.703125 53.5625 
Q 30.078125 56 35.796875 56 
Q 45.21875 56 50.046875 50.171875 
Q 54.890625 44.34375 54.890625 33.015625 
" id="BitstreamVeraSans-Roman-6e"/>
      <path d="M 9.421875 75.984375 
L 18.40625 75.984375 
L 18.40625 0 
L 9.421875 0 
z
" id="BitstreamVeraSans-Roman-6c"/>
      <path d="M 9.421875 54.6875 
L 18.40625 54.6875 
L 18.40625 0 
L 9.421875 0 
z
M 9.421875 75.984375 
L 18.40625 75.984375 
L 18.40625 64.59375 
L 9.421875 64.59375 
z
" id="BitstreamVeraSans-Roman-69"/>
      <path d="M 8.6875 72.90625 
L 18.609375 72.90625 
L 18.609375 28.609375 
Q 18.609375 16.890625 22.84375 11.734375 
Q 27.09375 6.59375 36.625 6.59375 
Q 46.09375 6.59375 50.34375 11.734375 
Q 54.59375 16.890625 54.59375 28.609375 
L 54.59375 72.90625 
L 64.5 72.90625 
L 64.5 27.390625 
Q 64.5 13.140625 57.4375 5.859375 
Q 50.390625 -1.421875 36.625 -1.421875 
Q 22.796875 -1.421875 15.734375 5.859375 
Q 8.6875 13.140625 8.6875 27.390625 
z
" id="BitstreamVeraSans-Roman-55"/>
      <path d="M 18.3125 70.21875 
L 18.3125 54.6875 
L 36.8125 54.6875 
L 36.8125 47.703125 
L 18.3125 47.703125 
L 18.3125 18.015625 
Q 18.3125 11.328125 20.140625 9.421875 
Q 21.96875 7.515625 27.59375 7.515625 
L 36.8125 7.515625 
L 36.8125 0 
L 27.59375 0 
Q 17.1875 0 13.234375 3.875 
Q 9.28125 7.765625 9.28125 18.015625 
L 9.28125 47.703125 
L 2.6875 47.703125 
L 2.6875 54.6875 
L 9.28125 54.6875 
L 9.28125 70.21875 
z
" id="BitstreamVeraSans-Roman-74"/>
      <path d="M 45.40625 27.984375 
Q 45.40625 37.75 41.375 43.109375 
Q 37.359375 48.484375 30.078125 48.484375 
Q 22.859375 48.484375 18.828125 43.109375 
Q 14.796875 37.75 14.796875 27.984375 
Q 14.796875 18.265625 18.828125 12.890625 
Q 22.859375 7.515625 30.078125 7.515625 
Q 37.359375 7.515625 41.375 12.890625 
Q 45.40625 18.265625 45.40625 27.984375 
M 54.390625 6.78125 
Q 54.390625 -7.171875 48.1875 -13.984375 
Q 42 -20.796875 29.203125 -20.796875 
Q 24.46875 -20.796875 20.265625 -20.09375 
Q 16.0625 -19.390625 12.109375 -17.921875 
L 12.109375 -9.1875 
Q 16.0625 -11.328125 19.921875 -12.34375 
Q 23.78125 -13.375 27.78125 -13.375 
Q 36.625 -13.375 41.015625 -8.765625 
Q 45.40625 -4.15625 45.40625 5.171875 
L 45.40625 9.625 
Q 42.625 4.78125 38.28125 2.390625 
Q 33.9375 0 27.875 0 
Q 17.828125 0 11.671875 7.65625 
Q 5.515625 15.328125 5.515625 27.984375 
Q 5.515625 40.671875 11.671875 48.328125 
Q 17.828125 56 27.875 56 
Q 33.9375 56 38.28125 53.609375 
Q 42.625 51.21875 45.40625 46.390625 
L 45.40625 54.6875 
L 54.390625 54.6875 
z
" id="BitstreamVeraSans-Roman-67"/>
     </defs>
     <g transform="translate(181.8609375 270.7946875)scale(0.1 -0.1)">
      <use xlink:href="#BitstreamVeraSans-Roman-25"/>
      <use x="95.01953125" xlink:href="#BitstreamVeraSans-Roman-20"/>
      <use x="126.806640625" xlink:href="#BitstreamVeraSans-Roman-55"/>
      <use x="200.0" xlink:href="#BitstreamVeraSans-Roman-6e"/>
      <use x="263.37890625" xlink:href="#BitstreamVeraSans-Roman-74"/>
      <use x="302.587890625" xlink:href="#BitstreamVeraSans-Roman-69"/>
      <use x="330.37109375" xlink:href="#BitstreamVeraSans-Roman-6c"/>
      <use x="358.154296875" xlink:href="#BitstreamVeraSans-Roman-74"/>
      <use x="397.36328125" xlink:href="#BitstreamVeraSans-Roman-69"/>
      <use x="425.146484375" xlink:href="#BitstreamVeraSans-Roman-6e"/>
      <use x="488.525390625" xlink:href="#BitstreamVeraSans-Roman-67"/>
     </g>
    </g>
   </g>
   <g id="matplotlib.axis_2">
    <g id="ytick_1">
     <g id="line2d_46">
      <defs>
       <path d="M 0 0 
L 4 0 
" id="m259766e7c3" style="stroke:#000000;stroke-width:0.5;"/>
      </defs>
      <g>
       <use style="stroke:#000000;stroke-width:0.5;" x="42.059375" xlink:href="#m259766e7c3" y="244.518125"/>
      </g>
     </g>
     <g id="line2d_47">
      <defs>
       <path d="M 0 0 
L -4 0 
" id="m48801bd532" style="stroke:#000000;stroke-width:0.5;"/>
      </defs>
      <g>
       <use style="stroke:#000000;stroke-width:0.5;" x="376.859375" xlink:href="#m48801bd532" y="244.518125"/>
      </g>
     </g>
     <g id="text_10">
      <!-- 0.0 -->
      <defs>
       <path d="M 10.6875 12.40625 
L 21 12.40625 
L 21 0 
L 10.6875 0 
z
" id="BitstreamVeraSans-Roman-2e"/>
      </defs>
      <g transform="translate(22.15625 247.2775)scale(0.1 -0.1)">
       <use xlink:href="#BitstreamVeraSans-Roman-30"/>
       <use x="63.623046875" xlink:href="#BitstreamVeraSans-Roman-2e"/>
       <use x="95.41015625" xlink:href="#BitstreamVeraSans-Roman-30"/>
      </g>
     </g>
    </g>
    <g id="ytick_2">
     <g id="line2d_48">
      <g>
       <use style="stroke:#000000;stroke-width:0.5;" x="42.059375" xlink:href="#m259766e7c3" y="199.878125"/>
      </g>
     </g>
     <g id="line2d_49">
      <g>
       <use style="stroke:#000000;stroke-width:0.5;" x="376.859375" xlink:href="#m48801bd532" y="199.878125"/>
      </g>
     </g>
     <g id="text_11">
      <!-- 0.2 -->
      <g transform="translate(22.15625 202.6375)scale(0.1 -0.1)">
       <use xlink:href="#BitstreamVeraSans-Roman-30"/>
       <use x="63.623046875" xlink:href="#BitstreamVeraSans-Roman-2e"/>
       <use x="95.41015625" xlink:href="#BitstreamVeraSans-Roman-32"/>
      </g>
     </g>
    </g>
    <g id="ytick_3">
     <g id="line2d_50">
      <g>
       <use style="stroke:#000000;stroke-width:0.5;" x="42.059375" xlink:href="#m259766e7c3" y="155.238125"/>
      </g>
     </g>
     <g id="line2d_51">
      <g>
       <use style="stroke:#000000;stroke-width:0.5;" x="376.859375" xlink:href="#m48801bd532" y="155.238125"/>
      </g>
     </g>
     <g id="text_12">
      <!-- 0.4 -->
      <g transform="translate(22.15625 157.9975)scale(0.1 -0.1)">
       <use xlink:href="#BitstreamVeraSans-Roman-30"/>
       <use x="63.623046875" xlink:href="#BitstreamVeraSans-Roman-2e"/>
       <use x="95.41015625" xlink:href="#BitstreamVeraSans-Roman-34"/>
      </g>
     </g>
    </g>
    <g id="ytick_4">
     <g id="line2d_52">
      <g>
       <use style="stroke:#000000;stroke-width:0.5;" x="42.059375" xlink:href="#m259766e7c3" y="110.598125"/>
      </g>
     </g>
     <g id="line2d_53">
      <g>
       <use style="stroke:#000000;stroke-width:0.5;" x="376.859375" xlink:href="#m48801bd532" y="110.598125"/>
      </g>
     </g>
     <g id="text_13">
      <!-- 0.6 -->
      <g transform="translate(22.15625 113.3575)scale(0.1 -0.1)">
       <use xlink:href="#BitstreamVeraSans-Roman-30"/>
       <use x="63.623046875" xlink:href="#BitstreamVeraSans-Roman-2e"/>
       <use x="95.41015625" xlink:href="#BitstreamVeraSans-Roman-36"/>
      </g>
     </g>
    </g>
    <g id="ytick_5">
     <g id="line2d_54">
      <g>
       <use style="stroke:#000000;stroke-width:0.5;" x="42.059375" xlink:href="#m259766e7c3" y="65.958125"/>
      </g>
     </g>
     <g id="line2d_55">
      <g>
       <use style="stroke:#000000;stroke-width:0.5;" x="376.859375" xlink:href="#m48801bd532" y="65.958125"/>
      </g>
     </g>
     <g id="text_14">
      <!-- 0.8 -->
      <g transform="translate(22.15625 68.7175)scale(0.1 -0.1)">
       <use xlink:href="#BitstreamVeraSans-Roman-30"/>
       <use x="63.623046875" xlink:href="#BitstreamVeraSans-Roman-2e"/>
       <use x="95.41015625" xlink:href="#BitstreamVeraSans-Roman-38"/>
      </g>
     </g>
    </g>
    <g id="ytick_6">
     <g id="line2d_56">
      <g>
       <use style="stroke:#000000;stroke-width:0.5;" x="42.059375" xlink:href="#m259766e7c3" y="21.318125"/>
      </g>
     </g>
     <g id="line2d_57">
      <g>
       <use style="stroke:#000000;stroke-width:0.5;" x="376.859375" xlink:href="#m48801bd532" y="21.318125"/>
      </g>
     </g>
     <g id="text_15">
      <!-- 1.0 -->
      <g transform="translate(22.15625 24.0775)scale(0.1 -0.1)">
       <use xlink:href="#BitstreamVeraSans-Roman-31"/>
       <use x="63.623046875" xlink:href="#BitstreamVeraSans-Roman-2e"/>
       <use x="95.41015625" xlink:href="#BitstreamVeraSans-Roman-30"/>
      </g>
     </g>
    </g>
    <g id="text_16">
     <!-- tau_1 (red), CDF (green) -->
     <defs>
      <path d="M 50.984375 -16.609375 
L 50.984375 -23.578125 
L -0.984375 -23.578125 
L -0.984375 -16.609375 
z
" id="BitstreamVeraSans-Roman-5f"/>
      <path d="M 8.015625 75.875 
L 15.828125 75.875 
Q 23.140625 64.359375 26.78125 53.3125 
Q 30.421875 42.28125 30.421875 31.390625 
Q 30.421875 20.453125 26.78125 9.375 
Q 23.140625 -1.703125 15.828125 -13.1875 
L 8.015625 -13.1875 
Q 14.5 -2 17.703125 9.0625 
Q 20.90625 20.125 20.90625 31.390625 
Q 20.90625 42.671875 17.703125 53.65625 
Q 14.5 64.65625 8.015625 75.875 
" id="BitstreamVeraSans-Roman-29"/>
      <path d="M 31 75.875 
Q 24.46875 64.65625 21.28125 53.65625 
Q 18.109375 42.671875 18.109375 31.390625 
Q 18.109375 20.125 21.3125 9.0625 
Q 24.515625 -2 31 -13.1875 
L 23.1875 -13.1875 
Q 15.875 -1.703125 12.234375 9.375 
Q 8.59375 20.453125 8.59375 31.390625 
Q 8.59375 42.28125 12.203125 53.3125 
Q 15.828125 64.359375 23.1875 75.875 
z
" id="BitstreamVeraSans-Roman-28"/>
      <path d="M 9.8125 72.90625 
L 51.703125 72.90625 
L 51.703125 64.59375 
L 19.671875 64.59375 
L 19.671875 43.109375 
L 48.578125 43.109375 
L 48.578125 34.8125 
L 19.671875 34.8125 
L 19.671875 0 
L 9.8125 0 
z
" id="BitstreamVeraSans-Roman-46"/>
      <path d="M 11.71875 12.40625 
L 22.015625 12.40625 
L 22.015625 4 
L 14.015625 -11.625 
L 7.71875 -11.625 
L 11.71875 4 
z
" id="BitstreamVeraSans-Roman-2c"/>
      <path d="M 19.671875 64.796875 
L 19.671875 8.109375 
L 31.59375 8.109375 
Q 46.6875 8.109375 53.6875 14.9375 
Q 60.6875 21.78125 60.6875 36.53125 
Q 60.6875 51.171875 53.6875 57.984375 
Q 46.6875 64.796875 31.59375 64.796875 
z
M 9.8125 72.90625 
L 30.078125 72.90625 
Q 51.265625 72.90625 61.171875 64.09375 
Q 71.09375 55.28125 71.09375 36.53125 
Q 71.09375 17.671875 61.125 8.828125 
Q 51.171875 0 30.078125 0 
L 9.8125 0 
z
" id="BitstreamVeraSans-Roman-44"/>
      <path d="M 64.40625 67.28125 
L 64.40625 56.890625 
Q 59.421875 61.53125 53.78125 63.8125 
Q 48.140625 66.109375 41.796875 66.109375 
Q 29.296875 66.109375 22.65625 58.46875 
Q 16.015625 50.828125 16.015625 36.375 
Q 16.015625 21.96875 22.65625 14.328125 
Q 29.296875 6.6875 41.796875 6.6875 
Q 48.140625 6.6875 53.78125 8.984375 
Q 59.421875 11.28125 64.40625 15.921875 
L 64.40625 5.609375 
Q 59.234375 2.09375 53.4375 0.328125 
Q 47.65625 -1.421875 41.21875 -1.421875 
Q 24.65625 -1.421875 15.125 8.703125 
Q 5.609375 18.84375 5.609375 36.375 
Q 5.609375 53.953125 15.125 64.078125 
Q 24.65625 74.21875 41.21875 74.21875 
Q 47.75 74.21875 53.53125 72.484375 
Q 59.328125 70.75 64.40625 67.28125 
" id="BitstreamVeraSans-Roman-43"/>
      <path d="M 56.203125 29.59375 
L 56.203125 25.203125 
L 14.890625 25.203125 
Q 15.484375 15.921875 20.484375 11.0625 
Q 25.484375 6.203125 34.421875 6.203125 
Q 39.59375 6.203125 44.453125 7.46875 
Q 49.3125 8.734375 54.109375 11.28125 
L 54.109375 2.78125 
Q 49.265625 0.734375 44.1875 -0.34375 
Q 39.109375 -1.421875 33.890625 -1.421875 
Q 20.796875 -1.421875 13.15625 6.1875 
Q 5.515625 13.8125 5.515625 26.8125 
Q 5.515625 40.234375 12.765625 48.109375 
Q 20.015625 56 32.328125 56 
Q 43.359375 56 49.78125 48.890625 
Q 56.203125 41.796875 56.203125 29.59375 
M 47.21875 32.234375 
Q 47.125 39.59375 43.09375 43.984375 
Q 39.0625 48.390625 32.421875 48.390625 
Q 24.90625 48.390625 20.390625 44.140625 
Q 15.875 39.890625 15.1875 32.171875 
z
" id="BitstreamVeraSans-Roman-65"/>
      <path d="M 45.40625 46.390625 
L 45.40625 75.984375 
L 54.390625 75.984375 
L 54.390625 0 
L 45.40625 0 
L 45.40625 8.203125 
Q 42.578125 3.328125 38.25 0.953125 
Q 33.9375 -1.421875 27.875 -1.421875 
Q 17.96875 -1.421875 11.734375 6.484375 
Q 5.515625 14.40625 5.515625 27.296875 
Q 5.515625 40.1875 11.734375 48.09375 
Q 17.96875 56 27.875 56 
Q 33.9375 56 38.25 53.625 
Q 42.578125 51.265625 45.40625 46.390625 
M 14.796875 27.296875 
Q 14.796875 17.390625 18.875 11.75 
Q 22.953125 6.109375 30.078125 6.109375 
Q 37.203125 6.109375 41.296875 11.75 
Q 45.40625 17.390625 45.40625 27.296875 
Q 45.40625 37.203125 41.296875 42.84375 
Q 37.203125 48.484375 30.078125 48.484375 
Q 22.953125 48.484375 18.875 42.84375 
Q 14.796875 37.203125 14.796875 27.296875 
" id="BitstreamVeraSans-Roman-64"/>
      <path d="M 34.28125 27.484375 
Q 23.390625 27.484375 19.1875 25 
Q 14.984375 22.515625 14.984375 16.5 
Q 14.984375 11.71875 18.140625 8.90625 
Q 21.296875 6.109375 26.703125 6.109375 
Q 34.1875 6.109375 38.703125 11.40625 
Q 43.21875 16.703125 43.21875 25.484375 
L 43.21875 27.484375 
z
M 52.203125 31.203125 
L 52.203125 0 
L 43.21875 0 
L 43.21875 8.296875 
Q 40.140625 3.328125 35.546875 0.953125 
Q 30.953125 -1.421875 24.3125 -1.421875 
Q 15.921875 -1.421875 10.953125 3.296875 
Q 6 8.015625 6 15.921875 
Q 6 25.140625 12.171875 29.828125 
Q 18.359375 34.515625 30.609375 34.515625 
L 43.21875 34.515625 
L 43.21875 35.40625 
Q 43.21875 41.609375 39.140625 45 
Q 35.0625 48.390625 27.6875 48.390625 
Q 23 48.390625 18.546875 47.265625 
Q 14.109375 46.140625 10.015625 43.890625 
L 10.015625 52.203125 
Q 14.9375 54.109375 19.578125 55.046875 
Q 24.21875 56 28.609375 56 
Q 40.484375 56 46.34375 49.84375 
Q 52.203125 43.703125 52.203125 31.203125 
" id="BitstreamVeraSans-Roman-61"/>
      <path d="M 8.5 21.578125 
L 8.5 54.6875 
L 17.484375 54.6875 
L 17.484375 21.921875 
Q 17.484375 14.15625 20.5 10.265625 
Q 23.53125 6.390625 29.59375 6.390625 
Q 36.859375 6.390625 41.078125 11.03125 
Q 45.3125 15.671875 45.3125 23.6875 
L 45.3125 54.6875 
L 54.296875 54.6875 
L 54.296875 0 
L 45.3125 0 
L 45.3125 8.40625 
Q 42.046875 3.421875 37.71875 1 
Q 33.40625 -1.421875 27.6875 -1.421875 
Q 18.265625 -1.421875 13.375 4.4375 
Q 8.5 10.296875 8.5 21.578125 
" id="BitstreamVeraSans-Roman-75"/>
      <path d="M 41.109375 46.296875 
Q 39.59375 47.171875 37.8125 47.578125 
Q 36.03125 48 33.890625 48 
Q 26.265625 48 22.1875 43.046875 
Q 18.109375 38.09375 18.109375 28.8125 
L 18.109375 0 
L 9.078125 0 
L 9.078125 54.6875 
L 18.109375 54.6875 
L 18.109375 46.1875 
Q 20.953125 51.171875 25.484375 53.578125 
Q 30.03125 56 36.53125 56 
Q 37.453125 56 38.578125 55.875 
Q 39.703125 55.765625 41.0625 55.515625 
z
" id="BitstreamVeraSans-Roman-72"/>
     </defs>
     <g transform="translate(14.7984375 194.02359375)rotate(-90.0)scale(0.1 -0.1)">
      <use xlink:href="#BitstreamVeraSans-Roman-74"/>
      <use x="39.208984375" xlink:href="#BitstreamVeraSans-Roman-61"/>
      <use x="100.48828125" xlink:href="#BitstreamVeraSans-Roman-75"/>
      <use x="163.8671875" xlink:href="#BitstreamVeraSans-Roman-5f"/>
      <use x="213.8671875" xlink:href="#BitstreamVeraSans-Roman-31"/>
      <use x="277.490234375" xlink:href="#BitstreamVeraSans-Roman-20"/>
      <use x="309.27734375" xlink:href="#BitstreamVeraSans-Roman-28"/>
      <use x="348.291015625" xlink:href="#BitstreamVeraSans-Roman-72"/>
      <use x="389.373046875" xlink:href="#BitstreamVeraSans-Roman-65"/>
      <use x="450.896484375" xlink:href="#BitstreamVeraSans-Roman-64"/>
      <use x="514.373046875" xlink:href="#BitstreamVeraSans-Roman-29"/>
      <use x="553.38671875" xlink:href="#BitstreamVeraSans-Roman-2c"/>
      <use x="585.173828125" xlink:href="#BitstreamVeraSans-Roman-20"/>
      <use x="616.9609375" xlink:href="#BitstreamVeraSans-Roman-43"/>
      <use x="686.78515625" xlink:href="#BitstreamVeraSans-Roman-44"/>
      <use x="763.787109375" xlink:href="#BitstreamVeraSans-Roman-46"/>
      <use x="821.306640625" xlink:href="#BitstreamVeraSans-Roman-20"/>
      <use x="853.09375" xlink:href="#BitstreamVeraSans-Roman-28"/>
      <use x="892.107421875" xlink:href="#BitstreamVeraSans-Roman-67"/>
      <use x="955.583984375" xlink:href="#BitstreamVeraSans-Roman-72"/>
      <use x="996.666015625" xlink:href="#BitstreamVeraSans-Roman-65"/>
      <use x="1058.18945312" xlink:href="#BitstreamVeraSans-Roman-65"/>
      <use x="1119.71289062" xlink:href="#BitstreamVeraSans-Roman-6e"/>
      <use x="1183.09179688" xlink:href="#BitstreamVeraSans-Roman-29"/>
     </g>
    </g>
   </g>
   <g id="text_17">
    <!-- 7 - 95 percent unfolding -->
    <defs>
     <path d="M 30.609375 48.390625 
Q 23.390625 48.390625 19.1875 42.75 
Q 14.984375 37.109375 14.984375 27.296875 
Q 14.984375 17.484375 19.15625 11.84375 
Q 23.34375 6.203125 30.609375 6.203125 
Q 37.796875 6.203125 41.984375 11.859375 
Q 46.1875 17.53125 46.1875 27.296875 
Q 46.1875 37.015625 41.984375 42.703125 
Q 37.796875 48.390625 30.609375 48.390625 
M 30.609375 56 
Q 42.328125 56 49.015625 48.375 
Q 55.71875 40.765625 55.71875 27.296875 
Q 55.71875 13.875 49.015625 6.21875 
Q 42.328125 -1.421875 30.609375 -1.421875 
Q 18.84375 -1.421875 12.171875 6.21875 
Q 5.515625 13.875 5.515625 27.296875 
Q 5.515625 40.765625 12.171875 48.375 
Q 18.84375 56 30.609375 56 
" id="BitstreamVeraSans-Roman-6f"/>
     <path d="M 8.203125 72.90625 
L 55.078125 72.90625 
L 55.078125 68.703125 
L 28.609375 0 
L 18.3125 0 
L 43.21875 64.59375 
L 8.203125 64.59375 
z
" id="BitstreamVeraSans-Roman-37"/>
     <path d="M 10.796875 72.90625 
L 49.515625 72.90625 
L 49.515625 64.59375 
L 19.828125 64.59375 
L 19.828125 46.734375 
Q 21.96875 47.46875 24.109375 47.828125 
Q 26.265625 48.1875 28.421875 48.1875 
Q 40.625 48.1875 47.75 41.5 
Q 54.890625 34.8125 54.890625 23.390625 
Q 54.890625 11.625 47.5625 5.09375 
Q 40.234375 -1.421875 26.90625 -1.421875 
Q 22.3125 -1.421875 17.546875 -0.640625 
Q 12.796875 0.140625 7.71875 1.703125 
L 7.71875 11.625 
Q 12.109375 9.234375 16.796875 8.0625 
Q 21.484375 6.890625 26.703125 6.890625 
Q 35.15625 6.890625 40.078125 11.328125 
Q 45.015625 15.765625 45.015625 23.390625 
Q 45.015625 31 40.078125 35.4375 
Q 35.15625 39.890625 26.703125 39.890625 
Q 22.75 39.890625 18.8125 39.015625 
Q 14.890625 38.140625 10.796875 36.28125 
z
" id="BitstreamVeraSans-Roman-35"/>
     <path d="M 10.984375 1.515625 
L 10.984375 10.5 
Q 14.703125 8.734375 18.5 7.8125 
Q 22.3125 6.890625 25.984375 6.890625 
Q 35.75 6.890625 40.890625 13.453125 
Q 46.046875 20.015625 46.78125 33.40625 
Q 43.953125 29.203125 39.59375 26.953125 
Q 35.25 24.703125 29.984375 24.703125 
Q 19.046875 24.703125 12.671875 31.3125 
Q 6.296875 37.9375 6.296875 49.421875 
Q 6.296875 60.640625 12.9375 67.421875 
Q 19.578125 74.21875 30.609375 74.21875 
Q 43.265625 74.21875 49.921875 64.515625 
Q 56.59375 54.828125 56.59375 36.375 
Q 56.59375 19.140625 48.40625 8.859375 
Q 40.234375 -1.421875 26.421875 -1.421875 
Q 22.703125 -1.421875 18.890625 -0.6875 
Q 15.09375 0.046875 10.984375 1.515625 
M 30.609375 32.421875 
Q 37.25 32.421875 41.125 36.953125 
Q 45.015625 41.5 45.015625 49.421875 
Q 45.015625 57.28125 41.125 61.84375 
Q 37.25 66.40625 30.609375 66.40625 
Q 23.96875 66.40625 20.09375 61.84375 
Q 16.21875 57.28125 16.21875 49.421875 
Q 16.21875 41.5 20.09375 36.953125 
Q 23.96875 32.421875 30.609375 32.421875 
" id="BitstreamVeraSans-Roman-39"/>
     <path d="M 18.109375 8.203125 
L 18.109375 -20.796875 
L 9.078125 -20.796875 
L 9.078125 54.6875 
L 18.109375 54.6875 
L 18.109375 46.390625 
Q 20.953125 51.265625 25.265625 53.625 
Q 29.59375 56 35.59375 56 
Q 45.5625 56 51.78125 48.09375 
Q 58.015625 40.1875 58.015625 27.296875 
Q 58.015625 14.40625 51.78125 6.484375 
Q 45.5625 -1.421875 35.59375 -1.421875 
Q 29.59375 -1.421875 25.265625 0.953125 
Q 20.953125 3.328125 18.109375 8.203125 
M 48.6875 27.296875 
Q 48.6875 37.203125 44.609375 42.84375 
Q 40.53125 48.484375 33.40625 48.484375 
Q 26.265625 48.484375 22.1875 42.84375 
Q 18.109375 37.203125 18.109375 27.296875 
Q 18.109375 17.390625 22.1875 11.75 
Q 26.265625 6.109375 33.40625 6.109375 
Q 40.53125 6.109375 44.609375 11.75 
Q 48.6875 17.390625 48.6875 27.296875 
" id="BitstreamVeraSans-Roman-70"/>
     <path d="M 37.109375 75.984375 
L 37.109375 68.5 
L 28.515625 68.5 
Q 23.6875 68.5 21.796875 66.546875 
Q 19.921875 64.59375 19.921875 59.515625 
L 19.921875 54.6875 
L 34.71875 54.6875 
L 34.71875 47.703125 
L 19.921875 47.703125 
L 19.921875 0 
L 10.890625 0 
L 10.890625 47.703125 
L 2.296875 47.703125 
L 2.296875 54.6875 
L 10.890625 54.6875 
L 10.890625 58.5 
Q 10.890625 67.625 15.140625 71.796875 
Q 19.390625 75.984375 28.609375 75.984375 
z
" id="BitstreamVeraSans-Roman-66"/>
     <path d="M 48.78125 52.59375 
L 48.78125 44.1875 
Q 44.96875 46.296875 41.140625 47.34375 
Q 37.3125 48.390625 33.40625 48.390625 
Q 24.65625 48.390625 19.8125 42.84375 
Q 14.984375 37.3125 14.984375 27.296875 
Q 14.984375 17.28125 19.8125 11.734375 
Q 24.65625 6.203125 33.40625 6.203125 
Q 37.3125 6.203125 41.140625 7.25 
Q 44.96875 8.296875 48.78125 10.40625 
L 48.78125 2.09375 
Q 45.015625 0.34375 40.984375 -0.53125 
Q 36.96875 -1.421875 32.421875 -1.421875 
Q 20.0625 -1.421875 12.78125 6.34375 
Q 5.515625 14.109375 5.515625 27.296875 
Q 5.515625 40.671875 12.859375 48.328125 
Q 20.21875 56 33.015625 56 
Q 37.15625 56 41.109375 55.140625 
Q 45.0625 54.296875 48.78125 52.59375 
" id="BitstreamVeraSans-Roman-63"/>
     <path d="M 4.890625 31.390625 
L 31.203125 31.390625 
L 31.203125 23.390625 
L 4.890625 23.390625 
z
" id="BitstreamVeraSans-Roman-2d"/>
    </defs>
    <g transform="translate(136.960625 16.318125)scale(0.12 -0.12)">
     <use xlink:href="#BitstreamVeraSans-Roman-37"/>
     <use x="63.623046875" xlink:href="#BitstreamVeraSans-Roman-20"/>
     <use x="95.41015625" xlink:href="#BitstreamVeraSans-Roman-2d"/>
     <use x="131.494140625" xlink:href="#BitstreamVeraSans-Roman-20"/>
     <use x="163.28125" xlink:href="#BitstreamVeraSans-Roman-39"/>
     <use x="226.904296875" xlink:href="#BitstreamVeraSans-Roman-35"/>
     <use x="290.52734375" xlink:href="#BitstreamVeraSans-Roman-20"/>
     <use x="322.314453125" xlink:href="#BitstreamVeraSans-Roman-70"/>
     <use x="385.791015625" xlink:href="#BitstreamVeraSans-Roman-65"/>
     <use x="447.314453125" xlink:href="#BitstreamVeraSans-Roman-72"/>
     <use x="488.396484375" xlink:href="#BitstreamVeraSans-Roman-63"/>
     <use x="543.376953125" xlink:href="#BitstreamVeraSans-Roman-65"/>
     <use x="604.900390625" xlink:href="#BitstreamVeraSans-Roman-6e"/>
     <use x="668.279296875" xlink:href="#BitstreamVeraSans-Roman-74"/>
     <use x="707.48828125" xlink:href="#BitstreamVeraSans-Roman-20"/>
     <use x="739.275390625" xlink:href="#BitstreamVeraSans-Roman-75"/>
     <use x="802.654296875" xlink:href="#BitstreamVeraSans-Roman-6e"/>
     <use x="866.033203125" xlink:href="#BitstreamVeraSans-Roman-66"/>
     <use x="901.23828125" xlink:href="#BitstreamVeraSans-Roman-6f"/>
     <use x="962.419921875" xlink:href="#BitstreamVeraSans-Roman-6c"/>
     <use x="990.203125" xlink:href="#BitstreamVeraSans-Roman-64"/>
     <use x="1053.6796875" xlink:href="#BitstreamVeraSans-Roman-69"/>
     <use x="1081.46289062" xlink:href="#BitstreamVeraSans-Roman-6e"/>
     <use x="1144.84179688" xlink:href="#BitstreamVeraSans-Roman-67"/>
    </g>
   </g>
  </g>
 </g>
 <defs>
  <clipPath id="p2e6f062682">
   <rect height="223.2" width="334.8" x="42.059375" y="21.318125"/>
  </clipPath>
 </defs>
</svg>
