<?xml version="1.0" encoding="utf-8" standalone="no"?>
<!DOCTYPE svg PUBLIC "-//W3C//DTD SVG 1.1//EN"
  "http://www.w3.org/Graphics/SVG/1.1/DTD/svg11.dtd">
<!-- Created with matplotlib (http://matplotlib.org/) -->
<svg height="335pt" version="1.1" viewBox="0 0 337 335" width="337pt" xmlns="http://www.w3.org/2000/svg" xmlns:xlink="http://www.w3.org/1999/xlink">
 <defs>
  <style type="text/css">
*{stroke-linecap:butt;stroke-linejoin:round;stroke-miterlimit:100000;}
  </style>
 </defs>
 <g id="figure_1">
  <g id="patch_1">
   <path d="M 0 335.874375 
L 337.525 335.874375 
L 337.525 0 
L 0 0 
L 0 335.874375 
z
" style="fill:none;"/>
  </g>
  <g id="axes_1">
   <g id="patch_2">
    <path d="M 41.78125 300.318125 
L 320.78125 300.318125 
L 320.78125 21.318125 
L 41.78125 21.318125 
z
" style="fill:#ffffff;"/>
   </g>
   <g id="line2d_1">
    <path clip-path="url(#pcd48982328)" d="M 81.638393 21.318125 
L 121.495536 22.695199 
L 161.352679 28.156011 
L 201.209821 40.620908 
L 221.138393 49.310721 
L 231.102679 51.756215 
L 241.066964 58.926499 
L 251.03125 67.307658 
L 260.995536 78.965304 
L 264.98125 90.338038 
L 268.966964 97.57955 
L 270.959821 105.058488 
L 272.952679 112.347484 
L 278.93125 127.732728 
L 284.909821 165.5073 
L 290.888393 196.349016 
L 296.866964 222.473065 
L 302.845536 242.148608 
L 306.83125 255.672427 
L 310.816964 265.862777 
L 312.809821 268.134949 
" style="fill:none;stroke:#0000ff;stroke-linecap:square;"/>
   </g>
   <g id="line2d_2">
    <defs>
     <path d="M 0 3 
C 0.795609 3 1.55874 2.683901 2.12132 2.12132 
C 2.683901 1.55874 3 0.795609 3 0 
C 3 -0.795609 2.683901 -1.55874 2.12132 -2.12132 
C 1.55874 -2.683901 0.795609 -3 0 -3 
C -0.795609 -3 -1.55874 -2.683901 -2.12132 -2.12132 
C -2.683901 -1.55874 -3 -0.795609 -3 0 
C -3 0.795609 -2.683901 1.55874 -2.12132 2.12132 
C -1.55874 2.683901 -0.795609 3 0 3 
z
" id="mca43d11f4e" style="stroke:#000000;stroke-width:0.5;"/>
    </defs>
    <g clip-path="url(#pcd48982328)">
     <use style="fill:#ff0000;stroke:#000000;stroke-width:0.5;" x="81.6383928571" xlink:href="#mca43d11f4e" y="21.318125"/>
     <use style="fill:#ff0000;stroke:#000000;stroke-width:0.5;" x="121.495535714" xlink:href="#mca43d11f4e" y="22.6951992915"/>
     <use style="fill:#ff0000;stroke:#000000;stroke-width:0.5;" x="161.352678571" xlink:href="#mca43d11f4e" y="28.1560111373"/>
     <use style="fill:#ff0000;stroke:#000000;stroke-width:0.5;" x="201.209821429" xlink:href="#mca43d11f4e" y="40.6209077419"/>
     <use style="fill:#ff0000;stroke:#000000;stroke-width:0.5;" x="221.138392857" xlink:href="#mca43d11f4e" y="49.3107213748"/>
     <use style="fill:#ff0000;stroke:#000000;stroke-width:0.5;" x="231.102678571" xlink:href="#mca43d11f4e" y="51.7562153753"/>
     <use style="fill:#ff0000;stroke:#000000;stroke-width:0.5;" x="241.066964286" xlink:href="#mca43d11f4e" y="58.9264987554"/>
     <use style="fill:#ff0000;stroke:#000000;stroke-width:0.5;" x="251.03125" xlink:href="#mca43d11f4e" y="67.3076578057"/>
     <use style="fill:#ff0000;stroke:#000000;stroke-width:0.5;" x="260.995535714" xlink:href="#mca43d11f4e" y="78.9653039635"/>
     <use style="fill:#ff0000;stroke:#000000;stroke-width:0.5;" x="264.98125" xlink:href="#mca43d11f4e" y="90.3380381989"/>
     <use style="fill:#ff0000;stroke:#000000;stroke-width:0.5;" x="268.966964286" xlink:href="#mca43d11f4e" y="97.5795495596"/>
     <use style="fill:#ff0000;stroke:#000000;stroke-width:0.5;" x="270.959821429" xlink:href="#mca43d11f4e" y="105.058487522"/>
     <use style="fill:#ff0000;stroke:#000000;stroke-width:0.5;" x="272.952678571" xlink:href="#mca43d11f4e" y="112.347484203"/>
     <use style="fill:#ff0000;stroke:#000000;stroke-width:0.5;" x="278.93125" xlink:href="#mca43d11f4e" y="127.732728013"/>
     <use style="fill:#ff0000;stroke:#000000;stroke-width:0.5;" x="284.909821429" xlink:href="#mca43d11f4e" y="165.507300389"/>
     <use style="fill:#ff0000;stroke:#000000;stroke-width:0.5;" x="290.888392857" xlink:href="#mca43d11f4e" y="196.349015988"/>
     <use style="fill:#ff0000;stroke:#000000;stroke-width:0.5;" x="296.866964286" xlink:href="#mca43d11f4e" y="222.473065005"/>
     <use style="fill:#ff0000;stroke:#000000;stroke-width:0.5;" x="302.845535714" xlink:href="#mca43d11f4e" y="242.148607512"/>
     <use style="fill:#ff0000;stroke:#000000;stroke-width:0.5;" x="306.83125" xlink:href="#mca43d11f4e" y="255.672426762"/>
     <use style="fill:#ff0000;stroke:#000000;stroke-width:0.5;" x="310.816964286" xlink:href="#mca43d11f4e" y="265.862776519"/>
     <use style="fill:#ff0000;stroke:#000000;stroke-width:0.5;" x="312.809821429" xlink:href="#mca43d11f4e" y="268.1349491"/>
    </g>
   </g>
   <g id="line2d_3">
    <path clip-path="url(#pcd48982328)" d="M 81.638393 298.941051 
L 121.495536 298.941051 
L 121.495536 294.857313 
L 161.352679 294.857313 
L 161.352679 287.853228 
L 201.209821 287.853228 
L 201.209821 291.628311 
L 221.138393 291.628311 
L 221.138393 297.872631 
L 231.102679 297.872631 
L 231.102679 293.147842 
L 241.066964 293.147842 
L 241.066964 291.936966 
L 251.03125 291.936966 
L 251.03125 288.660479 
L 260.995536 288.660479 
L 260.995536 288.945391 
L 264.98125 288.945391 
L 264.98125 293.076614 
L 268.966964 293.076614 
L 268.966964 292.839187 
L 270.959821 292.839187 
L 270.959821 293.029128 
L 272.952679 293.029128 
L 272.952679 284.932881 
L 278.93125 284.932881 
L 278.93125 262.543553 
L 284.909821 262.543553 
L 284.909821 269.476409 
L 290.888393 269.476409 
L 290.888393 274.194076 
L 296.866964 274.194076 
L 296.866964 280.642582 
L 302.845536 280.642582 
L 302.845536 286.794306 
L 306.83125 286.794306 
L 306.83125 290.127775 
L 310.816964 290.127775 
L 310.816964 298.045952 
L 312.809821 298.045952 
L 312.809821 298.045952 
L 312.809821 300.318125 
" style="fill:none;stroke:#008000;stroke-linecap:square;"/>
   </g>
   <g id="line2d_4">
    <path clip-path="url(#pcd48982328)" d="M 41.78125 300.318125 
L 41.78125 21.318125 
" style="fill:none;stroke:#000000;stroke-linecap:square;"/>
   </g>
   <g id="line2d_5">
    <path clip-path="url(#pcd48982328)" d="M 41.78125 300.318125 
L 320.78125 300.318125 
" style="fill:none;stroke:#000000;stroke-linecap:square;"/>
   </g>
   <g id="line2d_6">
    <path clip-path="url(#pcd48982328)" d="M 81.638393 21.318125 
L 121.495536 30.418347 
L 161.352679 45.291489 
L 201.209821 94.056923 
L 221.138393 140.384086 
L 231.102679 153.247202 
L 241.066964 161.378623 
L 251.03125 167.536755 
L 260.995536 175.35119 
L 264.98125 184.602557 
L 268.966964 188.016978 
L 270.959821 192.277393 
L 272.952679 196.355174 
L 278.93125 213.137579 
L 284.909821 251.163176 
L 290.888393 287.949905 
L 296.866964 290.794695 
L 302.845536 291.978144 
L 306.83125 293.154665 
L 310.816964 293.911747 
L 312.809821 294.451862 
" style="fill:none;stroke:#008000;stroke-linecap:square;"/>
   </g>
   <g id="line2d_7">
    <g clip-path="url(#pcd48982328)">
     <use style="fill:#ff0000;stroke:#000000;stroke-width:0.5;" x="81.6383928571" xlink:href="#mca43d11f4e" y="21.318125"/>
     <use style="fill:#ff0000;stroke:#000000;stroke-width:0.5;" x="121.495535714" xlink:href="#mca43d11f4e" y="30.4183469631"/>
     <use style="fill:#ff0000;stroke:#000000;stroke-width:0.5;" x="161.352678571" xlink:href="#mca43d11f4e" y="45.2914894332"/>
     <use style="fill:#ff0000;stroke:#000000;stroke-width:0.5;" x="201.209821429" xlink:href="#mca43d11f4e" y="94.0569233898"/>
     <use style="fill:#ff0000;stroke:#000000;stroke-width:0.5;" x="221.138392857" xlink:href="#mca43d11f4e" y="140.384085649"/>
     <use style="fill:#ff0000;stroke:#000000;stroke-width:0.5;" x="231.102678571" xlink:href="#mca43d11f4e" y="153.24720216"/>
     <use style="fill:#ff0000;stroke:#000000;stroke-width:0.5;" x="241.066964286" xlink:href="#mca43d11f4e" y="161.3786231"/>
     <use style="fill:#ff0000;stroke:#000000;stroke-width:0.5;" x="251.03125" xlink:href="#mca43d11f4e" y="167.536754848"/>
     <use style="fill:#ff0000;stroke:#000000;stroke-width:0.5;" x="260.995535714" xlink:href="#mca43d11f4e" y="175.351189971"/>
     <use style="fill:#ff0000;stroke:#000000;stroke-width:0.5;" x="264.98125" xlink:href="#mca43d11f4e" y="184.602557489"/>
     <use style="fill:#ff0000;stroke:#000000;stroke-width:0.5;" x="268.966964286" xlink:href="#mca43d11f4e" y="188.016977564"/>
     <use style="fill:#ff0000;stroke:#000000;stroke-width:0.5;" x="270.959821429" xlink:href="#mca43d11f4e" y="192.277392898"/>
     <use style="fill:#ff0000;stroke:#000000;stroke-width:0.5;" x="272.952678571" xlink:href="#mca43d11f4e" y="196.35517402"/>
     <use style="fill:#ff0000;stroke:#000000;stroke-width:0.5;" x="278.93125" xlink:href="#mca43d11f4e" y="213.137578745"/>
     <use style="fill:#ff0000;stroke:#000000;stroke-width:0.5;" x="284.909821429" xlink:href="#mca43d11f4e" y="251.163176352"/>
     <use style="fill:#ff0000;stroke:#000000;stroke-width:0.5;" x="290.888392857" xlink:href="#mca43d11f4e" y="287.949905219"/>
     <use style="fill:#ff0000;stroke:#000000;stroke-width:0.5;" x="296.866964286" xlink:href="#mca43d11f4e" y="290.794695483"/>
     <use style="fill:#ff0000;stroke:#000000;stroke-width:0.5;" x="302.845535714" xlink:href="#mca43d11f4e" y="291.978144187"/>
     <use style="fill:#ff0000;stroke:#000000;stroke-width:0.5;" x="306.83125" xlink:href="#mca43d11f4e" y="293.154665386"/>
     <use style="fill:#ff0000;stroke:#000000;stroke-width:0.5;" x="310.816964286" xlink:href="#mca43d11f4e" y="293.911747174"/>
     <use style="fill:#ff0000;stroke:#000000;stroke-width:0.5;" x="312.809821429" xlink:href="#mca43d11f4e" y="294.451861616"/>
    </g>
   </g>
   <g id="line2d_8">
    <path clip-path="url(#pcd48982328)" d="M 81.638393 291.217903 
L 121.495536 291.217903 
L 121.495536 285.444983 
L 161.352679 285.444983 
L 161.352679 251.552691 
L 201.209821 251.552691 
L 201.209821 253.990963 
L 221.138393 253.990963 
L 221.138393 287.455008 
L 231.102679 287.455008 
L 231.102679 292.186704 
L 241.066964 292.186704 
L 241.066964 294.159993 
L 251.03125 294.159993 
L 251.03125 292.50369 
L 260.995536 292.50369 
L 260.995536 291.066757 
L 264.98125 291.066757 
L 264.98125 296.903705 
L 268.966964 296.903705 
L 268.966964 296.05771 
L 270.959821 296.05771 
L 270.959821 296.240344 
L 272.952679 296.240344 
L 272.952679 283.53572 
L 278.93125 283.53572 
L 278.93125 262.292527 
L 284.909821 262.292527 
L 284.909821 263.531396 
L 290.888393 263.531396 
L 290.888393 297.473335 
L 296.866964 297.473335 
L 296.866964 299.134676 
L 302.845536 299.134676 
L 302.845536 299.141604 
L 306.83125 299.141604 
L 306.83125 299.561043 
L 310.816964 299.561043 
L 310.816964 299.778011 
L 312.809821 299.778011 
L 312.809821 299.778011 
L 312.809821 300.318125 
" style="fill:none;stroke:#008000;stroke-linecap:square;"/>
   </g>
   <g id="line2d_9">
    <path clip-path="url(#pcd48982328)" d="M 41.78125 300.318125 
L 41.78125 21.318125 
" style="fill:none;stroke:#000000;stroke-linecap:square;"/>
   </g>
   <g id="line2d_10">
    <path clip-path="url(#pcd48982328)" d="M 41.78125 300.318125 
L 320.78125 300.318125 
" style="fill:none;stroke:#000000;stroke-linecap:square;"/>
   </g>
   <g id="line2d_11">
    <path clip-path="url(#pcd48982328)" d="M 81.638393 21.318125 
L 121.495536 32.930131 
L 161.352679 151.813514 
L 201.209821 233.487369 
L 221.138393 241.933252 
L 231.102679 247.195686 
L 241.066964 253.086148 
L 251.03125 258.617119 
L 260.995536 265.871916 
L 264.98125 269.124664 
L 268.966964 271.95555 
L 270.959821 272.949999 
L 272.952679 274.699813 
L 278.93125 277.949962 
L 284.909821 282.7273 
L 290.888393 287.779237 
L 296.866964 290.694583 
L 302.845536 292.4366 
L 306.83125 294.594415 
L 310.816964 296.743697 
L 312.809821 298.158924 
" style="fill:none;stroke:#ff0000;stroke-linecap:square;"/>
   </g>
   <g id="line2d_12">
    <g clip-path="url(#pcd48982328)">
     <use style="fill:#ff0000;stroke:#000000;stroke-width:0.5;" x="81.6383928571" xlink:href="#mca43d11f4e" y="21.318125"/>
     <use style="fill:#ff0000;stroke:#000000;stroke-width:0.5;" x="121.495535714" xlink:href="#mca43d11f4e" y="32.9301313338"/>
     <use style="fill:#ff0000;stroke:#000000;stroke-width:0.5;" x="161.352678571" xlink:href="#mca43d11f4e" y="151.813514344"/>
     <use style="fill:#ff0000;stroke:#000000;stroke-width:0.5;" x="201.209821429" xlink:href="#mca43d11f4e" y="233.487368666"/>
     <use style="fill:#ff0000;stroke:#000000;stroke-width:0.5;" x="221.138392857" xlink:href="#mca43d11f4e" y="241.933251677"/>
     <use style="fill:#ff0000;stroke:#000000;stroke-width:0.5;" x="231.102678571" xlink:href="#mca43d11f4e" y="247.195686475"/>
     <use style="fill:#ff0000;stroke:#000000;stroke-width:0.5;" x="241.066964286" xlink:href="#mca43d11f4e" y="253.086148472"/>
     <use style="fill:#ff0000;stroke:#000000;stroke-width:0.5;" x="251.03125" xlink:href="#mca43d11f4e" y="258.617119039"/>
     <use style="fill:#ff0000;stroke:#000000;stroke-width:0.5;" x="260.995535714" xlink:href="#mca43d11f4e" y="265.871915984"/>
     <use style="fill:#ff0000;stroke:#000000;stroke-width:0.5;" x="264.98125" xlink:href="#mca43d11f4e" y="269.124663748"/>
     <use style="fill:#ff0000;stroke:#000000;stroke-width:0.5;" x="268.966964286" xlink:href="#mca43d11f4e" y="271.955550484"/>
     <use style="fill:#ff0000;stroke:#000000;stroke-width:0.5;" x="270.959821429" xlink:href="#mca43d11f4e" y="272.949999069"/>
     <use style="fill:#ff0000;stroke:#000000;stroke-width:0.5;" x="272.952678571" xlink:href="#mca43d11f4e" y="274.699812779"/>
     <use style="fill:#ff0000;stroke:#000000;stroke-width:0.5;" x="278.93125" xlink:href="#mca43d11f4e" y="277.949961811"/>
     <use style="fill:#ff0000;stroke:#000000;stroke-width:0.5;" x="284.909821429" xlink:href="#mca43d11f4e" y="282.727299739"/>
     <use style="fill:#ff0000;stroke:#000000;stroke-width:0.5;" x="290.888392857" xlink:href="#mca43d11f4e" y="287.779237146"/>
     <use style="fill:#ff0000;stroke:#000000;stroke-width:0.5;" x="296.866964286" xlink:href="#mca43d11f4e" y="290.694582712"/>
     <use style="fill:#ff0000;stroke:#000000;stroke-width:0.5;" x="302.845535714" xlink:href="#mca43d11f4e" y="292.436600224"/>
     <use style="fill:#ff0000;stroke:#000000;stroke-width:0.5;" x="306.83125" xlink:href="#mca43d11f4e" y="294.594415052"/>
     <use style="fill:#ff0000;stroke:#000000;stroke-width:0.5;" x="310.816964286" xlink:href="#mca43d11f4e" y="296.743697373"/>
     <use style="fill:#ff0000;stroke:#000000;stroke-width:0.5;" x="312.809821429" xlink:href="#mca43d11f4e" y="298.15892418"/>
    </g>
   </g>
   <g id="line2d_13">
    <path clip-path="url(#pcd48982328)" d="M 81.638393 288.706119 
L 121.495536 288.706119 
L 121.495536 181.434742 
L 161.352679 181.434742 
L 161.352679 218.644271 
L 201.209821 218.644271 
L 201.209821 291.872242 
L 221.138393 291.872242 
L 221.138393 295.05569 
L 231.102679 295.05569 
L 231.102679 294.427663 
L 241.066964 294.427663 
L 241.066964 294.787154 
L 251.03125 294.787154 
L 251.03125 293.063328 
L 260.995536 293.063328 
L 260.995536 297.065377 
L 264.98125 297.065377 
L 264.98125 297.487238 
L 268.966964 297.487238 
L 268.966964 299.323676 
L 270.959821 299.323676 
L 270.959821 298.568311 
L 272.952679 298.568311 
L 272.952679 297.067976 
L 278.93125 297.067976 
L 278.93125 295.540787 
L 284.909821 295.540787 
L 284.909821 295.266188 
L 290.888393 295.266188 
L 290.888393 297.402779 
L 296.866964 297.402779 
L 296.866964 298.576107 
L 302.845536 298.576107 
L 302.845536 298.16031 
L 306.83125 298.16031 
L 306.83125 298.168843 
L 310.816964 298.168843 
L 310.816964 298.902898 
L 312.809821 298.902898 
L 312.809821 298.902898 
L 312.809821 300.318125 
" style="fill:none;stroke:#008000;stroke-linecap:square;"/>
   </g>
   <g id="line2d_14">
    <path clip-path="url(#pcd48982328)" d="M 41.78125 300.318125 
L 41.78125 21.318125 
" style="fill:none;stroke:#000000;stroke-linecap:square;"/>
   </g>
   <g id="line2d_15">
    <path clip-path="url(#pcd48982328)" d="M 41.78125 300.318125 
L 320.78125 300.318125 
" style="fill:none;stroke:#000000;stroke-linecap:square;"/>
   </g>
   <g id="line2d_16">
    <path clip-path="url(#pcd48982328)" d="M 81.638393 21.318125 
L 121.495536 29.145537 
L 161.352679 49.671291 
L 201.209821 95.13329 
L 221.138393 111.902855 
L 231.102679 121.983981 
L 241.066964 136.911802 
L 251.03125 149.343574 
L 260.995536 167.639848 
L 264.98125 178.859947 
L 268.966964 188.543644 
L 270.959821 194.027679 
L 272.952679 200.987533 
L 278.93125 218.064863 
L 284.909821 242.109318 
L 290.888393 271.305808 
L 296.866964 281.922494 
L 302.845536 288.184424 
L 306.83125 291.085171 
L 310.816964 294.358386 
L 312.809821 295.634764 
" style="fill:none;stroke:#00bfbf;stroke-linecap:square;"/>
   </g>
   <g id="line2d_17">
    <g clip-path="url(#pcd48982328)">
     <use style="fill:#ff0000;stroke:#000000;stroke-width:0.5;" x="81.6383928571" xlink:href="#mca43d11f4e" y="21.318125"/>
     <use style="fill:#ff0000;stroke:#000000;stroke-width:0.5;" x="121.495535714" xlink:href="#mca43d11f4e" y="29.1455374902"/>
     <use style="fill:#ff0000;stroke:#000000;stroke-width:0.5;" x="161.352678571" xlink:href="#mca43d11f4e" y="49.6712909863"/>
     <use style="fill:#ff0000;stroke:#000000;stroke-width:0.5;" x="201.209821429" xlink:href="#mca43d11f4e" y="95.1332904651"/>
     <use style="fill:#ff0000;stroke:#000000;stroke-width:0.5;" x="221.138392857" xlink:href="#mca43d11f4e" y="111.902855305"/>
     <use style="fill:#ff0000;stroke:#000000;stroke-width:0.5;" x="231.102678571" xlink:href="#mca43d11f4e" y="121.983980989"/>
     <use style="fill:#ff0000;stroke:#000000;stroke-width:0.5;" x="241.066964286" xlink:href="#mca43d11f4e" y="136.911801713"/>
     <use style="fill:#ff0000;stroke:#000000;stroke-width:0.5;" x="251.03125" xlink:href="#mca43d11f4e" y="149.343574492"/>
     <use style="fill:#ff0000;stroke:#000000;stroke-width:0.5;" x="260.995535714" xlink:href="#mca43d11f4e" y="167.639848269"/>
     <use style="fill:#ff0000;stroke:#000000;stroke-width:0.5;" x="264.98125" xlink:href="#mca43d11f4e" y="178.859947288"/>
     <use style="fill:#ff0000;stroke:#000000;stroke-width:0.5;" x="268.966964286" xlink:href="#mca43d11f4e" y="188.543643979"/>
     <use style="fill:#ff0000;stroke:#000000;stroke-width:0.5;" x="270.959821429" xlink:href="#mca43d11f4e" y="194.027679417"/>
     <use style="fill:#ff0000;stroke:#000000;stroke-width:0.5;" x="272.952678571" xlink:href="#mca43d11f4e" y="200.987533495"/>
     <use style="fill:#ff0000;stroke:#000000;stroke-width:0.5;" x="278.93125" xlink:href="#mca43d11f4e" y="218.06486347"/>
     <use style="fill:#ff0000;stroke:#000000;stroke-width:0.5;" x="284.909821429" xlink:href="#mca43d11f4e" y="242.109317565"/>
     <use style="fill:#ff0000;stroke:#000000;stroke-width:0.5;" x="290.888392857" xlink:href="#mca43d11f4e" y="271.305808488"/>
     <use style="fill:#ff0000;stroke:#000000;stroke-width:0.5;" x="296.866964286" xlink:href="#mca43d11f4e" y="281.922493974"/>
     <use style="fill:#ff0000;stroke:#000000;stroke-width:0.5;" x="302.845535714" xlink:href="#mca43d11f4e" y="288.184423966"/>
     <use style="fill:#ff0000;stroke:#000000;stroke-width:0.5;" x="306.83125" xlink:href="#mca43d11f4e" y="291.085170948"/>
     <use style="fill:#ff0000;stroke:#000000;stroke-width:0.5;" x="310.816964286" xlink:href="#mca43d11f4e" y="294.358386444"/>
     <use style="fill:#ff0000;stroke:#000000;stroke-width:0.5;" x="312.809821429" xlink:href="#mca43d11f4e" y="295.634763582"/>
    </g>
   </g>
   <g id="line2d_18">
    <path clip-path="url(#pcd48982328)" d="M 81.638393 292.490713 
L 121.495536 292.490713 
L 121.495536 279.792372 
L 161.352679 279.792372 
L 161.352679 254.856126 
L 201.209821 254.856126 
L 201.209821 283.54856 
L 221.138393 283.54856 
L 221.138393 290.236999 
L 231.102679 290.236999 
L 231.102679 285.390304 
L 241.066964 285.390304 
L 241.066964 287.886352 
L 251.03125 287.886352 
L 251.03125 282.021851 
L 260.995536 282.021851 
L 260.995536 289.098026 
L 264.98125 289.098026 
L 264.98125 290.634428 
L 268.966964 290.634428 
L 268.966964 294.83409 
L 270.959821 294.83409 
L 270.959821 293.358271 
L 272.952679 293.358271 
L 272.952679 283.240795 
L 278.93125 283.240795 
L 278.93125 276.273671 
L 284.909821 276.273671 
L 284.909821 271.121634 
L 290.888393 271.121634 
L 290.888393 289.70144 
L 296.866964 289.70144 
L 296.866964 294.056195 
L 302.845536 294.056195 
L 302.845536 297.417378 
L 306.83125 297.417378 
L 306.83125 297.04491 
L 310.816964 297.04491 
L 310.816964 299.041748 
L 312.809821 299.041748 
L 312.809821 299.041748 
L 312.809821 300.318125 
" style="fill:none;stroke:#008000;stroke-linecap:square;"/>
   </g>
   <g id="line2d_19">
    <path clip-path="url(#pcd48982328)" d="M 41.78125 300.318125 
L 41.78125 21.318125 
" style="fill:none;stroke:#000000;stroke-linecap:square;"/>
   </g>
   <g id="line2d_20">
    <path clip-path="url(#pcd48982328)" d="M 41.78125 300.318125 
L 320.78125 300.318125 
" style="fill:none;stroke:#000000;stroke-linecap:square;"/>
   </g>
   <g id="line2d_21">
    <path clip-path="url(#pcd48982328)" d="M 81.638393 21.318125 
L 121.495536 24.810701 
L 161.352679 41.177077 
L 201.209821 114.439959 
L 221.138393 153.589304 
L 231.102679 177.834282 
L 241.066964 196.06878 
L 251.03125 207.797339 
L 260.995536 224.228693 
L 264.98125 231.010789 
L 268.966964 235.981618 
L 270.959821 236.586728 
L 272.952679 241.38699 
L 278.93125 248.961007 
L 284.909821 258.293496 
L 290.888393 271.833322 
L 296.866964 283.626859 
L 302.845536 287.60271 
L 306.83125 290.186811 
L 310.816964 292.711212 
L 312.809821 294.588675 
" style="fill:none;stroke:#bf00bf;stroke-linecap:square;"/>
   </g>
   <g id="line2d_22">
    <g clip-path="url(#pcd48982328)">
     <use style="fill:#ff0000;stroke:#000000;stroke-width:0.5;" x="81.6383928571" xlink:href="#mca43d11f4e" y="21.318125"/>
     <use style="fill:#ff0000;stroke:#000000;stroke-width:0.5;" x="121.495535714" xlink:href="#mca43d11f4e" y="24.8107014192"/>
     <use style="fill:#ff0000;stroke:#000000;stroke-width:0.5;" x="161.352678571" xlink:href="#mca43d11f4e" y="41.1770769651"/>
     <use style="fill:#ff0000;stroke:#000000;stroke-width:0.5;" x="201.209821429" xlink:href="#mca43d11f4e" y="114.439959061"/>
     <use style="fill:#ff0000;stroke:#000000;stroke-width:0.5;" x="221.138392857" xlink:href="#mca43d11f4e" y="153.589304039"/>
     <use style="fill:#ff0000;stroke:#000000;stroke-width:0.5;" x="231.102678571" xlink:href="#mca43d11f4e" y="177.834282205"/>
     <use style="fill:#ff0000;stroke:#000000;stroke-width:0.5;" x="241.066964286" xlink:href="#mca43d11f4e" y="196.068780022"/>
     <use style="fill:#ff0000;stroke:#000000;stroke-width:0.5;" x="251.03125" xlink:href="#mca43d11f4e" y="207.797338974"/>
     <use style="fill:#ff0000;stroke:#000000;stroke-width:0.5;" x="260.995535714" xlink:href="#mca43d11f4e" y="224.228692686"/>
     <use style="fill:#ff0000;stroke:#000000;stroke-width:0.5;" x="264.98125" xlink:href="#mca43d11f4e" y="231.010788755"/>
     <use style="fill:#ff0000;stroke:#000000;stroke-width:0.5;" x="268.966964286" xlink:href="#mca43d11f4e" y="235.98161845"/>
     <use style="fill:#ff0000;stroke:#000000;stroke-width:0.5;" x="270.959821429" xlink:href="#mca43d11f4e" y="236.58672762"/>
     <use style="fill:#ff0000;stroke:#000000;stroke-width:0.5;" x="272.952678571" xlink:href="#mca43d11f4e" y="241.386989629"/>
     <use style="fill:#ff0000;stroke:#000000;stroke-width:0.5;" x="278.93125" xlink:href="#mca43d11f4e" y="248.961007096"/>
     <use style="fill:#ff0000;stroke:#000000;stroke-width:0.5;" x="284.909821429" xlink:href="#mca43d11f4e" y="258.293496179"/>
     <use style="fill:#ff0000;stroke:#000000;stroke-width:0.5;" x="290.888392857" xlink:href="#mca43d11f4e" y="271.833321507"/>
     <use style="fill:#ff0000;stroke:#000000;stroke-width:0.5;" x="296.866964286" xlink:href="#mca43d11f4e" y="283.626858624"/>
     <use style="fill:#ff0000;stroke:#000000;stroke-width:0.5;" x="302.845535714" xlink:href="#mca43d11f4e" y="287.602710153"/>
     <use style="fill:#ff0000;stroke:#000000;stroke-width:0.5;" x="306.83125" xlink:href="#mca43d11f4e" y="290.18681059"/>
     <use style="fill:#ff0000;stroke:#000000;stroke-width:0.5;" x="310.816964286" xlink:href="#mca43d11f4e" y="292.711212336"/>
     <use style="fill:#ff0000;stroke:#000000;stroke-width:0.5;" x="312.809821429" xlink:href="#mca43d11f4e" y="294.588675218"/>
    </g>
   </g>
   <g id="line2d_23">
    <path clip-path="url(#pcd48982328)" d="M 81.638393 296.825549 
L 121.495536 296.825549 
L 121.495536 283.951749 
L 161.352679 283.951749 
L 161.352679 227.055243 
L 201.209821 227.055243 
L 201.209821 261.16878 
L 221.138393 261.16878 
L 221.138393 276.073147 
L 231.102679 276.073147 
L 231.102679 282.083627 
L 241.066964 282.083627 
L 241.066964 288.589566 
L 251.03125 288.589566 
L 251.03125 283.886771 
L 260.995536 283.886771 
L 260.995536 293.536029 
L 264.98125 293.536029 
L 264.98125 295.347295 
L 268.966964 295.347295 
L 268.966964 299.713016 
L 270.959821 299.713016 
L 270.959821 295.517863 
L 272.952679 295.517863 
L 272.952679 292.744108 
L 278.93125 292.744108 
L 278.93125 290.985636 
L 284.909821 290.985636 
L 284.909821 286.7783 
L 290.888393 286.7783 
L 290.888393 288.524588 
L 296.866964 288.524588 
L 296.866964 296.342273 
L 302.845536 296.342273 
L 302.845536 297.734025 
L 306.83125 297.734025 
L 306.83125 297.793723 
L 310.816964 297.793723 
L 310.816964 298.440662 
L 312.809821 298.440662 
L 312.809821 298.440662 
L 312.809821 300.318125 
" style="fill:none;stroke:#008000;stroke-linecap:square;"/>
   </g>
   <g id="line2d_24">
    <path clip-path="url(#pcd48982328)" d="M 41.78125 300.318125 
L 41.78125 21.318125 
" style="fill:none;stroke:#000000;stroke-linecap:square;"/>
   </g>
   <g id="line2d_25">
    <path clip-path="url(#pcd48982328)" d="M 41.78125 300.318125 
L 320.78125 300.318125 
" style="fill:none;stroke:#000000;stroke-linecap:square;"/>
   </g>
   <g id="line2d_26">
    <path clip-path="url(#pcd48982328)" d="M 81.638393 21.318125 
L 121.495536 31.032295 
L 161.352679 42.295569 
L 201.209821 58.399791 
L 221.138393 71.405806 
L 231.102679 79.086777 
L 241.066964 86.122289 
L 251.03125 93.706442 
L 260.995536 111.101584 
L 264.98125 131.078565 
L 268.966964 162.028362 
L 270.959821 182.715349 
L 272.952679 206.080994 
L 278.93125 242.969021 
L 284.909821 272.6989 
L 290.888393 281.770838 
L 296.866964 284.807726 
L 302.845536 289.325945 
L 306.83125 293.414932 
L 310.816964 296.083909 
L 312.809821 297.080176 
" style="fill:none;stroke:#bfbf00;stroke-linecap:square;"/>
   </g>
   <g id="line2d_27">
    <g clip-path="url(#pcd48982328)">
     <use style="fill:#ff0000;stroke:#000000;stroke-width:0.5;" x="81.6383928571" xlink:href="#mca43d11f4e" y="21.318125"/>
     <use style="fill:#ff0000;stroke:#000000;stroke-width:0.5;" x="121.495535714" xlink:href="#mca43d11f4e" y="31.0322950405"/>
     <use style="fill:#ff0000;stroke:#000000;stroke-width:0.5;" x="161.352678571" xlink:href="#mca43d11f4e" y="42.295568609"/>
     <use style="fill:#ff0000;stroke:#000000;stroke-width:0.5;" x="201.209821429" xlink:href="#mca43d11f4e" y="58.3997907027"/>
     <use style="fill:#ff0000;stroke:#000000;stroke-width:0.5;" x="221.138392857" xlink:href="#mca43d11f4e" y="71.4058057403"/>
     <use style="fill:#ff0000;stroke:#000000;stroke-width:0.5;" x="231.102678571" xlink:href="#mca43d11f4e" y="79.0867774002"/>
     <use style="fill:#ff0000;stroke:#000000;stroke-width:0.5;" x="241.066964286" xlink:href="#mca43d11f4e" y="86.1222892568"/>
     <use style="fill:#ff0000;stroke:#000000;stroke-width:0.5;" x="251.03125" xlink:href="#mca43d11f4e" y="93.7064419462"/>
     <use style="fill:#ff0000;stroke:#000000;stroke-width:0.5;" x="260.995535714" xlink:href="#mca43d11f4e" y="111.101583647"/>
     <use style="fill:#ff0000;stroke:#000000;stroke-width:0.5;" x="264.98125" xlink:href="#mca43d11f4e" y="131.07856456"/>
     <use style="fill:#ff0000;stroke:#000000;stroke-width:0.5;" x="268.966964286" xlink:href="#mca43d11f4e" y="162.028362131"/>
     <use style="fill:#ff0000;stroke:#000000;stroke-width:0.5;" x="270.959821429" xlink:href="#mca43d11f4e" y="182.715348829"/>
     <use style="fill:#ff0000;stroke:#000000;stroke-width:0.5;" x="272.952678571" xlink:href="#mca43d11f4e" y="206.08099371"/>
     <use style="fill:#ff0000;stroke:#000000;stroke-width:0.5;" x="278.93125" xlink:href="#mca43d11f4e" y="242.969021472"/>
     <use style="fill:#ff0000;stroke:#000000;stroke-width:0.5;" x="284.909821429" xlink:href="#mca43d11f4e" y="272.698900014"/>
     <use style="fill:#ff0000;stroke:#000000;stroke-width:0.5;" x="290.888392857" xlink:href="#mca43d11f4e" y="281.770837551"/>
     <use style="fill:#ff0000;stroke:#000000;stroke-width:0.5;" x="296.866964286" xlink:href="#mca43d11f4e" y="284.807725925"/>
     <use style="fill:#ff0000;stroke:#000000;stroke-width:0.5;" x="302.845535714" xlink:href="#mca43d11f4e" y="289.325944549"/>
     <use style="fill:#ff0000;stroke:#000000;stroke-width:0.5;" x="306.83125" xlink:href="#mca43d11f4e" y="293.414932403"/>
     <use style="fill:#ff0000;stroke:#000000;stroke-width:0.5;" x="310.816964286" xlink:href="#mca43d11f4e" y="296.08390869"/>
     <use style="fill:#ff0000;stroke:#000000;stroke-width:0.5;" x="312.809821429" xlink:href="#mca43d11f4e" y="297.080175896"/>
    </g>
   </g>
   <g id="line2d_28">
    <path clip-path="url(#pcd48982328)" d="M 81.638393 290.603955 
L 121.495536 290.603955 
L 121.495536 289.054851 
L 161.352679 289.054851 
L 161.352679 284.213903 
L 201.209821 284.213903 
L 201.209821 287.31211 
L 221.138393 287.31211 
L 221.138393 292.637153 
L 231.102679 292.637153 
L 231.102679 293.282613 
L 241.066964 293.282613 
L 241.066964 292.733972 
L 251.03125 292.733972 
L 251.03125 282.922983 
L 260.995536 282.922983 
L 260.995536 280.341144 
L 264.98125 280.341144 
L 264.98125 269.368327 
L 268.966964 269.368327 
L 268.966964 279.631138 
L 270.959821 279.631138 
L 270.959821 276.95248 
L 272.952679 276.95248 
L 272.952679 263.430097 
L 278.93125 263.430097 
L 278.93125 270.588246 
L 284.909821 270.588246 
L 284.909821 291.246187 
L 290.888393 291.246187 
L 290.888393 297.281237 
L 296.866964 297.281237 
L 296.866964 295.799906 
L 302.845536 295.799906 
L 302.845536 296.229137 
L 306.83125 296.229137 
L 306.83125 297.649149 
L 310.816964 297.649149 
L 310.816964 299.321858 
L 312.809821 299.321858 
L 312.809821 299.321858 
L 312.809821 300.318125 
" style="fill:none;stroke:#008000;stroke-linecap:square;"/>
   </g>
   <g id="line2d_29">
    <path clip-path="url(#pcd48982328)" d="M 41.78125 300.318125 
L 41.78125 21.318125 
" style="fill:none;stroke:#000000;stroke-linecap:square;"/>
   </g>
   <g id="line2d_30">
    <path clip-path="url(#pcd48982328)" d="M 41.78125 300.318125 
L 320.78125 300.318125 
" style="fill:none;stroke:#000000;stroke-linecap:square;"/>
   </g>
   <g id="line2d_31">
    <path clip-path="url(#pcd48982328)" d="M 81.638393 21.318125 
L 121.495536 26.725878 
L 161.352679 43.049281 
L 201.209821 147.599173 
L 221.138393 180.936969 
L 231.102679 190.510695 
L 241.066964 202.74824 
L 251.03125 215.246158 
L 260.995536 230.508039 
L 264.98125 239.470889 
L 268.966964 248.41371 
L 270.959821 253.971678 
L 272.952679 259.810049 
L 278.93125 272.861761 
L 284.909821 287.432651 
L 290.888393 292.891477 
L 296.866964 294.735121 
L 302.845536 296.612813 
L 306.83125 297.849586 
L 310.816964 298.995729 
L 312.809821 299.288449 
" style="fill:none;stroke:#000000;stroke-linecap:square;"/>
   </g>
   <g id="line2d_32">
    <g clip-path="url(#pcd48982328)">
     <use style="fill:#ff0000;stroke:#000000;stroke-width:0.5;" x="81.6383928571" xlink:href="#mca43d11f4e" y="21.318125"/>
     <use style="fill:#ff0000;stroke:#000000;stroke-width:0.5;" x="121.495535714" xlink:href="#mca43d11f4e" y="26.725878051"/>
     <use style="fill:#ff0000;stroke:#000000;stroke-width:0.5;" x="161.352678571" xlink:href="#mca43d11f4e" y="43.0492807789"/>
     <use style="fill:#ff0000;stroke:#000000;stroke-width:0.5;" x="201.209821429" xlink:href="#mca43d11f4e" y="147.599173098"/>
     <use style="fill:#ff0000;stroke:#000000;stroke-width:0.5;" x="221.138392857" xlink:href="#mca43d11f4e" y="180.936969221"/>
     <use style="fill:#ff0000;stroke:#000000;stroke-width:0.5;" x="231.102678571" xlink:href="#mca43d11f4e" y="190.510694993"/>
     <use style="fill:#ff0000;stroke:#000000;stroke-width:0.5;" x="241.066964286" xlink:href="#mca43d11f4e" y="202.74823986"/>
     <use style="fill:#ff0000;stroke:#000000;stroke-width:0.5;" x="251.03125" xlink:href="#mca43d11f4e" y="215.246158022"/>
     <use style="fill:#ff0000;stroke:#000000;stroke-width:0.5;" x="260.995535714" xlink:href="#mca43d11f4e" y="230.508038855"/>
     <use style="fill:#ff0000;stroke:#000000;stroke-width:0.5;" x="264.98125" xlink:href="#mca43d11f4e" y="239.470888819"/>
     <use style="fill:#ff0000;stroke:#000000;stroke-width:0.5;" x="268.966964286" xlink:href="#mca43d11f4e" y="248.413710068"/>
     <use style="fill:#ff0000;stroke:#000000;stroke-width:0.5;" x="270.959821429" xlink:href="#mca43d11f4e" y="253.971678482"/>
     <use style="fill:#ff0000;stroke:#000000;stroke-width:0.5;" x="272.952678571" xlink:href="#mca43d11f4e" y="259.810048905"/>
     <use style="fill:#ff0000;stroke:#000000;stroke-width:0.5;" x="278.93125" xlink:href="#mca43d11f4e" y="272.861761037"/>
     <use style="fill:#ff0000;stroke:#000000;stroke-width:0.5;" x="284.909821429" xlink:href="#mca43d11f4e" y="287.432651202"/>
     <use style="fill:#ff0000;stroke:#000000;stroke-width:0.5;" x="290.888392857" xlink:href="#mca43d11f4e" y="292.891477477"/>
     <use style="fill:#ff0000;stroke:#000000;stroke-width:0.5;" x="296.866964286" xlink:href="#mca43d11f4e" y="294.735120693"/>
     <use style="fill:#ff0000;stroke:#000000;stroke-width:0.5;" x="302.845535714" xlink:href="#mca43d11f4e" y="296.612812724"/>
     <use style="fill:#ff0000;stroke:#000000;stroke-width:0.5;" x="306.83125" xlink:href="#mca43d11f4e" y="297.849585876"/>
     <use style="fill:#ff0000;stroke:#000000;stroke-width:0.5;" x="310.816964286" xlink:href="#mca43d11f4e" y="298.995729092"/>
     <use style="fill:#ff0000;stroke:#000000;stroke-width:0.5;" x="312.809821429" xlink:href="#mca43d11f4e" y="299.288448762"/>
    </g>
   </g>
   <g id="line2d_33">
    <path clip-path="url(#pcd48982328)" d="M 81.638393 294.910372 
L 121.495536 294.910372 
L 121.495536 283.994722 
L 161.352679 283.994722 
L 161.352679 195.768233 
L 201.209821 195.768233 
L 201.209821 266.980329 
L 221.138393 266.980329 
L 221.138393 290.744399 
L 231.102679 290.744399 
L 231.102679 288.08058 
L 241.066964 288.08058 
L 241.066964 287.820207 
L 251.03125 287.820207 
L 251.03125 285.056244 
L 260.995536 285.056244 
L 260.995536 291.355275 
L 264.98125 291.355275 
L 264.98125 291.375304 
L 268.966964 291.375304 
L 268.966964 294.760157 
L 270.959821 294.760157 
L 270.959821 294.479755 
L 272.952679 294.479755 
L 272.952679 287.266413 
L 278.93125 287.266413 
L 278.93125 285.747235 
L 284.909821 285.747235 
L 284.909821 294.859299 
L 290.888393 294.859299 
L 290.888393 298.474482 
L 296.866964 298.474482 
L 296.866964 298.440433 
L 302.845536 298.440433 
L 302.845536 299.081352 
L 306.83125 299.081352 
L 306.83125 299.171982 
L 310.816964 299.171982 
L 310.816964 300.025405 
L 312.809821 300.025405 
L 312.809821 300.025405 
L 312.809821 300.318125 
" style="fill:none;stroke:#008000;stroke-linecap:square;"/>
   </g>
   <g id="line2d_34">
    <path clip-path="url(#pcd48982328)" d="M 41.78125 300.318125 
L 41.78125 21.318125 
" style="fill:none;stroke:#000000;stroke-linecap:square;"/>
   </g>
   <g id="line2d_35">
    <path clip-path="url(#pcd48982328)" d="M 41.78125 300.318125 
L 320.78125 300.318125 
" style="fill:none;stroke:#000000;stroke-linecap:square;"/>
   </g>
   <g id="line2d_36">
    <path clip-path="url(#pcd48982328)" d="M 81.638393 21.318125 
L 121.495536 27.43538 
L 161.352679 49.599345 
L 201.209821 106.494245 
L 221.138393 124.513549 
L 231.102679 153.371033 
L 241.066964 171.456829 
L 251.03125 183.669174 
L 260.995536 195.504731 
L 264.98125 202.176085 
L 268.966964 208.736619 
L 270.959821 212.615313 
L 272.952679 217.868173 
L 278.93125 224.473034 
L 284.909821 240.145175 
L 290.888393 268.566028 
L 296.866964 283.336094 
L 302.845536 287.857543 
L 306.83125 290.818649 
L 310.816964 294.285094 
L 312.809821 296.090903 
" style="fill:none;stroke:#0000ff;stroke-linecap:square;"/>
   </g>
   <g id="line2d_37">
    <g clip-path="url(#pcd48982328)">
     <use style="fill:#ff0000;stroke:#000000;stroke-width:0.5;" x="81.6383928571" xlink:href="#mca43d11f4e" y="21.318125"/>
     <use style="fill:#ff0000;stroke:#000000;stroke-width:0.5;" x="121.495535714" xlink:href="#mca43d11f4e" y="27.4353795281"/>
     <use style="fill:#ff0000;stroke:#000000;stroke-width:0.5;" x="161.352678571" xlink:href="#mca43d11f4e" y="49.5993452097"/>
     <use style="fill:#ff0000;stroke:#000000;stroke-width:0.5;" x="201.209821429" xlink:href="#mca43d11f4e" y="106.494245114"/>
     <use style="fill:#ff0000;stroke:#000000;stroke-width:0.5;" x="221.138392857" xlink:href="#mca43d11f4e" y="124.513549214"/>
     <use style="fill:#ff0000;stroke:#000000;stroke-width:0.5;" x="231.102678571" xlink:href="#mca43d11f4e" y="153.371032531"/>
     <use style="fill:#ff0000;stroke:#000000;stroke-width:0.5;" x="241.066964286" xlink:href="#mca43d11f4e" y="171.456828527"/>
     <use style="fill:#ff0000;stroke:#000000;stroke-width:0.5;" x="251.03125" xlink:href="#mca43d11f4e" y="183.669173618"/>
     <use style="fill:#ff0000;stroke:#000000;stroke-width:0.5;" x="260.995535714" xlink:href="#mca43d11f4e" y="195.504731292"/>
     <use style="fill:#ff0000;stroke:#000000;stroke-width:0.5;" x="264.98125" xlink:href="#mca43d11f4e" y="202.176084962"/>
     <use style="fill:#ff0000;stroke:#000000;stroke-width:0.5;" x="268.966964286" xlink:href="#mca43d11f4e" y="208.736618804"/>
     <use style="fill:#ff0000;stroke:#000000;stroke-width:0.5;" x="270.959821429" xlink:href="#mca43d11f4e" y="212.615312798"/>
     <use style="fill:#ff0000;stroke:#000000;stroke-width:0.5;" x="272.952678571" xlink:href="#mca43d11f4e" y="217.868172664"/>
     <use style="fill:#ff0000;stroke:#000000;stroke-width:0.5;" x="278.93125" xlink:href="#mca43d11f4e" y="224.473034438"/>
     <use style="fill:#ff0000;stroke:#000000;stroke-width:0.5;" x="284.909821429" xlink:href="#mca43d11f4e" y="240.145174571"/>
     <use style="fill:#ff0000;stroke:#000000;stroke-width:0.5;" x="290.888392857" xlink:href="#mca43d11f4e" y="268.566027765"/>
     <use style="fill:#ff0000;stroke:#000000;stroke-width:0.5;" x="296.866964286" xlink:href="#mca43d11f4e" y="283.336094495"/>
     <use style="fill:#ff0000;stroke:#000000;stroke-width:0.5;" x="302.845535714" xlink:href="#mca43d11f4e" y="287.857543494"/>
     <use style="fill:#ff0000;stroke:#000000;stroke-width:0.5;" x="306.83125" xlink:href="#mca43d11f4e" y="290.818649309"/>
     <use style="fill:#ff0000;stroke:#000000;stroke-width:0.5;" x="310.816964286" xlink:href="#mca43d11f4e" y="294.285093541"/>
     <use style="fill:#ff0000;stroke:#000000;stroke-width:0.5;" x="312.809821429" xlink:href="#mca43d11f4e" y="296.090902645"/>
    </g>
   </g>
   <g id="line2d_38">
    <path clip-path="url(#pcd48982328)" d="M 81.638393 294.20087 
L 121.495536 294.20087 
L 121.495536 278.154159 
L 161.352679 278.154159 
L 161.352679 243.423225 
L 201.209821 243.423225 
L 201.209821 282.298821 
L 221.138393 282.298821 
L 221.138393 271.460642 
L 231.102679 271.460642 
L 231.102679 282.232329 
L 241.066964 282.232329 
L 241.066964 288.10578 
L 251.03125 288.10578 
L 251.03125 288.482567 
L 260.995536 288.482567 
L 260.995536 293.646771 
L 264.98125 293.646771 
L 264.98125 293.757591 
L 268.966964 293.757591 
L 268.966964 296.439431 
L 270.959821 296.439431 
L 270.959821 295.065265 
L 272.952679 295.065265 
L 272.952679 293.713263 
L 278.93125 293.713263 
L 278.93125 284.645985 
L 284.909821 284.645985 
L 284.909821 271.897272 
L 290.888393 271.897272 
L 290.888393 285.548058 
L 296.866964 285.548058 
L 296.866964 295.796676 
L 302.845536 295.796676 
L 302.845536 297.357019 
L 306.83125 297.357019 
L 306.83125 296.851681 
L 310.816964 296.851681 
L 310.816964 298.512316 
L 312.809821 298.512316 
L 312.809821 298.512316 
L 312.809821 300.318125 
" style="fill:none;stroke:#008000;stroke-linecap:square;"/>
   </g>
   <g id="line2d_39">
    <path clip-path="url(#pcd48982328)" d="M 41.78125 300.318125 
L 41.78125 21.318125 
" style="fill:none;stroke:#000000;stroke-linecap:square;"/>
   </g>
   <g id="line2d_40">
    <path clip-path="url(#pcd48982328)" d="M 41.78125 300.318125 
L 320.78125 300.318125 
" style="fill:none;stroke:#000000;stroke-linecap:square;"/>
   </g>
   <g id="line2d_41">
    <path clip-path="url(#pcd48982328)" d="M 81.638393 21.318125 
L 121.495536 26.282538 
L 161.352679 51.493121 
L 201.209821 120.822225 
L 221.138393 143.539175 
L 231.102679 172.840638 
L 241.066964 184.021359 
L 251.03125 194.925799 
L 260.995536 210.842139 
L 264.98125 220.95659 
L 268.966964 229.616253 
L 270.959821 233.687071 
L 272.952679 238.465858 
L 278.93125 247.932778 
L 284.909821 255.603875 
L 290.888393 263.020276 
L 296.866964 270.820879 
L 302.845536 277.686878 
L 306.83125 282.08742 
L 310.816964 285.003127 
L 312.809821 286.442116 
" style="fill:none;stroke:#008000;stroke-linecap:square;"/>
   </g>
   <g id="line2d_42">
    <g clip-path="url(#pcd48982328)">
     <use style="fill:#ff0000;stroke:#000000;stroke-width:0.5;" x="81.6383928571" xlink:href="#mca43d11f4e" y="21.318125"/>
     <use style="fill:#ff0000;stroke:#000000;stroke-width:0.5;" x="121.495535714" xlink:href="#mca43d11f4e" y="26.2825378114"/>
     <use style="fill:#ff0000;stroke:#000000;stroke-width:0.5;" x="161.352678571" xlink:href="#mca43d11f4e" y="51.4931211318"/>
     <use style="fill:#ff0000;stroke:#000000;stroke-width:0.5;" x="201.209821429" xlink:href="#mca43d11f4e" y="120.822225263"/>
     <use style="fill:#ff0000;stroke:#000000;stroke-width:0.5;" x="221.138392857" xlink:href="#mca43d11f4e" y="143.539175141"/>
     <use style="fill:#ff0000;stroke:#000000;stroke-width:0.5;" x="231.102678571" xlink:href="#mca43d11f4e" y="172.840637765"/>
     <use style="fill:#ff0000;stroke:#000000;stroke-width:0.5;" x="241.066964286" xlink:href="#mca43d11f4e" y="184.021358792"/>
     <use style="fill:#ff0000;stroke:#000000;stroke-width:0.5;" x="251.03125" xlink:href="#mca43d11f4e" y="194.925799455"/>
     <use style="fill:#ff0000;stroke:#000000;stroke-width:0.5;" x="260.995535714" xlink:href="#mca43d11f4e" y="210.842138616"/>
     <use style="fill:#ff0000;stroke:#000000;stroke-width:0.5;" x="264.98125" xlink:href="#mca43d11f4e" y="220.956590109"/>
     <use style="fill:#ff0000;stroke:#000000;stroke-width:0.5;" x="268.966964286" xlink:href="#mca43d11f4e" y="229.616252804"/>
     <use style="fill:#ff0000;stroke:#000000;stroke-width:0.5;" x="270.959821429" xlink:href="#mca43d11f4e" y="233.68707131"/>
     <use style="fill:#ff0000;stroke:#000000;stroke-width:0.5;" x="272.952678571" xlink:href="#mca43d11f4e" y="238.465858251"/>
     <use style="fill:#ff0000;stroke:#000000;stroke-width:0.5;" x="278.93125" xlink:href="#mca43d11f4e" y="247.932777638"/>
     <use style="fill:#ff0000;stroke:#000000;stroke-width:0.5;" x="284.909821429" xlink:href="#mca43d11f4e" y="255.603874652"/>
     <use style="fill:#ff0000;stroke:#000000;stroke-width:0.5;" x="290.888392857" xlink:href="#mca43d11f4e" y="263.020275704"/>
     <use style="fill:#ff0000;stroke:#000000;stroke-width:0.5;" x="296.866964286" xlink:href="#mca43d11f4e" y="270.820879139"/>
     <use style="fill:#ff0000;stroke:#000000;stroke-width:0.5;" x="302.845535714" xlink:href="#mca43d11f4e" y="277.686877901"/>
     <use style="fill:#ff0000;stroke:#000000;stroke-width:0.5;" x="306.83125" xlink:href="#mca43d11f4e" y="282.087419755"/>
     <use style="fill:#ff0000;stroke:#000000;stroke-width:0.5;" x="310.816964286" xlink:href="#mca43d11f4e" y="285.003127321"/>
     <use style="fill:#ff0000;stroke:#000000;stroke-width:0.5;" x="312.809821429" xlink:href="#mca43d11f4e" y="286.442116335"/>
    </g>
   </g>
   <g id="line2d_43">
    <path clip-path="url(#pcd48982328)" d="M 81.638393 295.353712 
L 121.495536 295.353712 
L 121.495536 275.107542 
L 161.352679 275.107542 
L 161.352679 230.989021 
L 201.209821 230.989021 
L 201.209821 277.601175 
L 221.138393 277.601175 
L 221.138393 271.016662 
L 231.102679 271.016662 
L 231.102679 289.137404 
L 241.066964 289.137404 
L 241.066964 289.413684 
L 251.03125 289.413684 
L 251.03125 284.401786 
L 260.995536 284.401786 
L 260.995536 290.203674 
L 264.98125 290.203674 
L 264.98125 291.658462 
L 268.966964 291.658462 
L 268.966964 296.247306 
L 270.959821 296.247306 
L 270.959821 295.539338 
L 272.952679 295.539338 
L 272.952679 290.851206 
L 278.93125 290.851206 
L 278.93125 292.647028 
L 284.909821 292.647028 
L 284.909821 292.901724 
L 290.888393 292.901724 
L 290.888393 292.517522 
L 296.866964 292.517522 
L 296.866964 293.452126 
L 302.845536 293.452126 
L 302.845536 295.917583 
L 306.83125 295.917583 
L 306.83125 297.402417 
L 310.816964 297.402417 
L 310.816964 298.879136 
L 312.809821 298.879136 
L 312.809821 298.879136 
L 312.809821 300.318125 
" style="fill:none;stroke:#008000;stroke-linecap:square;"/>
   </g>
   <g id="line2d_44">
    <path clip-path="url(#pcd48982328)" d="M 41.78125 300.318125 
L 41.78125 21.318125 
" style="fill:none;stroke:#000000;stroke-linecap:square;"/>
   </g>
   <g id="line2d_45">
    <path clip-path="url(#pcd48982328)" d="M 41.78125 300.318125 
L 320.78125 300.318125 
" style="fill:none;stroke:#000000;stroke-linecap:square;"/>
   </g>
   <g id="line2d_46">
    <path clip-path="url(#pcd48982328)" d="M 81.638393 21.318125 
L 121.495536 26.387474 
L 161.352679 56.670865 
L 201.209821 126.394324 
L 221.138393 190.889187 
L 231.102679 201.824118 
L 241.066964 210.449974 
L 251.03125 219.845522 
L 260.995536 231.345779 
L 264.98125 237.455539 
L 268.966964 244.560591 
L 270.959821 248.358622 
L 272.952679 252.562731 
L 278.93125 264.776943 
L 284.909821 280.725488 
L 290.888393 291.05714 
L 296.866964 293.692671 
L 302.845536 296.254949 
L 306.83125 297.573245 
L 310.816964 298.778688 
L 312.809821 299.342156 
" style="fill:none;stroke:#ff0000;stroke-linecap:square;"/>
   </g>
   <g id="line2d_47">
    <g clip-path="url(#pcd48982328)">
     <use style="fill:#ff0000;stroke:#000000;stroke-width:0.5;" x="81.6383928571" xlink:href="#mca43d11f4e" y="21.318125"/>
     <use style="fill:#ff0000;stroke:#000000;stroke-width:0.5;" x="121.495535714" xlink:href="#mca43d11f4e" y="26.3874743151"/>
     <use style="fill:#ff0000;stroke:#000000;stroke-width:0.5;" x="161.352678571" xlink:href="#mca43d11f4e" y="56.670864726"/>
     <use style="fill:#ff0000;stroke:#000000;stroke-width:0.5;" x="201.209821429" xlink:href="#mca43d11f4e" y="126.39432363"/>
     <use style="fill:#ff0000;stroke:#000000;stroke-width:0.5;" x="221.138392857" xlink:href="#mca43d11f4e" y="190.889186644"/>
     <use style="fill:#ff0000;stroke:#000000;stroke-width:0.5;" x="231.102678571" xlink:href="#mca43d11f4e" y="201.824118151"/>
     <use style="fill:#ff0000;stroke:#000000;stroke-width:0.5;" x="241.066964286" xlink:href="#mca43d11f4e" y="210.449974315"/>
     <use style="fill:#ff0000;stroke:#000000;stroke-width:0.5;" x="251.03125" xlink:href="#mca43d11f4e" y="219.84552226"/>
     <use style="fill:#ff0000;stroke:#000000;stroke-width:0.5;" x="260.995535714" xlink:href="#mca43d11f4e" y="231.34577911"/>
     <use style="fill:#ff0000;stroke:#000000;stroke-width:0.5;" x="264.98125" xlink:href="#mca43d11f4e" y="237.455539384"/>
     <use style="fill:#ff0000;stroke:#000000;stroke-width:0.5;" x="268.966964286" xlink:href="#mca43d11f4e" y="244.560590753"/>
     <use style="fill:#ff0000;stroke:#000000;stroke-width:0.5;" x="270.959821429" xlink:href="#mca43d11f4e" y="248.358621575"/>
     <use style="fill:#ff0000;stroke:#000000;stroke-width:0.5;" x="272.952678571" xlink:href="#mca43d11f4e" y="252.562731164"/>
     <use style="fill:#ff0000;stroke:#000000;stroke-width:0.5;" x="278.93125" xlink:href="#mca43d11f4e" y="264.776943493"/>
     <use style="fill:#ff0000;stroke:#000000;stroke-width:0.5;" x="284.909821429" xlink:href="#mca43d11f4e" y="280.725488014"/>
     <use style="fill:#ff0000;stroke:#000000;stroke-width:0.5;" x="290.888392857" xlink:href="#mca43d11f4e" y="291.057140411"/>
     <use style="fill:#ff0000;stroke:#000000;stroke-width:0.5;" x="296.866964286" xlink:href="#mca43d11f4e" y="293.692671233"/>
     <use style="fill:#ff0000;stroke:#000000;stroke-width:0.5;" x="302.845535714" xlink:href="#mca43d11f4e" y="296.25494863"/>
     <use style="fill:#ff0000;stroke:#000000;stroke-width:0.5;" x="306.83125" xlink:href="#mca43d11f4e" y="297.573244863"/>
     <use style="fill:#ff0000;stroke:#000000;stroke-width:0.5;" x="310.816964286" xlink:href="#mca43d11f4e" y="298.778688356"/>
     <use style="fill:#ff0000;stroke:#000000;stroke-width:0.5;" x="312.809821429" xlink:href="#mca43d11f4e" y="299.342155822"/>
    </g>
   </g>
   <g id="line2d_48">
    <path clip-path="url(#pcd48982328)" d="M 81.638393 295.248776 
L 121.495536 295.248776 
L 121.495536 270.034735 
L 161.352679 270.034735 
L 161.352679 230.594666 
L 201.209821 230.594666 
L 201.209821 235.823262 
L 221.138393 235.823262 
L 221.138393 289.383193 
L 231.102679 289.383193 
L 231.102679 291.692269 
L 241.066964 291.692269 
L 241.066964 290.922577 
L 251.03125 290.922577 
L 251.03125 288.817868 
L 260.995536 288.817868 
L 260.995536 294.208365 
L 264.98125 294.208365 
L 264.98125 293.213074 
L 268.966964 293.213074 
L 268.966964 296.520094 
L 270.959821 296.520094 
L 270.959821 296.114015 
L 272.952679 296.114015 
L 272.952679 288.103913 
L 278.93125 288.103913 
L 278.93125 284.36958 
L 284.909821 284.36958 
L 284.909821 289.986473 
L 290.888393 289.986473 
L 290.888393 297.682594 
L 296.866964 297.682594 
L 296.866964 297.755848 
L 302.845536 297.755848 
L 302.845536 298.999829 
L 306.83125 298.999829 
L 306.83125 299.112682 
L 310.816964 299.112682 
L 310.816964 299.754658 
L 312.809821 299.754658 
L 312.809821 299.754658 
L 312.809821 300.318125 
" style="fill:none;stroke:#008000;stroke-linecap:square;"/>
   </g>
   <g id="line2d_49">
    <path clip-path="url(#pcd48982328)" d="M 41.78125 300.318125 
L 41.78125 21.318125 
" style="fill:none;stroke:#000000;stroke-linecap:square;"/>
   </g>
   <g id="line2d_50">
    <path clip-path="url(#pcd48982328)" d="M 41.78125 300.318125 
L 320.78125 300.318125 
" style="fill:none;stroke:#000000;stroke-linecap:square;"/>
   </g>
   <g id="patch_3">
    <path d="M 41.78125 21.318125 
L 320.78125 21.318125 
" style="fill:none;stroke:#000000;stroke-linecap:square;stroke-linejoin:miter;"/>
   </g>
   <g id="patch_4">
    <path d="M 320.78125 300.318125 
L 320.78125 21.318125 
" style="fill:none;stroke:#000000;stroke-linecap:square;stroke-linejoin:miter;"/>
   </g>
   <g id="patch_5">
    <path d="M 41.78125 300.318125 
L 320.78125 300.318125 
" style="fill:none;stroke:#000000;stroke-linecap:square;stroke-linejoin:miter;"/>
   </g>
   <g id="patch_6">
    <path d="M 41.78125 300.318125 
L 41.78125 21.318125 
" style="fill:none;stroke:#000000;stroke-linecap:square;stroke-linejoin:miter;"/>
   </g>
   <g id="matplotlib.axis_1">
    <g id="xtick_1">
     <g id="line2d_51">
      <defs>
       <path d="M 0 0 
L 0 -4 
" id="m454bd5bd42" style="stroke:#000000;stroke-width:0.5;"/>
      </defs>
      <g>
       <use style="stroke:#000000;stroke-width:0.5;" x="41.78125" xlink:href="#m454bd5bd42" y="300.318125"/>
      </g>
     </g>
     <g id="line2d_52">
      <defs>
       <path d="M 0 0 
L 0 4 
" id="m7ac4bbe3e6" style="stroke:#000000;stroke-width:0.5;"/>
      </defs>
      <g>
       <use style="stroke:#000000;stroke-width:0.5;" x="41.78125" xlink:href="#m7ac4bbe3e6" y="21.318125"/>
      </g>
     </g>
     <g id="text_1">
      <!-- 0 -->
      <defs>
       <path d="M 31.78125 66.40625 
Q 24.171875 66.40625 20.328125 58.90625 
Q 16.5 51.421875 16.5 36.375 
Q 16.5 21.390625 20.328125 13.890625 
Q 24.171875 6.390625 31.78125 6.390625 
Q 39.453125 6.390625 43.28125 13.890625 
Q 47.125 21.390625 47.125 36.375 
Q 47.125 51.421875 43.28125 58.90625 
Q 39.453125 66.40625 31.78125 66.40625 
M 31.78125 74.21875 
Q 44.046875 74.21875 50.515625 64.515625 
Q 56.984375 54.828125 56.984375 36.375 
Q 56.984375 17.96875 50.515625 8.265625 
Q 44.046875 -1.421875 31.78125 -1.421875 
Q 19.53125 -1.421875 13.0625 8.265625 
Q 6.59375 17.96875 6.59375 36.375 
Q 6.59375 54.828125 13.0625 64.515625 
Q 19.53125 74.21875 31.78125 74.21875 
" id="BitstreamVeraSans-Roman-30"/>
      </defs>
      <g transform="translate(38.6 311.9165625)scale(0.1 -0.1)">
       <use xlink:href="#BitstreamVeraSans-Roman-30"/>
      </g>
     </g>
    </g>
    <g id="xtick_2">
     <g id="line2d_53">
      <g>
       <use style="stroke:#000000;stroke-width:0.5;" x="81.6383928571" xlink:href="#m454bd5bd42" y="300.318125"/>
      </g>
     </g>
     <g id="line2d_54">
      <g>
       <use style="stroke:#000000;stroke-width:0.5;" x="81.6383928571" xlink:href="#m7ac4bbe3e6" y="21.318125"/>
      </g>
     </g>
     <g id="text_2">
      <!-- 100 -->
      <defs>
       <path d="M 12.40625 8.296875 
L 28.515625 8.296875 
L 28.515625 63.921875 
L 10.984375 60.40625 
L 10.984375 69.390625 
L 28.421875 72.90625 
L 38.28125 72.90625 
L 38.28125 8.296875 
L 54.390625 8.296875 
L 54.390625 0 
L 12.40625 0 
z
" id="BitstreamVeraSans-Roman-31"/>
      </defs>
      <g transform="translate(72.0946428571 311.9165625)scale(0.1 -0.1)">
       <use xlink:href="#BitstreamVeraSans-Roman-31"/>
       <use x="63.623046875" xlink:href="#BitstreamVeraSans-Roman-30"/>
       <use x="127.24609375" xlink:href="#BitstreamVeraSans-Roman-30"/>
      </g>
     </g>
    </g>
    <g id="xtick_3">
     <g id="line2d_55">
      <g>
       <use style="stroke:#000000;stroke-width:0.5;" x="121.495535714" xlink:href="#m454bd5bd42" y="300.318125"/>
      </g>
     </g>
     <g id="line2d_56">
      <g>
       <use style="stroke:#000000;stroke-width:0.5;" x="121.495535714" xlink:href="#m7ac4bbe3e6" y="21.318125"/>
      </g>
     </g>
     <g id="text_3">
      <!-- 200 -->
      <defs>
       <path d="M 19.1875 8.296875 
L 53.609375 8.296875 
L 53.609375 0 
L 7.328125 0 
L 7.328125 8.296875 
Q 12.9375 14.109375 22.625 23.890625 
Q 32.328125 33.6875 34.8125 36.53125 
Q 39.546875 41.84375 41.421875 45.53125 
Q 43.3125 49.21875 43.3125 52.78125 
Q 43.3125 58.59375 39.234375 62.25 
Q 35.15625 65.921875 28.609375 65.921875 
Q 23.96875 65.921875 18.8125 64.3125 
Q 13.671875 62.703125 7.8125 59.421875 
L 7.8125 69.390625 
Q 13.765625 71.78125 18.9375 73 
Q 24.125 74.21875 28.421875 74.21875 
Q 39.75 74.21875 46.484375 68.546875 
Q 53.21875 62.890625 53.21875 53.421875 
Q 53.21875 48.921875 51.53125 44.890625 
Q 49.859375 40.875 45.40625 35.40625 
Q 44.1875 33.984375 37.640625 27.21875 
Q 31.109375 20.453125 19.1875 8.296875 
" id="BitstreamVeraSans-Roman-32"/>
      </defs>
      <g transform="translate(111.951785714 311.9165625)scale(0.1 -0.1)">
       <use xlink:href="#BitstreamVeraSans-Roman-32"/>
       <use x="63.623046875" xlink:href="#BitstreamVeraSans-Roman-30"/>
       <use x="127.24609375" xlink:href="#BitstreamVeraSans-Roman-30"/>
      </g>
     </g>
    </g>
    <g id="xtick_4">
     <g id="line2d_57">
      <g>
       <use style="stroke:#000000;stroke-width:0.5;" x="161.352678571" xlink:href="#m454bd5bd42" y="300.318125"/>
      </g>
     </g>
     <g id="line2d_58">
      <g>
       <use style="stroke:#000000;stroke-width:0.5;" x="161.352678571" xlink:href="#m7ac4bbe3e6" y="21.318125"/>
      </g>
     </g>
     <g id="text_4">
      <!-- 300 -->
      <defs>
       <path d="M 40.578125 39.3125 
Q 47.65625 37.796875 51.625 33 
Q 55.609375 28.21875 55.609375 21.1875 
Q 55.609375 10.40625 48.1875 4.484375 
Q 40.765625 -1.421875 27.09375 -1.421875 
Q 22.515625 -1.421875 17.65625 -0.515625 
Q 12.796875 0.390625 7.625 2.203125 
L 7.625 11.71875 
Q 11.71875 9.328125 16.59375 8.109375 
Q 21.484375 6.890625 26.8125 6.890625 
Q 36.078125 6.890625 40.9375 10.546875 
Q 45.796875 14.203125 45.796875 21.1875 
Q 45.796875 27.640625 41.28125 31.265625 
Q 36.765625 34.90625 28.71875 34.90625 
L 20.21875 34.90625 
L 20.21875 43.015625 
L 29.109375 43.015625 
Q 36.375 43.015625 40.234375 45.921875 
Q 44.09375 48.828125 44.09375 54.296875 
Q 44.09375 59.90625 40.109375 62.90625 
Q 36.140625 65.921875 28.71875 65.921875 
Q 24.65625 65.921875 20.015625 65.03125 
Q 15.375 64.15625 9.8125 62.3125 
L 9.8125 71.09375 
Q 15.4375 72.65625 20.34375 73.4375 
Q 25.25 74.21875 29.59375 74.21875 
Q 40.828125 74.21875 47.359375 69.109375 
Q 53.90625 64.015625 53.90625 55.328125 
Q 53.90625 49.265625 50.4375 45.09375 
Q 46.96875 40.921875 40.578125 39.3125 
" id="BitstreamVeraSans-Roman-33"/>
      </defs>
      <g transform="translate(151.808928571 311.9165625)scale(0.1 -0.1)">
       <use xlink:href="#BitstreamVeraSans-Roman-33"/>
       <use x="63.623046875" xlink:href="#BitstreamVeraSans-Roman-30"/>
       <use x="127.24609375" xlink:href="#BitstreamVeraSans-Roman-30"/>
      </g>
     </g>
    </g>
    <g id="xtick_5">
     <g id="line2d_59">
      <g>
       <use style="stroke:#000000;stroke-width:0.5;" x="201.209821429" xlink:href="#m454bd5bd42" y="300.318125"/>
      </g>
     </g>
     <g id="line2d_60">
      <g>
       <use style="stroke:#000000;stroke-width:0.5;" x="201.209821429" xlink:href="#m7ac4bbe3e6" y="21.318125"/>
      </g>
     </g>
     <g id="text_5">
      <!-- 400 -->
      <defs>
       <path d="M 37.796875 64.3125 
L 12.890625 25.390625 
L 37.796875 25.390625 
z
M 35.203125 72.90625 
L 47.609375 72.90625 
L 47.609375 25.390625 
L 58.015625 25.390625 
L 58.015625 17.1875 
L 47.609375 17.1875 
L 47.609375 0 
L 37.796875 0 
L 37.796875 17.1875 
L 4.890625 17.1875 
L 4.890625 26.703125 
z
" id="BitstreamVeraSans-Roman-34"/>
      </defs>
      <g transform="translate(191.666071429 311.9165625)scale(0.1 -0.1)">
       <use xlink:href="#BitstreamVeraSans-Roman-34"/>
       <use x="63.623046875" xlink:href="#BitstreamVeraSans-Roman-30"/>
       <use x="127.24609375" xlink:href="#BitstreamVeraSans-Roman-30"/>
      </g>
     </g>
    </g>
    <g id="xtick_6">
     <g id="line2d_61">
      <g>
       <use style="stroke:#000000;stroke-width:0.5;" x="241.066964286" xlink:href="#m454bd5bd42" y="300.318125"/>
      </g>
     </g>
     <g id="line2d_62">
      <g>
       <use style="stroke:#000000;stroke-width:0.5;" x="241.066964286" xlink:href="#m7ac4bbe3e6" y="21.318125"/>
      </g>
     </g>
     <g id="text_6">
      <!-- 500 -->
      <defs>
       <path d="M 10.796875 72.90625 
L 49.515625 72.90625 
L 49.515625 64.59375 
L 19.828125 64.59375 
L 19.828125 46.734375 
Q 21.96875 47.46875 24.109375 47.828125 
Q 26.265625 48.1875 28.421875 48.1875 
Q 40.625 48.1875 47.75 41.5 
Q 54.890625 34.8125 54.890625 23.390625 
Q 54.890625 11.625 47.5625 5.09375 
Q 40.234375 -1.421875 26.90625 -1.421875 
Q 22.3125 -1.421875 17.546875 -0.640625 
Q 12.796875 0.140625 7.71875 1.703125 
L 7.71875 11.625 
Q 12.109375 9.234375 16.796875 8.0625 
Q 21.484375 6.890625 26.703125 6.890625 
Q 35.15625 6.890625 40.078125 11.328125 
Q 45.015625 15.765625 45.015625 23.390625 
Q 45.015625 31 40.078125 35.4375 
Q 35.15625 39.890625 26.703125 39.890625 
Q 22.75 39.890625 18.8125 39.015625 
Q 14.890625 38.140625 10.796875 36.28125 
z
" id="BitstreamVeraSans-Roman-35"/>
      </defs>
      <g transform="translate(231.523214286 311.9165625)scale(0.1 -0.1)">
       <use xlink:href="#BitstreamVeraSans-Roman-35"/>
       <use x="63.623046875" xlink:href="#BitstreamVeraSans-Roman-30"/>
       <use x="127.24609375" xlink:href="#BitstreamVeraSans-Roman-30"/>
      </g>
     </g>
    </g>
    <g id="xtick_7">
     <g id="line2d_63">
      <g>
       <use style="stroke:#000000;stroke-width:0.5;" x="280.924107143" xlink:href="#m454bd5bd42" y="300.318125"/>
      </g>
     </g>
     <g id="line2d_64">
      <g>
       <use style="stroke:#000000;stroke-width:0.5;" x="280.924107143" xlink:href="#m7ac4bbe3e6" y="21.318125"/>
      </g>
     </g>
     <g id="text_7">
      <!-- 600 -->
      <defs>
       <path d="M 33.015625 40.375 
Q 26.375 40.375 22.484375 35.828125 
Q 18.609375 31.296875 18.609375 23.390625 
Q 18.609375 15.53125 22.484375 10.953125 
Q 26.375 6.390625 33.015625 6.390625 
Q 39.65625 6.390625 43.53125 10.953125 
Q 47.40625 15.53125 47.40625 23.390625 
Q 47.40625 31.296875 43.53125 35.828125 
Q 39.65625 40.375 33.015625 40.375 
M 52.59375 71.296875 
L 52.59375 62.3125 
Q 48.875 64.0625 45.09375 64.984375 
Q 41.3125 65.921875 37.59375 65.921875 
Q 27.828125 65.921875 22.671875 59.328125 
Q 17.53125 52.734375 16.796875 39.40625 
Q 19.671875 43.65625 24.015625 45.921875 
Q 28.375 48.1875 33.59375 48.1875 
Q 44.578125 48.1875 50.953125 41.515625 
Q 57.328125 34.859375 57.328125 23.390625 
Q 57.328125 12.15625 50.6875 5.359375 
Q 44.046875 -1.421875 33.015625 -1.421875 
Q 20.359375 -1.421875 13.671875 8.265625 
Q 6.984375 17.96875 6.984375 36.375 
Q 6.984375 53.65625 15.1875 63.9375 
Q 23.390625 74.21875 37.203125 74.21875 
Q 40.921875 74.21875 44.703125 73.484375 
Q 48.484375 72.75 52.59375 71.296875 
" id="BitstreamVeraSans-Roman-36"/>
      </defs>
      <g transform="translate(271.380357143 311.9165625)scale(0.1 -0.1)">
       <use xlink:href="#BitstreamVeraSans-Roman-36"/>
       <use x="63.623046875" xlink:href="#BitstreamVeraSans-Roman-30"/>
       <use x="127.24609375" xlink:href="#BitstreamVeraSans-Roman-30"/>
      </g>
     </g>
    </g>
    <g id="xtick_8">
     <g id="line2d_65">
      <g>
       <use style="stroke:#000000;stroke-width:0.5;" x="320.78125" xlink:href="#m454bd5bd42" y="300.318125"/>
      </g>
     </g>
     <g id="line2d_66">
      <g>
       <use style="stroke:#000000;stroke-width:0.5;" x="320.78125" xlink:href="#m7ac4bbe3e6" y="21.318125"/>
      </g>
     </g>
     <g id="text_8">
      <!-- 700 -->
      <defs>
       <path d="M 8.203125 72.90625 
L 55.078125 72.90625 
L 55.078125 68.703125 
L 28.609375 0 
L 18.3125 0 
L 43.21875 64.59375 
L 8.203125 64.59375 
z
" id="BitstreamVeraSans-Roman-37"/>
      </defs>
      <g transform="translate(311.2375 311.9165625)scale(0.1 -0.1)">
       <use xlink:href="#BitstreamVeraSans-Roman-37"/>
       <use x="63.623046875" xlink:href="#BitstreamVeraSans-Roman-30"/>
       <use x="127.24609375" xlink:href="#BitstreamVeraSans-Roman-30"/>
      </g>
     </g>
    </g>
    <g id="text_9">
     <!-- Step (C) -->
     <defs>
      <path id="BitstreamVeraSans-Roman-20"/>
      <path d="M 8.015625 75.875 
L 15.828125 75.875 
Q 23.140625 64.359375 26.78125 53.3125 
Q 30.421875 42.28125 30.421875 31.390625 
Q 30.421875 20.453125 26.78125 9.375 
Q 23.140625 -1.703125 15.828125 -13.1875 
L 8.015625 -13.1875 
Q 14.5 -2 17.703125 9.0625 
Q 20.90625 20.125 20.90625 31.390625 
Q 20.90625 42.671875 17.703125 53.65625 
Q 14.5 64.65625 8.015625 75.875 
" id="BitstreamVeraSans-Roman-29"/>
      <path d="M 31 75.875 
Q 24.46875 64.65625 21.28125 53.65625 
Q 18.109375 42.671875 18.109375 31.390625 
Q 18.109375 20.125 21.3125 9.0625 
Q 24.515625 -2 31 -13.1875 
L 23.1875 -13.1875 
Q 15.875 -1.703125 12.234375 9.375 
Q 8.59375 20.453125 8.59375 31.390625 
Q 8.59375 42.28125 12.203125 53.3125 
Q 15.828125 64.359375 23.1875 75.875 
z
" id="BitstreamVeraSans-Roman-28"/>
      <path d="M 53.515625 70.515625 
L 53.515625 60.890625 
Q 47.90625 63.578125 42.921875 64.890625 
Q 37.9375 66.21875 33.296875 66.21875 
Q 25.25 66.21875 20.875 63.09375 
Q 16.5 59.96875 16.5 54.203125 
Q 16.5 49.359375 19.40625 46.890625 
Q 22.3125 44.4375 30.421875 42.921875 
L 36.375 41.703125 
Q 47.40625 39.59375 52.65625 34.296875 
Q 57.90625 29 57.90625 20.125 
Q 57.90625 9.515625 50.796875 4.046875 
Q 43.703125 -1.421875 29.984375 -1.421875 
Q 24.8125 -1.421875 18.96875 -0.25 
Q 13.140625 0.921875 6.890625 3.21875 
L 6.890625 13.375 
Q 12.890625 10.015625 18.65625 8.296875 
Q 24.421875 6.59375 29.984375 6.59375 
Q 38.421875 6.59375 43.015625 9.90625 
Q 47.609375 13.234375 47.609375 19.390625 
Q 47.609375 24.75 44.3125 27.78125 
Q 41.015625 30.8125 33.5 32.328125 
L 27.484375 33.5 
Q 16.453125 35.6875 11.515625 40.375 
Q 6.59375 45.0625 6.59375 53.421875 
Q 6.59375 63.09375 13.40625 68.65625 
Q 20.21875 74.21875 32.171875 74.21875 
Q 37.3125 74.21875 42.625 73.28125 
Q 47.953125 72.359375 53.515625 70.515625 
" id="BitstreamVeraSans-Roman-53"/>
      <path d="M 64.40625 67.28125 
L 64.40625 56.890625 
Q 59.421875 61.53125 53.78125 63.8125 
Q 48.140625 66.109375 41.796875 66.109375 
Q 29.296875 66.109375 22.65625 58.46875 
Q 16.015625 50.828125 16.015625 36.375 
Q 16.015625 21.96875 22.65625 14.328125 
Q 29.296875 6.6875 41.796875 6.6875 
Q 48.140625 6.6875 53.78125 8.984375 
Q 59.421875 11.28125 64.40625 15.921875 
L 64.40625 5.609375 
Q 59.234375 2.09375 53.4375 0.328125 
Q 47.65625 -1.421875 41.21875 -1.421875 
Q 24.65625 -1.421875 15.125 8.703125 
Q 5.609375 18.84375 5.609375 36.375 
Q 5.609375 53.953125 15.125 64.078125 
Q 24.65625 74.21875 41.21875 74.21875 
Q 47.75 74.21875 53.53125 72.484375 
Q 59.328125 70.75 64.40625 67.28125 
" id="BitstreamVeraSans-Roman-43"/>
      <path d="M 56.203125 29.59375 
L 56.203125 25.203125 
L 14.890625 25.203125 
Q 15.484375 15.921875 20.484375 11.0625 
Q 25.484375 6.203125 34.421875 6.203125 
Q 39.59375 6.203125 44.453125 7.46875 
Q 49.3125 8.734375 54.109375 11.28125 
L 54.109375 2.78125 
Q 49.265625 0.734375 44.1875 -0.34375 
Q 39.109375 -1.421875 33.890625 -1.421875 
Q 20.796875 -1.421875 13.15625 6.1875 
Q 5.515625 13.8125 5.515625 26.8125 
Q 5.515625 40.234375 12.765625 48.109375 
Q 20.015625 56 32.328125 56 
Q 43.359375 56 49.78125 48.890625 
Q 56.203125 41.796875 56.203125 29.59375 
M 47.21875 32.234375 
Q 47.125 39.59375 43.09375 43.984375 
Q 39.0625 48.390625 32.421875 48.390625 
Q 24.90625 48.390625 20.390625 44.140625 
Q 15.875 39.890625 15.1875 32.171875 
z
" id="BitstreamVeraSans-Roman-65"/>
      <path d="M 18.3125 70.21875 
L 18.3125 54.6875 
L 36.8125 54.6875 
L 36.8125 47.703125 
L 18.3125 47.703125 
L 18.3125 18.015625 
Q 18.3125 11.328125 20.140625 9.421875 
Q 21.96875 7.515625 27.59375 7.515625 
L 36.8125 7.515625 
L 36.8125 0 
L 27.59375 0 
Q 17.1875 0 13.234375 3.875 
Q 9.28125 7.765625 9.28125 18.015625 
L 9.28125 47.703125 
L 2.6875 47.703125 
L 2.6875 54.6875 
L 9.28125 54.6875 
L 9.28125 70.21875 
z
" id="BitstreamVeraSans-Roman-74"/>
      <path d="M 18.109375 8.203125 
L 18.109375 -20.796875 
L 9.078125 -20.796875 
L 9.078125 54.6875 
L 18.109375 54.6875 
L 18.109375 46.390625 
Q 20.953125 51.265625 25.265625 53.625 
Q 29.59375 56 35.59375 56 
Q 45.5625 56 51.78125 48.09375 
Q 58.015625 40.1875 58.015625 27.296875 
Q 58.015625 14.40625 51.78125 6.484375 
Q 45.5625 -1.421875 35.59375 -1.421875 
Q 29.59375 -1.421875 25.265625 0.953125 
Q 20.953125 3.328125 18.109375 8.203125 
M 48.6875 27.296875 
Q 48.6875 37.203125 44.609375 42.84375 
Q 40.53125 48.484375 33.40625 48.484375 
Q 26.265625 48.484375 22.1875 42.84375 
Q 18.109375 37.203125 18.109375 27.296875 
Q 18.109375 17.390625 22.1875 11.75 
Q 26.265625 6.109375 33.40625 6.109375 
Q 40.53125 6.109375 44.609375 11.75 
Q 48.6875 17.390625 48.6875 27.296875 
" id="BitstreamVeraSans-Roman-70"/>
     </defs>
     <g transform="translate(160.9140625 326.5946875)scale(0.1 -0.1)">
      <use xlink:href="#BitstreamVeraSans-Roman-53"/>
      <use x="63.4765625" xlink:href="#BitstreamVeraSans-Roman-74"/>
      <use x="102.685546875" xlink:href="#BitstreamVeraSans-Roman-65"/>
      <use x="164.208984375" xlink:href="#BitstreamVeraSans-Roman-70"/>
      <use x="227.685546875" xlink:href="#BitstreamVeraSans-Roman-20"/>
      <use x="259.47265625" xlink:href="#BitstreamVeraSans-Roman-28"/>
      <use x="298.486328125" xlink:href="#BitstreamVeraSans-Roman-43"/>
      <use x="368.310546875" xlink:href="#BitstreamVeraSans-Roman-29"/>
     </g>
    </g>
   </g>
   <g id="matplotlib.axis_2">
    <g id="ytick_1">
     <g id="line2d_67">
      <defs>
       <path d="M 0 0 
L 4 0 
" id="m7fd8a37818" style="stroke:#000000;stroke-width:0.5;"/>
      </defs>
      <g>
       <use style="stroke:#000000;stroke-width:0.5;" x="41.78125" xlink:href="#m7fd8a37818" y="300.318125"/>
      </g>
     </g>
     <g id="line2d_68">
      <defs>
       <path d="M 0 0 
L -4 0 
" id="m0feec1e232" style="stroke:#000000;stroke-width:0.5;"/>
      </defs>
      <g>
       <use style="stroke:#000000;stroke-width:0.5;" x="320.78125" xlink:href="#m0feec1e232" y="300.318125"/>
      </g>
     </g>
     <g id="text_10">
      <!-- 0.0 -->
      <defs>
       <path d="M 10.6875 12.40625 
L 21 12.40625 
L 21 0 
L 10.6875 0 
z
" id="BitstreamVeraSans-Roman-2e"/>
      </defs>
      <g transform="translate(21.878125 303.0775)scale(0.1 -0.1)">
       <use xlink:href="#BitstreamVeraSans-Roman-30"/>
       <use x="63.623046875" xlink:href="#BitstreamVeraSans-Roman-2e"/>
       <use x="95.41015625" xlink:href="#BitstreamVeraSans-Roman-30"/>
      </g>
     </g>
    </g>
    <g id="ytick_2">
     <g id="line2d_69">
      <g>
       <use style="stroke:#000000;stroke-width:0.5;" x="41.78125" xlink:href="#m7fd8a37818" y="244.518125"/>
      </g>
     </g>
     <g id="line2d_70">
      <g>
       <use style="stroke:#000000;stroke-width:0.5;" x="320.78125" xlink:href="#m0feec1e232" y="244.518125"/>
      </g>
     </g>
     <g id="text_11">
      <!-- 0.2 -->
      <g transform="translate(21.878125 247.2775)scale(0.1 -0.1)">
       <use xlink:href="#BitstreamVeraSans-Roman-30"/>
       <use x="63.623046875" xlink:href="#BitstreamVeraSans-Roman-2e"/>
       <use x="95.41015625" xlink:href="#BitstreamVeraSans-Roman-32"/>
      </g>
     </g>
    </g>
    <g id="ytick_3">
     <g id="line2d_71">
      <g>
       <use style="stroke:#000000;stroke-width:0.5;" x="41.78125" xlink:href="#m7fd8a37818" y="188.718125"/>
      </g>
     </g>
     <g id="line2d_72">
      <g>
       <use style="stroke:#000000;stroke-width:0.5;" x="320.78125" xlink:href="#m0feec1e232" y="188.718125"/>
      </g>
     </g>
     <g id="text_12">
      <!-- 0.4 -->
      <g transform="translate(21.878125 191.4775)scale(0.1 -0.1)">
       <use xlink:href="#BitstreamVeraSans-Roman-30"/>
       <use x="63.623046875" xlink:href="#BitstreamVeraSans-Roman-2e"/>
       <use x="95.41015625" xlink:href="#BitstreamVeraSans-Roman-34"/>
      </g>
     </g>
    </g>
    <g id="ytick_4">
     <g id="line2d_73">
      <g>
       <use style="stroke:#000000;stroke-width:0.5;" x="41.78125" xlink:href="#m7fd8a37818" y="132.918125"/>
      </g>
     </g>
     <g id="line2d_74">
      <g>
       <use style="stroke:#000000;stroke-width:0.5;" x="320.78125" xlink:href="#m0feec1e232" y="132.918125"/>
      </g>
     </g>
     <g id="text_13">
      <!-- 0.6 -->
      <g transform="translate(21.878125 135.6775)scale(0.1 -0.1)">
       <use xlink:href="#BitstreamVeraSans-Roman-30"/>
       <use x="63.623046875" xlink:href="#BitstreamVeraSans-Roman-2e"/>
       <use x="95.41015625" xlink:href="#BitstreamVeraSans-Roman-36"/>
      </g>
     </g>
    </g>
    <g id="ytick_5">
     <g id="line2d_75">
      <g>
       <use style="stroke:#000000;stroke-width:0.5;" x="41.78125" xlink:href="#m7fd8a37818" y="77.118125"/>
      </g>
     </g>
     <g id="line2d_76">
      <g>
       <use style="stroke:#000000;stroke-width:0.5;" x="320.78125" xlink:href="#m0feec1e232" y="77.118125"/>
      </g>
     </g>
     <g id="text_14">
      <!-- 0.8 -->
      <defs>
       <path d="M 31.78125 34.625 
Q 24.75 34.625 20.71875 30.859375 
Q 16.703125 27.09375 16.703125 20.515625 
Q 16.703125 13.921875 20.71875 10.15625 
Q 24.75 6.390625 31.78125 6.390625 
Q 38.8125 6.390625 42.859375 10.171875 
Q 46.921875 13.96875 46.921875 20.515625 
Q 46.921875 27.09375 42.890625 30.859375 
Q 38.875 34.625 31.78125 34.625 
M 21.921875 38.8125 
Q 15.578125 40.375 12.03125 44.71875 
Q 8.5 49.078125 8.5 55.328125 
Q 8.5 64.0625 14.71875 69.140625 
Q 20.953125 74.21875 31.78125 74.21875 
Q 42.671875 74.21875 48.875 69.140625 
Q 55.078125 64.0625 55.078125 55.328125 
Q 55.078125 49.078125 51.53125 44.71875 
Q 48 40.375 41.703125 38.8125 
Q 48.828125 37.15625 52.796875 32.3125 
Q 56.78125 27.484375 56.78125 20.515625 
Q 56.78125 9.90625 50.3125 4.234375 
Q 43.84375 -1.421875 31.78125 -1.421875 
Q 19.734375 -1.421875 13.25 4.234375 
Q 6.78125 9.90625 6.78125 20.515625 
Q 6.78125 27.484375 10.78125 32.3125 
Q 14.796875 37.15625 21.921875 38.8125 
M 18.3125 54.390625 
Q 18.3125 48.734375 21.84375 45.5625 
Q 25.390625 42.390625 31.78125 42.390625 
Q 38.140625 42.390625 41.71875 45.5625 
Q 45.3125 48.734375 45.3125 54.390625 
Q 45.3125 60.0625 41.71875 63.234375 
Q 38.140625 66.40625 31.78125 66.40625 
Q 25.390625 66.40625 21.84375 63.234375 
Q 18.3125 60.0625 18.3125 54.390625 
" id="BitstreamVeraSans-Roman-38"/>
      </defs>
      <g transform="translate(21.878125 79.8775)scale(0.1 -0.1)">
       <use xlink:href="#BitstreamVeraSans-Roman-30"/>
       <use x="63.623046875" xlink:href="#BitstreamVeraSans-Roman-2e"/>
       <use x="95.41015625" xlink:href="#BitstreamVeraSans-Roman-38"/>
      </g>
     </g>
    </g>
    <g id="ytick_6">
     <g id="line2d_77">
      <g>
       <use style="stroke:#000000;stroke-width:0.5;" x="41.78125" xlink:href="#m7fd8a37818" y="21.318125"/>
      </g>
     </g>
     <g id="line2d_78">
      <g>
       <use style="stroke:#000000;stroke-width:0.5;" x="320.78125" xlink:href="#m0feec1e232" y="21.318125"/>
      </g>
     </g>
     <g id="text_15">
      <!-- 1.0 -->
      <g transform="translate(21.878125 24.0775)scale(0.1 -0.1)">
       <use xlink:href="#BitstreamVeraSans-Roman-31"/>
       <use x="63.623046875" xlink:href="#BitstreamVeraSans-Roman-2e"/>
       <use x="95.41015625" xlink:href="#BitstreamVeraSans-Roman-30"/>
      </g>
     </g>
    </g>
    <g id="text_16">
     <!-- Fractional Magnetization -->
     <defs>
      <path d="M 9.8125 72.90625 
L 24.515625 72.90625 
L 43.109375 23.296875 
L 61.8125 72.90625 
L 76.515625 72.90625 
L 76.515625 0 
L 66.890625 0 
L 66.890625 64.015625 
L 48.09375 14.015625 
L 38.1875 14.015625 
L 19.390625 64.015625 
L 19.390625 0 
L 9.8125 0 
z
" id="BitstreamVeraSans-Roman-4d"/>
      <path d="M 54.890625 33.015625 
L 54.890625 0 
L 45.90625 0 
L 45.90625 32.71875 
Q 45.90625 40.484375 42.875 44.328125 
Q 39.84375 48.1875 33.796875 48.1875 
Q 26.515625 48.1875 22.3125 43.546875 
Q 18.109375 38.921875 18.109375 30.90625 
L 18.109375 0 
L 9.078125 0 
L 9.078125 54.6875 
L 18.109375 54.6875 
L 18.109375 46.1875 
Q 21.34375 51.125 25.703125 53.5625 
Q 30.078125 56 35.796875 56 
Q 45.21875 56 50.046875 50.171875 
Q 54.890625 44.34375 54.890625 33.015625 
" id="BitstreamVeraSans-Roman-6e"/>
      <path d="M 41.109375 46.296875 
Q 39.59375 47.171875 37.8125 47.578125 
Q 36.03125 48 33.890625 48 
Q 26.265625 48 22.1875 43.046875 
Q 18.109375 38.09375 18.109375 28.8125 
L 18.109375 0 
L 9.078125 0 
L 9.078125 54.6875 
L 18.109375 54.6875 
L 18.109375 46.1875 
Q 20.953125 51.171875 25.484375 53.578125 
Q 30.03125 56 36.53125 56 
Q 37.453125 56 38.578125 55.875 
Q 39.703125 55.765625 41.0625 55.515625 
z
" id="BitstreamVeraSans-Roman-72"/>
      <path d="M 30.609375 48.390625 
Q 23.390625 48.390625 19.1875 42.75 
Q 14.984375 37.109375 14.984375 27.296875 
Q 14.984375 17.484375 19.15625 11.84375 
Q 23.34375 6.203125 30.609375 6.203125 
Q 37.796875 6.203125 41.984375 11.859375 
Q 46.1875 17.53125 46.1875 27.296875 
Q 46.1875 37.015625 41.984375 42.703125 
Q 37.796875 48.390625 30.609375 48.390625 
M 30.609375 56 
Q 42.328125 56 49.015625 48.375 
Q 55.71875 40.765625 55.71875 27.296875 
Q 55.71875 13.875 49.015625 6.21875 
Q 42.328125 -1.421875 30.609375 -1.421875 
Q 18.84375 -1.421875 12.171875 6.21875 
Q 5.515625 13.875 5.515625 27.296875 
Q 5.515625 40.765625 12.171875 48.375 
Q 18.84375 56 30.609375 56 
" id="BitstreamVeraSans-Roman-6f"/>
      <path d="M 9.421875 75.984375 
L 18.40625 75.984375 
L 18.40625 0 
L 9.421875 0 
z
" id="BitstreamVeraSans-Roman-6c"/>
      <path d="M 5.515625 54.6875 
L 48.1875 54.6875 
L 48.1875 46.484375 
L 14.40625 7.171875 
L 48.1875 7.171875 
L 48.1875 0 
L 4.296875 0 
L 4.296875 8.203125 
L 38.09375 47.515625 
L 5.515625 47.515625 
z
" id="BitstreamVeraSans-Roman-7a"/>
      <path d="M 9.8125 72.90625 
L 51.703125 72.90625 
L 51.703125 64.59375 
L 19.671875 64.59375 
L 19.671875 43.109375 
L 48.578125 43.109375 
L 48.578125 34.8125 
L 19.671875 34.8125 
L 19.671875 0 
L 9.8125 0 
z
" id="BitstreamVeraSans-Roman-46"/>
      <path d="M 9.421875 54.6875 
L 18.40625 54.6875 
L 18.40625 0 
L 9.421875 0 
z
M 9.421875 75.984375 
L 18.40625 75.984375 
L 18.40625 64.59375 
L 9.421875 64.59375 
z
" id="BitstreamVeraSans-Roman-69"/>
      <path d="M 45.40625 27.984375 
Q 45.40625 37.75 41.375 43.109375 
Q 37.359375 48.484375 30.078125 48.484375 
Q 22.859375 48.484375 18.828125 43.109375 
Q 14.796875 37.75 14.796875 27.984375 
Q 14.796875 18.265625 18.828125 12.890625 
Q 22.859375 7.515625 30.078125 7.515625 
Q 37.359375 7.515625 41.375 12.890625 
Q 45.40625 18.265625 45.40625 27.984375 
M 54.390625 6.78125 
Q 54.390625 -7.171875 48.1875 -13.984375 
Q 42 -20.796875 29.203125 -20.796875 
Q 24.46875 -20.796875 20.265625 -20.09375 
Q 16.0625 -19.390625 12.109375 -17.921875 
L 12.109375 -9.1875 
Q 16.0625 -11.328125 19.921875 -12.34375 
Q 23.78125 -13.375 27.78125 -13.375 
Q 36.625 -13.375 41.015625 -8.765625 
Q 45.40625 -4.15625 45.40625 5.171875 
L 45.40625 9.625 
Q 42.625 4.78125 38.28125 2.390625 
Q 33.9375 0 27.875 0 
Q 17.828125 0 11.671875 7.65625 
Q 5.515625 15.328125 5.515625 27.984375 
Q 5.515625 40.671875 11.671875 48.328125 
Q 17.828125 56 27.875 56 
Q 33.9375 56 38.28125 53.609375 
Q 42.625 51.21875 45.40625 46.390625 
L 45.40625 54.6875 
L 54.390625 54.6875 
z
" id="BitstreamVeraSans-Roman-67"/>
      <path d="M 34.28125 27.484375 
Q 23.390625 27.484375 19.1875 25 
Q 14.984375 22.515625 14.984375 16.5 
Q 14.984375 11.71875 18.140625 8.90625 
Q 21.296875 6.109375 26.703125 6.109375 
Q 34.1875 6.109375 38.703125 11.40625 
Q 43.21875 16.703125 43.21875 25.484375 
L 43.21875 27.484375 
z
M 52.203125 31.203125 
L 52.203125 0 
L 43.21875 0 
L 43.21875 8.296875 
Q 40.140625 3.328125 35.546875 0.953125 
Q 30.953125 -1.421875 24.3125 -1.421875 
Q 15.921875 -1.421875 10.953125 3.296875 
Q 6 8.015625 6 15.921875 
Q 6 25.140625 12.171875 29.828125 
Q 18.359375 34.515625 30.609375 34.515625 
L 43.21875 34.515625 
L 43.21875 35.40625 
Q 43.21875 41.609375 39.140625 45 
Q 35.0625 48.390625 27.6875 48.390625 
Q 23 48.390625 18.546875 47.265625 
Q 14.109375 46.140625 10.015625 43.890625 
L 10.015625 52.203125 
Q 14.9375 54.109375 19.578125 55.046875 
Q 24.21875 56 28.609375 56 
Q 40.484375 56 46.34375 49.84375 
Q 52.203125 43.703125 52.203125 31.203125 
" id="BitstreamVeraSans-Roman-61"/>
      <path d="M 48.78125 52.59375 
L 48.78125 44.1875 
Q 44.96875 46.296875 41.140625 47.34375 
Q 37.3125 48.390625 33.40625 48.390625 
Q 24.65625 48.390625 19.8125 42.84375 
Q 14.984375 37.3125 14.984375 27.296875 
Q 14.984375 17.28125 19.8125 11.734375 
Q 24.65625 6.203125 33.40625 6.203125 
Q 37.3125 6.203125 41.140625 7.25 
Q 44.96875 8.296875 48.78125 10.40625 
L 48.78125 2.09375 
Q 45.015625 0.34375 40.984375 -0.53125 
Q 36.96875 -1.421875 32.421875 -1.421875 
Q 20.0625 -1.421875 12.78125 6.34375 
Q 5.515625 14.109375 5.515625 27.296875 
Q 5.515625 40.671875 12.859375 48.328125 
Q 20.21875 56 33.015625 56 
Q 37.15625 56 41.109375 55.140625 
Q 45.0625 54.296875 48.78125 52.59375 
" id="BitstreamVeraSans-Roman-63"/>
     </defs>
     <g transform="translate(14.7984375 222.58921875)rotate(-90.0)scale(0.1 -0.1)">
      <use xlink:href="#BitstreamVeraSans-Roman-46"/>
      <use x="57.41015625" xlink:href="#BitstreamVeraSans-Roman-72"/>
      <use x="98.5234375" xlink:href="#BitstreamVeraSans-Roman-61"/>
      <use x="159.802734375" xlink:href="#BitstreamVeraSans-Roman-63"/>
      <use x="214.783203125" xlink:href="#BitstreamVeraSans-Roman-74"/>
      <use x="253.9921875" xlink:href="#BitstreamVeraSans-Roman-69"/>
      <use x="281.775390625" xlink:href="#BitstreamVeraSans-Roman-6f"/>
      <use x="342.95703125" xlink:href="#BitstreamVeraSans-Roman-6e"/>
      <use x="406.3359375" xlink:href="#BitstreamVeraSans-Roman-61"/>
      <use x="467.615234375" xlink:href="#BitstreamVeraSans-Roman-6c"/>
      <use x="495.3984375" xlink:href="#BitstreamVeraSans-Roman-20"/>
      <use x="527.185546875" xlink:href="#BitstreamVeraSans-Roman-4d"/>
      <use x="613.46484375" xlink:href="#BitstreamVeraSans-Roman-61"/>
      <use x="674.744140625" xlink:href="#BitstreamVeraSans-Roman-67"/>
      <use x="738.220703125" xlink:href="#BitstreamVeraSans-Roman-6e"/>
      <use x="801.599609375" xlink:href="#BitstreamVeraSans-Roman-65"/>
      <use x="863.123046875" xlink:href="#BitstreamVeraSans-Roman-74"/>
      <use x="902.33203125" xlink:href="#BitstreamVeraSans-Roman-69"/>
      <use x="930.115234375" xlink:href="#BitstreamVeraSans-Roman-7a"/>
      <use x="982.60546875" xlink:href="#BitstreamVeraSans-Roman-61"/>
      <use x="1043.88476562" xlink:href="#BitstreamVeraSans-Roman-74"/>
      <use x="1083.09375" xlink:href="#BitstreamVeraSans-Roman-69"/>
      <use x="1110.87695312" xlink:href="#BitstreamVeraSans-Roman-6f"/>
      <use x="1172.05859375" xlink:href="#BitstreamVeraSans-Roman-6e"/>
     </g>
    </g>
   </g>
   <g id="text_17">
    <!-- SLB29 -->
    <defs>
     <path d="M 10.984375 1.515625 
L 10.984375 10.5 
Q 14.703125 8.734375 18.5 7.8125 
Q 22.3125 6.890625 25.984375 6.890625 
Q 35.75 6.890625 40.890625 13.453125 
Q 46.046875 20.015625 46.78125 33.40625 
Q 43.953125 29.203125 39.59375 26.953125 
Q 35.25 24.703125 29.984375 24.703125 
Q 19.046875 24.703125 12.671875 31.3125 
Q 6.296875 37.9375 6.296875 49.421875 
Q 6.296875 60.640625 12.9375 67.421875 
Q 19.578125 74.21875 30.609375 74.21875 
Q 43.265625 74.21875 49.921875 64.515625 
Q 56.59375 54.828125 56.59375 36.375 
Q 56.59375 19.140625 48.40625 8.859375 
Q 40.234375 -1.421875 26.421875 -1.421875 
Q 22.703125 -1.421875 18.890625 -0.6875 
Q 15.09375 0.046875 10.984375 1.515625 
M 30.609375 32.421875 
Q 37.25 32.421875 41.125 36.953125 
Q 45.015625 41.5 45.015625 49.421875 
Q 45.015625 57.28125 41.125 61.84375 
Q 37.25 66.40625 30.609375 66.40625 
Q 23.96875 66.40625 20.09375 61.84375 
Q 16.21875 57.28125 16.21875 49.421875 
Q 16.21875 41.5 20.09375 36.953125 
Q 23.96875 32.421875 30.609375 32.421875 
" id="BitstreamVeraSans-Roman-39"/>
     <path d="M 9.8125 72.90625 
L 19.671875 72.90625 
L 19.671875 8.296875 
L 55.171875 8.296875 
L 55.171875 0 
L 9.8125 0 
z
" id="BitstreamVeraSans-Roman-4c"/>
     <path d="M 19.671875 34.8125 
L 19.671875 8.109375 
L 35.5 8.109375 
Q 43.453125 8.109375 47.28125 11.40625 
Q 51.125 14.703125 51.125 21.484375 
Q 51.125 28.328125 47.28125 31.5625 
Q 43.453125 34.8125 35.5 34.8125 
z
M 19.671875 64.796875 
L 19.671875 42.828125 
L 34.28125 42.828125 
Q 41.5 42.828125 45.03125 45.53125 
Q 48.578125 48.25 48.578125 53.8125 
Q 48.578125 59.328125 45.03125 62.0625 
Q 41.5 64.796875 34.28125 64.796875 
z
M 9.8125 72.90625 
L 35.015625 72.90625 
Q 46.296875 72.90625 52.390625 68.21875 
Q 58.5 63.53125 58.5 54.890625 
Q 58.5 48.1875 55.375 44.234375 
Q 52.25 40.28125 46.1875 39.3125 
Q 53.46875 37.75 57.5 32.78125 
Q 61.53125 27.828125 61.53125 20.40625 
Q 61.53125 10.640625 54.890625 5.3125 
Q 48.25 0 35.984375 0 
L 9.8125 0 
z
" id="BitstreamVeraSans-Roman-42"/>
    </defs>
    <g transform="translate(162.3775 16.318125)scale(0.12 -0.12)">
     <use xlink:href="#BitstreamVeraSans-Roman-53"/>
     <use x="63.4765625" xlink:href="#BitstreamVeraSans-Roman-4c"/>
     <use x="119.189453125" xlink:href="#BitstreamVeraSans-Roman-42"/>
     <use x="187.79296875" xlink:href="#BitstreamVeraSans-Roman-32"/>
     <use x="251.416015625" xlink:href="#BitstreamVeraSans-Roman-39"/>
    </g>
   </g>
  </g>
 </g>
 <defs>
  <clipPath id="pcd48982328">
   <rect height="279.0" width="279.0" x="41.78125" y="21.318125"/>
  </clipPath>
 </defs>
</svg>
