<?xml version="1.0" encoding="utf-8" standalone="no"?>
<!DOCTYPE svg PUBLIC "-//W3C//DTD SVG 1.1//EN"
  "http://www.w3.org/Graphics/SVG/1.1/DTD/svg11.dtd">
<!-- Created with matplotlib (http://matplotlib.org/) -->
<svg height="511pt" version="1.1" viewBox="0 0 496 511" width="496pt" xmlns="http://www.w3.org/2000/svg" xmlns:xlink="http://www.w3.org/1999/xlink">
 <defs>
  <style type="text/css">
*{stroke-linecap:butt;stroke-linejoin:round;stroke-miterlimit:100000;}
  </style>
 </defs>
 <g id="figure_1">
  <g id="patch_1">
   <path d="M 0 511.59625 
L 496.557812 511.59625 
L 496.557812 0 
L 0 0 
L 0 511.59625 
z
" style="fill:none;"/>
  </g>
  <g id="axes_1">
   <g id="PathCollection_1">
    <defs>
     <path d="M 0 2.236068 
C 0.593012 2.236068 1.161816 2.000462 1.581139 1.581139 
C 2.000462 1.161816 2.236068 0.593012 2.236068 0 
C 2.236068 -0.593012 2.000462 -1.161816 1.581139 -1.581139 
C 1.161816 -2.000462 0.593012 -2.236068 0 -2.236068 
C -0.593012 -2.236068 -1.161816 -2.000462 -1.581139 -1.581139 
C -2.000462 -1.161816 -2.236068 -0.593012 -2.236068 0 
C -2.236068 0.593012 -2.000462 1.161816 -1.581139 1.581139 
C -1.161816 2.000462 -0.593012 2.236068 0 2.236068 
z
" id="m9a742edd9e" style="stroke:#000000;"/>
    </defs>
    <g clip-path="url(#pac293f15bf)">
     <use style="stroke:#000000;" x="47.7186216444" xlink:href="#m9a742edd9e" y="244.766086174"/>
    </g>
   </g>
   <g id="PathCollection_2">
    <defs>
     <path d="M 0 2.236068 
C 0.593012 2.236068 1.161816 2.000462 1.581139 1.581139 
C 2.000462 1.161816 2.236068 0.593012 2.236068 0 
C 2.236068 -0.593012 2.000462 -1.161816 1.581139 -1.581139 
C 1.161816 -2.000462 0.593012 -2.236068 0 -2.236068 
C -0.593012 -2.236068 -1.161816 -2.000462 -1.581139 -1.581139 
C -2.000462 -1.161816 -2.236068 -0.593012 -2.236068 0 
C -2.236068 0.593012 -2.000462 1.161816 -1.581139 1.581139 
C -1.161816 2.000462 -0.593012 2.236068 0 2.236068 
z
" id="m08e0612826" style="stroke:#000000;"/>
    </defs>
    <g clip-path="url(#pac293f15bf)">
     <use style="fill:#ffffff;stroke:#000000;" x="73.0985123144" xlink:href="#m08e0612826" y="162.037967224"/>
    </g>
   </g>
   <g id="PathCollection_3">
    <g clip-path="url(#pac293f15bf)">
     <use style="fill:#ffffff;stroke:#000000;" x="71.3677527015" xlink:href="#m08e0612826" y="157.830446354"/>
    </g>
   </g>
   <g id="PathCollection_4">
    <g clip-path="url(#pac293f15bf)">
     <use style="stroke:#000000;" x="78.8032859329" xlink:href="#m9a742edd9e" y="182.204553592"/>
    </g>
   </g>
   <g id="PathCollection_5">
    <g clip-path="url(#pac293f15bf)">
     <use style="stroke:#000000;" x="116.161680207" xlink:href="#m9a742edd9e" y="164.625588228"/>
    </g>
   </g>
   <g id="PathCollection_6">
    <g clip-path="url(#pac293f15bf)">
     <use style="stroke:#000000;" x="83.192041163" xlink:href="#m9a742edd9e" y="164.302384879"/>
    </g>
   </g>
   <g id="PathCollection_7">
    <g clip-path="url(#pac293f15bf)">
     <use style="stroke:#000000;" x="74.8390322013" xlink:href="#m9a742edd9e" y="220.574274131"/>
    </g>
   </g>
   <g id="PathCollection_8">
    <g clip-path="url(#pac293f15bf)">
     <use style="stroke:#000000;" x="68.6145135561" xlink:href="#m9a742edd9e" y="222.542050752"/>
    </g>
   </g>
   <g id="PathCollection_9">
    <g clip-path="url(#pac293f15bf)">
     <use style="stroke:#000000;" x="108.995467321" xlink:href="#m9a742edd9e" y="210.862737449"/>
    </g>
   </g>
   <g id="PathCollection_10">
    <g clip-path="url(#pac293f15bf)">
     <use style="stroke:#000000;" x="61.0255580146" xlink:href="#m9a742edd9e" y="273.283745995"/>
    </g>
   </g>
   <g id="PathCollection_11">
    <g clip-path="url(#pac293f15bf)">
     <use style="stroke:#000000;" x="69.0399341522" xlink:href="#m9a742edd9e" y="210.304940651"/>
    </g>
   </g>
   <g id="PathCollection_12">
    <g clip-path="url(#pac293f15bf)">
     <use style="fill:#ffffff;stroke:#000000;" x="63.4909793582" xlink:href="#m08e0612826" y="181.245504439"/>
    </g>
   </g>
   <g id="PathCollection_13">
    <g clip-path="url(#pac293f15bf)">
     <use style="stroke:#000000;" x="128.194176668" xlink:href="#m9a742edd9e" y="173.764243173"/>
    </g>
   </g>
   <g id="PathCollection_14">
    <g clip-path="url(#pac293f15bf)">
     <use style="stroke:#000000;" x="76.8674616284" xlink:href="#m9a742edd9e" y="209.410470341"/>
    </g>
   </g>
   <g id="PathCollection_15">
    <g clip-path="url(#pac293f15bf)">
     <use style="stroke:#000000;" x="69.013962231" xlink:href="#m9a742edd9e" y="179.833337579"/>
    </g>
   </g>
   <g id="PathCollection_16">
    <g clip-path="url(#pac293f15bf)">
     <use style="fill:#ffffff;stroke:#000000;" x="62.0184348013" xlink:href="#m08e0612826" y="193.215983353"/>
    </g>
   </g>
   <g id="PathCollection_17">
    <g clip-path="url(#pac293f15bf)">
     <use style="stroke:#000000;" x="111.716136884" xlink:href="#m9a742edd9e" y="196.045649652"/>
    </g>
   </g>
   <g id="PathCollection_18">
    <g clip-path="url(#pac293f15bf)">
     <use style="stroke:#000000;" x="70.9588409703" xlink:href="#m9a742edd9e" y="177.10340106"/>
    </g>
   </g>
   <g id="PathCollection_19">
    <g clip-path="url(#pac293f15bf)">
     <use style="stroke:#000000;" x="78.6637173463" xlink:href="#m9a742edd9e" y="177.259947718"/>
    </g>
   </g>
   <g id="PathCollection_20">
    <g clip-path="url(#pac293f15bf)">
     <use style="stroke:#000000;" x="70.760932454" xlink:href="#m9a742edd9e" y="245.638224013"/>
    </g>
   </g>
   <g id="PathCollection_21">
    <g clip-path="url(#pac293f15bf)">
     <use style="stroke:#000000;" x="97.8397706828" xlink:href="#m9a742edd9e" y="221.035450914"/>
    </g>
   </g>
   <g id="PathCollection_22">
    <defs>
     <path d="M -2.236068 2.236068 
L 2.236068 2.236068 
L 2.236068 -2.236068 
L -2.236068 -2.236068 
z
" id="mb6dbe36bf9" style="stroke:#ff0000;"/>
    </defs>
    <g clip-path="url(#pac293f15bf)">
     <use style="fill:#ff0000;stroke:#ff0000;" x="75.8330485931" xlink:href="#mb6dbe36bf9" y="196.905435001"/>
    </g>
   </g>
   <g id="line2d_1">
    <path clip-path="url(#pac293f15bf)" d="M 262.420312 39.887173 
L 266.192318 39.92009 
L 269.963174 40.018834 
L 277.496846 40.413657 
L 285.012149 41.071161 
L 292.499927 41.990544 
L 299.951059 43.170687 
L 307.356464 44.610152 
L 314.707122 46.307186 
L 321.994077 48.259719 
L 329.20845 50.465374 
L 336.341452 52.921464 
L 343.384392 55.624995 
L 350.328691 58.572675 
L 357.165886 61.760912 
L 363.887648 65.185821 
L 370.485789 68.84323 
L 376.952268 72.728682 
L 383.279207 76.837445 
L 389.458899 81.164512 
L 395.483814 85.70461 
L 401.346611 90.45221 
L 407.040148 95.401526 
L 412.557488 100.546529 
L 417.891909 105.88095 
L 423.036911 111.39829 
L 427.986228 117.091827 
L 432.733827 122.954624 
L 437.273926 128.979539 
L 441.600993 135.15923 
L 445.709755 141.48617 
L 449.595208 147.952649 
L 453.252617 154.550789 
L 456.677526 161.272552 
L 459.865762 168.109747 
L 462.813442 175.054045 
L 465.516974 182.096986 
L 467.973063 189.229988 
L 470.178718 196.444361 
L 472.131252 203.731315 
L 473.828285 211.081973 
L 475.26775 218.487379 
L 476.447893 225.93851 
L 477.367277 233.426289 
L 478.024781 240.941592 
L 478.419604 248.475264 
L 478.551265 256.018125 
L 478.419604 263.560986 
L 478.024781 271.094658 
L 477.367277 278.609961 
L 476.447893 286.09774 
L 475.26775 293.548871 
L 473.828285 300.954277 
L 472.131252 308.304935 
L 470.178718 315.591889 
L 467.973063 322.806262 
L 465.516974 329.939264 
L 462.813442 336.982205 
L 459.865762 343.926503 
L 456.677526 350.763698 
L 453.252617 357.485461 
L 449.595208 364.083601 
L 445.709755 370.55008 
L 441.600993 376.87702 
L 437.273926 383.056711 
L 432.733827 389.081626 
L 427.986228 394.944423 
L 423.036911 400.63796 
L 417.891909 406.1553 
L 412.557488 411.489721 
L 407.040148 416.634724 
L 401.346611 421.58404 
L 395.483814 426.33164 
L 389.458899 430.871738 
L 383.279207 435.198805 
L 376.952268 439.307568 
L 370.485789 443.19302 
L 363.887648 446.850429 
L 357.165886 450.275338 
L 350.328691 453.463575 
L 343.384392 456.411255 
L 336.341452 459.114786 
L 329.20845 461.570876 
L 321.994077 463.776531 
L 314.707122 465.729064 
L 307.356464 467.426098 
L 299.951059 468.865563 
L 292.499927 470.045706 
L 285.012149 470.965089 
L 277.496846 471.622593 
L 269.963174 472.017416 
L 262.420312 472.149077 
L 254.877451 472.017416 
L 247.343779 471.622593 
L 239.828476 470.965089 
L 232.340698 470.045706 
L 224.889566 468.865563 
L 217.484161 467.426098 
L 210.133503 465.729064 
L 202.846548 463.776531 
L 195.632175 461.570876 
L 188.499173 459.114786 
L 181.456233 456.411255 
L 174.511934 453.463575 
L 167.674739 450.275338 
L 160.952977 446.850429 
L 154.354836 443.19302 
L 147.888357 439.307568 
L 141.561418 435.198805 
L 135.381726 430.871738 
L 129.356811 426.33164 
L 123.494014 421.58404 
L 117.800477 416.634724 
L 112.283137 411.489721 
L 106.948716 406.1553 
L 101.803714 400.63796 
L 96.854397 394.944423 
L 92.106798 389.081626 
L 87.566699 383.056711 
L 83.239632 376.87702 
L 79.13087 370.55008 
L 75.245417 364.083601 
L 71.588008 357.485461 
L 68.163099 350.763698 
L 64.974863 343.926503 
L 62.027183 336.982205 
L 59.323651 329.939264 
L 56.867562 322.806262 
L 54.661907 315.591889 
L 52.709373 308.304935 
L 51.01234 300.954277 
L 49.572875 293.548871 
L 48.392732 286.09774 
L 47.473348 278.609961 
L 46.815844 271.094658 
L 46.421021 263.560986 
L 46.28936 256.018125 
L 46.421021 248.475264 
L 46.815844 240.941592 
L 47.473348 233.426289 
L 48.392732 225.93851 
L 49.572875 218.487379 
L 51.01234 211.081973 
L 52.709373 203.731315 
L 54.661907 196.444361 
L 56.867562 189.229988 
L 59.323651 182.096986 
L 62.027183 175.054045 
L 64.974863 168.109747 
L 68.163099 161.272552 
L 71.588008 154.550789 
L 75.245417 147.952649 
L 79.13087 141.48617 
L 83.239632 135.15923 
L 87.566699 128.979539 
L 92.106798 122.954624 
L 96.854397 117.091827 
L 101.803714 111.39829 
L 106.948716 105.88095 
L 112.283137 100.546529 
L 117.800477 95.401526 
L 123.494014 90.45221 
L 129.356811 85.70461 
L 135.381726 81.164512 
L 141.561418 76.837445 
L 147.888357 72.728682 
L 154.354836 68.84323 
L 160.952977 65.185821 
L 167.674739 61.760912 
L 174.511934 58.572675 
L 181.456233 55.624995 
L 188.499173 52.921464 
L 195.632175 50.465374 
L 202.846548 48.259719 
L 210.133503 46.307186 
L 217.484161 44.610152 
L 224.889566 43.170687 
L 232.340698 41.990544 
L 239.828476 41.071161 
L 247.343779 40.413657 
L 254.877451 40.018834 
L 262.420312 39.887173 
L 262.420312 39.887173 
" style="fill:none;stroke:#000000;stroke-linecap:square;"/>
   </g>
   <g id="line2d_2">
    <defs>
     <path d="M -3 0 
L 3 0 
M 0 3 
L 0 -3 
" id="mb9f87a8df0" style="stroke:#000000;stroke-width:0.5;"/>
    </defs>
    <g clip-path="url(#pac293f15bf)">
     <use style="stroke:#000000;stroke-width:0.5;" x="262.4203125" xlink:href="#mb9f87a8df0" y="59.5466698301"/>
     <use style="stroke:#000000;stroke-width:0.5;" x="262.4203125" xlink:href="#mb9f87a8df0" y="80.7014334477"/>
     <use style="stroke:#000000;stroke-width:0.5;" x="262.4203125" xlink:href="#mb9f87a8df0" y="103.190462947"/>
     <use style="stroke:#000000;stroke-width:0.5;" x="262.4203125" xlink:href="#mb9f87a8df0" y="126.842603235"/>
     <use style="stroke:#000000;stroke-width:0.5;" x="262.4203125" xlink:href="#mb9f87a8df0" y="151.477847241"/>
     <use style="stroke:#000000;stroke-width:0.5;" x="262.4203125" xlink:href="#mb9f87a8df0" y="176.908705884"/>
     <use style="stroke:#000000;stroke-width:0.5;" x="262.4203125" xlink:href="#mb9f87a8df0" y="202.941634975"/>
     <use style="stroke:#000000;stroke-width:0.5;" x="262.4203125" xlink:href="#mb9f87a8df0" y="229.378508203"/>
     <use style="stroke:#000000;stroke-width:0.5;" x="262.4203125" xlink:href="#mb9f87a8df0" y="256.018125"/>
    </g>
   </g>
   <g id="line2d_3">
    <g clip-path="url(#pac293f15bf)">
     <use style="stroke:#000000;stroke-width:0.5;" x="458.89176767" xlink:href="#mb9f87a8df0" y="256.018125"/>
     <use style="stroke:#000000;stroke-width:0.5;" x="437.737004052" xlink:href="#mb9f87a8df0" y="256.018125"/>
     <use style="stroke:#000000;stroke-width:0.5;" x="415.247974553" xlink:href="#mb9f87a8df0" y="256.018125"/>
     <use style="stroke:#000000;stroke-width:0.5;" x="391.595834265" xlink:href="#mb9f87a8df0" y="256.018125"/>
     <use style="stroke:#000000;stroke-width:0.5;" x="366.960590259" xlink:href="#mb9f87a8df0" y="256.018125"/>
     <use style="stroke:#000000;stroke-width:0.5;" x="341.529731616" xlink:href="#mb9f87a8df0" y="256.018125"/>
     <use style="stroke:#000000;stroke-width:0.5;" x="315.496802525" xlink:href="#mb9f87a8df0" y="256.018125"/>
     <use style="stroke:#000000;stroke-width:0.5;" x="289.059929297" xlink:href="#mb9f87a8df0" y="256.018125"/>
    </g>
   </g>
   <g id="line2d_4">
    <g clip-path="url(#pac293f15bf)">
     <use style="stroke:#000000;stroke-width:0.5;" x="262.4203125" xlink:href="#mb9f87a8df0" y="452.48958017"/>
     <use style="stroke:#000000;stroke-width:0.5;" x="262.4203125" xlink:href="#mb9f87a8df0" y="431.334816552"/>
     <use style="stroke:#000000;stroke-width:0.5;" x="262.4203125" xlink:href="#mb9f87a8df0" y="408.845787053"/>
     <use style="stroke:#000000;stroke-width:0.5;" x="262.4203125" xlink:href="#mb9f87a8df0" y="385.193646765"/>
     <use style="stroke:#000000;stroke-width:0.5;" x="262.4203125" xlink:href="#mb9f87a8df0" y="360.558402759"/>
     <use style="stroke:#000000;stroke-width:0.5;" x="262.4203125" xlink:href="#mb9f87a8df0" y="335.127544116"/>
     <use style="stroke:#000000;stroke-width:0.5;" x="262.4203125" xlink:href="#mb9f87a8df0" y="309.094615025"/>
     <use style="stroke:#000000;stroke-width:0.5;" x="262.4203125" xlink:href="#mb9f87a8df0" y="282.657741797"/>
    </g>
   </g>
   <g id="line2d_5">
    <g clip-path="url(#pac293f15bf)">
     <use style="stroke:#000000;stroke-width:0.5;" x="65.9488573301" xlink:href="#mb9f87a8df0" y="256.018125"/>
     <use style="stroke:#000000;stroke-width:0.5;" x="87.1036209477" xlink:href="#mb9f87a8df0" y="256.018125"/>
     <use style="stroke:#000000;stroke-width:0.5;" x="109.592650447" xlink:href="#mb9f87a8df0" y="256.018125"/>
     <use style="stroke:#000000;stroke-width:0.5;" x="133.244790735" xlink:href="#mb9f87a8df0" y="256.018125"/>
     <use style="stroke:#000000;stroke-width:0.5;" x="157.880034741" xlink:href="#mb9f87a8df0" y="256.018125"/>
     <use style="stroke:#000000;stroke-width:0.5;" x="183.310893384" xlink:href="#mb9f87a8df0" y="256.018125"/>
     <use style="stroke:#000000;stroke-width:0.5;" x="209.343822475" xlink:href="#mb9f87a8df0" y="256.018125"/>
     <use style="stroke:#000000;stroke-width:0.5;" x="235.780695703" xlink:href="#mb9f87a8df0" y="256.018125"/>
    </g>
   </g>
   <g id="line2d_6">
    <path clip-path="url(#pac293f15bf)" d="M 262.420312 39.887173 
L 262.420312 41.781477 
L 262.420312 43.692096 
L 262.420312 45.618884 
" style="fill:none;stroke:#000000;stroke-linecap:square;"/>
   </g>
   <g id="line2d_7">
    <path clip-path="url(#pac293f15bf)" d="M 299.951059 43.170687 
L 299.622116 45.036213 
L 299.290341 46.917805 
L 298.955757 48.815321 
" style="fill:none;stroke:#000000;stroke-linecap:square;"/>
   </g>
   <g id="line2d_8">
    <path clip-path="url(#pac293f15bf)" d="M 336.341452 52.921464 
L 335.693562 54.701527 
L 335.040091 56.496922 
L 334.381091 58.307511 
" style="fill:none;stroke:#000000;stroke-linecap:square;"/>
   </g>
   <g id="line2d_9">
    <path clip-path="url(#pac293f15bf)" d="M 370.485789 68.84323 
L 369.538637 70.483745 
L 368.583327 72.13839 
L 367.619933 73.807037 
" style="fill:none;stroke:#000000;stroke-linecap:square;"/>
   </g>
   <g id="line2d_10">
    <path clip-path="url(#pac293f15bf)" d="M 401.346611 90.45221 
L 400.128976 91.903331 
L 398.900853 93.36695 
L 397.662338 94.842956 
" style="fill:none;stroke:#000000;stroke-linecap:square;"/>
   </g>
   <g id="line2d_11">
    <path clip-path="url(#pac293f15bf)" d="M 427.986228 117.091827 
L 426.535106 118.309462 
L 425.071487 119.537584 
L 423.595482 120.7761 
" style="fill:none;stroke:#000000;stroke-linecap:square;"/>
   </g>
   <g id="line2d_12">
    <path clip-path="url(#pac293f15bf)" d="M 449.595208 147.952649 
L 447.954692 148.899801 
L 446.300048 149.85511 
L 444.6314 150.818505 
" style="fill:none;stroke:#000000;stroke-linecap:square;"/>
   </g>
   <g id="line2d_13">
    <path clip-path="url(#pac293f15bf)" d="M 465.516974 182.096986 
L 463.73691 182.744876 
L 461.941515 183.398346 
L 460.130927 184.057346 
" style="fill:none;stroke:#000000;stroke-linecap:square;"/>
   </g>
   <g id="line2d_14">
    <path clip-path="url(#pac293f15bf)" d="M 475.26775 218.487379 
L 473.402225 218.816321 
L 471.520632 219.148097 
L 469.623116 219.48268 
" style="fill:none;stroke:#000000;stroke-linecap:square;"/>
   </g>
   <g id="line2d_15">
    <path clip-path="url(#pac293f15bf)" d="M 478.551265 256.018125 
L 476.656961 256.018125 
L 474.746342 256.018125 
L 472.819553 256.018125 
" style="fill:none;stroke:#000000;stroke-linecap:square;"/>
   </g>
   <g id="line2d_16">
    <path clip-path="url(#pac293f15bf)" d="M 475.26775 293.548871 
L 473.402225 293.219929 
L 471.520632 292.888153 
L 469.623116 292.55357 
" style="fill:none;stroke:#000000;stroke-linecap:square;"/>
   </g>
   <g id="line2d_17">
    <path clip-path="url(#pac293f15bf)" d="M 465.516974 329.939264 
L 463.73691 329.291374 
L 461.941515 328.637904 
L 460.130927 327.978904 
" style="fill:none;stroke:#000000;stroke-linecap:square;"/>
   </g>
   <g id="line2d_18">
    <path clip-path="url(#pac293f15bf)" d="M 449.595208 364.083601 
L 447.954692 363.136449 
L 446.300048 362.18114 
L 444.6314 361.217745 
" style="fill:none;stroke:#000000;stroke-linecap:square;"/>
   </g>
   <g id="line2d_19">
    <path clip-path="url(#pac293f15bf)" d="M 427.986228 394.944423 
L 426.535106 393.726788 
L 425.071487 392.498666 
L 423.595482 391.26015 
" style="fill:none;stroke:#000000;stroke-linecap:square;"/>
   </g>
   <g id="line2d_20">
    <path clip-path="url(#pac293f15bf)" d="M 401.346611 421.58404 
L 400.128976 420.132919 
L 398.900853 418.6693 
L 397.662338 417.193294 
" style="fill:none;stroke:#000000;stroke-linecap:square;"/>
   </g>
   <g id="line2d_21">
    <path clip-path="url(#pac293f15bf)" d="M 370.485789 443.19302 
L 369.538637 441.552505 
L 368.583327 439.89786 
L 367.619933 438.229213 
" style="fill:none;stroke:#000000;stroke-linecap:square;"/>
   </g>
   <g id="line2d_22">
    <path clip-path="url(#pac293f15bf)" d="M 336.341452 459.114786 
L 335.693562 457.334723 
L 335.040091 455.539328 
L 334.381091 453.728739 
" style="fill:none;stroke:#000000;stroke-linecap:square;"/>
   </g>
   <g id="line2d_23">
    <path clip-path="url(#pac293f15bf)" d="M 299.951059 468.865563 
L 299.622116 467.000037 
L 299.290341 465.118445 
L 298.955757 463.220929 
" style="fill:none;stroke:#000000;stroke-linecap:square;"/>
   </g>
   <g id="line2d_24">
    <path clip-path="url(#pac293f15bf)" d="M 262.420312 472.149077 
L 262.420312 470.254773 
L 262.420312 468.344154 
L 262.420312 466.417366 
" style="fill:none;stroke:#000000;stroke-linecap:square;"/>
   </g>
   <g id="line2d_25">
    <path clip-path="url(#pac293f15bf)" d="M 224.889566 468.865563 
L 225.218509 467.000037 
L 225.550284 465.118445 
L 225.884868 463.220929 
" style="fill:none;stroke:#000000;stroke-linecap:square;"/>
   </g>
   <g id="line2d_26">
    <path clip-path="url(#pac293f15bf)" d="M 188.499173 459.114786 
L 189.147063 457.334723 
L 189.800534 455.539328 
L 190.459534 453.728739 
" style="fill:none;stroke:#000000;stroke-linecap:square;"/>
   </g>
   <g id="line2d_27">
    <path clip-path="url(#pac293f15bf)" d="M 154.354836 443.19302 
L 155.301988 441.552505 
L 156.257298 439.89786 
L 157.220692 438.229213 
" style="fill:none;stroke:#000000;stroke-linecap:square;"/>
   </g>
   <g id="line2d_28">
    <path clip-path="url(#pac293f15bf)" d="M 123.494014 421.58404 
L 124.711649 420.132919 
L 125.939772 418.6693 
L 127.178287 417.193294 
" style="fill:none;stroke:#000000;stroke-linecap:square;"/>
   </g>
   <g id="line2d_29">
    <path clip-path="url(#pac293f15bf)" d="M 96.854397 394.944423 
L 98.305519 393.726788 
L 99.769138 392.498666 
L 101.245143 391.26015 
" style="fill:none;stroke:#000000;stroke-linecap:square;"/>
   </g>
   <g id="line2d_30">
    <path clip-path="url(#pac293f15bf)" d="M 75.245417 364.083601 
L 76.885933 363.136449 
L 78.540577 362.18114 
L 80.209225 361.217745 
" style="fill:none;stroke:#000000;stroke-linecap:square;"/>
   </g>
   <g id="line2d_31">
    <path clip-path="url(#pac293f15bf)" d="M 59.323651 329.939264 
L 61.103715 329.291374 
L 62.89911 328.637904 
L 64.709698 327.978904 
" style="fill:none;stroke:#000000;stroke-linecap:square;"/>
   </g>
   <g id="line2d_32">
    <path clip-path="url(#pac293f15bf)" d="M 49.572875 293.548871 
L 51.4384 293.219929 
L 53.319993 292.888153 
L 55.217509 292.55357 
" style="fill:none;stroke:#000000;stroke-linecap:square;"/>
   </g>
   <g id="line2d_33">
    <path clip-path="url(#pac293f15bf)" d="M 46.28936 256.018125 
L 48.183664 256.018125 
L 50.094283 256.018125 
L 52.021072 256.018125 
" style="fill:none;stroke:#000000;stroke-linecap:square;"/>
   </g>
   <g id="line2d_34">
    <path clip-path="url(#pac293f15bf)" d="M 49.572875 218.487379 
L 51.4384 218.816321 
L 53.319993 219.148097 
L 55.217509 219.48268 
" style="fill:none;stroke:#000000;stroke-linecap:square;"/>
   </g>
   <g id="line2d_35">
    <path clip-path="url(#pac293f15bf)" d="M 59.323651 182.096986 
L 61.103715 182.744876 
L 62.89911 183.398346 
L 64.709698 184.057346 
" style="fill:none;stroke:#000000;stroke-linecap:square;"/>
   </g>
   <g id="line2d_36">
    <path clip-path="url(#pac293f15bf)" d="M 75.245417 147.952649 
L 76.885933 148.899801 
L 78.540577 149.85511 
L 80.209225 150.818505 
" style="fill:none;stroke:#000000;stroke-linecap:square;"/>
   </g>
   <g id="line2d_37">
    <path clip-path="url(#pac293f15bf)" d="M 96.854397 117.091827 
L 98.305519 118.309462 
L 99.769138 119.537584 
L 101.245143 120.7761 
" style="fill:none;stroke:#000000;stroke-linecap:square;"/>
   </g>
   <g id="line2d_38">
    <path clip-path="url(#pac293f15bf)" d="M 123.494014 90.45221 
L 124.711649 91.903331 
L 125.939772 93.36695 
L 127.178287 94.842956 
" style="fill:none;stroke:#000000;stroke-linecap:square;"/>
   </g>
   <g id="line2d_39">
    <path clip-path="url(#pac293f15bf)" d="M 154.354836 68.84323 
L 155.301988 70.483745 
L 156.257298 72.13839 
L 157.220692 73.807037 
" style="fill:none;stroke:#000000;stroke-linecap:square;"/>
   </g>
   <g id="line2d_40">
    <path clip-path="url(#pac293f15bf)" d="M 188.499173 52.921464 
L 189.147063 54.701527 
L 189.800534 56.496922 
L 190.459534 58.307511 
" style="fill:none;stroke:#000000;stroke-linecap:square;"/>
   </g>
   <g id="line2d_41">
    <path clip-path="url(#pac293f15bf)" d="M 224.889566 43.170687 
L 225.218509 45.036213 
L 225.550284 46.917805 
L 225.884868 48.815321 
" style="fill:none;stroke:#000000;stroke-linecap:square;"/>
   </g>
   <g id="line2d_42">
    <path clip-path="url(#pac293f15bf)" d="M 48.933975 230.560635 
L 48.482182 230.535701 
L 48.026444 230.567045 
L 47.9912 230.704787 
L 48.405234 230.950911 
L 48.807146 231.249556 
L 49.195524 231.599278 
L 49.569034 231.998461 
L 49.926414 232.445329 
L 50.266482 232.937953 
L 50.588136 233.474265 
L 50.890352 234.052061 
L 51.172187 234.669016 
L 51.432776 235.322691 
L 51.671338 236.010541 
L 51.887169 236.729927 
L 52.079643 237.478124 
L 52.248216 238.252329 
L 52.39242 239.049668 
L 52.511863 239.867211 
L 52.60623 240.701971 
L 52.675283 241.55092 
L 52.718858 242.410993 
L 52.736863 243.279099 
L 52.729282 244.152125 
L 52.696171 245.026948 
L 52.637657 245.90044 
L 52.55394 246.769476 
L 52.445292 247.630945 
L 52.312054 248.481752 
L 52.15464 249.318832 
L 51.973533 250.139155 
L 51.769288 250.939734 
L 51.54253 251.717632 
L 51.293954 252.469975 
L 51.024326 253.193954 
L 50.734481 253.886839 
L 50.425326 254.545985 
L 50.097836 255.168839 
L 49.753057 255.752955 
L 49.3921 256.295995 
L 49.016148 256.795747 
L 48.626449 257.250126 
L 48.224317 257.65719 
L 47.811127 258.015143 
L 47.38832 258.322353 
L 46.957394 258.577351 
L 46.519901 258.778849 
L 46.540554 258.919519 
L 46.990519 258.99833 
L 47.442444 259.020757 
L 47.894539 258.987061 
L 48.345047 258.897717 
L 48.792248 258.753411 
L 49.234465 258.55503 
L 49.670069 258.303657 
L 50.097485 258.000558 
L 50.515192 257.647177 
L 50.921729 257.245123 
L 51.315696 256.796166 
L 51.695757 256.302223 
L 52.060642 255.765354 
L 52.40915 255.187746 
L 52.740147 254.571709 
L 53.052568 253.919664 
L 53.345419 253.234138 
L 53.617777 252.517749 
L 53.868792 251.773203 
L 54.097682 251.003281 
L 54.303741 250.210835 
L 54.486331 249.398773 
L 54.64489 248.570058 
L 54.778926 247.727695 
L 54.88802 246.874727 
L 54.971826 246.01422 
L 55.030072 245.149263 
L 55.062557 244.282956 
L 55.069158 243.418403 
L 55.049821 242.558704 
L 55.00457 241.706945 
L 54.933505 240.866196 
L 54.836798 240.039497 
L 54.714702 239.229852 
L 54.567544 238.440223 
L 54.395731 237.673517 
L 54.199747 236.932584 
L 53.980157 236.220202 
L 53.737605 235.539072 
L 53.472815 234.891811 
L 53.186593 234.280938 
L 52.879824 233.708869 
L 52.553476 233.177905 
L 52.208596 232.690227 
L 51.846313 232.247881 
L 51.467833 231.852773 
L 51.074441 231.506657 
L 50.667498 231.211128 
L 50.24844 230.96761 
L 49.818773 230.777349 
L 49.380072 230.641404 
L 48.933975 230.560635 
" style="fill:none;stroke:#000000;stroke-linecap:square;"/>
   </g>
   <g id="line2d_43">
    <path clip-path="url(#pac293f15bf)" d="M 79.371232 150.320117 
L 78.980453 150.127385 
L 78.565687 149.981446 
L 78.128454 149.883153 
L 77.670396 149.833178 
L 77.193261 149.832007 
L 76.698908 149.879932 
L 76.189293 149.977048 
L 75.666465 150.123245 
L 75.132556 150.318205 
L 74.589776 150.5614 
L 74.040396 150.852087 
L 73.486744 151.189309 
L 73.346744 151.800949 
L 73.286459 152.496724 
L 73.194578 153.212053 
L 73.071618 153.944295 
L 72.918191 154.690769 
L 72.735004 155.448762 
L 72.522851 156.215532 
L 72.282614 156.988322 
L 72.015256 157.764362 
L 71.721817 158.540876 
L 71.403411 159.315094 
L 71.061225 160.084251 
L 70.696508 160.845602 
L 70.310577 161.596421 
L 69.904806 162.334015 
L 69.480626 163.055726 
L 69.039522 163.758939 
L 68.583028 164.441091 
L 68.112724 165.099675 
L 67.630236 165.73225 
L 67.137228 166.336445 
L 66.6354 166.909972 
L 66.126489 167.450627 
L 65.612259 167.9563 
L 65.094502 168.424984 
L 64.691956 168.906294 
L 64.758086 169.551179 
L 64.8587 170.164526 
L 64.993153 170.743902 
L 65.160661 171.287049 
L 65.360312 171.791888 
L 65.59107 172.256528 
L 65.851781 172.67927 
L 66.141189 173.058614 
L 66.457938 173.393256 
L 66.800581 173.682097 
L 67.167593 173.924237 
L 67.557375 174.118978 
L 67.968264 174.26582 
L 68.39854 174.364463 
L 68.846437 174.414797 
L 69.310148 174.416906 
L 69.78783 174.371054 
L 70.277619 174.27769 
L 70.777626 174.137435 
L 71.285952 173.951076 
L 71.800691 173.719566 
L 72.319935 173.444009 
L 72.841779 173.12566 
L 73.36433 172.765913 
L 73.885706 172.366297 
L 74.404045 171.928467 
L 74.917509 171.454197 
L 75.424286 170.945373 
L 75.922596 170.403984 
L 76.410695 169.832119 
L 76.886876 169.231952 
L 77.349476 168.605745 
L 77.796879 167.95583 
L 78.227516 167.284612 
L 78.639873 166.594552 
L 79.032494 165.888169 
L 79.403978 165.168028 
L 79.752993 164.436732 
L 80.078271 163.69692 
L 80.378613 162.951255 
L 80.652896 162.202422 
L 80.900073 161.453115 
L 81.119178 160.706035 
L 81.30933 159.963883 
L 81.469734 159.229348 
L 81.599688 158.505106 
L 81.698585 157.793808 
L 81.765915 157.098076 
L 81.801272 156.420491 
L 81.804355 155.763593 
L 81.77497 155.129863 
L 81.713038 154.521724 
L 81.618593 153.94153 
L 81.491788 153.391554 
L 81.332894 152.873984 
L 81.142308 152.390915 
L 80.92055 151.944336 
L 80.668265 151.536126 
L 80.386227 151.168042 
L 80.075336 150.841711 
L 79.736619 150.558622 
L 79.371232 150.320117 
" style="fill:none;stroke:#000000;stroke-linecap:square;"/>
   </g>
   <g id="line2d_44">
    <path clip-path="url(#pac293f15bf)" d="M 76.955957 147.640503 
L 76.62567 147.474614 
L 76.274027 147.349432 
L 75.902327 147.265667 
L 75.74522 147.359637 
L 75.94751 147.714078 
L 76.122737 148.1025 
L 76.270394 148.523279 
L 76.390083 148.974684 
L 76.481519 149.454894 
L 76.544521 149.961999 
L 76.579019 150.494009 
L 76.585042 151.048862 
L 76.562723 151.624434 
L 76.512293 152.218539 
L 76.434078 152.828944 
L 76.328498 153.453372 
L 76.196062 154.089508 
L 76.037366 154.735008 
L 75.853086 155.387507 
L 75.643984 156.044622 
L 75.410892 156.703961 
L 75.15472 157.363129 
L 74.876446 158.019734 
L 74.577115 158.671395 
L 74.257834 159.315746 
L 73.919772 159.950445 
L 73.564154 160.573179 
L 73.192257 161.181669 
L 72.805411 161.773679 
L 72.40499 162.347022 
L 71.992413 162.899566 
L 71.569138 163.429238 
L 71.136663 163.934035 
L 70.696514 164.412028 
L 70.250252 164.861369 
L 69.799462 165.280296 
L 69.345751 165.667143 
L 68.890746 166.020344 
L 68.436087 166.33844 
L 67.983428 166.620085 
L 67.534425 166.864055 
L 67.090739 167.06925 
L 66.654027 167.234704 
L 66.225938 167.359589 
L 65.808108 167.443221 
L 65.402154 167.485067 
L 65.417202 167.667513 
L 65.701687 167.920981 
L 66.008172 168.134031 
L 66.335325 168.30602 
L 66.681754 168.436475 
L 67.046011 168.525098 
L 67.426599 168.571755 
L 67.821981 168.576479 
L 68.230581 168.539467 
L 68.650796 168.461071 
L 69.080997 168.341798 
L 69.51954 168.182305 
L 69.964766 167.983389 
L 70.41501 167.745989 
L 70.868603 167.471172 
L 71.323881 167.160134 
L 71.779186 166.814191 
L 72.23287 166.434772 
L 72.683303 166.023412 
L 73.128875 165.581749 
L 73.567996 165.111515 
L 73.999108 164.614529 
L 74.420682 164.092694 
L 74.831224 163.547984 
L 75.229278 162.982445 
L 75.613429 162.398184 
L 75.982309 161.797363 
L 76.334597 161.182193 
L 76.669023 160.554929 
L 76.984375 159.917862 
L 77.279495 159.273313 
L 77.553289 158.623624 
L 77.804729 157.971159 
L 78.032853 157.318288 
L 78.236771 156.667388 
L 78.415668 156.020833 
L 78.568807 155.380989 
L 78.695532 154.750205 
L 78.795272 154.130808 
L 78.867541 153.525098 
L 78.911947 152.935338 
L 78.928191 152.363749 
L 78.916068 151.8125 
L 78.875474 151.283705 
L 78.806408 150.779416 
L 78.70897 150.301609 
L 78.583368 149.852184 
L 78.429919 149.432956 
L 78.249046 149.045643 
L 78.041285 148.691864 
L 77.807283 148.373129 
L 77.547797 148.090832 
L 77.263695 147.846244 
L 76.955957 147.640503 
" style="fill:none;stroke:#000000;stroke-linecap:square;"/>
   </g>
   <g id="line2d_45">
    <path clip-path="url(#pac293f15bf)" d="M 98.882564 143.789964 
L 97.494313 143.054712 
L 96.025598 142.469778 
L 94.480857 142.04014 
L 92.86508 141.770332 
L 91.183823 141.664387 
L 89.443212 141.725777 
L 87.649946 141.957347 
L 85.811286 142.361256 
L 83.93504 142.938908 
L 82.029542 143.690888 
L 80.103612 144.616901 
L 78.166516 145.715714 
L 76.227909 146.9851 
L 75.319815 149.006354 
L 74.954771 151.454089 
L 74.509657 153.954371 
L 73.987358 156.499844 
L 73.390793 159.083175 
L 72.72291 161.697051 
L 71.986669 164.334178 
L 71.185039 166.987273 
L 70.320987 169.649064 
L 69.397474 172.312286 
L 68.417452 174.969677 
L 67.383863 177.613975 
L 66.299634 180.237916 
L 65.167679 182.83423 
L 63.990903 185.395641 
L 62.772201 187.914864 
L 61.514465 190.384605 
L 60.220585 192.797562 
L 58.893459 195.146425 
L 57.536001 197.423879 
L 56.151144 199.622606 
L 54.741856 201.735293 
L 53.311148 203.754633 
L 52.567577 205.842025 
L 53.088189 208.100011 
L 53.725773 210.233838 
L 54.474898 212.235217 
L 55.329733 214.096844 
L 56.284115 215.8124 
L 57.331624 217.376542 
L 58.465652 218.784877 
L 59.679466 220.033937 
L 60.966259 221.121141 
L 62.319208 222.044754 
L 63.731512 222.80384 
L 65.19643 223.398219 
L 66.707315 223.828412 
L 68.257638 224.095594 
L 69.841011 224.201546 
L 71.4512 224.148603 
L 73.082138 223.939611 
L 74.727936 223.57788 
L 76.382884 223.06714 
L 78.041454 222.411506 
L 79.698302 221.615434 
L 81.348264 220.683695 
L 82.986354 219.621332 
L 84.607756 218.433643 
L 86.207824 217.126146 
L 87.782073 215.704556 
L 89.32617 214.174769 
L 90.835933 212.542834 
L 92.307321 210.814943 
L 93.736429 208.997411 
L 95.119482 207.096667 
L 96.452829 205.119236 
L 97.732939 203.071732 
L 98.956397 200.960848 
L 100.1199 198.793349 
L 101.220256 196.576062 
L 102.254379 194.315875 
L 103.219291 192.019725 
L 104.112121 189.694598 
L 104.930105 187.347523 
L 105.670592 184.98557 
L 106.331041 182.615844 
L 106.909031 180.245484 
L 107.402265 177.881658 
L 107.808574 175.53156 
L 108.125929 173.202408 
L 108.352447 170.901439 
L 108.486406 168.635904 
L 108.526251 166.413066 
L 108.470615 164.24019 
L 108.318329 162.124538 
L 108.068439 160.073362 
L 107.720226 158.093893 
L 107.273225 156.19333 
L 106.727245 154.378827 
L 106.082394 152.657478 
L 105.339096 151.036299 
L 104.498126 149.522207 
L 103.560624 148.121996 
L 102.52813 146.842311 
L 101.402604 145.689618 
L 100.186454 144.670169 
L 98.882564 143.789964 
" style="fill:none;stroke:#000000;stroke-linecap:square;"/>
   </g>
   <g id="line2d_46">
    <path clip-path="url(#pac293f15bf)" d="M 132.07641 142.25946 
L 131.09937 141.609633 
L 130.060934 141.049347 
L 128.964665 140.581712 
L 127.814455 140.209526 
L 126.614513 139.935256 
L 125.369359 139.761006 
L 124.08381 139.688498 
L 122.762971 139.719047 
L 121.412213 139.853533 
L 120.037152 140.092387 
L 118.643627 140.435568 
L 117.237669 140.882543 
L 115.825476 141.43228 
L 114.413371 142.08323 
L 113.007772 142.833323 
L 111.61515 143.679965 
L 110.241988 144.62004 
L 108.894736 145.649913 
L 107.579769 146.765442 
L 106.303343 147.961996 
L 105.071546 149.234472 
L 103.89026 150.577324 
L 102.76511 151.984594 
L 101.701431 153.449944 
L 100.704223 154.966697 
L 99.778121 156.527882 
L 98.92736 158.126278 
L 98.155747 159.754462 
L 97.466642 161.404864 
L 96.862932 163.069811 
L 96.347025 164.74159 
L 95.920838 166.41249 
L 95.585791 168.074859 
L 95.342812 169.721151 
L 95.192339 171.343975 
L 95.134334 172.936138 
L 95.16829 174.490687 
L 95.293255 176.000946 
L 95.507848 177.460554 
L 95.81028 178.863487 
L 96.198387 180.20409 
L 96.669645 181.477099 
L 97.221206 182.677652 
L 97.849922 183.80131 
L 98.552377 184.844062 
L 99.32491 185.80233 
L 100.163647 186.672977 
L 101.064527 187.453298 
L 102.023329 188.141026 
L 103.035696 188.734318 
L 104.09716 189.231752 
L 105.203162 189.632315 
L 106.349078 189.935391 
L 107.530234 190.140752 
L 108.741925 190.248537 
L 109.979434 190.259247 
L 111.238046 190.173722 
L 112.513059 189.993129 
L 113.799804 189.718946 
L 115.093647 189.352948 
L 116.390007 188.89719 
L 117.68436 188.35399 
L 118.972254 187.725918 
L 120.249308 187.015781 
L 121.511227 186.226607 
L 122.753803 185.361631 
L 123.972924 184.424285 
L 125.164578 183.418184 
L 126.324858 182.347114 
L 127.44997 181.21502 
L 128.536233 180.025996 
L 129.580088 178.784274 
L 130.578098 177.494215 
L 131.526961 176.160296 
L 132.423506 174.787105 
L 133.264703 173.379328 
L 134.047667 171.941745 
L 134.769665 170.479213 
L 135.428122 168.996668 
L 136.020623 167.499108 
L 136.544926 165.991587 
L 136.998964 164.479207 
L 137.380855 162.96711 
L 137.688908 161.460466 
L 137.921634 159.964466 
L 138.077751 158.484309 
L 138.156194 157.025197 
L 138.156125 155.592318 
L 138.076943 154.190837 
L 137.918289 152.825885 
L 137.680063 151.502544 
L 137.362425 150.225832 
L 136.965811 149.00069 
L 136.490942 147.831966 
L 135.938828 146.724394 
L 135.31078 145.682584 
L 134.608419 144.710992 
L 133.833679 143.81391 
L 132.988816 142.995437 
L 132.07641 142.25946 
" style="fill:none;stroke:#000000;stroke-linecap:square;"/>
   </g>
   <g id="line2d_47">
    <path clip-path="url(#pac293f15bf)" d="M 93.600454 146.167628 
L 92.947511 145.81332 
L 92.254316 145.531308 
L 91.523304 145.323342 
L 90.757123 145.19091 
L 89.958631 145.135218 
L 89.130888 145.157177 
L 88.277145 145.257388 
L 87.400837 145.436127 
L 86.505568 145.693331 
L 85.595095 146.028592 
L 84.673313 146.441139 
L 83.744234 146.929838 
L 82.811967 147.493182 
L 81.880695 148.129293 
L 80.954649 148.835915 
L 80.038084 149.610422 
L 79.135251 150.449824 
L 78.250366 151.350775 
L 77.387588 152.309582 
L 76.550985 153.32223 
L 75.744506 154.384392 
L 74.971957 155.491455 
L 74.236969 156.638547 
L 73.542975 157.820563 
L 72.893188 159.032195 
L 72.290575 160.267968 
L 71.737842 161.52227 
L 71.237414 162.789393 
L 70.791423 164.063565 
L 70.401698 165.33899 
L 70.069754 166.609885 
L 69.796788 167.870515 
L 69.58368 169.11523 
L 69.43099 170.338501 
L 69.338967 171.534948 
L 69.307549 172.699374 
L 69.336378 173.826793 
L 69.424806 174.912453 
L 69.571912 175.951864 
L 69.776513 176.94081 
L 70.037184 177.875375 
L 70.352269 178.75195 
L 70.719904 179.567246 
L 71.13803 180.318305 
L 71.604414 181.002503 
L 72.116668 181.617553 
L 72.672262 182.161507 
L 73.268547 182.632753 
L 73.902767 183.030013 
L 74.572077 183.352337 
L 75.273558 183.599096 
L 76.004234 183.769973 
L 76.76108 183.864957 
L 77.541039 183.884328 
L 78.341031 183.82865 
L 79.157966 183.698758 
L 79.988753 183.495746 
L 80.830308 183.220954 
L 81.679563 182.875957 
L 82.533472 182.462551 
L 83.389021 181.982744 
L 84.243231 181.438739 
L 85.093164 180.832924 
L 85.93593 180.167863 
L 86.76869 179.44628 
L 87.588661 178.67105 
L 88.393117 177.845189 
L 89.179398 176.971842 
L 89.944911 176.054272 
L 90.687132 175.095855 
L 91.403612 174.100064 
L 92.091979 173.070465 
L 92.749941 172.010705 
L 93.375291 170.924506 
L 93.965912 169.815653 
L 94.519774 168.68799 
L 95.034948 167.54541 
L 95.509601 166.391846 
L 95.942006 165.231265 
L 96.330545 164.067659 
L 96.673715 162.905036 
L 96.97013 161.747417 
L 97.218529 160.598822 
L 97.417782 159.463263 
L 97.566895 158.344738 
L 97.665016 157.247221 
L 97.71144 156.174651 
L 97.705619 155.130925 
L 97.647166 154.119886 
L 97.53586 153.145315 
L 97.371657 152.210915 
L 97.154694 151.320307 
L 96.885294 150.47701 
L 96.563975 149.684435 
L 96.191452 148.945867 
L 95.768649 148.264453 
L 95.296695 147.643188 
L 94.776935 147.084899 
L 94.210928 146.592231 
L 93.600454 146.167628 
" style="fill:none;stroke:#000000;stroke-linecap:square;"/>
   </g>
   <g id="line2d_48">
    <path clip-path="url(#pac293f15bf)" d="M 89.688473 172.69429 
L 87.872378 172.123797 
L 85.995525 171.740262 
L 84.064163 171.548887 
L 82.085121 171.554287 
L 80.065811 171.760422 
L 78.014227 172.170514 
L 75.93894 172.786971 
L 73.849073 173.611299 
L 71.754275 174.644025 
L 69.664683 175.884608 
L 67.590864 177.331369 
L 65.543748 178.981412 
L 63.534556 180.830567 
L 61.574698 182.87333 
L 59.675674 185.102831 
L 57.848958 187.510808 
L 56.98686 190.369136 
L 56.802406 193.534774 
L 56.552339 196.749559 
L 56.238746 200.00499 
L 55.863646 203.292601 
L 55.428991 206.603954 
L 54.936655 209.930625 
L 54.388433 213.264201 
L 53.786039 216.59627 
L 53.131107 219.918411 
L 52.425187 223.22219 
L 51.669755 226.499149 
L 50.866208 229.740799 
L 50.015873 232.938614 
L 49.120015 236.084024 
L 48.179841 239.168411 
L 47.19651 242.1831 
L 46.956233 245.158923 
L 47.778394 248.06741 
L 48.732997 250.83611 
L 49.812378 253.453143 
L 51.008334 255.907917 
L 52.31225 258.191144 
L 53.715203 260.294848 
L 55.20807 262.212344 
L 56.781625 263.938212 
L 58.42663 265.468252 
L 60.133908 266.799431 
L 61.894413 267.929825 
L 63.69929 268.858548 
L 65.539918 269.585682 
L 67.407952 270.11221 
L 69.295351 270.439938 
L 71.194396 270.571428 
L 73.09771 270.509925 
L 74.998262 270.259294 
L 76.88937 269.823953 
L 78.7647 269.208818 
L 80.618258 268.419247 
L 82.444385 267.46099 
L 84.237742 266.340138 
L 85.993299 265.063089 
L 87.706323 263.636505 
L 89.372358 262.067277 
L 90.987217 260.3625 
L 92.546958 258.529441 
L 94.04788 256.575519 
L 95.486499 254.508282 
L 96.859538 252.335391 
L 98.163916 250.064602 
L 99.396734 247.703755 
L 100.555262 245.260762 
L 101.636934 242.743595 
L 102.639334 240.160282 
L 103.560191 237.518895 
L 104.397373 234.82755 
L 105.148879 232.094396 
L 105.81284 229.327616 
L 106.38751 226.535421 
L 106.871267 223.726048 
L 107.262617 220.907757 
L 107.560186 218.088831 
L 107.762733 215.27757 
L 107.869144 212.482292 
L 107.878445 209.711331 
L 107.789804 206.973032 
L 107.602541 204.275748 
L 107.316137 201.627841 
L 106.930246 199.037673 
L 106.444708 196.5136 
L 105.85956 194.063968 
L 105.175059 191.697106 
L 104.391693 189.421313 
L 103.510204 187.244846 
L 102.531606 185.17591 
L 101.457213 183.222637 
L 100.288657 181.393071 
L 99.027914 179.695142 
L 97.677334 178.136639 
L 96.239664 176.725184 
L 94.718075 175.468195 
L 93.116194 174.372847 
L 91.438124 173.446027 
L 89.688473 172.69429 
" style="fill:none;stroke:#000000;stroke-linecap:square;"/>
   </g>
   <g id="line2d_49">
    <path clip-path="url(#pac293f15bf)" d="M 76.365033 191.457454 
L 75.221387 191.186225 
L 74.047476 191.037896 
L 72.847617 191.014646 
L 71.626389 191.118198 
L 70.388623 191.349789 
L 69.139389 191.710135 
L 67.883982 192.199402 
L 66.627894 192.817175 
L 65.376795 193.562435 
L 64.136502 194.433527 
L 62.91294 195.428147 
L 61.712113 196.54332 
L 60.540054 197.775394 
L 59.402788 199.120031 
L 58.306274 200.572209 
L 57.256364 202.126233 
L 56.258746 203.775747 
L 55.318891 205.513763 
L 54.442004 207.332689 
L 53.632967 209.22437 
L 52.896295 211.180138 
L 52.236085 213.190865 
L 51.655979 215.247027 
L 51.159122 217.338772 
L 50.748134 219.455991 
L 50.425084 221.5884 
L 50.191473 223.725615 
L 50.048223 225.857235 
L 49.995677 227.972924 
L 50.033599 230.062488 
L 50.161191 232.115953 
L 50.377108 234.123638 
L 50.679484 236.076225 
L 51.065966 237.964815 
L 51.533741 239.780989 
L 52.079585 241.516851 
L 52.699895 243.165074 
L 53.39074 244.718927 
L 54.147902 246.172304 
L 54.966921 247.519739 
L 55.843139 248.756416 
L 56.771748 249.878176 
L 57.747821 250.881512 
L 58.766362 251.763558 
L 59.822333 252.522081 
L 60.910693 253.155464 
L 62.026423 253.662679 
L 63.164558 254.043271 
L 64.320207 254.297326 
L 65.488572 254.425451 
L 66.664967 254.428738 
L 67.844834 254.308739 
L 69.023751 254.067438 
L 70.197441 253.707219 
L 71.361783 253.230839 
L 72.512811 252.641403 
L 73.646721 251.942331 
L 74.759872 251.13734 
L 75.848782 250.230415 
L 76.910135 249.225786 
L 77.94077 248.127907 
L 78.937686 246.941439 
L 79.898035 245.671224 
L 80.819121 244.322274 
L 81.698393 242.89975 
L 82.533447 241.40895 
L 83.322017 239.855293 
L 84.061976 238.244304 
L 84.75133 236.581606 
L 85.388217 234.872907 
L 85.970905 233.123986 
L 86.497787 231.34069 
L 86.967386 229.528919 
L 87.378345 227.694618 
L 87.729437 225.843771 
L 88.019558 223.982394 
L 88.247729 222.11652 
L 88.413102 220.252199 
L 88.514958 218.395488 
L 88.552711 216.552441 
L 88.525912 214.729103 
L 88.434256 212.931501 
L 88.277581 211.165637 
L 88.055879 209.437475 
L 87.769302 207.752936 
L 87.418165 206.117884 
L 87.002957 204.538116 
L 86.524348 203.01935 
L 85.983199 201.567211 
L 85.380566 200.187219 
L 84.717716 198.884768 
L 83.996129 197.665115 
L 83.217512 196.533359 
L 82.383808 195.494422 
L 81.497201 194.553025 
L 80.560127 193.713668 
L 79.575279 192.980604 
L 78.545617 192.357815 
L 77.474368 191.848981 
L 76.365033 191.457454 
" style="fill:none;stroke:#000000;stroke-linecap:square;"/>
   </g>
   <g id="line2d_50">
    <path clip-path="url(#pac293f15bf)" d="M 113.158367 198.065091 
L 112.567322 197.898518 
L 111.961556 197.783078 
L 111.343416 197.719452 
L 110.715325 197.708123 
L 110.079768 197.749364 
L 109.43929 197.843236 
L 108.796476 197.989587 
L 108.15395 198.188043 
L 107.514355 198.438011 
L 106.880347 198.738675 
L 106.254579 199.088999 
L 105.639691 199.487725 
L 105.038292 199.933379 
L 104.452954 200.424272 
L 103.886194 200.958508 
L 103.340458 201.533988 
L 102.818116 202.14842 
L 102.321442 202.799327 
L 101.852602 203.484058 
L 101.413646 204.199799 
L 101.006493 204.943587 
L 100.632921 205.712323 
L 100.294556 206.502786 
L 99.992866 207.311654 
L 99.729149 208.135512 
L 99.50453 208.970877 
L 99.31995 209.814212 
L 99.176168 210.661944 
L 99.07375 211.510485 
L 99.013073 212.356246 
L 98.994322 213.19566 
L 99.017489 214.025196 
L 99.082375 214.84138 
L 99.188595 215.640808 
L 99.33558 216.420167 
L 99.52258 217.176246 
L 99.748675 217.905957 
L 100.012776 218.606341 
L 100.313638 219.274588 
L 100.649864 219.908042 
L 101.019918 220.504217 
L 101.42213 221.060806 
L 101.854711 221.575683 
L 102.315759 222.046918 
L 102.803272 222.472776 
L 103.315159 222.851728 
L 103.849249 223.182447 
L 104.403304 223.463817 
L 104.975025 223.69493 
L 105.562071 223.875089 
L 106.162061 224.003803 
L 106.772589 224.08079 
L 107.391231 224.105974 
L 108.015557 224.079478 
L 108.64314 224.001624 
L 109.27156 223.872926 
L 109.898421 223.694087 
L 110.52135 223.465992 
L 111.138011 223.189701 
L 111.74611 222.866447 
L 112.3434 222.497622 
L 112.927692 222.084776 
L 113.496855 221.629608 
L 114.048828 221.133957 
L 114.58162 220.599796 
L 115.093319 220.029224 
L 115.582093 219.424457 
L 116.0462 218.787819 
L 116.483986 218.121738 
L 116.893893 217.428734 
L 117.274461 216.711412 
L 117.624334 215.972452 
L 117.942258 215.214606 
L 118.227089 214.440681 
L 118.477797 213.653539 
L 118.693462 212.856083 
L 118.873283 212.051252 
L 119.016579 211.242009 
L 119.122788 210.431336 
L 119.191475 209.622222 
L 119.222326 208.817656 
L 119.21516 208.020618 
L 119.169919 207.234072 
L 119.086679 206.460951 
L 118.965646 205.704156 
L 118.807158 204.96654 
L 118.611686 204.250905 
L 118.379834 203.559985 
L 118.11234 202.896445 
L 117.810073 202.262866 
L 117.474035 201.661737 
L 117.105359 201.095446 
L 116.705307 200.566271 
L 116.275267 200.076369 
L 115.816755 199.62777 
L 115.331405 199.222362 
L 114.82097 198.861887 
L 114.287318 198.547932 
L 113.732424 198.281918 
L 113.158367 198.065091 
" style="fill:none;stroke:#000000;stroke-linecap:square;"/>
   </g>
   <g id="line2d_51">
    <path clip-path="url(#pac293f15bf)" d="M 60.60157 242.015894 
L 59.500055 242.038782 
L 58.400382 242.185214 
L 57.306984 242.456199 
L 56.22443 242.852252 
L 55.157407 243.373368 
L 54.110697 244.018987 
L 53.089159 244.787979 
L 52.097699 245.678612 
L 51.141243 246.688539 
L 50.224701 247.814779 
L 49.352932 249.053705 
L 48.530706 250.401041 
L 47.762662 251.851858 
L 47.053266 253.400582 
L 46.406762 255.04101 
L 46.755159 256.763117 
L 47.295014 258.545892 
L 47.794991 260.382242 
L 48.254149 262.266068 
L 48.671612 264.191226 
L 49.046564 266.151536 
L 49.378248 268.14079 
L 49.665957 270.152755 
L 49.909036 272.181182 
L 50.106876 274.219807 
L 50.258916 276.262359 
L 50.364642 278.302561 
L 50.423587 280.334139 
L 50.435333 282.350821 
L 50.399515 284.346346 
L 50.315825 286.314468 
L 50.184012 288.248958 
L 50.003894 290.143613 
L 49.775362 291.992262 
L 49.725168 293.74854 
L 50.641454 295.254989 
L 51.604107 296.660369 
L 52.607886 297.959287 
L 53.647443 299.147012 
L 54.717368 300.219476 
L 55.812233 301.173277 
L 56.926631 302.005669 
L 58.055218 302.714551 
L 59.192739 303.298446 
L 60.334066 303.756484 
L 61.474218 304.088378 
L 62.608387 304.294391 
L 63.731954 304.375315 
L 64.840505 304.332435 
L 65.929842 304.167502 
L 66.995993 303.882697 
L 68.035216 303.480608 
L 69.044 302.964193 
L 70.019071 302.336751 
L 70.957386 301.6019 
L 71.856131 300.76354 
L 72.712719 299.825835 
L 73.524781 298.793185 
L 74.290164 297.670204 
L 75.00692 296.461699 
L 75.673301 295.172647 
L 76.287749 293.808181 
L 76.848893 292.37357 
L 77.355534 290.874203 
L 77.806645 289.315575 
L 78.20136 287.703274 
L 78.538964 286.042968 
L 78.818894 284.340393 
L 79.040727 282.601343 
L 79.204176 280.831659 
L 79.309086 279.037221 
L 79.35543 277.22394 
L 79.343303 275.397744 
L 79.272922 273.564579 
L 79.144622 271.730394 
L 78.958854 269.901136 
L 78.716186 268.082741 
L 78.4173 266.28113 
L 78.062995 264.502196 
L 77.654185 262.751799 
L 77.191904 261.035759 
L 76.677306 259.359844 
L 76.111666 257.72976 
L 75.496388 256.151145 
L 74.833005 254.629555 
L 74.123183 253.170454 
L 73.368728 251.779201 
L 72.571588 250.461036 
L 71.733861 249.221065 
L 70.857795 248.064248 
L 69.945799 246.995376 
L 69.000442 246.019057 
L 68.024463 245.139696 
L 67.020768 244.361474 
L 65.992441 243.688322 
L 64.942739 243.123904 
L 63.8751 242.671584 
L 62.793137 242.334409 
L 61.70064 242.115073 
L 60.60157 242.015894 
" style="fill:none;stroke:#000000;stroke-linecap:square;"/>
   </g>
   <g id="line2d_52">
    <path clip-path="url(#pac293f15bf)" d="M 80.506015 175.309575 
L 79.241542 174.899076 
L 77.931401 174.626476 
L 76.580153 174.494934 
L 75.192722 174.50713 
L 73.774399 174.665218 
L 72.330829 174.97079 
L 70.867996 175.424825 
L 69.392208 176.027646 
L 67.910071 176.778884 
L 66.428454 177.677434 
L 64.954458 178.721422 
L 63.495366 179.908173 
L 62.058601 181.234188 
L 60.65166 182.695126 
L 59.282064 184.285793 
L 57.957284 186.000145 
L 57.844171 188.215585 
L 57.691772 190.482297 
L 57.479874 192.785958 
L 57.209941 195.119649 
L 56.883477 197.47645 
L 56.502021 199.849439 
L 56.067137 202.231692 
L 55.580414 204.61629 
L 55.043461 206.996315 
L 54.457902 209.364849 
L 53.825382 211.714982 
L 53.147559 214.039807 
L 52.426113 216.332425 
L 51.662743 218.585946 
L 50.859174 220.793491 
L 50.017158 222.948199 
L 49.138486 225.043227 
L 48.247643 227.07482 
L 48.664583 229.200897 
L 49.176978 231.236448 
L 49.780852 233.172722 
L 50.471807 235.001709 
L 51.24508 236.716168 
L 52.095605 238.30965 
L 53.018065 239.7765 
L 54.006951 241.111863 
L 55.056614 242.311675 
L 56.161315 243.372649 
L 57.315267 244.292249 
L 58.51268 245.068672 
L 59.747797 245.700811 
L 61.01492 246.188226 
L 62.308447 246.531107 
L 63.622887 246.730237 
L 64.952882 246.786954 
L 66.293225 246.703114 
L 67.638867 246.481053 
L 68.98493 246.123552 
L 70.326708 245.633798 
L 71.659678 245.015353 
L 72.979493 244.272122 
L 74.281986 243.40832 
L 75.563169 242.428444 
L 76.819229 241.337248 
L 78.046521 240.139718 
L 79.241569 238.841046 
L 80.401058 237.446612 
L 81.521827 235.961965 
L 82.600867 234.392803 
L 83.635316 232.744956 
L 84.622449 231.024378 
L 85.559679 229.237126 
L 86.444549 227.389351 
L 87.274731 225.487289 
L 88.048019 223.537248 
L 88.76233 221.545599 
L 89.415698 219.518773 
L 90.006279 217.463244 
L 90.532342 215.38553 
L 90.992275 213.292185 
L 91.384587 211.189787 
L 91.707905 209.08494 
L 91.960979 206.98426 
L 92.142689 204.894375 
L 92.252044 202.821917 
L 92.288192 200.773513 
L 92.250422 198.75578 
L 92.138177 196.77532 
L 91.951059 194.838708 
L 91.688837 192.952484 
L 91.351461 191.123146 
L 90.93907 189.357136 
L 90.452005 187.660829 
L 89.890821 186.040521 
L 89.256303 184.502412 
L 88.549476 183.05259 
L 87.771621 181.697015 
L 86.924292 180.441492 
L 86.009326 179.291658 
L 85.02886 178.252949 
L 83.985347 177.330576 
L 82.881565 176.529496 
L 81.720632 175.854379 
L 80.506015 175.309575 
" style="fill:none;stroke:#000000;stroke-linecap:square;"/>
   </g>
   <g id="line2d_53">
    <path clip-path="url(#pac293f15bf)" d="M 72.883591 159.846359 
L 72.186732 159.550266 
L 71.4532 159.339062 
L 70.685572 159.214456 
L 69.886641 159.177845 
L 69.240352 159.320863 
L 69.64263 160.086872 
L 69.99587 160.920806 
L 70.299413 161.819077 
L 70.552793 162.777948 
L 70.755728 163.793554 
L 70.908114 164.861912 
L 71.010013 165.978936 
L 71.061647 167.140449 
L 71.06339 168.342194 
L 71.015757 169.579847 
L 70.919397 170.849024 
L 70.775088 172.145292 
L 70.583726 173.464179 
L 70.346321 174.801182 
L 70.063989 176.151773 
L 69.737948 177.511411 
L 69.369511 178.875546 
L 68.960082 180.239626 
L 68.511149 181.599108 
L 68.024287 182.949463 
L 67.501145 184.286181 
L 66.943452 185.604783 
L 66.353008 186.900824 
L 65.731684 188.169905 
L 65.081423 189.407676 
L 64.404233 190.60985 
L 63.70219 191.772207 
L 62.977437 192.890606 
L 62.232179 193.960992 
L 61.468689 194.979411 
L 60.6893 195.942015 
L 59.896411 196.845078 
L 59.092484 197.685006 
L 58.280042 198.458352 
L 57.461669 199.161826 
L 56.640008 199.792312 
L 55.817763 200.346882 
L 54.997691 200.822813 
L 54.182604 201.217602 
L 53.375363 201.528983 
L 53.767436 202.062296 
L 54.392679 202.560996 
L 55.052331 202.972869 
L 55.743368 203.297125 
L 56.462729 203.533355 
L 57.207323 203.681513 
L 57.974053 203.741907 
L 58.759821 203.715182 
L 59.561539 203.602301 
L 60.376145 203.404535 
L 61.200606 203.123441 
L 62.031924 202.760848 
L 62.867149 202.31884 
L 63.703377 201.799741 
L 64.537762 201.206098 
L 65.367511 200.540663 
L 66.189896 199.806385 
L 67.002249 199.006388 
L 67.801969 198.143962 
L 68.586523 197.222549 
L 69.353447 196.245728 
L 70.100344 195.217205 
L 70.824893 194.140803 
L 71.524842 193.020448 
L 72.198015 191.86016 
L 72.84231 190.664043 
L 73.455701 189.436277 
L 74.036241 188.181106 
L 74.582064 186.902834 
L 75.091383 185.60581 
L 75.5625 184.294426 
L 75.993799 182.973107 
L 76.38376 181.646302 
L 76.730952 180.318478 
L 77.034044 178.994112 
L 77.291809 177.677682 
L 77.503123 176.373661 
L 77.666976 175.086508 
L 77.782476 173.820658 
L 77.848854 172.580519 
L 77.865469 171.370456 
L 77.831818 170.194787 
L 77.747541 169.057769 
L 77.612428 167.963591 
L 77.426427 166.916361 
L 77.18965 165.920095 
L 76.902384 164.978702 
L 76.565094 164.095975 
L 76.178434 163.275574 
L 75.743252 162.521011 
L 75.260596 161.835637 
L 74.731725 161.22262 
L 74.158106 160.684934 
L 73.541425 160.225339 
L 72.883591 159.846359 
" style="fill:none;stroke:#000000;stroke-linecap:square;"/>
   </g>
   <g id="line2d_54">
    <path clip-path="url(#pac293f15bf)" d="M 131.683962 168.239473 
L 131.422392 168.089011 
L 131.147939 167.960911 
L 130.861666 167.855727 
L 130.564684 167.773926 
L 130.258158 167.715881 
L 129.943291 167.681874 
L 129.62133 167.672091 
L 129.293553 167.68662 
L 128.961268 167.72545 
L 128.625807 167.788475 
L 128.288519 167.875486 
L 127.950766 167.986175 
L 127.613918 168.120139 
L 127.279343 168.276873 
L 126.948405 168.45578 
L 126.622456 168.656166 
L 126.302831 168.877248 
L 125.990841 169.118154 
L 125.687766 169.377926 
L 125.394853 169.655526 
L 125.113306 169.949838 
L 124.844282 170.259675 
L 124.588886 170.583783 
L 124.348168 170.920846 
L 124.123113 171.269492 
L 123.91464 171.6283 
L 123.723598 171.995805 
L 123.550763 172.370506 
L 123.39683 172.750871 
L 123.262416 173.135347 
L 123.148053 173.522362 
L 123.054187 173.910337 
L 122.98118 174.297691 
L 122.929301 174.682848 
L 122.898733 175.064244 
L 122.889568 175.440334 
L 122.901811 175.809598 
L 122.935375 176.170551 
L 122.990086 176.521742 
L 123.065684 176.86177 
L 123.161825 177.189281 
L 123.278081 177.502978 
L 123.413943 177.801625 
L 123.568828 178.084053 
L 123.742074 178.349163 
L 123.932953 178.595928 
L 124.140665 178.823403 
L 124.36435 179.030723 
L 124.603087 179.217106 
L 124.8559 179.381858 
L 125.121762 179.524374 
L 125.3996 179.64414 
L 125.688299 179.740731 
L 125.986708 179.813818 
L 126.293641 179.863164 
L 126.607886 179.888625 
L 126.928209 179.890149 
L 127.253356 179.867779 
L 127.582061 179.821647 
L 127.913049 179.751978 
L 128.245039 179.659084 
L 128.576754 179.543364 
L 128.90692 179.405305 
L 129.234274 179.245472 
L 129.557565 179.064513 
L 129.875561 178.863154 
L 130.187055 178.642194 
L 130.490862 178.402503 
L 130.785832 178.14502 
L 131.070846 177.870746 
L 131.344825 177.580745 
L 131.60673 177.276136 
L 131.855568 176.958091 
L 132.090395 176.62783 
L 132.310318 176.286618 
L 132.514498 175.935758 
L 132.702153 175.57659 
L 132.872563 175.210484 
L 133.025069 174.838836 
L 133.159078 174.463061 
L 133.274064 174.084594 
L 133.36957 173.704879 
L 133.445211 173.325367 
L 133.500672 172.947511 
L 133.535717 172.572758 
L 133.550181 172.202551 
L 133.543978 171.838314 
L 133.517098 171.481456 
L 133.469609 171.13336 
L 133.401658 170.795382 
L 133.313468 170.468841 
L 133.205343 170.155019 
L 133.077661 169.855155 
L 132.93088 169.570437 
L 132.76553 169.302001 
L 132.582218 169.050924 
L 132.381622 168.818221 
L 132.164492 168.60484 
L 131.931644 168.411657 
L 131.683962 168.239473 
" style="fill:none;stroke:#000000;stroke-linecap:square;"/>
   </g>
   <g id="line2d_55">
    <path clip-path="url(#pac293f15bf)" d="M 80.097711 197.884993 
L 79.652793 197.778592 
L 79.19629 197.718084 
L 78.729971 197.703926 
L 78.255663 197.73639 
L 77.775248 197.815564 
L 77.290657 197.941346 
L 76.80386 198.113439 
L 76.316854 198.331355 
L 75.831663 198.594407 
L 75.350319 198.901711 
L 74.87486 199.252189 
L 74.407315 199.644567 
L 73.949693 200.077381 
L 73.503979 200.54898 
L 73.072115 201.057531 
L 72.655994 201.601026 
L 72.257448 202.177289 
L 71.878239 202.783986 
L 71.520047 203.418635 
L 71.184459 204.078614 
L 70.872965 204.76118 
L 70.586941 205.463474 
L 70.327651 206.182542 
L 70.096229 206.915346 
L 69.893682 207.658778 
L 69.720878 208.409681 
L 69.578544 209.164862 
L 69.467261 209.921107 
L 69.387465 210.675202 
L 69.339439 211.423947 
L 69.32332 212.164171 
L 69.339093 212.892753 
L 69.386596 213.606632 
L 69.465522 214.302828 
L 69.575422 214.97845 
L 69.715709 215.630716 
L 69.885664 216.25696 
L 70.08444 216.85465 
L 70.311071 217.421394 
L 70.564477 217.954949 
L 70.843469 218.453237 
L 71.146765 218.914343 
L 71.472988 219.336527 
L 71.820682 219.718231 
L 72.188315 220.058076 
L 72.574292 220.354873 
L 72.976961 220.607618 
L 73.394621 220.8155 
L 73.825531 220.977896 
L 74.267919 221.09437 
L 74.719989 221.164675 
L 75.179928 221.18875 
L 75.645915 221.166711 
L 76.116126 221.098856 
L 76.588743 220.985655 
L 77.061958 220.827745 
L 77.533979 220.625928 
L 78.00304 220.381163 
L 78.467401 220.094559 
L 78.925354 219.767372 
L 79.375232 219.400995 
L 79.815408 218.996952 
L 80.244301 218.556893 
L 80.660384 218.082586 
L 81.062178 217.575906 
L 81.448266 217.038833 
L 81.81729 216.473444 
L 82.167955 215.881902 
L 82.499032 215.266451 
L 82.809361 214.629409 
L 83.097855 213.973159 
L 83.363498 213.300143 
L 83.605351 212.612854 
L 83.822555 211.913829 
L 84.014328 211.205639 
L 84.179973 210.490887 
L 84.318876 209.772194 
L 84.430508 209.052195 
L 84.514431 208.333534 
L 84.570292 207.618851 
L 84.597832 206.910777 
L 84.596885 206.211927 
L 84.567376 205.524892 
L 84.509329 204.85223 
L 84.422862 204.19646 
L 84.308191 203.560053 
L 84.165631 202.945424 
L 83.995596 202.354925 
L 83.798598 201.790836 
L 83.575251 201.255356 
L 83.326268 200.750598 
L 83.05246 200.278579 
L 82.754739 199.841212 
L 82.434114 199.440296 
L 82.091689 199.077511 
L 81.728663 198.754411 
L 81.346329 198.472412 
L 80.946067 198.232787 
L 80.529345 198.036659 
L 80.097711 197.884993 
" style="fill:none;stroke:#000000;stroke-linecap:square;"/>
   </g>
   <g id="line2d_56">
    <path clip-path="url(#pac293f15bf)" d="M 77.197226 161.579409 
L 76.575593 161.316818 
L 75.922406 161.126838 
L 75.240019 161.010846 
L 74.530963 160.969947 
L 73.797941 161.004961 
L 73.043821 161.116407 
L 72.271623 161.304488 
L 71.484514 161.569085 
L 70.685789 161.909742 
L 69.87886 162.325659 
L 69.067239 162.815683 
L 68.254518 163.378306 
L 67.444349 164.011657 
L 66.640426 164.71351 
L 66.374344 165.72441 
L 66.259281 166.854359 
L 66.101894 168.008844 
L 65.903063 169.183836 
L 65.663772 170.375276 
L 65.385102 171.579076 
L 65.068227 172.791135 
L 64.714406 174.007339 
L 64.324984 175.223573 
L 63.901382 176.435727 
L 63.445096 177.639703 
L 62.957693 178.831421 
L 62.440809 180.00683 
L 61.896145 181.161913 
L 61.325464 182.292693 
L 60.730589 183.395246 
L 60.113405 184.465702 
L 59.475852 185.500262 
L 58.819925 186.495199 
L 58.147674 187.446873 
L 57.461202 188.351739 
L 56.96637 189.272532 
L 57.07566 190.334108 
L 57.236235 191.349846 
L 57.446914 192.315597 
L 57.706301 193.227502 
L 58.012796 194.082008 
L 58.364619 194.875878 
L 58.759819 195.6062 
L 59.196298 196.270391 
L 59.671821 196.866206 
L 60.18404 197.391733 
L 60.730503 197.845397 
L 61.308676 198.225952 
L 61.915953 198.532482 
L 62.549673 198.764388 
L 63.207134 198.921386 
L 63.885601 199.003493 
L 64.582323 199.011019 
L 65.294541 198.944559 
L 66.019496 198.804974 
L 66.754441 198.593387 
L 67.496648 198.311165 
L 68.243412 197.959911 
L 68.992062 197.541444 
L 69.739965 197.057798 
L 70.484529 196.511197 
L 71.223211 195.904052 
L 71.953517 195.238944 
L 72.673009 194.518614 
L 73.379308 193.745951 
L 74.070093 192.923983 
L 74.74311 192.055861 
L 75.396169 191.144854 
L 76.02715 190.194337 
L 76.634002 189.20778 
L 77.21475 188.188741 
L 77.767492 187.140853 
L 78.290407 186.067822 
L 78.781753 184.973409 
L 79.239872 183.861431 
L 79.663193 182.735745 
L 80.050233 181.600245 
L 80.399603 180.458852 
L 80.71001 179.315506 
L 80.980261 178.174159 
L 81.209267 177.038765 
L 81.396049 175.913273 
L 81.539736 174.80162 
L 81.639581 173.707719 
L 81.694954 172.635454 
L 81.705354 171.588671 
L 81.670415 170.571162 
L 81.589905 169.586665 
L 81.46374 168.638848 
L 81.291981 167.731298 
L 81.074845 166.867512 
L 80.81271 166.050887 
L 80.506117 165.284704 
L 80.155776 164.572116 
L 79.762573 163.91614 
L 79.327571 163.319636 
L 78.852014 162.785299 
L 78.337331 162.31564 
L 77.785134 161.912975 
L 77.197226 161.579409 
" style="fill:none;stroke:#000000;stroke-linecap:square;"/>
   </g>
   <g id="line2d_57">
    <path clip-path="url(#pac293f15bf)" d="M 68.946216 174.257496 
L 68.313615 174.040666 
L 67.654382 173.899151 
L 66.970933 173.83417 
L 66.265845 173.846656 
L 65.541849 173.937241 
L 64.80182 174.106244 
L 64.04877 174.353655 
L 63.285835 174.67913 
L 62.516259 175.081975 
L 61.880672 175.616181 
L 62.062465 176.548275 
L 62.202448 177.526852 
L 62.300575 178.548196 
L 62.356934 179.608504 
L 62.37174 180.703893 
L 62.345325 181.830412 
L 62.278138 182.984054 
L 62.170738 184.160761 
L 62.023783 185.356435 
L 61.838033 186.566947 
L 61.61434 187.788143 
L 61.353646 189.015855 
L 61.056977 190.245907 
L 60.725441 191.474122 
L 60.360225 192.696332 
L 59.96259 193.908382 
L 59.533871 195.106142 
L 59.075474 196.285511 
L 58.588871 197.442428 
L 58.075603 198.572877 
L 57.537276 199.672897 
L 56.97556 200.738593 
L 56.39219 201.76614 
L 55.78896 202.751796 
L 55.167731 203.691912 
L 54.53042 204.58294 
L 53.879009 205.421446 
L 53.215537 206.20412 
L 52.542103 206.927787 
L 51.860865 207.589424 
L 52.077898 208.390825 
L 52.479926 209.160828 
L 52.920657 209.863509 
L 53.397822 210.496447 
L 53.909044 211.057567 
L 54.451855 211.545146 
L 55.023711 211.957802 
L 55.62201 212.294496 
L 56.244103 212.554525 
L 56.887311 212.737509 
L 57.548936 212.843389 
L 58.226272 212.87241 
L 58.916617 212.825115 
L 59.617283 212.702327 
L 60.325602 212.505144 
L 61.038937 212.234918 
L 61.754686 211.893248 
L 62.470292 211.481965 
L 63.183242 211.003115 
L 63.891077 210.458951 
L 64.591395 209.851918 
L 65.28185 209.18464 
L 65.960163 208.459906 
L 66.624116 207.680662 
L 67.27156 206.849994 
L 67.900416 205.971121 
L 68.508673 205.047382 
L 69.094394 204.082226 
L 69.655717 203.079202 
L 70.190855 202.041945 
L 70.698097 200.974175 
L 71.175812 199.87968 
L 71.622449 198.76231 
L 72.036539 197.625968 
L 72.416699 196.474602 
L 72.761631 195.312196 
L 73.070127 194.142763 
L 73.34107 192.970333 
L 73.573438 191.798951 
L 73.766307 190.632663 
L 73.918856 189.47551 
L 74.030365 188.331522 
L 74.100228 187.204706 
L 74.127949 186.099039 
L 74.113149 185.018457 
L 74.055574 183.966849 
L 73.955095 182.948046 
L 73.811715 181.965809 
L 73.625572 181.023822 
L 73.396949 180.125676 
L 73.126272 179.274866 
L 72.81412 178.474768 
L 72.461227 177.728637 
L 72.068485 177.039587 
L 71.636952 176.410582 
L 71.167852 175.844417 
L 70.662577 175.343711 
L 70.122693 174.910885 
L 69.549936 174.548151 
L 68.946216 174.257496 
" style="fill:none;stroke:#000000;stroke-linecap:square;"/>
   </g>
   <g id="line2d_58">
    <path clip-path="url(#pac293f15bf)" d="M 121.379306 174.865037 
L 120.4089 174.464615 
L 119.402365 174.148906 
L 118.363446 173.919826 
L 117.296093 173.778968 
L 116.204442 173.727589 
L 115.092808 173.766594 
L 113.965666 173.896522 
L 112.827634 174.117527 
L 111.683453 174.429372 
L 110.537969 174.831414 
L 109.396102 175.322597 
L 108.26283 175.901449 
L 107.143156 176.566072 
L 106.042082 177.31415 
L 104.96458 178.142942 
L 103.915559 179.049298 
L 102.899838 180.029657 
L 101.922115 181.080072 
L 100.98693 182.196213 
L 100.098643 183.373397 
L 99.261399 184.606604 
L 98.4791 185.890508 
L 97.75538 187.219499 
L 97.093581 188.587724 
L 96.496728 189.989111 
L 95.96751 191.417414 
L 95.508267 192.866245 
L 95.12097 194.329116 
L 94.807215 195.799475 
L 94.568214 197.270753 
L 94.404792 198.736396 
L 94.317387 200.189909 
L 94.306049 201.624895 
L 94.370453 203.035089 
L 94.5099 204.414393 
L 94.723333 205.756911 
L 95.009351 207.056979 
L 95.366223 208.309192 
L 95.791908 209.508428 
L 96.284073 210.649871 
L 96.840115 211.729033 
L 97.457183 212.741764 
L 98.132199 213.684269 
L 98.86188 214.553116 
L 99.642765 215.345246 
L 100.471233 216.057975 
L 101.343527 216.688996 
L 102.255777 217.23638 
L 103.204019 217.698572 
L 104.184217 218.074389 
L 105.192279 218.363012 
L 106.224081 218.563976 
L 107.275477 218.677168 
L 108.342321 218.70281 
L 109.420478 218.641452 
L 110.505839 218.493958 
L 111.594335 218.261496 
L 112.681947 217.945525 
L 113.764719 217.547779 
L 114.838764 217.070258 
L 115.900276 216.515213 
L 116.945538 215.885132 
L 117.970928 215.182728 
L 118.972926 214.410925 
L 119.948123 213.572849 
L 120.893221 212.671808 
L 121.805045 211.711287 
L 122.680543 210.694933 
L 123.516793 209.626543 
L 124.311006 208.510053 
L 125.060531 207.349527 
L 125.76286 206.149146 
L 126.415631 204.913195 
L 127.016629 203.646057 
L 127.563796 202.352199 
L 128.055232 201.036163 
L 128.489196 199.702554 
L 128.864116 198.356034 
L 129.178589 197.001305 
L 129.431386 195.643107 
L 129.621457 194.2862 
L 129.747936 192.935358 
L 129.810146 191.595357 
L 129.807599 190.270964 
L 129.740009 188.966925 
L 129.607288 187.687955 
L 129.409557 186.438722 
L 129.147148 185.223841 
L 128.820608 184.047853 
L 128.430705 182.91522 
L 127.978429 181.830303 
L 127.465001 180.797352 
L 126.891869 179.82049 
L 126.260717 178.903697 
L 125.573462 178.050793 
L 124.83226 177.265424 
L 124.0395 176.55104 
L 123.197809 175.910881 
L 122.310048 175.347959 
L 121.379306 174.865037 
" style="fill:none;stroke:#000000;stroke-linecap:square;"/>
   </g>
   <g id="line2d_59">
    <path clip-path="url(#pac293f15bf)" d="M 77.903284 161.939308 
L 77.3817 161.718015 
L 76.83357 161.557151 
L 76.260902 161.457787 
L 75.665847 161.420761 
L 75.05069 161.446672 
L 74.417843 161.535869 
L 73.769838 161.688442 
L 73.109314 161.904213 
L 72.439012 162.182732 
L 71.761757 162.52327 
L 71.080446 162.924814 
L 70.398037 163.386066 
L 69.717527 163.905445 
L 69.041941 164.481083 
L 68.374312 165.110833 
L 67.717662 165.792271 
L 67.074987 166.522708 
L 66.449233 167.299196 
L 65.843281 168.118541 
L 65.259927 168.977319 
L 64.701863 169.871892 
L 64.17166 170.798425 
L 63.671749 171.752906 
L 63.204411 172.731172 
L 62.771752 173.728927 
L 62.375702 174.74177 
L 62.017992 175.765222 
L 61.700154 176.794747 
L 61.423504 177.825787 
L 61.189143 178.853781 
L 60.99795 179.874197 
L 60.850577 180.882554 
L 60.747454 181.874455 
L 60.688787 182.845602 
L 60.674561 183.791829 
L 60.704548 184.709115 
L 60.77831 185.593612 
L 60.895207 186.441658 
L 61.054411 187.249799 
L 61.254907 188.014798 
L 61.495514 188.73365 
L 61.774886 189.403597 
L 62.091534 190.022129 
L 62.443832 190.586997 
L 62.83003 191.096215 
L 63.24827 191.548061 
L 63.696593 191.941085 
L 64.172957 192.2741 
L 64.675244 192.546187 
L 65.201275 192.75669 
L 65.748819 192.905207 
L 66.315603 192.991593 
L 66.899323 193.015947 
L 67.497654 192.978605 
L 68.108257 192.880138 
L 68.728788 192.721335 
L 69.356905 192.503203 
L 69.990275 192.22695 
L 70.626584 191.893981 
L 71.263535 191.505885 
L 71.898861 191.064426 
L 72.530326 190.571537 
L 73.155732 190.029302 
L 73.772921 189.439957 
L 74.379779 188.80587 
L 74.974244 188.129539 
L 75.554302 187.413579 
L 76.117997 186.660714 
L 76.663431 185.87377 
L 77.188769 185.055661 
L 77.692237 184.209386 
L 78.172132 183.338018 
L 78.626821 182.444695 
L 79.054743 181.532615 
L 79.454414 180.605024 
L 79.824432 179.66521 
L 80.163474 178.716496 
L 80.470306 177.762231 
L 80.743782 176.805783 
L 80.98285 175.850531 
L 81.186553 174.899854 
L 81.354037 173.957129 
L 81.484549 173.02572 
L 81.577447 172.108967 
L 81.632199 171.210182 
L 81.648389 170.332639 
L 81.625723 169.479564 
L 81.56403 168.654128 
L 81.463268 167.859436 
L 81.323526 167.098518 
L 81.14503 166.374319 
L 80.928145 165.689689 
L 80.673381 165.047373 
L 80.381391 164.45 
L 80.052978 163.900071 
L 79.689096 163.39995 
L 79.29085 162.951849 
L 78.859499 162.55782 
L 78.396455 162.219742 
L 77.903284 161.939308 
" style="fill:none;stroke:#000000;stroke-linecap:square;"/>
   </g>
   <g id="line2d_60">
    <path clip-path="url(#pac293f15bf)" d="M 95.4959 145.509527 
L 94.35817 144.910095 
L 93.153679 144.435758 
L 91.886268 144.090254 
L 90.560204 143.87692 
L 89.180191 143.798648 
L 87.751361 143.85784 
L 86.27927 144.056368 
L 84.76989 144.395528 
L 83.229585 144.875997 
L 81.665096 145.497792 
L 80.083502 146.260233 
L 78.492191 147.161903 
L 76.898812 148.200623 
L 75.311228 149.373423 
L 73.737457 150.676528 
L 73.300313 152.714229 
L 72.852785 154.82296 
L 72.338632 156.963535 
L 71.760323 159.129511 
L 71.120385 161.314449 
L 70.421392 163.511911 
L 69.665959 165.715466 
L 68.856736 167.918687 
L 67.996405 170.115152 
L 67.087673 172.298449 
L 66.13327 174.462171 
L 65.135953 176.599924 
L 64.098499 178.705324 
L 63.023707 180.772002 
L 61.914406 182.793606 
L 60.77345 184.763807 
L 59.603724 186.676302 
L 58.408149 188.524819 
L 57.18969 190.303128 
L 56.015507 192.024934 
L 56.157139 194.063261 
L 56.402659 196.021731 
L 56.749272 197.891933 
L 57.193707 199.666125 
L 57.732267 201.337265 
L 58.360883 202.899026 
L 59.075165 204.345812 
L 59.870453 205.672754 
L 60.741867 206.87571 
L 61.684351 207.951249 
L 62.692718 208.896637 
L 63.761687 209.709816 
L 64.885924 210.389373 
L 66.060066 210.934519 
L 67.278758 211.345052 
L 68.536673 211.621326 
L 69.828532 211.764222 
L 71.149127 211.775109 
L 72.493331 211.655815 
L 73.856111 211.40859 
L 75.232538 211.03608 
L 76.617796 210.541291 
L 78.007182 209.927564 
L 79.396116 209.198542 
L 80.780136 208.35815 
L 82.154904 207.410567 
L 83.516206 206.360204 
L 84.859946 205.21168 
L 86.182149 203.969809 
L 87.478958 202.639574 
L 88.746631 201.226118 
L 89.981541 199.734721 
L 91.180172 198.170795 
L 92.339115 196.539864 
L 93.455073 194.847555 
L 94.524852 193.099592 
L 95.545366 191.301778 
L 96.513632 189.459994 
L 97.426775 187.580187 
L 98.282024 185.668364 
L 99.076715 183.730587 
L 99.808298 181.772964 
L 100.47433 179.801642 
L 101.07249 177.822807 
L 101.600576 175.842673 
L 102.056511 173.867479 
L 102.438356 171.903483 
L 102.744308 169.956954 
L 102.972718 168.034171 
L 103.122091 166.14141 
L 103.191105 164.284942 
L 103.178616 162.471021 
L 103.083675 160.705878 
L 102.905539 158.995711 
L 102.643684 157.34667 
L 102.297825 155.764851 
L 101.867926 154.256277 
L 101.354222 152.826884 
L 100.757234 151.482503 
L 100.077784 150.228843 
L 99.317018 149.071465 
L 98.476418 148.015763 
L 97.557826 147.066933 
L 96.563453 146.229949 
L 95.4959 145.509527 
" style="fill:none;stroke:#000000;stroke-linecap:square;"/>
   </g>
   <g id="line2d_61">
    <path clip-path="url(#pac293f15bf)" d="M 72.008799 231.299188 
L 71.461872 231.271232 
L 70.911333 231.300099 
L 70.35936 231.385991 
L 69.80817 231.528885 
L 69.260011 231.728523 
L 68.717147 231.984409 
L 68.181856 232.295809 
L 67.65641 232.661746 
L 67.143072 233.080999 
L 66.64408 233.552108 
L 66.161634 234.07337 
L 65.697886 234.642848 
L 65.254929 235.258372 
L 64.834779 235.917551 
L 64.439368 236.617775 
L 64.070527 237.356229 
L 63.729979 238.129904 
L 63.419324 238.935611 
L 63.140028 239.769992 
L 62.893415 240.629542 
L 62.680655 241.510618 
L 62.50276 242.409468 
L 62.360572 243.322242 
L 62.25476 244.245016 
L 62.185816 245.173812 
L 62.154048 246.104622 
L 62.159581 247.033426 
L 62.202359 247.956217 
L 62.282138 248.869022 
L 62.398497 249.767924 
L 62.550838 250.649079 
L 62.738388 251.508744 
L 62.96021 252.343289 
L 63.21521 253.149218 
L 63.50214 253.923187 
L 63.819615 254.66202 
L 64.166117 255.362719 
L 64.540007 256.022482 
L 64.939538 256.638714 
L 65.362867 257.209031 
L 65.808061 257.731274 
L 66.273117 258.203516 
L 66.755969 258.62406 
L 67.254498 258.99145 
L 67.766551 259.304468 
L 68.289943 259.562139 
L 68.822477 259.763725 
L 69.361945 259.908728 
L 69.906147 259.996884 
L 70.452893 260.028159 
L 71.000018 260.002748 
L 71.545385 259.921062 
L 72.086895 259.783729 
L 72.622496 259.591582 
L 73.150184 259.345654 
L 73.668014 259.047169 
L 74.174103 258.697532 
L 74.666634 258.298324 
L 75.143864 257.85129 
L 75.60412 257.358331 
L 76.045812 256.821495 
L 76.467429 256.242968 
L 76.867542 255.625065 
L 77.24481 254.970218 
L 77.597978 254.28097 
L 77.925882 253.559966 
L 78.227447 252.809942 
L 78.50169 252.033716 
L 78.74772 251.234181 
L 78.964741 250.414295 
L 79.152052 249.577071 
L 79.309045 248.725572 
L 79.435209 247.862899 
L 79.53013 246.992183 
L 79.593488 246.116578 
L 79.625065 245.239252 
L 79.624736 244.363378 
L 79.592478 243.492125 
L 79.528365 242.628651 
L 79.432569 241.776095 
L 79.305365 240.937566 
L 79.147123 240.116136 
L 78.958316 239.314833 
L 78.739517 238.536626 
L 78.491399 237.784426 
L 78.214735 237.061068 
L 77.910396 236.369307 
L 77.579357 235.711805 
L 77.222687 235.091128 
L 76.841556 234.50973 
L 76.437231 233.969947 
L 76.011072 233.473987 
L 75.564536 233.023921 
L 75.099168 232.621671 
L 74.616603 232.269006 
L 74.118561 231.967527 
L 73.606845 231.71866 
L 73.083334 231.523647 
L 72.549979 231.38354 
L 72.008799 231.299188 
" style="fill:none;stroke:#000000;stroke-linecap:square;"/>
   </g>
   <g id="line2d_62">
    <path clip-path="url(#pac293f15bf)" d="M 102.141094 204.000496 
L 101.388851 203.840324 
L 100.621487 203.747987 
L 99.841973 203.724261 
L 99.053375 203.769653 
L 98.25884 203.884398 
L 97.461584 204.068445 
L 96.664879 204.321452 
L 95.872039 204.642785 
L 95.086403 205.031509 
L 94.311322 205.486386 
L 93.550138 206.005878 
L 92.806172 206.588147 
L 92.082698 207.231056 
L 91.382934 207.932174 
L 90.710015 208.688786 
L 90.06698 209.497902 
L 89.456748 210.356265 
L 88.882107 211.260367 
L 88.345688 212.206463 
L 87.849955 213.190592 
L 87.397185 214.208592 
L 86.989455 215.256122 
L 86.628628 216.328686 
L 86.316338 217.421659 
L 86.053987 218.530305 
L 85.84273 219.649812 
L 85.683468 220.775312 
L 85.576849 221.90191 
L 85.52326 223.024715 
L 85.522829 224.138862 
L 85.575422 225.239541 
L 85.680653 226.322025 
L 85.837882 227.38169 
L 86.046229 228.414047 
L 86.304574 229.414757 
L 86.611574 230.379658 
L 86.96567 231.304781 
L 87.365101 232.18637 
L 87.807919 233.020898 
L 88.291998 233.805079 
L 88.815054 234.535884 
L 89.37466 235.210547 
L 89.968258 235.826577 
L 90.593177 236.38176 
L 91.246648 236.874168 
L 91.92582 237.302159 
L 92.627778 237.664379 
L 93.34955 237.959761 
L 94.088129 238.187522 
L 94.840485 238.347163 
L 95.603574 238.43846 
L 96.374357 238.461461 
L 97.149806 238.416481 
L 97.926918 238.304091 
L 98.702725 238.12511 
L 99.474303 237.8806 
L 100.238783 237.571854 
L 100.993354 237.200386 
L 101.735277 236.767921 
L 102.461888 236.276389 
L 103.170604 235.727907 
L 103.858931 235.124775 
L 104.524469 234.469463 
L 105.164914 233.764599 
L 105.778066 233.012963 
L 106.361831 232.217471 
L 106.914224 231.381169 
L 107.433374 230.507218 
L 107.917527 229.598889 
L 108.365048 228.659552 
L 108.774424 227.69266 
L 109.144265 226.701747 
L 109.473312 225.690413 
L 109.76043 224.662319 
L 110.00462 223.62117 
L 110.205015 222.570711 
L 110.360883 221.514719 
L 110.471631 220.456985 
L 110.536804 219.401312 
L 110.556091 218.351505 
L 110.529324 217.311354 
L 110.456478 216.284631 
L 110.337679 215.27508 
L 110.173198 214.286401 
L 109.963458 213.322245 
L 109.709033 212.3862 
L 109.410651 211.481782 
L 109.069192 210.612426 
L 108.685689 209.78147 
L 108.261333 208.992146 
L 107.797465 208.247569 
L 107.295584 207.550726 
L 106.757338 206.904461 
L 106.18453 206.311466 
L 105.579109 205.774266 
L 104.943172 205.295209 
L 104.278958 204.876455 
L 103.588846 204.519961 
L 102.875345 204.227468 
L 102.141094 204.000496 
" style="fill:none;stroke:#000000;stroke-linecap:square;"/>
   </g>
   <g id="line2d_63">
    <path clip-path="url(#pac293f15bf)" d="M 82.276631 179.239961 
L 81.6156 179.020623 
L 80.93029 178.871623 
L 80.223263 178.794084 
L 79.497221 178.788859 
L 78.755002 178.85652 
L 77.999565 178.997345 
L 77.233979 179.211309 
L 76.461416 179.498073 
L 75.685131 179.85698 
L 74.90845 180.287044 
L 74.134752 180.786951 
L 73.367454 181.355053 
L 72.609985 181.989371 
L 71.865775 182.687594 
L 71.138227 183.447087 
L 70.4307 184.264894 
L 69.746483 185.137754 
L 69.088779 186.062107 
L 68.460678 187.034114 
L 67.865138 188.049674 
L 67.304963 189.104442 
L 66.782787 190.193854 
L 66.301051 191.313153 
L 65.861988 192.45741 
L 65.467612 193.621562 
L 65.119696 194.800433 
L 64.819769 195.98877 
L 64.569103 197.181274 
L 64.368709 198.37263 
L 64.219331 199.557543 
L 64.121444 200.730764 
L 64.075256 201.887127 
L 64.080712 203.021576 
L 64.137494 204.129191 
L 64.245035 205.20522 
L 64.402524 206.245101 
L 64.608916 207.244484 
L 64.862945 208.199255 
L 65.16314 209.10555 
L 65.507835 209.959775 
L 65.895187 210.758616 
L 66.323189 211.499052 
L 66.78969 212.178364 
L 67.292407 212.794138 
L 67.828941 213.344273 
L 68.396798 213.82698 
L 68.993398 214.240781 
L 69.616094 214.584511 
L 70.262183 214.857311 
L 70.928924 215.058624 
L 71.613545 215.188189 
L 72.313262 215.246032 
L 73.025283 215.232458 
L 73.746825 215.148043 
L 74.475118 214.993621 
L 75.207418 214.770279 
L 75.941012 214.479338 
L 76.673227 214.12235 
L 77.401436 213.701079 
L 78.123063 213.217497 
L 78.835591 212.673767 
L 79.536562 212.072232 
L 80.223589 211.415408 
L 80.89435 210.705967 
L 81.546599 209.946732 
L 82.178167 209.14066 
L 82.786964 208.290838 
L 83.370983 207.400465 
L 83.928302 206.472851 
L 84.457087 205.5114 
L 84.955592 204.519604 
L 85.422165 203.501032 
L 85.855249 202.459322 
L 86.253384 201.398172 
L 86.615208 200.32133 
L 86.939463 199.232585 
L 87.224996 198.135761 
L 87.470761 197.034707 
L 87.675822 195.933285 
L 87.839359 194.835368 
L 87.960667 193.744825 
L 88.039161 192.665514 
L 88.074382 191.601277 
L 88.065995 190.555924 
L 88.013798 189.533229 
L 87.917724 188.536917 
L 87.777841 187.570657 
L 87.594363 186.638049 
L 87.367646 185.742613 
L 87.098197 184.887782 
L 86.786672 184.076888 
L 86.433887 183.313147 
L 86.040811 182.599656 
L 85.608575 181.939369 
L 85.138473 181.335093 
L 84.63196 180.789473 
L 84.090655 180.304976 
L 83.516342 179.883878 
L 82.910965 179.528254 
L 82.276631 179.239961 
" style="fill:none;stroke:#ff0000;stroke-linecap:square;"/>
   </g>
   <g id="text_1">
    <!-- Magnetization directions of South Shore basalts -->
    <defs>
     <path id="BitstreamVeraSans-Roman-20"/>
     <path d="M 9.8125 72.90625 
L 24.515625 72.90625 
L 43.109375 23.296875 
L 61.8125 72.90625 
L 76.515625 72.90625 
L 76.515625 0 
L 66.890625 0 
L 66.890625 64.015625 
L 48.09375 14.015625 
L 38.1875 14.015625 
L 19.390625 64.015625 
L 19.390625 0 
L 9.8125 0 
z
" id="BitstreamVeraSans-Roman-4d"/>
     <path d="M 44.28125 53.078125 
L 44.28125 44.578125 
Q 40.484375 46.53125 36.375 47.5 
Q 32.28125 48.484375 27.875 48.484375 
Q 21.1875 48.484375 17.84375 46.4375 
Q 14.5 44.390625 14.5 40.28125 
Q 14.5 37.15625 16.890625 35.375 
Q 19.28125 33.59375 26.515625 31.984375 
L 29.59375 31.296875 
Q 39.15625 29.25 43.1875 25.515625 
Q 47.21875 21.78125 47.21875 15.09375 
Q 47.21875 7.46875 41.1875 3.015625 
Q 35.15625 -1.421875 24.609375 -1.421875 
Q 20.21875 -1.421875 15.453125 -0.5625 
Q 10.6875 0.296875 5.421875 2 
L 5.421875 11.28125 
Q 10.40625 8.6875 15.234375 7.390625 
Q 20.0625 6.109375 24.8125 6.109375 
Q 31.15625 6.109375 34.5625 8.28125 
Q 37.984375 10.453125 37.984375 14.40625 
Q 37.984375 18.0625 35.515625 20.015625 
Q 33.0625 21.96875 24.703125 23.78125 
L 21.578125 24.515625 
Q 13.234375 26.265625 9.515625 29.90625 
Q 5.8125 33.546875 5.8125 39.890625 
Q 5.8125 47.609375 11.28125 51.796875 
Q 16.75 56 26.8125 56 
Q 31.78125 56 36.171875 55.265625 
Q 40.578125 54.546875 44.28125 53.078125 
" id="BitstreamVeraSans-Roman-73"/>
     <path d="M 54.890625 33.015625 
L 54.890625 0 
L 45.90625 0 
L 45.90625 32.71875 
Q 45.90625 40.484375 42.875 44.328125 
Q 39.84375 48.1875 33.796875 48.1875 
Q 26.515625 48.1875 22.3125 43.546875 
Q 18.109375 38.921875 18.109375 30.90625 
L 18.109375 0 
L 9.078125 0 
L 9.078125 54.6875 
L 18.109375 54.6875 
L 18.109375 46.1875 
Q 21.34375 51.125 25.703125 53.5625 
Q 30.078125 56 35.796875 56 
Q 45.21875 56 50.046875 50.171875 
Q 54.890625 44.34375 54.890625 33.015625 
" id="BitstreamVeraSans-Roman-6e"/>
     <path d="M 41.109375 46.296875 
Q 39.59375 47.171875 37.8125 47.578125 
Q 36.03125 48 33.890625 48 
Q 26.265625 48 22.1875 43.046875 
Q 18.109375 38.09375 18.109375 28.8125 
L 18.109375 0 
L 9.078125 0 
L 9.078125 54.6875 
L 18.109375 54.6875 
L 18.109375 46.1875 
Q 20.953125 51.171875 25.484375 53.578125 
Q 30.03125 56 36.53125 56 
Q 37.453125 56 38.578125 55.875 
Q 39.703125 55.765625 41.0625 55.515625 
z
" id="BitstreamVeraSans-Roman-72"/>
     <path d="M 8.5 21.578125 
L 8.5 54.6875 
L 17.484375 54.6875 
L 17.484375 21.921875 
Q 17.484375 14.15625 20.5 10.265625 
Q 23.53125 6.390625 29.59375 6.390625 
Q 36.859375 6.390625 41.078125 11.03125 
Q 45.3125 15.671875 45.3125 23.6875 
L 45.3125 54.6875 
L 54.296875 54.6875 
L 54.296875 0 
L 45.3125 0 
L 45.3125 8.40625 
Q 42.046875 3.421875 37.71875 1 
Q 33.40625 -1.421875 27.6875 -1.421875 
Q 18.265625 -1.421875 13.375 4.4375 
Q 8.5 10.296875 8.5 21.578125 
" id="BitstreamVeraSans-Roman-75"/>
     <path d="M 30.609375 48.390625 
Q 23.390625 48.390625 19.1875 42.75 
Q 14.984375 37.109375 14.984375 27.296875 
Q 14.984375 17.484375 19.15625 11.84375 
Q 23.34375 6.203125 30.609375 6.203125 
Q 37.796875 6.203125 41.984375 11.859375 
Q 46.1875 17.53125 46.1875 27.296875 
Q 46.1875 37.015625 41.984375 42.703125 
Q 37.796875 48.390625 30.609375 48.390625 
M 30.609375 56 
Q 42.328125 56 49.015625 48.375 
Q 55.71875 40.765625 55.71875 27.296875 
Q 55.71875 13.875 49.015625 6.21875 
Q 42.328125 -1.421875 30.609375 -1.421875 
Q 18.84375 -1.421875 12.171875 6.21875 
Q 5.515625 13.875 5.515625 27.296875 
Q 5.515625 40.765625 12.171875 48.375 
Q 18.84375 56 30.609375 56 
" id="BitstreamVeraSans-Roman-6f"/>
     <path d="M 9.421875 75.984375 
L 18.40625 75.984375 
L 18.40625 0 
L 9.421875 0 
z
" id="BitstreamVeraSans-Roman-6c"/>
     <path d="M 5.515625 54.6875 
L 48.1875 54.6875 
L 48.1875 46.484375 
L 14.40625 7.171875 
L 48.1875 7.171875 
L 48.1875 0 
L 4.296875 0 
L 4.296875 8.203125 
L 38.09375 47.515625 
L 5.515625 47.515625 
z
" id="BitstreamVeraSans-Roman-7a"/>
     <path d="M 53.515625 70.515625 
L 53.515625 60.890625 
Q 47.90625 63.578125 42.921875 64.890625 
Q 37.9375 66.21875 33.296875 66.21875 
Q 25.25 66.21875 20.875 63.09375 
Q 16.5 59.96875 16.5 54.203125 
Q 16.5 49.359375 19.40625 46.890625 
Q 22.3125 44.4375 30.421875 42.921875 
L 36.375 41.703125 
Q 47.40625 39.59375 52.65625 34.296875 
Q 57.90625 29 57.90625 20.125 
Q 57.90625 9.515625 50.796875 4.046875 
Q 43.703125 -1.421875 29.984375 -1.421875 
Q 24.8125 -1.421875 18.96875 -0.25 
Q 13.140625 0.921875 6.890625 3.21875 
L 6.890625 13.375 
Q 12.890625 10.015625 18.65625 8.296875 
Q 24.421875 6.59375 29.984375 6.59375 
Q 38.421875 6.59375 43.015625 9.90625 
Q 47.609375 13.234375 47.609375 19.390625 
Q 47.609375 24.75 44.3125 27.78125 
Q 41.015625 30.8125 33.5 32.328125 
L 27.484375 33.5 
Q 16.453125 35.6875 11.515625 40.375 
Q 6.59375 45.0625 6.59375 53.421875 
Q 6.59375 63.09375 13.40625 68.65625 
Q 20.21875 74.21875 32.171875 74.21875 
Q 37.3125 74.21875 42.625 73.28125 
Q 47.953125 72.359375 53.515625 70.515625 
" id="BitstreamVeraSans-Roman-53"/>
     <path d="M 9.421875 54.6875 
L 18.40625 54.6875 
L 18.40625 0 
L 9.421875 0 
z
M 9.421875 75.984375 
L 18.40625 75.984375 
L 18.40625 64.59375 
L 9.421875 64.59375 
z
" id="BitstreamVeraSans-Roman-69"/>
     <path d="M 54.890625 33.015625 
L 54.890625 0 
L 45.90625 0 
L 45.90625 32.71875 
Q 45.90625 40.484375 42.875 44.328125 
Q 39.84375 48.1875 33.796875 48.1875 
Q 26.515625 48.1875 22.3125 43.546875 
Q 18.109375 38.921875 18.109375 30.90625 
L 18.109375 0 
L 9.078125 0 
L 9.078125 75.984375 
L 18.109375 75.984375 
L 18.109375 46.1875 
Q 21.34375 51.125 25.703125 53.5625 
Q 30.078125 56 35.796875 56 
Q 45.21875 56 50.046875 50.171875 
Q 54.890625 44.34375 54.890625 33.015625 
" id="BitstreamVeraSans-Roman-68"/>
     <path d="M 56.203125 29.59375 
L 56.203125 25.203125 
L 14.890625 25.203125 
Q 15.484375 15.921875 20.484375 11.0625 
Q 25.484375 6.203125 34.421875 6.203125 
Q 39.59375 6.203125 44.453125 7.46875 
Q 49.3125 8.734375 54.109375 11.28125 
L 54.109375 2.78125 
Q 49.265625 0.734375 44.1875 -0.34375 
Q 39.109375 -1.421875 33.890625 -1.421875 
Q 20.796875 -1.421875 13.15625 6.1875 
Q 5.515625 13.8125 5.515625 26.8125 
Q 5.515625 40.234375 12.765625 48.109375 
Q 20.015625 56 32.328125 56 
Q 43.359375 56 49.78125 48.890625 
Q 56.203125 41.796875 56.203125 29.59375 
M 47.21875 32.234375 
Q 47.125 39.59375 43.09375 43.984375 
Q 39.0625 48.390625 32.421875 48.390625 
Q 24.90625 48.390625 20.390625 44.140625 
Q 15.875 39.890625 15.1875 32.171875 
z
" id="BitstreamVeraSans-Roman-65"/>
     <path d="M 45.40625 46.390625 
L 45.40625 75.984375 
L 54.390625 75.984375 
L 54.390625 0 
L 45.40625 0 
L 45.40625 8.203125 
Q 42.578125 3.328125 38.25 0.953125 
Q 33.9375 -1.421875 27.875 -1.421875 
Q 17.96875 -1.421875 11.734375 6.484375 
Q 5.515625 14.40625 5.515625 27.296875 
Q 5.515625 40.1875 11.734375 48.09375 
Q 17.96875 56 27.875 56 
Q 33.9375 56 38.25 53.625 
Q 42.578125 51.265625 45.40625 46.390625 
M 14.796875 27.296875 
Q 14.796875 17.390625 18.875 11.75 
Q 22.953125 6.109375 30.078125 6.109375 
Q 37.203125 6.109375 41.296875 11.75 
Q 45.40625 17.390625 45.40625 27.296875 
Q 45.40625 37.203125 41.296875 42.84375 
Q 37.203125 48.484375 30.078125 48.484375 
Q 22.953125 48.484375 18.875 42.84375 
Q 14.796875 37.203125 14.796875 27.296875 
" id="BitstreamVeraSans-Roman-64"/>
     <path d="M 45.40625 27.984375 
Q 45.40625 37.75 41.375 43.109375 
Q 37.359375 48.484375 30.078125 48.484375 
Q 22.859375 48.484375 18.828125 43.109375 
Q 14.796875 37.75 14.796875 27.984375 
Q 14.796875 18.265625 18.828125 12.890625 
Q 22.859375 7.515625 30.078125 7.515625 
Q 37.359375 7.515625 41.375 12.890625 
Q 45.40625 18.265625 45.40625 27.984375 
M 54.390625 6.78125 
Q 54.390625 -7.171875 48.1875 -13.984375 
Q 42 -20.796875 29.203125 -20.796875 
Q 24.46875 -20.796875 20.265625 -20.09375 
Q 16.0625 -19.390625 12.109375 -17.921875 
L 12.109375 -9.1875 
Q 16.0625 -11.328125 19.921875 -12.34375 
Q 23.78125 -13.375 27.78125 -13.375 
Q 36.625 -13.375 41.015625 -8.765625 
Q 45.40625 -4.15625 45.40625 5.171875 
L 45.40625 9.625 
Q 42.625 4.78125 38.28125 2.390625 
Q 33.9375 0 27.875 0 
Q 17.828125 0 11.671875 7.65625 
Q 5.515625 15.328125 5.515625 27.984375 
Q 5.515625 40.671875 11.671875 48.328125 
Q 17.828125 56 27.875 56 
Q 33.9375 56 38.28125 53.609375 
Q 42.625 51.21875 45.40625 46.390625 
L 45.40625 54.6875 
L 54.390625 54.6875 
z
" id="BitstreamVeraSans-Roman-67"/>
     <path d="M 37.109375 75.984375 
L 37.109375 68.5 
L 28.515625 68.5 
Q 23.6875 68.5 21.796875 66.546875 
Q 19.921875 64.59375 19.921875 59.515625 
L 19.921875 54.6875 
L 34.71875 54.6875 
L 34.71875 47.703125 
L 19.921875 47.703125 
L 19.921875 0 
L 10.890625 0 
L 10.890625 47.703125 
L 2.296875 47.703125 
L 2.296875 54.6875 
L 10.890625 54.6875 
L 10.890625 58.5 
Q 10.890625 67.625 15.140625 71.796875 
Q 19.390625 75.984375 28.609375 75.984375 
z
" id="BitstreamVeraSans-Roman-66"/>
     <path d="M 34.28125 27.484375 
Q 23.390625 27.484375 19.1875 25 
Q 14.984375 22.515625 14.984375 16.5 
Q 14.984375 11.71875 18.140625 8.90625 
Q 21.296875 6.109375 26.703125 6.109375 
Q 34.1875 6.109375 38.703125 11.40625 
Q 43.21875 16.703125 43.21875 25.484375 
L 43.21875 27.484375 
z
M 52.203125 31.203125 
L 52.203125 0 
L 43.21875 0 
L 43.21875 8.296875 
Q 40.140625 3.328125 35.546875 0.953125 
Q 30.953125 -1.421875 24.3125 -1.421875 
Q 15.921875 -1.421875 10.953125 3.296875 
Q 6 8.015625 6 15.921875 
Q 6 25.140625 12.171875 29.828125 
Q 18.359375 34.515625 30.609375 34.515625 
L 43.21875 34.515625 
L 43.21875 35.40625 
Q 43.21875 41.609375 39.140625 45 
Q 35.0625 48.390625 27.6875 48.390625 
Q 23 48.390625 18.546875 47.265625 
Q 14.109375 46.140625 10.015625 43.890625 
L 10.015625 52.203125 
Q 14.9375 54.109375 19.578125 55.046875 
Q 24.21875 56 28.609375 56 
Q 40.484375 56 46.34375 49.84375 
Q 52.203125 43.703125 52.203125 31.203125 
" id="BitstreamVeraSans-Roman-61"/>
     <path d="M 18.3125 70.21875 
L 18.3125 54.6875 
L 36.8125 54.6875 
L 36.8125 47.703125 
L 18.3125 47.703125 
L 18.3125 18.015625 
Q 18.3125 11.328125 20.140625 9.421875 
Q 21.96875 7.515625 27.59375 7.515625 
L 36.8125 7.515625 
L 36.8125 0 
L 27.59375 0 
Q 17.1875 0 13.234375 3.875 
Q 9.28125 7.765625 9.28125 18.015625 
L 9.28125 47.703125 
L 2.6875 47.703125 
L 2.6875 54.6875 
L 9.28125 54.6875 
L 9.28125 70.21875 
z
" id="BitstreamVeraSans-Roman-74"/>
     <path d="M 48.78125 52.59375 
L 48.78125 44.1875 
Q 44.96875 46.296875 41.140625 47.34375 
Q 37.3125 48.390625 33.40625 48.390625 
Q 24.65625 48.390625 19.8125 42.84375 
Q 14.984375 37.3125 14.984375 27.296875 
Q 14.984375 17.28125 19.8125 11.734375 
Q 24.65625 6.203125 33.40625 6.203125 
Q 37.3125 6.203125 41.140625 7.25 
Q 44.96875 8.296875 48.78125 10.40625 
L 48.78125 2.09375 
Q 45.015625 0.34375 40.984375 -0.53125 
Q 36.96875 -1.421875 32.421875 -1.421875 
Q 20.0625 -1.421875 12.78125 6.34375 
Q 5.515625 14.109375 5.515625 27.296875 
Q 5.515625 40.671875 12.859375 48.328125 
Q 20.21875 56 33.015625 56 
Q 37.15625 56 41.109375 55.140625 
Q 45.0625 54.296875 48.78125 52.59375 
" id="BitstreamVeraSans-Roman-63"/>
     <path d="M 48.6875 27.296875 
Q 48.6875 37.203125 44.609375 42.84375 
Q 40.53125 48.484375 33.40625 48.484375 
Q 26.265625 48.484375 22.1875 42.84375 
Q 18.109375 37.203125 18.109375 27.296875 
Q 18.109375 17.390625 22.1875 11.75 
Q 26.265625 6.109375 33.40625 6.109375 
Q 40.53125 6.109375 44.609375 11.75 
Q 48.6875 17.390625 48.6875 27.296875 
M 18.109375 46.390625 
Q 20.953125 51.265625 25.265625 53.625 
Q 29.59375 56 35.59375 56 
Q 45.5625 56 51.78125 48.09375 
Q 58.015625 40.1875 58.015625 27.296875 
Q 58.015625 14.40625 51.78125 6.484375 
Q 45.5625 -1.421875 35.59375 -1.421875 
Q 29.59375 -1.421875 25.265625 0.953125 
Q 20.953125 3.328125 18.109375 8.203125 
L 18.109375 0 
L 9.078125 0 
L 9.078125 75.984375 
L 18.109375 75.984375 
z
" id="BitstreamVeraSans-Roman-62"/>
    </defs>
    <g transform="translate(118.7475 16.318125)scale(0.12 -0.12)">
     <use xlink:href="#BitstreamVeraSans-Roman-4d"/>
     <use x="86.279296875" xlink:href="#BitstreamVeraSans-Roman-61"/>
     <use x="147.55859375" xlink:href="#BitstreamVeraSans-Roman-67"/>
     <use x="211.03515625" xlink:href="#BitstreamVeraSans-Roman-6e"/>
     <use x="274.4140625" xlink:href="#BitstreamVeraSans-Roman-65"/>
     <use x="335.9375" xlink:href="#BitstreamVeraSans-Roman-74"/>
     <use x="375.146484375" xlink:href="#BitstreamVeraSans-Roman-69"/>
     <use x="402.9296875" xlink:href="#BitstreamVeraSans-Roman-7a"/>
     <use x="455.419921875" xlink:href="#BitstreamVeraSans-Roman-61"/>
     <use x="516.69921875" xlink:href="#BitstreamVeraSans-Roman-74"/>
     <use x="555.908203125" xlink:href="#BitstreamVeraSans-Roman-69"/>
     <use x="583.69140625" xlink:href="#BitstreamVeraSans-Roman-6f"/>
     <use x="644.873046875" xlink:href="#BitstreamVeraSans-Roman-6e"/>
     <use x="708.251953125" xlink:href="#BitstreamVeraSans-Roman-20"/>
     <use x="740.0390625" xlink:href="#BitstreamVeraSans-Roman-64"/>
     <use x="803.515625" xlink:href="#BitstreamVeraSans-Roman-69"/>
     <use x="831.298828125" xlink:href="#BitstreamVeraSans-Roman-72"/>
     <use x="872.380859375" xlink:href="#BitstreamVeraSans-Roman-65"/>
     <use x="933.904296875" xlink:href="#BitstreamVeraSans-Roman-63"/>
     <use x="988.884765625" xlink:href="#BitstreamVeraSans-Roman-74"/>
     <use x="1028.09375" xlink:href="#BitstreamVeraSans-Roman-69"/>
     <use x="1055.87695312" xlink:href="#BitstreamVeraSans-Roman-6f"/>
     <use x="1117.05859375" xlink:href="#BitstreamVeraSans-Roman-6e"/>
     <use x="1180.4375" xlink:href="#BitstreamVeraSans-Roman-73"/>
     <use x="1232.53710938" xlink:href="#BitstreamVeraSans-Roman-20"/>
     <use x="1264.32421875" xlink:href="#BitstreamVeraSans-Roman-6f"/>
     <use x="1325.50585938" xlink:href="#BitstreamVeraSans-Roman-66"/>
     <use x="1360.7109375" xlink:href="#BitstreamVeraSans-Roman-20"/>
     <use x="1392.49804688" xlink:href="#BitstreamVeraSans-Roman-53"/>
     <use x="1455.97460938" xlink:href="#BitstreamVeraSans-Roman-6f"/>
     <use x="1517.15625" xlink:href="#BitstreamVeraSans-Roman-75"/>
     <use x="1580.53515625" xlink:href="#BitstreamVeraSans-Roman-74"/>
     <use x="1619.74414062" xlink:href="#BitstreamVeraSans-Roman-68"/>
     <use x="1683.12304688" xlink:href="#BitstreamVeraSans-Roman-20"/>
     <use x="1714.91015625" xlink:href="#BitstreamVeraSans-Roman-53"/>
     <use x="1778.38671875" xlink:href="#BitstreamVeraSans-Roman-68"/>
     <use x="1841.765625" xlink:href="#BitstreamVeraSans-Roman-6f"/>
     <use x="1902.94726562" xlink:href="#BitstreamVeraSans-Roman-72"/>
     <use x="1944.02929688" xlink:href="#BitstreamVeraSans-Roman-65"/>
     <use x="2005.55273438" xlink:href="#BitstreamVeraSans-Roman-20"/>
     <use x="2037.33984375" xlink:href="#BitstreamVeraSans-Roman-62"/>
     <use x="2100.81640625" xlink:href="#BitstreamVeraSans-Roman-61"/>
     <use x="2162.09570312" xlink:href="#BitstreamVeraSans-Roman-73"/>
     <use x="2214.1953125" xlink:href="#BitstreamVeraSans-Roman-61"/>
     <use x="2275.47460938" xlink:href="#BitstreamVeraSans-Roman-6c"/>
     <use x="2303.2578125" xlink:href="#BitstreamVeraSans-Roman-74"/>
     <use x="2342.46679688" xlink:href="#BitstreamVeraSans-Roman-73"/>
    </g>
   </g>
  </g>
 </g>
 <defs>
  <clipPath id="pac293f15bf">
   <rect height="469.4" width="453.875" x="35.4828125" y="21.318125"/>
  </clipPath>
 </defs>
</svg>
